<svg xmlns="http://www.w3.org/2000/svg" width="107.75" height="100" viewBox="0 0 107.75 100">
  <g id="Grupo_124806" data-name="Grupo 124806" transform="translate(-328 -2763)">
    <g id="CF8_1.5_tarjeta_1" data-name="CF8_1.5 tarjeta 1" transform="translate(328 2763)">
      <circle id="Elipse_4359" data-name="Elipse 4359" cx="50" cy="50" r="50" fill="#fcd4e0"/>
      <g id="Grupo_62519" data-name="Grupo 62519">
        <g id="Grupo_62509" data-name="Grupo 62509">
          <rect id="Rectángulo_7214" data-name="Rectángulo 7214" width="10.33" height="7.99" rx="1.13" transform="translate(78.34 50.65)" fill="#083673"/>
          <rect id="Rectángulo_7215" data-name="Rectángulo 7215" width="10.33" height="2.14" transform="translate(78.34 53.05)" fill="#2997f0"/>
        </g>
        <rect id="Rectángulo_7216" data-name="Rectángulo 7216" width="22.39" height="13.36" rx="2.23" transform="translate(72.23 56.9)" fill="#083673"/>
        <g id="Grupo_62516" data-name="Grupo 62516">
          <path id="Trazado_132689" data-name="Trazado 132689" d="M5.02,30.07,55,11.52l.23-.09.21.12L91.63,30.74l-.51.96L55.15,12.62,5.4,31.1Z" fill="#d8b05c" fill-rule="evenodd"/>
          <g id="Grupo_62515" data-name="Grupo 62515">
            <g id="Grupo_62510" data-name="Grupo 62510">
              <rect id="Rectángulo_7217" data-name="Rectángulo 7217" width="0.92" height="31.98" transform="translate(76.55 34.37)" fill="#083673"/>
              <rect id="Rectángulo_7218" data-name="Rectángulo 7218" width="0.92" height="31.98" transform="translate(89.38 34.37)" fill="#083673"/>
            </g>
            <g id="Grupo_62511" data-name="Grupo 62511">
              <rect id="Rectángulo_7219" data-name="Rectángulo 7219" width="23.9" height="13.62" transform="translate(71.48 56.76)" fill="#d8b05c"/>
              <rect id="Rectángulo_7220" data-name="Rectángulo 7220" width="11.95" height="13.62" transform="translate(83.43 56.76)" fill="#7f4813"/>
              <path id="Trazado_132690" data-name="Trazado 132690" d="M72.48,57.68h1.87V69.46H72.48Zm2.86,0h1.89V69.46H75.34V57.68Zm2.88,0h1.92V69.46H78.22Zm2.9,0h1.82V69.46H81.12Zm2.8,0h1.9V69.46h-1.9Zm2.89,0h1.91V69.46H86.81V57.68Zm2.9,0h1.81V69.46H89.71V57.68Zm2.8,0h1.87V69.46H92.51Z" fill="#7f4813" fill-rule="evenodd"/>
              <path id="Trazado_132691" data-name="Trazado 132691" d="M83.92,57.68h1.9V69.46h-1.9Zm2.89,0h1.91V69.46H86.81Zm2.9,0h1.81V69.46H89.71Zm2.8,0h1.87V69.46H92.51Z" fill="#3f2409" fill-rule="evenodd"/>
            </g>
            <path id="Trazado_132692" data-name="Trazado 132692" d="M61.52,35.26h4.86a.93.93,0,0,1,.93.93v4.34a.93.93,0,0,1-.93.93H61.52a.92.92,0,0,1-.92-.92V36.19a.93.93,0,0,1,.92-.93Z" fill="#7f4813"/>
            <rect id="Rectángulo_7221" data-name="Rectángulo 7221" width="2.49" height="4.08" rx="0.39" transform="translate(64.04 36.32)" fill="#3f2409"/>
            <rect id="Rectángulo_7222" data-name="Rectángulo 7222" width="2.71" height="34.51" transform="translate(38.53 33.93)" fill="#083673"/>
            <g id="Grupo_62514" data-name="Grupo 62514">
              <g id="Grupo_62512" data-name="Grupo 62512">
                <path id="Trazado_132693" data-name="Trazado 132693" d="M27.14,68.66V33.21h.97V68.3h7.83V33.21h.97v35.8H27.14Z" fill="#7f4813" fill-rule="evenodd"/>
                <path id="Trazado_132694" data-name="Trazado 132694" d="M31.58,40.01l-4.21-6.8h1.07L32.02,39l3.59-5.79h1.07l-4.21,6.8-.45.72Z" fill="#7f4813" fill-rule="evenodd"/>
                <path id="Trazado_132695" data-name="Trazado 132695" d="M31.58,54.22l-4.4-7.11L27.09,47l.09-.15,4.4-7.1L32,39l.44.72,4.4,7.1L37,47l-.09.14-4.4,7.11-.44.71-.45-.71ZM28.16,47,32,53.21,35.89,47,32,40.73Z" fill="#7f4813" fill-rule="evenodd"/>
                <path id="Trazado_132696" data-name="Trazado 132696" d="M31.58,68.42l-4.4-7.1-.09-.15.09-.14,4.4-7.11.45-.71.44.71L36.87,61l.09.14-.09.15-4.4,7.1-.44.72-.45-.72Zm-3.42-7.25L32,67.41l3.86-6.24L32,54.93Z" fill="#7f4813" fill-rule="evenodd"/>
                <rect id="Rectángulo_7223" data-name="Rectángulo 7223" width="8.8" height="0.71" transform="translate(27.63 46.62)" fill="#7f4813"/>
                <rect id="Rectángulo_7224" data-name="Rectángulo 7224" width="8.8" height="0.71" transform="translate(27.63 60.82)" fill="#7f4813"/>
                <rect id="Rectángulo_7225" data-name="Rectángulo 7225" width="8.8" height="0.71" transform="translate(27.63 39.32)" fill="#7f4813"/>
                <rect id="Rectángulo_7226" data-name="Rectángulo 7226" width="8.8" height="0.71" transform="translate(27.63 53.98)" fill="#7f4813"/>
              </g>
              <g id="Grupo_62513" data-name="Grupo 62513">
                <path id="Trazado_132697" data-name="Trazado 132697" d="M36.91,33.21v35.8H32.02V68.3h3.92V33.21Z" fill="#3f2409" fill-rule="evenodd"/>
                <path id="Trazado_132698" data-name="Trazado 132698" d="M36.68,33.21l-4.21,6.8-.45.72V39l3.59-5.79Z" fill="#3f2409" fill-rule="evenodd"/>
                <path id="Trazado_132699" data-name="Trazado 132699" d="M32.02,39l.45.72,4.4,7.1.09.15-.09.14-4.4,7.11-.45.71V53.21l3.87-6.24-3.87-6.24Z" fill="#3f2409" fill-rule="evenodd"/>
                <path id="Trazado_132700" data-name="Trazado 132700" d="M32.02,53.21l.45.71,4.4,7.11.09.14-.09.15-4.4,7.1-.45.72V67.41l3.87-6.24-3.87-6.24Z" fill="#3f2409" fill-rule="evenodd"/>
                <rect id="Rectángulo_7227" data-name="Rectángulo 7227" width="4.4" height="0.71" transform="translate(32.03 46.62)" fill="#3f2409"/>
                <rect id="Rectángulo_7228" data-name="Rectángulo 7228" width="4.4" height="0.71" transform="translate(32.03 60.82)" fill="#3f2409"/>
                <rect id="Rectángulo_7229" data-name="Rectángulo 7229" width="4.4" height="0.71" transform="translate(32.03 39.32)" fill="#3f2409"/>
                <rect id="Rectángulo_7230" data-name="Rectángulo 7230" width="4.4" height="0.71" transform="translate(32.03 53.98)" fill="#3f2409"/>
              </g>
            </g>
            <rect id="Rectángulo_7231" data-name="Rectángulo 7231" width="91.8" height="5.37" transform="translate(4.54 29.95)" fill="#edcc88"/>
            <rect id="Rectángulo_7232" data-name="Rectángulo 7232" width="4.48" height="56.97" transform="translate(52.72 12.17)" fill="#d8b05c"/>
            <rect id="Rectángulo_7233" data-name="Rectángulo 7233" width="24.51" height="5.55" rx="1.07" transform="translate(21.62 67.75)" fill="#edcc88"/>
            <rect id="Rectángulo_7234" data-name="Rectángulo 7234" width="11.4" height="5.55" rx="1.07" transform="translate(49.26 67.75)" fill="#d8b05c"/>
          </g>
        </g>
        <g id="Grupo_62517" data-name="Grupo 62517">
          <path id="Trazado_132701" data-name="Trazado 132701" d="M83.43,60.77,99,68.68a40.05,40.05,0,0,1-6,12.79H73.82a43.66,43.66,0,0,1-5.93-12.79Z" fill="#6c58b8" fill-rule="evenodd"/>
          <path id="Trazado_132702" data-name="Trazado 132702" d="M98.63,69.9c-.27.86-.55,1.71-.86,2.54H69.12c-.32-.83-.61-1.68-.88-2.54Z" fill="#9182ca" fill-rule="evenodd"/>
        </g>
        <path id="Trazado_132703" data-name="Trazado 132703" d="M54.07,82.53c4,.62,9-1.22,12.66-1.18s4.81.85,9.68.84,10.66-2.64,14.45-1.74c5.53,1.32,9.58,2.46,16.89-.3-6,4.09-11.6,2.56-17.11,1.64-4-.68-9.31,1.42-14.17,1.42s-6-1.08-9.65-1.12C65.28,82.07,57.53,83.63,54.07,82.53Z" fill="#25bed9" fill-rule="evenodd"/>
        <rect id="Rectángulo_7235" data-name="Rectángulo 7235" width="65.94" height="12.46" transform="translate(1.71 73.08)" fill="#7f4813"/>
        <path id="Trazado_132704" data-name="Trazado 132704" d="M20.3,16.84c1.4-3.33,4.7-2.71,7.7-2.33-4.61-1.68-7.4-3.26-9.75.75-3.57-3-5.66-.54-9.43,2.59,2.76-1.39,5.62-3.08,8.07-.43l2,1.15Z" fill="#b5dfeb" fill-rule="evenodd"/>
        <path id="Trazado_132705" data-name="Trazado 132705" d="M64.61,54.63c.72-1.32,2-.92,3.31-.64-1.84-.89-2.93-1.67-4.08-.11-1.35-1.39-2.32-.47-4,.67,1.21-.45,2.47-1,3.37.17l.77.57Z" fill="#b5dfeb" fill-rule="evenodd"/>
        <g id="Grupo_62518" data-name="Grupo 62518">
          <path id="Trazado_132706" data-name="Trazado 132706" d="M81.18,2.7a3.46,3.46,0,0,1,6.41,0,3.8,3.8,0,0,1,1.64-.36,3.14,3.14,0,0,1,3.23,2.28A2.63,2.63,0,0,1,94.63,7h0a2.81,2.81,0,0,1-3,2.5H77.17a2.81,2.81,0,0,1-3-2.5h0a2.63,2.63,0,0,1,2.17-2.4,3.15,3.15,0,0,1,3.23-2.28,3.8,3.8,0,0,1,1.61.38Z" fill="#fff" fill-rule="evenodd"/>
          <path id="Trazado_132707" data-name="Trazado 132707" d="M84.39.55a3.19,3.19,0,0,1,3.2,2.15,3.8,3.8,0,0,1,1.64-.36,3.14,3.14,0,0,1,3.23,2.28A2.63,2.63,0,0,1,94.63,7h0a2.81,2.81,0,0,1-3,2.5H84.39Z" fill="#e9fcff" fill-rule="evenodd"/>
        </g>
      </g>
    </g>
  </g>
</svg>
