<svg xmlns="http://www.w3.org/2000/svg" width="100" height="100" viewBox="0 0 100 100">
  <g id="Grupo_124812" data-name="Grupo 124812" transform="translate(-810 -3531)">
    <g id="CF8_1.5_tarjeta_d" data-name="CF8_1.5 tarjeta d" transform="translate(810 3531)">
      <circle id="Elipse_4365" data-name="Elipse 4365" cx="50" cy="50" r="50" fill="#472ea6"/>
      <g id="Grupo_62526" data-name="Grupo 62526" transform="translate(14.405 3.883)">
        <path id="Trazado_132813" data-name="Trazado 132813" d="M14.43,44V39.41c.24-.08.26-.27.28-.48A34.59,34.59,0,0,1,17.86,28,37.11,37.11,0,0,1,49.53,6.7a34.12,34.12,0,0,1,8.73.64A36.35,36.35,0,0,1,80.47,20.93a35.84,35.84,0,0,1,7.34,17c.09.55-.15,1.22.4,1.67,0,5.09.15,10.19,0,15.29a32.81,32.81,0,0,1-5.42,17.52V60.69a51.71,51.71,0,0,1-5.28,6.25,1.83,1.83,0,0,0-.23.44.87.87,0,0,0-.57.34,33.3,33.3,0,0,1-4.9,4A37.85,37.85,0,0,1,65.63,75a.85.85,0,0,0-.64.93V86.25a29,29,0,0,1-6.83,1.84V78.17c0-.87-.16-1-1-.83a10.52,10.52,0,0,1-2.61.31,8.33,8.33,0,0,0-2.54.15c-.63-.07-.73.27-.72.82V88.74a28.4,28.4,0,0,1-6.82-.67c0-3.39,0-6.77,0-10.16,0-.49-.09-.72-.66-.83a37.179,37.179,0,0,1-6.19-1.81,38.621,38.621,0,0,1-6.85-3.61,47.48,47.48,0,0,1-5.47-4.43,48.711,48.711,0,0,1-4.21-5c-.38-.54-.61-1.22-1.25-1.56a2.23,2.23,0,0,0-.46-1.17,38.14,38.14,0,0,1-3.83-9.08A41,41,0,0,1,14.43,44Zm6.81,1.37a38.15,38.15,0,0,0,1.14,6.53A29.43,29.43,0,0,0,34.73,68.71a29.21,29.21,0,0,0,22.15,4.48A29.21,29.21,0,0,0,72,65.46a29.85,29.85,0,0,0,6.78-9.53,28.2,28.2,0,0,0,2.55-10.8,4.93,4.93,0,0,0-.07-2.53l.15-.53c0-1.14-.06-2.27-.12-3.41a27.61,27.61,0,0,0-1.5-7.48A29.77,29.77,0,0,0,69.53,16.93a30.22,30.22,0,0,0-17-6.14,26.73,26.73,0,0,0-6.86.54,29.63,29.63,0,0,0-19,12.34,30,30,0,0,0-5.43,18.56c.05.12.1.24.14.37a8.12,8.12,0,0,0-.14,2.74ZM50.45,77.78v-.07H48.29v.07Z" transform="translate(-14.405 -3.883)" fill="#fda551"/>
        <path id="Trazado_132814" data-name="Trazado 132814" d="M88.21,39.55c-.55-.45-.31-1.12-.4-1.67a35.84,35.84,0,0,0-7.34-17A36.35,36.35,0,0,0,58.26,7.34a34.12,34.12,0,0,0-8.73-.64A37.11,37.11,0,0,0,17.86,28a34.59,34.59,0,0,0-3.14,10.9c0,.21,0,.4-.28.48a19.49,19.49,0,0,1,.48-5.06,35.75,35.75,0,0,1,5.92-14.38,36.948,36.948,0,0,1,54.33-7.31A36.52,36.52,0,0,1,87.54,33.32,22.47,22.47,0,0,1,88.21,39.55Z" transform="translate(-14.405 -3.883)" fill="#fbd28a"/>
        <path id="Trazado_132815" data-name="Trazado 132815" d="M65,86.26V75.94a.85.85,0,0,1,.64-.93,37.849,37.849,0,0,0,6.21-3.33q0,5.685,0,11.37A31.37,31.37,0,0,1,65,86.26Z" transform="translate(-14.405 -3.883)" fill="#be6b1c"/>
        <path id="Trazado_132816" data-name="Trazado 132816" d="M54.57,77.66a10.52,10.52,0,0,0,2.61-.31c.84-.17,1,0,1,.83V88.1a29.419,29.419,0,0,1-6.87.65q0-5.07,0-10.12c0-.55.09-.89.72-.82A7.74,7.74,0,0,0,54.57,77.66Z" transform="translate(-14.405 -3.883)" fill="#be6b1c"/>
        <path id="Trazado_132817" data-name="Trazado 132817" d="M30.8,71.67a38.62,38.62,0,0,0,6.85,3.61V86.09a28.64,28.64,0,0,1-6.83-3.61C30.79,78.88,30.8,75.27,30.8,71.67Z" transform="translate(-14.405 -3.883)" fill="#fd8f25"/>
        <path id="Trazado_132818" data-name="Trazado 132818" d="M37.62,86.09V75.28a37.178,37.178,0,0,0,6.19,1.81c.57.11.66.34.66.83V88.08a28.4,28.4,0,0,1-6.85-1.99Z" transform="translate(-14.405 -3.883)" fill="#be6b1c"/>
        <path id="Trazado_132819" data-name="Trazado 132819" d="M77.31,67.38a1.83,1.83,0,0,1,.23-.44,51.71,51.71,0,0,0,5.28-6.25V72.36a28.41,28.41,0,0,1-5.48,6.54Z" transform="translate(-14.405 -3.883)" fill="#be6b1c"/>
        <path id="Trazado_132820" data-name="Trazado 132820" d="M77.31,67.38V78.9A26.14,26.14,0,0,1,71.89,83V71.64a33.3,33.3,0,0,0,4.9-4A.87.87,0,0,1,77.31,67.38Z" transform="translate(-14.405 -3.883)" fill="#fd8f25"/>
        <path id="Trazado_132821" data-name="Trazado 132821" d="M30.8,71.67V82.48A28.7,28.7,0,0,1,25.33,78V67.24a47.48,47.48,0,0,0,5.47,4.43Z" transform="translate(-14.405 -3.883)" fill="#be6b1c"/>
        <path id="Trazado_132822" data-name="Trazado 132822" d="M25.33,67.24V78a30,30,0,0,1-5.49-7V60.67c.64.34.87,1,1.25,1.56a48.711,48.711,0,0,0,4.24,5.01Z" transform="translate(-14.405 -3.883)" fill="#fd8f25"/>
        <path id="Trazado_132823" data-name="Trazado 132823" d="M19.87,60.71V71.04A33.43,33.43,0,0,1,15.41,60.5a36.75,36.75,0,0,1-1-9.11c0-2.48,0-5,0-7.42a41,41,0,0,0,1.15,6.49,38.14,38.14,0,0,0,3.83,9.08,2.23,2.23,0,0,1,.48,1.17Z" transform="translate(-14.405 -3.883)" fill="#be6b1c"/>
        <path id="Trazado_132824" data-name="Trazado 132824" d="M81.42,42.07l-.15.53c-.06.85-.11,1.71-.17,2.56-.07.42-.14.84-.22,1.26A30.15,30.15,0,0,1,46.79,70.6,28.25,28.25,0,0,1,36.47,67a30,30,0,0,1-13-15,36.28,36.28,0,0,1-1.86-6.71l-.18-2.73a1.046,1.046,0,0,0-.14-.37,10.52,10.52,0,0,0,.47-2.56A30.018,30.018,0,0,1,40.25,17a31,31,0,0,1,8.67-2,29.93,29.93,0,0,1,7.45.31,28.77,28.77,0,0,1,9.51,3.33,29.73,29.73,0,0,1,9.8,8.69,30.48,30.48,0,0,1,5,11.1,24.879,24.879,0,0,0,.74,3.64Zm-37.23-9.4a9.43,9.43,0,0,1,2-2.49,10.16,10.16,0,0,1,9.25-2.67,10.82,10.82,0,0,1,6.15,3.86c.28.33.48.59,1,.25,1.59-1.1,3.21-2.16,4.82-3.22.39-.25.4-.49.12-.83a21.71,21.71,0,0,0-4.16-4,17.09,17.09,0,0,0-10.29-3.22,16.29,16.29,0,0,0-8.42,2.38,19.39,19.39,0,0,0-8,9.29.92.92,0,0,1-1,.68H31.47c-.51,0-.71.14-.7.68v4.1c0,.59.22.73.75.71h3c.34,0,.44.06.43.48q-.11,2.27,0,4.53c0,.44-.12.47-.44.47h-3c-.55,0-.75.14-.74.72q.06,2,0,4c0,.62.23.76.8.75h4a1,1,0,0,1,1.1.69,19.06,19.06,0,0,0,4.61,6.69A16.79,16.79,0,0,0,55.86,61.3c4.89-.68,8.62-3.3,11.65-7.06.28-.35.25-.58-.14-.83-1.61-1.06-3.23-2.13-4.82-3.22-.38-.25-.63-.2-.86.14a11,11,0,0,1-8.53,4.25A10.18,10.18,0,0,1,46.66,52a11.78,11.78,0,0,1-2.48-2.88H54.66c.6,0,.8-.17.78-.77,0-1.22-.06-2.45,0-3.68,0-.81-.18-1.06-1-1H42.89c-.71,0-.92-.26-1-.94a21.15,21.15,0,0,1,0-3.47c.08-.85.34-1.1,1.18-1.09H54.61c.63,0,.86-.15.84-.81-.05-1.23-.07-2.46,0-3.68,0-.85-.25-1-1.06-1C51,32.7,47.67,32.67,44.19,32.67ZM71.86,50.46a2.74,2.74,0,1,0-2.74-2.75,2.71,2.71,0,0,0,2.74,2.75ZM32.17,58.67a2.72,2.72,0,1,0-1.951-.8,2.74,2.74,0,0,0,1.951.8ZM76,40.18a2.05,2.05,0,1,0-2,2.07A2.13,2.13,0,0,0,76,40.18ZM39.66,60a2.05,2.05,0,1,0,2.09,2,2.14,2.14,0,0,0-2.09-2Z" transform="translate(-14.405 -3.883)" fill="#fd8f25"/>
        <path id="Trazado_132825" data-name="Trazado 132825" d="M81.42,42.07a24.879,24.879,0,0,1-.7-3.64,30.48,30.48,0,0,0-5-11.1,29.73,29.73,0,0,0-9.8-8.69,28.77,28.77,0,0,0-9.51-3.33A29.93,29.93,0,0,0,48.92,15a31,31,0,0,0-8.67,2A30.077,30.077,0,0,0,21.71,39.67a10.52,10.52,0,0,1-.47,2.56,30,30,0,0,1,5.43-18.56,29.63,29.63,0,0,1,19-12.34,26.73,26.73,0,0,1,6.86-.54,30.22,30.22,0,0,1,17,6.14A29.77,29.77,0,0,1,79.8,31.18a27.61,27.61,0,0,1,1.5,7.48C81.36,39.8,81.4,40.93,81.42,42.07Z" transform="translate(-14.405 -3.883)" fill="#be6b1c"/>
        <path id="Trazado_132826" data-name="Trazado 132826" d="M21.56,45.33A36.28,36.28,0,0,0,23.42,52a30,30,0,0,0,13,15,28.25,28.25,0,0,0,10.32,3.6A30.15,30.15,0,0,0,80.88,46.42c.08-.42.15-.84.22-1.26h.24a28.2,28.2,0,0,1-2.55,10.8A29.85,29.85,0,0,1,72,65.46a29.21,29.21,0,0,1-15.13,7.73,29.21,29.21,0,0,1-22.15-4.48A29.43,29.43,0,0,1,22.38,51.87a38.15,38.15,0,0,1-1.14-6.53Z" transform="translate(-14.405 -3.883)" fill="#fbd288"/>
        <path id="Trazado_132827" data-name="Trazado 132827" d="M21.56,45.33h-.32a8.12,8.12,0,0,1,.14-2.74Z" transform="translate(-14.405 -3.883)" fill="#f6c157"/>
        <path id="Trazado_132828" data-name="Trazado 132828" d="M81.34,45.13H81.1c.06-.85.11-1.71.17-2.56A4.93,4.93,0,0,1,81.34,45.13Z" transform="translate(-14.405 -3.883)" fill="#f6c157"/>
        <path id="Trazado_132829" data-name="Trazado 132829" d="M50.45,77.78H48.29v-.07h2.16Z" transform="translate(-14.405 -3.883)" fill="#f6c157"/>
        <path id="Trazado_132830" data-name="Trazado 132830" d="M54.57,77.66a7.74,7.74,0,0,1-2.54.15A8.33,8.33,0,0,1,54.57,77.66Z" transform="translate(-14.405 -3.883)" fill="#f6c157"/>
        <path id="Trazado_132831" data-name="Trazado 132831" d="M44.19,32.67h10.2c.81,0,1.11.17,1.06,1-.07,1.22-.05,2.45,0,3.68,0,.66-.21.81-.84.81H43.07c-.84,0-1.1.24-1.18,1.09a21.15,21.15,0,0,0,0,3.47c.05.68.26,1,1,.94H54.44c.84,0,1.06.24,1,1-.07,1.23-.05,2.46,0,3.68,0,.6-.18.78-.78.77H44.18A11.78,11.78,0,0,0,46.66,52a10.18,10.18,0,0,0,6.53,2.55,11,11,0,0,0,8.53-4.25c.23-.34.48-.39.86-.14,1.59,1.09,3.21,2.16,4.82,3.22.39.25.42.48.14.83-3,3.76-6.76,6.38-11.65,7.06a16.79,16.79,0,0,1-14.58-4.78A19.06,19.06,0,0,1,36.7,49.8a1,1,0,0,0-1.1-.69h-4c-.57,0-.82-.13-.8-.75q.06-2,0-4c0-.58.19-.74.74-.72h3c.32,0,.46,0,.44-.47q-.11-2.26,0-4.53c0-.42-.09-.48-.43-.48h-3c-.53,0-.76-.12-.75-.71v-4.1c0-.54.19-.69.7-.68h4.19a.92.92,0,0,0,1-.68,19.39,19.39,0,0,1,8-9.29,16.29,16.29,0,0,1,8.42-2.38A17.09,17.09,0,0,1,63.4,23.54a21.71,21.71,0,0,1,4.16,4c.28.34.27.58-.12.83-1.61,1.06-3.23,2.12-4.82,3.22-.49.34-.69.08-1-.25a10.82,10.82,0,0,0-6.15-3.86,10.16,10.16,0,0,0-9.25,2.67,9.43,9.43,0,0,0-2.03,2.52Z" transform="translate(-14.405 -3.883)" fill="#f6c157"/>
        <path id="Trazado_132832" data-name="Trazado 132832" d="M71.86,50.46a2.74,2.74,0,1,1,2.73-2.77,2.71,2.71,0,0,1-2.73,2.77Z" transform="translate(-14.405 -3.883)" fill="#be6b1c"/>
        <path id="Trazado_132833" data-name="Trazado 132833" d="M32.17,58.67a2.74,2.74,0,1,1,2.74-2.76,2.7,2.7,0,0,1-2.74,2.76Z" transform="translate(-14.405 -3.883)" fill="#febc7c"/>
        <path id="Trazado_132834" data-name="Trazado 132834" d="M76,40.18a2.05,2.05,0,1,1-2.09-2A2.13,2.13,0,0,1,76,40.18Z" transform="translate(-14.405 -3.883)" fill="#be6b1c"/>
        <path id="Trazado_132835" data-name="Trazado 132835" d="M39.66,60a2.05,2.05,0,1,1-2,2.1A2.15,2.15,0,0,1,39.66,60Z" transform="translate(-14.405 -3.883)" fill="#febc7c"/>
      </g>
    </g>
  </g>
</svg>
