<svg xmlns="http://www.w3.org/2000/svg" width="100" height="100" viewBox="0 0 100 100">
  <g id="Grupo_124811" data-name="Grupo 124811" transform="translate(-285 -3537)">
    <g id="CF8_1.5_tarjeta_c" data-name="CF8_1.5 tarjeta c" transform="translate(285 3537)">
      <circle id="Elipse_4364" data-name="Elipse 4364" cx="50" cy="50" r="50" fill="#472ea6"/>
      <g id="Grupo_62525" data-name="Grupo 62525">
        <path id="Trazado_132777" data-name="Trazado 132777" d="M12.32,87.91a17.52,17.52,0,0,1-.19-1.76q0-20.52,0-41v-.49l.68.4a7.92,7.92,0,0,0,8.43.15A7.63,7.63,0,0,0,25.31,38q0-3.255,0-6.51a.35.35,0,0,1,.11,0v6.72a8,8,0,0,0,.13,1.76,8.3,8.3,0,0,0,8.52,6.33,8.14,8.14,0,0,0,7.57-7.78v-7h.13v6.61a8.07,8.07,0,0,0,.84,3.71,8.21,8.21,0,0,0,9.11,4.29,8,8,0,0,0,6.32-7.78V31.54h.13v5.72a11.49,11.49,0,0,0,.14,2.75,8.18,8.18,0,0,0,9,6.28,8,8,0,0,0,7.06-7.74v-7h.14v7.08a7.62,7.62,0,0,0,2.94,5.87A8.46,8.46,0,0,0,84,46.25q0,17.72,0,35.43a6.3,6.3,0,0,1-1.72,4.75c-1.48,1.5-3.31,1.66-5.17,1.65C55.47,88,33.9,88.34,12.32,87.91ZM36.12,75.3h0a2.14,2.14,0,0,0,3.21.94c.05.46-.16,1,.19,1.38.68,1.36,1.86,1.7,3.39,1a1.44,1.44,0,0,0,.14,1l.14.24v.06c.88,1.22,1.68,1.44,3.21.87A2.94,2.94,0,0,0,46.49,82c1,1.62,2.33,1.9,3.66.66.38-.36.59-.1.83.05,1.27.76,2.51,1.55,3.77,2.32a1.88,1.88,0,0,0,2.85-.68,2.65,2.65,0,0,0,.3-2.06c2,.5,3.26-.62,3-2.52-.06-.41,0-.49.42-.54A2.21,2.21,0,0,0,63.4,77c0-.45,0-.68.61-.59,1,.15,1.6-.53,2-1.37a1.62,1.62,0,0,0-.2-2.08c-.54-.52-.36-.77.14-1.06l.58-.37c.26.09.44.43.79.23h0c-.06.18.09.14.17.17a1.54,1.54,0,0,0,1.35.43h8.68c1.38,0,1.66-.28,1.66-1.68V51.4c0-1.53-.39-1.87-2-1.75a4.89,4.89,0,0,0-2,.1h-6.1c-1.65,0-1.72.07-1.82,1.69-1.64.31-3.16,1-4.77,1.43A1.81,1.81,0,0,0,61,54.67c-2.45.3-4.82,1-7.23,1.48-1.24-.12-2.48-.24-3.73-.34-3.69-.31-7.39-.6-11.08-.9,0-.8,0-1.54-.94-1.83-1.77-.57-3.51-1.24-5.34-1.65-.09-1.67-.49-2-2-1.68H22.46c-1.41,0-1.63.16-1.63,1.57v19c-.18,1.63.11,2,1.68,2h8.57a1.85,1.85,0,0,0,1.36-.42c.09,0,.24,0,.17-.17h0c.34.18.53-.15.79-.24l2.76,2A2.24,2.24,0,0,0,36,75.07ZM15.24,64.9V49.21c0-.45-.12-.78-.64-.81a.82.82,0,0,0-.92.7,2,2,0,0,0,0,.49v30.6c0,.6.07,1.16.83,1.19s.75-.64.75-1.18Zm-.9,18.26a.68.68,0,0,0-.63.66c0,.51.36.73.85.73a.59.59,0,0,0,.67-.66C15.24,83.4,15,83.15,14.34,83.16Z" fill="#c9bcf7"/>
        <path id="Trazado_132778" data-name="Trazado 132778" d="M86.85,14.76c1,3.77,1.91,7.54,2.83,11.31a48,48,0,0,1,1.19,5.15,12.29,12.29,0,0,0-3,.15H84c-.39-.28-.83-.14-1.25-.14H9.11c.56-2.73,1.45-5.37,2.18-8.06s1.61-5.6,2.42-8.4Z" fill="#fed2a8"/>
        <path id="Trazado_132779" data-name="Trazado 132779" d="M86.85,14.76H13.71c0-1.21-.1-2.43,0-3.64a3.39,3.39,0,0,1,2.61-3A6.6,6.6,0,0,1,17.76,8h65c2.37,0,4,1.23,4.09,3.25A24.187,24.187,0,0,1,86.85,14.76Z" fill="#febc7c"/>
        <path id="Trazado_132780" data-name="Trazado 132780" d="M12.32,87.91c21.58.43,43.15.08,64.73.17,1.86,0,3.69-.15,5.17-1.65a6.3,6.3,0,0,0,1.72-4.75Q84,64,84,46.25a11,11,0,0,0,3.91-1.65V86c0,3.79-2.27,6.07-6.07,6.07H18.06C15.09,92,13.06,90.56,12.32,87.91Z" fill="#8c80b8"/>
        <path id="Trazado_132781" data-name="Trazado 132781" d="M25.32,31.49V38a7.63,7.63,0,0,1-4.06,7.17A7.92,7.92,0,0,1,12.82,45l-.68-.4A9.05,9.05,0,0,1,9,36.8c.09-1.8-.14-3.6.11-5.4H21.62C22.83,31.42,24.07,31.46,25.32,31.49Z" fill="#fda551"/>
        <path id="Trazado_132782" data-name="Trazado 132782" d="M87.86,44.6A11,11,0,0,1,84,46.25a8.46,8.46,0,0,1-6.35-1.83,7.62,7.62,0,0,1-2.94-5.87V31.47h1.18l8.11-.1h7a38.51,38.51,0,0,1-.15,8.52A8.22,8.22,0,0,1,87.86,44.6Z" fill="#fda551"/>
        <path id="Trazado_132783" data-name="Trazado 132783" d="M84,31.37l-8.15.05H58.16c-5.43-.12-10.86-.08-16.29,0h-.13c-5.42-.1-10.84-.08-16.26,0a.35.35,0,0,0-.11,0c-1.25,0-2.49-.07-3.74-.07H9.12a.39.39,0,0,1,0-.18H82.7C83.12,31.23,83.56,31.09,84,31.37Z" fill="#709adb"/>
        <path id="Trazado_132784" data-name="Trazado 132784" d="M90.9,31.4h-3a12.29,12.29,0,0,1,3-.15.29.29,0,0,1,0,.15Z" fill="#709adb"/>
        <path id="Trazado_132785" data-name="Trazado 132785" d="M36.16,73.5l-2.76-2c1.7-5.24,3.42-10.47,5.11-15.7a1.85,1.85,0,0,1,.41-.87c3.69.3,7.39.59,11.08.9,1.25.1,2.49.22,3.73.34l-2.66.55a33.35,33.35,0,0,1-5.38.2c-.45,0-1-.09-1,.59-.46,0-.56.33-.59.74-.13,1.57.72,2.7,2.58,3.38a29.48,29.48,0,0,0,5.18,1c1.62.28,3.2.54,4.21,2.14a24.6,24.6,0,0,0,2.34,2.78,18.38,18.38,0,0,0,4.89,3.59c1.08.65,1.19,1.15.52,2.22a2.23,2.23,0,0,1-2.54.85,2.28,2.28,0,0,1-.57,2.33c-.47.55-1.23.49-1.71.81s.08,1.23-.34,1.89a2.11,2.11,0,0,1-2.76,1v.77a2.39,2.39,0,0,1-1.16,2.15,1.87,1.87,0,0,1-2.12-.25,7.561,7.561,0,0,0-1-.65c-.91-.35-.92-.75-.38-1.52.94-1.36.66-2.36-.7-3.09a1.81,1.81,0,0,0-2-.2,2.18,2.18,0,0,1,.39-.88,1.77,1.77,0,0,0-1-2.67c-.57-.55-1.29-.37-2-.39.86-1.75.67-2.5-.79-3.16a1.54,1.54,0,0,0-2.39.41c-.24.33-.37.77-.78,1-.29-.73-.4-1.59-1.38-1.78a1.57,1.57,0,0,0-2.41.29C37.56,71.3,36.87,72.4,36.16,73.5Z" fill="#fbc3ad"/>
        <path id="Trazado_132786" data-name="Trazado 132786" d="M41.82,31.46c5.43-.06,10.86-.1,16.29,0v6.81a8,8,0,0,1-6.32,7.78,8.21,8.21,0,0,1-9.11-4.29,8.07,8.07,0,0,1-.84-3.71C41.85,35.87,41.83,33.66,41.82,31.46Z" fill="#fda551"/>
        <path id="Trazado_132787" data-name="Trazado 132787" d="M58.24,31.47H74.48v7a8,8,0,0,1-7.06,7.74,8.18,8.18,0,0,1-9-6.28,11.49,11.49,0,0,1-.14-2.75C58.24,35.29,58.24,33.38,58.24,31.47Z" fill="#377ce1"/>
        <path id="Trazado_132788" data-name="Trazado 132788" d="M25.43,31.46c5.42-.07,10.84-.09,16.26,0v7a8.14,8.14,0,0,1-7.57,7.78,8.3,8.3,0,0,1-8.52-6.33,8,8,0,0,1-.13-1.76Q25.44,34.82,25.43,31.46Z" fill="#377ce1"/>
        <path id="Trazado_132789" data-name="Trazado 132789" d="M20.84,70.32v-19c0-1.41.22-1.57,1.63-1.57h8.17v19c0,1.18-.37,1.55-1.61,1.55C26.29,70.33,23.57,70.32,20.84,70.32ZM30,66a1.79,1.79,0,0,0-1.77-1.74A1.74,1.74,0,0,0,26.47,66a1.78,1.78,0,0,0,1.75,1.76A1.83,1.83,0,0,0,30,66Z" fill="#fda551"/>
        <path id="Trazado_132790" data-name="Trazado 132790" d="M67.34,51.44c.1-1.62.17-1.69,1.82-1.69h6.1v17c0,1.25-.4,1.64-1.65,1.65H67.4v-2Q67.35,58.92,67.34,51.44ZM71.8,64.21A1.79,1.79,0,0,0,70,65.92a1.85,1.85,0,0,0,1.72,1.81A1.78,1.78,0,0,0,73.5,66a1.74,1.74,0,0,0-1.7-1.79Z" fill="#478cf6"/>
        <path id="Trazado_132791" data-name="Trazado 132791" d="M44.65,57.49c.07-.68.59-.58,1-.59a33.349,33.349,0,0,0,5.38-.2l2.66-.55c2.41-.48,4.78-1.18,7.23-1.48a.7.7,0,0,1,.31.47q2.1,6.51,4.21,13a5.24,5.24,0,0,1,.11,1c-1.55,1.55-1.61,1.55-3,.09-.23-.24-.47-.46-.7-.7-1.85-2-3.7-3.9-5.4-6-.78-.95-1.47-2-2.83-2.3s-3-.55-4.44-.79a7.24,7.24,0,0,1-4.53-1.95Z" fill="#fed1bf"/>
        <path id="Trazado_132792" data-name="Trazado 132792" d="M44.65,57.49a7.24,7.24,0,0,0,4.58,2c1.49.24,3,.47,4.44.79s2,1.35,2.83,2.3c1.7,2.08,3.55,4,5.4,6,.23.24.47.46.7.7,1.38,1.46,1.44,1.46,3-.09.59.67.56,1.61,1,2.35l-.58.37c-.5.29-.68.54-.14,1.06a1.62,1.62,0,0,1,.2,2.08c-.45.84-1.06,1.52-2,1.37-.66-.09-.59.14-.61.59a2.21,2.21,0,0,1-2.1,2.25c-.38,0-.48.13-.42.54.28,1.9-1,3-3,2.52a2.65,2.65,0,0,1-.3,2.06,1.88,1.88,0,0,1-2.85.68c-1.26-.77-2.5-1.56-3.77-2.32-.24-.15-.45-.41-.83-.05-1.33,1.24-2.7,1-3.66-.66.6,0,1.35.29,1.79-.22a7.63,7.63,0,0,0,2.29-4.12c1.36.73,1.64,1.73.7,3.09-.54.77-.53,1.17.38,1.52a7.56,7.56,0,0,1,1,.65,1.87,1.87,0,0,0,2.12.25A2.39,2.39,0,0,0,55.91,81v-.77a2.11,2.11,0,0,0,2.76-1c.42-.66-.11-1.59.34-1.89s1.24-.26,1.71-.81a2.28,2.28,0,0,0,.57-2.33,2.23,2.23,0,0,0,2.54-.85c.67-1.07.56-1.57-.52-2.22a18.38,18.38,0,0,1-4.89-3.59A24.6,24.6,0,0,1,56,64.77c-1-1.6-2.59-1.86-4.21-2.14a29.481,29.481,0,0,1-5.18-1c-1.86-.68-2.71-1.81-2.58-3.38C44.09,57.82,44.19,57.52,44.65,57.49Z" fill="#f0ac97"/>
        <path id="Trazado_132793" data-name="Trazado 132793" d="M38.92,54.91a1.85,1.85,0,0,0-.41.87C36.82,61,35.1,66.24,33.4,71.48c-.26.09-.45.42-.79.24V51.43c1.83.41,3.57,1.08,5.34,1.65C38.9,53.37,39,54.11,38.92,54.91Z" fill="#e5e5e6"/>
        <path id="Trazado_132794" data-name="Trazado 132794" d="M66.58,71.48c-.43-.74-.4-1.68-1-2.35a5.24,5.24,0,0,0-.11-1q-2.1-6.51-4.21-13a.7.7,0,0,0-.31-.47,1.81,1.81,0,0,1,1.61-1.8c1.61-.4,3.13-1.12,4.77-1.43V71.81C67,71.91,66.84,71.57,66.58,71.48Z" fill="#e5e5e6"/>
        <path id="Trazado_132795" data-name="Trazado 132795" d="M67.37,71.71V70.33h8c1.51,0,1.85-.34,1.85-1.84V49.66c1.58-.12,2,.22,2,1.75V70.62c0,1.4-.28,1.68-1.66,1.68H68.87a1.54,1.54,0,0,1-1.35-.43c0-.06-.11-.11-.17-.17Z" fill="#2366d2"/>
        <path id="Trazado_132796" data-name="Trazado 132796" d="M32.64,51.43V71.72h0l-.17.17a1.85,1.85,0,0,1-1.36.42H22.52c-1.57,0-1.86-.34-1.68-2h8.18c1.24,0,1.61-.37,1.61-1.55v-19C32.15,49.42,32.55,49.76,32.64,51.43Z" fill="#fd8f25"/>
        <path id="Trazado_132797" data-name="Trazado 132797" d="M77.24,49.65V68.48c0,1.5-.34,1.84-1.85,1.84h-8v-2H73.6c1.25,0,1.65-.4,1.65-1.65v-17A4.89,4.89,0,0,1,77.24,49.65Z" fill="#377ce1"/>
        <path id="Trazado_132798" data-name="Trazado 132798" d="M15.24,64.9V80.2c0,.54.14,1.22-.75,1.18s-.83-.59-.83-1.19V49.59a2,2,0,0,1,0-.49.82.82,0,0,1,.92-.7c.52,0,.64.36.64.81V64.9Z" fill="#7e8083"/>
        <path id="Trazado_132799" data-name="Trazado 132799" d="M42.08,71.71c.41-.2.54-.64.78-1a1.54,1.54,0,0,1,2.39-.41A2.54,2.54,0,0,1,44.8,72c-.88,1.41-1.78,2.81-2.62,4.25a2.42,2.42,0,0,1-2.66,1.38c-.35-.42-.14-.92-.19-1.38a51.221,51.221,0,0,0,2.75-4.54Z" fill="#fed1bf"/>
        <path id="Trazado_132800" data-name="Trazado 132800" d="M39.52,77.63a2.42,2.42,0,0,0,2.66-1.38C43,74.81,43.92,73.41,44.8,72a2.54,2.54,0,0,0,.45-1.67c1.46.66,1.65,1.41.79,3.16a51.371,51.371,0,0,0-3.13,5.11C41.38,79.33,40.2,79,39.52,77.63Z" fill="#f0ac97"/>
        <path id="Trazado_132801" data-name="Trazado 132801" d="M42.91,78.6A51.368,51.368,0,0,1,46,73.49c.68,0,1.4-.16,2,.39,0,1.51-1.16,2.45-1.77,3.65s-1.41,2.38-3,2.39v-.06c0-.13,0-.2-.14-.24a1.44,1.44,0,0,1-.18-1.02Z" fill="#fed1bf"/>
        <path id="Trazado_132802" data-name="Trazado 132802" d="M43.2,79.92c1.63,0,2.39-1.12,3-2.39S48,75.39,48,73.88a1.77,1.77,0,0,1,1,2.67,2.18,2.18,0,0,0-.39.88,17.63,17.63,0,0,0-2.19,3.36C44.88,81.36,44.08,81.14,43.2,79.92Z" fill="#f0ac97"/>
        <path id="Trazado_132803" data-name="Trazado 132803" d="M36.16,73.5c.71-1.1,1.4-2.2,2.13-3.28a1.57,1.57,0,0,1,2.41-.29,2.11,2.11,0,0,1-.39,1.38,25.907,25.907,0,0,0-1.38,2.24,2.59,2.59,0,0,1-2.81,1.76h0L36,75.07a2.24,2.24,0,0,1,.16-1.57Z" fill="#fed1bf"/>
        <path id="Trazado_132804" data-name="Trazado 132804" d="M36.12,75.31a2.59,2.59,0,0,0,2.81-1.76,25.909,25.909,0,0,1,1.38-2.24,2.11,2.11,0,0,0,.39-1.38c1,.19,1.09,1,1.38,1.78a51.22,51.22,0,0,1-2.75,4.54,2.14,2.14,0,0,1-3.21-.94Z" fill="#f0ac97"/>
        <path id="Trazado_132805" data-name="Trazado 132805" d="M46.41,80.79a17.631,17.631,0,0,1,2.19-3.36,1.81,1.81,0,0,1,2,.2,7.63,7.63,0,0,1-2.29,4.12c-.44.51-1.19.17-1.79.22A2.94,2.94,0,0,1,46.41,80.79Z" fill="#fed1bf"/>
        <path id="Trazado_132806" data-name="Trazado 132806" d="M14.34,83.16c.68,0,.9.24.89.73a.59.59,0,0,1-.67.66c-.49,0-.87-.22-.85-.73A.68.68,0,0,1,14.34,83.16Z" fill="#7e8083"/>
        <path id="Trazado_132807" data-name="Trazado 132807" d="M32.45,71.88l.17-.17C32.69,71.89,32.54,71.85,32.45,71.88Z" fill="#e5e5e6"/>
        <path id="Trazado_132808" data-name="Trazado 132808" d="M67.35,71.7c.06.06.12.11.17.17S67.29,71.88,67.35,71.7Z" fill="#e5e5e6"/>
        <path id="Trazado_132809" data-name="Trazado 132809" d="M36,75.07l.13.23Z" fill="#f0ac97"/>
        <path id="Trazado_132810" data-name="Trazado 132810" d="M43.05,79.62c.12,0,.18.11.14.24C43.14,79.78,43.09,79.7,43.05,79.62Z" fill="#f0ac97"/>
        <path id="Trazado_132811" data-name="Trazado 132811" d="M30,66a1.83,1.83,0,0,1-1.75,1.78A1.78,1.78,0,0,1,26.47,66a1.74,1.74,0,0,1,1.73-1.76A1.79,1.79,0,0,1,30,66Z" fill="#fefefe"/>
        <path id="Trazado_132812" data-name="Trazado 132812" d="M71.8,64.21A1.74,1.74,0,0,1,73.5,66a1.78,1.78,0,0,1-1.78,1.73A1.85,1.85,0,0,1,70,65.92a1.79,1.79,0,0,1,1.8-1.71Z" fill="#fefefe"/>
      </g>
    </g>
  </g>
</svg>
