<svg xmlns="http://www.w3.org/2000/svg" width="100" height="100" viewBox="0 0 100 100">
  <g id="Grupo_124787" data-name="Grupo 124787" transform="translate(-542 -3104)">
    <g id="CF8_1.5_tarjeta_3_copia" data-name="CF8_1.5 tarjeta 3 copia" transform="translate(542 3104)">
      <circle id="Elipse_4567" data-name="Elipse 4567" cx="50" cy="50" r="50" fill="#fcd4e0"/>
      <g id="Grupo_124786" data-name="Grupo 124786">
        <path id="Trazado_235407" data-name="Trazado 235407" d="M23.69,25.12V17.91a8.73,8.73,0,0,1,8.79-8.83H82.87a3.539,3.539,0,0,1,.73.05,3.09,3.09,0,0,1-.43.14,8.69,8.69,0,0,0-6.87,8.44V81.79a8.67,8.67,0,0,1-5.15,8.34,9.25,9.25,0,0,1-4.9.76.54.54,0,0,0-.15-.1,8.87,8.87,0,0,1-7.35-9c.07-2.55,0-5.11,0-7.66,0-.77-.24-.86-.92-.64-1,.32-1.54,1.17-2.23,1.83a2.86,2.86,0,0,1-4.21.07,6.3,6.3,0,0,1-.77-.78c-1.57-2-3.93-1.43-5.13.32a2.89,2.89,0,0,1-4.64.35c-.36-.36-.71-.74-1.09-1.09a2.9,2.9,0,0,0-3.45-.5,4.44,4.44,0,0,0-1.27,1.17,3.09,3.09,0,0,1-5.18,0,7.09,7.09,0,0,0-.77-.78,2.77,2.77,0,0,0-3.43-.33c-.77.47-1.24,1.25-2,1.76V60.19a21.11,21.11,0,0,0,4-.48A17.82,17.82,0,0,0,38,52.92H52.65a2.93,2.93,0,1,0,0-5.84H40.71a19.06,19.06,0,0,0,0-8.76H52.65a2.94,2.94,0,1,0,0-5.85H38a17.75,17.75,0,0,0-14.31-7.35Zm19.09-7.28H32.73a2.93,2.93,0,0,0-3.2,3,3,3,0,0,0,3.21,2.89H52.65a2.94,2.94,0,1,0,0-5.85Zm-.1,49.7h10a2.93,2.93,0,1,0,0-5.85H32.66a2.91,2.91,0,0,0-3.13,3,3,3,0,0,0,3.11,2.9ZM66,23.69h1.76a2.9,2.9,0,0,0,2.74-3,3,3,0,0,0-2.76-2.88H64.46a2.92,2.92,0,0,0-.78,5.67,8.59,8.59,0,0,0,2.32.21Zm0,14.62h1.77a2.88,2.88,0,0,0,2.74-2.95,3,3,0,0,0-2.75-2.88H64.48a2.91,2.91,0,0,0-.71,5.69,9.19,9.19,0,0,0,2.17.14Zm0,14.61h1.74a2.9,2.9,0,0,0,2.73-3,3,3,0,0,0-2.76-2.88H64.43A2.72,2.72,0,0,0,61.9,48.9a2.82,2.82,0,0,0,.6,3.1c.98,1.1,2.25.92,3.5.92Zm0,14.62h1.77a2.89,2.89,0,0,0,2.75-2.94,3,3,0,0,0-2.74-2.89H64.5a2.92,2.92,0,0,0-.73,5.69,9.19,9.19,0,0,0,2.16.14Z" fill="#fbd016"/>
        <path id="Trazado_235408" data-name="Trazado 235408" d="M23.71,75.58c.73-.51,1.2-1.29,2-1.76a2.77,2.77,0,0,1,3.43.33,7.09,7.09,0,0,1,.77.78,3.09,3.09,0,0,0,5.18,0,4.44,4.44,0,0,1,1.27-1.17,2.9,2.9,0,0,1,3.45.5c.38.35.73.73,1.09,1.09A2.89,2.89,0,0,0,45.51,75c1.2-1.75,3.56-2.3,5.13-.32a6.3,6.3,0,0,0,.77.78,2.86,2.86,0,0,0,4.21-.07c.69-.66,1.22-1.51,2.23-1.83.68-.22.93-.13.92.64v7.66a8.87,8.87,0,0,0,7.35,9c.05,0,.1.07.15.1H15.49c-5.62,0-9.34-3.7-9.34-9.3V74.27c0-.92.1-1,1-.67a4.38,4.38,0,0,1,1.7,1.34c1.83,1.91,3.35,1.91,5.18,0,.17-.18.33-.36.5-.53a2.87,2.87,0,0,1,4.3,0c.48.46.9,1,1.42,1.41a2.6,2.6,0,0,0,3.46-.24Z" fill="#f9a41e"/>
        <path id="Trazado_235409" data-name="Trazado 235409" d="M38,52.92a17.82,17.82,0,0,1-10.32,6.86,21.11,21.11,0,0,1-4,.48A17.57,17.57,0,1,1,38,32.46a20.72,20.72,0,0,1,2.74,5.85,19.06,19.06,0,0,1,0,8.76A20.72,20.72,0,0,1,38,52.92ZM32.45,35.23a1.38,1.38,0,0,0-.87-1.17,1.45,1.45,0,0,0-1.73.39q-7.2,7.2-14.38,14.39a1.47,1.47,0,1,0,2,2.09L31.91,36.55A1.68,1.68,0,0,0,32.45,35.23ZM18.58,33.4a4.18,4.18,0,0,0,0,8.35,4.18,4.18,0,0,0,0-8.35ZM28.82,43.63A4.18,4.18,0,1,0,33,47.88a4.29,4.29,0,0,0-4.18-4.25Z" fill="#bbabf5"/>
        <path id="Trazado_235410" data-name="Trazado 235410" d="M76.31,30.1V17.71a8.69,8.69,0,0,1,6.87-8.44,3.09,3.09,0,0,0,.43-.14,8.85,8.85,0,0,1,9.77,5.92,9.26,9.26,0,0,1,.47,2.86V31.68c0,.77-.23.87-.89.65A4.22,4.22,0,0,1,91.24,31c-1.93-2-3.4-2-5.3,0s-3.43,2-5.35-.11C79.21,29.37,78,29.15,76.31,30.1Z" fill="#f9a51e"/>
        <path id="Trazado_235411" data-name="Trazado 235411" d="M42.78,17.84h9.86a2.94,2.94,0,1,1,0,5.85H32.74a3,3,0,0,1-3.21-2.89,2.93,2.93,0,0,1,3.2-3Z" fill="#f9a41e"/>
        <path id="Trazado_235412" data-name="Trazado 235412" d="M42.68,67.54h-10a3,3,0,0,1-3.11-2.9,2.91,2.91,0,0,1,3.13-3H52.74a2.93,2.93,0,1,1,0,5.85Z" fill="#f9a41e"/>
        <path id="Trazado_235413" data-name="Trazado 235413" d="M40.71,38.31A20.72,20.72,0,0,0,38,32.46H52.65a2.94,2.94,0,1,1,0,5.85Z" fill="#f9a41e"/>
        <path id="Trazado_235414" data-name="Trazado 235414" d="M38,52.92a20.72,20.72,0,0,0,2.74-5.85H52.65a2.93,2.93,0,1,1,0,5.84Z" fill="#f9a41e"/>
        <path id="Trazado_235415" data-name="Trazado 235415" d="M66,23.69a8.59,8.59,0,0,1-2.32-.17,2.92,2.92,0,0,1,.78-5.67h3.28a3,3,0,0,1,2.76,2.88,2.9,2.9,0,0,1-2.74,3C67.17,23.71,66.62,23.69,66,23.69Z" fill="#f9a41e"/>
        <path id="Trazado_235416" data-name="Trazado 235416" d="M65.94,38.31a9.19,9.19,0,0,1-2.23-.15,2.91,2.91,0,0,1,.71-5.69H67.7a3,3,0,0,1,2.75,2.88,2.88,2.88,0,0,1-2.74,2.95C67.16,38.33,66.61,38.31,65.94,38.31Z" fill="#f9a41e"/>
        <path id="Trazado_235417" data-name="Trazado 235417" d="M66,52.92c-1.23,0-2.5.18-3.48-.9a2.82,2.82,0,0,1-.6-3.12,2.72,2.72,0,0,1,2.51-1.81c1.09-.06,2.19,0,3.28,0A3,3,0,0,1,70.45,50a2.9,2.9,0,0,1-2.73,3C67.14,53,66.56,52.92,66,52.92Z" fill="#f9a41e"/>
        <path id="Trazado_235418" data-name="Trazado 235418" d="M65.93,67.54a9.19,9.19,0,0,1-2.23-.15,2.92,2.92,0,0,1,.73-5.69h3.28a3,3,0,0,1,2.74,2.89,2.89,2.89,0,0,1-2.75,2.94C67.15,67.56,66.6,67.54,65.93,67.54Z" fill="#f9a41e"/>
        <path id="Trazado_235419" data-name="Trazado 235419" d="M32.45,35.23a1.68,1.68,0,0,1-.54,1.32L17.52,50.93a1.47,1.47,0,1,1-2-2.09q7.17-7.2,14.38-14.39a1.45,1.45,0,0,1,1.73-.39,1.38,1.38,0,0,1,.82,1.17Z" fill="#35237d"/>
        <path id="Trazado_235420" data-name="Trazado 235420" d="M18.58,33.4a4.18,4.18,0,0,1,0,8.35,4.18,4.18,0,0,1,0-8.35Zm0,5.41a1.24,1.24,0,1,0,0-2.47,1.235,1.235,0,1,0-.03,2.47Z" fill="#35237d"/>
        <path id="Trazado_235421" data-name="Trazado 235421" d="M28.82,43.63a4.18,4.18,0,1,1-4.19,4.11,4.29,4.29,0,0,1,4.19-4.11ZM30,47.78a1.24,1.24,0,1,0-1.22,1.27A1.35,1.35,0,0,0,30,47.78Z" fill="#35237d"/>
        <path id="Trazado_235422" data-name="Trazado 235422" d="M18.55,38.81a1.235,1.235,0,1,1,.04-2.47,1.24,1.24,0,1,1,0,2.47Z" fill="#bbabf5"/>
        <path id="Trazado_235423" data-name="Trazado 235423" d="M30,47.78a1.24,1.24,0,1,1-1.24-1.24A1.24,1.24,0,0,1,30,47.78Z" fill="#bbabf5"/>
      </g>
    </g>
  </g>
</svg>
