<svg xmlns="http://www.w3.org/2000/svg" width="310" height="310" viewBox="0 0 310 310">
  <g id="Grupo_124785" data-name="Grupo 124785" transform="translate(-489 -1483)">
    <g id="CF8_tarjeta1_copia" data-name="CF8_tarjeta1 copia" transform="translate(489 1483)">
      <rect id="Rectángulo_7182" data-name="Rectángulo 7182" width="310" height="310" fill="#27127a"/>
      <g id="Grupo_63014" data-name="Grupo 63014">
        <path id="Trazado_229020" data-name="Trazado 229020" d="M301.25,158.08l1.55-1.73s1.49-1.65,1.49-1.66c-.06-1.22-.13-2.44-.19-3.66-.06-1.06-.11-2.12-.17-3.18l-3.29-1.46-3.67.91-3.45-.28-19.29,1.9-10.94,5.66-11.86-2.75L248,158.21l-4.76,2.27-4.12,5.64v4.77l-3.7,5.14-6.84,4.2-5.88,8.61-6.42,12.7,2.45,8.58-2.27,11.37.94,6.92,10.63,13,2.95,5.08,14.64,9.1,9.23-2,8.42,1.21,14.16-5.28,6.84.56,4.63,5.87,7.85-1.18,3.71,2.25-2.73,15.54,9.9,13.06,2.37,6.2V162.41l-3.8-.88Z" fill="#2d197e"/>
        <path id="Trazado_229021" data-name="Trazado 229021" d="M271.93,134.18l1.15-1.9,6.71-3.22.04-2.58.49-2.1,2.1-1,3.95.56,3.03.96,3.02-2.07,2.82-1.11,3.16-1.92,3.85,2.56,2.66,4.4,3.6,3,1.49.84v-9.5l-1.21-1.23.05-3.15,1.16-.7V78.38l-.14.04-4.79,2.21-.35-1.38-2.23-.44-2.63-3.63,3.84.28-1.11-1.94-1.43-.19.88-1.94,1.98-1.06-1.48-1.48-.09-2.18.32-2.68-1.17-.04-.99,2.26h-1.95l.14,1.39-1.81-.93-1.65,3.36,1.28,5.2,1.02,2.87-.08.85.91,1.83-1.5,2.1-2.15-1.18-2.36.38-.88.97-3.14.09-1.09.6-.21,1.57-1.48.1-.64-.32-.79,1.06L283,87.91l-.38,1.56-2.33,2.14-3.28,1.24-1.1.32-.8,2.93-.53.97-3.33.76-1.41,2.1-1.96-.02-1.97-1.32-1.54-.17-.27,1.37.71,1.29-.29,2.04-2.73-.14-.6.12-1.3-1.04-1.11.02-3.02.38-.86,1.4.37,1.95,4.16,1.34,1.63.45,2.04,1.03,1.27,2.72,2.04,1.18.02,3.3-.56,4.36-1.35,3.61-17.15-.69-2.56-.93-1.87,1.49-2.2.74,1.36,2.75-.07,2.76.29,2.36-2.57,7.65,1.69,1.54.68,2.01-.27,3.31,2.41.6,2.5-.49,1.66.12,3.8,3.61.74-1.02,1.8-.09,1.29-.68,2.3-.46,4.15-.18,1.37-1.04,3.38-2.35.23-1.53,2.31-2.41-.42-2.02.47-2.56Z" fill="#2d197e"/>
        <path id="Trazado_229022" data-name="Trazado 229022" d="M308.97,25l-.57,1.11.3,1.61-1.94.28-.34.38-1.84.32,1.76,1.94-.5.77-.47-.36-3.51,1.67-.58,1.11-1.26.67-.9,2.01-1.71-1.34-.84.37.61,1.79-1.23.29-1.14.73-2.49,1.16,1.67.84-2.69.05-1.66,1.11-1.54.71.28,1.12-1.92-.08-.85,1.39,1.21,1.57-.38,1.17.39.48-1.11,1.14.4,1.01-.23,1.9,1.62.5,2.22-.83.56.97-1.62,1.3-1.25-.33-1.07.93-.23,1.85,3.42-.04-.78,1.24-1.3.97,2.5,2.3,4.44,1.27,5.83-4.31,2.17-.46.79-2.26,1.25,1.71.8,2.6,1.33,2.25,1.11,3.24,1.57,2.82L309.9,70l.1.17V22.73h-.89Z" fill="#2d197e"/>
      </g>
      <path id="Trazado_229023" data-name="Trazado 229023" d="M299.44,125l.38,2.19-.19,2.26-.83,1.38-.83-.36-.97-2.1v-.86l.5-.84Z" fill="#372384"/>
      <path id="Trazado_229024" data-name="Trazado 229024" d="M295.42,133.24l1.55-.2.72-.36,1.46-.4,1.1.48.31,1.08-.19,2.09-.04,1.92-.28,1.08-1.64.89-.54.45-.87.12-.46-1.02.05-3.03Z" fill="#372384"/>
      <path id="Trazado_229025" data-name="Trazado 229025" d="M277.56,138.33l.84-1.12,1.92-.4-.15,1.52-1.23.51Z" fill="#2d197e"/>
      <path id="Trazado_229026" data-name="Trazado 229026" d="M252.91,97.25l.94-2.1,1.34-1.4,1.7-1.41h2.38l1.09-.46.7-.92-1.62.27-1.72-.27-1.69-.53-.61-.4-.92.33-1.43-.82.67-.62,2.71-1.45.3-.67-.75-.61-1.1-.6.44-.82.47-.67.24-1.07.75.11.7.31,2.49-.45.07-1.88.38-1.39-.57-.55-1.22-.73.27-1.37.2-1.27h-.59l-1.54.96-1.43.26-1.96-.46.28-.76.93-2-.25-1.32-.08-1.24-.37.57-.51,1.34-.92.54-.72-.14-.3-1.06-.28-.69-2.22.78.75-.71,1.84-1.23-.78-.64-.76-.39-.12-.64,1.42-1.92-.27-.39-1.33-.38-1.15-.95.22-.52.93-.19.97.88.71-.07.07-.8.07-.46,1.32-1.67,1.06-2.48.88-.16,2.41.25.97-.29,1.39-1.25.06.79-.53,1.06-1.02,1.58-1.34,1.01-.33.88.95.23,1.01-.26,1.88-.16,2.38.13.96.47-.74,2.62-1.17,2.42-2.11,1.92.5.54,1.85-.13.98.59,1.46.8.62.77.57,2.25,1.06,1.36,1.04.46,1.24,1.61V80.8l1.55,2.34.04,1.71.62.62h.53l.38-.44,2.04.14,1.24,1.49-.57,1.28-2.02,1.72-.82,1.3.59.55,1.45.12-1.02,1.14-2.14.93-3.14.05-1.67.86-2.23-1.11-.87.92-2.16-.24-1.86.43-.1.42-1.38,1.39-1.12-.81-1.2.34Z" fill="#2d197e"/>
      <path id="Trazado_229027" data-name="Trazado 229027" d="M247.68,63.43l.35-1.42,1.73-1.35v.98l-1.02,1.33Z" fill="#2d197e"/>
      <path id="Trazado_229028" data-name="Trazado 229028" d="M265.33,53.31l-.13-1.46,1.21-1.84.32.93-.54,1.59Z" fill="#2d197e"/>
      <path id="Trazado_229029" data-name="Trazado 229029" d="M249.36,74.81l2.87,3.1-.29.79-1.15.69-1.26.82.51,2.11.29,3.82-.75,1.81-1.59.16h-1.24l-2.04,1.06-2.67,1.5h-2.96l-1.9-1.63.05-.58,1.72-1.03.48-1.48,1.19-1-.09-.73-2.14-1.87.32-.78-.37-2.36,2.04.42.93.06.36-.53,2.36-.77.18-.53-1.48-1.47.51-.78,1.47-.16,1.56.36Z" fill="#2d197e"/>
      <path id="Trazado_229030" data-name="Trazado 229030" d="M307.4,71.67l-1.43.37-.9,1.12.45,1.34,1.05.92-.88.83.83,1.39.88-.27,1.28-1.72.85-3.98-1.07.74Z" fill="#372384"/>
      <path id="Trazado_229031" data-name="Trazado 229031" d="M195.41,23.56l-1.57,2.08.78.78,2.22-.04,2.27-.48,1.53.48-.6,1.53-.17.93-5.01.92h2.77l1.76.09,1.11,1.16.92,1.06v1.06l-2.63,1.39.87.38,3.1-.52,2.34.52,4.3,1.97,2.87-.37,1.6-1.1,2.24-.83,1.64-.46,2.16-1.18,3.14-.84,1.41-1.59,2.41-2.31-1.62-2.59-1.36-.52-.91-2.95-2.13.14-3-1.44-.39,2.87-1.83-.83-.65,1.08-.6-1.04-1.81.28-1.62-.55-2.08,1.43-1.25-.65-1.43.97-.42,1.44-2.03.92-1.1-1.12.27-1.38-1.96-2.08-2.81-1.06-.87-.28,1.33,2.04-1.15-.1Z" fill="#2d197e"/>
      <path id="Trazado_229032" data-name="Trazado 229032" d="M157.88,286.2l-2.55-.05-2.46-.71-2.02-1.26-2.21-2.04-3.2-2.45-4.76-.64-2.25.38-4.47-1.39-.65-.2-4.09,2.01.62-2.98-3.33-2.7-4.02-1.74-3.34-.57-1.12,1.07-.41,1.82-1.01-.31-.92.9-1.13,1.13-.47-1.06,2.38-2.81.33-.8-3.15-1.74-3.17.08-1.15,1.84-.86.59-.64-1.06.22-1.45,1.82-.22,2.55-3.72-.8-1.98-3-2.73-1.02-4.65L104.24,253l-3.26-.78-3.26-1.14-4.72.35-1.42-.98-1.5.54-3.19-2.5-1.38-.74-.8-2.14-2.54-1.63-2.63-1.07-3.06-.11.84-2.57-4.65-1.73-.46-1.44.87-.3-1.26-.93-7.41,2.32-5.22-1.83-2.42.74-2.22-.81-.56-2.16-1.06-.71-1.64-.17-1.94-1.65-.9,2.01-2.02.76L44.22,236l1.31,4.01-2.27.81-1.33-1.35,1.39-4.09-.42-2.17.76-.61,1.47-1.04-.7-.9-2.5,1.16-2.25.95-1.5,1.15-2.84.9v1.01l-2.05-1.13-2.32,2.62v1.67l-1.81,1.85-2.43,3.07-.68.16-1.39-1.6-1.23-1.58-2.28-.94-.38,1.74,1.53.73-.63,1.42-.03,1.06,1.87,2.2,1.67,1.36-.04,2.04v1.74l-.23,1.61.78,3.24.51.76-2.59,3.71-1.78.56-.99,1.77-.63,1.31-.35,1.04-2.49.8-.35,1.99-1.39,1.87v1.16l-1.76,1.52.72,1.73-.69,1.49,2.46,1.85.87.09.15.94-1.54,1.01-1.97,1.36-.88,1.41,1.18,4.3-.97.83,3.99,3.07,3.35,4.37,4.09,9.94L27.39,310H147.52l.15-.24.76.24h1.48l.68-.86,2.37-4.94,2.14-.96,2.4-2.46,1.97-3.72.44-4.48-.83-3.69Z" fill="#2d197e"/>
      <path id="Trazado_229033" data-name="Trazado 229033" d="M74.65,236.68l.08,1.47,2.38-.3-.16-1.82Z" fill="#2d197e"/>
      <path id="Trazado_229034" data-name="Trazado 229034" d="M57.75,211.78l1.4-1.25,3.1.45.63.8-1.29.81H58.72Z" fill="#2d197e"/>
      <path id="Trazado_229035" data-name="Trazado 229035" d="M22.08,211.51l2.06,1.08,2.93.52,1.4-.49-1.56-1.11-2.1-.43Z" fill="#2d197e"/>
      <path id="Trazado_229036" data-name="Trazado 229036" d="M34.43,211.23l1.93-.7,4.18-.41-2.05-2.86-.03-1.44h2.08l2.88.87,2.85.03,3.71.89,2.98,1.71.49.94-1.73,1.3-2.35-.32-2.45.27-3.88,1.38-2.06-.85-2.52.16-1.6.39Z" fill="#2d197e"/>
      <path id="Trazado_229037" data-name="Trazado 229037" d="M2.93,199.71l4.21-3.29,4.08-.86,4.19.62,6.67,2.69,5.35,2.57,2.83.68,2.95,1.38,1.78,1.9-3.83.58H27.27l-2.41-.3-.39-1.07-1.14-1.43-2.2-.86-2.17-1.91-4.27-.88-2.48-.43-.93-1.05-2.17-1.18L6.45,198.6l-1.96,1.15-1.16.21Z" fill="#2d197e"/>
      <path id="Trazado_229038" data-name="Trazado 229038" d="M22.92,188.56l-.5,1.44.5,1.23.57.88,1.25,1.25v-1.82l-.85-.58-.31-2.4Z" fill="#2d197e"/>
      <path id="Trazado_229039" data-name="Trazado 229039" d="M5.71,42.62V40.83l1.41-.93,2.86-1,1,.25-.8,1.76L8.78,42.2l-1.77.71Z" fill="#2d197e"/>
      <path id="Trazado_229040" data-name="Trazado 229040" d="M18.34,42.2l-1.39.72v1.63l.97,1.12,1.17-1.12.47-1.64Z" fill="#2d197e"/>
      <path id="Trazado_229041" data-name="Trazado 229041" d="M25.41,15.84v-2.8l1.68-1.67,3.08-.44,2.81,2.45L31.8,16.11l-2.6.92H26.95Z" fill="#2d197e"/>
      <path id="Trazado_229042" data-name="Trazado 229042" d="M66.49,98.13c6.51,1.3,8.6,2.91,8.6,2.91l-.57,1.69Z" fill="#2d197e"/>
      <g id="Grupo_63015" data-name="Grupo 63015">
        <path id="Trazado_229043" data-name="Trazado 229043" d="M53.52,0H22.92L24.3,1.26,26,2.79l2.34,1.53L30.69,6,27.63,8.62h1.7l3.16-1.39L34,8.62l1.43,1.67H37.2l2.94,3.05.7,2.43-.7,3,2.42.41,2.72-.83,1.72-.1,3,.93v2.49l-2.56,1.28H45.55l-.76-1.44L42.07,20H37.63l-2,2.93,1.17,2.34-2.26,1.79-3.26.14-4.14-.76-1.85,1.19L23.4,28.81l.07,2.71,1.94.71,5-.44,2.57.28.48-.83L38.18,31l1.44,1.27,2.17,1.92,1.06.62.74,3.41L46,38.9h3l2.09,1.64,3.84,2.38,3.48,1.63H60l.54-1.63-4.85-5L52.61,36l.82-.56,3.9,1.39,3.23,1.72,2.83.25,2.41-1.42.47-1.58-1.91-1L64,32.5l-.71-1.62-2.31-1.45L58.53,29l-2.47-1.61-.58-1.85.33-.85.4-2.07.43-1.4,1.27-.37,1.9,1.33,2.14.87,1.89,2.25,3.68,3L69,26.38l3.19-1.8.8-1.79,3.22-2.24V19.36l-1.07-.74-2.53-.29-2-.08L70.16,17s.56,0-.16-1a15.41,15.41,0,0,0-3.14-2.41l-2.41-.5-2.28.11-2-1.72-2.23-.52L55.56,9.7l-.86-2,1.23-.77L59,6.68,56.68,5.49l-1.29-.62L56.13,4l1.16-1.45-.83-1L54.57.32,53.31,2l-1-.18,1-1.46Z" fill="#2d197e"/>
        <path id="Trazado_229044" data-name="Trazado 229044" d="M10.01,2.79l2.04-.45L13.2,1.4l4.89,1.39,2.19-.42L19.86.43,19.78,0H0V1.39l3.07.15Z" fill="#2d197e"/>
      </g>
      <path id="Trazado_229045" data-name="Trazado 229045" d="M100.99,106.97l-.05-1.36.57-.87.41-.78-1.71.04-.71-.09.03-1.18.87-1.78-.8-1.04-1.7.39-.9.63-.91-.35-.97-.83-1.13-1.1-.25-.75-.73-.6-1.68.69-1.02-.08,1.3-2.14.74-1.53.66-1.1.82-.89.16-1.05-4.56,3.04-1.77,2.81-.47,2.62v1.77l-1.32-.21-1.69.21-.07,1.64v.83l-1.17,1.61.25,1.35h1.64l2.25-.09,1.95.09,1.77-.09,2.21-1.02.98.47,1.32.55L94.57,109l1.84-.58.84-.53,1.79.03.52,1.62,1.9.42,1.62-.78V107.9l-1.39-1.49Z" fill="#2d197e"/>
      <path id="Trazado_229046" data-name="Trazado 229046" d="M101.85,0l3.03,1.47,3.21.44,1.43,1.41.13,1.69-.54,1.31L109,9.36l-3.14.19-2.93.87-.69,2.32-2.3,3.65.68,1.59,2.37,1.09-.44,1.05-1.97,1.73,1.12,2.01,2.63,2.16,1.15,1.42.01,4.31,1.35.65.75,2.38L108.72,36l.93,1.39,1.67,1.85,2.06,4.43,1.94,1.77,1.57,2.32,2.94,1.29h1.06l1.99.92,1.67.16,2.03,1.42,5.46,2.12,2.31-2.4.75-2.04V46.59l1.31-1.13-.76-4-1.03-.45,1.02-.9,2.7-.39,1.28-1.96,1.3-2.4.52-1.03-.87-2.05,1.65-.62V29.72l-1.37-.79.16-1.08,2.24.76.74-.28-.2-1.02.75-1.41,2.89-.55,1.45-.73.46-1.85.66-1.06.76.12v2.72l1.98-.71,3.68-.45,4.69-2.15,2.76-3.04,1.83-2.77,2.39-1.42v-2.1l2.06-.27,2.23.72.68-.83,2.57-.36,1.77-.68,1.45-.2,8.56-1.71,1.9-.85,2.29-1.55,4.83-2.33L200.78.97l-3.91,1.02-3.72-.93L189.62.04l-2.88,1.21-.19-.68.54-.57Z" fill="#2d197e"/>
      <path id="Trazado_229047" data-name="Trazado 229047" d="M96.79,3.72,98.17.32l2.17.14,2.13.8.89.88,1.38,1.18,1.12,1.14-1.89,1.56-2.88.3L98.3,4.75Z" fill="#2d197e"/>
      <path id="Trazado_229048" data-name="Trazado 229048" d="M195.41,23.56l-1.57,2.08.78.78,2.22-.04,2.27-.48,1.53.48-.6,1.53-.17.93-5.01.92h2.77l1.76.09,1.11,1.16.92,1.06v1.06l-2.63,1.39.87.38,3.1-.52,2.34.52,4.3,1.97,2.87-.37,1.6-1.1,2.24-.83,1.64-.46,2.16-1.18,3.14-.84,1.41-1.59,2.41-2.31-1.62-2.59-1.36-.52-.91-2.95-2.13.14-3-1.44-.39,2.87-1.83-.83-.65,1.08-.6-1.04-1.81.28-1.62-.55-2.08,1.43-1.25-.65-1.43.97-.42,1.44-2.03.92-1.1-1.12.27-1.38-1.96-2.08-2.81-1.06-.87-.28,1.33,2.04-1.15-.1Z" fill="#2d197e"/>
      <g id="Grupo_63016" data-name="Grupo 63016">
        <path id="Trazado_229049" data-name="Trazado 229049" d="M6.33,225.73l.51-4.24-3.28-1.8-1.81-.83L0,219.01v19.91l1.43.07.56-.25.58.78,1.42.53,1.01.86.22.78.74,1.41,1.82.24,3.05,1.01,1.65,1.39,1.63.95,1.12.43,1.3-1.06-.9-1.73.29-.58,1.38-.95.48-.9,2.29-.62.7.41,2.66-.8-3.7-1.35H17.88l-2.6,1.67-2.29.79-3.63-1.69-3.77-4.54-.58-1.44,1.04-4.27Z" fill="#2d197e"/>
        <path id="Trazado_229050" data-name="Trazado 229050" d="M1.25,7.79l-.19,1L0,8.85V21.22l.22.15.56.71,1.13.07s1.61-.37,1.91-.39a1.88,1.88,0,0,0,.65-.26l-.65-1.07-2-1.25-.13-.46.56-.4.65.36.88.79,1,.7.49.77.47.44,2-.76,1.85-1.11,1-1,1-.43,1.05-1.23-.17-1.27-.75-.95-1.16-1-.39-1.67-.33-.24L9,10.6l.38-.28h1.19L12.29,10l.86-1.12-1-.88-.18-.4.84-.77-.25-.53L11.19,6,9.75,5.64l-.86-1-.3-.76L6.27,3.6,4.23,3H1.4l-1-.11L0,4v.7L.64,5.91l1,.08.46.83-.53.62Z" fill="#2d197e"/>
        <path id="Trazado_229051" data-name="Trazado 229051" d="M93.27,86,94,83.68l-1.24-1.06-1.24-1.09-1,.39-.87.57-.6.1-.43-.35.54-1.7-.6-.54-1.08-.17H86l-2,1.48-.87.55-1.67.39-1,.75h-.55l-.09-1,.72-.81,1-.18.85-1.18H83.8l1.08-.26,2-.73a2.53,2.53,0,0,0,1.16-.31,1.62,1.62,0,0,0,.36-.87l-.75-.71-1.6-.15H84.92l-1.83-1.49L82,75.52l-.88-.66-.79.31H79.6l-.79-.83-.93-1.72-1.61-1.46-1.49-1-2.35-1.08-.14-.54.87-.12.94.35,1-.35L76,67.2l-.36-1-.89-.39-.45-.52V63.83l-1-.91-.86-.79-.26-.62-.61-.69-.43-.77L71,59.59l-.37-.54-.42-.6L70,57.74l-.15-.46-1-1.28-.81-1.09-.24-.63-.18-.59L67,52.8l-.83-1.37-.51-.63-.54.63-.45,1.4-.59.86-.75.93.27.51.28.61-1,.75-.28.5.18,1.21-.82.11-.46,1-.35.12-.73-.56-.74.09-.29.32-.3.92-.89.71-1.52.56L56,61.4l-.57-.73-.83-.57h-.46l-.85-1.35L52,58.58l-.92-.34-.19-1.46L49.7,55.66l.42-.94-.63-2.94.19-1.28.85-1.36-.44-.52h-.75l-1,.5-1-.78H46.07l-1.23-.17-1.35-.69-.47-1.15-.9-.62-.9-1.13-.92-.47-.53-1-.79-.21L38,42.2l-.77-.41H36l-2.23,1-2.47-.6-.75.25L28,41.33l-1.62-.27H24.44l-.2.38-.71.76-.53.67-.08.86.36.82a8.91,8.91,0,0,0,1.11.73c.19,0,.54.6.54.6l.11.7-.73.43-.22.72-.9,1.13L24.07,50l.69,1.63.7,1.25.05,1.58-.5.32-.85.17-.41,1.26L22.69,57.8,22,59.08l.24,1,1.43.65,3,2,.69,1.63.64,2.8-.2,2-.51,2.43-1.56,1.5s-1.48,1-1.69,1.18-1.3,1.18-1.3,1.18l-1.64.91-1.56.25-1,.18.33,1.56,1.26,1.4.28.65-.14,1.44.18,1.34.42,1.54L21.19,86l.88,1.35-.46,1L20.35,89.8l.84.63-.13,1-1.27-.75-.93-.36-.52,1.27-.28,1-.31.16-1.43-.74-.9-.4L14.7,89.9l-1.55-1.17-.91-.79-.39-1.14-1.39-1.24-.52-1V80.3l-.42-1.2.34-1.35.2-1.34-1.12-.94-1.55-.16-4.28-.19-1.86-.19L0,74.18v98.39l.33.59.48.52,1.07-.21,1.42-1.18,1.12-.44,1,.72,2.81,3.13.41.84-.42,2.25L9,180l.14,1.58,1,1.29.43,2.47,1,.62,1.29,1.72.23.66,1.37.95.89-.24.39-1.29.72-1.53.39-1.49-1-4.27-.79-1.7-.37-.78-.1-1.45L13.23,174l-.68-2.55-.11-1.81.47-1.82,1.32-2.4,1.89-2.31,1.33-.67L18.6,162l.55-1.09,1.69-1.7,1.28-.17,1-.24.68-1.32,1.85-1.18,2-.7-.71-1.6.12-1.12h.64l1,.46,1.19-.32,1.28-1.2v-.53L30,151.06l-.79-.62.46-.34.35-.87-.6-.9-1.29-.47-.35-.31.71-1.13v-.95l-.57-.62-1.41-1.07-.11-.65,1.35-.46.35-.83v-2.07l.38-1.51.76-.21v.53l-.47,1.19-.05,1.2.24.66.85,1.54.1,1.5-.07,1.65L30.88,145,32,142.14v-1.37l-.34-.39a3.58,3.58,0,0,1-.47-1,1.53,1.53,0,0,1,.25-.59l.87.83.69.14,1.33-1.2,1.33-2.08V134.4l1.74-.28,1.87-.23,1.92-.57.79-.45-.51-.48-2.73.39-1.55-.05.92-.72,3-.76,1.63-.25.69-1.37.89.68,1,.13,1.36-.81v-1.31l-1.15-.72-.32-.3.7-.89V125.1l.72-1.51.6-.65,1-.44.55-.44.45-.49.86-.16.82-.76.79-1.14.67-.52,1,.25,1.46.53,1-.43,2.34-1.75,3.28-1.37,1.24-.35L65,114l.59-.71.4.41v.7l-.51.5.16.66,3.31.49-.61.47-2.37.11-1.58.08-2,1.9-1.68,2,.12.75,1.55,1.23,1.42-.05,1.88-1.16,1-1.18.63-.85.94-.52,2-.23,6.44-2.1v-.63l-.21-.59.61-.49,3.11-.81.86-.73v-.67h-.67l-1.32-.19.33-2L79,110l-1.14.89-.51.81-.25.56-1.35,1.24-.14,1.08-1.18.24-1.69.21-2.59-.37-1-.41-.54-.79-2.14-1.22-.88-.77-.28-.91-.77-1.64.48-1,.44-1.2-.45-.36H64.6l-1,.52-.71.36-.46-.3v-.58l.85-.73,1.93-.75,1.07-.73.47-1.19L66,101l-1.41-.48H62.71l-4.79,1.11-4.41,1.75-1.38.85-2.72,2.57L47.25,109l-1.16.62-.27-.23L48.27,107l.84-1.12.11-1.1h.34l1.57-1.11,2.07-2.31,1.8-1.09h2.06L57.52,99l2-2,2.27-.57,9-.44h8.73l2.3-1,1.44-1,1.41-1.44,1.06-1,1-.29h1.86l1.58-.15,1.37-.83L93,89l1-1.1-.92-.49-1.31-.7.8-.26Z" fill="#2d197e"/>
      </g>
      <g id="Grupo_63032" data-name="Grupo 63032">
        <g id="Grupo_63017" data-name="Grupo 63017">
          <path id="Trazado_229052" data-name="Trazado 229052" d="M142.49,292.83c17.58,10.14,46.09,10.14,63.69,0s17.56-26.59,0-36.74-46.11-10.13-63.69,0S124.91,282.7,142.49,292.83Z" opacity="0.3"/>
          <path id="Trazado_229053" data-name="Trazado 229053" d="M135.26,230.29h78.63l-7,39.57c0,4.78-3.17,9.55-9.48,13.19-12.62,7.31-33.12,7.31-45.74,0-6.3-3.64-9.48-8.41-9.48-13.17Z" fill="#572b26"/>
          <path id="Trazado_229054" data-name="Trazado 229054" d="M128.53,221.33h.7c1.59-5.21,5.83-10.15,12.78-14.19,18-10.37,47.14-10.37,65.12,0,7,4,11.2,9,12.78,14.19h.72v8.44c0,6.83-4.5,13.62-13.5,18.83C189.15,259,160,259,142,248.6c-9-5.21-13.48-12-13.48-18.81v-8.46Z" fill="#84413a"/>
          <path id="Trazado_229055" data-name="Trazado 229055" d="M142,240.15c18,10.37,47.14,10.37,65.12,0s18-27.22,0-37.64-47.12-10.36-65.12,0S124,229.75,142,240.15Z" fill="#a05e57"/>
          <path id="Trazado_229056" data-name="Trazado 229056" d="M139.36,223.93c1.31-3.92,4.59-7.71,9.85-10.68,14-8.12,36.7-8.12,50.73,0,5.27,3,8.54,6.76,9.83,10.68,2.18-6.49-1.1-13.5-9.83-18.49-14-8.12-36.73-8.12-50.73,0C140.5,210.43,137.21,217.44,139.36,223.93Z" fill="#572b26"/>
          <path id="Trazado_229057" data-name="Trazado 229057" d="M139.36,223.93h0c1.31,4,4.59,7.73,9.85,10.71,14,8.07,36.7,8.07,50.73,0,5.27-3,8.54-6.74,9.83-10.71h0c-1.29-3.92-4.56-7.71-9.83-10.68-14-8.12-36.73-8.12-50.73,0C144,216.22,140.67,220,139.36,223.93Z" fill="#383838"/>
          <path id="Trazado_229058" data-name="Trazado 229058" d="M188.92,231.31a4.34,4.34,0,0,0,4,0c1.1-.65,1.1-1.64,0-2.29a4.34,4.34,0,0,0-4,0,1.21,1.21,0,0,0,0,2.29Z" fill="#575757"/>
          <path id="Trazado_229059" data-name="Trazado 229059" d="M182.16,215.82a4.38,4.38,0,0,0,4,0c1.11-.65,1.11-1.67,0-2.29a4.26,4.26,0,0,0-4,0C181.07,214.15,181.07,215.17,182.16,215.82Z" fill="#575757"/>
          <path id="Trazado_229060" data-name="Trazado 229060" d="M164.92,228.08a4.47,4.47,0,0,0,4,0,1.2,1.2,0,0,0,0-2.28,4.34,4.34,0,0,0-4,0,1.2,1.2,0,0,0,0,2.28Z" fill="#575757"/>
          <path id="Trazado_229061" data-name="Trazado 229061" d="M155.77,218a4.22,4.22,0,0,0,3.94,0c1.12-.62,1.12-1.65,0-2.27a4.22,4.22,0,0,0-3.94,0C154.65,216.37,154.65,217.4,155.77,218Z" fill="#575757"/>
          <path id="Trazado_229062" data-name="Trazado 229062" d="M171,235.93a4.47,4.47,0,0,0,4,0,1.21,1.21,0,0,0,0-2.29,4.41,4.41,0,0,0-4,0,1.21,1.21,0,0,0,0,2.29Z" fill="#575757"/>
          <path id="Trazado_229063" data-name="Trazado 229063" d="M195.36,221.76a4.49,4.49,0,0,0,4,0,1.22,1.22,0,0,0,0-2.31,4.37,4.37,0,0,0-4,0,1.23,1.23,0,0,0,0,2.31Z" fill="#575757"/>
          <path id="Trazado_229064" data-name="Trazado 229064" d="M150.14,226.72a4.32,4.32,0,0,0,4,0c1.1-.62,1.1-1.64,0-2.27a4.32,4.32,0,0,0-4,0C149,225.08,149,226.1,150.14,226.72Z" fill="#575757"/>
        </g>
        <g id="Grupo_63020" data-name="Grupo 63020">
          <path id="Trazado_229065" data-name="Trazado 229065" d="M235.4,66s-7.34,10,5.89,21.64c14.21,12.48,22.26,5.05,22.26,5.05L275.44,79,262.65,56.89l-16.41.73Z" fill="#acacac"/>
          <path id="Trazado_229066" data-name="Trazado 229066" d="M204.37,77.79c-6.13,1.88-12.93,8.72-18.69,11.43S156.9,100,156.17,100.84s-.44,3.5,1.92,5.12,8.83,3.7,16,1.08,12-5.24,20-7.38c1.38-.37,4.4-.94,4.4-.94l10.26-13.23S204.35,78.74,204.37,77.79Z" fill="#efc5b3"/>
          <path id="Trazado_229067" data-name="Trazado 229067" d="M192.26,100.18l3.53-4.09-.23,3.33-1.41.22Z" fill="#c6a395"/>
          <path id="Trazado_229068" data-name="Trazado 229068" d="M257.72,94.06c2.85-2.24,5.78-4.57,8.59-6.81,0,0,8.75-5.67,1-15.76-8.58-11.17-23.42-11.78-26.38-8.33l-7.83,9.07Z" fill="#fff"/>
          <path id="Trazado_229069" data-name="Trazado 229069" d="M233.08,72.23c-1.64,1.89-5.49,6.29-6.33,7.15l23.41,20.55c2.34-1.78,4.92-3.79,7.56-5.87,0,0,5.64-5.11.11-13.73C252.4,71.86,234.72,70.34,233.08,72.23Z" fill="#efc5b3"/>
          <path id="Trazado_229070" data-name="Trazado 229070" d="M183.32,119.45a18.39,18.39,0,0,1,2-5.42c1.33-2,9.71-15.9,9.71-15.9s6.59-19.19,9.3-20.34a45.17,45.17,0,0,1,26,1.88s11.22,1.21,15.6,4.94c5.32,4.53,6.25,12.93,3.16,17.3-7.25,10.27-17.67,22-17.67,22l-10.2,5.62-16.65,5.53-18.07-4.24Z" fill="#efc5b3"/>
          <path id="Trazado_229071" data-name="Trazado 229071" d="M183.32,119.45c-2.49,3.87-7.87,13.41-7.87,13.41s-5.41,9.76-9.62,19c-1.53,3.35,2.25,6.8,4.48,5.4l6.89-2.6L193,130.63l-1-4Z" fill="#efc5b3"/>
          <path id="Trazado_229072" data-name="Trazado 229072" d="M169.21,157.6c.84-3.48,12.29-14.48,12.29-14.48L192,126.61l-8.27,18.22-11.14,11.65S169.53,159.15,169.21,157.6Z" fill="#c6a395"/>
          <path id="Trazado_229073" data-name="Trazado 229073" d="M192,126.61s-6.4,13.49-10.3,17.85c-3,2.72-14,14.22-14.59,16.1s0,6.06,1.28,6.41c2,.56,8.87-5.3,8.87-5.3s11.05-8.46,14.08-10.85S206.48,130,206.48,130Z" fill="#efc5b3"/>
          <path id="Trazado_229074" data-name="Trazado 229074" d="M177.6,161.4s-1.8-3.33-.88-5.13,15.73-14.62,15.73-14.62l12.53-13-10.19,14.72Z" fill="#c6a395"/>
          <path id="Trazado_229075" data-name="Trazado 229075" d="M205,128.63s-7.33,9.3-11.21,13.65c-3,2.73-15.63,12.57-16.21,14.46s-.08,6.37,1.19,6.74,8.89-5.3,8.89-5.3,10.44-7.21,13.47-9.61,17.73-21.22,17.73-21.22Z" fill="#efc5b3"/>
          <path id="Trazado_229076" data-name="Trazado 229076" d="M197,151.64s-1.56-3.71-.41-5.68,15.11-15,15.11-15l6-9.69-3.38,12.53Z" fill="#c6a395"/>
          <path id="Trazado_229077" data-name="Trazado 229077" d="M217.67,121.32s-2.35,5.19-4.86,10.13c-3,2.73-15.12,13.48-15.7,15.36s-.66,5.41.6,5.78,8.72-5.41,8.72-5.41,11-6.78,14-9.19,11-14.09,11-14.09Z" fill="#efc5b3"/>
          <path id="Trazado_229078" data-name="Trazado 229078" d="M195.73,112.87s18.74-1.6,26.89-7.13C210.34,110.47,195.73,112.87,195.73,112.87Z" fill="#c6a395"/>
          <path id="Trazado_229079" data-name="Trazado 229079" d="M230.83,91.57a110.848,110.848,0,0,0-11.19,22.72S220.72,103.62,230.83,91.57Z" fill="#c6a395"/>
          <path id="Trazado_229080" data-name="Trazado 229080" d="M298.07,60c12.83-11.76-20-43.68-34.06-26.79C257.56,40.92,237.5,63.56,235.4,66c16.39-10,38.69,13.35,28.15,26.69C263.55,92.68,285.24,71.72,298.07,60Z" fill="#575757"/>
          <g id="Grupo_63018" data-name="Grupo 63018">
            <path id="Trazado_229081" data-name="Trazado 229081" d="M274.89,74.67a2.19,2.19,0,0,1,.54.86,5.17,5.17,0,0,1-.76,4.63,2.2,2.2,0,0,1-.89.69l.07.16-.67-.1A1.68,1.68,0,0,1,272,79.72a5.18,5.18,0,0,1,.77-4.63,1.65,1.65,0,0,1,1.45-.74h0l.75.12Z" fill="#666"/>
            <path id="Trazado_229082" data-name="Trazado 229082" d="M276.1,75.64c-.52-1.4-1.72-1.6-2.67-.44a5.19,5.19,0,0,0-.76,4.64c.53,1.4,1.73,1.59,2.67.44a5.17,5.17,0,0,0,.76-4.64Z" fill="#050505"/>
          </g>
          <g id="Grupo_63019" data-name="Grupo 63019">
            <path id="Trazado_229083" data-name="Trazado 229083" d="M288.75,62.1a2.27,2.27,0,0,1,.54.86,5.17,5.17,0,0,1-.76,4.63,2,2,0,0,1-.89.68l.07.18-.67-.12a1.63,1.63,0,0,1-1.18-1.18,5.15,5.15,0,0,1,.76-4.62,1.66,1.66,0,0,1,1.45-.75h0l.75.11Z" fill="#666"/>
            <path id="Trazado_229084" data-name="Trazado 229084" d="M290,63.07c-.53-1.4-1.73-1.6-2.68-.44a5.2,5.2,0,0,0-.76,4.64c.53,1.4,1.73,1.59,2.68.43a5.17,5.17,0,0,0,.76-4.63Z" fill="#050505"/>
          </g>
        </g>
        <g id="Grupo_63023" data-name="Grupo 63023">
          <path id="Trazado_229085" data-name="Trazado 229085" d="M200,165.35a7.78,7.78,0,0,0-3,1.89c-3.78,3.64-5.82,10.72-4.57,15.81a7.47,7.47,0,0,0,1.79,3.49l-.47.45,2.3.66c1.65.48,3.62-.14,5.51-2,3.79-3.65,5.83-10.73,4.57-15.83-.61-2.48-1.9-4-3.49-4.54h0l-2.53-.74Z" fill="#f4a42e"/>
          <path id="Trazado_229086" data-name="Trazado 229086" d="M194.64,166.58c3.78-3.65,7.87-2.47,9.12,2.63S203,181.39,199.2,185s-7.87,2.46-9.14-2.63S190.85,170.21,194.64,166.58Z" fill="#ffeb7a"/>
          <g id="Grupo_63021" data-name="Grupo 63021">
            <path id="Trazado_229087" data-name="Trazado 229087" d="M195.16,168.35A14.57,14.57,0,0,0,191.5,181c1,4.08,4.28,5,7.31,2.12a14.59,14.59,0,0,0,3.66-12.66C201.45,166.39,198.18,165.44,195.16,168.35Zm6.33,3.05a11.81,11.81,0,0,1-3,10.33c-2.47,2.38-5.14,1.61-6-1.73a11.86,11.86,0,0,1,3-10.33c2.51-2.39,5.19-1.61,6,1.73Z" fill="#f4a42e"/>
            <path id="Trazado_229088" data-name="Trazado 229088" d="M194.76,168.23a14.56,14.56,0,0,0-3.66,12.66c1,4.07,4.27,5,7.3,2.11a14.57,14.57,0,0,0,3.66-12.65C201.05,166.27,197.78,165.33,194.76,168.23Zm6.33,3a11.85,11.85,0,0,1-3,10.34c-2.48,2.38-5.16,1.61-6-1.72a11.88,11.88,0,0,1,3-10.35c2.51-2.33,5.18-1.56,6,1.77Z" fill="#ffc554"/>
          </g>
          <g id="Grupo_63022" data-name="Grupo 63022">
            <path id="Trazado_229089" data-name="Trazado 229089" d="M199.7,172.34a1.69,1.69,0,0,0-.91-1h0l-.77-.22v.27a2.1,2.1,0,0,0-.59.41c-.84.8-1.2,1.91-1.22,3.77,0,1.36-.12,2-.43,2.28s-.59.24-.79-.57a6.43,6.43,0,0,1-.13-2.13l-.72-.2-.43.86a7.14,7.14,0,0,0,.14,2.12l-.82.78-.41,1,.72.21.88-.85a2.58,2.58,0,0,0,.38.6l-.2.16.75.22h0a1.28,1.28,0,0,0,1.26-.45c.91-.86,1.14-2.23,1.15-3.9,0-1.15.13-1.77.48-2.11s.7-.07.88.64-.56,1.61-.62,2.28l.73.21,1.18-.68a8.2,8.2,0,0,0-.13-2.52l.89-.85-.3-1.24-.72-.2Z" fill="#f4a42e"/>
            <path id="Trazado_229090" data-name="Trazado 229090" d="M200.24,172.45l-.89.85a8,8,0,0,1,.13,2.53l-1.19.67a7.2,7.2,0,0,0-.09-2.48c-.19-.72-.51-1-.89-.65s-.48.95-.48,2.11a5.344,5.344,0,0,1-1.14,3.91c-.89.91-1.67.63-2.19-.53l-.89.85-.31-1.23.82-.79a7.441,7.441,0,0,1-.13-2.12l1.14-.65a6.67,6.67,0,0,0,.13,2.12c.2.82.53.83.79.58s.39-.93.43-2.28c0-1.88.39-3,1.22-3.78s1.74-.7,2.3.57l.94-.91Z" fill="#ffc554"/>
          </g>
        </g>
        <g id="Grupo_63026" data-name="Grupo 63026">
          <path id="Trazado_229091" data-name="Trazado 229091" d="M192.89,218.89a7.8,7.8,0,0,0,0-3.56c-1.12-5.12-6.08-10.57-11.08-12.16a7.33,7.33,0,0,0-3.91-.3l-.13-.64L176,203.84c-1.27,1.16-1.78,3.16-1.22,5.73,1.12,5.12,6.09,10.57,11.08,12.17,2.44.77,4.44.48,5.72-.6h0l2-1.77Z" fill="#f4a42e"/>
          <path id="Trazado_229092" data-name="Trazado 229092" d="M194.62,213.72c1.12,5.13-2,8-7,6.4s-10-7-11.08-12.17,2-8,7-6.4S193.5,208.59,194.62,213.72Z" fill="#ffeb7a"/>
          <g id="Grupo_63024" data-name="Grupo 63024">
            <path id="Trazado_229093" data-name="Trazado 229093" d="M192.83,213.24a14.55,14.55,0,0,0-8.86-9.75c-4-1.27-6.52,1-5.62,5.12a14.58,14.58,0,0,0,8.87,9.75C191.21,219.63,193.73,217.33,192.83,213.24Zm-5.9,3.8a11.87,11.87,0,0,1-7.24-7.95c-.74-3.35,1.32-5.23,4.59-4.18a11.91,11.91,0,0,1,7.25,8c.72,3.31-1.33,5.18-4.6,4.09Z" fill="#f4a42e"/>
            <path id="Trazado_229094" data-name="Trazado 229094" d="M193.15,213a14.55,14.55,0,0,0-8.87-9.73c-4-1.28-6.51,1-5.62,5.11a14.59,14.59,0,0,0,8.87,9.74C191.53,219.34,194,217.05,193.15,213Zm-5.91,3.81a11.84,11.84,0,0,1-7.24-8c-.74-3.35,1.32-5.22,4.59-4.18a11.91,11.91,0,0,1,7.24,8c.74,3.3-1.32,5.18-4.59,4.13Z" fill="#ffc554"/>
          </g>
          <g id="Grupo_63025" data-name="Grupo 63025">
            <path id="Trazado_229095" data-name="Trazado 229095" d="M187.06,215a1.77,1.77,0,0,0,1.35-.24h0l.6-.54-.23-.16a2,2,0,0,0,0-.71c-.24-1.13-1-2-2.57-3-1.14-.73-1.63-1.13-1.73-1.56s.12-.63.91-.37a7.2,7.2,0,0,1,1.88,1l.55-.5-.51-.82a7.66,7.66,0,0,0-1.88-1l-.24-1.11-.66-.89-.56.5.27,1.21a2.38,2.38,0,0,0-.71,0v-.26l-.58.52h0a1.29,1.29,0,0,0-.28,1.31c.26,1.22,1.3,2.14,2.72,3,1,.61,1.45,1,1.55,1.51s-.31.64-1,.42-1.08-1.32-1.62-1.72l-.55.51v1.36a7.68,7.68,0,0,0,2.21,1.21l.26,1.2,1.21.39.56-.5Z" fill="#f4a42e"/>
            <path id="Trazado_229096" data-name="Trazado 229096" d="M186.69,215.42l-.27-1.21a8.211,8.211,0,0,1-2.21-1.2v-1.37a7.74,7.74,0,0,0,2.17,1.22c.71.22,1.12.09,1-.41s-.56-.92-1.55-1.52c-1.42-.88-2.45-1.8-2.73-3s.34-1.75,1.6-1.59l-.26-1.21,1.21.39.24,1.11a7.479,7.479,0,0,1,1.88,1v1.32a6.421,6.421,0,0,0-1.87-1c-.81-.26-1,0-.91.38s.58.81,1.72,1.55c1.58,1,2.33,1.89,2.58,3s-.32,1.84-1.69,1.65l.29,1.29Z" fill="#ffc554"/>
          </g>
        </g>
        <g id="Grupo_63029" data-name="Grupo 63029">
          <path id="Trazado_229097" data-name="Trazado 229097" d="M215.11,109.46a7.74,7.74,0,0,0-3.52-.41c-5.23.46-11.26,4.7-13.47,9.46a7.36,7.36,0,0,0-.79,3.84l-.65.05,1.37,1.95c1,1.41,2.92,2.17,5.53,1.94,5.23-.47,11.26-4.7,13.47-9.46,1.08-2.32,1-4.34.13-5.74h0l-1.51-2.16Z" fill="#f4a42e"/>
          <path id="Trazado_229098" data-name="Trazado 229098" d="M210.21,107.08c5.23-.46,7.67,3,5.46,7.78s-8.25,9-13.47,9.46-7.68-3-5.46-7.78S205,107.55,210.21,107.08Z" fill="#ffeb7a"/>
          <g id="Grupo_63027" data-name="Grupo 63027">
            <path id="Trazado_229099" data-name="Trazado 229099" d="M209.51,108.8a14.59,14.59,0,0,0-10.79,7.56c-1.77,3.82.19,6.6,4.37,6.23A14.57,14.57,0,0,0,213.87,115C215.63,111.22,213.68,108.42,209.51,108.8Zm3,6.34a11.89,11.89,0,0,1-8.81,6.18c-3.42.31-5-2-3.57-5.09a11.89,11.89,0,0,1,8.81-6.18c3.45-.3,5.06,1.95,3.6,5.09Z" fill="#f4a42e"/>
            <path id="Trazado_229100" data-name="Trazado 229100" d="M209.26,108.45A14.55,14.55,0,0,0,198.48,116c-1.77,3.81.19,6.58,4.37,6.21a14.55,14.55,0,0,0,10.78-7.56C215.39,110.87,213.44,108.09,209.26,108.45Zm3,6.34a11.83,11.83,0,0,1-8.8,6.18c-3.42.31-5-2-3.57-5.08a11.89,11.89,0,0,1,8.8-6.18c3.45-.31,5.05,1.97,3.6,5.08Z" fill="#ffc554"/>
          </g>
          <g id="Grupo_63028" data-name="Grupo 63028">
            <path id="Trazado_229101" data-name="Trazado 229101" d="M210.54,114.75a1.68,1.68,0,0,0-.07-1.37h0l-.45-.65-.19.2a1.76,1.76,0,0,0-.7-.05c-1.16.1-2.14.73-3.33,2.17-.88,1-1.33,1.47-1.76,1.51s-.61-.18-.26-.94a6.8,6.8,0,0,1,1.23-1.73l-.43-.62-.87.41a7.111,7.111,0,0,0-1.22,1.73l-1.13.1-1,.55.43.61,1.22-.11a3.76,3.76,0,0,0-.08.7h-.25l.45.64h0a1.32,1.32,0,0,0,1.26.44c1.26-.11,2.29-1,3.34-2.33.73-.89,1.22-1.29,1.7-1.34s.59.38.28,1-1.44.9-1.9,1.39l.43.62,1.35.21a8.389,8.389,0,0,0,1.48-2l1.23-.11.53-1.15-.43-.61Z" fill="#f4a42e"/>
            <path id="Trazado_229102" data-name="Trazado 229102" d="M210.89,115.17l-1.22.11a8.54,8.54,0,0,1-1.48,2l-1.35-.22a7.591,7.591,0,0,0,1.48-2c.3-.68.23-1.11-.28-1.06s-1,.44-1.71,1.34a5.121,5.121,0,0,1-3.33,2.33c-1.24.11-1.7-.56-1.38-1.78l-1.23.11.54-1.16,1.13-.1a7.4,7.4,0,0,1,1.22-1.74l1.3.21a6.52,6.52,0,0,0-1.22,1.73c-.36.76-.11,1,.25,1s.89-.47,1.76-1.51c1.2-1.45,2.17-2.07,3.32-2.18s1.79.55,1.43,1.89l1.31-.12Z" fill="#ffc554"/>
          </g>
        </g>
        <g id="Grupo_63031" data-name="Grupo 63031">
          <path id="Trazado_229103" data-name="Trazado 229103" d="M89.14,154.57c.28.51,7,11.87,7,11.87l9.5-15.07S92,150.06,91.22,150C89,149.9,88,153.47,89.14,154.57Z" fill="#f4a42e"/>
          <path id="Trazado_229104" data-name="Trazado 229104" d="M23.68,128.14C13.23,109.91,10.79,91.7,18.2,87.44l-4.9,2.81c-7.42,4.27-5,22.48,5.48,40.71,10.27,17.92,24.44,29.16,32,25.47h0l.14-.08a1,1,0,0,0,.23-.12l.2-.12L56,153.43C48.6,157.68,34.12,146.36,23.68,128.14Z" fill="#ffc554"/>
          <path id="Trazado_229105" data-name="Trazado 229105" d="M18.2,87.44c-7.41,4.26-5,22.47,5.48,40.7S48.6,157.68,56,153.43s5-22.47-5.48-40.69S25.63,83.19,18.2,87.44Z" fill="#ffeb7a"/>
          <path id="Trazado_229106" data-name="Trazado 229106" d="M21.14,89.26c-6.81,3.92-4.57,20.65,5,37.38C35.6,143.09,48.6,153.42,55.53,150h0l.12-.08a1.859,1.859,0,0,0,.2-.1l.2-.12L87.11,125,56.58,73.62Z" fill="#ffc554"/>
          <path id="Trazado_229107" data-name="Trazado 229107" d="M68.28,102.74C59.23,87,57.11,71.18,63.54,67.5l-4.25,2.44C52.87,73.62,55,89.4,64,105.18c8.89,15.52,21.17,25.26,27.69,22.06h0l.12-.07c.06,0,.13-.06.2-.1l.17-.12,4.08-2.32C89.86,128.32,77.32,118.52,68.28,102.74Z" fill="#ffc554"/>
          <path id="Trazado_229108" data-name="Trazado 229108" d="M63.54,67.5c-6.43,3.68-4.31,19.46,4.74,35.24s21.58,25.58,28,21.9,4.29-19.46-4.76-35.24S70,63.81,63.54,67.5Z" fill="#ffeb7a"/>
          <path id="Trazado_229109" data-name="Trazado 229109" d="M66.94,73.45a3.24,3.24,0,0,0-1,1c3.71-.72,9.85,4.47,14.38,12.36,4.41,7.65,5.82,15.32,3.64,18.39a2.84,2.84,0,0,0,1-.37c3.52-2,2.36-10.67-2.59-19.33S70.46,71.43,66.94,73.45Z" fill="#ffc554"/>
          <path id="Trazado_229110" data-name="Trazado 229110" d="M65.9,74.43c-2.14,3.08-.72,10.72,3.65,18.36,4.52,7.91,10.64,13.08,14.37,12.39,2.18-3.07.77-10.74-3.64-18.39C75.75,78.9,69.61,73.71,65.9,74.43Z" fill="#ff8430"/>
          <path id="Trazado_229111" data-name="Trazado 229111" d="M98.35,157.46c-2.57,4.25-3.27,8.53-1.62,9.68l2.62,1.59c-1.74-1-1.07-5.42,1.54-9.72s6.12-7,7.89-5.9l-2.55-1.55C104.47,150.51,100.93,153.15,98.35,157.46Z" fill="#659dc8"/>
          <path id="Trazado_229112" data-name="Trazado 229112" d="M108.78,153.11c-1.77-1.06-5.29,1.57-7.89,5.9s-3.28,8.67-1.54,9.72,5.3-1.59,7.9-5.9S110.53,154.16,108.78,153.11Z" fill="#517fa1"/>
          <path id="Trazado_229113" data-name="Trazado 229113" d="M106.14,155.61c-.23.36-.29.73-.13.81s.43-.12.65-.49.28-.73.13-.82S106.34,155.25,106.14,155.61Z" fill="#003552"/>
          <path id="Trazado_229114" data-name="Trazado 229114" d="M108,155.27c-.22.37-.28.73-.13.82s.44-.14.66-.5.28-.74.13-.81S108.25,154.9,108,155.27Z" fill="#003552"/>
          <path id="Trazado_229115" data-name="Trazado 229115" d="M108.18,157.64c-.22.36-.27.73-.13.82s.44-.13.66-.49.27-.74.14-.83S108.39,157.27,108.18,157.64Z" fill="#003552"/>
          <path id="Trazado_229116" data-name="Trazado 229116" d="M106.14,158.42c-.23.37-.29.74-.13.83s.43-.14.65-.51.28-.72.13-.81S106.34,158.06,106.14,158.42Z" fill="#003552"/>
          <path id="Trazado_229117" data-name="Trazado 229117" d="M104,157c-.22.37-.27.73-.13.82s.45-.13.67-.5.27-.72.12-.81S104.22,156.6,104,157Z" fill="#003552"/>
          <path id="Trazado_229118" data-name="Trazado 229118" d="M107.36,160.2c-.22.38-.26.74-.13.82s.45-.13.67-.48.27-.74.13-.83S107.57,159.85,107.36,160.2Z" fill="#003552"/>
          <path id="Trazado_229119" data-name="Trazado 229119" d="M105.65,161.22c-.21.36-.27.74-.13.82s.45-.13.67-.49.28-.72.12-.82S105.87,160.86,105.65,161.22Z" fill="#003552"/>
          <path id="Trazado_229120" data-name="Trazado 229120" d="M103.68,159.87c-.23.37-.29.73-.14.82s.44-.13.66-.5.27-.73.13-.82S103.89,159.51,103.68,159.87Z" fill="#003552"/>
          <path id="Trazado_229121" data-name="Trazado 229121" d="M101.73,162.37c-.21.36-.26.73-.12.81s.45-.13.67-.49.29-.72.13-.82S102,162,101.73,162.37Z" fill="#003552"/>
          <path id="Trazado_229122" data-name="Trazado 229122" d="M103.32,164.77c-.21.36-.28.73-.12.81s.44-.13.65-.49.28-.73.13-.82S103.54,164.41,103.32,164.77Z" fill="#003552"/>
          <path id="Trazado_229123" data-name="Trazado 229123" d="M101.52,159.87c-.21.37-.27.73-.12.82s.44-.13.66-.5.28-.73.13-.82S101.73,159.51,101.52,159.87Z" fill="#003552"/>
          <path id="Trazado_229124" data-name="Trazado 229124" d="M99.68,163.72c-.21.36-.27.72-.13.82s.46-.13.66-.49.28-.75.13-.83S99.9,163.35,99.68,163.72Z" fill="#003552"/>
          <path id="Trazado_229125" data-name="Trazado 229125" d="M101.27,165.11c-.23.36-.29.73-.13.82s.45-.14.66-.49.28-.74.13-.83S101.49,164.75,101.27,165.11Z" fill="#003552"/>
          <path id="Trazado_229126" data-name="Trazado 229126" d="M102.71,167c-.21.36-.27.73-.13.82s.45-.14.68-.49.26-.74.12-.82S102.93,166.59,102.71,167Z" fill="#003552"/>
          <path id="Trazado_229127" data-name="Trazado 229127" d="M101.05,167.62c-.21.37-.26.74-.13.82s.45-.13.67-.49.27-.73.13-.82S101.27,167.27,101.05,167.62Z" fill="#003552"/>
          <path id="Trazado_229128" data-name="Trazado 229128" d="M99.21,166.64c-.22.37-.29.73-.13.82s.44-.14.65-.51.29-.71.13-.8S99.42,166.28,99.21,166.64Z" fill="#003552"/>
          <path id="Trazado_229129" data-name="Trazado 229129" d="M103.68,162.37c-.23.36-.29.73-.14.81s.44-.13.66-.49.27-.72.13-.82S103.89,162,103.68,162.37Z" fill="#003552"/>
          <path id="Trazado_229130" data-name="Trazado 229130" d="M105.38,163.72c-.21.36-.27.72-.13.82s.45-.13.67-.49.27-.75.13-.83S105.6,163.35,105.38,163.72Z" fill="#003552"/>
          <path id="Trazado_229131" data-name="Trazado 229131" d="M63.91,143.45c1.41.68,23.81,10.5,25.23,11.12-1.29-1.55,1-4.89,2.08-4.6-.58-.53-12.26-16.18-13.35-17.63C72.54,128.67,60.41,141.86,63.91,143.45Z" fill="#ffc554"/>
          <path id="Trazado_229132" data-name="Trazado 229132" d="M64.84,47.7c-4.16-7.16-13-8.93-17.13-6.5L21.61,56.54c-4.12,2.42-4.09,10.22.07,17.37l7,12,4.66-2L26.09,71.43c-2.53-4.35-2.55-9.1,0-10.58L50.65,46.26c2.51-1.47,6.62.87,9.15,5.24l3.86,6.65c2.54,4.36,2.56,9.1,0,10.58l-1.39.82a1.93,1.93,0,0,0-.7,2.6l.9,1.53a2,2,0,0,0,2.86.57l3.39-2.54c4.13-2.42,4.1-10.22-.07-17.38Z" fill="#f4a42e"/>
          <g id="Grupo_63030" data-name="Grupo 63030">
            <path id="Trazado_229133" data-name="Trazado 229133" d="M146.57,166.72c3.62,1.4,7.13,2.94,10.49,4.58a1.39,1.39,0,0,0,.62.16,1.48,1.48,0,0,0,1.29-.8,1.43,1.43,0,0,0-.66-1.92c-3.41-1.68-7-3.26-10.71-4.69a1.43,1.43,0,1,0-1,2.67Z" fill="#8cd4ff"/>
            <path id="Trazado_229134" data-name="Trazado 229134" d="M124.64,160.12c3.71.82,7.44,1.78,11.1,2.88a1.34,1.34,0,0,0,.4.06,1.45,1.45,0,0,0,1.38-1,1.42,1.42,0,0,0-1-1.78c-3.71-1.12-7.51-2.11-11.31-2.93a1.41,1.41,0,0,0-1.7,1.08,1.43,1.43,0,0,0,1.13,1.69Z" fill="#8cd4ff"/>
            <path id="Trazado_229135" data-name="Trazado 229135" d="M167.08,176.82a106.553,106.553,0,0,1,9.39,6.47,1.43,1.43,0,0,0,1.74-2.27,115.259,115.259,0,0,0-9.64-6.63,1.43,1.43,0,1,0-1.49,2.44Z" fill="#8cd4ff"/>
            <path id="Trazado_229136" data-name="Trazado 229136" d="M201.74,206.94a1.435,1.435,0,0,0-2.44,1.51,89.8,89.8,0,0,1,5.33,10,1.43,1.43,0,0,0,1.3.84,1.4,1.4,0,0,0,.59-.13,1.43,1.43,0,0,0,.71-1.9,94.827,94.827,0,0,0-5.49-10.32Z" fill="#8cd4ff"/>
            <path id="Trazado_229137" data-name="Trazado 229137" d="M192.74,199.16a1.46,1.46,0,0,0,1.11.53,1.38,1.38,0,0,0,.91-.33,1.42,1.42,0,0,0,.22-2,100.53,100.53,0,0,0-7.89-8.67,1.44,1.44,0,1,0-2,2.05,90.52,90.52,0,0,1,7.65,8.42Z" fill="#8cd4ff"/>
            <path id="Trazado_229138" data-name="Trazado 229138" d="M104.37,158.71s2.07.23,5.5.92h.29a1.42,1.42,0,0,0,1.41-1.15,1.33,1.33,0,0,0,0-.63c.57.07,1.18.14,1.85.24h.18a1.43,1.43,0,0,0,.21-2.85c-3.67-.49-5.79-.61-5.79-.61a1.42,1.42,0,0,0-1.5,1.34v.12c-1.11-.18-1.74-.25-1.79-.25a1.4,1.4,0,0,0-1.59,1.26,1.46,1.46,0,0,0,1.23,1.61Z" fill="#8cd4ff"/>
            <path id="Trazado_229139" data-name="Trazado 229139" d="M120.91,162.38c3.61,1.06,7.24,2.29,10.79,3.66a1.433,1.433,0,0,0,1.04-2.67c-3.64-1.39-7.35-2.66-11-3.74a1.433,1.433,0,0,0-.81,2.75Z" fill="#8cd4ff"/>
            <path id="Trazado_229140" data-name="Trazado 229140" d="M142.16,170.59c3.45,1.69,6.81,3.51,10,5.43a1.53,1.53,0,0,0,.74.22,1.44,1.44,0,0,0,.75-2.67,116.342,116.342,0,0,0-10.24-5.56,1.41,1.41,0,0,0-1.9.66A1.44,1.44,0,0,0,142.16,170.59Z" fill="#8cd4ff"/>
            <path id="Trazado_229141" data-name="Trazado 229141" d="M170.3,189.64a1.44,1.44,0,0,0,1,.39,1.39,1.39,0,0,0,1-.46,1.43,1.43,0,0,0-.06-2,114.942,114.942,0,0,0-8.95-7.47,1.46,1.46,0,0,0-2,.29,1.43,1.43,0,0,0,.3,2,109.227,109.227,0,0,1,8.71,7.25Z" fill="#8cd4ff"/>
            <path id="Trazado_229142" data-name="Trazado 229142" d="M193.31,215.3a1.46,1.46,0,0,0-1.92-.62,1.43,1.43,0,0,0-.62,1.94A100.7,100.7,0,0,1,195.36,227a1.42,1.42,0,0,0,1.33.92,1.32,1.32,0,0,0,.51-.1A1.44,1.44,0,0,0,198,226a102.908,102.908,0,0,0-4.69-10.7Z" fill="#8cd4ff"/>
            <path id="Trazado_229143" data-name="Trazado 229143" d="M178.16,197.83a96.513,96.513,0,0,1,6.86,9,1.4,1.4,0,0,0,1.18.64,1.53,1.53,0,0,0,.8-.24,1.43,1.43,0,0,0,.39-2,100.754,100.754,0,0,0-7.07-9.3,1.43,1.43,0,1,0-2.16,1.87Z" fill="#8cd4ff"/>
            <path id="Trazado_229144" data-name="Trazado 229144" d="M114.17,162.71a1.41,1.41,0,0,0-1-1.75,57.878,57.878,0,0,0-5.69-1.34,1.44,1.44,0,0,0-1.66,1.17,1.36,1.36,0,0,0,.18.89l-1.46-.39a1.42,1.42,0,0,0-1.72,1.07,1.73,1.73,0,0,0,0,.39c-1.18-.55-1.86-.83-1.9-.85a1.42,1.42,0,0,0-1.87.78,1.44,1.44,0,0,0,.79,1.87s1.91.78,5,2.41a1.34,1.34,0,0,0,.66.18,1.42,1.42,0,0,0,1.15-2.27c.74.23,1.58.51,2.55.85a1.59,1.59,0,0,0,.48.07,1.43,1.43,0,0,0,1.35-.95,1.41,1.41,0,0,0-.56-1.64c.6.14,1.24.31,2,.51a1.28,1.28,0,0,0,.38,0,1.42,1.42,0,0,0,1.32-1Z" fill="#8cd4ff"/>
            <path id="Trazado_229145" data-name="Trazado 229145" d="M172.84,204.48a1.42,1.42,0,0,0-.41,2,97,97,0,0,1,5.37,9.31,1.41,1.41,0,0,0,1.26.79,1.49,1.49,0,0,0,.65-.16,1.44,1.44,0,0,0,.65-1.92,98.413,98.413,0,0,0-5.54-9.57,1.4,1.4,0,0,0-1.98-.45Z" fill="#8cd4ff"/>
            <path id="Trazado_229146" data-name="Trazado 229146" d="M141.84,176.72a104.442,104.442,0,0,1,8.83,6.16,1.39,1.39,0,0,0,2-.25,1.41,1.41,0,0,0-.24-2,109.159,109.159,0,0,0-9-6.33,1.432,1.432,0,1,0-1.53,2.42Z" fill="#8cd4ff"/>
            <path id="Trazado_229147" data-name="Trazado 229147" d="M123.63,164.42a1.43,1.43,0,1,0-1,2.67c3.32,1.28,6.65,2.74,9.86,4.36a1.52,1.52,0,0,0,.63.14,1.43,1.43,0,0,0,.63-2.71C130.46,167.24,127.06,165.73,123.63,164.42Z" fill="#8cd4ff"/>
            <path id="Trazado_229148" data-name="Trazado 229148" d="M158.78,189.93a96.625,96.625,0,0,1,7.29,7.88,1.42,1.42,0,0,0,1.09.52,1.5,1.5,0,0,0,.94-.33,1.47,1.47,0,0,0,.18-2,100.58,100.58,0,0,0-7.52-8.11,1.436,1.436,0,0,0-2,2.06Z" fill="#8cd4ff"/>
            <path id="Trazado_229149" data-name="Trazado 229149" d="M188.15,235.08a110,110,0,0,0-3.36-10.51,1.43,1.43,0,0,0-2.68,1c1.26,3.32,2.35,6.76,3.3,10.23a1.41,1.41,0,0,0,1.38,1.07,1.49,1.49,0,0,0,.36,0,1.41,1.41,0,0,0,1-1.79Z" fill="#8cd4ff"/>
            <path id="Trazado_229150" data-name="Trazado 229150" d="M156.33,197.09a1.43,1.43,0,0,0-.23,2,97.253,97.253,0,0,1,6.68,9.54,1.432,1.432,0,0,0,2.44-1.5,101.19,101.19,0,0,0-6.87-9.82,1.46,1.46,0,0,0-2.02-.22Z" fill="#8cd4ff"/>
            <path id="Trazado_229151" data-name="Trazado 229151" d="M119.92,170.23a109.364,109.364,0,0,1,10.2,5.68,1.35,1.35,0,0,0,.76.22,1.43,1.43,0,0,0,.76-2.64,111.677,111.677,0,0,0-10.47-5.84,1.433,1.433,0,0,0-1.25,2.58Z" fill="#8cd4ff"/>
            <path id="Trazado_229152" data-name="Trazado 229152" d="M148.35,190.4a1.41,1.41,0,0,0,1,.42,1.39,1.39,0,0,0,1-.42,1.42,1.42,0,0,0,0-2,106.539,106.539,0,0,0-9-8,1.44,1.44,0,0,0-1.78,2.26A103.894,103.894,0,0,1,148.35,190.4Z" fill="#8cd4ff"/>
            <path id="Trazado_229153" data-name="Trazado 229153" d="M170.9,217.7a1.43,1.43,0,1,0-2.59,1.2,104.348,104.348,0,0,1,4.31,10.83,1.46,1.46,0,0,0,1.36,1,1.7,1.7,0,0,0,.46-.06,1.44,1.44,0,0,0,.91-1.82,109.643,109.643,0,0,0-4.45-11.15Z" fill="#8cd4ff"/>
            <path id="Trazado_229154" data-name="Trazado 229154" d="M115.66,170.16a1.439,1.439,0,1,0-1.59,2.4c3,2,5.93,4.17,8.75,6.44a1.32,1.32,0,0,0,.89.32,1.46,1.46,0,0,0,1.11-.53,1.43,1.43,0,0,0-.21-2C121.74,174.42,118.72,172.22,115.66,170.16Z" fill="#8cd4ff"/>
            <path id="Trazado_229155" data-name="Trazado 229155" d="M133,184.11a1.436,1.436,0,0,0-2,2.06c2.61,2.52,5.1,5.18,7.45,7.89a1.414,1.414,0,1,0,2.14-1.85C138.18,189.41,135.61,186.68,133,184.11Z" fill="#8cd4ff"/>
            <path id="Trazado_229156" data-name="Trazado 229156" d="M145.45,200.6a1.43,1.43,0,0,0-.32,2c2.11,3,4.08,6,5.89,9.1a1.44,1.44,0,0,0,1.24.72,1.4,1.4,0,0,0,.72-.2,1.43,1.43,0,0,0,.5-2c-1.83-3.16-3.86-6.3-6-9.33a1.41,1.41,0,0,0-2.03-.29Z" fill="#8cd4ff"/>
            <path id="Trazado_229157" data-name="Trazado 229157" d="M158.64,220.11a1.439,1.439,0,0,0-2.61,1.21c1.53,3.27,2.91,6.65,4.12,10a1.45,1.45,0,0,0,1.35,1,1.31,1.31,0,0,0,.48-.08,1.42,1.42,0,0,0,.86-1.83C161.62,226.92,160.18,223.46,158.64,220.11Z" fill="#8cd4ff"/>
            <path id="Trazado_229158" data-name="Trazado 229158" d="M102,166.55a1.429,1.429,0,0,0-1.42,2.48,53.9,53.9,0,0,1,4.65,3.06,1.32,1.32,0,0,0,.83.28,1.42,1.42,0,0,0,1.16-.6,1.44,1.44,0,0,0-.33-2A51.678,51.678,0,0,0,102,166.55Z" fill="#8cd4ff"/>
            <path id="Trazado_229159" data-name="Trazado 229159" d="M131.23,192.89a1.43,1.43,0,1,0-2.21,1.8c2.26,2.82,4.46,5.79,6.52,8.81a1.41,1.41,0,0,0,1.19.62,1.55,1.55,0,0,0,.81-.24,1.46,1.46,0,0,0,.37-2C135.81,198.8,133.57,195.78,131.23,192.89Z" fill="#8cd4ff"/>
            <path id="Trazado_229160" data-name="Trazado 229160" d="M143.78,211.43a1.43,1.43,0,0,0-1.95-.54,1.45,1.45,0,0,0-.54,2c1.77,3.18,3.4,6.48,4.9,9.79a1.42,1.42,0,0,0,1.3.85,1.29,1.29,0,0,0,.58-.12,1.44,1.44,0,0,0,.74-1.89Q146.515,216.345,143.78,211.43Z" fill="#8cd4ff"/>
            <path id="Trazado_229161" data-name="Trazado 229161" d="M115.69,176.74a1.432,1.432,0,0,0-1.88,2.16c2.73,2.38,5.39,4.92,7.93,7.57a1.414,1.414,0,0,0,2-2C121.21,181.78,118.47,179.18,115.69,176.74Z" fill="#8cd4ff"/>
          </g>
        </g>
      </g>
    </g>
  </g>
</svg>
