<svg xmlns="http://www.w3.org/2000/svg" xmlns:xlink="http://www.w3.org/1999/xlink" width="281.717" height="264.375" viewBox="0 0 281.717 264.375">
  <defs>
    <clipPath id="clip-path">
      <path id="Trazado_235096" data-name="Trazado 235096" d="M209.415,225.7,99,161.516a4.2,4.2,0,0,0,4.239-.406L213.653,225.3a4.226,4.226,0,0,1-4.239.393Z" transform="translate(-99 -161.11)" fill="none"/>
    </clipPath>
    <clipPath id="clip-path-2">
      <path id="Trazado_235123" data-name="Trazado 235123" d="M228.145,205.982,117.73,141.789a4.2,4.2,0,0,0,4.252-.419L232.4,205.575a4.188,4.188,0,0,1-4.252.406Z" transform="translate(-117.73 -141.37)" fill="none"/>
    </clipPath>
    <clipPath id="clip-path-3">
      <path id="Trazado_235146" data-name="Trazado 235146" d="M59.48,196.076,59.8,73.11c0,1.8,1.18,3.617,3.554,4.988l-.317,122.954C60.66,199.668,59.48,197.866,59.48,196.076Z" transform="translate(-59.48 -73.11)" fill="none"/>
    </clipPath>
    <clipPath id="clip-path-4">
      <path id="Trazado_235250" data-name="Trazado 235250" d="M227.944,199.263,196.47,217.539a.711.711,0,0,0,.3-.711l31.462-18.288a.762.762,0,0,1-.292.723Z" transform="translate(-196.47 -198.54)" fill="#283032"/>
    </clipPath>
    <clipPath id="clip-path-5">
      <path id="Trazado_235253" data-name="Trazado 235253" d="M192.41,193.74l31.462-18.288a.711.711,0,0,1,.736,0L193.159,193.8a.711.711,0,0,0-.749-.063Z" transform="translate(-192.41 -175.349)" fill="#283032"/>
    </clipPath>
    <clipPath id="clip-path-6">
      <path id="Trazado_235262" data-name="Trazado 235262" d="M195.21,195.058l31.462-18.288A2.259,2.259,0,0,1,227.7,178.5l-31.487,18.288a2.3,2.3,0,0,0-1-1.726Z" transform="translate(-195.21 -176.77)" fill="#283032"/>
    </clipPath>
    <clipPath id="clip-path-7">
      <path id="Trazado_235267" data-name="Trazado 235267" d="M192.11,193.157l31.462-18.276a.99.99,0,0,1,1.041.1l-31.462,18.288A1.028,1.028,0,0,0,192.11,193.157Z" transform="translate(-192.11 -174.779)" fill="#3a4648"/>
    </clipPath>
    <clipPath id="clip-path-8">
      <path id="Trazado_235275" data-name="Trazado 235275" d="M195.15,194.508l31.462-18.288a3.2,3.2,0,0,1,1.459,2.449L196.61,196.958a3.236,3.236,0,0,0-1.46-2.449Z" transform="translate(-195.15 -176.22)" fill="#3a4648"/>
    </clipPath>
  </defs>
  <g id="Grupo_124814" data-name="Grupo 124814" transform="translate(-239.678 -5889.625)">
    <g id="CF8_sancion" transform="translate(185.204 5830.137)">
      <g id="lav_books" data-name="lav books" transform="translate(54.474 59.489)">
        <path id="Trazado_235093" data-name="Trazado 235093" d="M336.128,183.566,300.452,162.79,124.525,183.566V90.843L85.36,68.227c-6.346-3.63-16.5-3.63-22.7,0L59.7,69.941c-3.109,1.8-4.658,4.175-4.645,6.549h0C54.7,207.845,52.6,206.258,59.444,210.18h0L142.623,258.2l21.448-12.463h0l15.23-8.884,40.828,24.52h0c3.262,1.98,11.765-4.163,93.916-51.6v-2.158l-7.932-4.607,30.078-17.235Z" transform="translate(-54.474 -57.87)" fill="#bbc0c9"/>
        <g id="Grupo_64604" data-name="Grupo 64604" transform="translate(52.854 62.811)">
          <g id="Grupo_64602" data-name="Grupo 64602">
            <g id="Grupo_64598" data-name="Grupo 64598" transform="translate(3.655 22.121)">
              <path id="Trazado_235094" data-name="Trazado 235094" d="M212.805,234.642,102.34,170.449l76.288-44.039L289.093,190.6Z" transform="translate(-98.101 -126.41)" fill="#283032"/>
              <g id="Grupo_64597" data-name="Grupo 64597" transform="translate(0 44.039)">
                <g id="Grupo_64596" data-name="Grupo 64596" clip-path="url(#clip-path)">
                  <path id="Trazado_235095" data-name="Trazado 235095" d="M209.415,225.7,99,161.516a4.2,4.2,0,0,0,4.239-.406L213.653,225.3a4.226,4.226,0,0,1-4.239.393Z" transform="translate(-99 -161.11)" fill="#283032"/>
                </g>
              </g>
              <path id="Trazado_235097" data-name="Trazado 235097" d="M189.38,221.029l76.288-44.039v2.158L189.38,223.2Z" transform="translate(-74.676 -112.797)" fill="#071113"/>
            </g>
            <g id="Grupo_64599" data-name="Grupo 64599" transform="translate(17.539 12.437)">
              <path id="Trazado_235098" data-name="Trazado 235098" d="M259.028,161.57,259,169.781v.99l-.013,3.833v1l-.013,3.68v2.652L184.06,225.547l.051-20.37Z" transform="translate(-89.992 -107.264)" fill="#efd2b8"/>
              <path id="Trazado_235099" data-name="Trazado 235099" d="M204.059,207.446l-.051,20.37L109.94,173.51,110,153.14Z" transform="translate(-109.94 -109.533)" fill="#867567"/>
              <path id="Trazado_235100" data-name="Trazado 235100" d="M278.962,173.086l-74.917,43.607L109.99,162.387l74.9-43.607Z" transform="translate(-109.927 -118.78)" fill="#aa9683"/>
            </g>
            <path id="Trazado_235101" data-name="Trazado 235101" d="M185.064,222.306v-6.219a13.11,13.11,0,0,1,5.952-10.318l76.275-44.039v-2.17L191,203.612a17.286,17.286,0,0,0-7.843,13.618v6.231c0,4.975,3.541,6.993,7.869,4.493v-2.17C187.767,227.624,185.076,226.113,185.064,222.306Z" transform="translate(-72.695 -95.367)" fill="#071113"/>
            <g id="Grupo_64601" data-name="Grupo 64601">
              <g id="Grupo_64600" data-name="Grupo 64600" transform="translate(7.831)">
                <path id="Trazado_235102" data-name="Trazado 235102" d="M212.755,217.224,102.29,153.032l76.288-44.052,110.465,64.193Z" transform="translate(-102.29 -108.98)" fill="#283032"/>
                <path id="Trazado_235103" data-name="Trazado 235103" d="M289.043,171.842l-10.432,6.016L215.839,214.1l-3.084,1.777-36.576-21.258-9.848-5.736-64.04-37.211L165.645,115.1c7.945.711,15.9-.812,23.847-1.13l54.814,31.855,14.43,8.389h0Z" transform="translate(-102.29 -107.637)" fill="#283032"/>
              </g>
              <path id="Trazado_235104" data-name="Trazado 235104" d="M206.585,221.476v6.231c0,2.475.876,4.214,2.284,5.077L116.845,179.29l-3.515-2.031-.47-.279-3.1-1.789-2.272-1.269-1.866-1.091L98.4,168.642c-1.409-.825-2.284-2.538-2.284-5.077v-6.231a17.286,17.286,0,0,1,7.831-13.554l9.493,5.521,2.132,1.269,1.079.622,2.284,1.333,2.081,1.206,3.224,1.878,90.172,52.4a17.286,17.286,0,0,0-7.831,13.465Z" transform="translate(-96.12 -99.614)" fill="#071113"/>
              <path id="Trazado_235105" data-name="Trazado 235105" d="M96.13,157.244a17.235,17.235,0,0,1,7.818-13.554l9.493,5.521,3.211,1.853,4.366,2.538,3.224,1.878,90.172,52.4a17.286,17.286,0,0,0-7.831,13.618Z" transform="translate(-96.117 -99.638)" fill="#1b2224"/>
            </g>
          </g>
          <g id="Grupo_64603" data-name="Grupo 64603" transform="translate(43.163 18.986)">
            <path id="Trazado_235106" data-name="Trazado 235106" d="M130.13,147.3l1.371-.787,3.059,1.764,2.449-1.421-3.059-1.764,1.371-.787,7.145,4.125-1.371.787-2.83-1.624L135.816,149l2.83,1.637-1.371.787Z" transform="translate(-130.13 -118.46)" fill="#ffc641"/>
            <path id="Trazado_235107" data-name="Trazado 235107" d="M137.464,142.73c1.688-.965,3.186-1.459,6.536.47,3.16,1.815,2.462,2.691.7,3.706s-3.186,1.485-6.435-.393S135.827,143.682,137.464,142.73Zm5.978,3.452c1.142-.66,1.117-1.079-.8-2.2-2.234-1.269-2.83-1.155-3.909-.52s-1.371.939.9,2.259c1.942,1.13,2.589,1.168,3.807.457Z" transform="translate(-128.542 -119.112)" fill="#ffc641"/>
            <path id="Trazado_235108" data-name="Trazado 235108" d="M140.18,141.017l1.371-.787,5.381,3.109a.964.964,0,0,0,1.1,0l2.449-1.421,1.269.723-2.919,1.65a2.716,2.716,0,0,1-2.868,0Z" transform="translate(-127.425 -119.556)" fill="#ffc641"/>
            <path id="Trazado_235109" data-name="Trazado 235109" d="M144.923,138.833l4.823,1.18-1.9-2.83,1.485-.863,2.538,4.2,2.221,1.269-1.371.787-2.208-1.269-7.107-1.586Z" transform="translate(-126.559 -120.608)" fill="#ffc641"/>
            <path id="Trazado_235110" data-name="Trazado 235110" d="M150.6,135.323l2.944-1.7a3.807,3.807,0,0,1,3.922-.063c.66.381,1.117.965.558,1.447a3.274,3.274,0,0,1,2.7.3c1.269.761,1.5,1.548,0,2.424l-2.97,1.713Zm5.7,0c.482-.279.444-.6-.063-.9a1.523,1.523,0,0,0-1.561,0l-1.5.863,1.624.939Zm3.16,1.764c.419-.241.6-.571-.165-1a1.8,1.8,0,0,0-1.789-.127l-1.548.9,1.954,1.13Z" transform="translate(-124.621 -121.489)" fill="#ffc641"/>
            <path id="Trazado_235111" data-name="Trazado 235111" d="M155.25,132.327l1.358-.787,7.145,4.125-1.371.787Z" transform="translate(-123.369 -121.895)" fill="#ffc641"/>
            <path id="Trazado_235112" data-name="Trazado 235112" d="M157.13,131.546l2.944-1.7a3.807,3.807,0,0,1,3.922,0c.66.381,1.117.977.546,1.447a3.274,3.274,0,0,1,2.7.3c1.333.762,1.5,1.548,0,2.424l-2.97,1.713Zm5.7,0c.482-.279.444-.6-.063-.9a1.485,1.485,0,0,0-1.561,0l-1.5.863,1.624.926Zm3.16,1.764c.406-.228.6-.558-.165-1a1.8,1.8,0,0,0-1.789-.127l-1.548.9,1.954,1.13Z" transform="translate(-122.863 -122.497)" fill="#ffc641"/>
            <path id="Trazado_235113" data-name="Trazado 235113" d="M161.77,128.557l1.371-.787,5.381,3.1a.926.926,0,0,0,1.1,0l2.449-1.409,1.269.723-2.944,1.688a2.69,2.69,0,0,1-2.868,0Z" transform="translate(-121.615 -122.909)" fill="#ffc641"/>
            <path id="Trazado_235114" data-name="Trazado 235114" d="M167.213,127.417c-1.269-.711-.609-1.371.076-1.751,0,0,2.538-1.409,3.3-1.726l1.13.66-2.817,1.624c-.508.292-.228.457,0,.609l1.1.647,3-1.612,1.117.647-2.792,1.726,1.117.635a.939.939,0,0,0,1.117,0l2.716-1.574,1.13.647c-.482.368-2.881,1.853-2.881,1.853a2.868,2.868,0,0,1-3.084.127Z" transform="translate(-120.343 -123.94)" fill="#ffc641"/>
          </g>
          <path id="Trazado_235115" data-name="Trazado 235115" d="M116.538,150.954l-.444.254a16.867,16.867,0,0,0-7.615,13.262v6.219c0,2.272.761,3.947,2.119,4.747a1.547,1.547,0,0,1,.381.3l-.47-.279-3.1-1.789-2.272-1.269a11.637,11.637,0,0,1-.1-1.65v-6.219a20.306,20.306,0,0,1,8.186-15.483l1.079.622Z" transform="translate(-93.719 -98.196)" fill="#f7af2a"/>
          <path id="Trazado_235116" data-name="Trazado 235116" d="M127.744,157.453l-.444.254a16.9,16.9,0,0,0-7.615,13.262V177.2a5.178,5.178,0,0,0,2.119,4.734,1.828,1.828,0,0,1,.381.3l-.47-.279-3.109-1.739-2.272-1.269a11.614,11.614,0,0,1-.114-1.65v-6.219a20.306,20.306,0,0,1,8.173-15.483l1.079.622Z" transform="translate(-90.71 -96.433)" fill="#f7af2a"/>
          <path id="Trazado_235117" data-name="Trazado 235117" d="M179.141,187.346l-.444.254a16.879,16.879,0,0,0-7.615,13.25v6.231c0,2.259.762,3.947,2.119,4.734a1.536,1.536,0,0,1,.381.317l-.47-.279-3.1-1.8-2.272-1.269a11.312,11.312,0,0,1-.114-1.637v-6.231A20.306,20.306,0,0,1,175.8,185.43l1.079.635Z" transform="translate(-76.874 -88.405)" fill="#f7af2a"/>
          <path id="Trazado_235118" data-name="Trazado 235118" d="M256.176,168.04v.99L194.56,204.6v-.99Z" transform="translate(-69.627 -93.085)" fill="#e7c3a4"/>
          <path id="Trazado_235119" data-name="Trazado 235119" d="M249.775,175.53v1l-31.525,18.2v-.99Z" transform="translate(-63.251 -91.069)" fill="#e7c3a4"/>
          <path id="Trazado_235120" data-name="Trazado 235120" d="M258.034,171.84v1l-70.424,40.65v-.99Z" transform="translate(-71.497 -92.062)" fill="#e7c3a4"/>
        </g>
        <g id="Grupo_64613" data-name="Grupo 64613" transform="translate(76.587 37.771)">
          <g id="Grupo_64611" data-name="Grupo 64611">
            <g id="Grupo_64607" data-name="Grupo 64607" transform="translate(3.693 22.108)">
              <path id="Trazado_235121" data-name="Trazado 235121" d="M231.493,214.914,121.04,150.709l76.288-44.039L307.78,170.863Z" transform="translate(-116.839 -106.67)" fill="#283032"/>
              <g id="Grupo_64606" data-name="Grupo 64606" transform="translate(0 44.039)">
                <g id="Grupo_64605" data-name="Grupo 64605" clip-path="url(#clip-path-2)">
                  <path id="Trazado_235122" data-name="Trazado 235122" d="M228.145,205.982,117.73,141.789a4.2,4.2,0,0,0,4.252-.419L232.4,205.575a4.188,4.188,0,0,1-4.239.406Z" transform="translate(-117.73 -141.37)" fill="#283032"/>
                </g>
              </g>
              <path id="Trazado_235124" data-name="Trazado 235124" d="M208.07,201.3l76.288-44.052.013,2.17-76.288,44.039Z" transform="translate(-93.417 -93.057)" fill="#071113"/>
            </g>
            <g id="Grupo_64608" data-name="Grupo 64608" transform="translate(17.539 12.425)">
              <path id="Trazado_235125" data-name="Trazado 235125" d="M277.718,141.84l-.013,6.371v.99l-.025,7.475v.99l-.013,4.531L202.75,205.8l.063-20.37Z" transform="translate(-108.695 -87.521)" fill="#efd2b8"/>
              <path id="Trazado_235126" data-name="Trazado 235126" d="M276.5,146.86v.99l-69.282,40v-1Z" transform="translate(-107.492 -86.17)" fill="#e7c3a4"/>
              <path id="Trazado_235127" data-name="Trazado 235127" d="M254.765,160.17l-42.8,24.7v.99l42.8-24.7Z" transform="translate(-106.213 -82.588)" fill="#e7c3a4"/>
              <path id="Trazado_235128" data-name="Trazado 235128" d="M267.01,154.7l-34.19,19.735v.99l34.19-19.735Z" transform="translate(-100.602 -84.06)" fill="#e7c3a4"/>
              <path id="Trazado_235129" data-name="Trazado 235129" d="M273.273,157.52l-67.543,39v.99l67.543-39Z" transform="translate(-107.893 -83.301)" fill="#e7c3a4"/>
              <path id="Trazado_235130" data-name="Trazado 235130" d="M222.759,187.706l-.063,20.37L128.64,153.77l.051-20.37Z" transform="translate(-128.64 -89.793)" fill="#867567"/>
              <path id="Trazado_235131" data-name="Trazado 235131" d="M297.652,153.346l-74.9,43.607L128.68,142.647,203.6,99.04Z" transform="translate(-128.629 -99.04)" fill="#aa9683"/>
            </g>
            <path id="Trazado_235132" data-name="Trazado 235132" d="M203.772,202.576v-6.231a13.123,13.123,0,0,1,5.952-10.305l76.288-44.052V139.83l-76.351,44.039a17.26,17.26,0,0,0-7.831,13.567v6.219c0,4.975,3.554,6.993,7.881,4.493v-2.107C206.462,207.881,203.784,206.358,203.772,202.576Z" transform="translate(-91.403 -75.637)" fill="#071113"/>
            <g id="Grupo_64610" data-name="Grupo 64610">
              <g id="Grupo_64609" data-name="Grupo 64609" transform="translate(7.831)">
                <path id="Trazado_235133" data-name="Trazado 235133" d="M231.455,197.482,120.99,133.289,197.265,89.25,307.73,153.443Z" transform="translate(-120.99 -89.25)" fill="#283032"/>
                <path id="Trazado_235134" data-name="Trazado 235134" d="M228.974,189.38l-.431-.254-98.472-57.2L194.8,94.55l.432.254,98.51,57.251Zm-95.464-57.454,95.464,55.461,61.3-35.4-95.451-55.5Z" transform="translate(-118.546 -87.824)" fill="#ffc641"/>
              </g>
              <path id="Trazado_235135" data-name="Trazado 235135" d="M225.283,201.7v6.219c0,2.475.888,4.214,2.3,5.077l-92.025-53.456-3.5-2.043-.47-.267-3.1-1.8-2.272-1.269-1.866-1.091-7.221-4.188c-1.409-.825-2.284-2.538-2.3-5.077v-6.231A17.248,17.248,0,0,1,122.661,124l9.493,5.521,2.119,1.269,1.079.635,2.284,1.269,2.081,1.269,3.236,1.866,90.121,52.3A17.273,17.273,0,0,0,225.283,201.7Z" transform="translate(-114.817 -79.898)" fill="#071113"/>
              <path id="Trazado_235136" data-name="Trazado 235136" d="M114.82,137.491A17.248,17.248,0,0,1,122.663,124l9.493,5.521,3.2,1.866,4.366,2.538,3.236,1.866,90.121,52.339a17.26,17.26,0,0,0-7.831,13.567Z" transform="translate(-114.82 -79.898)" fill="#1b2224"/>
            </g>
          </g>
          <path id="Trazado_235137" data-name="Trazado 235137" d="M135.231,131.214l-.444.254a16.918,16.918,0,0,0-7.615,13.262v6.231c0,2.259.761,3.947,2.119,4.734a1.828,1.828,0,0,1,.381.3l-.47-.267-3.1-1.8-2.272-1.269a11.423,11.423,0,0,1-.114-1.637v-6.231a20.306,20.306,0,0,1,8.173-15.483l1.079.635Z" transform="translate(-112.425 -78.469)" fill="#f7af2a"/>
          <path id="Trazado_235138" data-name="Trazado 235138" d="M146.438,137.724l-.444.267a16.867,16.867,0,0,0-7.615,13.25v6.231c0,2.259.761,3.947,2.119,4.734a1.9,1.9,0,0,1,.393.3l-.482-.267-3.1-1.8-2.272-1.269a13.508,13.508,0,0,1-.1-1.637V151.3a20.306,20.306,0,0,1,8.186-15.483l1.079.635Z" transform="translate(-109.405 -76.716)" fill="#f7af2a"/>
          <path id="Trazado_235139" data-name="Trazado 235139" d="M197.828,167.6l-.444.254a16.9,16.9,0,0,0-7.615,13.262v6.219c0,2.272.761,3.947,2.132,4.747a2.235,2.235,0,0,1,.381.3l-.482-.279-3.1-1.8-2.272-1.269a13.508,13.508,0,0,1-.1-1.637v-6.231a20.306,20.306,0,0,1,8.186-15.471l1.079.622Z" transform="translate(-95.574 -68.675)" fill="#f7af2a"/>
          <g id="Grupo_64612" data-name="Grupo 64612" transform="translate(46.59 20.255)">
            <path id="Trazado_235140" data-name="Trazado 235140" d="M151.53,125.588l4.061-2.348,10.623,6.13a2.031,2.031,0,0,0,2.411-.089l4.328-2.538,3.655,2.107-6.219,3.579a6.574,6.574,0,0,1-6.752.127Z" transform="translate(-151.53 -100.358)" fill="#ffc641"/>
            <path id="Trazado_235141" data-name="Trazado 235141" d="M163.68,118.657l4.8-2.767,20.014,6.181-4.175,2.411-3.579-1.041-4.137,2.386,1.8,2.069-4.175,2.411Zm12.767,3.262-5.216-1.726,2.83,3.109Z" transform="translate(-148.26 -102.336)" fill="#ffc641"/>
            <path id="Trazado_235142" data-name="Trazado 235142" d="M173.912,114.741l12.907,4.518-8.452-7.082,4.277-2.538,2.411,2.284,9.315,2.906-8.452-7.082,4.277-2.538,11.6,11.041-4.912,2.83-6.473-1.954,3.807,3.6-4.912,2.843-19.7-6.346Z" transform="translate(-146.664 -105.21)" fill="#ffc641"/>
          </g>
        </g>
        <g id="Grupo_64618" data-name="Grupo 64618" transform="translate(0.236)">
          <path id="Trazado_235143" data-name="Trazado 235143" d="M145.3,99.47l-.33,127.091-4.137,2.4.343-127.078Z" transform="translate(-31.469 -48.728)" fill="#071113"/>
          <path id="Trazado_235144" data-name="Trazado 235144" d="M79.929,63.885a15.94,15.94,0,0,0-14.4,0L62.567,65.6A6.143,6.143,0,0,0,59.9,68.3a3.629,3.629,0,0,0-.292,1.4l-.33,127.091a3.4,3.4,0,0,1,.292-1.4,6.016,6.016,0,0,1,2.665-2.741l2.944-1.726a15.9,15.9,0,0,1,14.417,0l83.179,48.037.343-127.091Z" transform="translate(-53.417 -58.769)" fill="#1b2224"/>
          <g id="Grupo_64617" data-name="Grupo 64617" transform="translate(6.117 8.755)">
            <g id="Grupo_64616" data-name="Grupo 64616" transform="translate(0 8.532)">
              <g id="Grupo_64615" data-name="Grupo 64615" clip-path="url(#clip-path-3)">
                <g id="Grupo_64614" data-name="Grupo 64614" transform="translate(0 -0.051)">
                  <path id="Trazado_235145" data-name="Trazado 235145" d="M63.351,78.058l-.317,122.954c-2.373-1.371-3.554-3.173-3.554-4.975L59.8,73.07c0,1.8,1.18,3.617,3.554,4.988Z" transform="translate(-59.48 -73.07)" fill="#958373"/>
                </g>
              </g>
            </g>
            <path id="Trazado_235147" data-name="Trazado 235147" d="M139.151,121.221l-.317,122.966-76.554-44.2L62.6,77.03Z" transform="translate(-58.726 -63.523)" fill="#807163"/>
            <path id="Trazado_235148" data-name="Trazado 235148" d="M142.652,102.82l-.3,122.954L122.6,237.247l.317-122.966Z" transform="translate(-42.492 -56.582)" fill="#e7c3a4"/>
            <path id="Trazado_235149" data-name="Trazado 235149" d="M159.574,112.625l-19.735,11.422L63.285,79.856c-4.721-2.729-4.747-7.171-.063-9.9l2.716-1.523a18.847,18.847,0,0,1,17.083,0Z" transform="translate(-59.414 -66.387)" fill="#efd2b8"/>
          </g>
          <path id="Trazado_235150" data-name="Trazado 235150" d="M59.724,74.755c-3.16-1.828-4.734-4.226-4.734-6.625l-.33,127.091c0,2.386,1.574,4.8,4.734,6.612l83.179,48.037.343-127.091Z" transform="translate(-54.66 -57.163)" fill="#1b2224"/>
          <path id="Trazado_235151" data-name="Trazado 235151" d="M168.433,110.243l-4.137,2.4L81.1,64.6a15.877,15.877,0,0,0-14.4,0l-2.957,1.713c-3.96,2.3-3.934,6.041,0,8.338l83.179,48.037-4.125,2.4L59.655,77.081c-6.27-3.63-6.346-9.531-.076-13.148l2.957-1.726c6.244-3.63,16.423-3.617,22.7,0Z" transform="translate(-54.591 -59.489)" fill="#283032"/>
          <path id="Trazado_235152" data-name="Trazado 235152" d="M128.4,109.3l-.33,127.078-4.137,2.411.343-127.091Z" transform="translate(-36.017 -46.083)" fill="#071113"/>
        </g>
        <g id="Grupo_64619" data-name="Grupo 64619" transform="translate(20.339 55.298)">
          <path id="Trazado_235153" data-name="Trazado 235153" d="M70.551,103.06l4.391,2.538V118.81a2.208,2.208,0,0,0,1.409,2.17l4.658,2.691v4.544l-6.7-3.807a7.133,7.133,0,0,1-3.807-6.244Z" transform="translate(-70.5 -103.06)" fill="#ffc641"/>
          <path id="Trazado_235154" data-name="Trazado 235154" d="M84.727,110.62l5.178,3.021,5.077,22.019-4.505-2.538-.965-3.9-4.467-2.538-.939,2.792-4.505-2.6ZM88.535,124.3l-1.193-5.813-1.383,4.328Z" transform="translate(-68.051 -101.025)" fill="#ffc641"/>
          <path id="Trazado_235155" data-name="Trazado 235155" d="M94.62,116.955l2.729,14.481,2.069-11.714,4.607,2.665-.838,3.49,2.31,10.255,2.056-11.714,4.62,2.665-4.049,16.778-5.292-3.046-1.523-7.12-1.269,5.47-5.292-3.059L90,114.29Z" transform="translate(-65.252 -100.038)" fill="#ffc641"/>
        </g>
        <path id="Trazado_235156" data-name="Trazado 235156" d="M137.844,241.981,60.82,197.561,61.137,77.59l77.036,44.42ZM61.911,196.888l74.879,43.151.317-117.471L62.229,79.418Z" transform="translate(-52.766 -54.617)" fill="#ffc641"/>
      </g>
      <g id="lawyer_woman" data-name="lawyer woman" transform="translate(56.257 62.054)">
        <path id="Trazado_235157" data-name="Trazado 235157" d="M66.825,239.555c-14.43,8.338-14.43,21.829,0,30.155s37.795,8.338,52.225,0,14.417-21.816,0-30.155S81.242,231.23,66.825,239.555Z" transform="translate(-55.846 -15.274)" fill="#bbc0c9"/>
        <g id="Grupo_64633" data-name="Grupo 64633">
          <path id="Trazado_235158" data-name="Trazado 235158" d="M101.446,99.27c2.094,3.807,2.17,8.376,2.538,12.691.749,9.518,3,18.9,3.3,28.441a9.9,9.9,0,0,1-.381,3.807,3.807,3.807,0,0,1-2.614,2.538,4.785,4.785,0,0,1-3.884-1.409c-3.6-3.059-5.318-7.742-6.79-12.222q-2.957-9.011-5.394-18.174A50.385,50.385,0,0,1,86,100.412a10.661,10.661,0,0,1,1.51-5.66C91.28,89.168,99.187,95.12,101.446,99.27Z" transform="translate(-47.773 -53.175)" fill="#fcd4e0"/>
          <path id="Trazado_235159" data-name="Trazado 235159" d="M87.582,263.294a5.659,5.659,0,0,1,0,.926,3.516,3.516,0,0,1-1.472,2.6,3.325,3.325,0,0,1-2.386.394c-2.868-.508-4.937-3.16-6.016-5.686-1.269-3.033-1.383-6.79-3.4-9.455-.47-.622-1.053-1.142-1.485-1.8a5.851,5.851,0,0,1-.838-3.516,4.861,4.861,0,0,1,1.041-2.906c1.345-1.548,3.807-1.269,5.318-.241,1.168.787,3.033.673,3.807,1.9a12.348,12.348,0,0,1,1.269,3.046,82.493,82.493,0,0,1,3.807,12.59,12.475,12.475,0,0,1,.355,2.145Z" transform="translate(-51.55 -12.729)" fill="#3a4648"/>
          <path id="Trazado_235160" data-name="Trazado 235160" d="M74.713,244.43l-.787,11.232a1.015,1.015,0,0,1-1.269-.178l-.457-8.44Z" transform="translate(-51.486 -12.28)" fill="#3a4648"/>
          <path id="Trazado_235161" data-name="Trazado 235161" d="M82.87,250.985V240.68H85.7l-.723,10.394a1.472,1.472,0,0,1-2.107-.089Z" transform="translate(-48.615 -13.289)" fill="#283032"/>
          <path id="Trazado_235162" data-name="Trazado 235162" d="M101.692,250.329a74.282,74.282,0,0,1,4.417,6.27,2.678,2.678,0,0,1,.546,1.713,2.069,2.069,0,0,1-1.053,1.46,5.14,5.14,0,0,1-1.777.533,17.858,17.858,0,0,1-7.285-.406A7.615,7.615,0,0,1,93,258.084c-1.358-1.358-1.777-3.351-2.3-5.191s-1.269-3.807-3.021-4.7c-.47-.241-.99-.381-1.472-.6-3.515-1.624-4.226-6.346-2.272-9.366,1.066-1.675,2.538-1.561,4.15-.85,1.993.838,3.084,2.538,4.582,4l.673.6c1.586,1.269-.711-5.876.228-3.934a67.062,67.062,0,0,0,8.122,12.285Z" transform="translate(-48.615 -14.309)" fill="#283032"/>
          <path id="Trazado_235163" data-name="Trazado 235163" d="M97.327,190.09c.114,13.554-3.16,29.85-3.186,43.392,0,3.706.47,14.138,1.269,17.768.432,1.929-3.147,3.3-4.912,2.4-1.269-.622-3.642-2.145-3.807-3.5-.812-7.742-4.873-14.735-6.777-22.286A51.489,51.489,0,0,1,81.07,201.4c.546-1.536,1.371-3.211,2.944-3.642Z" transform="translate(-49.734 -26.905)" fill="#f3a984"/>
          <path id="Trazado_235164" data-name="Trazado 235164" d="M93.58,237.316a23.605,23.605,0,0,0,.774,3.807,17.234,17.234,0,0,0,.444,1.726,11.549,11.549,0,0,0,.876,1.777,34.977,34.977,0,0,0,1.98,3.059,21.106,21.106,0,0,1,2.081,2.8,2.856,2.856,0,0,1,.241,2.132c-.33.977-1.929.292-2.538,0a8.162,8.162,0,0,1-1.269-.774,50.564,50.564,0,0,1-4.125-4.277c-1.624-1.548-3.731-2.3-5.61-3.5A6.04,6.04,0,0,1,84.9,242.8a4.048,4.048,0,0,1-.723-2.83c.127-1.269.876-2.208.939-3.389a7.615,7.615,0,0,1,.635-3.49Z" transform="translate(-48.271 -15.332)" fill="#f3a984"/>
          <g id="Grupo_64622" data-name="Grupo 64622" transform="translate(6.837)">
            <g id="Grupo_64620" data-name="Grupo 64620" transform="translate(0 37.731)">
              <path id="Trazado_235165" data-name="Trazado 235165" d="M70.69,95.867a56.717,56.717,0,0,1,11.067-3.452l1.8-.393a22.235,22.235,0,0,1,13.453,1.091l.14.076v27.6H70.69Z" transform="translate(-58.729 -91.184)" fill="#f3a984"/>
              <path id="Trazado_235166" data-name="Trazado 235166" d="M61.3,107.942c.571-6.346,7.78-9.848,13.072-13.047.761,5.2,3.033,10,8.338,11.765a6.866,6.866,0,0,0,8.021-2.4c2.767-3.693,2.462-8.338,1.993-13.021a25.8,25.8,0,0,1,6.828,1.929,12.6,12.6,0,0,1,5.153,4.315c.939,1.269.825,3.579,1.269,5.153a38.074,38.074,0,0,0,1.891,5.863c.914,2.17,2.373,4.239,3.1,6.435a17.2,17.2,0,0,1,.8,7.475c-.482,3.884-2.437,7.4-3.617,11.13-1.929,6.155-1.65,12.691-.914,19.037.19,1.612.406,3.211.635,4.81.114.85.216,1.117-.406,1.6a15.941,15.941,0,0,1-4.556,1.751c-1.066.355-2.132.7-3.224.99a41.374,41.374,0,0,1-9.062,1.434c-5.863.241-11.955-.952-16.664-4.62-.558-.432-.863-.647-.977-1.269a11.2,11.2,0,0,1,0-1.6,48.521,48.521,0,0,1,.292-4.886,45.955,45.955,0,0,0-.368-10.229c-1.726-10.153-8.427-18.9-11.206-28.86A10.5,10.5,0,0,1,61.3,107.942Z" transform="translate(-61.266 -91.24)" fill="#f9aac2"/>
              <path id="Trazado_235167" data-name="Trazado 235167" d="M63.309,100.51c7.805,1.624,6.663,16.08,10.762,22.4,3.033,4.937,9.493,3.807,14.811,4.175-3.414,1.9-5.7,4.937-5.7,8.732a96.9,96.9,0,0,0,1.853,24.545,22.6,22.6,0,0,1-11.08-4.379c-.558-.432-.863-.647-.977-1.269a11.194,11.194,0,0,1,0-1.6,48.523,48.523,0,0,1,.292-4.886A45.955,45.955,0,0,0,72.9,138c-1.726-10.153-8.427-18.9-11.206-28.86a10.5,10.5,0,0,1-.381-3.719A9.633,9.633,0,0,1,63.309,100.51Z" transform="translate(-61.26 -88.745)" fill="#f57fa3"/>
              <path id="Trazado_235168" data-name="Trazado 235168" d="M82.21,106.142c.33,1.053,4.8,1.853,5.33,1.739s.85-.812,1.028-1.269a27.591,27.591,0,0,0,2.094-10.153,4.01,4.01,0,0,0-1.028-3.084,3.008,3.008,0,0,0-3.033-.317c-1.015.431-.635.508-.279,1.421C87.617,97.753,84.482,104.48,82.21,106.142Z" transform="translate(-55.629 -90.824)" fill="#fff"/>
              <path id="Trazado_235169" data-name="Trazado 235169" d="M70.37,146c-11.092,12.438-6.346,38.074-2.982,53.088a80.944,80.944,0,0,1,1.967,11.8q.495,6.46,1,12.92a12.387,12.387,0,0,0,.749,3.972c2.538,6.079,11.422.9,13.783-2.83,1.954-3.2,2.614-7.006,3.16-10.711,1.4-9.544,2.246-23.53,2.856-33.15.279-4.391,1.4-9.848.571-14.176a19.329,19.329,0,0,0-5.419-9.671,23.314,23.314,0,0,0-16.08-6.726l.279.495Z" transform="translate(-60.681 -76.502)" fill="#f8b495"/>
              <path id="Trazado_235170" data-name="Trazado 235170" d="M85.768,197.15c.1,13.554-3.16,29.85-3.186,43.4,0,3.693,1.13,18.91,1.954,22.527.444,1.929-4.658,2.31-6.434,1.409-1.269-.609-2.792-5.94-2.944-7.3-.812-7.742-4.873-14.735-6.777-22.286A51.438,51.438,0,0,1,69.5,208.382c.546-1.536,1.371-3.224,2.944-3.642Z" transform="translate(-59.681 -62.736)" fill="#f8b495"/>
              <path id="Trazado_235171" data-name="Trazado 235171" d="M107.525,144.712a56.464,56.464,0,0,1,2.843,10.686c2.145,18.669.292,33.378-4.95,51.413a18.4,18.4,0,0,1-1.7,4.379,5.343,5.343,0,0,1-3.477,2.538c-5.927,2.081-12.247,2.64-18.453,3.211a27.059,27.059,0,0,1-6.485.089,9.112,9.112,0,0,1-5.66-2.868A13.567,13.567,0,0,1,67.2,207.75l-1.6-8.884c-.47-2.6-.584-5.2-1.091-7.754a88.319,88.319,0,0,1-1.9-17.984,50.486,50.486,0,0,1,5.178-22.6,36.45,36.45,0,0,1,2.538-4.328l2.284-3.287a4.3,4.3,0,0,0,1.015,1.828,22.108,22.108,0,0,0,8.287,3.807,36.3,36.3,0,0,0,18.161-.965C102.22,146.933,107.525,144.712,107.525,144.712Z" transform="translate(-60.904 -77.334)" fill="#3a4648"/>
              <path id="Trazado_235172" data-name="Trazado 235172" d="M80.632,148.493a37.769,37.769,0,0,0,16.181-1.345c2.094-.6,7.361-2.817,7.361-2.817a56.463,56.463,0,0,1,2.843,10.686c2.145,18.669.292,33.378-4.95,51.413a18.4,18.4,0,0,1-1.663,4.379,5.343,5.343,0,0,1-3.477,2.538,70.727,70.727,0,0,1-17.07,3.084C74.654,194.27,71.71,169.7,80.632,148.493Z" transform="translate(-57.592 -76.952)" fill="#3a4648"/>
              <path id="Trazado_235173" data-name="Trazado 235173" d="M67.788,150.455a36.451,36.451,0,0,1,2.538-4.328l2.284-3.287a4.3,4.3,0,0,0,1.015,1.828,22.108,22.108,0,0,0,8.287,3.807c.66.152,1.269.267,1.98.381-8.884,21.207-5.978,45.778-.838,67.975l-1.383.127a26.957,26.957,0,0,1-6.473.089,9.112,9.112,0,0,1-5.673-2.868,13.567,13.567,0,0,1-2.323-6.409l-1.6-8.884c-.47-2.6-.584-5.2-1.091-7.754a88.319,88.319,0,0,1-1.9-17.984,50.486,50.486,0,0,1,5.178-22.692Z" transform="translate(-60.904 -77.353)" fill="#242a2b"/>
            </g>
            <path id="Trazado_235174" data-name="Trazado 235174" d="M84.271,71.587a10.064,10.064,0,0,1-19.253,4.087,9.658,9.658,0,0,1-.888-4.087A10.153,10.153,0,0,1,74.207,61.51a9.443,9.443,0,0,1,2.411.3A10.064,10.064,0,0,1,84.271,71.587Z" transform="translate(-60.495 -61.51)" fill="#bb9d60"/>
            <g id="Grupo_64621" data-name="Grupo 64621" transform="translate(9.696 2.592)">
              <path id="Trazado_235175" data-name="Trazado 235175" d="M72.691,98.556c-.292,9.76,16.74,9.925,16.5.749-.343-12.793-1.066-14.265-6.676-16.245a15.027,15.027,0,0,0-4.759-.99c-5.94-.089-3.63,3.109-3.4,5.368C75.013,94.114,72.792,95.041,72.691,98.556Z" transform="translate(-67.888 -58.569)" fill="#f3a984"/>
              <path id="Trazado_235176" data-name="Trazado 235176" d="M72.691,98.557c.1-3.515,2.323-4.442,1.663-11.118-.228-2.259-2.538-5.483,3.4-5.368a15.027,15.027,0,0,1,4.759.99c5.533,1.954,6.346,3.414,6.663,15.725-4.721-.495-8.884-6.079-13.681-2.767a9.392,9.392,0,0,0-2.729,3.807A7.248,7.248,0,0,1,72.691,98.557Z" transform="translate(-67.888 -58.569)" fill="#ee9c76"/>
              <path id="Trazado_235177" data-name="Trazado 235177" d="M80.13,96.5c-.495-.419-.977-.838-1.447-1.269a25.154,25.154,0,0,1-4.594-5.191c-3.63-6.155-3.807-14.4,1.358-19.773a15,15,0,0,1,14.57-3.922,20.674,20.674,0,0,1,3.96,1.637,10.534,10.534,0,0,1,3.033,2.094A10.407,10.407,0,0,1,98.367,72.1a11.422,11.422,0,0,1,1.053,2.538c.99,3.985-1.663,8.059-.152,11.993.33.863.838,1.65,1.13,2.538a3.122,3.122,0,0,1-.089,2.652c-.444.736-1.041,1.1-1.269,1.929-.355,1.1-.609,2.284-.914,3.414a17.019,17.019,0,0,1-1.269,3.6c-1.523,2.729-3.731,2.894-6.46,1.828A37.1,37.1,0,0,1,80.13,96.5Z" transform="translate(-68.22 -62.939)" fill="#ffbfa2"/>
              <path id="Trazado_235178" data-name="Trazado 235178" d="M89.708,89.422c-1.269-4.873-6.9-6.5-9.341-10.559A30.827,30.827,0,0,1,76.23,68.571a15.027,15.027,0,0,1,12.5-2.17,20.675,20.675,0,0,1,3.96,1.637,10.534,10.534,0,0,1,3.033,2.094,10.407,10.407,0,0,1,1.358,2.018,11.422,11.422,0,0,1,1.053,2.538c.99,3.985-1.663,8.059-.152,11.993.33.863.838,1.65,1.13,2.538a3.122,3.122,0,0,1-.089,2.652c-.444.736-1.041,1.1-1.269,1.929-.355,1.1-.609,2.284-.914,3.414a17.273,17.273,0,0,1-1.269,3.6,4.087,4.087,0,0,1-4.226,2.411C88.16,99.436,90.825,93.953,89.708,89.422Z" transform="translate(-66.934 -62.925)" fill="#ffbfa2"/>
              <path id="Trazado_235179" data-name="Trazado 235179" d="M75.446,69.7A15.1,15.1,0,0,1,77.515,68a30.827,30.827,0,0,0,4.137,10.343c2.437,4.061,8.122,5.686,9.341,10.559,1.117,4.493-1.548,10.013,1.536,13.719a8.96,8.96,0,0,1-2.234-.584A37.1,37.1,0,0,1,80.142,96c-.495-.419-.977-.838-1.447-1.269A25.154,25.154,0,0,1,74.1,89.537C70.458,83.318,70.281,75.069,75.446,69.7Z" transform="translate(-68.219 -62.355)" fill="#f8b495"/>
              <path id="Trazado_235180" data-name="Trazado 235180" d="M68.924,78.462c.267-7.754,2.741-8.884,5.5-11.536s6.714-3.477,10.42-3.363a21.575,21.575,0,0,1,10.7,3.414l.393.241c2.284,1.485,4.15,3.147,4.531,5.99.1.8.457,2.538-.178,3.122s-3.211.292-3.807.3c-1.65,0-3.084-1.18-4.81-.914a3.376,3.376,0,0,0-2.627,2.361,10.052,10.052,0,0,1-.622,2.856c-.571.9-1.739,1.269-2.538,1.942-1.586,1.447-1.447,4.366-3.363,5.33a5.864,5.864,0,0,1-3.807-.114c-1.269-.267-2.856-.241-3.541.863-.241.381.1.774.076,1.269s.165,3,.165,3a3,3,0,0,1-.812-.19,7.932,7.932,0,0,1-2.221-2.538A19.76,19.76,0,0,1,68.924,78.462Z" transform="translate(-68.906 -63.552)" fill="#d0af6c"/>
              <path id="Trazado_235181" data-name="Trazado 235181" d="M74.994,80.851c-2.64-.178-3.312,3.109-1.5,5.648a13.325,13.325,0,0,0,2.183,1.98c4.747,4.036,5.94-.33,4.429-1.7C76.593,83.58,78.332,81.042,74.994,80.851Z" transform="translate(-67.945 -58.898)" fill="#f8b495"/>
              <path id="Trazado_235182" data-name="Trazado 235182" d="M76.22,86.3c-.3-.279-3.325-2.056-1.269-3.274a.914.914,0,0,1,1.269.774v.939a1.535,1.535,0,0,0,.2.52c.267.432,1.18.85,1,1.485S76.4,86.465,76.22,86.3Z" transform="translate(-67.47 -58.331)" fill="#f3a984"/>
            </g>
            <path id="Trazado_235183" data-name="Trazado 235183" d="M85.467,105.972a23.454,23.454,0,0,1-4.721,4.163c-.558.33-1.041.774-1.637.444-2.919-1.624-8.376-8.44-8.973-12.184a5,5,0,0,1,1.358-4c.165-.152,1.993-.876,2.208-.977A22.185,22.185,0,0,0,74.743,98.1C76.52,102.329,81.127,104.474,85.467,105.972Z" transform="translate(-58.886 -52.922)" fill="#fff"/>
          </g>
          <path id="Trazado_235184" data-name="Trazado 235184" d="M80.513,245.125c.279.9,1.561.977,1.7,1.9s.673,3.693.965,4.708a13.96,13.96,0,0,1,.647,4.214,2.653,2.653,0,0,1-1.5,2.449,2.538,2.538,0,0,1-3.236-.444,14.418,14.418,0,0,1-2.538-3.376,18.555,18.555,0,0,1-1.637-3.439,26.474,26.474,0,0,1-1.536-7.412,17.312,17.312,0,0,1,.571-3.439,10.891,10.891,0,0,1,1.269.876l4.912,3.592C80.766,245.163,80.271,244.339,80.513,245.125Z" transform="translate(-51.169 -13.394)" fill="#f8b495"/>
          <g id="Grupo_64626" data-name="Grupo 64626" transform="translate(27.237 61.312)">
            <g id="Grupo_64623" data-name="Grupo 64623" transform="translate(1.574)">
              <path id="Trazado_235185" data-name="Trazado 235185" d="M81.96,120.1l1.561,1.269h.013l2.31-1.015,20.649-8.554.711-.406,1.041-.838-.114-.063-.825-.673-23.149,9.3Z" transform="translate(-77.67 -109.82)" fill="#293233"/>
              <path id="Trazado_235186" data-name="Trazado 235186" d="M78.58,155.493l22.844-13.224,7.2-30.078.533-1.777-.114-.063-24.6,10.876h-.013Z" transform="translate(-78.58 -109.677)" fill="#171c1d"/>
            </g>
            <g id="Grupo_64624" data-name="Grupo 64624" transform="translate(2.272 1.269)">
              <path id="Trazado_235187" data-name="Trazado 235187" d="M86.25,120.368l-1.51-1.218-5.61,33,1.5,1.218Z" transform="translate(-79.13 -108.578)" fill="#ebe7e6"/>
              <path id="Trazado_235188" data-name="Trazado 235188" d="M108.717,111.543l-.952-.723L83.55,121.392l1.51,1.218Z" transform="translate(-77.94 -110.82)" fill="#fcd4e0"/>
              <path id="Trazado_235189" data-name="Trazado 235189" d="M85.932,122.457l-5.622,33,21.8-12.539,7.475-31.525Z" transform="translate(-78.812 -110.667)" fill="#ebe7e6"/>
            </g>
            <g id="Grupo_64625" data-name="Grupo 64625" transform="translate(0 1.447)">
              <path id="Trazado_235190" data-name="Trazado 235190" d="M84.51,122.408l1.574,1.282,23.974-12.184-.736-.546Z" transform="translate(-75.41 -110.96)" fill="#293233"/>
              <path id="Trazado_235191" data-name="Trazado 235191" d="M86.991,123.574,81.14,157.84l22.844-13.224,6.993-33.226Z" transform="translate(-76.317 -110.844)" fill="#171c1d"/>
              <path id="Trazado_235192" data-name="Trazado 235192" d="M88.013,121.816l-4.823-3.9L77.34,152.174l4.823,3.909Z" transform="translate(-77.34 -109.087)" fill="#202728"/>
            </g>
            <path id="Trazado_235193" data-name="Trazado 235193" d="M81.96,118.127l1.561,1.269h.013l3.249,2.627,2.158-1.409-3.1-2.234-1.688-1.231Z" transform="translate(-76.097 -107.847)" fill="#293233"/>
          </g>
          <g id="Grupo_64630" data-name="Grupo 64630" transform="translate(32.999 63.825)">
            <g id="Grupo_64627" data-name="Grupo 64627" transform="translate(1.574)">
              <path id="Trazado_235194" data-name="Trazado 235194" d="M86.5,123.438l1.561,1.282h.013l2.158-1.142,18.935-9.912.723-.406,1.028-.838-.1-.063-.952-.558L88.594,122.4Z" transform="translate(-82.21 -111.8)" fill="#47477e"/>
              <path id="Trazado_235195" data-name="Trazado 235195" d="M83.12,158.868l22.844-13.224,5.343-31.563.52-1.777-.1-.063L88.983,124.6h-.013Z" transform="translate(-83.12 -111.682)" fill="#393966"/>
            </g>
            <g id="Grupo_64628" data-name="Grupo 64628" transform="translate(2.259 1.155)">
              <path id="Trazado_235196" data-name="Trazado 235196" d="M90.793,123.418l-1.51-1.218L83.66,155.21l1.51,1.218Z" transform="translate(-83.66 -110.156)" fill="#ebe7e6"/>
              <path id="Trazado_235197" data-name="Trazado 235197" d="M111.391,113.433l-.952-.723L88.09,124.754l1.51,1.218Z" transform="translate(-82.468 -112.71)" fill="#fcd4e0"/>
              <path id="Trazado_235198" data-name="Trazado 235198" d="M90.472,125.819l-5.622,33.01,21.8-12.552,5.61-33Z" transform="translate(-83.34 -112.557)" fill="#ebe7e6"/>
            </g>
            <g id="Grupo_64629" data-name="Grupo 64629" transform="translate(0 1.218)">
              <path id="Trazado_235199" data-name="Trazado 235199" d="M89.05,125.807l1.574,1.282,21.829-13.834-.876-.495-1.954,1.13Z" transform="translate(-79.95 -112.76)" fill="#47477e"/>
              <path id="Trazado_235200" data-name="Trazado 235200" d="M91.531,126.984,85.68,161.237l22.832-13.212,4.861-34.876Z" transform="translate(-80.857 -112.655)" fill="#393966"/>
              <path id="Trazado_235201" data-name="Trazado 235201" d="M92.553,124.879l-4.81-3.909L81.88,155.237l4.823,3.9Z" transform="translate(-81.88 -110.55)" fill="#242448"/>
            </g>
            <path id="Trazado_235202" data-name="Trazado 235202" d="M86.5,121.191l1.561,1.282h.013l3.249,2.627,2.158-1.409-3.249-2.361-1.637-1.18Z" transform="translate(-80.637 -109.553)" fill="#47477e"/>
          </g>
          <g id="Grupo_64631" data-name="Grupo 64631" transform="translate(0 48.578)">
            <path id="Trazado_235203" data-name="Trazado 235203" d="M87.263,135.8a20.129,20.129,0,0,1,4.1.076c.825.165-1.485,1.269-.99,1.891.761,1.053,2.221,1.764,2.056,3.033a12.235,12.235,0,0,1-.66,3.021,4.734,4.734,0,0,1-1.916,2.4,2.424,2.424,0,0,1-1.142.33,3.529,3.529,0,0,1-.8-.14l-4.442-1.168a4.848,4.848,0,0,1-.939-.33,2.932,2.932,0,0,1-1-.888,5.406,5.406,0,0,1-.787-4.505,5.077,5.077,0,0,1,1.015-2.221c.457-.47,1.269-.495,1.891-.66a32.233,32.233,0,0,1,3.617-.838Z" transform="translate(-49.238 -90.112)" fill="#ffbfa2"/>
            <path id="Trazado_235204" data-name="Trazado 235204" d="M83.368,137.161c1.345-1,2.691-2.005,4.049-3a6.446,6.446,0,0,1,1.65-1,11.654,11.654,0,0,1,1.46-.355c.444-.114.876-.279,1.269-.355a7.3,7.3,0,0,1,3.985.926,4.772,4.772,0,0,1,1.434.888.8.8,0,0,1,.228.965.914.914,0,0,1-.431.279,3.122,3.122,0,0,1-1.421.368,11.937,11.937,0,0,1-1.726-.457,3.021,3.021,0,0,0-2.64,1.269c-.635.8-1.028,1.777-1.586,2.64a3.719,3.719,0,0,1-2.386,1.815,4.505,4.505,0,0,1-1.091,0,5.99,5.99,0,0,1-2.386-.761,3.084,3.084,0,0,1-1.345-1.65C82.226,137.986,82.784,137.592,83.368,137.161Z" transform="translate(-48.745 -90.998)" fill="#ffbfa2"/>
            <path id="Trazado_235205" data-name="Trazado 235205" d="M90.121,146.077c-1.637,1.4-4.175,1.206-6.181.939-6.028-.825-30.675-2.792-27.033-13.212.558-1.586,2.4-3.807,4.175-4.061,2.208-.343,20.306,4.442,28,8.351a5.61,5.61,0,0,1,2.538,2.119C92.532,141.8,91.39,145,90.121,146.077Z" transform="translate(-55.701 -91.729)" fill="#fcd4e0"/>
            <path id="Trazado_235206" data-name="Trazado 235206" d="M88.716,141.191c-.888-.533-.241-3.262.114-3.706.876-1.079.711.66,3.807.622a7.843,7.843,0,0,0,2.716-.355c.622-.241,1.345-.635,1.9-.267a1.1,1.1,0,0,1,.317,1.371c.85-.406,1,1.18.381,1.942-1.269,1.447.939,1.675-1.586,3.617l.47.3c-.267,2.741-6.968,1.878-9.683,1.383C82.4,145.214,86.546,141.508,88.716,141.191Z" transform="translate(-48.052 -89.736)" fill="#ffbfa2"/>
            <path id="Trazado_235207" data-name="Trazado 235207" d="M55.906,139.883c-.165-6.346.47-14.316.952-24.393a26.246,26.246,0,0,1,1.637-8.008,15.56,15.56,0,0,1,4.785-6.27,4.4,4.4,0,0,1,3.439-1.421,4.112,4.112,0,0,1,2.538,2.2c3.566,5.889,3.807,13.427,2.538,19.989-1.168,6.1-1.168,10.7-2.373,16.816a40.269,40.269,0,0,1-1.193,5.178c-2.221,5.242-6.98,7.107-9.9,4.087C56.959,146.571,56.033,143.322,55.906,139.883Z" transform="translate(-55.879 -99.787)" fill="#fcd4e0"/>
          </g>
          <g id="Grupo_64632" data-name="Grupo 64632" transform="translate(58.426 87.573)">
            <path id="Trazado_235208" data-name="Trazado 235208" d="M104.422,139.642a1.4,1.4,0,0,0,1.409-2.335c-.888-.508-3.63-.178-3.9,1.383C101.731,139.972,103.19,139.363,104.422,139.642Z" transform="translate(-101.915 -128.743)" fill="#ffbfa2"/>
            <path id="Trazado_235209" data-name="Trazado 235209" d="M106.764,130.814c1.269.482.888,2.614.343,2.767a2.285,2.285,0,0,1-1-.127,3.807,3.807,0,0,0-2.208.292,4.366,4.366,0,0,1-.9.343.8.8,0,0,1-.825-.343c-.787-1.206,1.117-2.437,1.688-2.741a2.906,2.906,0,0,1,2.906-.19Z" transform="translate(-101.897 -130.513)" fill="#ffbfa2"/>
            <path id="Trazado_235210" data-name="Trazado 235210" d="M107.312,135.452c-.635,1-1.269-.419-3.49.482a3.959,3.959,0,0,1-.888.33.812.812,0,0,1-.825-.368c-.774-1.269,1.142-2.411,1.713-2.7C106.525,131.809,108.492,133.65,107.312,135.452Z" transform="translate(-101.912 -129.922)" fill="#ffbfa2"/>
            <path id="Trazado_235211" data-name="Trazado 235211" d="M106.809,137.35c-.838.609-1.079.178-2.906.393-2.8.343-2.386-2.373.99-2.64a12.138,12.138,0,0,1,1.4-.063,1.269,1.269,0,0,1,.52,2.31Z" transform="translate(-101.879 -129.294)" fill="#ffbfa2"/>
          </g>
        </g>
      </g>
      <g id="bailiff" transform="translate(162.853 66.554)">
        <path id="Trazado_235212" data-name="Trazado 235212" d="M221.8,240.444c14.43,8.326,14.43,21.829,0,30.155s-37.807,8.326-52.225,0-14.43-21.829,0-30.155S207.382,232.119,221.8,240.444Z" transform="translate(-134.787 -19.534)" fill="#bbc0c9"/>
        <g id="Grupo_64659" data-name="Grupo 64659">
          <path id="Trazado_235213" data-name="Trazado 235213" d="M156.2,105.351a10.154,10.154,0,0,0,.66-2.729,21.755,21.755,0,0,0,.3-4.962,5.8,5.8,0,0,0-.533-2.069,3.1,3.1,0,0,0-1.485-1.536,4.378,4.378,0,0,0-2.221-.2,17.768,17.768,0,0,0-4.061.977,9.036,9.036,0,0,0-3.579,1.9,5.812,5.812,0,0,0-1.574,3.071,3.046,3.046,0,0,0,.393,2.208c.558.85,1.079,1.713,1.7,2.538s1.51,1.751,2.284,2.627a4.581,4.581,0,0,0,2.462,1.764,3.363,3.363,0,0,0,1.739-.33A6.942,6.942,0,0,0,156.2,105.351Z" transform="translate(-138.852 -57.322)" fill="#f8b495"/>
          <path id="Trazado_235214" data-name="Trazado 235214" d="M163.968,119.6c-.508,1.4-1,2.792-1.472,4.188-1.269,3.807-2.982,7.615-3.211,11.816-.076,1.472-2.031,4.226-.685,5.216a6.219,6.219,0,0,0,6.473.635c9.468-5.6,16.689-16.765,22.844-25.878,2.678-3.96,5.267-8.579,4.353-13.275a9.887,9.887,0,0,0-4.823-6.625c-9.595-5.33-17.019,9.15-20.192,15.9C166.037,114.166,164.958,116.882,163.968,119.6Z" transform="translate(-134.956 -57.126)" fill="#1b2224"/>
          <path id="Trazado_235215" data-name="Trazado 235215" d="M161.62,138.525c4.429,2.119,9.214-3.021,8.656-8.973-.317-3.338-2.17-6.346-3.719-9.29-1.739-3.249-3.617-6.409-5.483-9.569-4.315-7.285-3.96-7.615-6.739-7.209s-5.571,1.015-6.917,3.5C146.2,109.246,158.257,136.9,161.62,138.525Z" transform="translate(-137.862 -54.744)" fill="#1b2224"/>
          <path id="Trazado_235216" data-name="Trazado 235216" d="M187.574,264.824a5.66,5.66,0,0,0,0,.926,3.6,3.6,0,0,0,1.472,2.6,3.325,3.325,0,0,0,2.386.393c2.868-.508,4.937-3.16,6.016-5.686,1.269-3.033,1.383-6.79,3.4-9.455.47-.622,1.066-1.142,1.485-1.8a5.851,5.851,0,0,0,.838-3.516,4.861,4.861,0,0,0-1.041-2.906c-1.345-1.548-3.807-1.269-5.318-.241-1.155.787-3.033.673-3.807,1.9a12.348,12.348,0,0,0-1.269,3.046,82.491,82.491,0,0,0-3.871,12.59A12.477,12.477,0,0,0,187.574,264.824Z" transform="translate(-127.036 -16.817)" fill="#3a4648"/>
          <path id="Trazado_235217" data-name="Trazado 235217" d="M197.66,246l.8,11.232a1,1,0,0,0,1.269-.178l.457-8.44Z" transform="translate(-124.317 -16.358)" fill="#3a4648"/>
          <path id="Trazado_235218" data-name="Trazado 235218" d="M189.6,252.515V242.21h-2.83l.723,10.394a1.472,1.472,0,0,0,2.107-.089Z" transform="translate(-127.248 -17.378)" fill="#283032"/>
          <path id="Trazado_235219" data-name="Trazado 235219" d="M175.193,251.855a74.293,74.293,0,0,0-4.417,6.27,2.678,2.678,0,0,0-.546,1.713A2.056,2.056,0,0,0,171.3,261.3a5,5,0,0,0,1.764.533,17.856,17.856,0,0,0,7.285-.406,7.615,7.615,0,0,0,3.541-1.815,11.219,11.219,0,0,0,2.3-5.216c.52-1.84,1.269-3.807,3.021-4.7.47-.241.99-.381,1.472-.6,3.516-1.624,4.226-6.346,2.272-9.366-1.066-1.675-2.475-1.561-4.137-.85-2.005.838-3.1,2.538-4.594,4-.216.2-.431.406-.673.6-1.586,1.269.711-5.876-.228-3.934a67.063,67.063,0,0,1-8.123,12.311Z" transform="translate(-131.699 -18.405)" fill="#283032"/>
          <path id="Trazado_235220" data-name="Trazado 235220" d="M178.46,191.62c-.1,13.554,3.16,29.85,3.186,43.4,0,3.693-.457,14.125-1.269,17.768-.444,1.929,3.135,3.3,4.9,2.4,1.269-.622,3.655-2.145,3.807-3.5.812-7.742,4.873-14.735,6.79-22.286a51.628,51.628,0,0,0-1.13-26.512c-.533-1.536-1.371-3.211-2.944-3.642Z" transform="translate(-129.485 -30.994)" fill="#f3a984"/>
          <path id="Trazado_235221" data-name="Trazado 235221" d="M181.639,238.9a22.336,22.336,0,0,1-.774,3.807c-.165.571-.216,1.155-.431,1.726a12.9,12.9,0,0,1-.888,1.777,34.978,34.978,0,0,1-1.98,3.059,21.1,21.1,0,0,0-2.081,2.8,2.856,2.856,0,0,0-.241,2.132c.33.977,1.929.292,2.538,0a7.615,7.615,0,0,0,1.269-.774,50.571,50.571,0,0,0,4.125-4.277c1.624-1.548,3.731-2.3,5.61-3.5a6.042,6.042,0,0,0,1.536-1.269,4.049,4.049,0,0,0,.723-2.83c-.114-1.269-.876-2.208-.939-3.389a7.463,7.463,0,0,0-.635-3.49Z" transform="translate(-130.378 -19.407)" fill="#f3a984"/>
          <path id="Trazado_235222" data-name="Trazado 235222" d="M207.477,147.54c11.1,12.438,6.346,38.074,2.982,53.088a80.938,80.938,0,0,0-1.967,11.8c-.33,4.3-.66,8.617-1,12.92a12.387,12.387,0,0,1-.749,3.972c-2.538,6.079-11.422.9-13.783-2.83-1.954-3.2-2.614-7.006-3.16-10.711-1.4-9.544-2.234-23.53-2.856-33.15-.267-4.391-1.383-9.848-.571-14.176a19.329,19.329,0,0,1,5.419-9.671,23.314,23.314,0,0,1,16.08-6.726l-.279.495Z" transform="translate(-127.433 -42.857)" fill="#f8b495"/>
          <path id="Trazado_235223" data-name="Trazado 235223" d="M190,198.68c-.1,13.554,3.173,29.85,3.2,43.4,0,3.693-1.142,18.91-1.967,22.527-.444,1.929,4.658,2.31,6.435,1.409,1.269-.609,2.792-5.94,2.944-7.3.812-7.742,4.873-14.735,6.777-22.286a51.438,51.438,0,0,0-1.117-26.5c-.546-1.536-1.371-3.224-2.944-3.642Z" transform="translate(-126.379 -29.093)" fill="#f8b495"/>
          <path id="Trazado_235224" data-name="Trazado 235224" d="M193.543,246.672c-.267.914-1.561.977-1.7,1.9s-.66,3.706-.965,4.708a13.96,13.96,0,0,0-.647,4.214,2.653,2.653,0,0,0,1.5,2.449,3.3,3.3,0,0,0,3.287-.114c2.652-1.789,3.68-5.9,4.074-7.171a26.475,26.475,0,0,0,1.586-7.462,17.31,17.31,0,0,0-.571-3.439,10.885,10.885,0,0,0-1.269.876l-4.912,3.592C193.289,246.71,193.746,245.872,193.543,246.672Z" transform="translate(-126.317 -17.499)" fill="#f8b495"/>
          <path id="Trazado_235225" data-name="Trazado 235225" d="M201.769,71.25a16.055,16.055,0,0,1,3.807,3.63,35.026,35.026,0,0,1,2.779,4.683c.673,1.383.876,2.894,1.459,4.328a30.269,30.269,0,0,1,1.891,11.041,56.489,56.489,0,0,1-1.18,12.234c-.33,1.561-.723,3.122-.952,4.7-.533,3.693-.165,7.45-.292,11.168a1.27,1.27,0,0,1-.127.66c-1.269,2.246-4.518.457-6.1-.267a17.273,17.273,0,0,1-5.077-3.059c-1.269-1.193-2.538-3.2-2.081-5a45.986,45.986,0,0,0,.888-5.6c.647-5.077,1.815-10.064,1.663-15.153s-1.891-10.432-5.914-13.529Z" transform="translate(-125.697 -63.389)" fill="#451a01"/>
          <g id="Grupo_64634" data-name="Grupo 64634" transform="translate(38.74 35.135)">
            <path id="Trazado_235226" data-name="Trazado 235226" d="M206.441,97.367a57.467,57.467,0,0,0-11.054-3.452l-1.8-.393a22.185,22.185,0,0,0-13.466,1.1h-.14v27.616h26.461Z" transform="translate(-167.815 -92.684)" fill="#f3a984"/>
            <path id="Trazado_235227" data-name="Trazado 235227" d="M220.951,109.454c-.571-6.346-7.78-9.861-13.059-13.059-.761,5.216-3.046,10.013-8.351,11.778a6.828,6.828,0,0,1-8.008-2.411c-2.779-3.693-2.462-8.338-1.993-13.021a26.043,26.043,0,0,0-6.841,1.942,12.691,12.691,0,0,0-5.191,4.3c-.939,1.269-.838,3.579-1.206,5.165A37.9,37.9,0,0,1,174.412,110c-.914,2.17-2.373,4.252-3.1,6.447a17.172,17.172,0,0,0-.812,7.475c.495,3.807,2.449,7.386,3.617,11.118,1.942,6.168,1.663,12.691.926,19.037-.19,1.6-.419,3.211-.635,4.81-.114.838-.228,1.117.406,1.586a16.359,16.359,0,0,0,4.493,1.675c1.066.343,2.132.7,3.211.977a41.488,41.488,0,0,0,9.074,1.434c5.863.241,11.955-.952,16.664-4.62.558-.432.863-.647.977-1.269a13.44,13.44,0,0,0,0-1.6,45.107,45.107,0,0,0-.292-4.9,45.843,45.843,0,0,1,.381-10.153c1.713-10.217,8.414-18.9,11.194-28.873A10.153,10.153,0,0,0,220.951,109.454Z" transform="translate(-170.394 -92.74)" fill="#ebe7e6"/>
            <path id="Trazado_235228" data-name="Trazado 235228" d="M191.1,107.666c-.33,1.053-4.8,1.84-5.318,1.739s-.85-.825-1.041-1.269a27.528,27.528,0,0,1-2.081-10.153,3.96,3.96,0,0,1,1.028-3.084,2.982,2.982,0,0,1,3.021-.419c1.015.444.647.508.292,1.434C185.71,99.277,188.845,105.978,191.1,107.666Z" transform="translate(-167.098 -92.335)" fill="#fff"/>
            <path id="Trazado_235229" data-name="Trazado 235229" d="M174.336,146.231a57.112,57.112,0,0,0-2.83,10.7c-2.145,18.656-.292,33.378,4.95,51.413a18,18,0,0,0,1.726,4.366,5.318,5.318,0,0,0,3.477,2.538c5.914,2.094,12.247,2.652,18.453,3.224a27.617,27.617,0,0,0,6.473.076,8.986,8.986,0,0,0,5.66-2.868,13.415,13.415,0,0,0,2.386-6.511l1.6-8.884c.457-2.538.571-5.191,1.079-7.754a88.318,88.318,0,0,0,1.9-17.984,50.474,50.474,0,0,0-5.165-22.6,35.3,35.3,0,0,0-2.538-4.315l-2.284-3.287a4.366,4.366,0,0,1-1.028,1.815,21.741,21.741,0,0,1-8.287,3.807,36.4,36.4,0,0,1-18.149-.952C179.615,148.452,174.336,146.231,174.336,146.231Z" transform="translate(-170.331 -78.853)" fill="#3a4648"/>
            <path id="Trazado_235230" data-name="Trazado 235230" d="M195.1,150.3a39.762,39.762,0,0,1-13.389-1.637c-2.094-.609-7.374-2.83-7.374-2.83a57.113,57.113,0,0,0-2.83,10.7c-2.145,18.656-.292,33.378,4.95,51.413a18,18,0,0,0,1.726,4.366,5.318,5.318,0,0,0,3.477,2.538,63.9,63.9,0,0,0,15,2.894c1.4-9.48,3.021-18.618,3.934-28C201.787,175.985,199.02,163.141,195.1,150.3Z" transform="translate(-170.331 -78.452)" fill="#3a4648"/>
            <path id="Trazado_235231" data-name="Trazado 235231" d="M208.847,151.952a35.3,35.3,0,0,0-2.538-4.315l-2.284-3.287A4.366,4.366,0,0,1,203,146.165a21.74,21.74,0,0,1-8.287,3.807,28.682,28.682,0,0,1-4.759.685c3.807,12.844,6.688,25.687,5.5,39.483-.914,9.379-2.538,18.517-3.934,28l3.452.33a27.615,27.615,0,0,0,6.473.076,8.985,8.985,0,0,0,5.66-2.868,13.415,13.415,0,0,0,2.386-6.511l1.6-8.884c.457-2.538.571-5.191,1.079-7.754a88.318,88.318,0,0,0,1.9-17.984A50.473,50.473,0,0,0,208.847,151.952Z" transform="translate(-165.131 -78.85)" fill="#242a2b"/>
          </g>
          <path id="Trazado_235232" data-name="Trazado 235232" d="M188.969,147.445a68.14,68.14,0,0,1-5.077-27.667,120.3,120.3,0,0,1,1.65-16.664c.457-2.868.863-5.825,1.548-8.655.114-.495.444-.914,0-1.18s-1.612.152-2.018.228a13.617,13.617,0,0,0-3.807,1.371,8.338,8.338,0,0,0-2.678,2.158,10.724,10.724,0,0,0-1.447,2.779c-1.371,3.617-2.119,7.475-3.807,10.965-.647,1.269-1.421,2.538-1.993,3.934a19.456,19.456,0,0,0-1.142,10.153c.419,2.97,1.9,5.724,2.716,8.6a52.035,52.035,0,0,1,1.18,22.921c-.457,2.538-1.155,4.873.241,7.082,1.091,1.739,3.147,2.538,5.077,3.325a21.117,21.117,0,0,0,4.759,1.409c1.269.165,3.287.2,4.34-.66s.546-2.64.546-3.719V152.078C189.045,150.694,189.5,147.521,188.969,147.445Z" transform="translate(-131.769 -57.484)" fill="#283032"/>
          <path id="Trazado_235233" data-name="Trazado 235233" d="M204.89,96c-6.828,16.385-15.166,33.53-19.837,50.676a124.819,124.819,0,0,0-.47,15.56,11.993,11.993,0,0,0,1.586,4.632,5.14,5.14,0,0,0,3.465,1.866,19.037,19.037,0,0,0,10.318-.266,10.572,10.572,0,0,0,6.955-7.2c.419-1.789-.6-4.125-.812-5.965-2.741-23.238,8.338-29.609,10.9-42.427C218.127,107.041,219.206,102.079,204.89,96Z" transform="translate(-127.853 -56.728)" fill="#2e383a"/>
          <path id="Trazado_235234" data-name="Trazado 235234" d="M204.037,96.324c-3.693-3.528-.863,1.269-2.361,1.358-.9.076-2.031,7.424-3.68,11.511-1.764,4.4-3.5,8.884-5.077,13.275-2.868,7.742-6.346,16.359-7.919,24.482,3.947-2.614,15.395-22.73,15.395-22.73s-.673-5.825-.749-5.762a37.213,37.213,0,0,0,5.914-4.429C207.717,111.554,209.114,101.2,204.037,96.324Z" transform="translate(-127.724 -56.989)" fill="#283032"/>
          <path id="Trazado_235235" data-name="Trazado 235235" d="M181.246,94.062c4.226-2.449,4.505-.127,4.277,2.145-.495,4.734-3.2,21.436-2.462,28.314,1.447,13.567,2.056,17.032,4.188,22.971-7.742-5.838-10.42-32.1-10.42-32.1l2.056-1.7C173.555,103.72,177.794,96.054,181.246,94.062Z" transform="translate(-130.049 -57.531)" fill="#2e383a"/>
          <g id="Grupo_64635" data-name="Grupo 64635" transform="translate(47.204)">
            <path id="Trazado_235236" data-name="Trazado 235236" d="M202.329,100.057c.292,9.76-16.727,9.925-16.5.749.343-12.793,1.066-14.252,6.663-16.245a15.839,15.839,0,0,1,4.772-.99c5.914-.114,3.617,3.109,3.4,5.368C200.007,95.627,202.228,96.541,202.329,100.057Z" transform="translate(-174.705 -60.074)" fill="#f3a984"/>
            <path id="Trazado_235237" data-name="Trazado 235237" d="M202.323,100.057c-.1-3.515-2.31-4.429-1.65-11.118.216-2.259,2.538-5.483-3.4-5.368a15.839,15.839,0,0,0-4.772.99c-5.521,1.967-6.346,3.427-6.65,15.725,4.708-.482,8.884-6.079,13.669-2.754a9.265,9.265,0,0,1,2.741,3.807,6.156,6.156,0,0,0,.063-1.282Z" transform="translate(-174.699 -60.074)" fill="#ee9c76"/>
            <path id="Trazado_235238" data-name="Trazado 235238" d="M197.581,98.028c.495-.406.977-.838,1.447-1.269a25.547,25.547,0,0,0,4.607-5.191c3.63-6.168,3.807-14.417-1.358-19.773a14.988,14.988,0,0,0-14.582-3.934,21.4,21.4,0,0,0-3.947,1.586,10.33,10.33,0,0,0-3.033,2.107,9.784,9.784,0,0,0-1.358,2.005A10.737,10.737,0,0,0,178.3,76.1c-.99,3.985,1.663,8.059.14,11.993-.33.85-.825,1.65-1.13,2.538a3.16,3.16,0,0,0,.089,2.652c.457.736,1.053,1.117,1.269,1.929.368,1.117.609,2.3.926,3.427a16.245,16.245,0,0,0,1.269,3.592c1.523,2.729,3.731,2.906,6.46,1.828a36.538,36.538,0,0,0,10.255-6.028Z" transform="translate(-177.064 -64.442)" fill="#ffbfa2"/>
            <path id="Trazado_235239" data-name="Trazado 235239" d="M186.73,90.932c1.269-4.873,6.891-6.485,9.328-10.546A30.739,30.739,0,0,0,200.2,70.03a15.052,15.052,0,0,0-12.488-2.17,21.156,21.156,0,0,0-3.96,1.586,10.331,10.331,0,0,0-3.033,2.107,9.785,9.785,0,0,0-1.358,2.005A10.738,10.738,0,0,0,178.3,76.1c-.99,3.985,1.663,8.059.14,11.993-.33.85-.825,1.65-1.13,2.538a3.16,3.16,0,0,0,.089,2.652c.457.736,1.053,1.117,1.269,1.929.368,1.117.609,2.3.926,3.427a16.245,16.245,0,0,0,1.269,3.592,4.049,4.049,0,0,0,4.226,2.411C188.278,100.958,185.6,95.425,186.73,90.932Z" transform="translate(-177.064 -64.44)" fill="#ffbfa2"/>
            <path id="Trazado_235240" data-name="Trazado 235240" d="M200.561,71.224a13.794,13.794,0,0,0-2.081-1.764A30.738,30.738,0,0,1,194.3,79.816c-2.437,4.061-8.11,5.673-9.328,10.546-1.13,4.493,1.548,10.026-1.536,13.719a7.982,7.982,0,0,0,2.234-.584,36.539,36.539,0,0,0,10.153-6.041c.495-.406.977-.838,1.447-1.269A25.548,25.548,0,0,0,201.919,91C205.548,84.829,205.726,76.58,200.561,71.224Z" transform="translate(-175.347 -63.871)" fill="#f8b495"/>
            <path id="Trazado_235241" data-name="Trazado 235241" d="M209.34,79.973c-.267-7.767-2.741-8.884-5.508-11.549s-6.688-3.439-10.407-3.363a21.664,21.664,0,0,0-10.711,3.414l-.381.241c-2.3,1.5-4.15,3.147-4.531,6-.1.787-.47,2.538.165,3.122s3.224.279,3.807.292c1.663,0,3.1-1.18,4.81-.914a3.389,3.389,0,0,1,2.691,2.386,9.952,9.952,0,0,0,.622,2.856c.558.914,1.726,1.269,2.538,1.942,1.574,1.447,1.447,4.379,3.351,5.343a5.864,5.864,0,0,0,3.807-.114c1.269-.279,2.856-.254,3.554.85.241.381-.114.787-.089,1.269s-.152,2.982-.152,2.982a2.932,2.932,0,0,0,.8-.19A8.123,8.123,0,0,0,205.939,92a19.837,19.837,0,0,0,3.4-12.031Z" transform="translate(-176.918 -65.056)" fill="#451a01"/>
          </g>
          <path id="Trazado_235242" data-name="Trazado 235242" d="M189.31,107.484a24.3,24.3,0,0,0,4.683,4.163c.571.33,1.053.774,1.65.432,2.906-1.612,8.364-8.427,8.973-12.171a5.077,5.077,0,0,0-1.371-4.01c-.165-.152-1.98-.876-2.208-.977a22.946,22.946,0,0,1-1.028,4.7C198.27,103.829,193.663,105.974,189.31,107.484Z" transform="translate(-126.564 -57.019)" fill="#fff"/>
          <path id="Trazado_235243" data-name="Trazado 235243" d="M198.268,82.351c2.652-.178,3.325,3.109,1.5,5.648a12.932,12.932,0,0,1-2.158,1.993c-4.734,4.036-5.927-.343-4.429-1.713C196.682,85.08,194.943,82.58,198.268,82.351Z" transform="translate(-125.686 -60.403)" fill="#f8b495"/>
          <path id="Trazado_235244" data-name="Trazado 235244" d="M195.99,87.8c.3-.279,3.312-2.056,1.269-3.262a.9.9,0,0,0-1.269.761v.939a1.269,1.269,0,0,1-.2.52c-.267.444-1.18.863-1,1.5S195.813,87.964,195.99,87.8Z" transform="translate(-125.097 -59.835)" fill="#f3a984"/>
          <g id="Grupo_64658" data-name="Grupo 64658" transform="translate(65.36 44.647)">
            <g id="Grupo_64645" data-name="Grupo 64645" transform="translate(0 95.33)">
              <g id="Grupo_64638" data-name="Grupo 64638" transform="translate(6.473 29.432)">
                <path id="Trazado_235245" data-name="Trazado 235245" d="M227.944,199.263,196.47,217.539a.711.711,0,0,0,.3-.711l31.462-18.288a.762.762,0,0,1-.292.723Z" transform="translate(-196.47 -198.54)" fill="#283032"/>
                <g id="Grupo_64637" data-name="Grupo 64637" clip-path="url(#clip-path-4)">
                  <g id="Grupo_64636" data-name="Grupo 64636" transform="translate(0 0.063)">
                    <path id="Trazado_235246" data-name="Trazado 235246" d="M196.71,216.878l31.462-18.288v.1L196.71,216.878Z" transform="translate(-196.405 -198.59)" fill="#283032"/>
                    <path id="Trazado_235247" data-name="Trazado 235247" d="M196.713,216.878l31.462-18.288a.927.927,0,0,1,0,.279L196.7,217.157a.914.914,0,0,0,0-.279Z" transform="translate(-196.408 -198.59)" fill="#283032"/>
                    <path id="Trazado_235248" data-name="Trazado 235248" d="M196.694,217.128l31.475-18.288a.584.584,0,0,1-.114.216L196.58,217.344a.583.583,0,0,0,.114-.216Z" transform="translate(-196.44 -198.523)" fill="#283032"/>
                    <path id="Trazado_235249" data-name="Trazado 235249" d="M196.61,217.3,228.084,199a.659.659,0,0,1-.14.127L196.47,217.4a.394.394,0,0,0,.14-.114Z" transform="translate(-196.47 -198.48)" fill="#283032"/>
                  </g>
                </g>
              </g>
              <g id="Grupo_64641" data-name="Grupo 64641" transform="translate(1.32)">
                <path id="Trazado_235251" data-name="Trazado 235251" d="M192.41,193.74l31.462-18.288a.711.711,0,0,1,.736,0L193.159,193.8a.711.711,0,0,0-.749-.063Z" transform="translate(-192.41 -175.349)" fill="#283032"/>
                <g id="Grupo_64640" data-name="Grupo 64640" clip-path="url(#clip-path-5)">
                  <g id="Grupo_64639" data-name="Grupo 64639">
                    <path id="Trazado_235252" data-name="Trazado 235252" d="M192.41,193.74l31.462-18.288a.711.711,0,0,1,.736,0L193.159,193.8a.711.711,0,0,0-.736,0Z" transform="translate(-192.41 -175.349)" fill="#283032"/>
                  </g>
                </g>
              </g>
              <path id="Trazado_235254" data-name="Trazado 235254" d="M192.99,193.766l31.462-18.276,2.817,1.624L195.807,195.4Z" transform="translate(-190.934 -175.311)" fill="#283032"/>
              <path id="Trazado_235255" data-name="Trazado 235255" d="M228.357,204.033,196.9,222.321l-.368-10.635-.482-14.29-.025-.977,31.462-18.288.038.977L228,193.4Z" transform="translate(-190.119 -174.601)" fill="#283032"/>
              <path id="Trazado_235256" data-name="Trazado 235256" d="M228,193.19l-31.475,18.288-.482-14.29L227.514,178.9Z" transform="translate(-190.113 -174.393)" fill="#141e20"/>
              <g id="Grupo_64644" data-name="Grupo 64644" transform="translate(4.873 1.803)">
                <path id="Trazado_235257" data-name="Trazado 235257" d="M195.21,195.058l31.462-18.288A2.259,2.259,0,0,1,227.7,178.5l-31.487,18.288a2.3,2.3,0,0,0-1-1.726Z" transform="translate(-195.21 -176.77)" fill="#283032"/>
                <g id="Grupo_64643" data-name="Grupo 64643" clip-path="url(#clip-path-6)">
                  <g id="Grupo_64642" data-name="Grupo 64642" transform="translate(-0.013)">
                    <path id="Trazado_235258" data-name="Trazado 235258" d="M195.213,195.058l31.462-18.288h0L195.2,195.046Z" transform="translate(-195.2 -176.77)" fill="#283032"/>
                    <path id="Trazado_235259" data-name="Trazado 235259" d="M195.24,195.066l31.475-18.276a1.268,1.268,0,0,1,.254.2l-31.462,18.288A1.991,1.991,0,0,0,195.24,195.066Z" transform="translate(-195.189 -176.765)" fill="#283032"/>
                    <path id="Trazado_235260" data-name="Trazado 235260" d="M195.45,195.225,226.912,177a1.7,1.7,0,0,1,.254.267l-31.475,18.288a1.636,1.636,0,0,0-.241-.267Z" transform="translate(-195.133 -176.708)" fill="#283032"/>
                    <path id="Trazado_235261" data-name="Trazado 235261" d="M195.645,195.448,227.12,177.16a2.348,2.348,0,0,1,.47,1.269L196.1,196.679a2.2,2.2,0,0,0-.482-1.269Z" transform="translate(-195.087 -176.665)" fill="#283032"/>
                  </g>
                </g>
              </g>
              <path id="Trazado_235263" data-name="Trazado 235263" d="M196.243,191.576a2.3,2.3,0,0,1,1.028,1.726l.876,25.9c0,.711-.47.977-1.028.647a1.5,1.5,0,0,1-.3-.216,11.105,11.105,0,0,0-2.056-1.536,7.437,7.437,0,0,0-2.069-.85.85.85,0,0,1-.292-.127,2.208,2.208,0,0,1-1.028-1.828l.774-25.1c0-.622.723-.571,1.269-.254Z" transform="translate(-191.37 -171.484)" fill="#141e20"/>
              <path id="Trazado_235264" data-name="Trazado 235264" d="M195.225,192.54s-.812-.812-1.269-.406c-1.472,8.059-.635,16.118-2.246,23.885a1.942,1.942,0,0,0,.546.482.851.851,0,0,0,.292.127,7.438,7.438,0,0,1,2.069.85,3.809,3.809,0,0,1,.482.3C194.413,209.509,197.155,201.031,195.225,192.54Z" transform="translate(-191.278 -170.862)" fill="#071113"/>
            </g>
            <g id="Grupo_64652" data-name="Grupo 64652" transform="translate(0.761 94.606)">
              <g id="Grupo_64648" data-name="Grupo 64648" transform="translate(0.178)">
                <path id="Trazado_235265" data-name="Trazado 235265" d="M192.11,193.157l31.462-18.276a.99.99,0,0,1,1.041.1l-31.462,18.288A1.028,1.028,0,0,0,192.11,193.157Z" transform="translate(-192.11 -174.779)" fill="#3a4648"/>
                <g id="Grupo_64647" data-name="Grupo 64647" clip-path="url(#clip-path-7)">
                  <g id="Grupo_64646" data-name="Grupo 64646" transform="translate(0)">
                    <path id="Trazado_235266" data-name="Trazado 235266" d="M192.11,193.157l31.462-18.276a.99.99,0,0,1,1.041.1l-31.462,18.288a1.028,1.028,0,0,0-1.041-.114Z" transform="translate(-192.11 -174.779)" fill="#3a4648"/>
                  </g>
                </g>
              </g>
              <path id="Trazado_235268" data-name="Trazado 235268" d="M192.93,193.228l31.462-18.288,2.817,1.624-31.462,18.288Z" transform="translate(-191.712 -174.736)" fill="#3a4648"/>
              <path id="Trazado_235269" data-name="Trazado 235269" d="M196.3,196.438l31.462-18.288.444,12.945-31.475,18.288Z" transform="translate(-190.805 -173.872)" fill="#2e383a"/>
              <g id="Grupo_64651" data-name="Grupo 64651" transform="translate(4.036 1.829)">
                <path id="Trazado_235270" data-name="Trazado 235270" d="M195.15,194.508l31.462-18.288a3.2,3.2,0,0,1,1.459,2.449L196.61,196.958a3.236,3.236,0,0,0-1.46-2.449Z" transform="translate(-195.15 -176.22)" fill="#3a4648"/>
                <g id="Grupo_64650" data-name="Grupo 64650" clip-path="url(#clip-path-8)">
                  <g id="Grupo_64649" data-name="Grupo 64649" transform="translate(0)">
                    <path id="Trazado_235271" data-name="Trazado 235271" d="M195.15,194.508l31.462-18.288h.063L195.2,194.508h0Z" transform="translate(-195.15 -176.22)" fill="#3a4648"/>
                    <path id="Trazado_235272" data-name="Trazado 235272" d="M195.19,194.538l31.487-18.288a2.538,2.538,0,0,1,.381.292L195.583,194.83a1.688,1.688,0,0,0-.381-.292Z" transform="translate(-195.139 -176.212)" fill="#3a4648"/>
                    <path id="Trazado_235273" data-name="Trazado 235273" d="M195.49,194.768l31.474-18.288a2.449,2.449,0,0,1,.343.381l-31.462,18.288a3.4,3.4,0,0,0-.355-.381Z" transform="translate(-195.058 -176.15)" fill="#3a4648"/>
                    <path id="Trazado_235274" data-name="Trazado 235274" d="M195.77,195.068l31.462-18.288a3.1,3.1,0,0,1,.673,1.739l-31.462,18.288a3.2,3.2,0,0,0-.673-1.739Z" transform="translate(-194.983 -176.069)" fill="#2e383a"/>
                  </g>
                </g>
              </g>
              <path id="Trazado_235276" data-name="Trazado 235276" d="M196.006,191.019a3.236,3.236,0,0,1,1.459,2.449l.432,12.945-.863-.457-.431-12.945a1.269,1.269,0,0,0-.6-1l-2.817-1.624a1.967,1.967,0,0,0-.863-.317c-.178,0-.279.1-.355.3,0,0,0-.965.152-1.079a.99.99,0,0,1,1.066.1Z" transform="translate(-191.97 -170.903)" fill="#071113"/>
            </g>
            <g id="Grupo_64654" data-name="Grupo 64654" transform="translate(12.685)">
              <g id="Grupo_64653" data-name="Grupo 64653" transform="translate(2.485 90.102)">
                <path id="Trazado_235277" data-name="Trazado 235277" d="M214.262,179.678a1.345,1.345,0,0,1-.419,1.015,2.741,2.741,0,0,1-.965.571,1.27,1.27,0,0,1-.482.114.267.267,0,0,1-.216-.076.178.178,0,0,1,0-.089v-.267l-.076-.406a4.185,4.185,0,0,0-.254-.8,2.919,2.919,0,0,0-.6-.965,2.145,2.145,0,0,0-.787-.546,2.424,2.424,0,0,0-.952-.152,3.809,3.809,0,0,0-1.053.178,7.617,7.617,0,0,0-1.142.495,10.16,10.16,0,0,0-1.155.774,14.544,14.544,0,0,0-1.155,1,4.387,4.387,0,0,0-.33.355c0-.761.076-1.726,0-2.538.2-.2.432-.393.66-.584a9.418,9.418,0,0,1,1.091-.774,7.954,7.954,0,0,1,1.091-.546,5.243,5.243,0,0,1,1.079-.3,5.077,5.077,0,0,1,1.066-.076,4.733,4.733,0,0,1,1.028.19,4.3,4.3,0,0,1,.99.444,5.537,5.537,0,0,1,.926.7,7.1,7.1,0,0,1,.863.99c.14.2.279.393.406.609l.19.317A.725.725,0,0,1,214.262,179.678Z" transform="translate(-202.958 -169.931)" fill="#071113"/>
                <path id="Trazado_235278" data-name="Trazado 235278" d="M213.188,179.273l-.19-.317c-.127-.216-.267-.406-.406-.609a7.1,7.1,0,0,0-.863-.99,5.534,5.534,0,0,0-.926-.7,4.3,4.3,0,0,0-.99-.444,4.735,4.735,0,0,0-1.028-.19,5.52,5.52,0,0,0-.914,0c2.373.52,4.81,1.954,4.01,4.061,0,.127-.584.165-.774.152l.076.267.076.406v.267a.177.177,0,0,0,0,.089.266.266,0,0,0,.216.076,1.27,1.27,0,0,0,.482-.114,2.741,2.741,0,0,0,.965-.571,1.345,1.345,0,0,0,.419-1.015C213.4,179.552,213.264,179.387,213.188,179.273Z" transform="translate(-202.1 -169.945)" fill="#071113"/>
                <path id="Trazado_235279" data-name="Trazado 235279" d="M208.142,171.344v-.114a19.621,19.621,0,0,0-3.807,4.759,10.28,10.28,0,0,0-.926,2.83,3.808,3.808,0,0,0,.228,2.31l1.041-1.18c.228-.241.47-.089.495.317Z" transform="translate(-203.323 -171.23)" fill="#ffbfa2"/>
              </g>
              <path id="Trazado_235280" data-name="Trazado 235280" d="M219.66,149.433c.444-7.615,0-17.425-.127-29.7a32.908,32.908,0,0,0-1.586-9.8,18.936,18.936,0,0,0-5.292-7.805c-1.079-1.041-2.437-2.094-3.922-1.866a4.874,4.874,0,0,0-3.046,2.538c-4.366,7.031-4.962,16.181-3.807,24.215,1.1,7.462,1.269,15.065,2.373,22.552a23.657,23.657,0,0,0,.876,4.315C208.694,163.571,218.911,162.124,219.66,149.433Z" transform="translate(-201.365 -100.235)" fill="#3a4648"/>
            </g>
            <path id="Trazado_235281" data-name="Trazado 235281" d="M205.895,177.82V179.6a3.985,3.985,0,0,1-.2,1.548c-.267.546-.584,1.066-.85,1.6-.546,1.117-1.028,2.259-1.51,3.4a3.9,3.9,0,0,1-1.739,2.17,1.409,1.409,0,0,1-1.269-.063c-.495-.3-.127-.685,0-1.091s.228-.647.355-.977c.254-.66.533-1.269.838-1.954a13.8,13.8,0,0,1,.9-1.789l.19-.355c.254-.419.508-.838.774-1.269s.66-.952,1.015-1.409l.114-.14c.292-.368.609-.723.939-1.066Z" transform="translate(-189.028 -79.355)" fill="#283032"/>
            <path id="Trazado_235282" data-name="Trazado 235282" d="M200.6,188.2a1.574,1.574,0,0,0,.838-.076,3.9,3.9,0,0,0,1.739-2.17c.482-1.142.965-2.284,1.51-3.4.267-.533.584-1.053.85-1.6a3.985,3.985,0,0,0,.2-1.548c0-.292,0-.571,0-.85A49.562,49.562,0,0,1,200.6,188.2Z" transform="translate(-188.886 -79.158)" fill="#071113"/>
            <g id="Grupo_64657" data-name="Grupo 64657" transform="translate(11.854 112.959)">
              <g id="Grupo_64655" data-name="Grupo 64655" transform="translate(0 10.724)">
                <path id="Trazado_235283" data-name="Trazado 235283" d="M201,201.912l-.292-.165V199.12l.279.165Z" transform="translate(-200.71 -197.305)" fill="#e4a42e"/>
                <path id="Trazado_235284" data-name="Trazado 235284" d="M200.989,199.67l-.279-.165,3.135-1.815.292.165Z" transform="translate(-200.71 -197.69)" fill="#ffc760"/>
                <path id="Trazado_235285" data-name="Trazado 235285" d="M204.077,197.82v2.627l-3.135,1.815-.013-2.627Z" transform="translate(-200.651 -197.655)" fill="#fdc04f"/>
              </g>
              <g id="Grupo_64656" data-name="Grupo 64656" transform="translate(19.164)">
                <path id="Trazado_235286" data-name="Trazado 235286" d="M216.1,193.452l-.292-.165V190.66l.279.165Z" transform="translate(-215.81 -188.858)" fill="#e4a42e"/>
                <path id="Trazado_235287" data-name="Trazado 235287" d="M216.089,191.207l-.279-.165,3.135-1.8.279.165Z" transform="translate(-215.81 -189.24)" fill="#ffc760"/>
                <path id="Trazado_235288" data-name="Trazado 235288" d="M219.165,189.37l.013,2.614-3.135,1.815-.013-2.627Z" transform="translate(-215.751 -189.205)" fill="#fdc04f"/>
              </g>
            </g>
            <path id="Trazado_235289" data-name="Trazado 235289" d="M215.694,165.878a.508.508,0,0,0-.444-.178,5.6,5.6,0,0,0-3.236,1.9c-.533.52-1.053,1.091-1.574,1.65a10.965,10.965,0,0,0-1.459,1.51,18.026,18.026,0,0,0-.8,2.081c-.33.838-.647,1.663-.965,2.538s-.749,1.9-1.117,2.843c-.114.292-.216.571-.33.85l-.178.317a2.983,2.983,0,0,0-.85.533l-.317,1.789c0-.127.292-.355.419-.317s.1.977.1,1.269a5.51,5.51,0,0,1-.432,1.8c-.3.787-.723,1.536-.977,2.335a2.094,2.094,0,0,0,0,1.637.7.7,0,0,0,.254.254c.85.533,1.269-.673,1.828-.977a.889.889,0,0,1,.647-.063c.152,0,.228.127.406.1a1.409,1.409,0,0,0,.876-.622c.19-.267.317-.584.495-.876s.419-.571.635-.6.241.076.381.063a2.445,2.445,0,0,0,.9-.9c.241-.419.558-.888.888-.977a1.562,1.562,0,0,1,.343,0,1.8,1.8,0,0,0,.876-.558,3.16,3.16,0,0,0,.571-1A15.586,15.586,0,0,0,213.8,178.1a6.676,6.676,0,0,1,.178-1.815,10.066,10.066,0,0,0,.444-1.967c.419-2.411.85-4.835,1.269-7.247C215.8,166.538,215.859,166.081,215.694,165.878Z" transform="translate(-188.141 -82.617)" fill="#ffbfa2"/>
            <path id="Trazado_235290" data-name="Trazado 235290" d="M204.17,170.575c.178,3.325.888,4.518,4.2,5.267,3.033.7,7.082.279,7.209-2.843.216-4.975-.825-4.518-2.8-4.505a39.341,39.341,0,0,0-5.6.406,4.3,4.3,0,0,0-2.373.888Z" transform="translate(-187.925 -81.869)" fill="#fafafa"/>
            <path id="Trazado_235291" data-name="Trazado 235291" d="M203.946,176.241c.114,1.9-.444,4.01.571,5.736,1.269,2.132,4.074,2.97,6.511,2.957,1.815,0,4.125-.152,4.975-1.878a20.306,20.306,0,0,0,1.269-6.625c.393-3.224.9-6.346,1.142-9.645.482-6.46.508-12.945.533-19.418,0-2.6.584-11.511.343-15.483-.267-4.442-16.207,3.338-16.029,6.168.216,3.173.85,19.3.761,22.476C203.946,165.758,203.641,171.012,203.946,176.241Z" transform="translate(-188.17 -92.078)" fill="#3a4648"/>
          </g>
          <path id="Trazado_235292" data-name="Trazado 235292" d="M157.7,124.716,139.87,114.411V86.02L157.7,96.313Z" transform="translate(-139.87 -59.414)" fill="#fcd4e0"/>
          <path id="Trazado_235293" data-name="Trazado 235293" d="M143.5,90.282c.495-2.868,2.779-2.538,2.83-1.1s-1.574,5.28-3.147,5.077C141.9,94.013,143.166,92.16,143.5,90.282Z" transform="translate(-139.13 -58.853)" fill="#ffbfa2"/>
          <path id="Trazado_235294" data-name="Trazado 235294" d="M152.706,91.093a1.269,1.269,0,0,0-.914-1.168,1.37,1.37,0,0,0-.508,0,1.739,1.739,0,0,0-.9.3c-.292.216-.279.444-.355.787a8.478,8.478,0,0,1-1.345,3.059,7.615,7.615,0,0,0-.736,1.142,1.612,1.612,0,0,0-.076,1.269c.736,1.612,2.792-.647,3.351-1.269a6.853,6.853,0,0,0,1.434-2.919,3.935,3.935,0,0,0,.051-1.206Z" transform="translate(-137.743 -58.369)" fill="#ffbfa2"/>
          <path id="Trazado_235295" data-name="Trazado 235295" d="M149.009,89.274a1.853,1.853,0,0,0-.761.368c-.444.368-.419.965-.571,1.472a8.427,8.427,0,0,1-1.053,2.145,7.4,7.4,0,0,0-.736,1.155,1.65,1.65,0,0,0,0,1.269c.762,1.6,2.779-.7,3.325-1.4a8.465,8.465,0,0,0,1.269-2.234,2.97,2.97,0,0,0,.178-2.132A1.4,1.4,0,0,0,149.009,89.274Z" transform="translate(-138.285 -58.556)" fill="#ffbfa2"/>
          <path id="Trazado_235296" data-name="Trazado 235296" d="M146.726,88.753a2.107,2.107,0,0,0-.419.19,1.269,1.269,0,0,0-.609.863c-.267.838-.546,1.663-.888,2.538-1.663,3.9,1.066,4.353,2.932-.381.317-.8.99-1.9.6-2.767a.774.774,0,0,0-.228-.3.914.914,0,0,0-.343-.127,2.069,2.069,0,0,0-1.041-.013Z" transform="translate(-138.679 -58.695)" fill="#ffbfa2"/>
        </g>
      </g>
    </g>
  </g>
</svg>
