<svg xmlns="http://www.w3.org/2000/svg" xmlns:xlink="http://www.w3.org/1999/xlink" width="332.567" height="364.6" viewBox="0 0 332.567 364.6">
  <defs>
    <linearGradient id="linear-gradient" x1="0.127" y1="0.816" x2="0.859" y2="0.196" gradientUnits="objectBoundingBox">
      <stop offset="0.09" stop-color="#379ed6"/>
      <stop offset="0.3" stop-color="#58aee5"/>
      <stop offset="0.54" stop-color="#76bdf3"/>
      <stop offset="0.75" stop-color="#88c6fc"/>
      <stop offset="0.9" stop-color="#8fc9ff"/>
    </linearGradient>
    <linearGradient id="linear-gradient-2" x1="0.127" y1="0.816" x2="0.859" y2="0.196" gradientUnits="objectBoundingBox">
      <stop offset="0.09" stop-color="#9182ca"/>
      <stop offset="0.31" stop-color="#9f92d1"/>
      <stop offset="0.66" stop-color="#afa4d8"/>
      <stop offset="0.9" stop-color="#b5abdb"/>
    </linearGradient>
    <linearGradient id="linear-gradient-3" x1="0.173" y1="0.848" x2="0.858" y2="0.098" gradientUnits="objectBoundingBox">
      <stop offset="0.09" stop-color="#9182ca"/>
      <stop offset="0.32" stop-color="#8271c3"/>
      <stop offset="0.66" stop-color="#725fbb"/>
      <stop offset="0.9" stop-color="#6c58b8"/>
    </linearGradient>
    <linearGradient id="linear-gradient-4" x1="-1392.507" y1="44.677" x2="-1391.54" y2="44.677" gradientUnits="objectBoundingBox">
      <stop offset="0.12" stop-color="#feb9b8"/>
      <stop offset="1" stop-color="#ffdede"/>
    </linearGradient>
    <linearGradient id="linear-gradient-5" x1="-361.347" y1="0.831" x2="-361.584" y2="-0.042" gradientUnits="objectBoundingBox">
      <stop offset="0.12" stop-color="#f7413e"/>
      <stop offset="0.99" stop-color="#ff6d67"/>
    </linearGradient>
    <linearGradient id="linear-gradient-6" x1="1030.983" y1="0.57" x2="1031.522" y2="1.142" gradientUnits="objectBoundingBox">
      <stop offset="0.12" stop-color="#fca4b5"/>
      <stop offset="0.99" stop-color="#ffadb7"/>
    </linearGradient>
    <linearGradient id="linear-gradient-7" x1="-825.263" y1="0.682" x2="-823.885" y2="0.184" xlink:href="#linear-gradient-4"/>
    <linearGradient id="linear-gradient-8" x1="-1512.165" y1="0.213" x2="-1512.872" y2="0.88" xlink:href="#linear-gradient-6"/>
  </defs>
  <g id="Grupo_124803" data-name="Grupo 124803" transform="translate(-982.433 -1014)">
    <g id="CF8_1.4_Declaraciones_de_cambio_1_copia" data-name="CF8_1.4 Declaraciones de cambio 1 copia" transform="translate(964.638 987.52)">
      <g id="Layer_1" data-name="Layer 1" transform="translate(17.795 26.481)">
        <g id="Grupo_62456" data-name="Grupo 62456">
          <g id="Grupo_62452" data-name="Grupo 62452" transform="translate(0 78.663)">
            <g id="Grupo_62451" data-name="Grupo 62451" transform="translate(38.02)">
              <ellipse id="Elipse_4351" data-name="Elipse 4351" cx="52.267" cy="90.537" rx="52.267" ry="90.537" transform="matrix(0.005, -1, 1, 0.005, 0, 209.716)" fill="#b5abdb"/>
              <g id="Grupo_62450" data-name="Grupo 62450" transform="translate(0.69)">
                <circle id="Elipse_4352" data-name="Elipse 4352" cx="99.105" cy="99.105" r="99.105" fill="url(#linear-gradient)"/>
                <circle id="Elipse_4353" data-name="Elipse 4353" cx="90.644" cy="90.644" r="90.644" transform="translate(8.46 8.46)" fill="url(#linear-gradient-2)"/>
                <path id="Trazado_132337" data-name="Trazado 132337" d="M88.52,286.49Z" transform="translate(-73.226 -166.616)" fill="#869741"/>
                <path id="Trazado_132338" data-name="Trazado 132338" d="M144.743,144.255a90.927,90.927,0,0,1,23.167-3.635l.313.458-2.6,2.031v2.107l-.618,1.848-2.6,1.581-2.291,2.062-1.581,3.627-2.291,3.428-1.466,4.581-.512.924-1.527.076-.512-.5-.458-.924-1.122-.145-.764.5-1.474.351-.672-1.634-.512-1.29.168-1.138v-1.352l-.764-1.642-.512-1.642v-1.993l-.9-1.573s-.168,1.573-.168-2.421C144.964,144.048,142.368,147.874,144.743,144.255Zm114.224,91.423-2.291,1.428-3.238-1.2.5-1.886.252-2.787-.764-.489-.649,1s-1.2,2.428-1.2.542v-1.878l.557-1.176-1.023-1.917-1.268-2.558-.046-2.619.641-.244.305-1.2.9,1.206.817-.993,1.672,5.406,1.527,1.68,1.145,1.481,1.023,1.184,1.367,1.252.947-1.275.84,1.046v-.451a90.576,90.576,0,0,0-42.844-77.022l-1.344.886-.87,1.848-1.046.512-1.168,1.016-1.283-1.206s1.321-.817-.3-.6l-1.619.221-3.574,1.206-.382-.229-.053-2-1.374-.183-1.527,1.031-.848.328.313-.764.42-.3v-.618h-.641l-.489.13-.244-.29.244-.4-.389-.68-.076-.695.389-.55.764-.855.221-.649s-.252.053-.16-.565l.1-.618.451-.283.305-.649v-.641l-.283-.237-.5.076-.351.618-.565.214-.428-.13-.176-.229-.512.183-.107.29-.5.237-.4.206s.107.176,0,.764l-.1.6-.389.832.069.848.214.764-.3.3-.206.7s.283.466.527.183l.244-.283.359.168-.321.489h-.267l-.115.489.55.092-.229.451s-.13-.443-.466.076l-.344.527-.374-.145-.092-.283-.153-.4s-.092-.191-.4.038l-.3.229h-.344l-.3.092-.145.328-.512.122-.565-.13s.244.061,0-.214l-.237-.275-.695.145-.336.4-.122.176-.634.275-.053.176v.374l-.206.565-.611.55-.4.519-.283.283-.512.153-.389-.053-.909.527-.5.428-.489-.076-.527-.122-.458.542.321.3-.221.55-.283.3-.764.542-.351-.107h-.6l-.26.076-.4.359v.68h-.489l-.283-.206-.374-.191h-.489l-.1-.237.069-.115.176-.191-.053-.283-.252-.122-.344-.107-.237-.206-.061-.252-.2-.2v.2l-.107.305-.115.29.13.458v.305l.206.137-.061.244-.069.328v.206l-.13.16v.2l-.176.168-.29-.115-.6-.229-.4.137h-.145l-.053-.26.053-.176-.382-.237-.4-.038h-.283l-.252.137h-.527l-.451-.115h-.252l-.382.13-.145.176.145.344s-.069.046.145.16l.214.115-.252.183-.053.275.137.1-.206.435.267.13h.336l.26-.084.153.1h.26l.428.328.122.221.206.053.069.244.084.267h.26l.367-.137-.053.214-.16.16v.466l.183.191.351.137.076.214-.206.191-.16.321.038.344.183.229.2.2v.29l.26.061.305.237.122.328-.2.221-.26.466.176.367-.084.275-.229.481-.069.58-.328.29-.206.764-.069.6-.473.71-.221.58-.191.275-.389.053-.16-.107h-.305l-.237.061-.3-.168-.191-.367-.191-.061-.176.191-.237.061-.481-.42h-.512l-.374-.076h-.634l-.435-.137-.221-.191-.214-.183-.466-.061h-.389l-.5-.076-.305-.252-.389-.214-.359.061h-.451l-.053-.237s.4-.115-.13-.313l-.519-.2h-.4l-.26.183-.237.237v.237s0,.069-.145.084h-.153l-.4-.107-.618.252-.26.351.084.5.267.183.038.328.153.107-.244.168-.336.764-.176.7v1.084l-.084.458-.2.985-.344,1.008-.382.321-.618.909-.58.718-.443,1,.252.985.512.092.305.191v.252l-.3.359-.4.557v.626l-.267.4v.4l-.412.573.153.2.336-.214.626-.221.214.122.2.191.764.115.221-.351.382-.13.092.13v.275l.8.382.061.3-.061.428.115.443v.344l.2.29.115.153.038.428.283.206.389.061.351-.206.4-.092.3-.374.389-.374.382.107.451.084.71-.084h.985l.55.359.5-.084h.6l.191-.29.153-.176.183-.6.939-.412.305.153.206.153h.305l.053-.2v-.366l.053-.267.313-.489.244-.313.283-.137.229-.069h.443v-.351l.473-.16v-.275l-.351-.351-.328-.221v-1.016l.313-.4.557-.481,1.382-1.306.084-.542.137-.313.351-.084h.718s.122.176.428-.122l.313-.29.618-.069.389-.168.221-.313.764-.237.237-.267v-.6l.115-.542-.107-.412.267-.611.275-.305.3-.336h.344l.145-.168s-.061-.084.183,0l.244.084.351.214.6.267.481.061.412.321.573.321.466.2.764-.214.2-.305.321.061.168.191s.038.206.191.168l.16-.038.252-.076.267-.489.214-.29.351-.42.168-.275.451-.107.107-.038.206-.221.687-.107.168.084.16.305.2.237s-.412.176,0,.451l.382.275h.267l.221.3-.191.626.168.542.29.237-.153.4-.16.214-.229.061h-.252l-.2.313.107.2.283.16.359.115.283-.557.145.137.145.305.29.305-.076.527.076.328a.84.84,0,0,1,.527,0l.26.1-.176.305.191.29.214.29h.176v.695l.4.389.6.16v.313l.451.13.3.351.351.725.328.26.4.191-.321.466.267.046.389.053.267.237-.061.55.382.3-.069.351.5.168.26.076.115.618.1.817-.237.4.206.512-.16.328-.221.076-.16.649-.267.092h-.473l-.283.229-.443-.053-.344-.16-.527.3s.092.122-.565-.084l-.657-.2s.367-.29-.229-.481l-.6-.191-.2.16s.16-.489-.305-.13l-.473.359.061.68.038.565.764.229.443.519.489.412.435.458.275.214.29.641.443.244.5.061.176-.527.458-.725-.252-.5.069-.6.328-.512.283-.313.221.252v.244l.3.16.328.168.069-.374.053-.374.367-.221.191.16.221-.092.061-.267s-.42,0-.038-.527l.382-.512.283-.069.1.183.115.076.267-.26-.053-.42.351-.611-.061-.351-.412-.107-.458-.305-.069-.42-.061-.29.695-.932.153-.191h.321l-.107.26.107.237.5.13v.145l.221.092.16-.153.076.573.107.588.382.214.3-.4.053-.649-.145-.664-.588-1.008-.764-.5-.176-.5-.6-.206-.611-.244-.328-.519v-.267l.481.076.053-.267.084-.512-.359-.26h-.7l-.267-.076H204.2l-.206-.237-1.046-1.833-.061-.809-.214-.58.1-.481-.5-.855-.649-.26-.321-.573-.229-.305.1-.611-.046-.512h.489l.115-.13-.061-.588-.237-.061v-.344l.122-.229h.588l.321-.466h.214l.252-.076.137.153v.336s-.565.168-.137.374l.42.2.153.16-.053.5-.244.267.336.451.237.053.183-.351.122.3v.26l.092.237.3.061h.183l.092-.664.389.657.244.435-.252.29-.2.275v.3l.122.221.718.321.367.5-.107.313.137.344.145.206.046.29h.389s.336-.328.229.107,0,.283-.107.435l-.1.16.176.16.634.183.267-.168.649.176s.267,0,.412.4l.153.4.657.718s.389-.267.435.374l.046.641.053.382.42.168h.176a2.352,2.352,0,0,1-.458.664l-.191.107.084.4-.107.947-.206.451-.168.695.3.168.084.336h.42l.069.382v.168h-.351l-.046-.2-.229.305s-.16-.038-.046.313.107.283.107.283l.351.374.6.137.137.374.481.512v.221s-.489-.4-.221.435.252.764.252.764l.076.359.58.183.076-.267.687.26.618.305.4-.038.168.26.435.038.244-.137v1.008l.443.267h.3l.344.649.466-.13-.244-.542-.26-.328v-.4l.13-.107.252.557.573.275.26-.351.145-.13-.053-.512-.687-.084-.1-.145-.107-.588-.275-.328-.267-.351v-.3l-.382-.275-.359-1.413-.359-.336-.191-.565-.153-.611.137-.466h.168s.092-.038.153.137l.053.176.42.466.16.206h.382l.275-.229.2-.191.252-.374.4-.183.092-.382.4-.183h.542l.252.336.328.183.305.283.649-.16.053.359s-.687-.13-.115.29l.573.412h.382v.122l-.13.42-.137.153-.252.191-.176-.237-.382.092-.069.26v.55l.046.412-.069.336-.221.092-.191.038-.351.29.183.214.137.2.42.183h.283l.137.107.267-.237-.183-.435.321-.428h.244l.244.153-.2.5-.237.473.252.328-.305.252-.328.137-.328-.176-.252.115h-.26l-.206-.191-.206.283-.053.374s-.2.466,0,.527l.221.069.221.046.137-.351.221-.16.145.328.053.527s0,.283.221.206l.191-.069h.382l.451.367-.2.336-.2.115-.489-.221-.283.115-.076.4v.328l.214.183.351-.16.084.115-.038.451.359.145-.283.191s.145.13-.061.305l-.2.176-.305.107-.092.4-.275.4.557-.038.214-.367.183-.153.229-.466.588-.084s.718-.1.451.115l-.26.214h-.313l-.229.344.168.244.489-.076-.1.435s.061-.3-.283.122-.344.359-.344.359v.573l.29.2.611-.305-.076-.244.237-.42.046-.6.443-.176v.443l.351.29.16-.1.321-.229v.458l-.237.359.16.5.5.313.443.168.275.183.42-.053.267-.443.275-.4-.076-.657.412-.359.451.1.252.344,1.1.55v.473l.412.672,1.13.519.443-.214.344.206.573.237.252-.725.244-.283.527-.435.275.6.481.183.489.137.191-.336.351-.4.237.1.351.153-.1.382-.489.145-.13.489v.367l-.42.725-.13.58.5.985-.473.389.038.351.2.4-.451.382-.695,1.466-.183.848-.473.641-1.122,3.169-.7.565h-.611s.1-.351-1.031-.115l-1.13.237-.672-1.4-.695-.229-.535-.4-1.031.107-.58.435-.84.336-.5.481-.657-.061-.374-.687-.84-.16-1.863-1.359-2.5-.519-1.061-1.726-2.054-.764-1.13-1.886-1.909.466-1.764.29.061,2.031-.237,1.9-1.359.29-1.046-1.245-.916-1.527-1.909-.115-1.1-1.68.221-1.527-1.527-.68-1.527-.214-2.7-1.306-1.2-2.291,1.084-1.917.764-.825-.336-1.8,1.252-2.222-1.061-.573-.764.458-.321-.962s.618-.825-1.474-.145l-2.092.68-1.71-.687-2.466-.764-4.986.275-3.535.977-1.848.962-2.123-.535-1.352-1.184-.916.626-.718-.909h-1l-.764,1.527-1.122,1.466-2.4,1.252-2.566,1.642-1.115,3.054.328,1.9-1.756,2.375-2.421,1.229-2.848,1-1.214,1.924-2.207,1.016-.939,3.176-2.4,1.955-1.458,3.123-1.642,1.962.221,1.527,1.413.481-.832,1.611-.336,1.2.183,2.253-.962,2.665L144.735,232l-.29,1.069-1.6,2.138.809,2.527-.809,1.855-.359,1.8.825,1.527.909-.275.466,1.779,1.008,2.474.573.267-.3,3.818L148,254.424l1.939,2.65,1.787,3.337,1.917,1.863,2.039-.512.878-.985,3.413.237,1.413,1.657,1.688.5.764-1.161.764.489,1.985-1.382,1.688.137,3.963-.489,1.909.6.344,2.55-.122,1.962,1.382.6.672-.359,2.466.176,1.466,1.329.313,2.291-.535,3.383-.855,1.069L179.142,276l-1.206,1.527-.618,2.993,2.764,7.9,1.184,2.291-1.428,1.382,1.619,4.223-.886,2.23,1,4.391-1.054,3.238-1.6.649-1.947,1.756-.5,3.627-1.016,3.184-.443,2.657.664,2.451.176,1.206a90.186,90.186,0,0,0,46.441-16.2l-.046-2.825,1.115-.71-.848-1.94,2.207-3.963,1.6-3.222,1.527-1.046,1.252-1.069,1.023-2.5,3.092-2.031,3.222-2.474,3.184-2.489,2.581-3.383,1.581-2.138,1.909-3.818,1.626-2.558.672-1.825,1.13-.672.542-1.1-.832-.435.535-1.863.466-.3-1.2-.328-.321-.466-.367.954-.71.328-1.046.229h-.764l-1.466-.458-1.749.115-1.016,1.3-1.466-1.191-1.016.764-1.642-.451.038-1.329-.489-.7h-1.016l.29-.817.68-.221.535-.5-.206-.611.267-1.435-.863-.389-.817-.718.061-1.023-.672-1.153-.183-.878-.886-.817-1.084-.535-.848-1.466.107-2.451-.5-.825.389-2.008-1.008-.764-.848.168-1.581-8.132.084-8.27-2.573-5.513-1.13-6.109,1.275-.649,2.8,4,.916,2.092a28.305,28.305,0,0,1,1.848,7.208l.611,4.513,2.214,6.567,3.887,6.758-1.283,5.345,1.283,5.536,5.146-.618,5.918-1.917,2.734-1.374V252.79l4.093.221,1.833-1.2.657-.764a91.182,91.182,0,0,0,2.23-18.173ZM126.76,151.738v.3l1.581.825,1.428.305s.611,1.038,1.527-.832l.893-1.863,1.092-1.046,1.626-.55-.977,3.054.909,1.382.893,1.176-1.878,1.886.764,1.527,1.359.3.206.9,1.917.641.313.825-.481,1.023.153.825,1.481.535-1.153,1.955.351,1.206a2.535,2.535,0,0,0-2.619.573l-1.069,1.153-.939-.084-2.443,1.382-.611.809L128.3,169.8l-.3-.909-3.161-.3-1.6.939-1.115.939-3.238.527-.764,1.436-.9,1.13-2.184,1.657h2.184l1.955-1.657,1.359-1.283,1.275-.68,1.206-.3.977-.153,1.855.053.932.252-1.206,1.726-1.878,1.206-.153,1.359,1.2,1.481,1.688.848.466-.336,1.451-.954.542-1.794h1.657s-1.665,1.176-1.13,1.81l.55.641-.5,1.382-1.7.4-.489.947-2.329.382-1.527-.221L122.8,181.4l-1.688,1.184h-1.39l.076-1.13,1.955-.9.428-1.084s-.092-1.313-1.046-.313-.848.764-.848.764l-1.29.6-2,.618-1.191-.183s-.374-.527-1.527,1.206l-1.13,1.733.2.825-.985.229.764,1.016,1.153-.4.168,1-.565.489-.977.26-.641.038-.718-.412-.3-.153-1.924.191-.451.9,1.092.641-.932.489-1.352.076-.115,1.8-1.581.764-.267.9-.641-1.054-.565-.451.267,1.054.626.84-.55.916-.764.909-.764.985s-.557.26-.115-.764.764-.382.443-1.046l-.328-.672s.305-3.054-.29-.1c-.305,1.527-.687,1.527-.855,1.413.053.084.137.229.267.473a6.187,6.187,0,0,1,.305.626c.206,0,.489.145.55.993l.084,1.352-1.084.527v.97l-.565.687-.6-.26-.153.764-.641.68-.68.038-.634.565-.382.825-.939.153-.5.435-.764,1.26-2.069,1.245s-.71-.764-1.13,1.084a10.2,10.2,0,0,1-.412,1.733l-.527.977.3,1.474.229,1.527-.336.764.565.641-.229,1.054.115,1.527.565.718L93,218.665l-.832.893-.061.993-.764.29-.634-.519-.412-1.283-.565-.68V217.5l-.061-.764a1.451,1.451,0,0,1-.466-1.26l.153-.718.535-1.527v-1.4l-.58-.107-.893-1.107-.374-.68-.565.412v1.016l-.68.115-.481-.932-.191-.649-1.008-.374-.084.374-.786-.26-.588.389-.634-.214.267-.954s-.687-.451-.687.038v.489h-.267A90.812,90.812,0,0,1,126.76,151.738Zm7.369,162.642a90.866,90.866,0,0,1-50.3-56.008v-.153l.221-.267.764-.328.092-.374-.313-.275v-.481l.053-.084.328-.13.275-.221-.107-.6.13-.565.466-.267.519-.267.42-.275-.053-.374c-.053-.382.115-.466.115-.466l.886-1.046-.206-.16-.359.275-.367-.2-.153-.076-.13-.221c-.336-.4.16.2.046-.351s0-.5,0-.5l.344.168.252-.084v-.535l.443-.283-.16-.68a2.917,2.917,0,0,0-.237-.764l-.13-.557.168-.275h.283v-.489l-.344-.351-.061-.435.3-.374-.069-.87-.412-.8-.954-1.168v-1.642l-.359-.2-.206-.473-.5-.122-.458.061-.4,1.313-.451.046-.313.038-.267.183.321.351-.153.176c-.153.168.435.5.435.5l.145.389-.115.252-.252.428-.283.1-.817-.115-.283-.237c-.283-.244.13-.6.13-.6h-.58v.5l-.351.122-.328-.214v-.389l.092-.29.206.069.176-.4.145-.367-.382.115-.374-.2-.244-.4H80.35c-.115-.893-.206-1.787-.29-2.688l.313.29c.359.328,0,.344,0,.344l.1.351.4-.046a1.572,1.572,0,0,0,.4-.053l.351.13.13.466h.481l.618-.481.2-.382.649-.1.267-.2.145-.367c.137-.367.168-.313.168-.313l.4.115.542.038-.076.313.16.16.565-.1.87.267.4.764.664.9.221.71-.107.519c-.115.519.351.267.351.267l.351-.321-.115-.512-.305-.382.1-.3.1-.267.6-.26.214-.764.725-.4.466-.053-.046-.3-.137-.664.237-1.581.535-.451.481-.5h.267l.5.313.191-.16-.145-.634.527-.26.435.313h.764l.5-.6.26-.466.687-.153.092-.466.336-.909.962.221.473.71-.183.764-.466.565-.7.046.069.649.412.283.221-.611.359.6.252-.611.764-.069.42-.168.046-.382-.283-.6v-.466l.382-.5c.382-.5.466.069.466.069l.267.611c.267.6-.267.305-.267.305l.115.5,1.023.29,1.466.573-.374.87.374.58,1.527-.16.764-.275,1.527,1.344h.764l.71-1.023-.863-1.054.764-.626,1.191-.168h.954l1.527.764-1.527,1.13.55.764h.916l1.191-.115.9,1.184-.512.657L111.4,241.4l2.1,1.031,1.527,3.428,1.352.68,2.573,1.275,1.8,2.6-.221,3.726-1.474,4.856V261.7s0-2.711,1.7,3.5l1.016,1.581,2.6,1.466-1.237,1.924-.764,2.367.764,2.367h2.527l.4,2.382.451,3.161.68,1.13,1.81.764-.344,3.955,1.245,6.322-2.092,3.818,1.161.389L131,298.8l-.527,2.375-2.657,1.688,1.191,1.474,2.825,1.81,1.917,1.917.389,4.856a8.691,8.691,0,0,1-.008,1.436Z" transform="translate(-71.225 -132.129)" fill="url(#linear-gradient-3)"/>
                <path id="Trazado_132339" data-name="Trazado 132339" d="M170.212,140.58a90.383,90.383,0,1,1-.005,0Zm-50.7,139.6c-33.6-33.208-35.888-85.376-5.116-116.514s82.963-29.459,116.56,3.749,35.888,85.376,5.116,116.507S153.108,313.393,119.51,280.185Z" transform="translate(-71.107 -132.12)" fill="#472ea6" opacity="0.28"/>
              </g>
            </g>
            <path id="Trazado_132340" data-name="Trazado 132340" d="M308.688,177.93c8.819,1.909,17.509,4.368,25.778,9.354,4.085,2.512,8.254,5.7,11.247,10.736a22.976,22.976,0,0,1,1.84,17.807c-3.772,11.255-11.041,18.524-18.02,25.152a138.715,138.715,0,0,1-11,9.163c-1.878,1.42-3.764,2.894-5.673,4.184l-2.871,2.008-1.436,1c-.473.351-1.168.26-.466,2.94l-14.615-28.84c1.672,2.161,1.947,1.527,2.443,1.4l1.458-.535,2.94-1.077c1.993-.687,3.818-1.527,5.765-2.291a118.1,118.1,0,0,0,11.057-5.131c6.941-3.658,13.79-8.117,16.86-13.218a9.682,9.682,0,0,0,1.29-7.72c-.809-2.9-3.054-6.048-5.918-8.8a70.15,70.15,0,0,0-21.548-12.874Z" transform="translate(-82.971 -140.95)" fill="#472ea6"/>
            <path id="Trazado_132341" data-name="Trazado 132341" d="M200.447,264.866a11.614,11.614,0,0,1-9.781,14.08A404.7,404.7,0,0,1,140,282.7c-21.075.153-42.318-1.344-63.11-6.147a146.285,146.285,0,0,1-30.329-10.476,101.813,101.813,0,0,1-14.035-8.079c-4.49-3.123-9.094-6.872-12.164-12.355a20.838,20.838,0,0,1-2.566-9.163,20.449,20.449,0,0,1,1.924-9.071c2.451-5.482,6.345-9.537,10.331-13.126,8.147-7.055,17.257-12.217,26.8-16.539l1.451,3.054c-8.789,4.856-17.341,10.69-24.205,17.715-3.36,3.512-6.391,7.43-7.788,11.53a12.11,12.11,0,0,0,1.237,11.347c4.719,6.7,14.508,11.133,23.335,14.806a134.391,134.391,0,0,0,28.543,7.437c19.616,2.963,39.767,2.848,59.727,1.153a385.254,385.254,0,0,0,50.32-7.842,8.857,8.857,0,0,1,10.69,6.6Z" transform="translate(-17.795 -145.633)" fill="#472ea6"/>
          </g>
          <g id="Grupo_62455" data-name="Grupo 62455" transform="translate(109.165)">
            <g id="Grupo_62454" data-name="Grupo 62454">
              <path id="Trazado_132342" data-name="Trazado 132342" d="M206.445,27.572h0c-4.849-2.016-11.148-1.306-18.059,2.688C173.115,39.072,160.76,60.4,160.76,77.907c0,23.824,27.626,50.931,27.626,50.931L196.6,132.9,214.814,31.734Z" transform="translate(-160.76 -26.481)" fill="#ef2a66"/>
              <g id="Grupo_62453" data-name="Grupo 62453" transform="translate(8.201 4.065)">
                <path id="Trazado_132343" data-name="Trazado 132343" d="M199.126,35.6c15.272-8.8,27.626-1.756,27.626,15.753,0,23.824-27.626,82.833-27.626,82.833S171.5,107.074,171.5,83.243C171.5,65.734,183.87,44.408,199.126,35.6Z" transform="translate(-171.5 -31.804)" fill="#ef2a66"/>
                <ellipse id="Elipse_4354" data-name="Elipse 4354" cx="22.564" cy="13.027" rx="22.564" ry="13.027" transform="translate(4.994 48.396) rotate(-59.69)" fill="#fcfbfa"/>
              </g>
            </g>
            <path id="Trazado_132344" data-name="Trazado 132344" d="M173.691,84.167c0-17.1,12.08-37.935,26.985-46.54,14.745-8.514,25.794-2.291,26.053,14.432v-.71c0-17.509-12.37-24.557-27.626-15.753s-27.6,30.138-27.6,47.655c0,23.824,27.626,50.923,27.626,50.923h0S173.691,107.441,173.691,84.167Z" transform="translate(-163.299 -27.739)" fill="#ff8685"/>
          </g>
        </g>
        <g id="Grupo_62462" data-name="Grupo 62462" transform="translate(113.489 147.856)">
          <path id="Trazado_132345" data-name="Trazado 132345" d="M230.34,453.663c-14.684-8.476-38.423-8.522-53.023-.092s-14.508,22.144.168,30.612,38.423,8.522,53.023.1S245.031,462.146,230.34,453.663Z" transform="translate(-166.422 -273.823)" fill="#b5abdb"/>
          <path id="Trazado_132346" data-name="Trazado 132346" d="M245.252,471.2l31.574-18.234L245.252,434.74,213.67,452.967Z" transform="translate(-177.593 -270.859)" fill="#b5abdb"/>
          <g id="Grupo_62461" data-name="Grupo 62461" transform="translate(7.688)">
            <g id="Grupo_62457" data-name="Grupo 62457" transform="translate(31.168 26.934)">
              <path id="Trazado_132347" data-name="Trazado 132347" d="M251.571,257.81s-.153-1.718-1.458-1.191-7.246,5.253-7.636,5.986a23.429,23.429,0,0,1-2.489,4.65c-1.2,1.42-22.426,10.69-22.671,11.515s4.7,7.109,9.01,5.024,14.943-10.606,16.8-11.11a11.66,11.66,0,0,0,3.818-1.527,20.618,20.618,0,0,0,2.787-3s3.711-1.214,4.123-1.772a.825.825,0,0,0-.695-1.275,34.213,34.213,0,0,0-4.184,1.13l1.81-1.611s3.52-1.687,3.543-2.359a1.6,1.6,0,0,0-1.122-1.359c-.321,0,.618-.443.58-1.336s-1.374-1.26-1.374-1.26Z" transform="translate(-217.309 -255.657)" fill="#febfbf"/>
              <path id="Trazado_132348" data-name="Trazado 132348" d="M250.144,267.951s1.886.641,2.352-1.657-.573-3.978-.535-5.154a7.979,7.979,0,0,1,.252-1.848,3.963,3.963,0,0,0,.764-3.222c-.489-1.688-1.458.275-1.527.481s-1.046,1.978-1.115,2.359-.962,3.138-1.077,4.039S246.41,267.638,250.144,267.951Z" transform="translate(-224.609 -255.39)" fill="#fec7c6"/>
            </g>
            <g id="Grupo_62458" data-name="Grupo 62458" transform="translate(59.345 8.501)">
              <path id="Trazado_132349" data-name="Trazado 132349" d="M276.43,286.374l-22.22-12.828v-25.5l22.22,12.828Z" transform="translate(-254.21 -235.222)" fill="#c99a6b"/>
              <path id="Trazado_132350" data-name="Trazado 132350" d="M283.31,286.374l22.22-12.828v-25.5l-22.22,12.828Z" transform="translate(-261.09 -235.222)" fill="#ae835b"/>
              <path id="Trazado_132351" data-name="Trazado 132351" d="M276.43,256.906l22.22-12.828L276.43,231.25l-22.22,12.828Z" transform="translate(-254.21 -231.25)" fill="#e8b687"/>
              <path id="Trazado_132352" data-name="Trazado 132352" d="M269.086,266.713l-3.566-2.062V254.58l3.566,2.062Z" transform="translate(-256.884 -236.766)" fill="#d9af84"/>
              <path id="Trazado_132353" data-name="Trazado 132353" d="M269.086,252.67l22.22-12.828-3.566-2.062-22.22,12.828Z" transform="translate(-256.884 -232.794)" fill="#ebcbab"/>
              <path id="Trazado_132354" data-name="Trazado 132354" d="M267.966,252.023l22.22-12.828-.2-.115L267.76,251.908Z" transform="translate(-257.414 -233.101)" fill="#d1a986"/>
              <path id="Trazado_132355" data-name="Trazado 132355" d="M305.53,248.05l-22.22,12.828,11.988-6.414Z" transform="translate(-261.09 -235.222)" fill="#87623f"/>
            </g>
            <g id="Grupo_62459" data-name="Grupo 62459">
              <path id="Trazado_132356" data-name="Trazado 132356" d="M189.417,270.223s-2.214-1.726-6.2,0-5.742,6.7-6.109,7.9-.618,16.661-.618,16.661,1.756,4.581,9.025,2.734S189.417,270.223,189.417,270.223Z" transform="translate(-176.49 -231.782)" fill="#fed2a8"/>
              <path id="Trazado_132357" data-name="Trazado 132357" d="M199.107,454.222c.1-.137,4.169-2.291,7.162-2.253s2.718,3.711,2.184,5.345-5.78,5.918-5.78,5.918l-2.421,2.382a33.461,33.461,0,0,1-3.5,3.344,5.6,5.6,0,0,1-4.9.2c-1.588-.68-1.917-1.023-2-1.168a11.293,11.293,0,0,1,0-6.7C190.975,458.1,199.107,454.222,199.107,454.222Z" transform="translate(-179.529 -274.932)" fill="#5c6467"/>
              <path id="Trazado_132358" data-name="Trazado 132358" d="M187.871,410.381c-.55,6.353-.55,14.508-.489,20.9a93.34,93.34,0,0,0,.4,9.445,5.635,5.635,0,0,0,4.872,2.291,8.489,8.489,0,0,0,3.054-.763,14.324,14.324,0,0,0,5.009-3.429c.313-.664-.145-4.093-.283-5.04a65.133,65.133,0,0,1,.313-18.631c1.527-8.506,4.78-21.586,4.925-25.763a67.195,67.195,0,0,0-.458-7.216c-.634-6.872-1.718-15.6-1.718-15.6L184.267,359s-.657,9.843,3.154,16.57c3.749,6.613,3.146,13.37,3.054,15.913S188.39,404.051,187.871,410.381Z" transform="translate(-178.318 -252.952)" fill="#7282b5"/>
              <path id="Trazado_132359" data-name="Trazado 132359" d="M199.24,447.937a14.323,14.323,0,0,0,5.009-3.428c.313-.664-.145-4.093-.283-5.04a65.133,65.133,0,0,1,.313-18.631c1.527-8.506,4.78-21.586,4.925-25.763a67.187,67.187,0,0,0-.458-7.216,20.616,20.616,0,0,0-7.33-4.719s3.719,12.278,2.405,19.807-3.818,18.6-3.7,25.962,2.634,13.973,0,17.776A13.366,13.366,0,0,1,199.24,447.937Z" transform="translate(-181.869 -258.659)" fill="#e8d0c8"/>
              <path id="Trazado_132360" data-name="Trazado 132360" d="M235.9,476.736c-.672,1.527-1.466,3.7-6.7,5.024s-6.872.84-8.033,1.329-3.344,1.626-4.009,1.749-4.3.764-6.231,0a4.009,4.009,0,0,1-2.428-2.2,2.6,2.6,0,0,1-.137-.512c-.069-.618-.283-3.909.168-4.505s10.835-6.261,10.835-6.261,8.636.42,10.492.389,4.7.176,5.253.58a4.467,4.467,0,0,1,.985,2.489,3.6,3.6,0,0,1-.2,1.917Z" transform="translate(-184 -279.516)" fill="#5c6467"/>
              <path id="Trazado_132361" data-name="Trazado 132361" d="M221.521,472.42s3.658,0,4.635.641a3.39,3.39,0,0,1-.641,5.482c-2.123,1.306-7.9,1.084-8.858,1.191s-2.749-.122-3.344-.764,3.726-3.688,3.726-3.688Z" transform="translate(-185.182 -279.767)" fill="#febfbf"/>
              <path id="Trazado_132362" data-name="Trazado 132362" d="M235.977,477.811c-.672,1.527-1.466,3.7-6.7,5.024s-6.872.84-8.033,1.329-3.344,1.626-4.009,1.749-4.3.764-6.231,0a4.009,4.009,0,0,1-2.428-2.2,1.772,1.772,0,0,1,.764.5c1.443,1.527,6.109,1.268,7.674.764,4.223-1.374,5.391-1.229,5.391-1.229a49.409,49.409,0,0,0,5.528-1.153c1.817-.58,4.8-1.413,6.315-2.97a7.835,7.835,0,0,0,1.909-3.719A3.6,3.6,0,0,1,235.977,477.811Z" transform="translate(-184.077 -280.592)" fill="#504f60"/>
              <path id="Trazado_132363" data-name="Trazado 132363" d="M195.59,376.409c1.97,3.291,8.354,8.018,8.728,10.392s2.833,13.34,2.085,23.388-1.489,14.508-1.4,24.755-.145,17.776-.145,17.776,2.062,2.833,6.643,2.23a8.911,8.911,0,0,0,5.582-2.863,4.726,4.726,0,0,0,1.374-2.573c.053-1.428,1.657-26.847,4-38.943s5.467-34.964,3.627-43.608a2.618,2.618,0,0,0-.229-.634c-3.176-7.437-31.719,2.779-31.719,2.779A12.668,12.668,0,0,0,195.59,376.409Z" transform="translate(-180.647 -254.044)" fill="#7282b5"/>
              <path id="Trazado_132364" data-name="Trazado 132364" d="M222.7,454.69h.718c-.8-14.057.764-23.915,2.7-36.392,1.237-7.85,2.634-16.745,3.688-28.329.718-7.865,1.107-18.4,1.115-18.509h-.718c0,.107-.4,10.621-1.107,18.463-1.061,11.561-2.451,20.449-3.68,28.291C223.452,430.668,221.9,440.594,222.7,454.69Z" transform="translate(-187.365 -255.898)" fill="#a0abcd"/>
              <path id="Trazado_132365" data-name="Trazado 132365" d="M224.21,452.927a4.726,4.726,0,0,0,1.374-2.573c.053-1.428,1.657-26.847,4-38.943s5.467-34.964,3.627-43.608a2.619,2.619,0,0,0-.229-.634c-.764.458-1.527.977-2.291,1.527a51.61,51.61,0,0,1,.512,17.562c-1.313,10.018-4.665,30.306-5.093,35.125C225.722,425.622,224.752,445.544,224.21,452.927Z" transform="translate(-187.772 -254.884)" fill="#e8d0c8"/>
              <path id="Trazado_132366" data-name="Trazado 132366" d="M182.835,326.955c-.252,3.207-.764,10.881.6,13.057s2.947,2.688,6.643,5.551,13.111,6.322,22.1,5.727a16.035,16.035,0,0,0,9.27-3.352,9.644,9.644,0,0,0,2.52-2.917s-2.718-13.8-2.375-20.464c.26-5.345,1.863-21.189,1.527-30.688a26.4,26.4,0,0,0-.626-5.643c-1.833-6.7-8.529-10.446-12.339-13.653s-12.561-5.467-15.913-5.811-9.27.374-10.3,1.26-4.643,4.184-4.3,13.912,3.123,21.838,4.3,28.657S183.094,323.733,182.835,326.955Z" transform="translate(-177.23 -231.597)" fill="#febc7c"/>
              <path id="Trazado_132367" data-name="Trazado 132367" d="M227.323,336.5c.634,6.269,3.291,8.728,3.635,18.326a9.644,9.644,0,0,0,2.52-2.917s-2.718-13.8-2.375-20.464c.26-5.345,1.863-21.189,1.527-30.688-.367-.764-.573-1.115-.573-1.115l-12.217-1.8s6.994,10.812,7.483,14.218S226.636,329.46,227.323,336.5Z" transform="translate(-186.739 -238.492)" fill="#dedede"/>
              <path id="Trazado_132368" data-name="Trazado 132368" d="M197.375,243.6s1.71,7.72,1.336,10.224-.764,3.772-1.458,4.581a17.759,17.759,0,0,1-1.283,1.352s.29,2.5,6.666,3.6,9.323,1.107,10.125,1.329l.764.214-.855-1.016s.916-7.063,1.191-7.9,1.81-.176,3.673-.535a2.245,2.245,0,0,0,2.039-2.253c.115-.657.9-7.758.97-8.331a6.559,6.559,0,0,1,1.115-1.855l-1.069-1.947a4.139,4.139,0,0,0,1.038-2.382c.053-1.329-.26-6.994-1.718-8.766s-11.209-2.932-13.851-2.123S195.993,234.1,197.375,243.6Z" transform="translate(-181.096 -221.869)" fill="#febfbf"/>
              <path id="Trazado_132369" data-name="Trazado 132369" d="M218.92,231.08a2.008,2.008,0,0,0-.374,1.13c-.084.764.764,1.6.7,2.779s-.321,3.551-.321,3.551a1.573,1.573,0,0,0-1.466,1.092,22.448,22.448,0,0,0-.764,2.772l-.038,1.145-1.107.336s-.283-2.764-2.207-2.176a7.315,7.315,0,0,0-4.749,3.917c-1.084,2.237-1.382,3.894-2.5,4.581s-4.635.764-6.048.3a7.636,7.636,0,0,1-2.291-1.176s-2.092-2.787-4.413-9.529-.886-10.69,0-11.981,3.6-2.329,3.6-2.329-.13-2.963,6.773-4.368,14.951,4.5,15.86,5.482,1.054,3.6,1.054,3.6Z" transform="translate(-180.176 -220.304)" fill="#754554"/>
              <path id="Trazado_132370" data-name="Trazado 132370" d="M221.144,236.6s9.316-1.978,11.507-2.963c1.527-.687,1.749-1.222,1.374-3.459a10.407,10.407,0,0,0-2.489-5.017,7,7,0,0,0-4.062-1.84c-2.023.038-10.919,1.077-13.607,1.527S221.144,236.6,221.144,236.6Z" transform="translate(-185.218 -220.874)" fill="#febc7c"/>
              <path id="Trazado_132371" data-name="Trazado 132371" d="M192.442,236.918s1.924,3.5,10.064,3.329,17.463-6.277,17.738-8.231,1.046-6.8-4.681-9.484-11.354-3.131-16.1-1.336S189.807,228.167,192.442,236.918Z" transform="translate(-180.087 -220.117)" fill="#fda551"/>
              <path id="Trazado_132372" data-name="Trazado 132372" d="M220.823,249.324a2.024,2.024,0,0,0-.244-1.909c-.687-.886-2.611.451-2.917,2.978s.176,4.284,1.176,4.872,1.527-1.069,1.527-1.069S219.235,251.1,220.823,249.324Z" transform="translate(-186.202 -226.506)" fill="url(#linear-gradient-4)"/>
            </g>
            <g id="Grupo_62460" data-name="Grupo 62460" transform="translate(31.896 37.439)">
              <path id="Trazado_132373" data-name="Trazado 132373" d="M227.461,284.1c2.237.947,2.7,1.252,8.277,4.711,10.522,6.552,13.027,8.743,15.882,9.606s4.062,4.505,3.818,7.17,0,4.108-6.193,2.886-22.426-9.361-27.26-12.706C216.061,291.68,220.673,281.227,227.461,284.1Z" transform="translate(-218.498 -272.566)" fill="#febfbf"/>
              <path id="Trazado_132374" data-name="Trazado 132374" d="M291.287,271.868s1.122-1.581.84-1.764-.97-1.466-2.138,0a54.71,54.71,0,0,1-5.078,5.139c-.191.046-1.054-1.084-1.054-1.084s2.207-2.634,1.9-4.2-2.52-.451-2.711-.069a44.621,44.621,0,0,1-2.092,3.971,17.284,17.284,0,0,0-2.474,4.154c-.412,1.428-.435,3.948-1.275,4.956s-18.486,12.79-18.486,12.79-.084,13.034,4.925,9,18.326-18.517,19.051-18.906,6.345-2.443,6.765-2.779a17.542,17.542,0,0,0,1.39-3.482l.924-2.527a5.346,5.346,0,0,0,.764-1.573,13.218,13.218,0,0,1,0-1.428s.764-1.527,0-1.855a5.626,5.626,0,0,0-1.252-.344Z" transform="translate(-227.827 -269.148)" fill="#febfbf"/>
              <path id="Trazado_132375" data-name="Trazado 132375" d="M300.079,272.71l-4.169,5.223,2.963-2.619,1.81-2.451Z" transform="translate(-236.62 -269.99)" fill="#fa9698"/>
              <path id="Trazado_132376" data-name="Trazado 132376" d="M302.043,275.62l-2.963,3.955,1.489-1.283,1.466-2.008Z" transform="translate(-237.369 -270.678)" fill="#fa9698"/>
              <path id="Trazado_132377" data-name="Trazado 132377" d="M242.787,292.911a9.423,9.423,0,0,1-1.863,7.216,25.327,25.327,0,0,1-5.078,5.185s-14.852-7.414-16.379-11.018c-1.283-3.054-3.26-8.773,4.581-11.263C227.988,281.793,242.787,292.911,242.787,292.911Z" transform="translate(-218.262 -272.407)" fill="#fed2a8"/>
            </g>
          </g>
        </g>
        <g id="Grupo_62465" data-name="Grupo 62465" transform="translate(273.241 94.364)">
          <path id="Trazado_132378" data-name="Trazado 132378" d="M426.211,373.564c-11.622-6.712-30.406-6.75-41.951-.076s-11.492,17.509.13,24.221,30.406,6.742,41.951.076S437.833,380.268,426.211,373.564Z" transform="translate(-375.637 -201.707)" fill="#b5abdb"/>
          <g id="Grupo_62464" data-name="Grupo 62464" transform="translate(0.325)">
            <path id="Trazado_132379" data-name="Trazado 132379" d="M391.358,365.215c5.757-3.978,8.445-3.7,8.445-3.7s7.155.489,6.383-3.818c-.626-3.665-1.573-5.925-1.8-7.5a3.67,3.67,0,0,1-.053-.764c.2-9.3,4.177-24.526,2.947-31.8-.916-5.406-.145-11.385.8-17.112a2.541,2.541,0,0,0,.084-.4c.26-1.6.512-3.176.764-4.688a2.675,2.675,0,0,1,.084-.466c.145-.97.29-1.917.4-2.833.053-.481.115-.939.168-1.4.115-.916.206-1.8.229-2.634a23.441,23.441,0,0,0-.053-3.818,11.043,11.043,0,0,0-.4-2.092c-2.291-8.1-17.455-10.331-17.455-10.331s-1.527,15.142.97,28.367c3.864,20.433,4.895,45.051,5.04,51.6.053,2.7-3.551,4.925-5.208,5.9-2.352,1.344-6.872,4.375-6.872,4.375S385.608,369.193,391.358,365.215Z" transform="translate(-378.372 -178.858)" fill="#9c9edb"/>
            <path id="Trazado_132380" data-name="Trazado 132380" d="M409.826,294a179.5,179.5,0,0,0-.573,21.693c.458,10.339,1.084,9.537.344,16.89s-2.176,17.891-1.779,20.265,2.718,7.185,2.634,10.308a2.657,2.657,0,0,0,.344-1.947c-.573-3.665-1.489-5.925-1.687-7.529a3.675,3.675,0,0,1-.053-.764c.2-9.3,4.177-24.526,2.947-31.8-.916-5.406-.145-11.385.8-17.112a2.541,2.541,0,0,0,.084-.4c.26-1.6.512-3.177.764-4.688a2.67,2.67,0,0,1,.084-.466c.145-.97.29-1.917.4-2.833.053-.481.115-.939.168-1.4.115-.916.206-1.8.229-2.634a23.448,23.448,0,0,0-.053-3.818,20.479,20.479,0,0,0-8.644-1.206s-.435,2.146,1.856,5.208C409.451,294.165,409.826,294,409.826,294Z" transform="translate(-383.095 -182.317)" fill="#e8d0c8"/>
            <path id="Trazado_132381" data-name="Trazado 132381" d="M395.69,380.537c-1.352-.389-2.68,1.527-3.619,2.352,0,0-7.269,4.261-7.483,4.826a5.492,5.492,0,0,0-.313,2.589,5.956,5.956,0,0,0,6.406,1.435c3.642-1.329,4.948-2.566,7.384-3.161s7.2-1.581,7.827-2.909-.069-5.742-.069-5.742-.764-.29-1.069.252a7.116,7.116,0,0,1-3.344,2.611,7.964,7.964,0,0,1-3.65.145c.076-.336.206-.672-.046-.977a2.582,2.582,0,0,0-.687-.466c-.328-.221-.611-.5-.939-.718a1.459,1.459,0,0,0-.4-.237Z" transform="translate(-377.986 -204.389)" fill="#5c6467"/>
            <path id="Trazado_132382" data-name="Trazado 132382" d="M407.034,286.745a9.071,9.071,0,0,0,3.5,2.573s1.458,28,3.978,34.124,4.581,28.764,4.581,29.711a15.83,15.83,0,0,1-4.581,10.789c-4.383,4.291-6.3,5.124-6.238,5.78a5.373,5.373,0,0,0,6.154,3.268c4.154-.687,5.269-.977,7.269-3.092s4.123-3.551,4.436-5.208-1.115-4.925-.26-8.048v-.053a3.243,3.243,0,0,1,.145-.6.436.436,0,0,1,0-.2c.053-.2.084-.458.137-.718.115-.718.229-1.527.374-2.52.916-6.872,2.031-19.609,1.573-23.671-1.283-11.393-2.573-10.247-2.2-13.485s5.666-19.448,5.345-38.057a2.4,2.4,0,0,0-.321-1.229c-2.688-5.345-24.671.046-24.671.046S405.034,284.194,407.034,286.745Z" transform="translate(-383.114 -179.303)" fill="#9c9edb"/>
            <path id="Trazado_132383" data-name="Trazado 132383" d="M429.293,361.462c5.253-24.541,1.71-36.468.374-40.958-.176-.6-.321-1.084-.374-1.382-.29-1.688,2.008-11.179,3.528-17.455.672-2.795,1.26-5.208,1.489-6.391.764-3.932.305-15.8.283-16.295h-.71c0,.122.473,12.286-.275,16.134-.229,1.168-.809,3.574-1.481,6.361-2.107,8.7-3.818,16.035-3.535,17.746.061.336.2.809.4,1.466,1.313,4.436,4.818,16.241-.4,40.607Z" transform="translate(-388.475 -180.541)" fill="#b0b2ff"/>
            <path id="Trazado_132384" data-name="Trazado 132384" d="M429.06,368.709c1.145-1.061,2.092-2.008,2.291-3.054.313-1.657-1.031-4.925-.115-8.04l.084-.26V357.3a3.238,3.238,0,0,1,.145-.6.435.435,0,0,1,0-.2,3.809,3.809,0,0,1,.137-.718c.115-.718.229-1.527.374-2.52.916-6.872,2.031-19.609,1.573-23.671-1.283-11.393-2.573-10.247-2.2-13.485s5.666-19.448,5.345-38.057a2.4,2.4,0,0,0-.321-1.229c-.825.2-1.458.4-1.458.4a67.959,67.959,0,0,1,0,15.546c-1,8.789-5.009,23.259-5.009,25.061s2.749,6.987,2.665,16.631-2.917,23.274-2.749,25.2C429.976,361.1,431.725,364.41,429.06,368.709Z" transform="translate(-388.593 -180.03)" fill="#e8d0c8"/>
            <path id="Trazado_132385" data-name="Trazado 132385" d="M415.073,388.827a4.46,4.46,0,0,1,2.291,0,12.752,12.752,0,0,1,2.558.909c.809.374.84.695.764,1.466,1.054-.519,4.009-1.993,4.467-3.108a15.083,15.083,0,0,0,.466-3.054,6.306,6.306,0,0,1,.29,1.688c.137,1.352.443,4.788.4,5.7s-4.879,4.826-6.216,5.765c-3.459,2.428-4.581,3.337-9.445,3.49s-4.581-3.154-4.513-3.932,4.826-4.856,6.147-5.849a9.645,9.645,0,0,0,1.863-2.382A1.818,1.818,0,0,1,415.073,388.827Z" transform="translate(-383.166 -205.616)" fill="#5c6467"/>
            <path id="Trazado_132386" data-name="Trazado 132386" d="M398.821,191.746s-3.184-.565-7.155,5.9c-3.513,5.719-6.063,9.759-10.087,13.744s-5.185,4.643-5.345,7.216.657,7.453,5.956,5.475,11.454-12.706,13.8-17.249S419.315,191.609,398.821,191.746Z" transform="translate(-376.099 -159.914)" fill="#febfbf"/>
            <path id="Trazado_132387" data-name="Trazado 132387" d="M383.56,210.946a23.671,23.671,0,0,1,7.01,2.909c2.871,1.978,14.508-22.449,12.912-22.8-2.413-.535-4.78.435-6.872,2.069S383.56,210.946,383.56,210.946Z" transform="translate(-377.836 -159.719)" fill="#f9aac2"/>
            <path id="Trazado_132388" data-name="Trazado 132388" d="M425.52,154.665s1.184-7,7.781-3.734c3.749,1.855,7.827,8.331,3.054,18.692a20.143,20.143,0,0,0,.863,18.952s-6.826-1.077-9.27-3.367-1.665-4.3-1.344-11.393S425.52,154.665,425.52,154.665Z" transform="translate(-387.756 -150.062)" fill="url(#linear-gradient-5)"/>
            <path id="Trazado_132389" data-name="Trazado 132389" d="M391.837,217.949a8.056,8.056,0,0,0,.764,3.871h0c.115.229.229.489.344.764.4.832.886,1.8,1.4,3.092,1.428,3.719-1.573,26.359-1.115,27.993s1.031,3.115,8.04,5.238c7.811,2.405,18.837,2.146,24.389,0a11.714,11.714,0,0,0,2.291-1.176s-1.527-15.944-1.145-21.892c.229-3.467,2.031-7.934,3.818-12.423l.26-.634a67.119,67.119,0,0,0,3-8.7c2.978-12.339-1.741-13.8-5.49-16.661a26.268,26.268,0,0,0-10.194-4.581c-5.551-1.374-11.561-2.344-13.248-2.169s-6.529,2.6-8.56,9.927c-1.779,6.361-3.7,11.713-4.322,15.4a11.746,11.746,0,0,0-.206,1.573A2.729,2.729,0,0,0,391.837,217.949Z" transform="translate(-379.79 -159.659)" fill="#f57fa3"/>
            <path id="Trazado_132390" data-name="Trazado 132390" d="M391.837,224.877a8.056,8.056,0,0,0,.764,3.871h0c.115.229.229.489.344.764,1.436.344,3.207.8,4.238,1.031,1.978.458,6.872-1.176,6.872-1.176l-3.2-1.978s5.437-1.168,6.872-2.291.947-3.52.947-3.52c-3.115-3.436-11.736-.634-16.57,1.313a11.746,11.746,0,0,0-.206,1.573A2.721,2.721,0,0,0,391.837,224.877Z" transform="translate(-379.79 -166.587)" fill="#e79bf2"/>
            <path id="Trazado_132391" data-name="Trazado 132391" d="M393.441,260.547c.458,1.6,1.031,3.115,8.04,5.238,7.811,2.405,18.83,2.161,24.389,0a11.711,11.711,0,0,0,2.291-1.176s-1.527-15.959-1.145-21.907c.229-3.467,2.031-7.934,3.818-12.423-1.115-5.895-2.863-10.278-5.345-10.537-7.559-.764-.191,15.356-10.53,15.814-9.552.428-9.109-3.238-13.645-3.894-5.078-.71-7.483-1.122-8.514-2.932.458,1.031,1.061,2.153,1.749,3.818C396.007,236.273,392.953,258.913,393.441,260.547Z" transform="translate(-380.02 -166.53)" fill="#fff"/>
            <path id="Trazado_132392" data-name="Trazado 132392" d="M408.962,258.6l17.768-9.927s2.413.848,2.7,6.536c.191,3.818-.2,7.727.229,10.881a11.715,11.715,0,0,0,2.291-1.176s-1.527-15.959-1.145-21.907c.229-3.635,2.2-8.4,4.093-13.057-4.581-4.864-8.7-8.789-8.7-8.789a94.212,94.212,0,0,1-2.2,10.339c-1.649,5.391-11.331,4.016-15.149,2.062,3.2,2.405,11.339,3.054,14.439,1.474a49.873,49.873,0,0,0-.382,9.163Z" transform="translate(-383.812 -166.871)" fill="#e79bf2"/>
            <path id="Trazado_132393" data-name="Trazado 132393" d="M429.871,204.828s-6.193-2.054-8.69,8.17c-4.062,16.646-2.634,25.32-2.734,26.9-6.75,8.4-18.647,15.165-18.929,15.149s-3.528.573-3.894,1.107-5.544,3.757-5.818,4.444-4.8,2.818-4.8,2.818l-.527,1s-.909.344-.924,1.161.886.893.886.893-.29,1.329.718,1.413,4.772-1.436,4.9-1.527.221.084.221.084-1.39.809-1.6,1.374-.16,1.825,1.168,1.245a51.006,51.006,0,0,0,5.658-3.283c.916-.68,3.917-3.719,4.238-3.971a10.935,10.935,0,0,1,3.512-3.558,34.863,34.863,0,0,1,3.971-1.848c6.49-2.634,17.356-9.476,18.013-12.721,1.413-6.994,8.69-29.864,7.735-35.392a4.581,4.581,0,0,0-3.115-3.459Z" transform="translate(-377.836 -162.97)" fill="#febfbf"/>
            <g id="Grupo_62463" data-name="Grupo 62463" transform="translate(5.732 76.929)">
              <path id="Trazado_132394" data-name="Trazado 132394" d="M425.95,256.542c-.618,1.038-1.825,2.405-6.7,5.925s-14.256,7.361-14.615,7.636-2.069,2.008-2.069,2.008l-1.26.1-1.855-1.031.2.618.725.977a4.016,4.016,0,0,1-.527,1.756c-.458.672-2.482,2.833-2.909,3.314a43.525,43.525,0,0,1-5.635,3.383,1.275,1.275,0,0,1-1.038-.13c.145.328.489.519,1.168.221a51.005,51.005,0,0,0,5.658-3.283c.916-.68,3.917-3.719,4.238-3.971a10.934,10.934,0,0,1,3.513-3.558,34.86,34.86,0,0,1,3.971-1.848c5.773-2.344,15.012-8.018,17.432-11.53C426.171,256.611,426.072,256.367,425.95,256.542Z" transform="translate(-385.152 -252.152)" fill="#fa9698"/>
              <path id="Trazado_132395" data-name="Trazado 132395" d="M390.289,284.253l-.344.214.451-.214,2.924-2.779.214-.473-3.23,2.825a24.1,24.1,0,0,1-4.581,1.527c-1,0-1.2-.084-1.176-.58a1.741,1.741,0,0,1,.5-1.023c.206-.29,2.672-.618,3.215-.9s2.909-1.817,2.909-1.817-1.665.947-3.1,1.6a10.621,10.621,0,0,1-2.986.764c-.252.084-.58.657-.58.657h-.489a1.023,1.023,0,0,1-.229-.764.8.8,0,0,1,.466-.573l3.612-1.229,2.184-1.451-2.222,1.168s-2.879,1-3.413,1.138a1.367,1.367,0,0,0-.848,1.13c0,.825.886.893.886.893s-.29,1.329.718,1.413,4.772-1.436,4.9-1.527A.153.153,0,0,1,390.289,284.253Z" transform="translate(-383.57 -257.718)" fill="#fa9698"/>
              <path id="Trazado_132396" data-name="Trazado 132396" d="M427.763,252.154c1.817-1.13.053.4,1.657.428s4.345-.145,4.345-.145l-1.527-.451c-3.176-.611-3.36-1.176-3.36-1.176-.367.458-.764.909-1.138,1.344Z" transform="translate(-394.013 -250.81)" fill="#fa9698"/>
            </g>
            <path id="Trazado_132397" data-name="Trazado 132397" d="M406.934,279.3a7.008,7.008,0,0,1-.26-2.008,12.212,12.212,0,0,0,.557-2.871,3.405,3.405,0,0,0-2.031-3.268c-1.428-.458-2.5-.764-3.467,1.252s2.237,2.757,2.375,3.36a21.173,21.173,0,0,0,.176,2.772C404.567,279.532,406.537,281.1,406.934,279.3Z" transform="translate(-382.09 -178.611)" fill="#febfbf"/>
            <path id="Trazado_132398" data-name="Trazado 132398" d="M403.58,220.581h0a2.8,2.8,0,0,1-.092,1.466c-.275.5-4.429,1.4-4.429,1.4l-4.864,1.237s3.818.55,4.581.489,2.543.122,2.023,1.176-6.391.443-8.033.451-2.329-.71-4.36-.7-7.04,4.108-9.163,3.108-4.23-5.093-2.6-7.949,5.505-1.6,7.315-1.588a15.05,15.05,0,0,0,4.581-.863,3.512,3.512,0,0,0,1.794-1.878,15.27,15.27,0,0,1,1.939-1.871c.611-.542,3.474-2.94,3.726-3.238s.725-1.084.909-1.313.6-.8,1.069-.26l.038.046c.412.512.115.962-.145,1.855a8.879,8.879,0,0,1-2.046,2.459l-1.787,1.779a1.97,1.97,0,0,0,1.122.626.986.986,0,0,0,.26.038h0a15.927,15.927,0,0,0,1.962-.092h.015c2.344-.206,5.7-.634,6.437-.519s.458.985.382,1.458a.481.481,0,0,0,0,.275.1.1,0,0,0,.107.046c.458-.076.87.58.924,1.451a.58.58,0,0,1-.252.519,2.764,2.764,0,0,1-1.413.389Z" transform="translate(-376.063 -164.238)" fill="#febfbf"/>
            <path id="Trazado_132399" data-name="Trazado 132399" d="M413.242,177.5a109.169,109.169,0,0,1-.367,11.057c-.458,3.008-1.458,4.8,1.939,5.9,1.94.634,9.232-1.374,12.271-4.772.267-.412-.535-.939-1.222-3.314a21.541,21.541,0,0,1-1.176-8.147c0-4.681-.214-8.964-.214-8.964Z" transform="translate(-384.649 -154.601)" fill="#ffadb7"/>
            <path id="Trazado_132400" data-name="Trazado 132400" d="M412.94,190.908a6.621,6.621,0,0,0,2.291-.29c4.635-1.168,5.895-1.4,7.3,0s.886,2.924-.687,4.581a14.508,14.508,0,0,0,5.345-3.436c.26-.4-.542-.939-1.229-3.322a21.678,21.678,0,0,1-1.138-8.132v-2.23L413.2,188.709c-.061.764-.115,1.466-.2,1.978A.8.8,0,0,1,412.94,190.908Z" transform="translate(-384.782 -156.686)" fill="url(#linear-gradient-6)"/>
            <path id="Trazado_132401" data-name="Trazado 132401" d="M416.119,150.839s-7.7,1.611-9.705,7.5-1.68,6.147-1.527,8.506-.634,5.666.275,9.507,1.794,7.094,3.543,7.674,11.706-1.428,15.333-8.216,7.04-12.981,4.268-19.326C426.313,152.061,420,149.862,416.119,150.839Z" transform="translate(-382.837 -150.191)" fill="#febfbf"/>
            <path id="Trazado_132402" data-name="Trazado 132402" d="M429.2,156.811c-1.458-3.856-3.337-4.581-3.337-4.581s-1.8-1.97-6.872-1.97a15.966,15.966,0,0,0-11.041,4.65c-2.734,2.986-1.6,4.581-1.6,4.581v-.046a1.115,1.115,0,0,1,1.481-.6c1.306.519,1.84,1.527,2.909,1.909,7.475,2.634,8.972.634,9.591,4.093s.954,4.727,2.52,4.177c2.512-.878,2.4-.328,3.627,1.367a42.755,42.755,0,0,1-1.7,4.9s.069,1.581,2.94-4.757C428.828,167.937,431.623,164.417,429.2,156.811Z" transform="translate(-383.169 -150.109)" fill="#ff6d67"/>
            <path id="Trazado_132403" data-name="Trazado 132403" d="M429.109,175.467a3.054,3.054,0,0,1,3.558-1.611c2.474.672,2.008,3.49-.641,6.009s-3.3-.451-3.428-.641S429.758,177.2,429.109,175.467Z" transform="translate(-388.481 -155.661)" fill="url(#linear-gradient-7)"/>
            <path id="Trazado_132404" data-name="Trazado 132404" d="M430.331,176.154s1.092-1.29,2.153-.764c1.634.855-.725,3.535-.954,3.871s-1.436.206-1.573-.611S431.163,177.185,430.331,176.154Z" transform="translate(-388.803 -156.02)" fill="url(#linear-gradient-8)"/>
            <path id="Trazado_132405" data-name="Trazado 132405" d="M425.26,172.08a16.8,16.8,0,0,1,.359,5.124,12.981,12.981,0,0,0,.573,4.971,15.369,15.369,0,0,1,0-4.879c.481-1.779,1.4-2.726,1.275-3.7S425.26,172.08,425.26,172.08Z" transform="translate(-387.694 -155.267)" fill="#ff6d67"/>
            <path id="Trazado_132406" data-name="Trazado 132406" d="M400.165,217.1a.986.986,0,0,0,.26.038l-1.138.053-1.817-.725,2.161-.985s2.566-2.634,2.8-3.054a14.431,14.431,0,0,0,.588-2.016c.412.512.115.962-.145,1.855a8.879,8.879,0,0,1-2.046,2.459l-1.787,1.779A1.97,1.97,0,0,0,400.165,217.1Z" transform="translate(-381.124 -164.329)" fill="#fa9698"/>
            <path id="Trazado_132407" data-name="Trazado 132407" d="M407.2,221.139c-1.527.229-5.994.512-5.994.512l8.926-1.321a.481.481,0,0,0,0,.275C409.449,220.727,408.349,220.971,407.2,221.139Z" transform="translate(-382.009 -166.675)" fill="#fa9698"/>
            <path id="Trazado_132408" data-name="Trazado 132408" d="M411.054,223.33a2.764,2.764,0,0,1-1.382.4h0c-.389,0-2.169.374-3.642.512s-3.818.412-4.2.451c.672-.107,7.865-1.245,8.606-1.245a2.291,2.291,0,0,0,.618-.115Z" transform="translate(-382.155 -167.384)" fill="#fa9698"/>
          </g>
          <path id="Trazado_132409" data-name="Trazado 132409" d="M441.97,204.315s2.436,2.008,2.436,4.734-2.718,15.272-3.6,17.562c-4.307.5-10.965-1.466-11.125-2.772s1.6-10.262,3.146-14.271S437.236,202.337,441.97,204.315Z" transform="translate(-388.411 -162.747)" fill="#f9aac2"/>
        </g>
      </g>
    </g>
  </g>
</svg>
