<svg xmlns="http://www.w3.org/2000/svg" xmlns:xlink="http://www.w3.org/1999/xlink" width="327.804" height="340.827" viewBox="0 0 327.804 340.827">
  <defs>
    <linearGradient id="linear-gradient" x1="0.404" y1="0.32" x2="0.906" y2="0.982" gradientUnits="objectBoundingBox">
      <stop offset="0.37" stop-color="#f9aac2"/>
      <stop offset="0.44" stop-color="#f25585"/>
    </linearGradient>
  </defs>
  <g id="Grupo_124802" data-name="Grupo 124802" transform="translate(-301.721 -555)">
    <g id="CF8_1.4_Declaraciones_de_cambio_1" data-name="CF8_1.4 Declaraciones de cambio 1" transform="translate(251.913 505.152)">
      <g id="Grupo_62413" data-name="Grupo 62413" transform="translate(137.203 92.876)">
        <g id="Grupo_62410" data-name="Grupo 62410">
          <path id="Trazado_132092" data-name="Trazado 132092" d="M191.764,236.017l15.878-9.168-15.878-9.168-15.886,9.168h0L160,236.017l15.878,9.168h0l15.886,9.176,15.878-9.176-15.878-9.168Z" transform="translate(-160 -127.598)" fill="#dad5ed"/>
          <path id="Trazado_132093" data-name="Trazado 132093" d="M200.05,192.069v-67.24l15.878-9.168V182.9Z" transform="translate(-168.286 -106.492)" fill="#173d7a"/>
          <path id="Trazado_132094" data-name="Trazado 132094" d="M195.906,124.828,180.02,115.66V182.9l15.886,9.168Z" transform="translate(-164.142 -106.492)" fill="#396caa"/>
          <path id="Trazado_132095" data-name="Trazado 132095" d="M211.784,113.268,195.906,104.1l-15.886,9.168,15.886,9.168Z" transform="translate(-164.142 -104.1)" fill="#dad5ed"/>
        </g>
        <path id="Trazado_132096" data-name="Trazado 132096" d="M215.928,213.468,200.05,204.3v6.107l15.878,9.168Z" transform="translate(-168.286 -124.83)" fill="#95d359"/>
        <g id="Grupo_62411" data-name="Grupo 62411" transform="translate(0 27.505)">
          <path id="Trazado_132097" data-name="Trazado 132097" d="M180.02,208.412v-48.9l15.886-9.168v48.9Z" transform="translate(-164.142 -141.172)" fill="#c13d1a"/>
          <path id="Trazado_132098" data-name="Trazado 132098" d="M175.878,159.508,160,150.34v48.9l15.878,9.168Z" transform="translate(-160 -141.172)" fill="#db5126"/>
          <path id="Trazado_132099" data-name="Trazado 132099" d="M191.764,147.948l-15.886-9.168L160,147.948l15.878,9.168Z" transform="translate(-160 -138.78)" fill="#ef602e"/>
          <path id="Trazado_132100" data-name="Trazado 132100" d="M180.02,208.412v-48.9l15.886-9.168v48.9Z" transform="translate(-164.142 -141.172)" fill="#396caa"/>
          <path id="Trazado_132101" data-name="Trazado 132101" d="M175.878,159.508,160,150.34v48.9l15.878,9.168Z" transform="translate(-160 -141.172)" fill="#5793ce"/>
          <path id="Trazado_132102" data-name="Trazado 132102" d="M191.764,147.948l-15.886-9.168L160,147.948l15.878,9.168Z" transform="translate(-160 -138.78)" fill="#dad5ed"/>
        </g>
        <g id="Grupo_62412" data-name="Grupo 62412" transform="translate(15.878 58.072)">
          <path id="Trazado_132103" data-name="Trazado 132103" d="M200.05,225.562V198.048l15.878-9.168v27.505Z" transform="translate(-184.164 -179.712)" fill="#173d7a"/>
          <path id="Trazado_132104" data-name="Trazado 132104" d="M195.906,198.048,180.02,188.88v27.505l15.886,9.176Z" transform="translate(-180.02 -179.712)" fill="#396caa"/>
          <path id="Trazado_132105" data-name="Trazado 132105" d="M211.784,186.488l-15.878-9.168-15.886,9.168,15.886,9.168Z" transform="translate(-180.02 -177.32)" fill="#dad5ed"/>
        </g>
      </g>
      <g id="Grupo_62414" data-name="Grupo 62414" transform="translate(363.298 230.669)">
        <rect id="Rectángulo_7203" data-name="Rectángulo 7203" width="1.903" height="5.528" transform="translate(13.547 0) rotate(75.63)" fill="#5793ce"/>
        <rect id="Rectángulo_7204" data-name="Rectángulo 7204" width="1.903" height="5.528" transform="matrix(0.248, 0.969, -0.969, 0.248, 10.874, 2.681)" fill="#5793ce"/>
        <rect id="Rectángulo_7205" data-name="Rectángulo 7205" width="1.903" height="5.528" transform="matrix(0.248, 0.969, -0.969, 0.248, 8.136, 5.34)" fill="#5793ce"/>
        <rect id="Rectángulo_7206" data-name="Rectángulo 7206" width="1.903" height="5.528" transform="translate(5.355 7.991) rotate(75.63)" fill="#5793ce"/>
      </g>
      <g id="Grupo_62419" data-name="Grupo 62419" transform="translate(113.405 105.282)">
        <g id="Grupo_62417" data-name="Grupo 62417">
          <path id="Trazado_132106" data-name="Trazado 132106" d="M252.274,418.153,132.332,348.883c-3.395-1.959-2.974-5.377.944-7.638L214.966,294.1c3.918-2.26,9.851-2.506,13.237-.547L348.114,362.8c3.395,1.959,2.966,5.385-.952,7.646l-81.691,47.135C261.594,419.851,255.669,420.1,252.274,418.153Z" transform="translate(-130.003 -155.428)" fill="#dad5ed"/>
          <g id="Grupo_62415" data-name="Grupo 62415" transform="translate(89.746)">
            <path id="Trazado_132107" data-name="Trazado 132107" d="M376.627,190.9,254.7,120.557a4.672,4.672,0,0,0-4.172-.555h0l-.206.1h-.048l-3.966,1.872,4.307,2.141V224.5c0,5.012,3.1,10.858,6.924,13.071L376.214,306.02l.674,5.591,4.338-2.07c1.428-.841,2.332-2.736,2.324-5.433V203.961C383.559,198.949,380.45,193.1,376.627,190.9Z" transform="translate(-243.804 -119.743)" fill="#173d7a"/>
            <path id="Trazado_132108" data-name="Trazado 132108" d="M376.627,190.9,254.7,120.557a4.672,4.672,0,0,0-4.172-.555h0l-.206.1h-.048l-3.966,1.872,4.307,2.141v66.241l55.518,43.843,75.346-37.919A13.705,13.705,0,0,0,376.627,190.9Z" transform="translate(-243.804 -119.743)" fill="#396caa"/>
            <path id="Trazado_132109" data-name="Trazado 132109" d="M410.072,211.44l-11.952,5.028,9.026,6.948,7.535-3.173A17.607,17.607,0,0,0,410.072,211.44Z" transform="translate(-275.211 -138.713)" fill="#274f89"/>
            <path id="Trazado_132110" data-name="Trazado 132110" d="M372.007,311.575,250.082,241.225c-3.823-2.2-6.924-8.05-6.932-13.063V128.016c0-5.012,3.093-7.281,6.916-5.076l121.926,70.333c3.823,2.2,6.924,8.058,6.932,13.071V306.483C378.931,311.5,375.83,313.772,372.007,311.575Z" transform="translate(-243.15 -120.23)" fill="#dad5ed"/>
            <path id="Trazado_132111" data-name="Trazado 132111" d="M369.132,306.027,255.265,240.373c-3.5-2.015-6.345-7.376-6.345-11.96l-.04-91.637c0-4.584,2.839-6.67,6.345-4.648l113.868,65.654c3.5,2.022,6.345,7.376,6.345,11.96v91.637C375.469,305.971,372.638,308.049,369.132,306.027Z" transform="translate(-244.335 -122.145)" fill="#fff"/>
            <path id="Trazado_132112" data-name="Trazado 132112" d="M369.132,306.027,255.265,240.373c-3.5-2.015-6.345-7.376-6.345-11.96l-.04-91.637c0-4.584,2.839-6.67,6.345-4.648l113.868,65.654c3.5,2.022,6.345,7.376,6.345,11.96v91.637C375.469,305.971,372.638,308.049,369.132,306.027Z" transform="translate(-244.335 -122.145)" fill="#fff"/>
          </g>
          <path id="Trazado_132113" data-name="Trazado 132113" d="M350.413,348.06l-16.394-2.165L228.179,284.785c-3.387-1.959-9.319-1.713-13.237.547l-75,43.288L130,327.312v5.623h0a3.841,3.841,0,0,0,2.276,3.474l119.943,69.255c3.395,1.959,9.319,1.713,13.237-.547l81.691-47.143c2.2-1.269,3.3-2.911,3.236-4.449h0Z" transform="translate(-129.994 -153.614)" fill="#173d7a"/>
          <path id="Trazado_132114" data-name="Trazado 132114" d="M270.9,315.088l-7.519-4.338H180.7l-40.758,23.516L130,332.957v5.623h0a3.841,3.841,0,0,0,2.276,3.474l119.943,69.255a12.452,12.452,0,0,0,6.829,1.277Z" transform="translate(-129.994 -159.259)" fill="#396caa"/>
          <path id="Trazado_132115" data-name="Trazado 132115" d="M134.441,339.329l-4.4-.579v5.623h0a3.841,3.841,0,0,0,2.276,3.474l2.11,1.221Z" transform="translate(-130.002 -165.052)" fill="#5793ce"/>
          <path id="Trazado_132116" data-name="Trazado 132116" d="M285.68,434.8a15.4,15.4,0,0,0,11.246-.7V421.55H285.68Z" transform="translate(-162.203 -182.182)" fill="#274f89"/>
          <path id="Trazado_132117" data-name="Trazado 132117" d="M252.274,397.61,132.332,328.363c-3.395-1.959-2.974-5.385.944-7.646l81.691-47.135c3.918-2.26,9.851-2.506,13.237-.547l119.911,69.247c3.395,1.959,2.966,5.377-.952,7.646l-81.691,47.135C261.594,399.323,255.669,399.569,252.274,397.61Z" transform="translate(-130.003 -151.183)" fill="#dad5ed"/>
          <path id="Trazado_132118" data-name="Trazado 132118" d="M347.189,361.513,265.5,408.648c-3.918,2.26-9.843,2.506-13.237.547L132.334,339.948a4.434,4.434,0,0,1-2.11-2.308c-.531,1.586.143,3.228,2.11,4.362l119.943,69.247c3.395,1.959,9.319,1.713,13.237-.547L347.2,363.567c2.633-1.523,3.68-3.569,3.061-5.338A6.408,6.408,0,0,1,347.189,361.513Z" transform="translate(-130.006 -164.822)" fill="#fff"/>
          <g id="Grupo_62416" data-name="Grupo 62416" transform="translate(47.62 124.791)">
            <path id="Trazado_132119" data-name="Trazado 132119" d="M195.757,312.12l-5.425-3.172c-.436-.246-.389-.69.119-.983l6.408-3.7a1.92,1.92,0,0,1,1.7-.071l5.425,3.133c.436.254.381.69-.119.983l-6.408,3.7A1.864,1.864,0,0,1,195.757,312.12Z" transform="translate(-190.035 -282.66)" fill="#173d7a"/>
            <path id="Trazado_132120" data-name="Trazado 132120" d="M206.332,318.231l-5.409-3.133c-.436-.246-.381-.69.127-.976l6.4-3.7a1.935,1.935,0,0,1,1.705-.071l5.425,3.133c.436.254.381.7-.119.983l-6.4,3.7A1.887,1.887,0,0,1,206.332,318.231Z" transform="translate(-192.227 -283.932)" fill="#173d7a"/>
            <path id="Trazado_132121" data-name="Trazado 132121" d="M216.888,324.331l-5.425-3.133c-.436-.246-.381-.69.119-.976l6.408-3.7a1.919,1.919,0,0,1,1.7-.071l5.433,3.172c.436.246.381.69-.127.976l-6.4,3.7A1.911,1.911,0,0,1,216.888,324.331Z" transform="translate(-194.407 -285.194)" fill="#173d7a"/>
            <path id="Trazado_132122" data-name="Trazado 132122" d="M231.507,319.454l-5.433-3.133c-.428-.254-.381-.7.127-.983l5.377-3.109a1.887,1.887,0,0,1,1.7-.063l5.425,3.172c.436.246.389.69-.119.976l-5.377,3.109a1.92,1.92,0,0,1-1.7.032Z" transform="translate(-197.431 -284.307)" fill="#173d7a"/>
            <path id="Trazado_132123" data-name="Trazado 132123" d="M242.068,325.554l-5.425-3.133c-.436-.254-.381-.69.127-.983l5.377-3.109a1.888,1.888,0,0,1,1.7-.063l5.425,3.133c.436.246.381.69-.119.976l-5.377,3.109A1.935,1.935,0,0,1,242.068,325.554Z" transform="translate(-199.617 -285.569)" fill="#173d7a"/>
            <path id="Trazado_132124" data-name="Trazado 132124" d="M252.638,331.644l-5.425-3.172c-.436-.254-.381-.69.119-.983l5.377-3.1a1.888,1.888,0,0,1,1.705-.071l5.425,3.133c.436.246.381.69-.119.983l-5.377,3.1A1.888,1.888,0,0,1,252.638,331.644Z" transform="translate(-201.804 -286.821)" fill="#173d7a"/>
            <path id="Trazado_132125" data-name="Trazado 132125" d="M263.208,337.754l-5.425-3.133c-.436-.254-.381-.69.119-.983l5.377-3.1a1.864,1.864,0,0,1,1.7-.071l5.433,3.133c.436.254.381.69-.127.983l-5.377,3.1A1.864,1.864,0,0,1,263.208,337.754Z" transform="translate(-203.99 -288.093)" fill="#173d7a"/>
            <path id="Trazado_132126" data-name="Trazado 132126" d="M273.776,343.854l-5.433-3.133c-.436-.254-.381-.69.127-.983l5.377-3.1a1.864,1.864,0,0,1,1.7-.071l5.425,3.133c.436.254.381.69-.119.983l-5.377,3.1a1.864,1.864,0,0,1-1.7.071Z" transform="translate(-206.175 -289.355)" fill="#173d7a"/>
            <path id="Trazado_132127" data-name="Trazado 132127" d="M284.34,349.965l-5.417-3.093c-.436-.254-.381-.69.119-.983l5.377-3.1a1.887,1.887,0,0,1,1.705-.071l5.425,3.172c.436.254.381.69-.119.983l-5.369,3.022A1.888,1.888,0,0,1,284.34,349.965Z" transform="translate(-208.364 -290.628)" fill="#173d7a"/>
            <path id="Trazado_132128" data-name="Trazado 132128" d="M294.908,356.054l-5.425-3.133c-.436-.254-.381-.69.119-.983l5.377-3.1a1.888,1.888,0,0,1,1.705-.071l5.425,3.133c.436.254.381.69-.127.983l-5.377,3.1A1.864,1.864,0,0,1,294.908,356.054Z" transform="translate(-210.549 -291.88)" fill="#173d7a"/>
            <path id="Trazado_132129" data-name="Trazado 132129" d="M305.507,362.144l-5.425-3.172c-.436-.246-.389-.69.119-.976l5.377-3.109a1.864,1.864,0,0,1,1.7-.071l5.433,3.133c.428.254.381.69-.127.983l-5.4,3.133a1.864,1.864,0,0,1-1.673.079Z" transform="translate(-212.741 -293.131)" fill="#173d7a"/>
            <path id="Trazado_132130" data-name="Trazado 132130" d="M316.046,368.256l-5.433-3.133c-.436-.246-.381-.69.127-.976l5.377-3.109a1.919,1.919,0,0,1,1.7-.071l5.425,3.133c.436.254.381.69-.119.983l-5.377,3.109A1.888,1.888,0,0,1,316.046,368.256Z" transform="translate(-214.92 -294.405)" fill="#173d7a"/>
            <path id="Trazado_132131" data-name="Trazado 132131" d="M326.608,374.356l-5.425-3.172c-.436-.246-.381-.69.119-.976l5.377-3.109a1.935,1.935,0,0,1,1.705-.071l5.425,3.133c.436.254.381.7-.119.984l-5.377,3.109A1.935,1.935,0,0,1,326.608,374.356Z" transform="translate(-217.107 -295.659)" fill="#173d7a"/>
            <path id="Trazado_132132" data-name="Trazado 132132" d="M247.077,316.564l-5.433-3.133c-.428-.254-.381-.69.127-.983l5.377-3.1a1.864,1.864,0,0,1,1.7-.071l5.433,3.133c.428.246.381.69-.127.976l-5.377,3.109A1.864,1.864,0,0,1,247.077,316.564Z" transform="translate(-200.652 -283.709)" fill="#396caa"/>
            <path id="Trazado_132133" data-name="Trazado 132133" d="M236.348,310.374l-5.425-3.133c-.436-.254-.381-.7.119-.983l5.377-3.109a1.935,1.935,0,0,1,1.705-.071l5.425,3.172c.436.246.381.69-.119.976l-5.369,3.077a1.935,1.935,0,0,1-1.713.071Z" transform="translate(-198.433 -282.428)" fill="#396caa"/>
            <path id="Trazado_132134" data-name="Trazado 132134" d="M223.974,303.223l-11.691-6.741c-.436-.254-.381-.7.127-.983l5.377-3.109a1.919,1.919,0,0,1,1.7-.071l11.691,6.749c.436.254.381.69-.127.983l-5.377,3.085A1.888,1.888,0,0,1,223.974,303.223Z" transform="translate(-194.577 -280.202)" fill="#173d7a"/>
            <path id="Trazado_132135" data-name="Trazado 132135" d="M232.051,296.014l-9.517-5.472c-.436-.254-.381-.7.119-.983l5.377-3.109a1.911,1.911,0,0,1,1.705-.063l9.517,5.472c.436.254.381.69-.127.983l-5.377,3.1A1.864,1.864,0,0,1,232.051,296.014Z" transform="translate(-196.698 -278.974)" fill="#173d7a"/>
            <path id="Trazado_132136" data-name="Trazado 132136" d="M257.638,322.664l-5.425-3.133c-.436-.254-.381-.69.127-.983l5.377-3.1a1.864,1.864,0,0,1,1.7-.071l5.425,3.133c.436.254.381.69-.119.983l-5.377,3.1a1.888,1.888,0,0,1-1.705.071Z" transform="translate(-202.838 -284.971)" fill="#396caa"/>
            <path id="Trazado_132137" data-name="Trazado 132137" d="M268.208,328.764l-5.425-3.133c-.436-.254-.381-.69.119-.983l5.377-3.1a1.888,1.888,0,0,1,1.705-.071l5.425,3.172c.436.254.381.69-.119.983l-5.377,3.1a1.888,1.888,0,0,1-1.705.032Z" transform="translate(-205.025 -286.234)" fill="#173d7a"/>
            <path id="Trazado_132138" data-name="Trazado 132138" d="M278.778,334.864l-5.425-3.133c-.436-.254-.381-.69.119-.983l5.377-3.1a1.864,1.864,0,0,1,1.7-.071l5.433,3.133c.436.254.381.69-.127.983l-5.377,3.1a1.864,1.864,0,0,1-1.7.071Z" transform="translate(-207.212 -287.495)" fill="#173d7a"/>
            <path id="Trazado_132139" data-name="Trazado 132139" d="M289.348,340.973l-5.425-3.1c-.436-.254-.381-.69.127-.983l5.377-3.1a1.864,1.864,0,0,1,1.7-.071l5.425,3.133c.436.254.381.69-.119.983l-5.369,3.069A1.864,1.864,0,0,1,289.348,340.973Z" transform="translate(-209.398 -288.766)" fill="#173d7a"/>
            <path id="Trazado_132140" data-name="Trazado 132140" d="M299.908,347.054l-5.425-3.133c-.436-.246-.381-.69.119-.983l5.377-3.1a1.888,1.888,0,0,1,1.705-.071l5.425,3.133c.436.254.381.69-.119.983l-5.377,3.1a1.887,1.887,0,0,1-1.705.071Z" transform="translate(-211.583 -290.017)" fill="#173d7a"/>
            <path id="Trazado_132141" data-name="Trazado 132141" d="M310.508,353.166l-5.425-3.133c-.436-.246-.381-.69.119-.976l5.377-3.109a1.935,1.935,0,0,1,1.705-.071l5.425,3.133c.436.254.381.69-.127.983l-5.4,3.085A1.887,1.887,0,0,1,310.508,353.166Z" transform="translate(-213.776 -291.283)" fill="#173d7a"/>
            <path id="Trazado_132142" data-name="Trazado 132142" d="M321.047,359.266l-5.425-3.133c-.436-.246-.389-.69.119-.976l5.377-3.109a1.919,1.919,0,0,1,1.7-.071l5.433,3.172c.428.254.381.7-.127.983l-5.377,3.109A1.888,1.888,0,0,1,321.047,359.266Z" transform="translate(-215.956 -292.545)" fill="#173d7a"/>
            <path id="Trazado_132143" data-name="Trazado 132143" d="M331.616,365.374l-5.433-3.133c-.436-.254-.381-.7.127-.983l5.377-3.109a1.919,1.919,0,0,1,1.7-.071l5.425,3.172c.436.246.381.69-.119.976l-5.377,3.109A1.919,1.919,0,0,1,331.616,365.374Z" transform="translate(-218.141 -293.807)" fill="#173d7a"/>
            <path id="Trazado_132144" data-name="Trazado 132144" d="M342.178,371.474l-5.425-3.133c-.436-.254-.381-.7.119-.983l5.377-3.109a1.912,1.912,0,0,1,1.705-.063l5.425,3.133c.436.246.381.69-.119.976l-5.377,3.109A1.935,1.935,0,0,1,342.178,371.474Z" transform="translate(-220.328 -295.069)" fill="#173d7a"/>
            <path id="Trazado_132145" data-name="Trazado 132145" d="M359.294,381.349l-11.841-6.837c-.436-.246-.381-.69.119-.976l5.377-3.109a1.911,1.911,0,0,1,1.705-.071l11.841,6.821c.436.254.381.69-.127.983l-5.377,3.1a1.864,1.864,0,0,1-1.7.087Z" transform="translate(-222.542 -296.347)" fill="#173d7a"/>
            <path id="Trazado_132146" data-name="Trazado 132146" d="M380.316,369.756l-9.993-5.774c-.436-.254-.381-.69.119-.983l5.377-3.1a1.887,1.887,0,0,1,1.705-.071l9.993,5.766c.436.254.381.7-.119.984l-5.377,3.109A1.935,1.935,0,0,1,380.316,369.756Z" transform="translate(-227.273 -294.168)" fill="#173d7a"/>
            <path id="Trazado_132147" data-name="Trazado 132147" d="M276.148,321.466l-5.425-3.172c-.436-.246-.381-.69.119-.976l5.377-3.109a1.919,1.919,0,0,1,1.7-.071l5.433,3.133c.436.254.381.7-.127.983l-5.377,3.109A1.919,1.919,0,0,1,276.148,321.466Z" transform="translate(-206.667 -284.716)" fill="#173d7a"/>
            <path id="Trazado_132148" data-name="Trazado 132148" d="M265.318,315.215l-5.425-3.172c-.436-.254-.381-.69.119-.983l5.377-3.1a1.872,1.872,0,0,1,1.666-.008l5.433,3.133c.436.254.381.69-.127.983l-5.306,3.077A1.864,1.864,0,0,1,265.318,315.215Z" transform="translate(-204.427 -283.431)" fill="#173d7a"/>
            <path id="Trazado_132149" data-name="Trazado 132149" d="M254.508,308.954l-5.425-3.172c-.436-.254-.381-.69.119-.983l5.377-3.1a1.871,1.871,0,0,1,1.7-.071l5.433,3.133c.436.254.381.69-.127.983l-5.377,3.1a1.864,1.864,0,0,1-1.7.111Z" transform="translate(-202.19 -282.127)" fill="#396caa"/>
            <path id="Trazado_132150" data-name="Trazado 132150" d="M243.658,302.7l-5.425-3.172c-.436-.254-.381-.69.119-.983l5.377-3.109a1.888,1.888,0,0,1,1.7-.063l5.433,3.133c.436.246.381.69-.127.976l-5.377,3.109a1.919,1.919,0,0,1-1.7.111Z" transform="translate(-199.946 -280.833)" fill="#173d7a"/>
            <path id="Trazado_132151" data-name="Trazado 132151" d="M286.717,327.574l-5.433-3.133c-.428-.254-.381-.7.127-.983l5.377-3.109a1.919,1.919,0,0,1,1.7-.071l5.425,3.172c.436.246.389.69-.119.976l-5.377,3.109A1.919,1.919,0,0,1,286.717,327.574Z" transform="translate(-208.853 -285.987)" fill="#173d7a"/>
            <path id="Trazado_132152" data-name="Trazado 132152" d="M297.278,333.674l-5.425-3.133c-.436-.254-.381-.69.127-.983l5.377-3.109a1.888,1.888,0,0,1,1.7-.063l5.425,3.133c.436.246.381.69-.119.976l-5.377,3.109a1.935,1.935,0,0,1-1.705.071Z" transform="translate(-211.039 -287.249)" fill="#173d7a"/>
            <path id="Trazado_132153" data-name="Trazado 132153" d="M307.848,339.764l-5.425-3.172c-.436-.254-.381-.69.119-.983l5.377-3.1a1.888,1.888,0,0,1,1.705-.071l5.425,3.172c.436.246.381.69-.119.976l-5.377,3.109a1.888,1.888,0,0,1-1.705.071Z" transform="translate(-213.226 -288.501)" fill="#173d7a"/>
            <path id="Trazado_132154" data-name="Trazado 132154" d="M318.418,345.874l-5.425-3.133c-.436-.254-.381-.69.119-.983l5.377-3.1a1.864,1.864,0,0,1,1.7-.071l5.433,3.133c.436.254.381.69-.127.983l-5.377,3.1a1.864,1.864,0,0,1-1.7.071Z" transform="translate(-215.412 -289.773)" fill="#173d7a"/>
            <path id="Trazado_132155" data-name="Trazado 132155" d="M328.986,351.98l-5.433-3.109c-.436-.254-.381-.69.127-.983l5.377-3.1a1.864,1.864,0,0,1,1.7-.071l5.425,3.133c.436.254.381.69-.119.984l-5.377,3.1a1.864,1.864,0,0,1-1.7.048Z" transform="translate(-217.597 -291.041)" fill="#173d7a"/>
            <path id="Trazado_132156" data-name="Trazado 132156" d="M339.508,358.054l-5.425-3.133c-.436-.254-.381-.69.119-.983l5.377-3.1a1.888,1.888,0,0,1,1.705-.071l5.425,3.133c.436.254.381.69-.119.983l-5.377,3.1A1.888,1.888,0,0,1,339.508,358.054Z" transform="translate(-219.776 -292.293)" fill="#173d7a"/>
            <path id="Trazado_132157" data-name="Trazado 132157" d="M350.118,364.17l-5.425-3.133c-.436-.254-.381-.69.119-.983l5.377-3.117a1.888,1.888,0,0,1,1.705-.071L357.32,360c.436.254.381.69-.127.983l-5.377,3.093A1.864,1.864,0,0,1,350.118,364.17Z" transform="translate(-221.971 -293.555)" fill="#173d7a"/>
            <path id="Trazado_132158" data-name="Trazado 132158" d="M360.687,370.264l-5.425-3.172c-.436-.246-.389-.69.119-.976l5.377-3.109a1.864,1.864,0,0,1,1.7-.071l5.433,3.172c.428.254.381.69-.127.983l-5.377,3.1a1.864,1.864,0,0,1-1.7.071Z" transform="translate(-224.157 -294.811)" fill="#173d7a"/>
            <path id="Trazado_132159" data-name="Trazado 132159" d="M371.256,376.376l-5.433-3.133c-.436-.246-.381-.69.127-.976l5.377-3.109a1.919,1.919,0,0,1,1.7-.071l5.425,3.133c.436.254.381.69-.119.983l-5.377,3.109a1.887,1.887,0,0,1-1.7.063Z" transform="translate(-226.342 -296.085)" fill="#173d7a"/>
            <path id="Trazado_132160" data-name="Trazado 132160" d="M270.586,306.376l-5.433-3.133c-.436-.246-.381-.69.127-.976l5.377-3.109a1.919,1.919,0,0,1,1.7-.071l5.425,3.133c.436.254.381.7-.119.983l-5.377,3.109A1.888,1.888,0,0,1,270.586,306.376Z" transform="translate(-205.515 -281.603)" fill="#173d7a"/>
            <path id="Trazado_132161" data-name="Trazado 132161" d="M260.068,300.306l-5.425-3.133c-.436-.246-.381-.69.119-.976l5.377-3.109a1.935,1.935,0,0,1,1.705-.071l5.425,3.133c.436.254.381.69-.127.983l-5.377,3.109A1.888,1.888,0,0,1,260.068,300.306Z" transform="translate(-203.341 -280.347)" fill="#173d7a"/>
            <path id="Trazado_132162" data-name="Trazado 132162" d="M249.556,294.235l-5.433-3.133c-.436-.246-.381-.69.127-.976l5.377-3.109a1.9,1.9,0,0,1,1.7-.071l5.425,3.133c.436.254.381.69-.119.983l-5.377,3.1A1.864,1.864,0,0,1,249.556,294.235Z" transform="translate(-201.164 -279.091)" fill="#173d7a"/>
            <path id="Trazado_132163" data-name="Trazado 132163" d="M239.038,288.164l-5.425-3.133c-.436-.246-.381-.69.119-.983l5.377-3.1a1.888,1.888,0,0,1,1.705-.071l5.425,3.133c.436.254.381.69-.119.983l-5.377,3.085A1.888,1.888,0,0,1,239.038,288.164Z" transform="translate(-198.99 -277.834)" fill="#173d7a"/>
            <path id="Trazado_132164" data-name="Trazado 132164" d="M249.848,282.466l-5.425-3.133c-.436-.254-.381-.69.127-.983l1.777-1.023a1.864,1.864,0,0,1,1.7-.071l5.425,3.133c.436.254.381.69-.119.983l-1.777,1.023A1.887,1.887,0,0,1,249.848,282.466Z" transform="translate(-201.227 -277.085)" fill="#173d7a"/>
            <path id="Trazado_132165" data-name="Trazado 132165" d="M263.576,290.376l-5.433-3.172c-.436-.254-.381-.69.127-.983l1.777-1.023a1.864,1.864,0,0,1,1.7-.071l5.425,3.133c.436.254.389.69-.119.983l-1.777,1.023A1.864,1.864,0,0,1,263.576,290.376Z" transform="translate(-204.065 -278.713)" fill="#173d7a"/>
            <path id="Trazado_132166" data-name="Trazado 132166" d="M274.046,296.436l-5.433-3.133c-.436-.254-.381-.69.127-.983l1.777-1.023a1.864,1.864,0,0,1,1.7-.071l5.433,3.172c.428.246.381.69-.127.983l-1.777,1.023A1.864,1.864,0,0,1,274.046,296.436Z" transform="translate(-206.231 -279.975)" fill="#173d7a"/>
            <path id="Trazado_132167" data-name="Trazado 132167" d="M284.507,302.477l-5.433-3.133c-.428-.246-.381-.69.127-.976l1.777-1.031a1.9,1.9,0,0,1,1.7-.071l5.433,3.133c.436.254.381.69-.127.983l-1.777,1.023A1.864,1.864,0,0,1,284.507,302.477Z" transform="translate(-208.396 -281.226)" fill="#173d7a"/>
            <path id="Trazado_132168" data-name="Trazado 132168" d="M294.988,308.531l-5.425-3.117c-.436-.254-.381-.69.119-.983l1.777-1.023a1.872,1.872,0,0,1,1.7-.071l5.433,3.133c.436.254.381.69-.127.983l-1.777,1.023a1.864,1.864,0,0,1-1.7.055Z" transform="translate(-210.565 -282.481)" fill="#173d7a"/>
            <path id="Trazado_132169" data-name="Trazado 132169" d="M353.446,342.276l-5.433-3.133c-.436-.254-.381-.69.127-.983l1.777-1.023a1.864,1.864,0,0,1,1.7-.071l5.425,3.133c.436.254.381.69-.119.984l-1.777,1.023A1.872,1.872,0,0,1,353.446,342.276Z" transform="translate(-222.658 -289.459)" fill="#173d7a"/>
            <path id="Trazado_132170" data-name="Trazado 132170" d="M363.916,348.308l-5.433-3.172c-.436-.246-.381-.69.127-.976l1.777-1.031a1.919,1.919,0,0,1,1.7-.071l5.425,3.172c.436.254.389.7-.119.983l-1.777,1.031A1.888,1.888,0,0,1,363.916,348.308Z" transform="translate(-224.824 -290.7)" fill="#173d7a"/>
            <path id="Trazado_132171" data-name="Trazado 132171" d="M374.38,354.366l-5.457-3.133c-.436-.254-.381-.69.127-.983l1.777-1.023a1.864,1.864,0,0,1,1.7-.071l5.433,3.133c.436.254.381.69-.127.983l-1.769,1.023A1.864,1.864,0,0,1,374.38,354.366Z" transform="translate(-226.984 -291.96)" fill="#173d7a"/>
            <path id="Trazado_132172" data-name="Trazado 132172" d="M384.857,360.408l-5.425-3.133c-.436-.246-.389-.69.119-.976l1.777-1.031a1.919,1.919,0,0,1,1.7-.071l5.433,3.133c.436.254.381.7-.127.983l-1.777,1.031A1.887,1.887,0,0,1,384.857,360.408Z" transform="translate(-229.157 -293.211)" fill="#173d7a"/>
            <path id="Trazado_132173" data-name="Trazado 132173" d="M281.148,312.484l-5.425-3.133c-.436-.254-.381-.7.119-.983l5.377-3.109a1.935,1.935,0,0,1,1.705-.071l5.425,3.172c.436.246.381.69-.119.976l-5.377,3.109A1.935,1.935,0,0,1,281.148,312.484Z" transform="translate(-207.702 -282.865)" fill="#173d7a"/>
            <path id="Trazado_132174" data-name="Trazado 132174" d="M291.718,318.584l-5.425-3.133c-.436-.254-.381-.69.119-.983l5.377-3.109a1.911,1.911,0,0,1,1.705-.063l5.425,3.172c.436.246.381.69-.127.976l-5.377,3.109A1.92,1.92,0,0,1,291.718,318.584Z" transform="translate(-209.889 -284.127)" fill="#173d7a"/>
            <path id="Trazado_132175" data-name="Trazado 132175" d="M302.287,324.684l-5.433-3.133c-.428-.254-.381-.69.127-.983l5.377-3.1a1.864,1.864,0,0,1,1.7-.071l5.425,3.133c.436.246.389.69-.119.976l-5.377,3.109A1.864,1.864,0,0,1,302.287,324.684Z" transform="translate(-212.074 -285.389)" fill="#173d7a"/>
            <path id="Trazado_132176" data-name="Trazado 132176" d="M312.848,330.774l-5.425-3.172c-.436-.254-.381-.69.127-.983l5.377-3.1a1.864,1.864,0,0,1,1.7-.071l5.425,3.133c.436.254.381.69-.119.983l-5.377,3.1a1.888,1.888,0,0,1-1.705.111Z" transform="translate(-214.26 -286.641)" fill="#173d7a"/>
            <path id="Trazado_132177" data-name="Trazado 132177" d="M323.418,336.884l-5.425-3.133c-.436-.254-.381-.69.119-.983l5.377-3.1a1.888,1.888,0,0,1,1.705-.071l5.425,3.133c.436.254.381.69-.119.983l-5.377,3.1a1.888,1.888,0,0,1-1.705.071Z" transform="translate(-216.447 -287.913)" fill="#173d7a"/>
            <path id="Trazado_132178" data-name="Trazado 132178" d="M333.988,342.988l-5.425-3.117c-.436-.254-.381-.69.119-.983l5.377-3.1a1.864,1.864,0,0,1,1.7-.071l5.433,3.133c.436.254.381.69-.127.983l-5.377,3.1a1.864,1.864,0,0,1-1.7.055Z" transform="translate(-218.634 -289.179)" fill="#173d7a"/>
            <path id="Trazado_132179" data-name="Trazado 132179" d="M344.556,349.054l-5.433-3.133c-.436-.254-.381-.69.127-.983l5.377-3.1a1.864,1.864,0,0,1,1.7-.071l5.425,3.172c.436.254.381.69-.119.983l-5.377,3.1A1.864,1.864,0,0,1,344.556,349.054Z" transform="translate(-220.819 -290.431)" fill="#173d7a"/>
            <path id="Trazado_132180" data-name="Trazado 132180" d="M355.118,355.178l-5.425-3.133c-.436-.254-.381-.69.119-.983l5.377-3.125a1.888,1.888,0,0,1,1.705-.071L362.32,351c.436.254.381.69-.119.983l-5.377,3.093A1.888,1.888,0,0,1,355.118,355.178Z" transform="translate(-223.005 -291.693)" fill="#173d7a"/>
            <path id="Trazado_132181" data-name="Trazado 132181" d="M365.688,361.275l-5.425-3.172c-.436-.246-.381-.69.119-.976l5.377-3.109a1.911,1.911,0,0,1,1.705-.071l5.425,3.133c.436.254.381.69-.127.983l-5.377,3.1a1.864,1.864,0,0,1-1.7.111Z" transform="translate(-225.192 -292.952)" fill="#173d7a"/>
            <path id="Trazado_132182" data-name="Trazado 132182" d="M217.984,311.645,202,302.413c-.436-.246-.381-.69.119-.976l5.377-3.109a1.92,1.92,0,0,1,1.7-.071l15.989,9.232c.436.254.381.69-.127.983l-5.377,3.1a1.864,1.864,0,0,1-1.7.071Z" transform="translate(-192.45 -281.431)" fill="#173d7a"/>
            <path id="Trazado_132183" data-name="Trazado 132183" d="M347.8,386.6l-15.981-9.224c-.436-.254-.381-.7.119-.983l5.377-3.109a1.888,1.888,0,0,1,1.7-.063l15.989,9.224c.436.254.381.69-.127.983l-5.377,3.069A1.864,1.864,0,0,1,347.8,386.6Z" transform="translate(-219.308 -296.937)" fill="#173d7a"/>
            <path id="Trazado_132184" data-name="Trazado 132184" d="M308.308,377.109l-5.385-3.133c-.436-.254-.381-.69.119-.983l6.408-3.7a1.864,1.864,0,0,1,1.7-.071l5.425,3.173c.436.254.381.69-.119.983l-6.408,3.7A1.864,1.864,0,0,1,308.308,377.109Z" transform="translate(-213.329 -296.112)" fill="#173d7a"/>
            <path id="Trazado_132185" data-name="Trazado 132185" d="M230.71,332.311l-8.677-5c-.436-.254-.381-.7.119-.983l6.408-3.7a1.888,1.888,0,0,1,1.7-.063l8.677,5c.436.254.389.7-.119.983l-6.408,3.7a1.864,1.864,0,0,1-1.7.071Z" transform="translate(-196.594 -286.457)" fill="#173d7a"/>
            <path id="Trazado_132186" data-name="Trazado 132186" d="M297.269,370.739l-8.685-5.02c-.428-.246-.381-.69.127-.983l6.408-3.7a1.92,1.92,0,0,1,1.666-.079l8.724,5.028c.436.254.381.69-.119.983l-6.408,3.7A1.864,1.864,0,0,1,297.269,370.739Z" transform="translate(-210.363 -294.406)" fill="#173d7a"/>
            <path id="Trazado_132187" data-name="Trazado 132187" d="M245.948,341.119l-8.724-5.013c-.436-.254-.381-.69.127-.983l6.4-3.7a1.888,1.888,0,0,1,1.705-.071l8.677,5.013c.436.246.381.69-.119.976l-6.408,3.7A1.919,1.919,0,0,1,245.948,341.119Z" transform="translate(-199.737 -288.278)" fill="#173d7a"/>
            <path id="Trazado_132188" data-name="Trazado 132188" d="M245.655,331.44l37.736,21.787a.516.516,0,0,1,0,.976l-6.535,3.775a1.864,1.864,0,0,1-1.689,0L237.43,336.191Z" transform="translate(-199.841 -288.33)" fill="#173d7a"/>
            <path id="Trazado_132189" data-name="Trazado 132189" d="M338.185,390.234l6.051,3.49c.357.206.309.571-.1.793l-2.617,1.507a1.586,1.586,0,0,1-1.4.063l-6.044-3.49c-.357-.206-.317-.571.1-.793l2.625-1.515A1.539,1.539,0,0,1,338.185,390.234Z" transform="translate(-219.785 -300.465)" fill="#173d7a"/>
            <path id="Trazado_132190" data-name="Trazado 132190" d="M327.534,384.085l6.044,3.49c.357.206.309.563-.1.793l-2.617,1.515a1.586,1.586,0,0,1-1.4.056l-6.044-3.49c-.357-.206-.309-.563.1-.793l2.617-1.515A1.586,1.586,0,0,1,327.534,384.085Z" transform="translate(-217.58 -299.193)" fill="#173d7a"/>
            <path id="Trazado_132191" data-name="Trazado 132191" d="M316.964,377.965l6.044,3.49c.357.206.317.563-.1.793l-2.625,1.515a1.538,1.538,0,0,1-1.388.056l-6.051-3.49c-.357-.206-.309-.563.1-.793l2.617-1.515A1.586,1.586,0,0,1,316.964,377.965Z" transform="translate(-215.394 -297.927)" fill="#173d7a"/>
            <path id="Trazado_132192" data-name="Trazado 132192" d="M333.365,380.714l6.051,3.49c.357.206.309.563-.1.793l-2.617,1.515a1.586,1.586,0,0,1-1.4.063l-6.044-3.5c-.357-.206-.317-.563.1-.793l2.625-1.515A1.539,1.539,0,0,1,333.365,380.714Z" transform="translate(-218.788 -298.495)" fill="#173d7a"/>
          </g>
        </g>
        <g id="Grupo_62418" data-name="Grupo 62418" transform="translate(152.751 75.279)">
          <path id="Trazado_132193" data-name="Trazado 132193" d="M344.263,229.1l-5.195-3a2.141,2.141,0,0,1-.888-1.673h0c0-.642.373-.944.857-.666l5.187,3a2.118,2.118,0,0,1,.888,1.673h0C345.128,229.077,344.747,229.378,344.263,229.1Z" transform="translate(-325.815 -216.52)" fill="#dad5ed"/>
          <path id="Trazado_132194" data-name="Trazado 132194" d="M359.21,237.74l-7.654-4.378a2.157,2.157,0,0,1-.9-1.673h0c0-.65.373-.944.857-.666l7.654,4.418a2.118,2.118,0,0,1,.888,1.673h0C360.074,237.725,359.654,238.018,359.21,237.74Z" transform="translate(-328.397 -218.022)" fill="#dad5ed"/>
          <path id="Trazado_132195" data-name="Trazado 132195" d="M341.023,264l-5.195-3a2.118,2.118,0,0,1-.888-1.673h0c0-.642.373-.944.849-.666l5.195,3a2.142,2.142,0,0,1,.888,1.673h0C341.88,263.977,341.5,264.278,341.023,264Z" transform="translate(-325.145 -223.741)" fill="#dad5ed"/>
          <path id="Trazado_132196" data-name="Trazado 132196" d="M354.272,271.65l-7.654-4.418a2.118,2.118,0,0,1-.888-1.673h0c0-.642.373-.944.849-.666l7.654,4.418a2.157,2.157,0,0,1,.9,1.673h0C355.136,271.635,354.756,271.928,354.272,271.65Z" transform="translate(-327.377 -225.03)" fill="#dad5ed"/>
          <path id="Trazado_132197" data-name="Trazado 132197" d="M326.822,225.163l-3.244-1.872a2.157,2.157,0,0,1-.888-1.673h0c0-.65.373-.952.857-.666l3.236,1.872a2.125,2.125,0,0,1,.9,1.673h0C327.695,225.139,327.306,225.441,326.822,225.163Z" transform="translate(-322.611 -215.938)" fill="#dad5ed"/>
          <path id="Trazado_132198" data-name="Trazado 132198" d="M339.044,238.349l-9.906-5.718a2.157,2.157,0,0,1-.888-1.681h0c0-.642.373-.944.849-.666l9.914,5.726a2.142,2.142,0,0,1,.888,1.673h0C339.948,238.325,339.528,238.627,339.044,238.349Z" transform="translate(-323.761 -217.869)" fill="#dad5ed"/>
          <path id="Trazado_132199" data-name="Trazado 132199" d="M332.582,246.874,329.338,245a2.157,2.157,0,0,1-.888-1.673h0c0-.65.373-.944.857-.666l3.236,1.872a2.149,2.149,0,0,1,.9,1.673h0C333.447,246.874,333.066,247.152,332.582,246.874Z" transform="translate(-323.802 -220.43)" fill="#dad5ed"/>
          <path id="Trazado_132200" data-name="Trazado 132200" d="M358.837,286.547l-8.661-5a2.149,2.149,0,0,1-.9-1.673h0c0-.642.373-.944.857-.666l8.661,5a2.133,2.133,0,0,1,.888,1.681h0C359.7,286.523,359.313,286.825,358.837,286.547Z" transform="translate(-328.112 -227.99)" fill="#dad5ed"/>
          <path id="Trazado_132201" data-name="Trazado 132201" d="M331.624,258.576l-2.086-1.213a2.142,2.142,0,0,1-.888-1.673h0c0-.642.373-.944.857-.666l2.078,1.2a2.133,2.133,0,0,1,.888,1.681h0C332.489,258.552,332.1,258.854,331.624,258.576Z" transform="translate(-323.844 -222.988)" fill="#dad5ed"/>
          <path id="Trazado_132202" data-name="Trazado 132202" d="M332.33,271.242l-2.562-1.491a2.173,2.173,0,0,1-.888-1.681h0c0-.642.373-.944.857-.666l2.586,1.491a2.157,2.157,0,0,1,.888,1.681h0C333.195,271.218,332.814,271.519,332.33,271.242Z" transform="translate(-323.891 -225.549)" fill="#dad5ed"/>
          <path id="Trazado_132203" data-name="Trazado 132203" d="M343.9,277.916l-6.813-3.966a2.133,2.133,0,0,1-.888-1.681h0c0-.642.365-.944.849-.666l6.813,3.966a2.157,2.157,0,0,1,.9,1.673h0C344.766,277.892,344.385,278.194,343.9,277.916Z" transform="translate(-325.406 -226.418)" fill="#dad5ed"/>
          <path id="Trazado_132204" data-name="Trazado 132204" d="M334.74,278.764l-4.9-2.831a2.142,2.142,0,0,1-.888-1.673h0c0-.642.373-.944.857-.666l4.894,2.831a2.15,2.15,0,0,1,.9,1.673h0C335.6,278.74,335.224,279.042,334.74,278.764Z" transform="translate(-323.906 -226.83)" fill="#dad5ed"/>
          <path id="Trazado_132205" data-name="Trazado 132205" d="M369.639,292.817,366.466,291a2.141,2.141,0,0,1-.9-1.681h0c0-.642.373-.944.857-.666l3.172,1.816a2.157,2.157,0,0,1,.9,1.673h0C370.5,292.793,370.122,293.094,369.639,292.817Z" transform="translate(-331.482 -229.945)" fill="#dad5ed"/>
          <path id="Trazado_132206" data-name="Trazado 132206" d="M346.389,254.837l-8.621-5a2.149,2.149,0,0,1-.888-1.681h0c0-.642.365-.944.849-.666l8.661,5a2.118,2.118,0,0,1,.888,1.673h0C347.286,254.814,346.873,255.115,346.389,254.837Z" transform="translate(-325.546 -221.43)" fill="#dad5ed"/>
          <path id="Trazado_132207" data-name="Trazado 132207" d="M344.337,247.527,329.268,238.8a2.141,2.141,0,0,1-.888-1.673h0c0-.642.373-.944.849-.666l15.069,8.724a2.142,2.142,0,0,1,.888,1.673h0C345.2,247.5,344.821,247.8,344.337,247.527Z" transform="translate(-323.788 -219.148)" fill="#dad5ed"/>
          <path id="Trazado_132208" data-name="Trazado 132208" d="M338.1,256.187l-8.661-5a2.173,2.173,0,0,1-.888-1.681h0c0-.642.373-.944.857-.666l8.661,5a2.141,2.141,0,0,1,.888,1.673h0C338.964,256.163,338.583,256.465,338.1,256.187Z" transform="translate(-323.823 -221.709)" fill="#dad5ed"/>
          <path id="Trazado_132209" data-name="Trazado 132209" d="M356.091,260.449l-3.172-1.816a2.142,2.142,0,0,1-.888-1.673h0c0-.65.373-.944.857-.666l3.173,1.816a2.149,2.149,0,0,1,.9,1.673h0C356.955,260.433,356.575,260.726,356.091,260.449Z" transform="translate(-328.681 -223.25)" fill="#dad5ed"/>
          <path id="Trazado_132210" data-name="Trazado 132210" d="M385.776,253.085l-18.63-10.723a2.157,2.157,0,0,1-.9-1.673h0c0-.65.373-.944.857-.666l18.63,10.755a2.157,2.157,0,0,1,.9,1.673h0C386.673,253.062,386.26,253.363,385.776,253.085Z" transform="translate(-331.623 -219.884)" fill="#dad5ed"/>
          <path id="Trazado_132211" data-name="Trazado 132211" d="M340.052,269.574l-10.414-6.012a2.157,2.157,0,0,1-.888-1.673h0c0-.65.373-.944.857-.666l10.445,6a2.165,2.165,0,0,1,.9,1.681h0C340.916,269.55,340.536,269.852,340.052,269.574Z" transform="translate(-323.864 -224.27)" fill="#dad5ed"/>
          <path id="Trazado_132212" data-name="Trazado 132212" d="M331.132,221.52l-7.654-4.418a2.141,2.141,0,0,1-.888-1.673h0c0-.65.373-.944.857-.666l7.654,4.418a2.157,2.157,0,0,1,.888,1.673h0C332,221.5,331.639,221.8,331.132,221.52Z" transform="translate(-322.59 -214.658)" fill="#dad5ed"/>
          <path id="Trazado_132213" data-name="Trazado 132213" d="M333.345,284.086l-8.859-5.116a2.157,2.157,0,0,1-.9-1.674h0c0-.65.373-.952.857-.674l8.867,5.124a2.141,2.141,0,0,1,.888,1.673h0C334.226,284.039,333.829,284.364,333.345,284.086Z" transform="translate(-322.797 -227.456)" fill="#dad5ed"/>
        </g>
      </g>
      <g id="Grupo_62425" data-name="Grupo 62425" transform="translate(49.808 49.848)">
        <g id="Grupo_62420" data-name="Grupo 62420">
          <path id="Trazado_132214" data-name="Trazado 132214" d="M50.063,287.639l45.652-26.585c9.049-5.227,17.575-6.051,24.023-2.332s9.993,11.524,9.993,21.961v3.347c-.325.222-.666.436-1.007.642v-3.966c0-10.065-3.371-17.56-9.517-21.089s-14.276-2.7-23,2.332L50.563,288.511a.508.508,0,0,1-.69-.19.5.5,0,0,1,.19-.682Z" transform="translate(-49.808 -92.586)" fill="#dad5ed"/>
          <path id="Trazado_132215" data-name="Trazado 132215" d="M223.737,213.231V110.34c0-20.621,14.514-45.731,32.351-56.034,8.724-5.036,16.973-5.837,23.2-2.245s9.652,11.1,9.652,21.216v7.138l-1.007,1.007V73.278c0-9.716-3.252-16.941-9.145-20.343S265,50.325,256.58,55.179c-17.56,10.136-31.844,34.9-31.844,55.161V213.231c0,17.068-10.041,37.276-23.667,49.435V261.31C214.164,249.286,223.737,229.768,223.737,213.231Z" transform="translate(-81.102 -49.848)" fill="#dad5ed"/>
          <path id="Trazado_132216" data-name="Trazado 132216" d="M311.6,89.722h0a40.449,40.449,0,0,1,20.621-10.088c12.73-1.951,18,12.944,18,12.944a81.933,81.933,0,0,1,1.42,12.317c-.056,4.576-.381,21.216-.381,21.216l-40.385-23.222h0a.508.508,0,0,1-.278-.444V90.595C310.915,90.262,311.264,90.064,311.6,89.722Z" transform="translate(-103.76 -55.974)" fill="#6c58b8"/>
        </g>
        <g id="Grupo_62423" data-name="Grupo 62423" transform="translate(0.224 0.183)">
          <g id="Grupo_62422" data-name="Grupo 62422">
            <path id="Trazado_132217" data-name="Trazado 132217" d="M317.588,74.175,279.273,52.11l.151.547c-5.9-3.807-14.815-4.227-26.744,4.5-23.69,17.369-26.538,41.559-27.759,46.088s-.714,33.247-.714,33.247-.079,69.255-.159,77.313-2.427,17.123-6.932,26.879S201,262.278,201,262.278v14.1c1.856,15.244,8.328,18.8,17.964,19.661,7.773.7,16.061-4.909,22.683-11.032l-.4.42v14.094c1.856,15.244,8.328,18.8,17.964,19.661s20.058-7.931,27.117-15.426,13.015-18.876,16.322-29.163,2.2-23.587,2.2-23.587.079-75.7.159-90.629.555-12.317,5.449-27.323,17.877-25.507,17.877-25.507L359.48,98.27Z" transform="translate(-81.311 -50.079)" fill="#dad5ed"/>
            <path id="Trazado_132218" data-name="Trazado 132218" d="M240.206,366.825c-.523-.722-7.344-5.29-9.081-13.348a62.926,62.926,0,0,1-.872-11.294s0-3.783.127-7.233l.23-.19V333.4c-.063.063-.127.111-.19.167,0-.793.056-1.507.087-2.126.2-3.577-2.451-11.215-2.451-11.215s-3.751-10.223-14.926-10.62c-9.914-.349-20.359,6.789-22.58,8.4v-4.624l-.46.293v-1.872l.23-.19V310.26l-.19.167c0-.793.056-1.507.1-2.126.2-3.577-2.451-11.215-2.451-11.215s-3.751-10.223-14.926-10.62c-9.922-.349-20.359,6.789-22.58,8.391v-4.616c-.325.222-.666.436-1.007.642v8.09c0,9.8,3.26,17.155,9.184,20.811h0l.206.119.167.1.111.056L199.9,343.65a.356.356,0,0,1-.056-.056Z" transform="translate(-70.607 -98.982)" fill="#6c58b8"/>
            <g id="Grupo_62421" data-name="Grupo 62421" transform="translate(0 164.087)">
              <path id="Trazado_132219" data-name="Trazado 132219" d="M160.04,281.977s-.309-.159-.849-.381l-.492-.246-38.886-22.517a20.867,20.867,0,0,0-15.791-.595c-8.645,3.172-53.932,30.345-53.932,30.345l40.449,23.31h0a.489.489,0,0,0,.1,0l40.132,23.119s22.7-14.062,38.411-23.135l1.007-.579c6.416-3.7,11.516-6.456,13.118-6.876,9.684-2.57,16.425.563,18.178,1.523Z" transform="translate(-50.09 -256.969)" fill="#dad5ed"/>
              <path id="Trazado_132220" data-name="Trazado 132220" d="M241,318.75l.468.27Z" transform="translate(-89.586 -269.75)" fill="#dad5ed"/>
            </g>
          </g>
          <path id="Trazado_132221" data-name="Trazado 132221" d="M362.339,118.9h0a40.449,40.449,0,0,1,20.621-10.088c12.745-1.943,18,12.952,18,12.952a82.652,82.652,0,0,1,1.428,12.317c-.048,4.576-.381,21.216-.381,21.216l-40.393-23.262h0a.508.508,0,0,1-.278-.444V119.775C361.673,119.442,362.006,119.236,362.339,118.9Z" transform="translate(-114.483 -62.194)" fill="#6c58b8"/>
          <path id="Trazado_132222" data-name="Trazado 132222" d="M248.545,331.805c4.449,0,9.383-1.483,14.482-4.426,17.7-10.223,32.113-35.183,32.113-55.629V168.86c0-20.272,14.276-45.017,31.844-55.153,8.415-4.854,16.291-5.655,22.207-2.252s9.153,10.636,9.153,20.343v23a.5.5,0,0,0,.5.5.508.508,0,0,0,.508-.5v-23c0-10.088-3.434-17.615-9.652-21.216s-14.466-2.792-23.207,2.252c-17.837,10.311-32.343,35.436-32.343,56.026V271.751c0,20.129-14.181,44.692-31.614,54.725-8.344,4.814-16.172,5.607-22.025,2.229s-9.081-10.548-9.081-20.193V296.472c0-10.445-3.545-18.242-9.993-21.961s-14.974-2.895-24.016,2.332L151.745,303.42a.508.508,0,0,0-.182.69.5.5,0,0,0,.69.182L197.9,277.707c8.724-5.028,16.893-5.861,23-2.324s9.517,11.024,9.517,21.089v12.071c0,10.017,3.4,17.5,9.581,21.065a16.917,16.917,0,0,0,8.55,2.2Z" transform="translate(-71.069 -62.137)" fill="#396caa"/>
        </g>
        <path id="Trazado_132223" data-name="Trazado 132223" d="M275.767,214.594l-6.749-3.894a2.808,2.808,0,0,1-1.158-2.181h0c0-.841.484-1.229,1.11-.865l6.749,3.894a2.792,2.792,0,0,1,1.158,2.173h0C276.894,214.562,276.394,214.951,275.767,214.594Z" transform="translate(-94.92 -82.467)" fill="#5793ce"/>
        <path id="Trazado_132224" data-name="Trazado 132224" d="M293,224.542l-9.954-5.742a2.808,2.808,0,0,1-1.158-2.181h0c0-.841.484-1.229,1.11-.864l9.954,5.718a2.808,2.808,0,0,1,1.158,2.181h0C294.128,224.518,293.628,224.907,293,224.542Z" transform="translate(-97.822 -84.143)" fill="#5793ce"/>
        <path id="Trazado_132225" data-name="Trazado 132225" d="M273.206,181.231,260.318,173.8a2.808,2.808,0,0,1-1.158-2.181h0c0-.841.484-1.229,1.11-.864l12.88,7.439a2.752,2.752,0,0,1,1.158,2.173h0C274.324,181.231,273.833,181.6,273.206,181.231Z" transform="translate(-93.12 -74.833)" fill="#5793ce"/>
        <path id="Trazado_132226" data-name="Trazado 132226" d="M264.8,192.325l-4.219-2.435a2.808,2.808,0,0,1-1.158-2.181h0c0-.841.484-1.229,1.11-.865l4.219,2.435a2.776,2.776,0,0,1,1.158,2.173h0C265.924,192.293,265.432,192.682,264.8,192.325Z" transform="translate(-93.174 -78.162)" fill="#5793ce"/>
        <path id="Trazado_132227" data-name="Trazado 132227" d="M263.55,207.536l-2.712-1.586a2.808,2.808,0,0,1-1.158-2.181h0c0-.841.484-1.229,1.11-.864l2.7,1.586a2.752,2.752,0,0,1,1.158,2.173h0C264.692,207.5,264.177,207.893,263.55,207.536Z" transform="translate(-93.227 -81.485)" fill="#5793ce"/>
        <path id="Trazado_132228" data-name="Trazado 132228" d="M282.754,202.675l-11.278-6.5A2.784,2.784,0,0,1,270.31,194h0c0-.841.484-1.229,1.11-.865l11.262,6.5a2.784,2.784,0,0,1,1.158,2.181h0C283.856,202.652,283.357,203.04,282.754,202.675Z" transform="translate(-95.427 -79.463)" fill="#5793ce"/>
        <path id="Trazado_132229" data-name="Trazado 132229" d="M280.078,193.215l-19.63-11.334a2.776,2.776,0,0,1-1.158-2.173h0c0-.841.484-1.229,1.11-.872l19.63,11.334a2.792,2.792,0,0,1,1.158,2.181h0C281.2,193.159,280.7,193.548,280.078,193.215Z" transform="translate(-93.147 -76.506)" fill="#5793ce"/>
        <path id="Trazado_132230" data-name="Trazado 132230" d="M271.97,204.474l-11.262-6.5a2.792,2.792,0,0,1-1.158-2.173h0c0-.849.484-1.229,1.11-.872l11.262,6.5a2.776,2.776,0,0,1,1.158,2.173h0C273.1,204.411,272.6,204.8,271.97,204.474Z" transform="translate(-93.201 -79.835)" fill="#5793ce"/>
        <path id="Trazado_132231" data-name="Trazado 132231" d="M295.37,209.97l-4.085-2.379a2.784,2.784,0,0,1-1.166-2.173h0c0-.841.484-1.229,1.11-.872l4.092,2.379a2.784,2.784,0,0,1,1.158,2.181h0C296.5,209.947,296,210.335,295.37,209.97Z" transform="translate(-99.525 -81.825)" fill="#5793ce"/>
        <g id="Grupo_62424" data-name="Grupo 62424" transform="translate(160.203 79.771)">
          <path id="Trazado_132232" data-name="Trazado 132232" d="M279.987,169.213l-6.749-3.9a2.752,2.752,0,0,1-1.158-2.173h0c0-.841.476-1.229,1.1-.872l6.749,3.9a2.752,2.752,0,0,1,1.158,2.173h0C281.106,169.166,280.614,169.57,279.987,169.213Z" transform="translate(-255.996 -152.849)" fill="#5793ce"/>
          <path id="Trazado_132233" data-name="Trazado 132233" d="M299.422,180.432l-9.954-5.742a2.807,2.807,0,0,1-1.158-2.181h0c0-.841.484-1.229,1.11-.865l9.954,5.742a2.808,2.808,0,0,1,1.158,2.181h0C300.54,180.408,300.048,180.8,299.422,180.432Z" transform="translate(-259.353 -154.788)" fill="#5793ce"/>
          <path id="Trazado_132234" data-name="Trazado 132234" d="M275.767,214.594l-6.749-3.894a2.808,2.808,0,0,1-1.158-2.181h0c0-.841.484-1.229,1.11-.865l6.749,3.894a2.792,2.792,0,0,1,1.158,2.173h0C276.894,214.562,276.394,214.951,275.767,214.594Z" transform="translate(-255.123 -162.238)" fill="#5793ce"/>
          <path id="Trazado_132235" data-name="Trazado 132235" d="M293,224.542l-9.954-5.742a2.808,2.808,0,0,1-1.158-2.181h0c0-.841.484-1.229,1.11-.864l9.954,5.718a2.808,2.808,0,0,1,1.158,2.181h0C294.128,224.518,293.628,224.907,293,224.542Z" transform="translate(-258.025 -163.914)" fill="#5793ce"/>
          <path id="Trazado_132236" data-name="Trazado 132236" d="M257.307,164.086l-4.219-2.435a2.8,2.8,0,0,1-1.158-2.173h0c0-.841.484-1.229,1.11-.872l4.219,2.435a2.808,2.808,0,0,1,1.158,2.181h0C258.434,164.062,257.934,164.443,257.307,164.086Z" transform="translate(-251.827 -152.092)" fill="#5793ce"/>
          <path id="Trazado_132237" data-name="Trazado 132237" d="M273.206,181.231,260.318,173.8a2.808,2.808,0,0,1-1.158-2.181h0c0-.841.484-1.229,1.11-.864l12.88,7.439a2.752,2.752,0,0,1,1.158,2.173h0C274.324,181.231,273.833,181.6,273.206,181.231Z" transform="translate(-253.323 -154.604)" fill="#5793ce"/>
          <path id="Trazado_132238" data-name="Trazado 132238" d="M264.8,192.325l-4.219-2.435a2.808,2.808,0,0,1-1.158-2.181h0c0-.841.484-1.229,1.11-.865l4.219,2.435a2.776,2.776,0,0,1,1.158,2.173h0C265.924,192.293,265.432,192.682,264.8,192.325Z" transform="translate(-253.376 -157.933)" fill="#5793ce"/>
          <path id="Trazado_132239" data-name="Trazado 132239" d="M298.934,243.905l-11.238-6.5a2.808,2.808,0,0,1-1.166-2.181h0c0-.841.484-1.229,1.11-.865l11.262,6.5a2.784,2.784,0,0,1,1.158,2.181h0C300.061,243.882,299.593,244.27,298.934,243.905Z" transform="translate(-258.985 -167.764)" fill="#5793ce"/>
          <path id="Trazado_132240" data-name="Trazado 132240" d="M263.55,207.536l-2.712-1.586a2.808,2.808,0,0,1-1.158-2.181h0c0-.841.484-1.229,1.11-.864l2.7,1.586a2.752,2.752,0,0,1,1.158,2.173h0C264.692,207.5,264.177,207.893,263.55,207.536Z" transform="translate(-253.43 -161.255)" fill="#5793ce"/>
          <path id="Trazado_132241" data-name="Trazado 132241" d="M264.461,224l-3.363-1.943a2.776,2.776,0,0,1-1.158-2.173h0c0-.841.484-1.229,1.11-.865l3.363,1.935a2.808,2.808,0,0,1,1.158,2.181h0C265.587,223.981,265.087,224.37,264.461,224Z" transform="translate(-253.484 -164.59)" fill="#5793ce"/>
          <path id="Trazado_132242" data-name="Trazado 132242" d="M279.525,232.7,270.7,227.58a2.784,2.784,0,0,1-1.158-2.181h0c0-.841.476-1.229,1.1-.865l8.835,5.1a2.808,2.808,0,0,1,1.158,2.181h0C280.644,232.672,280.152,233.06,279.525,232.7Z" transform="translate(-255.47 -165.73)" fill="#5793ce"/>
          <path id="Trazado_132243" data-name="Trazado 132243" d="M267.613,233.79l-6.345-3.68a2.831,2.831,0,0,1-1.158-2.181h0c0-.841.484-1.229,1.11-.865l6.345,3.68a2.776,2.776,0,0,1,1.158,2.173h0C268.747,233.758,268.239,234.123,267.613,233.79Z" transform="translate(-253.519 -166.254)" fill="#5793ce"/>
          <path id="Trazado_132244" data-name="Trazado 132244" d="M282.754,202.675l-11.278-6.5A2.784,2.784,0,0,1,270.31,194h0c0-.841.484-1.229,1.11-.865l11.262,6.5a2.784,2.784,0,0,1,1.158,2.181h0C283.856,202.652,283.357,203.04,282.754,202.675Z" transform="translate(-255.629 -159.234)" fill="#5793ce"/>
          <path id="Trazado_132245" data-name="Trazado 132245" d="M280.078,193.215l-19.63-11.334a2.776,2.776,0,0,1-1.158-2.173h0c0-.841.484-1.229,1.11-.872l19.63,11.334a2.792,2.792,0,0,1,1.158,2.181h0C281.2,193.159,280.7,193.548,280.078,193.215Z" transform="translate(-253.35 -156.277)" fill="#5793ce"/>
          <path id="Trazado_132246" data-name="Trazado 132246" d="M271.97,204.474l-11.262-6.5a2.792,2.792,0,0,1-1.158-2.173h0c0-.849.484-1.229,1.11-.872l11.262,6.5a2.776,2.776,0,0,1,1.158,2.173h0C273.1,204.411,272.6,204.8,271.97,204.474Z" transform="translate(-253.403 -159.605)" fill="#5793ce"/>
          <path id="Trazado_132247" data-name="Trazado 132247" d="M295.37,209.97l-4.085-2.379a2.784,2.784,0,0,1-1.166-2.173h0c0-.841.484-1.229,1.11-.872l4.092,2.379a2.784,2.784,0,0,1,1.158,2.181h0C296.5,209.947,296,210.335,295.37,209.97Z" transform="translate(-259.728 -161.596)" fill="#5793ce"/>
          <path id="Trazado_132248" data-name="Trazado 132248" d="M274.506,221.832l-13.539-7.812a2.808,2.808,0,0,1-1.158-2.181h0c0-.841.484-1.229,1.11-.865l13.538,7.82a2.776,2.776,0,0,1,1.158,2.173h0C275.633,221.808,275.133,222.2,274.506,221.832Z" transform="translate(-253.457 -162.925)" fill="#5793ce"/>
          <path id="Trazado_132249" data-name="Trazado 132249" d="M262.911,159.352l-9.954-5.742a2.808,2.808,0,0,1-1.158-2.181h0c0-.841.484-1.229,1.11-.865l9.954,5.742a2.808,2.808,0,0,1,1.158,2.181h0C264.038,159.328,263.538,159.717,262.911,159.352Z" transform="translate(-251.8 -150.427)" fill="#5793ce"/>
          <path id="Trazado_132250" data-name="Trazado 132250" d="M265.792,240.714l-11.524-6.654a2.784,2.784,0,0,1-1.158-2.181h0c0-.841.484-1.229,1.11-.865l11.492,6.654a2.776,2.776,0,0,1,1.158,2.173h0C266.918,240.682,266.418,241.071,265.792,240.714Z" transform="translate(-252.071 -167.071)" fill="#5793ce"/>
        </g>
        <path id="Trazado_132251" data-name="Trazado 132251" d="M273.767,290.934l-6.749-3.894a2.808,2.808,0,0,1-1.158-2.181h0c0-.841.484-1.229,1.11-.865l6.749,3.894a2.808,2.808,0,0,1,1.158,2.181h0C274.886,290.91,274.394,291.3,273.767,290.934Z" transform="translate(-94.506 -98.261)" fill="#5793ce"/>
        <path id="Trazado_132252" data-name="Trazado 132252" d="M291,300.888l-9.954-5.718a2.808,2.808,0,0,1-1.158-2.181h0c0-.841.484-1.229,1.11-.864l9.954,5.742a2.808,2.808,0,0,1,1.158,2.181h0C292.128,300.864,291.628,301.253,291,300.888Z" transform="translate(-97.409 -99.943)" fill="#5793ce"/>
        <path id="Trazado_132253" data-name="Trazado 132253" d="M271.206,257.585l-12.888-7.416a2.808,2.808,0,0,1-1.158-2.181h0c0-.841.484-1.229,1.11-.864l12.88,7.439a2.752,2.752,0,0,1,1.158,2.173h0C272.324,257.554,271.825,257.942,271.206,257.585Z" transform="translate(-92.706 -90.633)" fill="#5793ce"/>
        <path id="Trazado_132254" data-name="Trazado 132254" d="M262.8,268.665l-4.219-2.435a2.808,2.808,0,0,1-1.158-2.181h0c0-.841.484-1.229,1.11-.864l4.219,2.435a2.776,2.776,0,0,1,1.158,2.149h0C263.916,268.633,263.432,269.022,262.8,268.665Z" transform="translate(-92.76 -93.956)" fill="#5793ce"/>
        <path id="Trazado_132255" data-name="Trazado 132255" d="M261.55,283.876l-2.712-1.586a2.808,2.808,0,0,1-1.158-2.181h0c0-.841.484-1.229,1.11-.865l2.7,1.586a2.752,2.752,0,0,1,1.2,2.157h0C262.693,283.844,262.177,284.233,261.55,283.876Z" transform="translate(-92.814 -97.278)" fill="#5793ce"/>
        <path id="Trazado_132256" data-name="Trazado 132256" d="M280.76,279.023l-11.254-6.5a2.807,2.807,0,0,1-1.166-2.181h0c0-.841.484-1.229,1.11-.865l11.262,6.5a2.752,2.752,0,0,1,1.158,2.173h0C281.863,278.992,281.363,279.38,280.76,279.023Z" transform="translate(-95.019 -95.257)" fill="#5793ce"/>
        <path id="Trazado_132257" data-name="Trazado 132257" d="M278.078,269.513l-19.63-11.342A2.776,2.776,0,0,1,257.29,256h0c0-.841.484-1.229,1.11-.872l19.63,11.334a2.808,2.808,0,0,1,1.158,2.181h0C279.2,269.489,278.7,269.877,278.078,269.513Z" transform="translate(-92.733 -92.289)" fill="#5793ce"/>
        <path id="Trazado_132258" data-name="Trazado 132258" d="M269.968,280.775l-11.27-6.5a2.776,2.776,0,0,1-1.158-2.173h0c0-.841.484-1.229,1.11-.872l11.262,6.5a2.807,2.807,0,0,1,1.158,2.181h0C271.094,280.751,270.595,281.139,269.968,280.775Z" transform="translate(-92.785 -95.62)" fill="#5793ce"/>
        <path id="Trazado_132259" data-name="Trazado 132259" d="M293.37,286.311l-4.085-2.379a2.784,2.784,0,0,1-1.166-2.173h0c0-.841.484-1.229,1.11-.865l4.092,2.379a2.784,2.784,0,0,1,1.158,2.181h0C294.5,286.287,294,286.676,293.37,286.311Z" transform="translate(-99.111 -97.62)" fill="#5793ce"/>
      </g>
      <g id="Grupo_62431" data-name="Grupo 62431" transform="translate(278.409 285.413)">
        <path id="Trazado_132260" data-name="Trazado 132260" d="M338.04,468.6l12.5-7.217,12.507,7.217-12.507,7.217Z" transform="translate(-338.04 -370.552)" fill="#dad5ed"/>
        <path id="Trazado_132261" data-name="Trazado 132261" d="M371.5,449.017,384,441.8l12.5,7.217L384,456.235Z" transform="translate(-344.962 -366.502)" fill="#dad5ed"/>
        <path id="Trazado_132262" data-name="Trazado 132262" d="M404.86,429.917l12.5-7.217,12.5,7.217-12.5,7.217Z" transform="translate(-351.864 -362.55)" fill="#dad5ed"/>
        <g id="Grupo_62430" data-name="Grupo 62430">
          <g id="Grupo_62429" data-name="Grupo 62429">
            <g id="Grupo_62426" data-name="Grupo 62426" transform="translate(26.538 36.808)">
              <path id="Trazado_132263" data-name="Trazado 132263" d="M384,438.977v-38.49l-12.5-7.217v38.49Z" transform="translate(-371.5 -393.27)" fill="#c13d1a"/>
              <path id="Trazado_132264" data-name="Trazado 132264" d="M387.26,400.487l12.5-7.217v38.49l-12.5,7.217Z" transform="translate(-374.76 -393.27)" fill="#f25585"/>
              <path id="Trazado_132265" data-name="Trazado 132265" d="M384,438.977v-38.49l-12.5-7.217v38.49Z" transform="translate(-371.5 -393.27)" fill="#f57fa3"/>
            </g>
            <g id="Grupo_62427" data-name="Grupo 62427" transform="translate(0 61.958)">
              <path id="Trazado_132266" data-name="Trazado 132266" d="M350.539,462.949V441.3l-12.5-7.217v21.652Z" transform="translate(-338.04 -426.863)" fill="#f57fa3"/>
              <path id="Trazado_132267" data-name="Trazado 132267" d="M353.8,441.3l12.507-7.217v21.652L353.8,462.949Z" transform="translate(-341.301 -426.863)" fill="#f25585"/>
              <path id="Trazado_132268" data-name="Trazado 132268" d="M338.04,432.2l12.5-7.217,12.507,7.217-12.507,7.217Z" transform="translate(-338.04 -424.98)" fill="#f9aac2"/>
            </g>
            <g id="Grupo_62428" data-name="Grupo 62428" transform="translate(52.996)">
              <path id="Trazado_132269" data-name="Trazado 132269" d="M417.359,416.11V363.177l-12.5-7.217v52.932Z" transform="translate(-404.86 -348.743)" fill="#f57fa3"/>
              <path id="Trazado_132270" data-name="Trazado 132270" d="M420.62,363.177l12.5-7.217v52.932l-12.5,7.217Z" transform="translate(-408.12 -348.743)" fill="#f25585"/>
              <path id="Trazado_132271" data-name="Trazado 132271" d="M404.86,354.077l12.5-7.217,12.5,7.217-12.5,7.217Z" transform="translate(-404.86 -346.86)" fill="#f9aac2"/>
            </g>
          </g>
          <path id="Trazado_132272" data-name="Trazado 132272" d="M371.5,391.387,384,384.17l12.5,7.217L384,398.6Z" transform="translate(-344.962 -354.579)" fill="#f9aac2"/>
        </g>
      </g>
      <g id="Grupo_62437" data-name="Grupo 62437" transform="translate(71.01 150.692)">
        <g id="Grupo_62436" data-name="Grupo 62436" transform="translate(0 0)">
          <g id="Grupo_62433" data-name="Grupo 62433" transform="translate(2.915)">
            <path id="Trazado_132273" data-name="Trazado 132273" d="M110.647,379.264s-3.855-1.943-6.226.952-5.758,9.739-5.861,14.355,3.656,4.315,5.893,3.22,8.772-10.572,9.168-12.428-.468-4.37-1.094-4.862S110.647,379.264,110.647,379.264Z" transform="translate(-84.01 -218.711)" fill="#5793ce"/>
            <path id="Trazado_132274" data-name="Trazado 132274" d="M112.956,378.014l.182,3.966a2.268,2.268,0,0,1-1.126,2.078,4.466,4.466,0,0,1-2.982.46c-2.9-.468-3.172-1.293-3.371-5.29S112.956,378.014,112.956,378.014Z" transform="translate(-85.478 -218.39)" fill="#dad5ed"/>
            <g id="Grupo_62432" data-name="Grupo 62432" transform="translate(0 70.916)">
              <path id="Trazado_132275" data-name="Trazado 132275" d="M92.847,369.573s-3.855-1.951-6.226.952-5.758,9.732-5.861,14.355,3.656,4.315,5.893,3.22,8.772-10.572,9.168-12.428-.468-4.37-1.094-4.862S92.847,369.573,92.847,369.573Z" transform="translate(-80.327 -287.621)" fill="#5793ce"/>
              <path id="Trazado_132276" data-name="Trazado 132276" d="M95.146,368.321l.182,4.005A2.268,2.268,0,0,1,94.2,374.4a4.465,4.465,0,0,1-2.982.46c-2.9-.468-3.172-1.3-3.371-5.29S95.146,368.321,95.146,368.321Z" transform="translate(-81.794 -287.306)" fill="#dad5ed"/>
              <path id="Trazado_132277" data-name="Trazado 132277" d="M128,274.016c-1.142-18.583-20.129,2.736-20.129,2.736l-12.991,12.69L83.217,302.354a11.524,11.524,0,0,0-2.9,9.264l4.759,36.039a3.545,3.545,0,0,0,3.553,3.077,12.691,12.691,0,0,0,1.753-.151,4.4,4.4,0,0,0,3.91-4.679l-.864-33.7,24.587-14.815S129.146,292.615,128,274.016Z" transform="translate(-80.215 -266.412)" fill="#173d7a"/>
            </g>
            <path id="Trazado_132278" data-name="Trazado 132278" d="M145.806,283.016c-1.142-18.583-20.129,2.736-20.129,2.736l-12.991,12.729-11.7,12.856a11.516,11.516,0,0,0-2.9,9.264l4.759,36.031a3.553,3.553,0,0,0,3.553,3.085,12.773,12.773,0,0,0,1.753-.159,4.394,4.394,0,0,0,3.91-4.671l-.864-33.707,24.587-14.807S146.948,301.559,145.806,283.016Z" transform="translate(-83.891 -197.358)" fill="#173d7a"/>
            <path id="Trazado_132279" data-name="Trazado 132279" d="M136.877,209.2c14.387,5.964,14.1,14.482,14.1,14.482s-2.816,31.193-1.856,52.02c.4,8.724-46.262,9.375-39.307-13.856,8.209-27.394,5.131-49.57,8.97-52.909S133.149,207.657,136.877,209.2Z" transform="translate(-86.193 -183.235)" fill="#5793ce"/>
            <path id="Trazado_132280" data-name="Trazado 132280" d="M146.215,217.3c-.793,2.919-4.584,4.457-8.558,3.434s-6.575-4.219-5.821-7.138,4.584-4.465,8.55-3.442S146.937,214.377,146.215,217.3Z" transform="translate(-90.868 -183.793)" fill="#ffc2b0"/>
            <path id="Trazado_132281" data-name="Trazado 132281" d="M139.877,221.562a10.311,10.311,0,0,1-2.6-.341,9.573,9.573,0,0,1-5.044-3.085,5.5,5.5,0,0,1-1.277-4.894c.849-3.283,5.06-5.052,9.39-3.966a9.517,9.517,0,0,1,5.044,3.093,5.488,5.488,0,0,1,1.277,4.886h0C146.032,219.9,143.176,221.562,139.877,221.562Zm-2.165-11.215c-2.673,0-4.909,1.245-5.425,3.236a4.164,4.164,0,0,0,1.007,3.68,8.2,8.2,0,0,0,4.322,2.625c3.593.928,7.059-.4,7.717-2.942h0a4.188,4.188,0,0,0-1.007-3.68,8.28,8.28,0,0,0-4.33-2.625,9.254,9.254,0,0,0-2.284-.293Z" transform="translate(-90.684 -183.609)" fill="#fff"/>
            <path id="Trazado_132282" data-name="Trazado 132282" d="M136.809,208.172a34.964,34.964,0,0,1-.119,5.139c-.079,1.428,4.941,2.768,6.234,1.475s.793-2.649,1.095-7.527S136.809,208.172,136.809,208.172Z" transform="translate(-91.899 -182.854)" fill="#ffc2b0"/>
            <path id="Trazado_132283" data-name="Trazado 132283" d="M144.016,207.77s-1.237,4.521-7.336,6.258l.1-4.116Z" transform="translate(-91.897 -183.364)" fill="#ea9c92"/>
            <circle id="Elipse_4350" data-name="Elipse 4350" cx="11.022" cy="11.022" r="11.022" transform="translate(29.197 19.816) rotate(-59.826)" fill="#ffc2b0"/>
            <path id="Trazado_132284" data-name="Trazado 132284" d="M136.91,196.583s-6.1,2.617-10.31,2.641-3.291-3.506-3.291-3.506l12.539-1.808Z" transform="translate(-89.113 -180.496)" fill="#ea9c92"/>
            <path id="Trazado_132285" data-name="Trazado 132285" d="M124.07,193.774s5.314-2.252,9.969-1.317a4.878,4.878,0,0,1,2.816,1.673,1.713,1.713,0,0,0,.857.619c.793.19,2.181-3.244,3.783-3.323s2.681,1.063,1.364,3.172-.872,4.465-.27,4.806,7.035-4.584,1.364-15.823-20.074-5.179-22.31-2.9c0,0-2.379,2.054-4.283.23C117.36,180.91,115.211,197.026,124.07,193.774Z" transform="translate(-87.852 -176.998)" fill="#b3204d"/>
            <path id="Trazado_132286" data-name="Trazado 132286" d="M146.912,255.46v8.431a3.426,3.426,0,0,1-1.118,2.538L128.48,282.212l1.967,3.006,22.866-16.576a4.656,4.656,0,0,0,1.888-3.276l1.586-14.7Z" transform="translate(-90.2 -192.239)" fill="#ffc2b0"/>
            <path id="Trazado_132287" data-name="Trazado 132287" d="M158.243,222.67s5.258,7.931,7.209,28.695c0,0-8.97,2.895-14.062,1.253S158.243,222.67,158.243,222.67Z" transform="translate(-94.679 -186.446)" fill="#5793ce"/>
            <path id="Trazado_132288" data-name="Trazado 132288" d="M149.943,235.26s-2.054,11.008-2.173,16.18a3.307,3.307,0,0,0,2.173,3.172h0Z" transform="translate(-94.191 -189.051)" fill="#396caa"/>
          </g>
          <g id="Grupo_62434" data-name="Grupo 62434" transform="translate(2.744 83.683)">
            <path id="Trazado_132289" data-name="Trazado 132289" d="M131.434,300.324l-3.831-.508-24.7-14.276a3.426,3.426,0,0,0-3.085.127l-17.5,10.12L80,295.478v2.308h0a.9.9,0,0,0,.531.793l28.021,16.18a3.458,3.458,0,0,0,3.085-.127l19.035-11.008a1.245,1.245,0,0,0,.753-1.039h0Z" transform="translate(-80 -283.073)" fill="#5793ce"/>
            <path id="Trazado_132290" data-name="Trazado 132290" d="M112.875,292.635l-1.753-1.015h-19.3l-9.517,5.488L80,296.8v2.308h0a.9.9,0,0,0,.531.793l28.021,16.18a2.927,2.927,0,0,0,1.586.293Z" transform="translate(-80 -284.394)" fill="#396caa"/>
            <path id="Trazado_132291" data-name="Trazado 132291" d="M81.031,298.285,80,298.15v2.308h0a.9.9,0,0,0,.531.793l.5.286Z" transform="translate(-80 -285.745)" fill="#5793ce"/>
            <path id="Trazado_132292" data-name="Trazado 132292" d="M116.32,321.557a3.6,3.6,0,0,0,2.625-.159V317.48H116.32Z" transform="translate(-87.514 -289.744)" fill="#fff"/>
            <path id="Trazado_132293" data-name="Trazado 132293" d="M108.558,311.887l-28-16.156c-.793-.46-.69-1.261.222-1.784l19.035-11a3.4,3.4,0,0,1,3.085-.127l28,16.156c.793.46.69,1.261-.222,1.784l-19.035,11A3.4,3.4,0,0,1,108.558,311.887Z" transform="translate(-80.005 -282.51)" fill="#fff"/>
            <path id="Trazado_132294" data-name="Trazado 132294" d="M109.178,310.985,85.885,297.542c-.658-.381-.571-1.039.19-1.483l10.207-5.742a2.863,2.863,0,0,1,2.57-.1l23.278,13.435c.658.381.579,1.047-.182,1.483l-10.215,5.742a2.839,2.839,0,0,1-2.554.111Z" transform="translate(-81.126 -284.051)" fill="#dad5ed"/>
          </g>
          <path id="Trazado_132295" data-name="Trazado 132295" d="M106.233,282.137l-.286,1.927a14.276,14.276,0,0,0,.119,4.957l.349,1.7a2.379,2.379,0,0,0,1.919,1.88h0a1.316,1.316,0,0,0,1.586-1.15l.46-4.124s1.055,1.38,1.586,1.38-.571-4.132-1.729-6.472S106.233,282.137,106.233,282.137Z" transform="translate(-82.591 -198.549)" fill="#ffc2b0"/>
          <path id="Trazado_132296" data-name="Trazado 132296" d="M115.357,242.161l-3,5.948a11.5,11.5,0,0,0-1.229,4.513l-1.309,20.335-3.966-.1-1.792-22.834a8.16,8.16,0,0,1,.1-2.11l2.046-11.579Z" transform="translate(-82.229 -189.275)" fill="#ffc2b0"/>
          <g id="Grupo_62435" data-name="Grupo 62435" transform="translate(0 71.551)">
            <path id="Trazado_132297" data-name="Trazado 132297" d="M106.97,310.281l-2.379-3.061L79.909,292.943a3.442,3.442,0,0,1-1.428-2.744V269.99l-1.412-1.848,1.332-.793h0a.888.888,0,0,1,.968.056l27.973,16.2a3.41,3.41,0,0,1,1.428,2.736v22.009a1.253,1.253,0,0,1-.523,1.174h0Z" transform="translate(-76.65 -267.216)" fill="#173d7a"/>
            <path id="Trazado_132298" data-name="Trazado 132298" d="M89.913,298.689l-1.785-1.015-9.6-16.719V269.97l-1.412-1.848,1.332-.793h0a.888.888,0,0,1,.968.056l27.973,16.2a2.855,2.855,0,0,1,1.055,1.229Z" transform="translate(-76.66 -267.212)" fill="#396caa"/>
            <path id="Trazado_132299" data-name="Trazado 132299" d="M77.757,268.946l-.627-.793,1.332-.793h0a.888.888,0,0,1,.968.056l.492.285Z" transform="translate(-76.662 -267.218)" fill="#5793ce"/>
            <path id="Trazado_132300" data-name="Trazado 132300" d="M114.871,288.1a3.593,3.593,0,0,1,1.166,2.379l-2.728,1.586-1.309-2.3Z" transform="translate(-83.876 -271.534)" fill="#274f89"/>
            <path id="Trazado_132301" data-name="Trazado 132301" d="M105.949,284.579l-27.973-16.2c-.793-.46-1.436,0-1.436,1.079v22.009a3.458,3.458,0,0,0,1.428,2.744l27.973,16.2c.793.46,1.436,0,1.436-1.087v-22a3.426,3.426,0,0,0-1.428-2.744Z" transform="translate(-76.54 -267.418)" fill="#5793ce"/>
          </g>
          <path id="Trazado_132302" data-name="Trazado 132302" d="M128.582,293.446l-.444.928a6.266,6.266,0,0,1-2.379,2.594l-2.784,1.713a2.752,2.752,0,0,1-2.831.064l-.1-.056a1.666,1.666,0,0,1-.238-2.57l2.9-2.982s-1.634,1.253-2.086.746c-.333-.365,1.586-2.165,3.053-2.229a5.8,5.8,0,0,0,2.895-1.213Z" transform="translate(-85.389 -200.467)" fill="#ffc2b0"/>
          <path id="Trazado_132303" data-name="Trazado 132303" d="M117.782,209.33s-10.644,11.587-14.942,22.207a21.747,21.747,0,0,0,12.555,9.137C124.3,243.244,117.782,209.33,117.782,209.33Z" transform="translate(-81.981 -183.687)" fill="#5793ce"/>
          <path id="Trazado_132304" data-name="Trazado 132304" d="M115.53,243.655,117.251,227l-4.061,15.608a22.814,22.814,0,0,0,2.34,1.047Z" transform="translate(-84.122 -187.342)" fill="#396caa"/>
          <path id="Trazado_132305" data-name="Trazado 132305" d="M130.983,206.183l-2.863-.793a6.94,6.94,0,0,0,3.363,2.689c1.991.547,2.3-1.134,2.3-1.134Z" transform="translate(-87.211 -182.871)" fill="#fff"/>
        </g>
        <path id="Trazado_132306" data-name="Trazado 132306" d="M150.172,200.2a1.586,1.586,0,1,1-1.586-1.586A1.586,1.586,0,0,1,150.172,200.2Z" transform="translate(-91.117 -181.469)" fill="#fff"/>
      </g>
      <path id="Trazado_132307" data-name="Trazado 132307" d="M449.568,204.5l-4.8-9.747,9.755-4.8,4.8,9.755Zm-1.888-8.724,2.879,5.853,5.853-2.879-2.879-5.853Z" transform="translate(-81.712 -28.985)" fill="#b3204d"/>
      <g id="Grupo_62443" data-name="Grupo 62443" transform="translate(111.053 328.994)">
        <path id="Trazado_132308" data-name="Trazado 132308" d="M179.158,441.5c-10.659-6.147-27.934-6.147-38.593,0s-10.652,16.132,0,22.279,27.926,6.155,38.585,0S189.81,447.652,179.158,441.5Zm-10.429,16.259c-4.894,2.831-12.833,2.831-17.734,0s-4.9-7.408,0-10.239,12.841-2.823,17.734,0S173.63,454.933,168.729,457.756Z" transform="translate(-128.176 -409.067)" fill="#dad5ed"/>
        <g id="Grupo_62442" data-name="Grupo 62442" transform="translate(0)">
          <g id="Grupo_62438" data-name="Grupo 62438" transform="translate(3.712)">
            <path id="Trazado_132309" data-name="Trazado 132309" d="M136.37,434.287l9.732.151a10.4,10.4,0,0,1,3.077-2.586c5.354-3.093,13.768-3.331,19.6-.722l5.782-5.441,8.907.143c-.436-.293-.888-.571-1.364-.849-12.381-7.138-32.446-7.138-44.819,0a23.431,23.431,0,0,0-5.552,4.338Z" transform="translate(-131.714 -405.497)" fill="#f25585"/>
            <path id="Trazado_132310" data-name="Trazado 132310" d="M194.637,409.593v14.133l-8.907-.143V409.45Z" transform="translate(-142.886 -403.391)" fill="#f57fa3"/>
            <path id="Trazado_132311" data-name="Trazado 132311" d="M178.44,414.891v14.133l5.782-5.441V409.45Z" transform="translate(-141.378 -403.391)" fill="#ef2a66"/>
            <path id="Trazado_132312" data-name="Trazado 132312" d="M149.842,418.467V432.6l12.809-10.437,9.866,7.138V415.16l-9.073-4.41s-12.507,3.831-13.158,3.966S149.842,418.467,149.842,418.467Z" transform="translate(-135.455 -403.66)" fill="#f25585"/>
            <path id="Trazado_132313" data-name="Trazado 132313" d="M137.58,420.29v14.133l9.732.151V420.441Z" transform="translate(-132.924 -405.633)" fill="#ef2a66"/>
            <path id="Trazado_132314" data-name="Trazado 132314" d="M131.71,414.03v14.133l4.656,4.965V418.995Z" transform="translate(-131.71 -404.338)" fill="#f57fa3"/>
            <path id="Trazado_132315" data-name="Trazado 132315" d="M136.37,416.467l9.732.151a10.4,10.4,0,0,1,3.077-2.586c5.354-3.093,13.768-3.331,19.6-.722l5.782-5.441,8.907.143c-.436-.293-.888-.579-1.364-.849-12.381-7.138-32.446-7.138-44.819,0a23.229,23.229,0,0,0-5.552,4.338Z" transform="translate(-131.714 -401.81)" fill="#f9aac2"/>
          </g>
          <g id="Grupo_62440" data-name="Grupo 62440" transform="translate(37.332 8.447)">
            <path id="Trazado_132316" data-name="Trazado 132316" d="M182.14,418.5v12.991l8.423-2.015s-.492-7.606-.674-7.8S182.14,418.5,182.14,418.5Z" transform="translate(-175.763 -413.71)" fill="#5793ce"/>
            <g id="Grupo_62439" data-name="Grupo 62439">
              <path id="Trazado_132317" data-name="Trazado 132317" d="M174.1,434.88v14.141l.912.968,5.94-3.426s-.928-10.786-1.031-11.008A54.86,54.86,0,0,0,174.1,434.88Z" transform="translate(-174.1 -417.098)" fill="#173d7a"/>
              <path id="Trazado_132318" data-name="Trazado 132318" d="M185.568,430.28l-5.092,4.759c4.243,3.363,3.736,8.09-1.507,11.1a18.185,18.185,0,0,1-4.87,1.88l5.266,5.607-4.671,4.386a42.273,42.273,0,0,0,16.172-4.957c10.636-6.139,12.119-15.561,4.465-22.628Z" transform="translate(-174.1 -416.147)" fill="#396caa"/>
              <path id="Trazado_132319" data-name="Trazado 132319" d="M174.85,442.641v14.133l11.556-4.457,13.887-13.261-.048-15.006-14.7,11.651Z" transform="translate(-174.255 -414.858)" fill="#396caa"/>
              <path id="Trazado_132320" data-name="Trazado 132320" d="M185.568,412.46l-5.092,4.759c4.243,3.355,3.736,8.09-1.507,11.1a17.909,17.909,0,0,1-4.87,1.872l5.266,5.615-4.671,4.386a42.274,42.274,0,0,0,16.172-5c10.636-6.139,12.119-15.561,4.465-22.628Z" transform="translate(-174.1 -412.46)" fill="#dad5ed"/>
            </g>
          </g>
          <g id="Grupo_62441" data-name="Grupo 62441" transform="translate(0 12.444)">
            <path id="Trazado_132321" data-name="Trazado 132321" d="M164.925,454.634l-4.608-4.941a22.136,22.136,0,0,1-12.079-2.467c-3.3-1.911-4.814-4.656-4.219-7.217l-11.08-.19-4.251-4.529c-3.72,6.345-1.182,13.705,7.622,18.781,6.464,3.736,15.069,5.512,23.508,5.346Z" transform="translate(-127.029 -421.181)" fill="#396caa"/>
            <path id="Trazado_132322" data-name="Trazado 132322" d="M159.817,443.18v14.133L127.03,439.151V425.01l4.79,1.935Z" transform="translate(-127.03 -419.054)" fill="#396caa"/>
            <path id="Trazado_132323" data-name="Trazado 132323" d="M173.478,441.86V456l-5.108,4.8V446.666Z" transform="translate(-135.582 -422.54)" fill="#173d7a"/>
            <path id="Trazado_132324" data-name="Trazado 132324" d="M164.933,436.82l-4.608-4.941a22.136,22.136,0,0,1-12.079-2.467c-3.3-1.911-4.814-4.656-4.219-7.217l-11.048-.174-4.251-4.521c-3.72,6.345-1.182,13.705,7.622,18.781,6.464,3.736,15.069,5.512,23.508,5.346Z" transform="translate(-127.038 -417.5)" fill="#5793ce"/>
          </g>
        </g>
      </g>
      <path id="Trazado_132325" data-name="Trazado 132325" d="M80.289,150.763a7.067,7.067,0,1,1,7.075-7.067A7.067,7.067,0,0,1,80.289,150.763Zm0-11.96a4.894,4.894,0,1,0,4.894,4.894A4.894,4.894,0,0,0,80.289,138.8Z" transform="translate(-4.846 -17.954)" fill="#5793ce"/>
      <path id="Trazado_132326" data-name="Trazado 132326" d="M387.99,61.083A6.115,6.115,0,1,1,381.875,55a6.115,6.115,0,0,1,6.115,6.083Z" transform="translate(-67.434 -1.066)" fill="#dad5ed"/>
      <g id="Grupo_62446" data-name="Grupo 62446" transform="translate(253.172 106.197)">
        <g id="Grupo_62444" data-name="Grupo 62444">
          <path id="Trazado_132327" data-name="Trazado 132327" d="M340.786,137.951,311.71,121.169a1.5,1.5,0,0,0-1.507-.127h0l-2.823,1.634,1.983.722v21.168a5.6,5.6,0,0,0,2.34,4.473l27.759,16.045v2.482l2.847-1.642h0a2.078,2.078,0,0,0,.793-1.872v-21.66a5.6,5.6,0,0,0-2.316-4.441Z" transform="translate(-306.46 -120.896)" fill="url(#linear-gradient)"/>
          <path id="Trazado_132328" data-name="Trazado 132328" d="M337.675,167.891,308.6,151.109a5.607,5.607,0,0,1-2.379-4.473v-21.62c0-1.721,1.047-2.514,2.379-1.769l29.076,16.79a5.615,5.615,0,0,1,2.34,4.465v21.62C340.015,167.844,338.96,168.637,337.675,167.891Z" transform="translate(-306.22 -121.325)" fill="#f57fa3"/>
        </g>
        <g id="Grupo_62445" data-name="Grupo 62445" transform="translate(8.233 18.666)">
          <path id="Trazado_132329" data-name="Trazado 132329" d="M320.526,148.095c0,1.253-.88,1.761-1.967,1.134a4.354,4.354,0,0,1-1.959-3.395c0-1.253.88-1.761,1.959-1.134A4.338,4.338,0,0,1,320.526,148.095Z" transform="translate(-316.6 -144.432)" fill="#fff"/>
          <path id="Trazado_132330" data-name="Trazado 132330" d="M327.976,152.424c0,1.253-.88,1.761-1.959,1.134a4.338,4.338,0,0,1-1.967-3.4c0-1.245.88-1.753,1.967-1.126A4.322,4.322,0,0,1,327.976,152.424Z" transform="translate(-318.141 -145.327)" fill="#fff"/>
          <path id="Trazado_132331" data-name="Trazado 132331" d="M335.506,156.752c0,1.245-.88,1.753-1.959,1.126a4.322,4.322,0,0,1-1.967-3.395c0-1.253.88-1.761,1.967-1.134a4.354,4.354,0,0,1,1.959,3.4Z" transform="translate(-319.699 -146.221)" fill="#fff"/>
        </g>
      </g>
      <g id="Grupo_62449" data-name="Grupo 62449" transform="translate(112.458 73.497)">
        <g id="Grupo_62447" data-name="Grupo 62447" transform="translate(0 0)">
          <path id="Trazado_132332" data-name="Trazado 132332" d="M162.7,96.4l-28.52-16.465a1.459,1.459,0,0,0-1.475-.119h0L129.94,81.4l1.951.714v20.772a5.488,5.488,0,0,0,2.292,4.386L161.443,123v2.443l2.8-1.586h0a2.046,2.046,0,0,0,.793-1.832V100.782A5.5,5.5,0,0,0,162.7,96.4Z" transform="translate(-129.036 -79.666)" fill="#5793ce"/>
          <path id="Trazado_132333" data-name="Trazado 132333" d="M159.652,125.774,131.1,109.309a5.5,5.5,0,0,1-2.3-4.386V83.715c0-1.689,1.031-2.467,2.3-1.737l28.552,16.465a5.488,5.488,0,0,1,2.292,4.386v21.208C161.944,125.727,160.921,126.5,159.652,125.774Z" transform="translate(-128.8 -80.088)" fill="#dad5ed"/>
        </g>
        <g id="Grupo_62448" data-name="Grupo 62448" transform="translate(8.074 18.313)">
          <path id="Trazado_132334" data-name="Trazado 132334" d="M142.827,106.352c0,1.229-.865,1.721-1.927,1.11a4.235,4.235,0,0,1-1.919-3.331c0-1.229.857-1.729,1.919-1.11a4.243,4.243,0,0,1,1.927,3.331Z" transform="translate(-138.98 -102.755)" fill="#fff"/>
          <path id="Trazado_132335" data-name="Trazado 132335" d="M150.177,110.593c0,1.229-.857,1.729-1.927,1.118a4.267,4.267,0,0,1-1.919-3.339c0-1.221.857-1.721,1.919-1.11a4.251,4.251,0,0,1,1.927,3.331Z" transform="translate(-140.501 -103.634)" fill="#fff"/>
          <path id="Trazado_132336" data-name="Trazado 132336" d="M157.527,114.842c0,1.229-.857,1.721-1.919,1.11a4.259,4.259,0,0,1-1.927-3.331c0-1.229.865-1.729,1.927-1.11a4.235,4.235,0,0,1,1.919,3.331Z" transform="translate(-142.021 -104.512)" fill="#fff"/>
        </g>
      </g>
    </g>
  </g>
</svg>
