<svg xmlns="http://www.w3.org/2000/svg" width="364.157" height="358.556" viewBox="0 0 364.157 358.556">
  <g id="Grupo_124799" data-name="Grupo 124799" transform="translate(-950.842 -7496.307)">
    <g id="CF8_1.3_Mercado_de_divisas_1" data-name="CF8_1.3 Mercado de divisas 1" transform="translate(940.152 7461.747)">
      <g id="Layer_1" data-name="Layer 1" transform="translate(10.69 34.56)">
        <g id="Grupo_62372" data-name="Grupo 62372">
          <path id="Trazado_131835" data-name="Trazado 131835" d="M74.508,368.469a.517.517,0,0,0,0-.056,2.05,2.05,0,0,1-.048-.5,3.067,3.067,0,0,1,.657-1.826,4.685,4.685,0,0,1,1.441-1.185L244.1,268.158a8.384,8.384,0,0,1,2.451-.929,7.924,7.924,0,0,1,.8-.144,12.3,12.3,0,0,1,4.493.144,8.424,8.424,0,0,1,2.443.929l116.784,67.429a4.22,4.22,0,0,1,2.05,2.354,1.962,1.962,0,0,1,.04.577,3.011,3.011,0,0,1-.649,1.738,4.908,4.908,0,0,1-1.442,1.193l-45.7,26.387L249.207,411.8l-45.7,26.387a8.584,8.584,0,0,1-2.4.937,12.661,12.661,0,0,1-5.261,0,8.546,8.546,0,0,1-2.451-.937l-94.161-54.28L88.562,377.75,76.55,370.8A4.268,4.268,0,0,1,74.508,368.469Zm234.336-55.6,1.265-.737-62.464-36.037L90.284,366.987l1.273.737,61.151,35.284Z" transform="translate(-23.391 -80.846)" fill="#556bf7" opacity="0.2"/>
          <g id="Grupo_62359" data-name="Grupo 62359" transform="translate(11.566 19.082)">
            <path id="Trazado_131836" data-name="Trazado 131836" d="M76.424,383.1a.1.1,0,0,1,0,.048H76.36V382.6A2.1,2.1,0,0,0,76.424,383.1Z" transform="translate(-35.336 -122.964)" fill="#ecb591"/>
            <g id="Grupo_62358" data-name="Grupo 62358">
              <path id="Trazado_131837" data-name="Trazado 131837" d="M76.328,358.08v-.048a2.13,2.13,0,0,1-.048-.5,3.067,3.067,0,0,1,.657-1.826,4.709,4.709,0,0,1,1.441-1.193l167.548-96.747a8.71,8.71,0,0,1,2.442-.929c.256-.056.521-.1.8-.144a12.477,12.477,0,0,1,4.493.144,8.806,8.806,0,0,1,2.443.929L372.888,325.2a4.221,4.221,0,0,1,2.05,2.354,2,2,0,0,1,.04.577,3.011,3.011,0,0,1-.649,1.738,4.8,4.8,0,0,1-1.441,1.2l-45.7,26.379L251.027,401.42,205.3,427.807a8.585,8.585,0,0,1-2.4.937,12.66,12.66,0,0,1-5.261,0,8.543,8.543,0,0,1-2.451-.937l-94.1-54.328-10.667-6.158L78.41,360.378a4.285,4.285,0,0,1-2.082-2.3Zm234.368-55.6,1.265-.729L249.5,265.713,92.072,356.606l1.273.737,61.191,35.284Z" transform="translate(-35.32 -97.859)" fill="#80acff"/>
              <path id="Trazado_131838" data-name="Trazado 131838" d="M374.956,345.92v5.886a2.049,2.049,0,0,1-.088.617,3.258,3.258,0,0,1-.649,1.217,5.436,5.436,0,0,1-1.361,1.089L205.3,451.468a7.8,7.8,0,0,1-2.459.921,12.148,12.148,0,0,1-5.261,0,7.815,7.815,0,0,1-2.451-.921L99.514,396.26l-21.166-12.2a5.413,5.413,0,0,1-1.361-1.129,3.083,3.083,0,0,1-.673-1.265,3.2,3.2,0,0,1-.064-.569v-5.2h.064a4.356,4.356,0,0,0,2.034,2.274l31.745,18.323,85.039,49.1a8.066,8.066,0,0,0,2.451.945,12.148,12.148,0,0,0,5.261,0,8.007,8.007,0,0,0,2.459-.945L251,419.227l76.166-43.981,45.695-26.371a5.013,5.013,0,0,0,1.45-1.209A3.115,3.115,0,0,0,374.956,345.92Z" transform="translate(-35.314 -115.658)" fill="#b3d0ff"/>
              <path id="Trazado_131839" data-name="Trazado 131839" d="M352.375,372.01l-76.166,43.981-47.889-27.62,76.158-43.981Z" transform="translate(-65.603 -115.353)" fill="#5480ef"/>
              <path id="Trazado_131840" data-name="Trazado 131840" d="M315.794,303.989l-40.618,23.464-76.158,43.981-40.626,23.448L95.68,358.773l157.4-90.893Z" transform="translate(-39.184 -100.114)" fill="#5480ef"/>
              <path id="Trazado_131841" data-name="Trazado 131841" d="M67.631,318.478v.545a3.707,3.707,0,0,1-1.185-.152,2.5,2.5,0,0,1-.344-.12,4.157,4.157,0,0,1-1.69-1.353,6.1,6.1,0,0,1-1.073-2.5l-30.223-147.7a8.633,8.633,0,0,1-.128-2.651,9.778,9.778,0,0,1,1.93-4.941,6.623,6.623,0,0,1,1.954-1.77L204.436,61.094a4.573,4.573,0,0,1,2.058-.625,3.427,3.427,0,0,1,1.105.128,3.78,3.78,0,0,1,1.554.8,5.734,5.734,0,0,1,1.674,3.2l30.231,147.711a7.53,7.53,0,0,1,.152,1.353,9.61,9.61,0,0,1-.28,2.7,8.971,8.971,0,0,1-.416,1.289,4.341,4.341,0,0,0-.8.144,8.713,8.713,0,0,0-2.442.929L69.73,315.459a4.708,4.708,0,0,0-1.441,1.193,3.067,3.067,0,0,0-.657,1.826ZM235.8,209.774a7.775,7.775,0,0,0-.112-2.483l-3.828-17.906-.681-3.2L206.766,71.929a5.149,5.149,0,0,0-1.666-2.923,3.7,3.7,0,0,0-2.531-.8,4.693,4.693,0,0,0-1.922.625L40.355,161.389a6.27,6.27,0,0,0-1.85,1.6,8.921,8.921,0,0,0-1.858,4.581,7.512,7.512,0,0,0,.112,2.475L61.017,283.522l.921,4.316L65.7,305.456a5.205,5.205,0,0,0,1.626,2.891,3.716,3.716,0,0,0,2.5.8,4.653,4.653,0,0,0,1.922-.625l160.316-92.543a6.351,6.351,0,0,0,1.842-1.6,8.937,8.937,0,0,0,1.866-4.6Z" transform="translate(-26.688 -58.801)" fill="#b3d0ff"/>
              <path id="Trazado_131842" data-name="Trazado 131842" d="M236.569,209.219a7.776,7.776,0,0,1,.112,2.483,8.936,8.936,0,0,1-1.866,4.573,6.351,6.351,0,0,1-1.842,1.6L72.689,310.451a4.652,4.652,0,0,1-1.954.625,3.715,3.715,0,0,1-2.531-.8,5.205,5.205,0,0,1-1.658-2.923l-3.764-17.618-.857-4.284L37.669,172a7.512,7.512,0,0,1-.112-2.475,8.921,8.921,0,0,1,1.858-4.581,6.27,6.27,0,0,1,1.85-1.6L201.541,70.773a4.693,4.693,0,0,1,1.922-.625,3.7,3.7,0,0,1,2.531.8,5.149,5.149,0,0,1,1.682,2.907l24.4,114.269.681,3.2Z" transform="translate(-27.596 -60.729)" fill="#393b5c"/>
              <path id="Trazado_131843" data-name="Trazado 131843" d="M199.894,58.51h-.088a3.468,3.468,0,0,0-.8-.12,4.084,4.084,0,0,0-1.6.272,5.816,5.816,0,0,0-.745.36L29.071,155.777a6.526,6.526,0,0,0-1.962,1.77,9.9,9.9,0,0,0-1.93,4.933,8.929,8.929,0,0,0,.128,2.659L55.53,312.8a8.6,8.6,0,0,0,.392,1.3,4.805,4.805,0,0,0,1.6,2.114,3.469,3.469,0,0,0,1.193.593l6.142,1.65a2.494,2.494,0,0,1-.344-.12,4.156,4.156,0,0,1-1.69-1.353,6.1,6.1,0,0,1-1.073-2.5l-30.191-147.7a8.633,8.633,0,0,1-.128-2.651,9.778,9.778,0,0,1,1.93-4.941,6.623,6.623,0,0,1,1.954-1.77L202.881,60.68a4.573,4.573,0,0,1,2.058-.625,3.427,3.427,0,0,1,1.105.128h0Z" transform="translate(-25.133 -58.387)" fill="#80acff"/>
              <path id="Trazado_131844" data-name="Trazado 131844" d="M37.85,157.989l20.869-12.229,20.917-12.14,41.835-24.281,41.939-24.089,20.974-12.044,21.03-11.956L184.544,73.487l-20.917,12.14L121.792,109.9,79.853,134,58.88,146.033Z" transform="translate(-27.666 -58.958)" fill="#fff"/>
            </g>
            <path id="Trazado_131845" data-name="Trazado 131845" d="M195.132,453.045v5.878L99.514,403.715l-21.166-12.2a5.413,5.413,0,0,1-1.361-1.129,3.083,3.083,0,0,1-.673-1.265,3.2,3.2,0,0,1-.064-.569v-5.2h.064a4.357,4.357,0,0,0,2.034,2.274l31.745,18.323Z" transform="translate(-35.314 -123.113)" fill="#5480ef"/>
          </g>
          <g id="Grupo_62361" data-name="Grupo 62361" transform="translate(46.384 41.639)">
            <path id="Trazado_131846" data-name="Trazado 131846" d="M304.608,90.115l-5.39-3.019a2.747,2.747,0,0,0-.521-.3,5.036,5.036,0,0,0-4.372.713L103.858,197.5a13.19,13.19,0,0,0-4.38,4.34,10.619,10.619,0,0,0-1.818,5.422v140.24a3.307,3.307,0,0,0,1.818,3.331l5.9,3.323,3.1-4.1,92.943-53.655,95.234-54.984a13.189,13.189,0,0,0,4.38-4.34,10.6,10.6,0,0,0,1.81-5.422V92.469Z" transform="translate(-74.396 -86.555)" fill="#80acff"/>
            <path id="Trazado_131847" data-name="Trazado 131847" d="M301.7,244.311c-47.849,27.548-142.77,82.429-190.467,109.969a5.052,5.052,0,0,1-4.38.713c-1.121-.473-1.81-1.6-1.81-3.331V211.421a10.611,10.611,0,0,1,1.81-5.43,13.334,13.334,0,0,1,4.381-4.34L301.7,91.682c1.714-.985,3.259-1.185,4.38-.713s1.81,1.6,1.81,3.331V234.54a10.611,10.611,0,0,1-1.81,5.43A13.263,13.263,0,0,1,301.7,244.311Z" transform="translate(-75.866 -87.386)" fill="#b5abdb"/>
            <rect id="Rectángulo_7191" data-name="Rectángulo 7191" width="2.955" height="31.44" transform="translate(89.428 111.35)" fill="#fed2a8"/>
            <rect id="Rectángulo_7192" data-name="Rectángulo 7192" width="2.955" height="23.704" transform="translate(209.887 94.533)" fill="#fed2a8"/>
            <rect id="Rectángulo_7193" data-name="Rectángulo 7193" width="2.955" height="31.44" transform="translate(187.68 54.852)" fill="#fed2a8"/>
            <rect id="Rectángulo_7194" data-name="Rectángulo 7194" width="2.955" height="73.403" transform="translate(187.68 123.979)" fill="#fed2a8"/>
            <path id="Trazado_131848" data-name="Trazado 131848" d="M282.046,325.044h-2.955V300.082l-12.9,7.448V262.54h2.955v39.873l12.9-7.448Z" transform="translate(-107.964 -121.607)" fill="#fed2a8"/>
            <path id="Trazado_131849" data-name="Trazado 131849" d="M239.175,326.257H236.22V155.9l16.889-9.746V102.94h2.955v44.918L239.175,157.6Z" transform="translate(-101.994 -89.819)" fill="#fed2a8"/>
            <path id="Trazado_131850" data-name="Trazado 131850" d="M257.125,179.9H254.17V160.448l16.881-9.754v-43.2h2.955V152.4l-16.881,9.754Z" transform="translate(-105.57 -90.725)" fill="#fed2a8"/>
            <path id="Trazado_131851" data-name="Trazado 131851" d="M199.584,344.214h-2.963V318.5l16.889-9.746V183.714l-33.771,19.5V168.37H182.7v29.718l33.771-19.5V310.46l-16.881,9.746Z" transform="translate(-90.745 -102.851)" fill="#fed2a8"/>
            <path id="Trazado_131852" data-name="Trazado 131852" d="M130.692,350.372l-1.482-2.555,24.505-14.15V304.933L277.33,233.54v28.733l26.892-15.536L305.7,249.3l-31.328,18.091V238.657l-117.7,67.982v28.733Z" transform="translate(-80.68 -115.831)" fill="#fed2a8"/>
            <path id="Trazado_131853" data-name="Trazado 131853" d="M142.271,251.683V222.95l-26.659,15.392-1.482-2.555,31.1-17.954v28.733l142.33-82.172V135.2l37.15-21.446,1.482,2.555-35.677,20.6v29.2Z" transform="translate(-77.677 -91.972)" fill="#fed2a8"/>
            <path id="Trazado_131854" data-name="Trazado 131854" d="M122.389,295.526v-29.2L76.022,293.1l-1.482-2.563,50.8-29.334v29.2L296.1,191.82l1.474,2.563Z" transform="translate(-69.791 -107.522)" fill="#fed2a8"/>
            <g id="Grupo_62360" data-name="Grupo 62360" transform="translate(80.306 77.906)">
              <path id="Trazado_131855" data-name="Trazado 131855" d="M272.34,213.71c0,14.287-5.79,30.559-15.152,45.326S234.9,287.065,220.615,295.3s-27.228,9.922-36.573,5.966-15.152-13.542-15.152-27.829,5.79-30.551,15.152-45.318,22.295-28.029,36.573-36.269,27.228-9.922,36.574-5.966S272.34,199.432,272.34,213.71Z" transform="translate(-168.89 -183.838)" fill="#fed2a8"/>
              <path id="Trazado_131856" data-name="Trazado 131856" d="M196.268,298.864a21.557,21.557,0,0,1-8.449-1.6c-7.448-3.139-11.54-11.091-11.54-22.383,0-12.709,5.053-27.676,14.231-42.155,9.266-14.615,21.526-26.8,34.531-34.307,8.184-4.725,16.089-7.207,22.871-7.207a21.558,21.558,0,0,1,8.449,1.6c7.44,3.147,11.54,11.1,11.54,22.383,0,12.709-5.053,27.684-14.231,42.155-9.266,14.575-21.558,26.788-34.539,34.3C210.948,296.373,203.043,298.864,196.268,298.864Z" transform="translate(-170.362 -185.306)" fill="#f3f7ff"/>
            </g>
            <path id="Trazado_131857" data-name="Trazado 131857" d="M79.629,311.1a9.474,9.474,0,0,1-1.6,4.845,11.732,11.732,0,0,1-3.908,3.876,4.521,4.521,0,0,1-3.908.641,2.943,2.943,0,0,1-1.6-2.979,9.53,9.53,0,0,1,1.6-4.8,11.884,11.884,0,0,1,3.884-3.892A4.5,4.5,0,0,1,78,308.146,2.955,2.955,0,0,1,79.629,311.1Z" transform="translate(-68.61 -130.648)" fill="#fed2a8"/>
            <path id="Trazado_131858" data-name="Trazado 131858" d="M206.829,384.3a9.481,9.481,0,0,1-1.6,4.8,11.812,11.812,0,0,1-3.908,3.876,4.49,4.49,0,0,1-3.908.633,2.945,2.945,0,0,1-1.6-2.971,9.458,9.458,0,0,1,1.6-4.845,11.812,11.812,0,0,1,3.908-3.876,4.49,4.49,0,0,1,3.908-.633A3,3,0,0,1,206.829,384.3Z" transform="translate(-93.946 -145.215)" fill="#fed2a8"/>
            <path id="Trazado_131859" data-name="Trazado 131859" d="M186.259,220.806a9.458,9.458,0,0,1-1.6,4.8,11.812,11.812,0,0,1-3.908,3.876,4.487,4.487,0,0,1-3.908.633,2.938,2.938,0,0,1-1.6-2.971,9.458,9.458,0,0,1,1.6-4.845,11.884,11.884,0,0,1,3.908-3.876,4.49,4.49,0,0,1,3.908-.633A3,3,0,0,1,186.259,220.806Z" transform="translate(-89.848 -112.651)" fill="#fed2a8"/>
            <path id="Trazado_131860" data-name="Trazado 131860" d="M288.309,335.816a9.5,9.5,0,0,1-1.6,4.845,11.813,11.813,0,0,1-3.908,3.876,4.487,4.487,0,0,1-3.908.633,2.945,2.945,0,0,1-1.6-2.971,9.457,9.457,0,0,1,1.6-4.845,11.883,11.883,0,0,1,3.908-3.876,4.49,4.49,0,0,1,3.908-.633A2.938,2.938,0,0,1,288.309,335.816Z" transform="translate(-110.175 -135.567)" fill="#fed2a8"/>
            <path id="Trazado_131861" data-name="Trazado 131861" d="M242.259,377.025a9.458,9.458,0,0,1-1.6,4.845,11.884,11.884,0,0,1-3.908,3.876,4.524,4.524,0,0,1-3.908.641,2.943,2.943,0,0,1-1.6-2.979,9.473,9.473,0,0,1,1.6-4.8,11.811,11.811,0,0,1,3.908-3.876,4.494,4.494,0,0,1,3.908-.641A2.9,2.9,0,0,1,242.259,377.025Z" transform="translate(-101.002 -143.782)" fill="#fed2a8"/>
            <path id="Trazado_131862" data-name="Trazado 131862" d="M308.979,328.2a9.458,9.458,0,0,1-1.6,4.8,11.883,11.883,0,0,1-3.908,3.876,4.49,4.49,0,0,1-3.908.633,2.938,2.938,0,0,1-1.6-2.971,9.481,9.481,0,0,1,1.6-4.845,11.883,11.883,0,0,1,3.908-3.876,4.487,4.487,0,0,1,3.908-.633A3.036,3.036,0,0,1,308.979,328.2Z" transform="translate(-114.292 -134.041)" fill="#fed2a8"/>
            <path id="Trazado_131863" data-name="Trazado 131863" d="M352.839,246.746a9.458,9.458,0,0,1-1.6,4.8,11.884,11.884,0,0,1-3.908,3.876,4.493,4.493,0,0,1-3.908.633,2.95,2.95,0,0,1-1.6-2.971,9.474,9.474,0,0,1,1.6-4.845,11.732,11.732,0,0,1,3.908-3.876,4.487,4.487,0,0,1,3.908-.633A3,3,0,0,1,352.839,246.746Z" transform="translate(-123.028 -117.818)" fill="#fed2a8"/>
            <path id="Trazado_131864" data-name="Trazado 131864" d="M352.839,190.446a9.457,9.457,0,0,1-1.6,4.845,11.884,11.884,0,0,1-3.908,3.876,4.492,4.492,0,0,1-3.908.633,2.95,2.95,0,0,1-1.6-2.971,9.474,9.474,0,0,1,1.6-4.8,11.732,11.732,0,0,1,3.908-3.876,4.487,4.487,0,0,1,3.908-.633A2.878,2.878,0,0,1,352.839,190.446Z" transform="translate(-123.028 -106.62)" fill="#fed2a8"/>
            <path id="Trazado_131865" data-name="Trazado 131865" d="M308.979,150.275a9.458,9.458,0,0,1-1.6,4.8,11.884,11.884,0,0,1-3.908,3.876,4.5,4.5,0,0,1-3.908.641,2.95,2.95,0,0,1-1.6-2.979,9.458,9.458,0,0,1,1.6-4.8,11.812,11.812,0,0,1,3.908-3.876,4.494,4.494,0,0,1,3.908-.641A2.95,2.95,0,0,1,308.979,150.275Z" transform="translate(-114.292 -98.61)" fill="#fed2a8"/>
            <path id="Trazado_131866" data-name="Trazado 131866" d="M263.317,96.566a9.53,9.53,0,0,1-1.6,4.8,11.884,11.884,0,0,1-3.908,3.876,4.506,4.506,0,0,1-3.916.633,2.938,2.938,0,0,1-1.6-2.971,9.53,9.53,0,0,1,1.6-4.8,11.829,11.829,0,0,1,3.916-3.876,4.487,4.487,0,0,1,3.908-.633A2.938,2.938,0,0,1,263.317,96.566Z" transform="translate(-105.195 -87.913)" fill="#fed2a8"/>
            <path id="Trazado_131867" data-name="Trazado 131867" d="M382.169,110.566a9.474,9.474,0,0,1-1.6,4.8,11.732,11.732,0,0,1-3.908,3.876,4.487,4.487,0,0,1-3.908.633,2.945,2.945,0,0,1-1.6-2.971,9.457,9.457,0,0,1,1.6-4.8,11.885,11.885,0,0,1,3.908-3.876,4.492,4.492,0,0,1,3.908-.633A2.95,2.95,0,0,1,382.169,110.566Z" transform="translate(-128.87 -90.702)" fill="#fed2a8"/>
            <path id="Trazado_131868" data-name="Trazado 131868" d="M281.259,102.6a9.482,9.482,0,0,1-1.6,4.8,11.86,11.86,0,0,1-3.908,3.868,4.47,4.47,0,0,1-3.908.641,2.945,2.945,0,0,1-1.6-2.971,9.458,9.458,0,0,1,1.6-4.8,11.812,11.812,0,0,1,3.908-3.876,4.521,4.521,0,0,1,3.908-.641A2.943,2.943,0,0,1,281.259,102.6Z" transform="translate(-108.77 -89.114)" fill="#fed2a8"/>
            <path id="Trazado_131869" data-name="Trazado 131869" d="M185.739,163.588a9.458,9.458,0,0,1-1.6,4.8,11.812,11.812,0,0,1-3.908,3.876,4.494,4.494,0,0,1-3.908.641,2.945,2.945,0,0,1-1.6-2.971,9.458,9.458,0,0,1,1.6-4.845,11.884,11.884,0,0,1,3.908-3.876,4.524,4.524,0,0,1,3.908-.641A2.991,2.991,0,0,1,185.739,163.588Z" transform="translate(-89.745 -101.256)" fill="#fed2a8"/>
            <path id="Trazado_131870" data-name="Trazado 131870" d="M336.709,231.277a9.457,9.457,0,0,1-1.6,4.8,11.812,11.812,0,0,1-3.908,3.876,4.494,4.494,0,0,1-3.908.641,2.945,2.945,0,0,1-1.6-2.971,9.458,9.458,0,0,1,1.6-4.8,11.884,11.884,0,0,1,3.908-3.876,4.5,4.5,0,0,1,3.908-.641A2.938,2.938,0,0,1,336.709,231.277Z" transform="translate(-119.815 -114.745)" fill="#fed2a8"/>
            <path id="Trazado_131871" data-name="Trazado 131871" d="M134.259,373.046a9.458,9.458,0,0,1-1.6,4.8,11.884,11.884,0,0,1-3.908,3.876,4.49,4.49,0,0,1-3.908.633,2.938,2.938,0,0,1-1.6-2.971,9.474,9.474,0,0,1,1.6-4.845,11.812,11.812,0,0,1,3.908-3.876,4.487,4.487,0,0,1,3.908-.633A3.044,3.044,0,0,1,134.259,373.046Z" transform="translate(-79.491 -142.974)" fill="#fed2a8"/>
            <path id="Trazado_131872" data-name="Trazado 131872" d="M118.1,263.606a9.554,9.554,0,0,1-1.6,4.845,11.8,11.8,0,0,1-3.916,3.868,4.468,4.468,0,0,1-3.908.641,2.945,2.945,0,0,1-1.6-2.971,9.53,9.53,0,0,1,1.6-4.845,11.884,11.884,0,0,1,3.908-3.876,4.541,4.541,0,0,1,3.916-.641A2.943,2.943,0,0,1,118.1,263.606Z" transform="translate(-76.27 -121.184)" fill="#fed2a8"/>
            <path id="Trazado_131873" data-name="Trazado 131873" d="M255.908,246.633c0-9.9-6.8-9.153-13.614-6.519,5.678-4.485,11.019-11.788,11.019-19.22,0-8.577-5.822-9.69-15.824-5.422V208.45l-10.755,6.214v6.407l-13.614,7.864V288.42l13.614-7.864v6.407l10.755-6.214V274C248.492,266.55,255.908,257.668,255.908,246.633Zm-31.416-15.856,5.333-3.083c7.752-4.477,11.884-5.141,11.884.889,0,5.606-4.052,10.683-10.251,14.263l-6.967,4Zm6.623,38.784-6.623,3.828v-18.6l7.832-4.525c6.631-3.828,11.708-4.348,11.708,2.795C244.032,260.551,238.65,265.236,231.114,269.561Z" transform="translate(-97.393 -110.834)" fill="#12263f"/>
          </g>
          <g id="Grupo_62362" data-name="Grupo 62362" transform="translate(287.767 103.586)">
            <path id="Trazado_131874" data-name="Trazado 131874" d="M430.736,246.421v-9.994l-3.283-1.89v-5.67l-3.275-1.89v-6.559l-6.559-3.788v-6.487l-9.306-5.374v13.045l-5.646-3.259-.913-.529-5.654-3.259v-6.559l5.654,3.259V200.91l6.559,3.788v-3.436l9.306,5.374v3.436l6.559,3.788v-3.436l6.559,3.788,9.994,5.766v9.994l-9.994-5.766v-6.487l-6.559-3.788v6.487l6.559,3.788v5.662l3.283,1.9v6.559l6.711,3.876v13.91l-3.916-2.266v-3.916Z" transform="translate(-375.223 -171.28)" fill="#f3f7ff"/>
            <path id="Trazado_131875" data-name="Trazado 131875" d="M447.366,236.808v3.916l-3.916-2.258V234.55Z" transform="translate(-384.654 -177.98)" fill="#f3f7ff"/>
            <path id="Trazado_131876" data-name="Trazado 131876" d="M421.353,219.678v6.5l-6.5-3.756V215.93Z" transform="translate(-378.957 -174.271)" fill="#f3f7ff"/>
            <path id="Trazado_131877" data-name="Trazado 131877" d="M426.886,234.912l-3.916-2.266V228.73L426.886,231Z" transform="translate(-380.575 -176.821)" fill="#f3f7ff"/>
            <path id="Trazado_131878" data-name="Trazado 131878" d="M412.81,248.28l3.916,2.258v3.916L412.81,252.2Z" transform="translate(-378.551 -180.715)" fill="#f3f7ff"/>
            <path id="Trazado_131879" data-name="Trazado 131879" d="M417.59,236.92l3.916,2.258v3.916l-3.916-2.258Z" transform="translate(-379.503 -178.452)" fill="#f3f7ff"/>
            <path id="Trazado_131880" data-name="Trazado 131880" d="M412.532,236.083v4.949l-7.992-4.621V231.47Z" transform="translate(-376.904 -177.367)" fill="#f3f7ff"/>
            <path id="Trazado_131881" data-name="Trazado 131881" d="M414.153,230.709l-2.8-1.626V222.02l2.8,1.618Z" transform="translate(-378.26 -175.484)" fill="#f3f7ff"/>
            <path id="Trazado_131882" data-name="Trazado 131882" d="M417.7,255.99l6.863,3.964v3.916l-6.863-3.964Z" transform="translate(-379.525 -182.25)" fill="#f3f7ff"/>
            <path id="Trazado_131883" data-name="Trazado 131883" d="M426.27,269.746V265.83l3.916,2.266v3.916Z" transform="translate(-381.232 -184.21)" fill="#f3f7ff"/>
            <path id="Trazado_131884" data-name="Trazado 131884" d="M411.35,261.136V257.22l5.085,2.931v3.916Z" transform="translate(-378.26 -182.495)" fill="#f3f7ff"/>
            <path id="Trazado_131885" data-name="Trazado 131885" d="M424.563,269.734v2.515l-6.863-3.964V265.77Z" transform="translate(-379.525 -184.198)" fill="#f3f7ff"/>
            <path id="Trazado_131886" data-name="Trazado 131886" d="M393.6,212.421v5.686h0v9.946l-9.994-5.766v-9.994l4.308,2.491V209.13Z" transform="translate(-372.735 -172.917)" fill="#f3f7ff"/>
            <path id="Trazado_131887" data-name="Trazado 131887" d="M383.62,197.82l4.3,2.483v6.575l-4.3-2.475Z" transform="translate(-372.737 -170.664)" fill="#f3f7ff"/>
            <path id="Trazado_131888" data-name="Trazado 131888" d="M396.1,218.16l6.759,3.9v6.759l-6.759-3.9Z" transform="translate(-375.223 -174.715)" fill="#f3f7ff"/>
            <path id="Trazado_131889" data-name="Trazado 131889" d="M435.99,266.269l-6.559-3.788v-6.655l-6.951-4.012v-8.577l2.939,1.7v-7.3l7.287,4.212v7.3l-3.275-1.9v8.361l6.519,3.764v-1.746l-3.876-2.234v-3.916l3.916,2.258v3.916l6.078,3.508v6.118l-5.766-3.331v2.443l9.682,5.59v9.994l-8.272-4.773-1.722-.993-10.475-6.054v-3.508L435.99,272.7Z" transform="translate(-380.477 -178.595)" fill="#f3f7ff"/>
            <path id="Trazado_131890" data-name="Trazado 131890" d="M380.905,239.708l.008.008V233.99l4.3,2.475V242.2l5.686,3.283V248.6l6.823,3.94v3.363l10.483,6.046v3.508l-12.2-7.039v-3.508l-5.109-2.947v3.508l-9.986-5.766v10.883l-10.883-6.286V243.424l10.875,6.278Z" transform="translate(-370.03 -177.868)" fill="#f3f7ff"/>
            <path id="Trazado_131891" data-name="Trazado 131891" d="M408.311,245.477v6.815l-12.221-7.055V232.76l6.767,3.908v5.662Z" transform="translate(-375.221 -177.623)" fill="#f3f7ff"/>
            <path id="Trazado_131892" data-name="Trazado 131892" d="M462.713,310.17l-10.883-6.286V293l10.883,6.286Z" transform="translate(-386.323 -189.622)" fill="#f3f7ff"/>
            <path id="Trazado_131893" data-name="Trazado 131893" d="M462.713,217.416V228.3l-10.883-6.286V211.13Z" transform="translate(-386.323 -173.315)" fill="#f3f7ff"/>
            <path id="Trazado_131894" data-name="Trazado 131894" d="M380.913,170.188v10.883l6.342,3.66,3.644,2.106,5.662,3.267v3.508l-5.662-3.267v6.487l-9.994-5.774v-9.986l-10.875-6.278V163.91Z" transform="translate(-370.03 -163.91)" fill="#f3f7ff"/>
          </g>
          <g id="Grupo_62363" data-name="Grupo 62363" transform="translate(74.548)">
            <path id="Trazado_131895" data-name="Trazado 131895" d="M142.413,145.569l-13.133,7.584V114.994l13.133-7.584Z" transform="translate(-108.859 -49.07)" fill="#6c58b8"/>
            <path id="Trazado_131896" data-name="Trazado 131896" d="M193.413,107.483l-13.133,7.584V42.144l13.133-7.584Z" transform="translate(-119.017 -34.56)" fill="#febc7c"/>
            <path id="Trazado_131897" data-name="Trazado 131897" d="M167.913,125.475l-13.133,7.584V73.294l13.133-7.584Z" transform="translate(-113.938 -40.764)" fill="#febc7c"/>
            <path id="Trazado_131898" data-name="Trazado 131898" d="M116.913,154.925,103.78,162.5V102.744l13.133-7.584Z" transform="translate(-103.78 -46.63)" fill="#6c58b8"/>
            <path id="Trazado_131899" data-name="Trazado 131899" d="M218.913,96.28l-13.133,7.584V45.124l13.133-7.584Z" transform="translate(-124.096 -35.154)" fill="#ef2a66"/>
          </g>
          <g id="Grupo_62364" data-name="Grupo 62364" transform="translate(0 89.892)">
            <path id="Trazado_131900" data-name="Trazado 131900" d="M60.042,147.763,41.03,178.538s-8.993-7.3-15.96-13.157a56.2,56.2,0,0,1,15.96-14.327C48.406,146.786,55.109,145.833,60.042,147.763Z" transform="translate(-13.554 -146.81)" fill="#ef2a66"/>
            <path id="Trazado_131901" data-name="Trazado 131901" d="M38.166,183.15,10.69,200.343v-1.321c0-9.241,4.557-20.021,11.548-29.062C29.173,175.846,38.166,183.15,38.166,183.15Z" transform="translate(-10.69 -151.421)" fill="#febc7c"/>
            <path id="Trazado_131902" data-name="Trazado 131902" d="M59.6,195.207a58.769,58.769,0,0,1-19.068,18.707c-6.831,3.94-13.085,5.061-17.9,3.708L40.544,186.43Z" transform="translate(-13.068 -154.701)" fill="#febc7c"/>
            <path id="Trazado_131903" data-name="Trazado 131903" d="M72.46,162.911c0,7.768-3.2,16.649-8.409,24.641L45,178.776,64.011,148C69.225,149.946,72.46,155.119,72.46,162.911Z" transform="translate(-17.524 -147.047)" fill="#80acff"/>
            <path id="Trazado_131904" data-name="Trazado 131904" d="M38.166,186.43,20.252,217.622c-5.55-1.562-9.185-6.407-9.562-14Z" transform="translate(-10.69 -154.701)" fill="#ef2a66"/>
          </g>
          <g id="Grupo_62365" data-name="Grupo 62365" transform="translate(0.729 150.862)">
            <path id="Trazado_131905" data-name="Trazado 131905" d="M60.956,223.87,41.92,254.685S32.943,247.382,26,241.5a56.45,56.45,0,0,1,15.944-14.3C49.312,222.933,56.015,221.98,60.956,223.87Z" transform="translate(-14.468 -222.944)" fill="#ef2a66"/>
            <path id="Trazado_131906" data-name="Trazado 131906" d="M39.052,259.3,11.6,276.5v-1.321c0-9.241,4.549-20.02,11.54-29.054C30.075,252,39.052,259.3,39.052,259.3Z" transform="translate(-11.6 -227.56)" fill="#febc7c"/>
            <path id="Trazado_131907" data-name="Trazado 131907" d="M60.506,271.349A58.714,58.714,0,0,1,41.43,290.056C34.6,294,28.345,295.117,23.54,293.772L41.43,262.54Z" transform="translate(-13.978 -230.831)" fill="#ef2a66"/>
            <path id="Trazado_131908" data-name="Trazado 131908" d="M73.364,239.051c0,7.768-3.2,16.649-8.409,24.641L45.88,254.884,64.916,224.1C70.121,226.094,73.364,231.227,73.364,239.051Z" transform="translate(-18.428 -223.174)" fill="#febc7c"/>
            <path id="Trazado_131909" data-name="Trazado 131909" d="M39.052,262.58l-17.89,31.232c-5.558-1.6-9.193-6.407-9.562-14.006Z" transform="translate(-11.6 -230.839)" fill="#80acff"/>
          </g>
          <g id="Grupo_62368" data-name="Grupo 62368" transform="translate(234.993 159.844)">
            <path id="Trazado_131910" data-name="Trazado 131910" d="M304.659,268.593l5.966-3.444a1.458,1.458,0,0,1,1.337,0l11.508,6.663.977.168v.657a.512.512,0,0,1-.28.36l-6.214,3.588a1.458,1.458,0,0,1-1.337,0L304.4,269.514a.488.488,0,0,1-.272-.376V268.5Z" transform="translate(-304.13 -240.3)" fill="#8086bd"/>
            <path id="Trazado_131911" data-name="Trazado 131911" d="M317.336,275.9a1.225,1.225,0,0,0,.593-.144l6.326-3.652c.12-.072.192-.16.192-.232a.344.344,0,0,0-.192-.24l-12.421-7.207a1.289,1.289,0,0,0-1.185,0l-6.326,3.652c-.12.072-.192.16-.192.24s.072.16.192.232l12.421,7.207A1.225,1.225,0,0,0,317.336,275.9Z" transform="translate(-304.13 -240.159)" fill="#dde6f5"/>
            <path id="Trazado_131912" data-name="Trazado 131912" d="M326.558,269s-2.659-2.234-4.581-1.249-2.963,1.385-2.947,1.546a2.515,2.515,0,0,0,2.034.8c1.049-.08,4.308-.8,4.308-.8Z" transform="translate(-307.098 -240.8)" fill="#e3b4b1"/>
            <path id="Trazado_131913" data-name="Trazado 131913" d="M327.791,269.437c-.168-.064-2.026-2.4-2.683-2.571a14.536,14.536,0,0,0-4,.208,8.522,8.522,0,0,0-2.194,1.97c0,.288.569.288,1.706-.368a3.62,3.62,0,0,1,2.146-.464.128.128,0,0,1,.12.136c0,.3-.128.544-1.137.633-1.257.1-1.506.392-1.506.392s-.473.376-.36.609a6.453,6.453,0,0,0,1.361.216s2.17,0,2.314.08,2.579,1.049,2.579,1.049Z" transform="translate(-307.074 -240.664)" fill="#f3c1be"/>
            <path id="Trazado_131914" data-name="Trazado 131914" d="M338.283,270.427c-3.612-1.2-7.936-2.779-9.29-3.2h-.048a1.017,1.017,0,0,0-.5-.056,2.09,2.09,0,0,0-.857.3,4.1,4.1,0,0,0-1.994,3.139,1.081,1.081,0,0,0,.553,1.065.8.8,0,0,0,.232.072c1.722.553,12.533,3.916,15.464,4.292C342.848,276.1,338.3,268.745,338.283,270.427Z" transform="translate(-308.405 -240.733)" fill="#393b5c"/>
            <g id="Grupo_62367" data-name="Grupo 62367" transform="translate(20.58)">
              <path id="Trazado_131915" data-name="Trazado 131915" d="M351.18,362.193c4.893,2.827,4.893,7.4,0,10.219s-12.813,2.819-17.69,0-4.885-7.392,0-10.219S346.295,359.375,351.18,362.193Z" transform="translate(-329.829 -259.24)" fill="#a0a2c1" opacity="0.3"/>
              <path id="Trazado_131916" data-name="Trazado 131916" d="M353.514,331.75s2.274,3.708,1.706,6.943-2.451,11.308-1.706,13.278-4.469,7.936-5.133,7.672.8-.545,1.137-2.539.857-14.639-.1-16.921a40.74,40.74,0,0,1-1.6-7.5Z" transform="translate(-333.412 -253.598)" fill="#fabeaa"/>
              <g id="Grupo_62366" data-name="Grupo 62366" transform="translate(0.938 2.667)">
                <path id="Trazado_131917" data-name="Trazado 131917" d="M352.083,256.989l-.272-.184h0l-.264-.144a2.741,2.741,0,0,0-.961-.312.883.883,0,0,0-.2,0,1.41,1.41,0,0,0-1.033.416h0a1.45,1.45,0,0,0-.208.264,2.194,2.194,0,0,0-.3.961,4.581,4.581,0,0,0,.224,1.842s-6.2,19.876-6.222,19.676c-.152-1.241,7.207-3,7.664-4.709.985-3.548,2.659-8.329,3.564-10.843a6.126,6.126,0,0,0-1.4-6.471A5.477,5.477,0,0,0,352.083,256.989Z" transform="translate(-333.36 -241.245)" fill="#58598c"/>
                <path id="Trazado_131918" data-name="Trazado 131918" d="M345.374,357.7a34.837,34.837,0,0,1,0-6.887c1.6-10.723.545-10.2-.04-14.295s-.9-5.542-.657-8.056l-6.847-.865s.865,4.485,1.185,8.1,2.306,8.465,2.4,17.546a34.307,34.307,0,0,1-2.9,7.352c-1.425,2.459,5.093-1.826,4.861-1.746S345.374,357.7,345.374,357.7Z" transform="translate(-332.36 -255.438)" fill="#ffdbcf"/>
                <path id="Trazado_131919" data-name="Trazado 131919" d="M353.225,312.844h0c0,1.546-1.033,3.091-3.067,4.268a15.9,15.9,0,0,1-9.121,1.69,14.248,14.248,0,0,1-5.718-1.69c-2.186-1.257-3.2-2.939-3.059-4.589-.072-1.666-.4-9.61-.152-15.5v-.665l.048-.9a21.324,21.324,0,0,1,.569-4.076,38.012,38.012,0,0,0,.945-6.118h0a72.566,72.566,0,0,0,.3-11.868.544.544,0,0,0-.064-.232c-.2-.352-.729-.985-1.289-1.722a13.737,13.737,0,0,1-1.6-2.4.056.056,0,0,0,0-.04c.208-.753.521-1.7.841-2.579a6.5,6.5,0,0,1,1.449-2.322l.1-.1.192-.176c.464-.416.985-.873,1.6-1.369h0c3.123-2.659,3.676-2.611,3.764-2.555h0c5.109-.641,7.047-2.034,7.752-2.875a1.831,1.831,0,0,0,.208-.256h0a1.3,1.3,0,0,0,.208-.408h1.033a3.052,3.052,0,0,1,.961.312l.264.152h0c1.105,1.449,1.425,4.669,1.281,6.455a1.962,1.962,0,0,1,0,.312c-.24,1.337-1.6,4.565-2.651,7.48a24.328,24.328,0,0,0-1.105,3.868c-.2,1.313.488,3.123,1.434,5.149s2.138,4.276,2.915,6.407a13.95,13.95,0,0,1,.625,2.146C352.864,293.336,353.225,312.844,353.225,312.844Z" transform="translate(-331.002 -241.25)" fill="#494a7d"/>
                <path id="Trazado_131920" data-name="Trazado 131920" d="M341.026,320.622a14.246,14.246,0,0,1-5.718-1.69c-2.186-1.257-3.2-2.939-3.059-4.589-.072-1.666-.4-9.61-.152-15.5v-.665l.048-.9a21.323,21.323,0,0,1,.569-4.076,38.008,38.008,0,0,0,.945-6.118h0a72.574,72.574,0,0,0,.3-11.868.545.545,0,0,0-.064-.232c-.2-.352-.729-.985-1.289-1.722a13.737,13.737,0,0,1-1.6-2.4.056.056,0,0,0,0-.04c.208-.753.521-1.7.841-2.579a6.494,6.494,0,0,1,1.449-2.322l.1-.1.192-.176c.464-.416,2.563.192,2.563.192l3.131,4.933s-1.3,12.525-.633,16.665a127.15,127.15,0,0,1,1.97,18.018c.04,1.081.072,2.178.1,3.259.056,2.074.1,4.116.144,5.958C340.97,317.155,341,319.229,341.026,320.622Z" transform="translate(-331 -243.071)" fill="#3e4055" opacity="0.18"/>
                <path id="Trazado_131921" data-name="Trazado 131921" d="M347.3,250.853s-.553,3.291,1.714,3.756c0,0-.513,2.747-8.168,3.556l-.649.184s1.4-1.6.729-4.981,2.619-5.494,2.619-5.494l3.251-.184.865.328Z" transform="translate(-332.832 -239.522)" fill="#ffcdc2"/>
                <path id="Trazado_131922" data-name="Trazado 131922" d="M335.717,239.164s-.617,1.065-.617,4.2,1.425,6.342,3.2,7.616l2.963.5,3.027-3.748,1.938-5.99L343.6,239.5l-2.979-1.281-1.177-.729h-2.4Z" transform="translate(-331.817 -237.49)" fill="#ffcdc2"/>
                <path id="Trazado_131923" data-name="Trazado 131923" d="M340.656,251.668a.714.714,0,0,1,0-.288A1.739,1.739,0,0,0,340.656,251.668Z" transform="translate(-332.92 -240.257)" fill="#ff41cd"/>
                <path id="Trazado_131924" data-name="Trazado 131924" d="M340.628,250.79a1.865,1.865,0,0,1,0,.472,3.083,3.083,0,0,1,0-.472Z" transform="translate(-332.916 -240.139)" fill="#ff41cd"/>
                <path id="Trazado_131925" data-name="Trazado 131925" d="M353.05,258.42h0a1.686,1.686,0,0,0,0-.2Z" transform="translate(-335.392 -241.619)" fill="#ff41cd"/>
                <path id="Trazado_131926" data-name="Trazado 131926" d="M344.333,362.14a3.517,3.517,0,0,1,.8,2.667,3.331,3.331,0,0,1-.9,1.906,1.866,1.866,0,0,0-.448,1.185v3.66h-.7v-4.132s-.649-.681-2.194,1.522-2.234,1.866-4,1.954-3.676-.993-3.2-1.409,2.811-.577,3.2-1.073A38.055,38.055,0,0,1,340,364.534C341.129,363.533,343.34,362.116,344.333,362.14Z" transform="translate(-331.52 -262.318)" fill="#393b5c"/>
              </g>
              <path id="Trazado_131927" data-name="Trazado 131927" d="M335.5,269.168s-.8,3.267-1.546,6.022h0c-.665,2.459-1.3,4.5-1.3,3.468,0-2.21-2.09-5.229-1.89-6.7a9.674,9.674,0,0,1,.256-1.121.056.056,0,0,0,0-.04c.208-.753.521-1.7.841-2.579a6.5,6.5,0,0,1,1.449-2.322l.1-.1.192-.176h0l.937.721Z" transform="translate(-330.013 -240.426)" fill="#393b5c"/>
              <path id="Trazado_131928" data-name="Trazado 131928" d="M352.271,356.688c-.144-.1-2.322.649-4.34,3.684s-2.963,2.915-3.347,2.891c0,0-2.915-.064-2.619.865a2.655,2.655,0,0,0,2.467,1.385c.865,0,4.485.08,4.749-.16s1.121-3.291,2-3.347c0,0,.272-.064.288,1.4s.056,2.779.056,2.779h.617s-.216-3.091.312-4a5.173,5.173,0,0,0,.969-2.09C353.424,358.818,353.2,357.336,352.271,356.688Z" transform="translate(-332.242 -258.563)" fill="#393b5c"/>
              <path id="Trazado_131929" data-name="Trazado 131929" d="M333.728,266.55c0,.136-.072.384-.128.8h0A2.29,2.29,0,0,1,333.728,266.55Z" transform="translate(-330.58 -240.611)" fill="#494a7d"/>
              <path id="Trazado_131930" data-name="Trazado 131930" d="M333.79,266.455C333.79,266.431,333.8,266.431,333.79,266.455Z" transform="translate(-330.618 -240.589)" fill="#494a7d"/>
              <path id="Trazado_131931" data-name="Trazado 131931" d="M333.839,266.35v.088a.168.168,0,0,1,0-.088Z" transform="translate(-330.626 -240.572)" fill="#494a7d"/>
              <path id="Trazado_131932" data-name="Trazado 131932" d="M335.465,236.17c-.328.168-2.306,3.8-.657,6.6l1.65,2.8s2.635-1.4,2.475.577a25.4,25.4,0,0,1-1.73,6.6c-.8,2.058-.416,6.343,3.628,5.438s5.518-1.85,7.664-2.531,3.548-3.572,2.555-6.407-1.073-6.1-1.4-7.007-1.81-8.08-7.832-8.08C336.955,234.192,335.465,236.17,335.465,236.17Z" transform="translate(-330.691 -234.16)" fill="#393b5c"/>
              <path id="Trazado_131933" data-name="Trazado 131933" d="M338.828,246.54a5.085,5.085,0,0,1,.729,3.428,10.138,10.138,0,0,1-1.073,3.259c-.472,1.025-.993,2.026-1.393,3.075a4.309,4.309,0,0,0-.328,1.6,2.914,2.914,0,0,0,.537,1.6,3.043,3.043,0,0,1-.609-1.6,4.6,4.6,0,0,1,.264-1.682c.368-1.081.849-2.106,1.281-3.147a9.867,9.867,0,0,0,.913-3.2,5.479,5.479,0,0,0-.12-1.6,3.836,3.836,0,0,0-.625-1.426Z" transform="translate(-331.195 -236.626)" fill="#393b5c"/>
              <path id="Trazado_131934" data-name="Trazado 131934" d="M351.241,240.38a18.75,18.75,0,0,1,1.818,3.548,10.185,10.185,0,0,1,.521,1.954c.1.673.144,1.313.288,1.954a6.59,6.59,0,0,0,.689,1.818,6.761,6.761,0,0,1,.609,1.914,6.454,6.454,0,0,1-.577,3.876,6.407,6.407,0,0,0,.44-3.852,6.167,6.167,0,0,0-.657-1.842,6.878,6.878,0,0,1-.761-1.858c-.176-.641-.248-1.321-.36-1.954a10.606,10.606,0,0,0-.569-1.858,17.963,17.963,0,0,0-1.922-3.436Z" transform="translate(-333.998 -235.399)" fill="#393b5c"/>
            </g>
            <path id="Trazado_131935" data-name="Trazado 131935" d="M320,269.669c.064-.312.144-.625.216-.937l.344-.889.681-1.786.681-1.778.344-.889c.16-.28.3-.569.465-.8-.064.312-.144.625-.216.937l-.344.889-.681,1.778-.681,1.786-.344.889C320.3,269.109,320.152,269.4,320,269.669Z" transform="translate(-307.291 -239.823)" fill="#24222e"/>
            <path id="Trazado_131936" data-name="Trazado 131936" d="M313.759,279.063c.7,1.682,3.2,2.955,3.2,2.955l1-1.482.384-.585v-.136a9.011,9.011,0,0,0,0-2.867c-.28-1.105-1.145-2.274-1.249-2.074s-.689.352-.384,1.273a.985.985,0,0,1-.408,1.265l-3.916-2.25S313.271,277.885,313.759,279.063Z" transform="translate(-305.775 -242.265)" fill="#f3c1be"/>
            <path id="Trazado_131937" data-name="Trazado 131937" d="M336.988,270.859a2.4,2.4,0,0,1-.264,1.145c-.1.424-1.6,7.263-2.691,11.924-.44,1.97-.8,3.556-.921,4.092a.8.8,0,0,1-1.193.424c-.5-.232-1.9-.889-3.588-1.722a102.1,102.1,0,0,1-9.169-5.293,2.066,2.066,0,0,1-1.137-1.1,3.86,3.86,0,0,1,.24-2.707,3.013,3.013,0,0,1,.464-.721,1.257,1.257,0,0,1,1.137-.513h0l.28.128c1.273.553,5.726,3.307,9.193,4.933.208-1.674.392-3.78.529-6.479.232-4.541.432-6.759.545-7.864.064-.464.112-.729.144-.873a.224.224,0,0,1,0-.088c0-.04,0-.048.048-.08a1.5,1.5,0,0,1,1.433-.881,3.316,3.316,0,0,1,1.6.5A6.69,6.69,0,0,1,336.988,270.859Z" transform="translate(-306.869 -240.34)" fill="#58598c"/>
          </g>
          <path id="Trazado_131938" data-name="Trazado 131938" d="M237.4,446.323c27.764-16.393,55.729-32.441,83.59-48.674,28.029-16.016,55.881-32.193,83.966-48.049-27.732,16.409-55.761,32.457-83.6,48.69C293.369,414.29,265.485,430.475,237.4,446.323Z" transform="translate(-55.846 -97.309)" fill="#fff"/>
          <path id="Trazado_131939" data-name="Trazado 131939" d="M278.209,407.262l-19.4-11.212-11.676,6.783-2.266-1.289-35.9,20.893c-6.479,3.764-6.407,9.858.072,13.614s17.041,3.764,23.52,0l35.917-20.869-1.946-1.129Z" transform="translate(-49.223 -106.561)" fill="#a0a2c1" opacity="0.5"/>
          <g id="Grupo_62371" data-name="Grupo 62371" transform="translate(155.103 281.777)">
            <path id="Trazado_131940" data-name="Trazado 131940" d="M290.912,397.624l-13.606,7.9-19.4-11.2,13.606-7.9Z" transform="translate(-215.034 -386.42)" fill="#abb8de"/>
            <path id="Trazado_131941" data-name="Trazado 131941" d="M295.734,400.41l-.008,3.684-13.606,7.9.008-3.684Z" transform="translate(-219.856 -389.207)" fill="#dde6f5"/>
            <g id="Grupo_62370" data-name="Grupo 62370" transform="translate(0 4.284)">
              <path id="Trazado_131942" data-name="Trazado 131942" d="M275.8,408.77l-.024,8.513L239.86,438.16l.024-8.513Z" transform="translate(-211.439 -395.156)" fill="#58598c"/>
              <path id="Trazado_131943" data-name="Trazado 131943" d="M204.37,434.783V426.27c0,2.483,1.6,4.965,4.9,6.863,6.519,3.756,17.049,3.756,23.52,0v8.513c-6.471,3.756-17,3.756-23.52,0C206,439.748,204.362,437.265,204.37,434.783Z" transform="translate(-204.37 -398.642)" fill="#41436e"/>
              <g id="Grupo_62369" data-name="Grupo 62369" transform="translate(0.018)">
                <path id="Trazado_131944" data-name="Trazado 131944" d="M268.736,405.384,232.82,426.261c-6.471,3.756-17,3.756-23.52,0s-6.543-9.866-.072-13.614l35.917-20.877Z" transform="translate(-204.392 -391.77)" fill="#494a7d"/>
                <path id="Trazado_131945" data-name="Trazado 131945" d="M265.54,406.376l-26.4,15.344-16.817-9.706,26.4-15.344Z" transform="translate(-207.963 -392.746)" fill="#f3f7ff"/>
                <path id="Trazado_131946" data-name="Trazado 131946" d="M226,412.438,249.464,398.8l13.862,8-23.464,13.638Z" transform="translate(-208.696 -393.17)" fill="#fed2a8"/>
              </g>
            </g>
          </g>
        </g>
      </g>
    </g>
  </g>
</svg>
