<svg xmlns="http://www.w3.org/2000/svg" width="243.181" height="257.643" viewBox="0 0 243.181 257.643">
  <g id="Grupo_124783" data-name="Grupo 124783" transform="translate(-455 -1018)">
    <g id="CF8_tema_1_Mercado_cambiario_2" data-name="CF8_tema 1 Mercado cambiario 2" transform="translate(332.651 889.9)">
      <g id="Grupo_58707" data-name="Grupo 58707">
        <rect id="_Group_" data-name="&lt;Group&gt;" width="125.6" height="246.15" rx="19.5" transform="translate(179.95 133.08)" fill="#fff"/>
        <path id="Trazado_119883" data-name="Trazado 119883" d="M296.3,384.21H189.19A14.24,14.24,0,0,1,175,370V142.33a14.24,14.24,0,0,1,14.22-14.23H296.3a14.25,14.25,0,0,1,14.23,14.23V370a14.25,14.25,0,0,1-14.23,14.21ZM189.19,138.06a4.27,4.27,0,0,0-4.26,4.27V370a4.27,4.27,0,0,0,4.26,4.27H296.3a4.27,4.27,0,0,0,4.27-4.27V142.33a4.27,4.27,0,0,0-4.27-4.27Z" fill="#7fb2ff"/>
        <rect id="_Group_2" data-name="&lt;Group&gt;" width="34.69" height="11.06" rx="4.64" transform="translate(224.05 131.7)" fill="#7fb2ff"/>
      </g>
      <g id="Grupo_58708" data-name="Grupo 58708">
        <path id="Trazado_119884" data-name="Trazado 119884" d="M292.39,307.24s-9.89,2.09-11.55,3-2.6,3.77-2.6,3.77l2.63,2.15,5.06-3.13s4.88,1.59,7.38-.42S292.39,307.24,292.39,307.24Z" fill="#ec9f90"/>
        <path id="Trazado_119885" data-name="Trazado 119885" d="M320.11,272.83c-7.28-2.69-7.67,3.07-7.67,3.07s-1.33,11.64-.21,21.14l-19.84,10.2.92,5.35s24.76-2.83,27.23-5.59c2.19-2.47,4.19-20.61,4.61-24.58h0a7.62,7.62,0,0,0-5.04-9.59Z" fill="#5e567b"/>
      </g>
      <g id="Grupo_58711" data-name="Grupo 58711">
        <rect id="Rectángulo_5225" data-name="Rectángulo 5225" width="76.54" height="8" transform="translate(246.84 376.79)" fill="#fcd17d"/>
        <g id="Grupo_58709" data-name="Grupo 58709">
          <rect id="Rectángulo_5226" data-name="Rectángulo 5226" width="76.54" height="8" transform="translate(255.44 368.92)" fill="#fcd17d"/>
          <path id="Trazado_119886" data-name="Trazado 119886" d="M255.44,368.92l76.55,8H255.44Z" fill="#fd8f25"/>
          <path id="Trazado_119887" data-name="Trazado 119887" d="M331.99,368.92v8l-76.55-8Z" fill="#fed2a8"/>
          <rect id="Rectángulo_5227" data-name="Rectángulo 5227" width="1.97" height="7.98" transform="translate(262.19 368.92)" fill="#fed2a8"/>
          <rect id="Rectángulo_5228" data-name="Rectángulo 5228" width="1.97" height="7.98" transform="translate(272.78 368.92)" fill="#fed2a8"/>
          <rect id="Rectángulo_5229" data-name="Rectángulo 5229" width="1.97" height="7.98" transform="translate(284.61 368.92)" fill="#fed2a8"/>
          <rect id="Rectángulo_5230" data-name="Rectángulo 5230" width="1.97" height="7.98" transform="translate(295.81 368.92)" fill="#fed2a8"/>
          <rect id="Rectángulo_5231" data-name="Rectángulo 5231" width="1.97" height="7.98" transform="translate(308.89 368.92)" fill="#fed2a8"/>
          <rect id="Rectángulo_5232" data-name="Rectángulo 5232" width="1.97" height="7.98" transform="translate(321.65 368.92)" fill="#fed2a8"/>
        </g>
        <g id="Grupo_58710" data-name="Grupo 58710">
          <rect id="Rectángulo_5233" data-name="Rectángulo 5233" width="76.54" height="8" transform="translate(247.04 376.65)" fill="#fcd17d"/>
          <path id="Trazado_119888" data-name="Trazado 119888" d="M247.04,376.65l76.54,8H247.04Z" fill="#fd8f25"/>
          <path id="Trazado_119889" data-name="Trazado 119889" d="M323.58,376.65v8l-76.54-8Z" fill="#fed2a8"/>
          <rect id="Rectángulo_5234" data-name="Rectángulo 5234" width="1.97" height="7.98" transform="translate(253.79 376.65)" fill="#fed2a8"/>
          <rect id="Rectángulo_5235" data-name="Rectángulo 5235" width="1.97" height="7.98" transform="translate(264.37 376.65)" fill="#fed2a8"/>
          <rect id="Rectángulo_5236" data-name="Rectángulo 5236" width="1.97" height="7.98" transform="translate(276.2 376.65)" fill="#fed2a8"/>
          <rect id="Rectángulo_5237" data-name="Rectángulo 5237" width="1.97" height="7.98" transform="translate(287.41 376.65)" fill="#fed2a8"/>
          <rect id="Rectángulo_5238" data-name="Rectángulo 5238" width="1.97" height="7.98" transform="translate(300.48 376.65)" fill="#fed2a8"/>
          <rect id="Rectángulo_5239" data-name="Rectángulo 5239" width="1.97" height="7.98" transform="translate(313.25 376.65)" fill="#fed2a8"/>
        </g>
      </g>
      <g id="Grupo_58712" data-name="Grupo 58712">
        <circle id="Elipse_4058" data-name="Elipse 4058" cx="37.94" cy="37.94" r="37.94" transform="translate(217.278 271.959) rotate(-23.94)" fill="#fd8f25"/>
        <circle id="Elipse_4059" data-name="Elipse 4059" cx="37.94" cy="37.94" r="37.94" transform="translate(224.28 254.09)" fill="#fed2a8"/>
        <path id="Trazado_119890" data-name="Trazado 119890" d="M274.05,322.1a32.32,32.32,0,0,1-10.05,2,31.85,31.85,0,1,1,10.05-2ZM251.5,262.3a31.75,31.75,0,1,0,42.91,28.43h0A31.78,31.78,0,0,0,251.5,262.3Z" fill="#fd8f25"/>
        <path id="Trazado_119891" data-name="Trazado 119891" d="M273.62,305.27c-7.69,2.9-14.29.84-18.5-5l17.49-6.58-1.56-4.15-18.12,6.81c-.18-.41-.36-.81-.52-1.24a1.247,1.247,0,0,0-.14-.41l18.78-7.06-1.57-4.16-18.32,6.89c-1.27-8.14,2.74-14.48,10.56-17.42a19.92,19.92,0,0,1,8.62-1.36l-.34-4.64c-1.61-.19-5.13-.08-10.07,1.78-10.64,4-16,13.22-14.2,23.68L241.54,294l1.56,4.15,3.77-1.41c.07.19.12.39.2.59.14.37.3.71.45,1.06L243.11,300l1.56,4.16,4.89-1.84c5.6,8.88,15.06,11.24,24.62,7.64a27.111,27.111,0,0,0,9.76-5.81l-2.59-3.66A21.84,21.84,0,0,1,273.62,305.27Z" fill="#fd8f25"/>
      </g>
      <g id="Grupo_58717" data-name="Grupo 58717">
        <rect id="Rectángulo_5240" data-name="Rectángulo 5240" width="76.54" height="8" transform="translate(154.43 352.52)" fill="#fcd17d"/>
        <rect id="Rectángulo_5241" data-name="Rectángulo 5241" width="76.54" height="8" transform="translate(146.29 360.38)" fill="#fcd17d"/>
        <rect id="Rectángulo_5242" data-name="Rectángulo 5242" width="76.54" height="8" transform="translate(142.96 368.25)" fill="#fcd17d"/>
        <rect id="Rectángulo_5243" data-name="Rectángulo 5243" width="76.54" height="8" transform="translate(148.47 376.11)" fill="#fcd17d"/>
        <g id="Grupo_58713" data-name="Grupo 58713">
          <rect id="Rectángulo_5244" data-name="Rectángulo 5244" width="76.54" height="8" transform="translate(154.39 352.24)" fill="#fcd17d"/>
          <path id="Trazado_119892" data-name="Trazado 119892" d="M154.39,352.24l76.54,8H154.39Z" fill="#fd8f25"/>
          <path id="Trazado_119893" data-name="Trazado 119893" d="M230.93,352.24v8l-76.54-8Z" fill="#fed2a8"/>
          <rect id="Rectángulo_5245" data-name="Rectángulo 5245" width="1.97" height="7.98" transform="translate(161.13 352.24)" fill="#fed2a8"/>
          <rect id="Rectángulo_5246" data-name="Rectángulo 5246" width="1.97" height="7.98" transform="translate(171.72 352.24)" fill="#fed2a8"/>
          <rect id="Rectángulo_5247" data-name="Rectángulo 5247" width="1.97" height="7.98" transform="translate(183.55 352.24)" fill="#fed2a8"/>
          <rect id="Rectángulo_5248" data-name="Rectángulo 5248" width="1.97" height="7.98" transform="translate(194.75 352.24)" fill="#fed2a8"/>
          <rect id="Rectángulo_5249" data-name="Rectángulo 5249" width="1.97" height="7.98" transform="translate(207.83 352.24)" fill="#fed2a8"/>
          <rect id="Rectángulo_5250" data-name="Rectángulo 5250" width="1.97" height="7.98" transform="translate(220.59 352.24)" fill="#fed2a8"/>
        </g>
        <g id="Grupo_58714" data-name="Grupo 58714">
          <rect id="Rectángulo_5251" data-name="Rectángulo 5251" width="76.54" height="8" transform="translate(146.29 360.38)" fill="#fcd17d"/>
          <path id="Trazado_119894" data-name="Trazado 119894" d="M146.29,360.38l76.54,8H146.29Z" fill="#fd8f25"/>
          <path id="Trazado_119895" data-name="Trazado 119895" d="M222.83,360.38v8l-76.54-8Z" fill="#fed2a8"/>
          <rect id="Rectángulo_5252" data-name="Rectángulo 5252" width="1.97" height="7.98" transform="translate(153.04 360.38)" fill="#fed2a8"/>
          <rect id="Rectángulo_5253" data-name="Rectángulo 5253" width="1.97" height="7.98" transform="translate(163.62 360.38)" fill="#fed2a8"/>
          <rect id="Rectángulo_5254" data-name="Rectángulo 5254" width="1.97" height="7.98" transform="translate(175.45 360.38)" fill="#fed2a8"/>
          <rect id="Rectángulo_5255" data-name="Rectángulo 5255" width="1.97" height="7.98" transform="translate(186.66 360.38)" fill="#fed2a8"/>
          <rect id="Rectángulo_5256" data-name="Rectángulo 5256" width="1.97" height="7.98" transform="translate(199.74 360.38)" fill="#fed2a8"/>
          <rect id="Rectángulo_5257" data-name="Rectángulo 5257" width="1.97" height="7.98" transform="translate(212.5 360.38)" fill="#fed2a8"/>
        </g>
        <g id="Grupo_58715" data-name="Grupo 58715">
          <rect id="Rectángulo_5258" data-name="Rectángulo 5258" width="76.54" height="8" transform="translate(142.96 368.52)" fill="#fcd17d"/>
          <path id="Trazado_119896" data-name="Trazado 119896" d="M142.96,368.52l76.54,8H142.96Z" fill="#fd8f25"/>
          <path id="Trazado_119897" data-name="Trazado 119897" d="M219.5,368.52v8l-76.54-8Z" fill="#fed2a8"/>
          <rect id="Rectángulo_5259" data-name="Rectángulo 5259" width="1.97" height="7.98" transform="translate(149.71 368.52)" fill="#fed2a8"/>
          <rect id="Rectángulo_5260" data-name="Rectángulo 5260" width="1.97" height="7.98" transform="translate(160.29 368.52)" fill="#fed2a8"/>
          <rect id="Rectángulo_5261" data-name="Rectángulo 5261" width="1.97" height="7.98" transform="translate(172.12 368.52)" fill="#fed2a8"/>
          <rect id="Rectángulo_5262" data-name="Rectángulo 5262" width="1.97" height="7.98" transform="translate(183.33 368.52)" fill="#fed2a8"/>
          <rect id="Rectángulo_5263" data-name="Rectángulo 5263" width="1.97" height="7.98" transform="translate(196.4 368.52)" fill="#fed2a8"/>
          <rect id="Rectángulo_5264" data-name="Rectángulo 5264" width="1.97" height="7.98" transform="translate(209.17 368.52)" fill="#fed2a8"/>
        </g>
        <g id="Grupo_58716" data-name="Grupo 58716">
          <rect id="Rectángulo_5265" data-name="Rectángulo 5265" width="76.54" height="8" transform="translate(148.47 376.56)" fill="#fcd17d"/>
          <path id="Trazado_119898" data-name="Trazado 119898" d="M148.47,376.56l76.54,8H148.47Z" fill="#fd8f25"/>
          <path id="Trazado_119899" data-name="Trazado 119899" d="M225.01,376.56v8l-76.54-8Z" fill="#fed2a8"/>
          <rect id="Rectángulo_5266" data-name="Rectángulo 5266" width="1.97" height="7.98" transform="translate(155.22 376.56)" fill="#fed2a8"/>
          <rect id="Rectángulo_5267" data-name="Rectángulo 5267" width="1.97" height="7.98" transform="translate(165.8 376.56)" fill="#fed2a8"/>
          <rect id="Rectángulo_5268" data-name="Rectángulo 5268" width="1.97" height="7.98" transform="translate(177.63 376.56)" fill="#fed2a8"/>
          <rect id="Rectángulo_5269" data-name="Rectángulo 5269" width="1.97" height="7.98" transform="translate(188.84 376.56)" fill="#fed2a8"/>
          <rect id="Rectángulo_5270" data-name="Rectángulo 5270" width="1.97" height="7.98" transform="translate(201.91 376.56)" fill="#fed2a8"/>
          <rect id="Rectángulo_5271" data-name="Rectángulo 5271" width="1.97" height="7.98" transform="translate(214.68 376.56)" fill="#fed2a8"/>
        </g>
      </g>
      <g id="Grupo_58718" data-name="Grupo 58718">
        <path id="Trazado_119900" data-name="Trazado 119900" d="M321.67,385.74H306.42a.64.64,0,0,1-.5-1.1l7.53-6.79-.66-3.16,5.95-.73.94,3.76Z" fill="#781533"/>
        <path id="Trazado_119901" data-name="Trazado 119901" d="M319.68,377.72l-6.21.13-1.05-4.74,6.43-.64Z" fill="#ec9f90"/>
        <path id="Trazado_119902" data-name="Trazado 119902" d="M365.53,385.74H350.28a.69.69,0,0,1-.49-1.19l7.52-7.36-.66-3.42,6-.78.94,4.07Z" fill="#781533"/>
        <path id="Trazado_119903" data-name="Trazado 119903" d="M363.54,377.06l-6.23.13-.66-3.42,5.95-.78Z" fill="#ec9f90"/>
        <path id="Trazado_119904" data-name="Trazado 119904" d="M344.4,297.19l.39.33s7.14,12.67,6.78,23.6A86.92,86.92,0,0,0,353,340.43l12.51,30.74s-4.61,5-9.47,3.52L341,346l-7.9-23.2s-10.1,13.87-16.28,18.97c0,0,2.6,6.68,4.86,31,0,0-8.86,2.06-11.05,1.09l-6.8-33.28,19.92-32.8-2.62-6.64Z" fill="#4870a3"/>
        <path id="Trazado_119905" data-name="Trazado 119905" d="M350.26,305.91s-15.91,6.29-27.66,3l-11.51-27.63s-2.46-8.38,3.82-12.76,15.67-1.09,21.5,11S350.26,305.91,350.26,305.91Z" fill="#472ea6"/>
        <path id="Trazado_119906" data-name="Trazado 119906" d="M290.17,297.22s-10.1-.45-11.92,0-3.47,3-3.47,3l2,2.73,5.69-1.76s4.32,2.75,7.24,1.44S290.17,297.22,290.17,297.22Z" fill="#ec9f90"/>
        <path id="Trazado_119907" data-name="Trazado 119907" d="M307.58,253.76a3.85,3.85,0,0,1-4.12-3.28c-.8-3.64,1.39-5.83,4.12-4.73,0,0-1.23-4.19,3-4a7,7,0,0,1,5.9,3.46s4.92-2.73,7.11,2.55-2.56,13.67-2.56,13.67l-3.68,2.65Z" fill="#781533"/>
        <path id="Trazado_119908" data-name="Trazado 119908" d="M307.1,252.14l-1.27,12.57,4.62.65,2.18,5.47s5.47.37,6.75-3.28l-3.28-5.74s4.37-4.64.18-5L314.46,258s-2.1-.64-.73-3.74S307.1,252.14,307.1,252.14Z" fill="#ec9f90"/>
        <path id="Trazado_119909" data-name="Trazado 119909" d="M325.62,270.84c-6.38-4.42-8.2,1.05-8.2,1.05s-4.2,10.94-5.49,20.43l-21.76,4.9-.45,5.42s24.68,3.45,27.76,1.39c2.75-1.83,9.22-18.9,10.62-22.64h0a7.62,7.62,0,0,0-2.48-10.55Z" fill="#4870a3"/>
      </g>
      <path id="Trazado_119910" data-name="Trazado 119910" d="M341.02,135.88h-4.99v-4.99h-2.7v4.99h-4.99v2.71h4.99v4.99h2.7v-4.99h4.99Z" fill="#fff"/>
      <path id="Trazado_119911" data-name="Trazado 119911" d="M183.73,267.9s6.18-8.49,12.6-7.5L200,262a2.26,2.26,0,0,1-2.72,1.85,6.54,6.54,0,0,0-3.9.37l-4,3.85Z" fill="#ffb0a3"/>
      <path id="Trazado_119912" data-name="Trazado 119912" d="M149.38,269.63,170,271.78l15.78-7.38,3.69,3.68s-12.92,11-16.18,11.93-24.21-1.49-24.21-1.49a6.76,6.76,0,0,1-5.11-5.38C143.18,268.62,149.38,269.63,149.38,269.63Z" fill="#472ea6"/>
      <g id="Grupo_58721" data-name="Grupo 58721">
        <g id="Grupo_58719" data-name="Grupo 58719">
          <circle id="Elipse_4060" data-name="Elipse 4060" cx="37.94" cy="37.94" r="37.94" transform="matrix(0.987, -0.159, 0.159, 0.987, 163.407, 242.666)" fill="#fd8f25"/>
          <circle id="Elipse_4061" data-name="Elipse 4061" cx="37.94" cy="37.94" r="37.94" transform="translate(159.73 239.55) rotate(-6.76)" fill="#fed2a8"/>
          <path id="Trazado_119913" data-name="Trazado 119913" d="M189.72,302.48a32.24,32.24,0,1,1,.76.31Zm25.07-58.75-.75-.31a31.739,31.739,0,1,0-24.16,58.7l.74.3a31.738,31.738,0,1,0,24.172-58.694Z" fill="#fd8f25"/>
          <path id="Trazado_119914" data-name="Trazado 119914" d="M191.46,294.31l2.33-5.48a17.12,17.12,0,0,1-7.27-5.91l2.85-3.08a15.61,15.61,0,0,0,6.81,5.65c3.84,1.64,7.39.53,8.71-2.56s-.06-5.72-3.38-9.06c-4.6-4.52-6.95-8.47-4.95-13.18,1.92-4.5,6.57-6.55,11.9-5.24L210.8,250l3.36,1.43-2.24,5.26a15.71,15.71,0,0,1,6.23,4.9l-2.88,3a14.19,14.19,0,0,0-6-4.76c-4.17-1.77-6.81.05-7.73,2.22-1.2,2.81.2,5.08,4.09,9,4.61,4.65,6.23,8.67,4.17,13.49-1.82,4.28-6.51,7-12.48,5.56l-2.41,5.64Z" fill="#fd8f25"/>
        </g>
        <g id="Grupo_58720" data-name="Grupo 58720">
          <path id="Trazado_119915" data-name="Trazado 119915" d="M127.86,384.67h13a4.56,4.56,0,0,0-3.46-3.16,5.79,5.79,0,0,1-2.76-1.47,8.16,8.16,0,0,1-1.6-2s7.26-27,10.26-36.16l-6.39-7.18-3.84,3.61s-2.76,25.26-6,39.64c-.33,1.47-.66,2.83-1,4a2,2,0,0,0,1.79,2.72Z" fill="#ffb0a3"/>
          <path id="Trazado_119916" data-name="Trazado 119916" d="M154.7,348.72l5,30,.68,4.09a2.09,2.09,0,0,0,2,1.84h10.16s.25-2.66-3.08-3.34a4.68,4.68,0,0,1-1.89-.87h0a8.28,8.28,0,0,1-2.94-5.69c0-1.64-1-29.88-1-29.88Z" fill="#ffb0a3"/>
          <path id="Trazado_119917" data-name="Trazado 119917" d="M144,237.81s10.88.05,11.08,6.6S150,259,151,261.79s.93,17.92-14,19.33-17-8.66-12.63-16.24S136.92,239.35,144,237.81Z" fill="#5e567b"/>
          <path id="Trazado_119918" data-name="Trazado 119918" d="M160.71,291.2l2.17,13.59,3.64,43.93s-15.87,12.17-32.57,5.53a15.3,15.3,0,0,0-10.87-2.83l14.81-45.79s3.81-13.5,8.14-15.32C153.54,287.16,160.71,291.2,160.71,291.2Z" fill="#ef2a66"/>
          <path id="Trazado_119919" data-name="Trazado 119919" d="M140.2,277.77l5.8,12.48s8.7,3.23,14.68.83l1.45-12.92s-2.4-3.52-5.12-7.41c-1.77-2.53-7.34-3-9.67-.95Z" fill="#f57fa3"/>
          <path id="Trazado_119920" data-name="Trazado 119920" d="M177.92,282.4s8.77-5.79,14.43-2.61l2.91,2.81a2.26,2.26,0,0,1-3.2.78,6.51,6.51,0,0,0-3.78-1l-5.05,2.22Z" fill="#ffb0a3"/>
          <path id="Trazado_119921" data-name="Trazado 119921" d="M159.07,376.64l5.68.11c.23.18.53-.12.88-.09l7.19,6.9a.64.64,0,0,1-.49,1.1H158.27Z" fill="#781533"/>
          <path id="Trazado_119922" data-name="Trazado 119922" d="M127.06,376.64l5.68.11c.23.18.52-.12.87-.09l7.2,6.9a.64.64,0,0,1-.5,1.1H125.46Z" fill="#781533"/>
          <path id="Trazado_119923" data-name="Trazado 119923" d="M155,244.41s1.19,2.46,1.68,9.44-.39,6.47-.39,6.47l-3.45,1.09-1.7,8.07-8.73,1.24a11.92,11.92,0,0,0,4.93-9.31c.16-6.24-3.32-3.24-2.58-7.74s2.91.17,2.91.17S153.54,252.32,155,244.41Z" fill="#ec9f90"/>
          <path id="Trazado_119924" data-name="Trazado 119924" d="M148.73,270.12l15,11.08,17.37-1.37,2.17,4.75s-16,5.76-19.35,5.48-22.14-9.9-22.14-9.9a9.22,9.22,0,0,1-2.9-6.83c-.07-4.05,2.85-4.84,5.25-4.81A8,8,0,0,1,148.73,270.12Z" fill="#4870a3"/>
        </g>
      </g>
      <path id="Trazado_119925" data-name="Trazado 119925" d="M270.96,173.9l-.12.12v6.84H213.62v9.6h57.22v6.84l.12.11,12.56-11.75Z" fill="#4870a3"/>
      <path id="Trazado_119926" data-name="Trazado 119926" d="M214.35,223.76l.13-.11v-6.84H271.7v-9.6H214.48v-6.84l-.13-.12L201.8,212.01Z" fill="#4870a3"/>
    </g>
  </g>
</svg>
