<svg xmlns="http://www.w3.org/2000/svg" xmlns:xlink="http://www.w3.org/1999/xlink" width="476.781" height="446.336" viewBox="0 0 476.781 446.336">
  <defs>
    <linearGradient id="linear-gradient" y1="0.5" x2="1" y2="0.5" gradientUnits="objectBoundingBox">
      <stop offset="0" stop-color="#b4cde5"/>
      <stop offset="1" stop-color="#8aaed4"/>
    </linearGradient>
  </defs>
  <g id="Grupo_124805" data-name="Grupo 124805" transform="translate(-265 -1751.333)">
    <g id="CF8_1.4_Declaraciones_de_cambio_1_copia_2" data-name="CF8_1.4 Declaraciones de cambio 1 copia 2" transform="translate(253.481 1716.381)">
      <ellipse id="Elipse_4355" data-name="Elipse 4355" cx="55.24" cy="31.89" rx="55.24" ry="31.89" transform="translate(187.694 382.122) rotate(-0.36)" fill="#dcefff"/>
      <ellipse id="Elipse_4356" data-name="Elipse 4356" cx="55.24" cy="31.89" rx="55.24" ry="31.89" transform="translate(356.913 417.509) rotate(-0.36)" fill="#dcefff"/>
      <ellipse id="Elipse_4357" data-name="Elipse 4357" cx="55.24" cy="31.89" rx="55.24" ry="31.89" transform="translate(11.519 409.458) rotate(-0.36)" fill="#dcefff"/>
      <g id="Grupo_62467" data-name="Grupo 62467">
        <path id="Trazado_132411" data-name="Trazado 132411" d="M466.24,145.42l-64.6-37.3c-1.41-.82-2.57-.16-2.57,1.46v28.67a.427.427,0,0,1,0,.05v10.27c0,.92,1,1.94,1.54,1.62l7.07-4L466.24,180c1.42.82,2.57.17,2.57-1.46V149.85a5.65,5.65,0,0,0-2.57-4.43Z" fill="#ef2a66"/>
        <g id="Grupo_62466" data-name="Grupo 62466">
          <path id="Trazado_132412" data-name="Trazado 132412" d="M409.81,124.95l37.53,22.96v-2.12l-37.53-22.96Z" fill="#fff" fill-rule="evenodd"/>
          <path id="Trazado_132413" data-name="Trazado 132413" d="M409.81,130.19l7.6,4.65v-2.12l-7.6-4.65Z" fill="#fff" fill-rule="evenodd"/>
          <path id="Trazado_132414" data-name="Trazado 132414" d="M409.81,135.41l16.25,9.94v-2.12l-16.25-9.94Z" fill="#fff" fill-rule="evenodd"/>
          <path id="Trazado_132415" data-name="Trazado 132415" d="M422.16,137.75l24.07,14.72v-2.12l-24.07-14.72Z" fill="#fff" fill-rule="evenodd"/>
          <path id="Trazado_132416" data-name="Trazado 132416" d="M449.65,154.57l11.5,7.03v-2.12l-11.5-7.03Z" fill="#fff" fill-rule="evenodd"/>
          <path id="Trazado_132417" data-name="Trazado 132417" d="M429.86,147.68l13.54,8.28v-2.12l-13.54-8.28Z" fill="#fff" fill-rule="evenodd"/>
        </g>
      </g>
      <g id="Grupo_62470" data-name="Grupo 62470">
        <g id="Grupo_62468" data-name="Grupo 62468">
          <path id="Trazado_132418" data-name="Trazado 132418" d="M302.9,473.55h-.59a5,5,0,0,1-4.39-5.55l18.36-171.41c.32-2.75,4.46-4.72,7.23-4.39s6.38,2.8,2.44,5.55l-21.7,171.41C307.57,471.67,305.41,473.55,302.9,473.55Z" fill="#895d3b"/>
          <path id="Trazado_132419" data-name="Trazado 132419" d="M67.85,339h-.59a5,5,0,0,1-4.39-5.56L81.23,162c.33-2.75,4.49-4.72,7.23-4.4s6.38,2.81,6.06,5.56l-21.7,171.4A5,5,0,0,1,67.85,339Z" fill="#472ea6"/>
          <path id="Trazado_132420" data-name="Trazado 132420" d="M462.13,388.25a5,5,0,0,1-5-4.42L440.29,253.71c-.32-2.75,3.31-5.24,6.06-5.56s6.91,1.65,3.61,4.4L463.5,382.66c3.94,2.75,2,5.24-.78,5.56a5.815,5.815,0,0,1-.59.03Z" fill="#895d3b"/>
        </g>
        <g id="Grupo_62469" data-name="Grupo 62469">
          <path id="Trazado_132421" data-name="Trazado 132421" d="M197.3,97.93a16,16,0,0,1,14.46,0L488.25,250.46v8.25a7.46,7.46,0,0,1-3.75,6.47L351.31,341.49a16,16,0,0,1-14.46,0L63.94,183.8a7.16,7.16,0,0,1-3.57-6.26l.07-8Z" fill="#a7c3e3"/>
          <path id="Trazado_132422" data-name="Trazado 132422" d="M197.3,88.75a16,16,0,0,1,14.46,0L485.3,246.6c4,2.3,4,6.06,0,8.35l-134,77.36a16,16,0,0,1-14.46,0L63.31,174.45c-4-2.29-4-6,0-8.35Z" fill="#e9f6ff"/>
        </g>
      </g>
      <g id="Grupo_62472" data-name="Grupo 62472">
        <path id="Trazado_132423" data-name="Trazado 132423" d="M188.17,210.5l65.31,39.09,27.78-20.29L216.6,190.35Z" fill="#fff"/>
        <g id="Grupo_62471" data-name="Grupo 62471">
          <path id="Trazado_132424" data-name="Trazado 132424" d="M193.97,209.05l2.59,1.56,2.31-1.66-2.62-1.57Z" fill="#a7c3e3"/>
          <path id="Trazado_132425" data-name="Trazado 132425" d="M196.84,206.96l2.61,1.56,1.98-1.42.16-.11-2.61-1.58Z" fill="#a7c3e3"/>
          <path id="Trazado_132426" data-name="Trazado 132426" d="M197.18,210.98l2.59,1.56,2.31-1.66-2.61-1.56Z" fill="#a7c3e3"/>
          <path id="Trazado_132427" data-name="Trazado 132427" d="M199.34,205.15l2.62,1.57,2.17-1.56-2.62-1.58Z" fill="#a7c3e3"/>
          <path id="Trazado_132428" data-name="Trazado 132428" d="M200.06,208.89l2.61,1.57,1.98-1.43-2.61-1.57Z" fill="#a7c3e3"/>
          <path id="Trazado_132429" data-name="Trazado 132429" d="M200.39,212.92l3.01,1.82,2.3-1.68-3.01-1.81Z" fill="#a7c3e3"/>
          <path id="Trazado_132430" data-name="Trazado 132430" d="M201.96,203.25l2.63,1.58,2.13-1.55-2.62-1.57Z" fill="#a7c3e3"/>
          <path id="Trazado_132431" data-name="Trazado 132431" d="M202.56,207.09l2.61,1.57,2.18-1.57-2.62-1.57Z" fill="#a7c3e3"/>
          <path id="Trazado_132432" data-name="Trazado 132432" d="M203.28,210.82l3.01,1.82,1.99-1.43-3.02-1.81Z" fill="#a7c3e3"/>
          <path id="Trazado_132433" data-name="Trazado 132433" d="M204.6,201.35l2.63,1.58,2.17-1.57-2.63-1.58Z" fill="#a7c3e3"/>
          <path id="Trazado_132434" data-name="Trazado 132434" d="M205.18,205.19l2.62,1.57,2.14-1.53-2.62-1.58Z" fill="#a7c3e3"/>
          <path id="Trazado_132435" data-name="Trazado 132435" d="M205.78,209.02l3.02,1.81,2.16-1.57-3.01-1.81Z" fill="#a7c3e3"/>
          <path id="Trazado_132436" data-name="Trazado 132436" d="M205.94,216.25l2.63,1.6,2.44-1.76-2.65-1.59Z" fill="#a7c3e3"/>
          <path id="Trazado_132437" data-name="Trazado 132437" d="M207.22,199.46l2.64,1.58,1.84-1.33-2.64-1.59Z" fill="#a7c3e3"/>
          <path id="Trazado_132438" data-name="Trazado 132438" d="M207.82,203.28l2.62,1.58,2.18-1.57-2.63-1.57Z" fill="#a7c3e3"/>
          <path id="Trazado_132439" data-name="Trazado 132439" d="M208.4,207.13l-.1.06,3.01,1.82,2.22-1.61.02-.01-3.02-1.81Z" fill="#a7c3e3"/>
          <path id="Trazado_132440" data-name="Trazado 132440" d="M209.29,218.27l2.51,1.5,2.42-1.75-2.52-1.51Z" fill="#a7c3e3"/>
          <path id="Trazado_132441" data-name="Trazado 132441" d="M209.52,197.79l2.64,1.59,2.58-1.86-2.66-1.59Z" fill="#a7c3e3"/>
          <path id="Trazado_132442" data-name="Trazado 132442" d="M210.44,201.39l2.63,1.58,1.85-1.33-2.64-1.59Z" fill="#a7c3e3"/>
          <path id="Trazado_132443" data-name="Trazado 132443" d="M211.03,205.22,214,207l.03.04.1-.07,1.92-1.38.17-.13-3.01-1.81Z" fill="#a7c3e3"/>
          <path id="Trazado_132444" data-name="Trazado 132444" d="M212.18,216.17l2.51,1.51,2.01-1.46-2.52-1.51Z" fill="#a7c3e3"/>
          <path id="Trazado_132445" data-name="Trazado 132445" d="M212.45,220.16l2.47,1.49,2.44-1.74-2.51-1.51Z" fill="#a7c3e3"/>
          <path id="Trazado_132446" data-name="Trazado 132446" d="M212.74,199.73l2.64,1.58,2.58-1.85-2.65-1.6Z" fill="#a7c3e3"/>
          <path id="Trazado_132447" data-name="Trazado 132447" d="M213.66,203.31l3,1.83,1.86-1.33-3.02-1.82Z" fill="#a7c3e3"/>
          <path id="Trazado_132448" data-name="Trazado 132448" d="M214.53,194.17l2.36,1.42,2.88-2.1-2.37-1.41Z" fill="#a7c3e3"/>
          <path id="Trazado_132449" data-name="Trazado 132449" d="M215.95,201.66l3.02,1.81.28-.19,2.28-1.67-3.01-1.81Z" fill="#a7c3e3"/>
          <path id="Trazado_132450" data-name="Trazado 132450" d="M219.36,214.57l-.21-.13-2.53-1.52-1.9,1.39,2.53,1.52.21.13.42.24,2.52,1.52,1.92-1.38-2.55-1.52Z" fill="#a7c3e3"/>
          <path id="Trazado_132451" data-name="Trazado 132451" d="M217.82,196.15l2.29,1.38,2.88-2.1-2.29-1.38Z" fill="#a7c3e3"/>
          <path id="Trazado_132452" data-name="Trazado 132452" d="M221.31,222.28l-.26-.15-2.41,1.76,2.91,1.75,2.42-1.75-.33-.2Z" fill="#a7c3e3"/>
          <path id="Trazado_132453" data-name="Trazado 132453" d="M222.13,212.57l-.21-.13h-.01l.02-.02v.01l.49-.35h0l.09-.07,1.92-1.39-2.56-1.53-1.91,1.39-.23.17-.87.64-1.7,1.24,2.53,1.53.21.12.41.25,2.56,1.53,2.23-1.61-2.58-1.54Z" fill="#a7c3e3"/>
          <path id="Trazado_132454" data-name="Trazado 132454" d="M220.93,198.02l2.72,1.63,2.86-2.09-2.7-1.63Z" fill="#a7c3e3"/>
          <path id="Trazado_132455" data-name="Trazado 132455" d="M221.02,218.1l2.75,1.65,1.91-1.38-2.75-1.65Z" fill="#a7c3e3"/>
          <path id="Trazado_132456" data-name="Trazado 132456" d="M221.77,221.95l2.32,1.41,2.04-1.47-2.34-1.41Z" fill="#a7c3e3"/>
          <path id="Trazado_132457" data-name="Trazado 132457" d="M222.36,208.72l2.56,1.54,2.03-1.47-2.57-1.54Z" fill="#a7c3e3"/>
          <path id="Trazado_132458" data-name="Trazado 132458" d="M223.11,212.38l2.58,1.54,1.93-1.37-2.59-1.57Z" fill="#a7c3e3"/>
          <path id="Trazado_132459" data-name="Trazado 132459" d="M223.47,216.32l2.75,1.66,2.23-1.61-2.75-1.65Z" fill="#a7c3e3"/>
          <path id="Trazado_132460" data-name="Trazado 132460" d="M224.34,220.09l2.34,1.41,1.91-1.38-2.34-1.41Z" fill="#a7c3e3"/>
          <path id="Trazado_132461" data-name="Trazado 132461" d="M224.4,200.11l1.53.92,2.86-2.09-1.53-.92Z" fill="#a7c3e3"/>
          <path id="Trazado_132462" data-name="Trazado 132462" d="M224.66,223.71l2.7,1.6,2.03-1.46-2.68-1.62Z" fill="#a7c3e3"/>
          <path id="Trazado_132463" data-name="Trazado 132463" d="M224.69,227.54,253.74,245l2.43-1.76-29.05-17.46Z" fill="#a7c3e3"/>
          <path id="Trazado_132464" data-name="Trazado 132464" d="M225.04,206.76l2.58,1.55,2.29-1.66-2.59-1.56Z" fill="#a7c3e3"/>
          <path id="Trazado_132465" data-name="Trazado 132465" d="M225.52,210.62l2.6,1.57,2.04-1.47-2.62-1.57Z" fill="#a7c3e3"/>
          <path id="Trazado_132466" data-name="Trazado 132466" d="M226.3,214.29l2.75,1.65,1.92-1.39-2.75-1.65Z" fill="#a7c3e3"/>
          <path id="Trazado_132467" data-name="Trazado 132467" d="M226.68,201.48l2.36,1.43,2.88-2.1-2.37-1.42Z" fill="#a7c3e3"/>
          <path id="Trazado_132468" data-name="Trazado 132468" d="M226.79,218.32l2.34,1.41,2.23-1.61-2.34-1.41Z" fill="#a7c3e3"/>
          <path id="Trazado_132469" data-name="Trazado 132469" d="M227.25,221.84l2.69,1.62,1.91-1.38-2.69-1.62Z" fill="#a7c3e3"/>
          <path id="Trazado_132470" data-name="Trazado 132470" d="M227.93,225.66l2.83,1.69,2.02-1.46-2.82-1.7Z" fill="#a7c3e3"/>
          <path id="Trazado_132471" data-name="Trazado 132471" d="M228.2,208.66l2.63,1.59,2.3-1.66L230.48,207Z" fill="#a7c3e3"/>
          <path id="Trazado_132472" data-name="Trazado 132472" d="M228.71,212.54l2.75,1.65,2.04-1.47-2.75-1.65Z" fill="#a7c3e3"/>
          <path id="Trazado_132473" data-name="Trazado 132473" d="M229.62,216.28l2.33,1.41,1.93-1.39-2.35-1.41Z" fill="#a7c3e3"/>
          <path id="Trazado_132474" data-name="Trazado 132474" d="M229.7,220.08l2.68,1.61,2.24-1.61-2.69-1.62Z" fill="#a7c3e3"/>
          <path id="Trazado_132475" data-name="Trazado 132475" d="M229.8,203.36l2.38,1.43,2.88-2.1-2.38-1.43Z" fill="#a7c3e3"/>
          <path id="Trazado_132476" data-name="Trazado 132476" d="M230.51,223.8l2.82,1.7,1.91-1.38-2.82-1.71Z" fill="#a7c3e3"/>
          <path id="Trazado_132477" data-name="Trazado 132477" d="M231.33,227.69l2.85,1.73,2.03-1.48-2.86-1.71Z" fill="#a7c3e3"/>
          <path id="Trazado_132478" data-name="Trazado 132478" d="M231.41,210.59l2.75,1.66,2.31-1.67-2.76-1.65Z" fill="#a7c3e3"/>
          <path id="Trazado_132479" data-name="Trazado 132479" d="M232.03,214.54l2.34,1.4,2.04-1.47-2.34-1.4Z" fill="#a7c3e3"/>
          <path id="Trazado_132480" data-name="Trazado 132480" d="M232.52,218.03l2.69,1.62,1.92-1.39-2.68-1.62Z" fill="#a7c3e3"/>
          <path id="Trazado_132481" data-name="Trazado 132481" d="M232.94,205.25l2.74,1.63,2.85-2.08-2.71-1.65Z" fill="#a7c3e3"/>
          <path id="Trazado_132482" data-name="Trazado 132482" d="M232.95,222.03l2.82,1.7,2.24-1.61-2.82-1.7Z" fill="#a7c3e3"/>
          <path id="Trazado_132483" data-name="Trazado 132483" d="M233.9,225.84l2.85,1.72,1.92-1.39-2.86-1.71Z" fill="#a7c3e3"/>
          <path id="Trazado_132484" data-name="Trazado 132484" d="M234.73,212.58l2.34,1.42,2.3-1.67-2.33-1.4Z" fill="#a7c3e3"/>
          <path id="Trazado_132485" data-name="Trazado 132485" d="M234.75,229.76l2.42,1.45,2.03-1.46-2.42-1.46Z" fill="#a7c3e3"/>
          <path id="Trazado_132486" data-name="Trazado 132486" d="M234.94,216.28l2.69,1.62,2.03-1.47-2.68-1.61Z" fill="#a7c3e3"/>
          <path id="Trazado_132487" data-name="Trazado 132487" d="M235.78,219.99l2.82,1.7,1.93-1.39-2.83-1.7Z" fill="#a7c3e3"/>
          <path id="Trazado_132488" data-name="Trazado 132488" d="M236.34,224.07l2.85,1.72,2.24-1.62-2.85-1.71Z" fill="#a7c3e3"/>
          <path id="Trazado_132489" data-name="Trazado 132489" d="M236.43,207.34l2.36,1.42,2.86-2.09-2.36-1.42Z" fill="#a7c3e3"/>
          <path id="Trazado_132490" data-name="Trazado 132490" d="M237.33,227.9l2.42,1.46,1.91-1.38-2.42-1.46Z" fill="#a7c3e3"/>
          <path id="Trazado_132491" data-name="Trazado 132491" d="M237.64,214.33l2.69,1.62,2.3-1.66-2.69-1.61Z" fill="#a7c3e3"/>
          <path id="Trazado_132492" data-name="Trazado 132492" d="M237.73,231.55l2.57,1.55,2.04-1.47-2.57-1.55Z" fill="#a7c3e3"/>
          <path id="Trazado_132493" data-name="Trazado 132493" d="M238.19,218.25l2.83,1.69,2.04-1.47-2.83-1.7Z" fill="#a7c3e3"/>
          <path id="Trazado_132494" data-name="Trazado 132494" d="M239.17,222.03l2.86,1.72,1.92-1.39-2.86-1.72Z" fill="#a7c3e3"/>
          <path id="Trazado_132495" data-name="Trazado 132495" d="M239.54,209.22l2.18,1.31,2.87-2.09-2.18-1.32Z" fill="#a7c3e3"/>
          <path id="Trazado_132496" data-name="Trazado 132496" d="M239.76,226.14l2.42,1.45,2.25-1.61L242,224.53Z" fill="#a7c3e3"/>
          <path id="Trazado_132497" data-name="Trazado 132497" d="M240.32,229.7l2.56,1.54,1.91-1.38-2.56-1.55Z" fill="#a7c3e3"/>
          <path id="Trazado_132498" data-name="Trazado 132498" d="M240.89,216.29l2.83,1.7,2.3-1.66-2.82-1.7Z" fill="#a7c3e3"/>
          <path id="Trazado_132499" data-name="Trazado 132499" d="M240.87,233.45l2.82,1.7,2.05-1.48-2.83-1.7Z" fill="#a7c3e3"/>
          <path id="Trazado_132500" data-name="Trazado 132500" d="M241.59,220.28l2.85,1.72,2.04-1.47-2.85-1.72Z" fill="#a7c3e3"/>
          <path id="Trazado_132501" data-name="Trazado 132501" d="M242.47,210.98l2.35,1.42,2.87-2.1-2.35-1.41Z" fill="#a7c3e3"/>
          <path id="Trazado_132502" data-name="Trazado 132502" d="M242.6,224.09l2.42,1.45,1.92-1.38-2.42-1.46Z" fill="#a7c3e3"/>
          <path id="Trazado_132503" data-name="Trazado 132503" d="M242.75,227.93l2.57,1.55,2.24-1.62-2.57-1.54Z" fill="#a7c3e3"/>
          <path id="Trazado_132504" data-name="Trazado 132504" d="M243.45,231.58l2.82,1.69,1.92-1.37-2.82-1.7Z" fill="#a7c3e3"/>
          <path id="Trazado_132505" data-name="Trazado 132505" d="M244.29,218.34l2.85,1.71,2.29-1.65-2.84-1.72Z" fill="#a7c3e3"/>
          <path id="Trazado_132506" data-name="Trazado 132506" d="M244.26,235.49l2.6,1.57,2.05-1.48-2.61-1.57Z" fill="#a7c3e3"/>
          <path id="Trazado_132507" data-name="Trazado 132507" d="M245.02,222.35l2.42,1.45,2.03-1.47-2.42-1.46Z" fill="#a7c3e3"/>
          <path id="Trazado_132508" data-name="Trazado 132508" d="M245.57,212.85l2.45,1.46,2.86-2.08-2.43-1.48Z" fill="#a7c3e3"/>
          <path id="Trazado_132509" data-name="Trazado 132509" d="M245.59,225.89l2.56,1.54,1.93-1.39-2.57-1.54Z" fill="#a7c3e3"/>
          <path id="Trazado_132510" data-name="Trazado 132510" d="M245.9,229.82l2.8,1.71,2.26-1.63-2.83-1.7Z" fill="#a7c3e3"/>
          <path id="Trazado_132511" data-name="Trazado 132511" d="M246.85,233.63l2.6,1.55,1.91-1.37-2.6-1.57Z" fill="#a7c3e3"/>
          <path id="Trazado_132512" data-name="Trazado 132512" d="M247.43,237.4l2.45,1.47,2.04-1.47-2.44-1.48Z" fill="#a7c3e3"/>
          <path id="Trazado_132513" data-name="Trazado 132513" d="M247.72,220.4l2.42,1.45,2.29-1.64L250,218.74Z" fill="#a7c3e3"/>
          <path id="Trazado_132514" data-name="Trazado 132514" d="M248.01,224.14l2.56,1.54,2.04-1.47-2.57-1.54Z" fill="#a7c3e3"/>
          <path id="Trazado_132515" data-name="Trazado 132515" d="M248.73,227.77l2.82,1.71,1.92-1.4-2.82-1.69Z" fill="#a7c3e3"/>
          <path id="Trazado_132516" data-name="Trazado 132516" d="M248.78,214.78l3.03,1.83,2.88-2.1-3.05-1.82Z" fill="#a7c3e3"/>
          <path id="Trazado_132517" data-name="Trazado 132517" d="M249.28,231.87l2.62,1.55,2.23-1.61-2.61-1.57Z" fill="#a7c3e3"/>
          <path id="Trazado_132518" data-name="Trazado 132518" d="M250.02,235.53l2.45,1.48,1.91-1.39-2.45-1.47Z" fill="#a7c3e3"/>
          <path id="Trazado_132519" data-name="Trazado 132519" d="M250.46,239.21l2.49,1.51,2.04-1.48-2.49-1.5Z" fill="#a7c3e3"/>
          <path id="Trazado_132520" data-name="Trazado 132520" d="M250.71,222.2l2.56,1.53,2.29-1.65-2.57-1.54Z" fill="#a7c3e3"/>
          <path id="Trazado_132521" data-name="Trazado 132521" d="M251.15,226.03l2.82,1.69,2.03-1.46-2.82-1.7Z" fill="#a7c3e3"/>
          <path id="Trazado_132522" data-name="Trazado 132522" d="M252.12,229.81l2.6,1.57,1.93-1.39-2.61-1.56Z" fill="#a7c3e3"/>
          <path id="Trazado_132523" data-name="Trazado 132523" d="M252.47,233.77l2.43,1.48,2.25-1.63-2.45-1.47Z" fill="#a7c3e3"/>
          <path id="Trazado_132524" data-name="Trazado 132524" d="M252.57,217.07l2.2,1.32,2.88-2.1-2.21-1.32Z" fill="#a7c3e3"/>
          <path id="Trazado_132525" data-name="Trazado 132525" d="M253.04,237.35l2.5,1.5,1.91-1.38-2.5-1.5Z" fill="#a7c3e3"/>
          <path id="Trazado_132526" data-name="Trazado 132526" d="M253.53,241.06l3.09,1.86,2.04-1.48-3.1-1.86Z" fill="#a7c3e3"/>
          <path id="Trazado_132527" data-name="Trazado 132527" d="M253.85,224.08l2.82,1.69,2.27-1.64-2.81-1.7Z" fill="#a7c3e3"/>
          <path id="Trazado_132528" data-name="Trazado 132528" d="M254.54,228.07l2.6,1.56,2.04-1.47-2.61-1.56Z" fill="#a7c3e3"/>
          <path id="Trazado_132529" data-name="Trazado 132529" d="M255.29,231.72l2.45,1.48,1.93-1.39-2.45-1.48Z" fill="#a7c3e3"/>
          <path id="Trazado_132530" data-name="Trazado 132530" d="M255.47,235.59l2.51,1.49,2.24-1.61-2.5-1.5Z" fill="#a7c3e3"/>
          <path id="Trazado_132531" data-name="Trazado 132531" d="M255.54,218.86l2.4,1.44,2.88-2.1-2.4-1.45Z" fill="#a7c3e3"/>
          <path id="Trazado_132532" data-name="Trazado 132532" d="M256.11,239.19l3.09,1.86,1.92-1.37-3.1-1.87Z" fill="#a7c3e3"/>
          <path id="Trazado_132533" data-name="Trazado 132533" d="M257.24,226.12l2.6,1.56,2.29-1.66-2.61-1.55Z" fill="#a7c3e3"/>
          <path id="Trazado_132534" data-name="Trazado 132534" d="M257.71,229.97l2.45,1.47,2.04-1.46-2.45-1.47Z" fill="#a7c3e3"/>
          <path id="Trazado_132535" data-name="Trazado 132535" d="M258.32,233.54l2.49,1.49,1.93-1.38-2.5-1.5Z" fill="#a7c3e3"/>
          <path id="Trazado_132536" data-name="Trazado 132536" d="M260.79,235.81l-2.24,1.62,3.1,1.86,2.23-1.62-.39-.23Z" fill="#a7c3e3"/>
          <path id="Trazado_132537" data-name="Trazado 132537" d="M258.65,220.72l2.59,1.55,2.87-2.09-2.59-1.56Z" fill="#a7c3e3"/>
          <path id="Trazado_132538" data-name="Trazado 132538" d="M260.41,228.03l2.45,1.47,2.28-1.65-2.44-1.48Z" fill="#a7c3e3"/>
          <path id="Trazado_132539" data-name="Trazado 132539" d="M260.73,231.8l2.5,1.49,2.04-1.47-2.51-1.5Z" fill="#a7c3e3"/>
          <path id="Trazado_132540" data-name="Trazado 132540" d="M261.38,235.38l3.09,1.86,1.92-1.39L263.31,234Z" fill="#a7c3e3"/>
          <path id="Trazado_132541" data-name="Trazado 132541" d="M262,222.72l2.41,1.46,2.86-2.08-2.41-1.47Z" fill="#a7c3e3"/>
          <path id="Trazado_132542" data-name="Trazado 132542" d="M263.43,229.84l2.5,1.51,2.29-1.66-2.51-1.5Z" fill="#a7c3e3"/>
          <path id="Trazado_132543" data-name="Trazado 132543" d="M263.8,233.64l3.08,1.85,2.05-1.46-3.09-1.87Z" fill="#a7c3e3"/>
          <path id="Trazado_132544" data-name="Trazado 132544" d="M265.11,224.6l2.26,1.38,2.88-2.11-2.28-1.36Z" fill="#a7c3e3"/>
          <path id="Trazado_132545" data-name="Trazado 132545" d="M266.5,231.69l3.09,1.86,2.28-1.66-3.08-1.86Z" fill="#a7c3e3"/>
          <path id="Trazado_132546" data-name="Trazado 132546" d="M268.15,226.44l2.43,1.45,2.86-2.09-2.42-1.46Z" fill="#a7c3e3"/>
          <path id="Trazado_132547" data-name="Trazado 132547" d="M271.34,228.34l2.97,1.79,2.87-2.09-2.99-1.79Z" fill="#a7c3e3"/>
        </g>
        <path id="Trazado_132548" data-name="Trazado 132548" d="M281.21,229.32l-27.77,20.3.04,1.94,27.73-17.17Z" fill="#a7c3e3"/>
        <path id="Trazado_132549" data-name="Trazado 132549" d="M253.48,249.59,188.17,210.5v1.71l65.31,39.33Z" fill="#a7c3e3"/>
      </g>
      <g id="Grupo_62474" data-name="Grupo 62474">
        <path id="Trazado_132550" data-name="Trazado 132550" d="M109.97,152.53l-1.73-1,56.42-32.58,44.12,25.47-1.73,1L152.35,177Z" fill="#fff"/>
        <g id="Grupo_62473" data-name="Grupo 62473">
          <path id="Trazado_132551" data-name="Trazado 132551" d="M174.42,133.52l21.92,12.66-3.05,1.77-21.93-12.66Z" fill="#bedffe"/>
          <path id="Trazado_132552" data-name="Trazado 132552" d="M189.8,149.96l-2.07,1.19-34.95-20.18,2.06-1.19Z" fill="#bedffe"/>
          <path id="Trazado_132553" data-name="Trazado 132553" d="M183.32,153.7l-2.06,1.19L146.3,134.71l2.06-1.19Z" fill="#bedffe"/>
          <path id="Trazado_132554" data-name="Trazado 132554" d="M176.99,157.36l-2.07,1.19-34.96-20.18,2.07-1.2Z" fill="#bedffe"/>
          <path id="Trazado_132555" data-name="Trazado 132555" d="M170.61,161.04l-2.06,1.19-34.96-20.18,2.06-1.2Z" fill="#bedffe"/>
          <path id="Trazado_132556" data-name="Trazado 132556" d="M164.02,164.84l-2.06,1.2L127,145.85l2.06-1.19Z" fill="#bedffe"/>
          <path id="Trazado_132557" data-name="Trazado 132557" d="M157.47,168.63l-2.07,1.19-34.96-20.19,2.07-1.19Z" fill="#bedffe"/>
        </g>
        <path id="Trazado_132558" data-name="Trazado 132558" d="M109.97,152.53,152.35,177l54.7-31.58,1.73-1v2L152.35,179l-44.11-25.47v-2Z" fill="#a7c3e3"/>
      </g>
      <g id="Grupo_62475" data-name="Grupo 62475">
        <path id="Trazado_132559" data-name="Trazado 132559" d="M340.1,226.79h0a.62.62,0,0,1-.36.57h-.05l-30,17.31a3.85,3.85,0,0,1-3.29-.43l-13.81-8h-.09a3.482,3.482,0,0,1-.61-.47,1.22,1.22,0,0,1-.42-.84,3.38,3.38,0,0,0,0,1.64.881.881,0,0,0,.09.2h0a2.59,2.59,0,0,0,1,.92l13.81,8a3.82,3.82,0,0,0,3.29.43l30-17.34a.47.47,0,0,0,.09-.06C340.53,228.29,340.1,226.79,340.1,226.79Z" fill="url(#linear-gradient)"/>
        <path id="Trazado_132560" data-name="Trazado 132560" d="M291.9,235.77a3.481,3.481,0,0,0,.61.47h.09l13.81,8a3.85,3.85,0,0,0,3.29.43l30-17.31h.05a.62.62,0,0,0,.36-.57c0-.42-.39-.91-1.11-1.33l-13.82-8a3.86,3.86,0,0,0-3.28-.43l-30,17.34a.68.68,0,0,0-.37.54,1.22,1.22,0,0,0,.37.86Z" fill="#2b50a0"/>
        <path id="Trazado_132561" data-name="Trazado 132561" d="M293.37,235.19l15.03,8.67,29.62-17.1-15.03-8.68Z" fill="#bedffe"/>
        <path id="Trazado_132562" data-name="Trazado 132562" d="M330.14,221.12l2.57,1.48c.11.07.15.16.08.2a.45.45,0,0,1-.35,0l-2.56-1.48c-.12-.07-.16-.16-.08-.2a.36.36,0,0,1,.34,0Z" fill="#fff"/>
      </g>
      <g id="Grupo_62477" data-name="Grupo 62477">
        <ellipse id="Elipse_4358" data-name="Elipse 4358" cx="12.26" cy="7.08" rx="12.26" ry="7.08" transform="translate(358.366 220.265) rotate(-0.36)" fill="#b4d2ed"/>
        <g id="Grupo_62476" data-name="Grupo 62476">
          <path id="Trazado_132563" data-name="Trazado 132563" d="M351.18,206.64a.23.23,0,0,0-.12.21v4.71a12.45,12.45,0,0,0,3.52,8.69V208.46l-3.15-1.82A.23.23,0,0,0,351.18,206.64Z" fill="none"/>
          <path id="Trazado_132564" data-name="Trazado 132564" d="M356.49,205.55l-1.57-.9a5.73,5.73,0,0,0,1.12,1.68Z" fill="#5757c4"/>
          <path id="Trazado_132565" data-name="Trazado 132565" d="M351.06,211.56v-4.71a.245.245,0,0,1,.37-.21l3.15,1.82v-4l-1.42-.82a3.72,3.72,0,0,0-5.57,3.22v4.71a15.93,15.93,0,0,0,7,13.2v-4.51a12.45,12.45,0,0,1-3.53-8.7Z" fill="#5757c4"/>
          <path id="Trazado_132566" data-name="Trazado 132566" d="M378.78,203c0,1.79-1.18,3.58-3.55,4.93-4.72,2.71-12.43,2.71-17.13,0a8.889,8.889,0,0,1-2.06-1.59,5.73,5.73,0,0,1-1.12-1.68,4.22,4.22,0,0,1-.34-1.66v23.25h0c.05,1.75,1.22,3.48,3.51,4.8a17.35,17.35,0,0,0,8.31,2h.53a17.41,17.41,0,0,0,8.29-2c2.4-1.37,3.58-3.19,3.54-5h0V203Z" fill="#8f8dfa"/>
          <path id="Trazado_132567" data-name="Trazado 132567" d="M358.1,207.92c4.7,2.71,12.41,2.71,17.13,0,2.37-1.35,3.55-3.14,3.55-4.93s-1.18-3.58-3.55-4.93c-4.72-2.71-12.43-2.71-17.13,0-2.35,1.36-3.52,3.14-3.52,4.93S355.75,206.57,358.1,207.92Z" fill="#b4b4fc"/>
          <path id="Trazado_132568" data-name="Trazado 132568" d="M373.56,207c3.79-2.18,3.79-5.74,0-7.92a15.33,15.33,0,0,0-13.78,0c-3.77,2.18-3.77,5.74,0,7.92a15.33,15.33,0,0,0,13.78,0Z" fill="#5757c4"/>
        </g>
      </g>
      <g id="Grupo_62478" data-name="Grupo 62478">
        <path id="Trazado_132569" data-name="Trazado 132569" d="M299.49,254.68a4.131,4.131,0,0,0-1.3-.4,8.379,8.379,0,0,0-2.24,0h0l-.57.08h-.12l-.26.05h-.11l-.45.1h-.18l-.22.07-.27.07-.27.09-.25.08-.18.06-.38.14h-.11l-.33.13-.14.06-.41.19h0l-.39.19-.1.05-.42.23-.53.31c-.23.13-.45.27-.67.41h0l-.37.24-.16.11-.21.14-.12.09-.24.17-.1.07-.25.19h-.06l-.28.22-.1.07-.24.19-.15.13-.17.14-.1.08-.22.19v.05l-.25.21-.12.11-.18.16-.11.11-.18.17-.07.07-.21.2-.07.07c-.06.07-.13.13-.2.2a.46.46,0,0,1-.07.07l-.19.2h0l-.23.24-.05.06-.19.21-.07.08-.17.19v.05c-.07.07-.13.15-.19.22h0l-.19.23h0l-.41.51h0l-.36.49h0l-.18.25v.05l-.14.2-.05.07a1.273,1.273,0,0,1-.13.19h0l-.14.22h0l-.14.23h0c-.05.07-.09.15-.14.23h0l-.15.24h0l-.26.46h0a2.119,2.119,0,0,0-.11.21h0a2.113,2.113,0,0,0-.11.21v.05l-.21.39h0l-.1.2h0c-.07.13-.13.27-.19.4h0c0,.06-.05.12-.07.17h0c-.06.12-.1.24-.15.35h0c0,.06-.05.12-.07.17h0a.19.19,0,0,1-.05.13h0a.2.2,0,0,1-.05.13h0a.19.19,0,0,1-.05.13h0c-.1.28-.18.52-.24.71h0v.06h0v.08h0a.747.747,0,0,1-.06.22h0l20.64-11.51A2.27,2.27,0,0,0,299.49,254.68Z" fill="#bedffe"/>
        <path id="Trazado_132570" data-name="Trazado 132570" d="M288.56,249.22a15.23,15.23,0,0,0-7.31.19h-.13l-.25.06h0l-.24.07h0a15.131,15.131,0,0,0-3,1.28,25.69,25.69,0,0,0-5.64,4.64,29.129,29.129,0,0,0-2.4,3.05,23.219,23.219,0,0,0-2.1,4.17L280,269h0a.38.38,0,0,1,.06-.22h0v-.08h0v-.06h0c.06-.19.14-.43.24-.71h0a.19.19,0,0,1,.05-.13h0a.19.19,0,0,1,.05-.13h0a.19.19,0,0,1,.05-.13h0a.193.193,0,0,1,.07-.17h0c.05-.11.09-.23.15-.35h0a.249.249,0,0,1,.07-.17h0c.06-.13.12-.27.19-.4h0l.1-.2h0l.21-.39v-.05a2.113,2.113,0,0,1,.11-.21h0a2.119,2.119,0,0,1,.11-.21h0l.26-.46h0l.15-.24h0c.05-.08.09-.16.14-.23h0l.14-.23h0l.14-.22h0a1.268,1.268,0,0,0,.13-.19l.05-.07.14-.2v-.05l.18-.25h0l.36-.49h0l.41-.51h0l.19-.23h0l.19-.22v-.05l.17-.19.07-.08.19-.21.05-.06.23-.24h0l.19-.2a.46.46,0,0,0,.07-.07c.07-.07.14-.13.2-.2l.07-.07.21-.2.07-.07.18-.17.11-.11.18-.16.12-.11.25-.21v-.05l.22-.19.1-.08.17-.14.15-.13.24-.19.1-.07.28-.22h.06l.25-.19.1-.07.24-.17.12-.09.21-.14.16-.11.37-.24h0c.22-.14.44-.28.67-.41l.53-.31.42-.23.1-.05.39-.19h0l.41-.19.14-.06.33-.13h.11l.38-.14.18-.06.25-.08.27-.09.27-.07.22-.07h.18l.45-.1h.11l.26-.05h.12l.57-.08h0a8.38,8.38,0,0,1,2.24,0,4.129,4.129,0,0,1,1.3.4h0Z" fill="#a7c3e3"/>
      </g>
      <g id="Grupo_62487" data-name="Grupo 62487">
        <g id="Grupo_62485" data-name="Grupo 62485">
          <g id="Grupo_62480" data-name="Grupo 62480">
            <g id="Grupo_62479" data-name="Grupo 62479">
              <path id="Trazado_132571" data-name="Trazado 132571" d="M224.31,391.08c7.1,5.36,23.58,1.47,25.05-4.83a5.71,5.71,0,0,0-1.77-5.87c-5.64,1-13.36,2.5-13.36,2.5l-13.57,2.81a9.24,9.24,0,0,0,3.65,5.39Z" fill="#ffcda8"/>
              <path id="Trazado_132572" data-name="Trazado 132572" d="M255.74,398.12a19.748,19.748,0,0,0,3.89-2.09C258.43,396.74,257.11,397.44,255.74,398.12Z" fill="none"/>
              <path id="Trazado_132573" data-name="Trazado 132573" d="M262.79,382.79h0c-6.25-3.45-15.22-2.39-15.22-2.39a5.71,5.71,0,0,1,1.77,5.87c-1.47,6.3-18,10.19-25.05,4.83a9.24,9.24,0,0,1-3.65-5.39l-8.91,1.84L210,401c2.22,7.93,13,6.64,15.62,6.45s30.16-9.32,30.16-9.32c1.37-.68,2.69-1.38,3.89-2.09a18.559,18.559,0,0,0,5.36-5.66,2.339,2.339,0,0,1,.12-.3C266.36,387.36,262.79,382.79,262.79,382.79Z" fill="#fd8f25"/>
            </g>
            <path id="Trazado_132574" data-name="Trazado 132574" d="M240.72,290.26a22.1,22.1,0,0,0-5.09-13.66c-4.1-5-12.07-7.33-22.3-5.52-15.84,2.81-50.08,10.26-66.07,21.36-7,13.76-13.43,40.87-10.79,55.69l.47.1a31.08,31.08,0,0,0,20.1-2.66c12.05-5.87,35.28-18.84,53.52-29.18-.29,1.81-.51,3.22-.64,4.1-1.84,12.28,1.88,32.57,1.81,46.21,0,2.36-.95,22.37-1.17,24.23,16.4-.11,19.05-7.35,19.05-7.35h0c1-10.09,2.3-24.48,3.14-28.59,4.16-20.17,7.84-28.93,8.24-50.89a115.144,115.144,0,0,0-.27-13.84Z" fill="#472ea6"/>
          </g>
          <g id="Grupo_62482" data-name="Grupo 62482">
            <g id="Grupo_62481" data-name="Grupo 62481">
              <path id="Trazado_132575" data-name="Trazado 132575" d="M251.17,414.4c7.1,5.36,23.58,1.47,25.06-4.83a5.7,5.7,0,0,0-1.78-5.87c-5.63,1-13.35,2.5-13.35,2.5L247.53,409a9.22,9.22,0,0,0,3.64,5.4Z" fill="#ffcda8"/>
              <path id="Trazado_132576" data-name="Trazado 132576" d="M282.61,421.44a19.749,19.749,0,0,0,3.89-2.09C285.3,420.06,284,420.76,282.61,421.44Z" fill="none"/>
              <path id="Trazado_132577" data-name="Trazado 132577" d="M289.66,406.11h0c-6.25-3.45-15.23-2.39-15.23-2.39a5.7,5.7,0,0,1,1.78,5.87c-1.48,6.3-18,10.19-25.06,4.83a9.22,9.22,0,0,1-3.64-5.39l-8.92,1.84-1.78,13.47c2.21,7.92,13,6.63,15.61,6.44s30.17-9.32,30.17-9.32c1.36-.68,2.69-1.38,3.89-2.09a18.45,18.45,0,0,0,5.36-5.66,2.217,2.217,0,0,1,.11-.3C293.23,410.68,289.66,406.11,289.66,406.11Z" fill="#fd8f25"/>
            </g>
            <path id="Trazado_132578" data-name="Trazado 132578" d="M267.59,313.58a22.2,22.2,0,0,0-5.1-13.66c-4.1-5-12.06-7.33-22.29-5.52-8.71,1.55-24.18,7.18-39,13.78v-.07c-33,12.27-54.23-15.75-54.23-15.75-5.46,11.3-13.28,39.05-10.27,54.77,1.84,9.65,3,12.58,11.22,17.48,5.41,3.23,12.13,6.2,15.85,6.94a31.14,31.14,0,0,0,20.1-2.65c12.05-5.88,35.28-18.85,53.51-29.19-.28,1.81-.5,3.22-.63,4.1-1.84,12.28,1.87,32.57,1.8,46.21,0,2.36-1,22.37-1.16,24.23,16.39-.11,19.05-7.35,19.05-7.35h0c1-10.09,2.3-24.48,3.15-28.59,4.15-20.17,7.84-28.93,8.23-50.89a113.213,113.213,0,0,0-.23-13.84Z" fill="#6c58b8"/>
          </g>
          <path id="Trazado_132579" data-name="Trazado 132579" d="M200.83,222.52s13.67-3.81,19.73-2.91S238.49,223,238,225.22s-4.93,2.69-7.17,2.69-15.92,1.79-14.8,3.36,10.09-2.69,10.32-1.12-.45,7.4-7.63,8.52a96.455,96.455,0,0,0-10.31,2Z" fill="#ffcda8"/>
          <g id="Grupo_62483" data-name="Grupo 62483">
            <path id="Trazado_132580" data-name="Trazado 132580" d="M193,199.57c-17.23-16.8-38.58-30-43-22.78,1,5.64,5.37,10,7.27,13.79.31.62,1.33,1.06,1.15,2.91a30,30,0,0,1-1.22,3.32c-.24.5-.5,1-.72,1.55a72.116,72.116,0,0,1-5.65,9c-2.9,7.15,16.55,14.12,24.75,8.3,2.1-6.85,2.81-12.1,5.9-18C184.25,199.16,192.12,200.47,193,199.57Z" fill="#daa782"/>
            <path id="Trazado_132581" data-name="Trazado 132581" d="M192.83,199.64c-1.92.89-11.88-5.4-12.88-5.44-9.62-.46-21.32-.82-22.72-3.62-1.9-3.79-6.3-8.15-7.27-13.79-1.54-9,.92-18.8,10.74-24.84,17.08-10.5,38.76.41,39.58,14.21.33,5.66-2,6.86-2.44,10.59a22.91,22.91,0,0,0,1.15,4.83c.33.92-1.52,4.62-2.71,9.38C195.25,195.05,194.11,199.05,192.83,199.64Z" fill="#ffcda8" fill-rule="evenodd"/>
          </g>
          <path id="Trazado_132582" data-name="Trazado 132582" d="M210.67,232.4c-3.67-8.49-17.73-18-32.53-25.32-13.24.08-22.62-7.17-25.95-10.18h-.26l-.45-.12-.18-.05-.55-.14h0l-.59-.15H150l-.42-.1h-.19l-.4-.09h-.17l-.54-.12h-.09l-.45-.09h-.17l-.37-.07h-.17l-.4-.07h-.12l-.49-.08h-.66l-.33-.05h-.14l-.46-.05c-18.7-2.15-18.7,30.61-10.81,44.65,9.59,17.08,15.18,32.21,13.43,52.43l.42.51.08.08c.14.16.27.32.42.48l.08.1.44.48.05.06c.15.15.29.31.44.47l.06.06.48.48.08.09.49.48.06.06,1.08,1h.05l.56.5h0C165.15,309,188.77,317,200.62,299c-.74-1.8-2.44-10.17-2.49-16.19-.07-8.18,4.23-15.88,4.91-24C210.84,247.27,213.05,237.92,210.67,232.4Z" fill="#febc7c"/>
          <path id="Trazado_132583" data-name="Trazado 132583" d="M189.38,213.18a96.647,96.647,0,0,0-11.3-6.09s-15.42-1.83-25.6-10.12l-4.95-1.19a8.64,8.64,0,0,0-.67,4.91S149,212.3,173.23,214.2l.39.05a71.513,71.513,0,0,0,9.07-.08h0a47.382,47.382,0,0,0,6.69-.99Z" fill="#fff"/>
          <path id="Trazado_132584" data-name="Trazado 132584" d="M245.75,256.23s3.72-7.84,6.11-8.77,8-2.79,8-2.79l15.81-.53s7.3,4.25,6.1,6.51-8.76,10-8.76,10S261.56,265,259.43,265s-4.38,2.52-4.38,2.52Z" fill="#ffcda8" fill-rule="evenodd"/>
          <g id="Grupo_62484" data-name="Grupo 62484">
            <path id="Trazado_132585" data-name="Trazado 132585" d="M211,233.22c3.63,11.18.42,32.34.46,52.55L195,297.26c-2.52-1.69-2.91-3.39-3.33-10.44-.83-14.26-2.14-46.24.11-53.19a12.1,12.1,0,0,1,9.51-7.91C206.32,225.05,209.49,228.74,211,233.22Z" fill="#fd8f25" fill-rule="evenodd"/>
            <path id="Trazado_132586" data-name="Trazado 132586" d="M199.18,279.33,249,253.14c5.61-.64,9.81,9.93,6.92,13.65l-47.23,30.87c-6.39,2.45-10.85,2.21-13.64-.05C188.58,292.33,194.28,283.46,199.18,279.33Z" fill="#fd8f25" fill-rule="evenodd"/>
          </g>
          <path id="Trazado_132587" data-name="Trazado 132587" d="M184.53,148.56c-6.11-2.58-25.18-4.81-31.94,9.26-18,37.43-2.37,42.22,3.32,44.63,0,0,14.43,5.59,22.61-1.27a35.72,35.72,0,0,0,9.28-15.1c-2-.73-3.34-4-3-7.12.4-4,2.77-2.7,4.08-1.67.9-6.11,5.08-7.2,5.08-7.2C206.92,160.8,193.21,152.22,184.53,148.56Z" fill="#121214"/>
        </g>
        <g id="Grupo_62486" data-name="Grupo 62486">
          <path id="Trazado_132588" data-name="Trazado 132588" d="M169.86,480.74h-.42a3.58,3.58,0,0,1-3.13-4L183,342c.23-2,3.18-3.38,5.16-3.14s4.56,2,.71,4L169.8,477.58C173.2,479.4,171.65,480.74,169.86,480.74Z" fill="#895d3b"/>
          <path id="Trazado_132589" data-name="Trazado 132589" d="M98.25,438.31a3,3,0,0,1-.4-.12,3.58,3.58,0,0,1-2.12-4.6l34.35-99.95c.69-1.86,3.89-2.53,5.75-1.84s4,3,3.28,4.88l-36.67,99.4a3.57,3.57,0,0,1-4.19,2.23Z" fill="#895d3b"/>
          <path id="Trazado_132590" data-name="Trazado 132590" d="M241.09,438.73c-1.78.21-3.47-.94-7.51-2.72L213.35,369.7c3.16-1.92,5.53-4,7.45-4.45s5,.59,5.49,2.51l17.87,66.59a3.59,3.59,0,0,1-2.66,4.31Z" fill="#895d3b"/>
          <path id="Trazado_132591" data-name="Trazado 132591" d="M124.84,348.15s-12.27-5.93-14-17.35-5.93-77-5.93-77,3-8,14.81,0l53.32,30s15.66,8.88,18.62,19.88l18.62,41.9s49.51-31.32,53.32-30.89,11,4.23,8.46,15.65S259.83,352,255.6,354.49l-53.53,32.17s-5.12,1.69-14.72-1.7Z" fill="#ef2a66"/>
          <path id="Trazado_132592" data-name="Trazado 132592" d="M116,270l5,63.81a4.49,4.49,0,0,0,2.22,3.53L168,363.23a4.48,4.48,0,0,0,6.7-4.21l-4.81-64.16a4.48,4.48,0,0,0-2.25-3.56l-45-25.53A4.48,4.48,0,0,0,116,270Z" fill="#bf3a70"/>
        </g>
      </g>
      <path id="Trazado_132593" data-name="Trazado 132593" d="M366.67,142.16a2.94,2.94,0,0,0-.59.12,2.941,2.941,0,0,1,.59-.12Z" fill="none"/>
      <path id="Trazado_132594" data-name="Trazado 132594" d="M353.72,133.79h0c.11.25.23.48.35.72C353.95,134.27,353.83,134.04,353.72,133.79Z" fill="none"/>
      <path id="Trazado_132595" data-name="Trazado 132595" d="M366.08,142.28a3.41,3.41,0,0,0-.73.31A3.409,3.409,0,0,1,366.08,142.28Z" fill="none"/>
      <path id="Trazado_132596" data-name="Trazado 132596" d="M364.51,143.46h0a2.12,2.12,0,0,1,.84-.87,2.12,2.12,0,0,0-.84.87Z" fill="none"/>
      <g id="Grupo_62500" data-name="Grupo 62500">
        <g id="Grupo_62490" data-name="Grupo 62490">
          <g id="Grupo_62489" data-name="Grupo 62489">
            <path id="Trazado_132597" data-name="Trazado 132597" d="M289.51,191l-29.64-17.25a8.64,8.64,0,0,0-7.86,0l-11.29,6.65c-2.18,1.26-2.21,3.31,0,4.57l29.64,17.24a8.69,8.69,0,0,0,7.88,0l11.29-6.66C291.67,194.33,291.66,192.29,289.51,191Z" fill="#e9f6ff"/>
            <path id="Trazado_132598" data-name="Trazado 132598" d="M289.49,195.59l-11.29,6.66a8.13,8.13,0,0,1-3.93.94,8,8,0,0,1-3.95-.94L240.68,185a2.74,2.74,0,0,1-1.61-2.26V185a2.78,2.78,0,0,0,1.61,2.26l29.65,17.24a8.488,8.488,0,0,0,7.88-.06l11.28-6.65a2.77,2.77,0,0,0,1.64-2.29v-2.2a2.79,2.79,0,0,1-1.64,2.29Z" fill="#a7c3e3"/>
            <g id="Grupo_62488" data-name="Grupo 62488">
              <path id="Trazado_132599" data-name="Trazado 132599" d="M279.23,193.4l3.92-2.28L283.2,175l-3.93,2.28Z" fill="#fff"/>
              <path id="Trazado_132600" data-name="Trazado 132600" d="M255.46,163.48l23.81,13.8L283.2,175l-23.82-13.79Z" fill="#e9f6ff"/>
            </g>
            <path id="Trazado_132601" data-name="Trazado 132601" d="M255.41,179.61l23.82,13.79.04-16.12-23.81-13.8Z" fill="#a7c3e3"/>
          </g>
          <path id="Trazado_132602" data-name="Trazado 132602" d="M334.41,99.16,224.14,35.49a2.79,2.79,0,0,0-2.82-.28l-3.92,2.28a2.79,2.79,0,0,1,2.82.28l110.27,63.67a8.64,8.64,0,0,1,3.93,6.8L334.24,206a2.79,2.79,0,0,1-1.16,2.55l3.93-2.28a2.79,2.79,0,0,0,1.15-2.55l.19-97.74a8.68,8.68,0,0,0-3.94-6.82Z" fill="#a7c3e3"/>
          <path id="Trazado_132603" data-name="Trazado 132603" d="M330.49,101.44,220.22,37.77c-2.18-1.26-4-.27-4,2.25l-.18,97.73a8.68,8.68,0,0,0,4,6.84l110.27,63.67c2.16,1.25,3.95.23,3.95-2.28l.18-97.74a8.64,8.64,0,0,0-3.95-6.8Z" fill="#2b50a0"/>
          <path id="Trazado_132604" data-name="Trazado 132604" d="M220.43,135.19l109.45,63.19V108.27L220.43,45.08Z" fill="#fff"/>
        </g>
        <g id="Grupo_62499" data-name="Grupo 62499">
          <g id="Grupo_62491" data-name="Grupo 62491">
            <path id="Trazado_132605" data-name="Trazado 132605" d="M251.58,127.22l-.14-.08-22.47-13V88.25l.13.07,22.48,13Zm-22.44-13.15,22.26,12.85V101.4L229.14,88.55Z" fill="#bedffe"/>
            <rect id="Rectángulo_7207" data-name="Rectángulo 7207" width="0.17" height="25.9" transform="translate(229.011 107.762) rotate(-60)" fill="#bedffe"/>
            <rect id="Rectángulo_7208" data-name="Rectángulo 7208" width="0.17" height="25.9" transform="translate(229.012 101.337) rotate(-60)" fill="#bedffe"/>
            <rect id="Rectángulo_7209" data-name="Rectángulo 7209" width="0.17" height="25.9" transform="translate(229.004 94.902) rotate(-60)" fill="#bedffe"/>
            <rect id="Rectángulo_7210" data-name="Rectángulo 7210" width="0.17" height="25.72" transform="translate(245.79 98.11)" fill="#bedffe"/>
            <rect id="Rectángulo_7211" data-name="Rectángulo 7211" width="0.17" height="25.72" transform="translate(240.18 94.88)" fill="#bedffe"/>
            <rect id="Rectángulo_7212" data-name="Rectángulo 7212" width="0.17" height="25.72" transform="translate(234.58 91.64)" fill="#bedffe"/>
          </g>
          <g id="Grupo_62497" data-name="Grupo 62497">
            <path id="Trazado_132606" data-name="Trazado 132606" d="M315.89,129.94l-.05-2,.48.27v-.08l-.47-.27v-2l.47.27V126l-.47-.27v-2l.47.28v-.08l-.48-.28v-2l.47.27v-.08l-.47-.27v-2l.47.28v-.08l-.47-.28-.05-2,.48.27v-.08l-.48-.27v-2l.47.27v-.08l-.47-.27v-2l.47.28v-.08l-.48-.28v-2l.47.27v-.08l-.47-.27v-2l.47.28v-.08l-.47-.28-.05-2,.48.27v-.08L259.22,74.39v.08l.41.24v2l-.41-.24v.08l.42.24v2l-.42-.24v.08l.41.24v2l-.41-.24v.08l.41.24.05,2-.42-.24v.08l.42.24v2l-.41-.24v.08l.41.24v2l-.41-.23V87l.42.24v2l-.42-.24v.08l.41.24v2l-.41-.24v.08l.41.24v2l-.42-.24v.08l.42.24v2l-.41-.24v.08l.41.24v2l-.41-.25v.09l56.66,32.78v-.08Zm-.24-6.35-11-6.38v-2l11,6.38Zm0-2.09-11-6.38v-2l11,6.38Zm0-2.1-11-6.38v-2l11,6.38ZM282.07,96l.05,2-11-6.38v-2Zm-11-6.46-.05-2,11,6.38v2Zm11.07,8.55v2l-11-6.38v-2Zm.06-2.11v-2l11,6.38v2Zm11,6.46v2l-11-6.37v-2Zm-11-2.25v2l-11-6.38v-2Zm0,2.09v2l-11-6.38v-2Zm0-4.12,11,6.37v2l-11-6.38Zm11.08,4.26v-2l11,6.38v2Zm11,6.46v2l-11-6.38-.05-2Zm-11-2.25v2l-11-6.38v-2Zm0,2.09v2l-11-6.38-.05-2Zm0-4.12,11,6.38.05,2-11-6.38Zm11.15,8.4v2l-11-6.38v-2Zm0,2.09v2l-11-6.38v-2Zm11,2.18-11-6.38v-2l11,6.38Zm0-2.1-11-6.37-.05-2,11,6.38Zm0-2.09-11-6.38v-2l11,6.38Zm-.05-2.09-11-6.38v-2l11,6.38Zm-.08-4.11v2l-11-6.38v-2Zm-11-.24-11-6.38v-2l11,6.38Zm0-2.09-11-6.38v-2l11,6.38Zm-.09-4.11v2l-11-6.38v-2Zm-11-.24-11-6.38-.05-2,11,6.38Zm0-2.1-11-6.38v-2l11,6.38ZM293,94v2l-11-6.38v-2Zm-11-.23-11-6.38v-2l11,6.38Zm0-2.1-11-6.38v-2l11,6.38Zm-.08-4.11v2l-11-6.38v-2ZM259.74,74.77l11,6.38v2l-11-6.38Zm0,2.1,11,6.38v2l-11-6.38Zm.05,2.09,11,6.38v2l-11-6.38Zm0,2.09,11,6.38v2l-11-6.38Zm.05,2.1,11,6.38v2l-11-6.38Zm0,2.09,11,6.38v2l-11-6.38Zm0,2.1,11,6.38v2l-11-6.38Zm.05,2.09,11,6.38v2l-11-6.38Zm0,2.09,11,6.38v2l-11-6.38Zm.05,2.1,11,6.38v2l-11-6.38Zm.08,4.11v-2l11,6.38.05,2Zm11,.24,11,6.38v2l-11-6.38Zm0,2.09,11,6.38v2l-11-6.38Zm.08,4.11v-2l11,6.38v2Zm11,.24,11,6.38v2l-11-6.38Zm0,2.09,11,6.38v2l-11-6.38Zm.09,4.11v-2l11,6.38v2Zm11,.24,11,6.38v2l-11-6.38Zm0,2.09,11,6.38v2l-11-6.38Zm.09,4.11v-2l11,6.38v2Zm11,.24,11,6.38v2l-11-6.38Zm.05,2.09,11,6.38.05,2-11-6.38Zm.08,4.11v-2l11,6.38v2Z" fill="#bedffe"/>
            <path id="Trazado_132607" data-name="Trazado 132607" d="M309.84,117.49a1.82,1.82,0,0,0-.91-1.22c-.5-.29-.89-.2-.89.18a1.15,1.15,0,0,0,.17.49l-8.37,1.35a2.31,2.31,0,0,0-.71-.68,1.27,1.27,0,0,0-.43-.16l-4.86-7.69a.36.36,0,0,0,.12-.29,1.82,1.82,0,0,0-.91-1.22c-.5-.29-.9-.21-.89.18a1.22,1.22,0,0,0,.27.64l-2.16,1.67a2.318,2.318,0,0,0-.3-.22,1.34,1.34,0,0,0-.42-.15L282.3,99.32a.29.29,0,0,0,.15-.3,1.76,1.76,0,0,0-.91-1.23c-.49-.28-.89-.2-.88.19a1,1,0,0,0,.16.48L276,101.07a2.2,2.2,0,0,0-.25-.17,1.111,1.111,0,0,0-.27-.13l-2.2-5.8a.32.32,0,0,0,.38-.36,1.77,1.77,0,0,0-.91-1.22c-.5-.29-.89-.21-.88.18a.79.79,0,0,0,.09.35l-4.42-.53a2.16,2.16,0,0,0-.73-.71c-.35-.2-.65-.22-.79-.07l-3.94-3.14v.23l3.86,3.08a.249.249,0,0,0,0,.09,1.82,1.82,0,0,0,.91,1.22c.5.29.89.21.89-.18a1.289,1.289,0,0,0-.06-.25l4.45.53a2.14,2.14,0,0,0,.66.61,1.741,1.741,0,0,0,.25.11l2.2,5.82a.32.32,0,0,0-.36.35,1.78,1.78,0,0,0,.91,1.22c.5.29.89.21.88-.18a1.37,1.37,0,0,0-.4-.81L281,98.74a2.4,2.4,0,0,0,.55.46,1.08,1.08,0,0,0,.54.17l7.22,11a.29.29,0,0,0-.24.34,1.75,1.75,0,0,0,.91,1.22c.49.29.89.2.88-.18a1.29,1.29,0,0,0-.36-.76l2.14-1.65a3,3,0,0,0,.41.32,1,1,0,0,0,.58.16l4.83,7.64a.3.3,0,0,0-.24.33,1.81,1.81,0,0,0,.92,1.23c.49.28.89.2.88-.19a.61.61,0,0,0-.06-.25l8.43-1.37a2.08,2.08,0,0,0,.55.47,1,1,0,0,0,.62.16l4.21,4.8.06-.19-4.11-4.69a.33.33,0,0,0,.12-.27Z" fill="#ef2a66"/>
            <path id="Trazado_132608" data-name="Trazado 132608" d="M306.89,115.09c.09-.33-.24-.88-.73-1.24s-1-.37-1,0a.66.66,0,0,0,0,.24l-3.49-.64a2.11,2.11,0,0,0-.62-.69,1.22,1.22,0,0,0-.73-.28l-4.6-5.71h0c.08-.32-.24-.88-.73-1.23s-1-.38-1,0h0l-7.99-4a2,2,0,0,0-.69-.88,1.22,1.22,0,0,0-.79-.27l-7-6.47h0c.08-.33-.25-.88-.74-1.24s-.95-.37-1,0a.341.341,0,0,0,0,.1L266.72,89a2,2,0,0,0-.68-.83,1,1,0,0,0-.86-.24L262,84.63v.25L265,88a.249.249,0,0,0,0,.09c-.08.33.25.88.74,1.23s.95.38,1,0a.29.29,0,0,0,0-.16L275.86,93a2,2,0,0,0,.7.89c.39.28.76.34.94.19l6.87,6.42a.32.32,0,0,0-.08.14c-.08.33.25.88.73,1.23s1,.38,1,.05a.489.489,0,0,0,0-.12l7.87,3.86a1.85,1.85,0,0,0,.73,1c.36.26.71.34.9.23l4.53,5.63a.35.35,0,0,0-.12.17c-.08.33.25.89.74,1.24s.95.37,1,0a.629.629,0,0,0,0-.27l3.47.63a2.09,2.09,0,0,0,.64.73,1,1,0,0,0,.88.24l7,7.62c0-.07.05-.13.07-.2l-6.91-7.54a.15.15,0,0,0,.07-.05Z" fill="#29479d"/>
            <g id="Grupo_62492" data-name="Grupo 62492">
              <path id="Trazado_132609" data-name="Trazado 132609" d="M273.26,122.83l1.52.84c.08-1.85.93-3,2.15-3.06l-.67-2.23C274.54,118.51,273.33,120.16,273.26,122.83Z" fill="#ef2a66"/>
              <path id="Trazado_132610" data-name="Trazado 132610" d="M278.42,118.92a3.94,3.94,0,0,0-2.17-.54l.68,2.23a2.79,2.79,0,0,1,1.5.38c2,1.12,3.7,4.29,3.72,7.07s-1.63,4.12-3.66,3-3.7-4.29-3.72-7.07v-.32l-1.52-.84v.33c0,3.91,2.38,8.38,5.25,10s5.19-.32,5.17-4.23a13.171,13.171,0,0,0-1.81-6.32,9.62,9.62,0,0,0-3.44-3.69Z" fill="#29479d"/>
            </g>
            <g id="Grupo_62493" data-name="Grupo 62493">
              <path id="Trazado_132611" data-name="Trazado 132611" d="M289.75,132.36l1.52.84c.08-1.85.93-3,2.15-3.06l-.68-2.24C291,128,289.82,129.69,289.75,132.36Z" fill="#ef2a66"/>
              <path id="Trazado_132612" data-name="Trazado 132612" d="M294.91,128.45a4,4,0,0,0-2.17-.55l.68,2.24a2.81,2.81,0,0,1,1.5.38c2,1.12,3.7,4.29,3.72,7.07s-1.63,4.12-3.66,3-3.7-4.29-3.72-7.07v-.32l-1.52-.84v.32c0,3.92,2.38,8.39,5.25,10s5.19-.32,5.17-4.24a13.17,13.17,0,0,0-1.81-6.31,9.62,9.62,0,0,0-3.44-3.68Z" fill="#2b50a0"/>
            </g>
            <g id="Grupo_62494" data-name="Grupo 62494">
              <path id="Trazado_132613" data-name="Trazado 132613" d="M306.23,141.89l1.53.84c.08-1.85.93-3,2.14-3.07l-.67-2.23C307.52,137.56,306.31,139.22,306.23,141.89Z" fill="#ef2a66"/>
              <path id="Trazado_132614" data-name="Trazado 132614" d="M311.4,138a3.89,3.89,0,0,0-2.17-.55l.68,2.23a2.74,2.74,0,0,1,1.5.39c2,1.12,3.7,4.29,3.72,7.07s-1.63,4.12-3.66,3-3.71-4.29-3.72-7.06v-.32l-1.53-.84v.32c0,3.92,2.38,8.39,5.25,10s5.19-.31,5.17-4.23a13.17,13.17,0,0,0-1.81-6.31A9.55,9.55,0,0,0,311.4,138Z" fill="#29479d"/>
            </g>
            <path id="Trazado_132615" data-name="Trazado 132615" d="M313.83,133l-3.3-1.92v1.3l3.24,1.87a.06.06,0,0,0,.09-.06v-1a.3.3,0,0,0,0-.11S313.84,133,313.83,133Z" fill="#bedffe"/>
            <path id="Trazado_132616" data-name="Trazado 132616" d="M308.09,154.66l6.7,3.88v-2.7l-6.7-3.87Z" fill="#d4e1f3"/>
            <g id="Grupo_62495" data-name="Grupo 62495">
              <path id="Trazado_132617" data-name="Trazado 132617" d="M301.91,158.38l12.88,7.35v-2.05l-12.88-7.36Z" fill="#bedffe"/>
              <path id="Trazado_132618" data-name="Trazado 132618" d="M258.6,133.66l16.97,9.69v-2.06l-16.97-9.68Z" fill="#bedffe"/>
              <path id="Trazado_132619" data-name="Trazado 132619" d="M278.5,145.02l21.56,12.3v-2.05L278.5,142.96Z" fill="#bedffe"/>
              <path id="Trazado_132620" data-name="Trazado 132620" d="M258.6,137.59l9.42,5.38v-2.05l-9.42-5.38Z" fill="#bedffe"/>
              <path id="Trazado_132621" data-name="Trazado 132621" d="M270.33,144.29l19.18,10.94v-2.05l-19.18-10.94Z" fill="#bedffe"/>
              <path id="Trazado_132622" data-name="Trazado 132622" d="M291.67,156.47l16.79,9.58v-2.06l-16.79-9.58Z" fill="#bedffe"/>
              <path id="Trazado_132623" data-name="Trazado 132623" d="M310.46,167.19l4.33,2.47v-2.05l-4.33-2.47Z" fill="#bedffe"/>
              <path id="Trazado_132624" data-name="Trazado 132624" d="M258.6,141.53l56.19,32.06v-2.05L258.6,139.47Z" fill="#bedffe"/>
              <path id="Trazado_132625" data-name="Trazado 132625" d="M258.6,145.46l9.42,5.38v-2.06l-9.42-5.37Z" fill="#bedffe"/>
              <path id="Trazado_132626" data-name="Trazado 132626" d="M270.33,152.16l19.18,10.94v-2.05L270.33,150.1Z" fill="#bedffe"/>
              <path id="Trazado_132627" data-name="Trazado 132627" d="M291.67,164.33l16.79,9.58v-2.05l-16.79-9.58Z" fill="#bedffe"/>
              <path id="Trazado_132628" data-name="Trazado 132628" d="M310.46,175.05l4.33,2.48v-2.06L310.46,173Z" fill="#bedffe"/>
              <path id="Trazado_132629" data-name="Trazado 132629" d="M278.5,160.75l21.56,12.3V171L278.5,158.69Z" fill="#bedffe"/>
              <path id="Trazado_132630" data-name="Trazado 132630" d="M258.6,149.39l16.97,9.69v-2.06l-16.97-9.68Z" fill="#bedffe"/>
              <path id="Trazado_132631" data-name="Trazado 132631" d="M301.91,174.11l12.88,7.35v-2.05l-12.88-7.35Z" fill="#bedffe"/>
            </g>
            <path id="Trazado_132632" data-name="Trazado 132632" d="M291.01,144.9l6.7,3.87v-2.69l-6.7-3.88Z" fill="#d4e1f3"/>
            <path id="Trazado_132633" data-name="Trazado 132633" d="M273.93,135.13l6.7,3.87v-2.69l-6.7-3.87Z" fill="#d4e1f3"/>
            <path id="Trazado_132634" data-name="Trazado 132634" d="M256.85,125.36l6.7,3.88v-2.7l-6.7-3.87Z" fill="#d4e1f3"/>
            <path id="Trazado_132635" data-name="Trazado 132635" d="M304.06,127.51l-3.31-1.91v1.29l3.24,1.87a.06.06,0,0,0,.1,0v-1.05a.19.19,0,0,0,0-.1Z" fill="#bedffe"/>
            <path id="Trazado_132636" data-name="Trazado 132636" d="M294.29,122,291,120.11v1.29l3.24,1.87a.07.07,0,0,0,.1-.06v-1a.261.261,0,0,0,0-.11S294.3,122,294.29,122Z" fill="#bedffe"/>
            <path id="Trazado_132637" data-name="Trazado 132637" d="M284.52,116.52l-3.31-1.91v1.29l3.24,1.87a.06.06,0,0,0,.1,0v-1a.19.19,0,0,0,0-.1S284.52,116.53,284.52,116.52Z" fill="#bedffe"/>
            <path id="Trazado_132638" data-name="Trazado 132638" d="M274.74,111l-3.31-1.91.05,1.29,3.24,1.87a.06.06,0,0,0,.09-.06v-1a.13.13,0,0,0,0-.1A.549.549,0,0,0,274.74,111Z" fill="#bedffe"/>
            <path id="Trazado_132639" data-name="Trazado 132639" d="M265,105.53l-3.31-1.91v1.29l3.24,1.87a.06.06,0,0,0,.1,0v-1a.19.19,0,0,0,0-.1Z" fill="#bedffe"/>
            <g id="Grupo_62496" data-name="Grupo 62496">
              <path id="Trazado_132640" data-name="Trazado 132640" d="M256.77,113.3l1.52.84c.08-1.85.94-3,2.15-3.06l-.67-2.23C258.05,109,256.84,110.63,256.77,113.3Z" fill="#ef2a66"/>
              <path id="Trazado_132641" data-name="Trazado 132641" d="M261.93,109.39a3.93,3.93,0,0,0-2.16-.54l.67,2.23a2.79,2.79,0,0,1,1.5.38c2,1.13,3.7,4.3,3.72,7.07s-1.62,4.12-3.66,3-3.7-4.29-3.72-7.07v-.32l-1.52-.84v.33c0,3.91,2.38,8.39,5.25,10s5.19-.32,5.17-4.23a13.17,13.17,0,0,0-1.81-6.32,9.69,9.69,0,0,0-3.44-3.69Z" fill="#29479d"/>
            </g>
          </g>
          <g id="Grupo_62498" data-name="Grupo 62498">
            <path id="Trazado_132642" data-name="Trazado 132642" d="M235.67,67.02l-5.65-3.27V82.52l5.65,3.26Z" fill="#ef2a66"/>
            <path id="Trazado_132643" data-name="Trazado 132643" d="M243.1,76.27,237.45,73V86.8l5.65,3.26Z" fill="#bedffe"/>
            <path id="Trazado_132644" data-name="Trazado 132644" d="M250.53,70.01l-5.65-3.26V91.09l5.65,3.27Z" fill="#2b50a0"/>
          </g>
          <path id="Trazado_132645" data-name="Trazado 132645" d="M228.96,120.51l16.97,9.68v-2.05l-16.97-9.69Z" fill="#bedffe"/>
          <path id="Trazado_132646" data-name="Trazado 132646" d="M228.96,133.24l23.84,13.51V144.7l-23.84-13.52Z" fill="#bedffe"/>
          <path id="Trazado_132647" data-name="Trazado 132647" d="M228.96,126.84l19.6,11.25v-2.06l-19.6-11.24Z" fill="#bedffe"/>
        </g>
      </g>
      <g id="Grupo_62501" data-name="Grupo 62501">
        <path id="Trazado_132648" data-name="Trazado 132648" d="M62.74,415c-.83-2.35-6-6.38-13.89-4.69,0,0,1.62,9.37-6,10.91l-9.12,1.84-4.9,2.21-3.92.2s-.15,12.66,2.53,13.7c2.06.8,8.89,3.07,11.35,0s4.6-5.88,4.6-5.88v-1.64a94.452,94.452,0,0,0,9.06-4.45,37.167,37.167,0,0,0,5.89-4.2h0C62.75,418.32,62.74,415,62.74,415Z" fill="#121214"/>
        <path id="Trazado_132649" data-name="Trazado 132649" d="M100.62,439.88S83,439.41,78.89,440c0,0-10,8.42-26.6,10.23v10.18s6.9,6.3,18.87,1.85v-1.38s13.66.76,20.72-1.69c0,0,13.65-2.3,14.88-11.36C106.76,447.86,106.15,441,100.62,439.88Z" fill="#121214"/>
        <path id="Trazado_132650" data-name="Trazado 132650" d="M115.15,245.77a49.059,49.059,0,0,1-4.78,1.15s-13.82.17-24.69-4.88c-3.78-8-2.11-13.48,1.21-16.94-.85-1.52-1.64-3-2.46-4.7-5-9.93-12.1-23.66-5.09-33,3.53-4.74,9.22-4.27,13.25-.91,4.61,3.84,5.83,4.24,9.93,11.27,2.4,5.77,15.31,36.92,15.31,38.48C117.83,237.93,116.87,245.2,115.15,245.77Z" fill="#ffcda8"/>
        <path id="Trazado_132651" data-name="Trazado 132651" d="M40.26,155.08c.5-1.07-.34-2.55,1.18-3.65s6.4-4.69,5.76-5.72c-2.39-3.89-7.3-8.22-9-14.11-2.78-9.42-1.77-19.88,7-26.86,15.94-12.73,36.33-3.67,41.5,15,1,3.63-1.85,5.6-1.74,8.71,0,.61.82,1.25,1.47,2.6.89,1.86.72,20.86-1.76,22.09-2,1-12.2-.34-11.88.57a26.41,26.41,0,0,0,3.15,10.84c0,.05-1.23,2.54-1.21,2.59,0,1.39-.21-.68-.51.27C68,167.54,48.31,170.32,40.26,155.08Z" fill="#daa782"/>
        <path id="Trazado_132652" data-name="Trazado 132652" d="M84.28,153.21c-1.08.58-5.51.19-8.81-1.08-2.08-.8-3.58-2.6-3.91-2.73-1.37-.56-4.4-4.89.3-11.8,4.59-6.73-23.19,10.5-24.66,8.11-2.39-3.89-7.3-8.22-9-14.11-2.78-9.42-1.77-19.88,7-26.86,15.94-12.73,36.33-3.67,41.5,15,1,3.63-1.84,5.6-1.74,8.71,0,.61.82,1.25,1.47,2.6.89,1.86.36,20.88-2.07,22.2" fill="#ffcda8" fill-rule="evenodd"/>
        <path id="Trazado_132653" data-name="Trazado 132653" d="M38.54,113.34a19.4,19.4,0,0,1,10.2-13.07C59.51,94.69,75.69,94.11,82,99.7c3.25,2.89,4.45,11.41-3.22,15.52l-.22.12a.953.953,0,0,0,.13.34c2.27,6,2.23,8.69,1.31,10-3.55,5.1-3.62,5.83-3.42,13.59l-2,1.63c-.83-6.09-3.52-5.61-6.14-3.58-4.57,3.55-6.32,11.62-13.93,13.2a6.63,6.63,0,0,1-6.75-2.47c-2.65-5.6-7.36-9.06-9.54-16.45C36.37,125.54,36.15,119.06,38.54,113.34Z" fill="#121214"/>
        <path id="Trazado_132654" data-name="Trazado 132654" d="M22.56,274.48c.51,27.25,7.55,64.22,6.4,70.25-9,33.94-6.54,67.16-5,78.25s24.8,6.57,25.79-2.68-2.87-36.45,8.47-73.16c5.76-18.65,11.92-56.48,5.84-102.61C58.78,239.13,24.73,274.11,22.56,274.48Z" fill="#702e00"/>
        <path id="Trazado_132655" data-name="Trazado 132655" d="M30.76,241.39S17.88,271,24.38,285.07c3.47,7.49,27,17,27,17,.24,17.29,4.91,62.19,3.77,68.28a249.811,249.811,0,0,0-2.18,77.72c3.6,11.37,28.69,6.25,29.71-3,0,0-3.18-35.11,1-69.43,1.51-12.39,12.78-77.19,9.81-119.45C92.64,252.78,30.76,241.39,30.76,241.39Z" fill="#7f4813"/>
        <path id="Trazado_132656" data-name="Trazado 132656" d="M74.3,160.88c14.86,15.83,20.53,21.23,20.53,21.23s7.06,17.28,4.38,25.53c-5.57,26.16-4.67,45.93-4,58.73,0,0-5-9.08-11.19-6.93-4.81,1.66-21.41,30.18-45.89,20.22C19.29,272,26,260,25.13,242.78c-.82-34.37-2.27-41.34-3.87-52.15-3.69-24.14.9-37.42,8.48-38.84l14-2.55S43.71,166.16,74.3,160.88Z" fill="#303033"/>
        <path id="Trazado_132657" data-name="Trazado 132657" d="M96.61,184.51c-6.48-12.17-35.92-.89-21.13,21.41,5.22,7.83,9.33,19.55,15.93,28,20-1.25,21.76-16,21.76-16S102.34,195.38,96.61,184.51Z" fill="#121214"/>
      </g>
      <g id="Grupo_62506" data-name="Grupo 62506">
        <path id="Trazado_132658" data-name="Trazado 132658" d="M379.44,258.86h-2.3l-.59.06c-2.61.23-5.17.19-7.73.44a18.76,18.76,0,0,0-10.26,3.86,3.09,3.09,0,0,0-1.71,2.35c-1.31,1-.8,2,1.95,2.3,0,.87,1.2,1.54,3.13,1.41v-.07c3.42-1.43,6.86-.09,10.24.39a11.5,11.5,0,0,0,2,.16c2.93,0,6.17.63,9.06.12a34.519,34.519,0,0,0,5.38-1.78s2.66-1.65,3.44-3.68-1.6-3.56-1.6-3.56l1.88-7.39L380,251.67l-.53,6.88Z" fill="#ffcda8"/>
        <g id="Grupo_62504" data-name="Grupo 62504">
          <path id="Trazado_132659" data-name="Trazado 132659" d="M352.24,167.06s3.82.83,6.39-1.05l.51,4.13s.77,6.81,7.95,5.27,17.52-8.72,17.43-12.73a48.2,48.2,0,0,1,.14-5.87,10.91,10.91,0,0,1-3.8-2.52c-1.72-1.78-4.45-4.09-4.45-4.09l-13.08,2.14L356,154.56Z" fill="#daa782"/>
          <g id="Grupo_62502" data-name="Grupo 62502">
            <path id="Trazado_132660" data-name="Trazado 132660" d="M407.81,421.89s-8.17-1.41-12,0-1.42,6.42.6,9,11.9,8.51,11.9,8.51,4.87,8.74,10.22,10.3,8.14-.28,8.69-3.15c.66-3.43-1.79-15.46-1.79-15.46Z" fill="#121214"/>
            <path id="Trazado_132661" data-name="Trazado 132661" d="M395.41,296.6c7.89,31.66,15.81,48.67,18.52,67.93.26,28.73-2.89,36.48-5.59,56.86,0,10.31,24,16.45,25.28,6.37,2.29-18,12.64-36.09,6.48-69.18,2.34-30.86,5.48-34.72,7.4-69.88C445.23,286.79,395.58,290.89,395.41,296.6Z" fill="#14588b"/>
            <path id="Trazado_132662" data-name="Trazado 132662" d="M432.85,447.19H410.48s-22.86,1.19-24.28,3.82-1.86,8.91,5,12.44,36.87,6.37,40.52,5.39,4.21-5.95,3.93-10.74S432.85,447.19,432.85,447.19Z" fill="#121214"/>
            <path id="Trazado_132663" data-name="Trazado 132663" d="M415.17,277s-20.92,4.82-33.92,4.32c.58,45.32,14.23,77.09,19,97.85,6.38,42.43,7.59,68.71,7.59,68.71s11.57,11.77,27.76,2.95c.08-24.31-1.84-43.83-8.34-72.17-4.05-22.1-4.92-69.36-4.92-69.36s24.66-8.82,25.16-20.6c.49-12.22-3.32-19.49-3.32-19.49Z" fill="#1b75ba"/>
          </g>
          <path id="Trazado_132664" data-name="Trazado 132664" d="M380,160l.54-.61Z" fill="none"/>
          <path id="Trazado_132665" data-name="Trazado 132665" d="M355.92,167.68a4.64,4.64,0,0,0,1.54-2.77,4.64,4.64,0,0,1-1.54,2.77Z" fill="none"/>
          <path id="Trazado_132666" data-name="Trazado 132666" d="M381.06,158.71l.34-.44Z" fill="none"/>
          <path id="Trazado_132667" data-name="Trazado 132667" d="M379.15,160.88Z" fill="none"/>
          <path id="Trazado_132668" data-name="Trazado 132668" d="M381.69,157.85l-.29.42Z" fill="none"/>
          <path id="Trazado_132669" data-name="Trazado 132669" d="M372,165.68a11.2,11.2,0,0,1-3.48.68,11.2,11.2,0,0,0,3.48-.68Z" fill="none"/>
          <path id="Trazado_132670" data-name="Trazado 132670" d="M368.51,166.36a10,10,0,0,1-1.63-.1A10,10,0,0,0,368.51,166.36Z" fill="none"/>
          <path id="Trazado_132671" data-name="Trazado 132671" d="M362.14,162.25l-.43-.46Z" fill="none"/>
          <path id="Trazado_132672" data-name="Trazado 132672" d="M366,144.86a51.729,51.729,0,0,0-.9-8.85c-.77-3.71-9-6.92-9-6.92l-14.36-.77-1.86,11.15c.25,2,.6,3.5.6,3.5,2.07,2.3,1.52,2.61,2.1,6.18.37,2.17,1.58,3.61,2.73,5.78,2,3.6,5.24,11.08,6.78,12.12h.98l.09-.05h.05l.1-.06h0l.11-.08h0l.11-.08h0l.13-.1h0l.13-.11h0l.14-.13h0a6,6,0,0,0,1.05-1.31h0a19.51,19.51,0,0,0,1.37-3.32,16.735,16.735,0,0,0,.67-2.27,7.337,7.337,0,0,0,.19-1.17.411.411,0,0,0,0-.11v-.18S366,145.76,366,144.86Z" fill="#ffcda8"/>
          <path id="Trazado_132673" data-name="Trazado 132673" d="M357.42,157.42v.42h0Z" fill="none"/>
          <path id="Trazado_132674" data-name="Trazado 132674" d="M354,148.32a1.791,1.791,0,0,1,.4,0,1.79,1.79,0,0,0-.4,0Z" fill="none"/>
          <path id="Trazado_132675" data-name="Trazado 132675" d="M357.41,158a7.34,7.34,0,0,1-.19,1.17,4.54,4.54,0,0,0,.19-1.17Z" fill="none"/>
          <path id="Trazado_132676" data-name="Trazado 132676" d="M359.15,159.32Z" fill="none"/>
          <path id="Trazado_132677" data-name="Trazado 132677" d="M369.27,112.29v.1c-15.24-4.54-36.4,9.62-32.11,25.23a16.65,16.65,0,0,0,2.78,1.85,8.081,8.081,0,0,0,1.1.47c.11.25.23.49.34.72s.25.46.38.68l.19.33c.73,1.21,1.59,2.33,2.5,3.74,1.42,2.24,4.92,4.93,6.51,10l2.61,1a58.049,58.049,0,0,1-1.74-6.76h0a2.06,2.06,0,0,1,.84-.87,3.41,3.41,0,0,1,.73-.31,3.843,3.843,0,0,1,.59-.11,1.791,1.791,0,0,1,.4,0,2.58,2.58,0,0,1,.4,0,2.382,2.382,0,0,1,.38.11,2,2,0,0,1,.51.29,2.46,2.46,0,0,1,.85,1.95c.07,1.7.87,4.54.9,6.72v.24l.24.18c.46.42.95.92,1.46,1.45h0l.77.8.43.47c1,1.09,2,2.24,3,3.23,9.09,0,15.42-6.9,17.5-9.53.39-1.06,1.13-4.33,1.13-4.33a164.407,164.407,0,0,0,2.15-22.59C384.3,120.37,376.89,114.57,369.27,112.29Z" fill="#121214"/>
          <g id="Grupo_62503" data-name="Grupo 62503">
            <path id="Trazado_132678" data-name="Trazado 132678" d="M337.14,198.74l1.65-3.3A14.45,14.45,0,0,0,337.14,198.74Z" fill="none"/>
            <path id="Trazado_132679" data-name="Trazado 132679" d="M425.29,195.33h-.05l-11.7-26.44c-6.77-14.86-27.85-12.23-28.88-12.09-.07.06-.84.76-2.13,1.81s-2.92,2.32-4.94,3.7c-1.52,1.05-3.22,2.13-5,3.15A37.08,37.08,0,0,1,360.7,170c-.52.08-1.05.15-1.56.19,0,0-18.32,10.89-22,28.6a14.45,14.45,0,0,1,1.65-3.3l-1.65,3.3s15.7,14.38,22.74,22a91.9,91.9,0,0,1,10.33,18.09A106.471,106.471,0,0,1,374.58,251c3.5,11.94,5.58,26.39,5,43.78,0,0,1.63.31,4.41.58,11.54,1.1,43,1.34,60.91-25.45.75-1.12,1.48-2.29,2.18-3.51C447.09,266.41,433.35,213.55,425.29,195.33Z" fill="#303033"/>
          </g>
        </g>
        <g id="Grupo_62505" data-name="Grupo 62505">
          <path id="Trazado_132680" data-name="Trazado 132680" d="M362.23,203.36v-.61h0c0-1.43-.06-2.84-.13-4.23-.85-6.59-5.84-10.44-13.72-10.36a12.65,12.65,0,0,0-8.61,3.2,14.141,14.141,0,0,0-2.32,5c-.07.31-.14.63-.19,1-.43,3.29-.82,6.94-1.18,10.73l-4.46,29.58c.94.41,1.88.79,2.82,1.12a50.94,50.94,0,0,0,21,2.52,32.25,32.25,0,0,0,3.25-.41c.31-1.69.62-3.43.93-5.18.59-3.48,1.18-7,1.7-10.46.47-3.16.73-6.22.87-9.07.24-5,.11-9.27.08-12.42A1.278,1.278,0,0,1,362.23,203.36Z" fill="#121214"/>
          <path id="Trazado_132681" data-name="Trazado 132681" d="M335.85,239.24l-4.66,60.53v.31H328.3c-2.61.24-5.17.19-7.73.44a18.83,18.83,0,0,0-10.25,3.87,3.05,3.05,0,0,0-1.71,2.34c-1.32,1-.8,2,2,2.3-.05.87,1.19,1.54,3.13,1.41v-.06c3.43-1.44,6.87-.1,10.24.38a12.671,12.671,0,0,0,2,.17c2.92-.05,6.16.63,9.05.12a35,35,0,0,0,5.39-1.78s2.65-1.66,3.44-3.68-1.61-3.57-1.61-3.57L354,255.9l2.21-9.5,1.15-5.41a52.74,52.74,0,0,1-21.51-1.75Z" fill="#ffcda8"/>
        </g>
      </g>
      <g id="Grupo_62508" data-name="Grupo 62508">
        <path id="Trazado_132682" data-name="Trazado 132682" d="M101,103.75l64.6-37.29c1.42-.82,2.57-.17,2.57,1.46v39c0,.92-1,1.94-1.54,1.62l-7.07-4L101,138.3c-1.41.82-2.56.17-2.56-1.46V108.18a5.69,5.69,0,0,1,2.56-4.43Z" fill="#ef2a66"/>
        <g id="Grupo_62507" data-name="Grupo 62507">
          <path id="Trazado_132683" data-name="Trazado 132683" d="M157.4,83.29l-37.53,22.96v-2.12L157.4,81.17Z" fill="#fff" fill-rule="evenodd"/>
          <path id="Trazado_132684" data-name="Trazado 132684" d="M157.4,88.52l-7.6,4.65V91.05l7.6-4.65Z" fill="#fff" fill-rule="evenodd"/>
          <path id="Trazado_132685" data-name="Trazado 132685" d="M157.4,93.75l-16.25,9.93v-2.11l16.25-9.94Z" fill="#fff" fill-rule="evenodd"/>
          <path id="Trazado_132686" data-name="Trazado 132686" d="M145.05,96.08,120.98,110.8v-2.12l24.07-14.72Z" fill="#fff" fill-rule="evenodd"/>
          <path id="Trazado_132687" data-name="Trazado 132687" d="M117.55,112.9l-11.49,7.03v-2.12l11.49-7.03Z" fill="#fff" fill-rule="evenodd"/>
          <path id="Trazado_132688" data-name="Trazado 132688" d="M137.35,106.01l-13.54,8.29v-2.12l13.54-8.29Z" fill="#fff" fill-rule="evenodd"/>
        </g>
      </g>
    </g>
  </g>
</svg>
