<svg xmlns="http://www.w3.org/2000/svg" width="396" height="572.367" viewBox="0 0 396 572.367">
  <g id="Grupo_124819" data-name="Grupo 124819" transform="translate(-180 -517)">
    <rect id="Rectángulo_4912" data-name="Rectángulo 4912" width="396" height="572.367" rx="21" transform="translate(180 517)" fill="#e9e3ff"/>
    <g id="CF8_1.8_tarjeta_1" data-name="CF8_1.8 tarjeta 1" transform="translate(180 543.162)">
      <g id="Grupo_63208" data-name="Grupo 63208" transform="translate(0 247.85)">
        <g id="Grupo_63198" data-name="Grupo 63198" transform="translate(199.297 135.303)">
          <rect id="Rectángulo_7310" data-name="Rectángulo 7310" width="27.898" height="21.572" rx="3.08" fill="#083673"/>
          <rect id="Rectángulo_7311" data-name="Rectángulo 7311" width="27.898" height="5.782" transform="translate(0 6.485)" fill="#2996ef"/>
        </g>
        <rect id="Rectángulo_7312" data-name="Rectángulo 7312" width="60.479" height="36.085" rx="6.08" transform="translate(182.803 152.163)" fill="#083673"/>
        <g id="Grupo_63205" data-name="Grupo 63205" transform="translate(0 29.383)">
          <path id="Trazado_229543" data-name="Trazado 229543" d="M1.3,327.871l134.967-50.114.614-.228.584.307L235.2,329.673l-1.376,2.6-97.149-51.529L2.32,330.634Z" transform="translate(-0.013 -277.53)" fill="#d7af5c" fill-rule="evenodd"/>
          <g id="Grupo_63204" data-name="Grupo 63204" transform="translate(0 1.98)">
            <g id="Grupo_63199" data-name="Grupo 63199" transform="translate(194.466 59.974)">
              <rect id="Rectángulo_7313" data-name="Rectángulo 7313" width="2.495" height="86.368" fill="#083673"/>
              <rect id="Rectángulo_7314" data-name="Rectángulo 7314" width="2.495" height="86.368" transform="translate(34.66)" fill="#083673"/>
            </g>
            <g id="Grupo_63200" data-name="Grupo 63200" transform="translate(180.764 120.424)">
              <rect id="Rectángulo_7315" data-name="Rectángulo 7315" width="64.548" height="36.788" fill="#d7af5c"/>
              <rect id="Rectángulo_7316" data-name="Rectángulo 7316" width="32.274" height="36.788" transform="translate(32.284)" fill="#7f4813"/>
              <path id="Trazado_229544" data-name="Trazado 229544" d="M185.33,403.68h5.049v31.828H185.33Zm7.712,0h5.118v31.828h-5.118Zm7.781,0H206v31.828h-5.158V403.68Zm7.851,0h4.891v31.828h-4.891Zm7.554,0h5.128v31.828h-5.128Zm7.791,0H229.2v31.828h-5.178Zm7.841,0h4.9v31.828h-4.9Zm7.564,0h5.039v31.828h-5.009Z" transform="translate(-182.617 -401.195)" fill="#7f4813" fill-rule="evenodd"/>
              <path id="Trazado_229545" data-name="Trazado 229545" d="M216.54,403.68h5.128v31.828H216.54Zm7.791,0h5.178v31.828h-5.178Zm7.841,0h4.9v31.828h-4.9Zm7.564,0h5.039v31.828h-5.009Z" transform="translate(-182.929 -401.195)" fill="#3f2409" fill-rule="evenodd"/>
            </g>
            <rect id="Rectángulo_7317" data-name="Rectángulo 7317" width="18.107" height="16.701" rx="2.52" transform="translate(151.381 62.37)" fill="#7f4813"/>
            <path id="Trazado_229546" data-name="Trazado 229546" d="M163.339,345.41h4.6a1.049,1.049,0,0,1,1.049,1.049v8.91a1.049,1.049,0,0,1-1.049,1.049h-4.6a1.059,1.059,0,0,1-1.059-1.059v-8.91a1.059,1.059,0,0,1,1.059-1.04Z" transform="translate(-1.623 -280.189)" fill="#3f2409"/>
            <g id="Grupo_63203" data-name="Grupo 63203" transform="translate(60.895 56.836)">
              <g id="Grupo_63201" data-name="Grupo 63201">
                <path id="Trazado_229547" data-name="Trazado 229547" d="M61.63,432.663V336.94h2.643V431.7H85.39V336.94h2.643v96.683H61.63Z" transform="translate(-61.511 -336.94)" fill="#7f4813" fill-rule="evenodd"/>
                <path id="Trazado_229548" data-name="Trazado 229548" d="M73.635,355.314,62.26,336.94h2.891l9.692,15.642,9.692-15.642h2.881L76.041,355.314l-1.2,1.931Z" transform="translate(-61.517 -336.94)" fill="#7f4813" fill-rule="evenodd"/>
                <path id="Trazado_229549" data-name="Trazado 229549" d="M73.628,393.825l-11.88-19.176-.238-.4.238-.4,11.88-19.176,1.208-1.98,1.2,1.98,11.88,19.176.238.4-.238.4-11.88,19.176-1.2,1.98Zm-9.237-19.572,10.445,16.83,10.435-16.83-10.4-16.85Z" transform="translate(-61.51 -337.098)" fill="#7f4813" fill-rule="evenodd"/>
                <path id="Trazado_229550" data-name="Trazado 229550" d="M73.628,432.585l-11.88-19.176-.238-.4.238-.4,11.88-19.176,1.208-1.98,1.2,1.98,11.88,19.176.238.4-.238.4-11.88,19.176-1.168,1.98-1.208-1.98Zm-9.237-19.572,10.445,16.83,10.435-16.83-10.4-16.86Z" transform="translate(-61.51 -337.485)" fill="#7f4813" fill-rule="evenodd"/>
                <rect id="Rectángulo_7318" data-name="Rectángulo 7318" width="23.76" height="1.921" transform="translate(1.445 36.204)" fill="#7f4813"/>
                <rect id="Rectángulo_7319" data-name="Rectángulo 7319" width="23.76" height="1.921" transform="translate(1.445 74.567)" fill="#7f4813"/>
                <rect id="Rectángulo_7320" data-name="Rectángulo 7320" width="23.76" height="1.921" transform="translate(1.445 16.513)" fill="#7f4813"/>
                <rect id="Rectángulo_7321" data-name="Rectángulo 7321" width="23.76" height="1.921" transform="translate(1.445 56.093)" fill="#7f4813"/>
              </g>
              <g id="Grupo_63202" data-name="Grupo 63202" transform="translate(13.325)">
                <path id="Trazado_229551" data-name="Trazado 229551" d="M88.167,336.94v96.683H74.97V431.7H85.523V336.94Z" transform="translate(-74.97 -336.94)" fill="#3f2409" fill-rule="evenodd"/>
                <path id="Trazado_229552" data-name="Trazado 229552" d="M87.543,336.94,76.168,355.314l-1.2,1.931v-4.663l9.692-15.642Z" transform="translate(-74.97 -336.94)" fill="#3f2409" fill-rule="evenodd"/>
                <path id="Trazado_229553" data-name="Trazado 229553" d="M74.97,352.74l1.2,1.94,11.88,19.176.238.4-.238.4-11.88,19.176-1.2,1.94V391.1L85.4,374.253,74.97,357.4Z" transform="translate(-74.97 -337.098)" fill="#3f2409" fill-rule="evenodd"/>
                <path id="Trazado_229554" data-name="Trazado 229554" d="M74.97,391.49l1.2,1.94,11.88,19.176.238.4-.238.4-11.88,19.176-1.2,1.94v-4.663L85.4,413,74.97,396.153Z" transform="translate(-74.97 -337.485)" fill="#3f2409" fill-rule="evenodd"/>
                <rect id="Rectángulo_7322" data-name="Rectángulo 7322" width="11.88" height="1.921" transform="translate(0 36.204)" fill="#3f2409"/>
                <rect id="Rectángulo_7323" data-name="Rectángulo 7323" width="11.88" height="1.921" transform="translate(0 74.567)" fill="#3f2409"/>
                <rect id="Rectángulo_7324" data-name="Rectángulo 7324" width="11.88" height="1.921" transform="translate(0 16.513)" fill="#3f2409"/>
                <rect id="Rectángulo_7325" data-name="Rectángulo 7325" width="11.88" height="1.921" transform="translate(0 56.093)" fill="#3f2409"/>
              </g>
            </g>
            <rect id="Rectángulo_7326" data-name="Rectángulo 7326" width="247.926" height="14.503" transform="translate(0 59.737)" fill="#eccb87"/>
            <rect id="Rectángulo_7327" data-name="Rectángulo 7327" width="12.098" height="153.866" transform="translate(130.106)" fill="#d7af5c"/>
            <path id="Trazado_229555" data-name="Trazado 229555" d="M49.461,431.16h60.39a2.881,2.881,0,0,1,2.881,2.881v9.217a2.891,2.891,0,0,1-2.891,2.891H49.451a2.881,2.881,0,0,1-2.881-2.881v-9.217a2.891,2.891,0,0,1,2.891-2.891Z" transform="translate(-0.466 -281.046)" fill="#eccb87"/>
            <path id="Trazado_229556" data-name="Trazado 229556" d="M124.861,431.16h25.017a2.881,2.881,0,0,1,2.881,2.881v9.217a2.891,2.891,0,0,1-2.891,2.891H124.861a2.891,2.891,0,0,1-2.891-2.891v-9.217a2.891,2.891,0,0,1,2.891-2.891Z" transform="translate(-1.22 -281.046)" fill="#d7af5c"/>
          </g>
        </g>
        <g id="Grupo_63206" data-name="Grupo 63206" transform="translate(171.072 162.617)">
          <path id="Trazado_229557" data-name="Trazado 229557" d="M214.776,412.11l41.976,21.364a108.543,108.543,0,0,1-16.038,34.561H188.838A117.611,117.611,0,0,1,172.8,433.474Z" transform="translate(-172.8 -412.11)" fill="#ef2a66" fill-rule="evenodd"/>
          <path id="Trazado_229558" data-name="Trazado 229558" d="M255.821,437q-1.049,3.5-2.307,6.871H176.136c-.861-2.257-1.653-4.554-2.366-6.871Z" transform="translate(-172.81 -412.359)" fill="#b2204d" fill-rule="evenodd"/>
        </g>
        <path id="Trazado_229559" data-name="Trazado 229559" d="M135.09,471.425c10.811,1.663,24.374-3.3,34.195-3.188s13,2.287,26.146,2.267,28.809-7.138,39.026-4.7c14.929,3.554,25.879,6.633,45.629-.8-16.365,11.048-31.324,6.93-46.233,4.406-10.84-1.822-25.116,3.841-38.264,3.851s-16.236-2.911-26.067-2.97C165.364,470.188,144.455,474.4,135.09,471.425Z" transform="translate(-1.351 -250.021)" fill="#25bdd8" fill-rule="evenodd"/>
        <rect id="Rectángulo_7328" data-name="Rectángulo 7328" width="169.993" height="41.273" transform="translate(0.436 188.248)" fill="#472ea6"/>
        <path id="Trazado_229560" data-name="Trazado 229560" d="M42.688,292.158c3.782-8.979,12.613-7.3,20.909-6.287-12.464-4.524-20-8.8-26.344,1.98-9.633-8.039-15.286-1.455-25.473,7.019,7.465-3.762,15.2-8.326,21.78-1.158l5.326,3.128Z" transform="translate(-0.118 -248.182)" fill="#b4deea" fill-rule="evenodd"/>
        <path id="Trazado_229561" data-name="Trazado 229561" d="M163.719,395.315c1.98-3.564,5.554-2.485,8.91-1.7-4.95-2.416-7.92-4.524-11.019-.307-3.653-3.752-6.287-1.257-10.89,1.812,3.257-1.238,6.673-2.792,9.1.465L161.9,397.1Z" transform="translate(-1.507 -249.28)" fill="#b4deea" fill-rule="evenodd"/>
        <g id="Grupo_63207" data-name="Grupo 63207" transform="translate(187.952)">
          <path id="Trazado_229562" data-name="Trazado 229562" d="M208.868,253.661c.832-3.316,4.386-5.811,8.653-5.811s7.831,2.495,8.662,5.811a10.227,10.227,0,0,1,4.425-.99c4.405,0,8.059,2.673,8.722,6.158,3.386.822,5.871,3.416,5.871,6.475h0c0,3.712-3.683,6.752-8.177,6.752h-39c-4.5,0-8.177-3.039-8.177-6.752h0c0-3.059,2.485-5.653,5.861-6.475.663-3.485,4.316-6.158,8.732-6.158a10.256,10.256,0,0,1,4.425.99Z" transform="translate(-189.85 -247.85)" fill="#fff" fill-rule="evenodd"/>
          <path id="Trazado_229563" data-name="Trazado 229563" d="M217.8,247.85c4.267,0,7.831,2.495,8.663,5.811a10.227,10.227,0,0,1,4.425-.99c4.405,0,8.059,2.673,8.722,6.158,3.386.822,5.871,3.416,5.871,6.475h0c0,3.712-3.683,6.752-8.177,6.752H217.8Z" transform="translate(-190.129 -247.85)" fill="#e8fbff" fill-rule="evenodd"/>
        </g>
      </g>
      <path id="Trazado_229564" data-name="Trazado 229564" d="M14.484,459.853a14.484,14.484,0,0,0,14.088-11.187,14.464,14.464,0,0,0,28.165,0,14.474,14.474,0,0,0,28.175,0,14.474,14.474,0,0,0,28.175,0,14.474,14.474,0,0,0,28.175,0,14.464,14.464,0,0,0,28.165,0A14.484,14.484,0,0,0,198,445.31a14.484,14.484,0,0,0,28.571,3.356,14.464,14.464,0,0,0,28.165,0,14.474,14.474,0,0,0,28.175,0,14.474,14.474,0,0,0,28.175,0,14.474,14.474,0,0,0,28.175,0,14.464,14.464,0,0,0,28.166,0A14.484,14.484,0,0,0,396,445.31V547.963H0V445.31a14.494,14.494,0,0,0,14.484,14.543Z" transform="translate(0 -1.975)" fill="#472ea6"/>
    </g>
  </g>
</svg>
