<svg xmlns="http://www.w3.org/2000/svg" width="396" height="572.512" viewBox="0 0 396 572.512">
  <g id="Grupo_124820" data-name="Grupo 124820" transform="translate(-602 -517)">
    <rect id="Rectángulo_4912" data-name="Rectángulo 4912" width="396" height="572.367" rx="21" transform="translate(602 517)" fill="#faede0"/>
    <g id="CF8_1.8_tarjeta_2" data-name="CF8_1.8 tarjeta 2" transform="translate(602 542.638)">
      <g id="Layer_1" data-name="Layer 1" transform="translate(0 336.487)">
        <g id="Grupo_63240" data-name="Grupo 63240">
          <path id="Trazado_229565" data-name="Trazado 229565" d="M381.516,459.853A14.484,14.484,0,0,1,367.428,448.7a14.464,14.464,0,0,1-28.165,0,14.474,14.474,0,0,1-28.175,0,14.474,14.474,0,0,1-28.175,0,14.474,14.474,0,0,1-28.175,0,14.464,14.464,0,0,1-28.165,0A14.484,14.484,0,0,1,198,445.31a14.484,14.484,0,0,1-28.571,3.356,14.464,14.464,0,0,1-28.165,0,14.474,14.474,0,0,1-28.175,0,14.474,14.474,0,0,1-28.175,0,14.474,14.474,0,0,1-28.175,0,14.464,14.464,0,0,1-28.165,0A14.484,14.484,0,0,1,0,445.31V547.963H396V445.31a14.494,14.494,0,0,1-14.484,14.543Z" transform="translate(0 -337.575)" fill="#472ea6"/>
          <g id="Grupo_63239" data-name="Grupo 63239" transform="translate(99.327)">
            <g id="Grupo_63209" data-name="Grupo 63209" transform="translate(80.636 3.993)">
              <path id="Trazado_229566" data-name="Trazado 229566" d="M196.551,360.122a3.722,3.722,0,0,1-3.722,3.722H185.5a3.722,3.722,0,0,1-3.722-3.722h0A3.722,3.722,0,0,1,185.5,356.4h7.326a3.722,3.722,0,0,1,3.722,3.722Z" transform="translate(-181.78 -340.679)" fill="#c3c4ca"/>
              <path id="Trazado_229567" data-name="Trazado 229567" d="M225.271,344.242a3.732,3.732,0,0,1-3.722,3.722h-7.326a3.722,3.722,0,0,1-3.722-3.722h0a3.722,3.722,0,0,1,3.722-3.722h7.326a3.722,3.722,0,0,1,3.722,3.722Z" transform="translate(-182.067 -340.52)" fill="#c3c4ca"/>
              <path id="Trazado_229568" data-name="Trazado 229568" d="M211.091,351.862a3.722,3.722,0,0,1-3.722,3.722h-7.326a3.722,3.722,0,0,1-3.722-3.722h0a3.722,3.722,0,0,1,3.722-3.722h7.326A3.722,3.722,0,0,1,211.091,351.862Z" transform="translate(-181.925 -340.596)" fill="#c3c4ca"/>
            </g>
            <path id="Trazado_229569" data-name="Trazado 229569" d="M206.233,367.863c-3.346,2.97-5.455,3.019-8.455,3.019H173.524c-3.96,0-4.544-2.564-2.336-3.841,10.464-5.99,37.986-20.038,53.905-29.324,1.98-1.148,3.158-1.614,4.465-.871,1.732.99,2.633,1.5,4.326,2.5,1.237.733,1.406,1.98.406,2.841C219.123,355.26,217.9,357.518,206.233,367.863Z" transform="translate(-101.026 -336.487)" fill="#9182ca"/>
            <path id="Trazado_229570" data-name="Trazado 229570" d="M286.173,364.83l-168.181.079c-6.306,0-12.385,2.406-12.385,8.207a5.168,5.168,0,0,0-5.277,4.9c0,4.316,3.8,12.919,38.184,12.919,5.138.307,10.89.455,17.414.455,70.627,0,84.576-7.069,111.316-12.622C280.421,376.037,290.162,364.83,286.173,364.83Z" transform="translate(-100.33 -336.77)" fill="#bbabf5"/>
            <path id="Trazado_229571" data-name="Trazado 229571" d="M295.8,338.93H280.881L255.2,364.521h27.453Z" transform="translate(-101.879 -336.511)" fill="#9182ca"/>
            <path id="Trazado_229572" data-name="Trazado 229572" d="M285.747,368.24H107.725a6.683,6.683,0,0,0-2.119,5.009,5.158,5.158,0,0,0-5.277,4.891v.762H267.244C275.807,377.12,282.916,371.764,285.747,368.24Z" transform="translate(-100.33 -336.805)" fill="#fda551"/>
            <path id="Trazado_229573" data-name="Trazado 229573" d="M291.943,381.337H278.954L256.6,368.19h23.9Z" transform="translate(-101.893 -336.804)" fill="#9182ca"/>
            <g id="Grupo_63230" data-name="Grupo 63230" transform="translate(33.205 33.831)">
              <g id="Grupo_63211" data-name="Grupo 63211">
                <path id="Trazado_229574" data-name="Trazado 229574" d="M140.265,373.858a3.2,3.2,0,1,1-3.2-3.2,3.2,3.2,0,0,1,3.2,3.2Z" transform="translate(-133.87 -370.66)" fill="#6e6d72"/>
                <path id="Trazado_229575" data-name="Trazado 229575" d="M139.3,373.868a2.218,2.218,0,1,1-2.218-2.218,2.218,2.218,0,0,1,2.218,2.218Z" transform="translate(-133.88 -370.67)" fill="#8acef0"/>
                <g id="Grupo_63210" data-name="Grupo 63210" transform="translate(2.109 1.901)">
                  <line id="Línea_141" data-name="Línea 141" y1="1.633" x2="1.97" fill="none" stroke="#fff" stroke-linecap="round" stroke-linejoin="round" stroke-width="0.21"/>
                  <line id="Línea_142" data-name="Línea 142" y1="1.168" x2="1.386" transform="translate(0.208 1.356)" fill="none" stroke="#fff" stroke-linecap="round" stroke-linejoin="round" stroke-width="0.21"/>
                </g>
              </g>
              <g id="Grupo_63213" data-name="Grupo 63213" transform="translate(12.959)">
                <path id="Trazado_229576" data-name="Trazado 229576" d="M153.375,373.858a3.208,3.208,0,1,1-3.2-3.2A3.208,3.208,0,0,1,153.375,373.858Z" transform="translate(-146.96 -370.66)" fill="#6e6d72"/>
                <path id="Trazado_229577" data-name="Trazado 229577" d="M152.4,373.868a2.208,2.208,0,1,1-.643-1.567,2.218,2.218,0,0,1,.643,1.567Z" transform="translate(-146.97 -370.67)" fill="#8acef0"/>
                <g id="Grupo_63212" data-name="Grupo 63212" transform="translate(2.119 1.901)">
                  <line id="Línea_143" data-name="Línea 143" y1="1.633" x2="1.98" fill="none" stroke="#fff" stroke-linecap="round" stroke-linejoin="round" stroke-width="0.21"/>
                  <line id="Línea_144" data-name="Línea 144" y1="1.168" x2="1.376" transform="translate(0.218 1.356)" fill="none" stroke="#fff" stroke-linecap="round" stroke-linejoin="round" stroke-width="0.21"/>
                </g>
              </g>
              <g id="Grupo_63215" data-name="Grupo 63215" transform="translate(25.948)">
                <path id="Trazado_229578" data-name="Trazado 229578" d="M166.475,373.858a3.2,3.2,0,1,1-3.2-3.2,3.2,3.2,0,0,1,3.2,3.2Z" transform="translate(-160.08 -370.66)" fill="#6e6d72"/>
                <path id="Trazado_229579" data-name="Trazado 229579" d="M165.505,373.868a2.218,2.218,0,1,1-2.218-2.218,2.218,2.218,0,0,1,2.218,2.218Z" transform="translate(-160.09 -370.67)" fill="#8acef0"/>
                <g id="Grupo_63214" data-name="Grupo 63214" transform="translate(2.099 1.901)">
                  <line id="Línea_145" data-name="Línea 145" y1="1.633" x2="1.98" fill="none" stroke="#fff" stroke-linecap="round" stroke-linejoin="round" stroke-width="0.21"/>
                  <line id="Línea_146" data-name="Línea 146" y1="1.168" x2="1.376" transform="translate(0.218 1.356)" fill="none" stroke="#fff" stroke-linecap="round" stroke-linejoin="round" stroke-width="0.21"/>
                </g>
              </g>
              <g id="Grupo_63217" data-name="Grupo 63217" transform="translate(38.917)">
                <path id="Trazado_229580" data-name="Trazado 229580" d="M179.575,373.858a3.2,3.2,0,1,1-3.2-3.2,3.2,3.2,0,0,1,3.2,3.2Z" transform="translate(-173.18 -370.66)" fill="#6e6d72"/>
                <path id="Trazado_229581" data-name="Trazado 229581" d="M178.605,373.868a2.218,2.218,0,1,1-2.218-2.218,2.218,2.218,0,0,1,2.218,2.218Z" transform="translate(-173.19 -370.67)" fill="#8acef0"/>
                <g id="Grupo_63216" data-name="Grupo 63216" transform="translate(2.109 1.901)">
                  <line id="Línea_147" data-name="Línea 147" y1="1.633" x2="1.97" fill="none" stroke="#fff" stroke-linecap="round" stroke-linejoin="round" stroke-width="0.21"/>
                  <line id="Línea_148" data-name="Línea 148" y1="1.168" x2="1.386" transform="translate(0.208 1.356)" fill="none" stroke="#fff" stroke-linecap="round" stroke-linejoin="round" stroke-width="0.21"/>
                </g>
              </g>
              <g id="Grupo_63219" data-name="Grupo 63219" transform="translate(51.886)">
                <path id="Trazado_229582" data-name="Trazado 229582" d="M192.675,373.858a3.2,3.2,0,1,1-3.188-3.2,3.2,3.2,0,0,1,3.188,3.2Z" transform="translate(-186.28 -370.66)" fill="#6e6d72"/>
                <path id="Trazado_229583" data-name="Trazado 229583" d="M191.705,373.868a2.208,2.208,0,1,1-.643-1.568,2.218,2.218,0,0,1,.643,1.568Z" transform="translate(-186.29 -370.67)" fill="#8acef0"/>
                <g id="Grupo_63218" data-name="Grupo 63218" transform="translate(2.099 1.901)">
                  <line id="Línea_149" data-name="Línea 149" y1="1.633" x2="1.98" fill="none" stroke="#fff" stroke-linecap="round" stroke-linejoin="round" stroke-width="0.21"/>
                  <line id="Línea_150" data-name="Línea 150" y1="1.168" x2="1.386" transform="translate(0.218 1.356)" fill="none" stroke="#fff" stroke-linecap="round" stroke-linejoin="round" stroke-width="0.21"/>
                </g>
              </g>
              <g id="Grupo_63221" data-name="Grupo 63221" transform="translate(64.845)">
                <path id="Trazado_229584" data-name="Trazado 229584" d="M205.785,373.858a3.208,3.208,0,1,1-3.2-3.2A3.208,3.208,0,0,1,205.785,373.858Z" transform="translate(-199.37 -370.66)" fill="#6e6d72"/>
                <path id="Trazado_229585" data-name="Trazado 229585" d="M204.805,373.868a2.208,2.208,0,1,1-.643-1.567,2.218,2.218,0,0,1,.643,1.567Z" transform="translate(-199.38 -370.67)" fill="#8acef0"/>
                <g id="Grupo_63220" data-name="Grupo 63220" transform="translate(2.119 1.901)">
                  <line id="Línea_151" data-name="Línea 151" y1="1.633" x2="1.98" fill="none" stroke="#fff" stroke-linecap="round" stroke-linejoin="round" stroke-width="0.21"/>
                  <line id="Línea_152" data-name="Línea 152" y1="1.168" x2="1.376" transform="translate(0.218 1.356)" fill="none" stroke="#fff" stroke-linecap="round" stroke-linejoin="round" stroke-width="0.21"/>
                </g>
              </g>
              <g id="Grupo_63223" data-name="Grupo 63223" transform="translate(77.883)">
                <path id="Trazado_229586" data-name="Trazado 229586" d="M218.935,373.858a3.2,3.2,0,1,1-3.2-3.2,3.2,3.2,0,0,1,3.2,3.2Z" transform="translate(-212.54 -370.66)" fill="#6e6d72"/>
                <path id="Trazado_229587" data-name="Trazado 229587" d="M217.955,373.868a2.218,2.218,0,1,1-2.218-2.218,2.218,2.218,0,0,1,2.218,2.218Z" transform="translate(-212.55 -370.67)" fill="#8acef0"/>
                <g id="Grupo_63222" data-name="Grupo 63222" transform="translate(2.049 1.901)">
                  <line id="Línea_153" data-name="Línea 153" y1="1.633" x2="1.98" fill="none" stroke="#fff" stroke-linecap="round" stroke-linejoin="round" stroke-width="0.21"/>
                  <line id="Línea_154" data-name="Línea 154" y1="1.168" x2="1.376" transform="translate(0.218 1.356)" fill="none" stroke="#fff" stroke-linecap="round" stroke-linejoin="round" stroke-width="0.21"/>
                </g>
              </g>
              <g id="Grupo_63225" data-name="Grupo 63225" transform="translate(90.803)">
                <path id="Trazado_229588" data-name="Trazado 229588" d="M231.985,373.858a3.2,3.2,0,1,1-3.2-3.2,3.2,3.2,0,0,1,3.2,3.2Z" transform="translate(-225.59 -370.66)" fill="#6e6d72"/>
                <path id="Trazado_229589" data-name="Trazado 229589" d="M231.015,373.868a2.218,2.218,0,1,1-2.218-2.218,2.218,2.218,0,0,1,2.218,2.218Z" transform="translate(-225.6 -370.67)" fill="#8acef0"/>
                <g id="Grupo_63224" data-name="Grupo 63224" transform="translate(2.099 1.901)">
                  <line id="Línea_155" data-name="Línea 155" y1="1.633" x2="1.98" fill="none" stroke="#fff" stroke-linecap="round" stroke-linejoin="round" stroke-width="0.21"/>
                  <line id="Línea_156" data-name="Línea 156" y1="1.168" x2="1.386" transform="translate(0.218 1.356)" fill="none" stroke="#fff" stroke-linecap="round" stroke-linejoin="round" stroke-width="0.21"/>
                </g>
              </g>
              <g id="Grupo_63227" data-name="Grupo 63227" transform="translate(103.772)">
                <path id="Trazado_229590" data-name="Trazado 229590" d="M245.085,373.858a3.2,3.2,0,1,1-3.2-3.2,3.2,3.2,0,0,1,3.2,3.2Z" transform="translate(-238.69 -370.66)" fill="#6e6d72"/>
                <path id="Trazado_229591" data-name="Trazado 229591" d="M244.115,373.868a2.218,2.218,0,1,1-2.218-2.218,2.218,2.218,0,0,1,2.218,2.218Z" transform="translate(-238.7 -370.67)" fill="#8acef0"/>
                <g id="Grupo_63226" data-name="Grupo 63226" transform="translate(2.109 1.901)">
                  <line id="Línea_157" data-name="Línea 157" y1="1.633" x2="1.97" fill="none" stroke="#fff" stroke-linecap="round" stroke-linejoin="round" stroke-width="0.21"/>
                  <line id="Línea_158" data-name="Línea 158" y1="1.168" x2="1.386" transform="translate(0.208 1.356)" fill="none" stroke="#fff" stroke-linecap="round" stroke-linejoin="round" stroke-width="0.21"/>
                </g>
              </g>
              <g id="Grupo_63229" data-name="Grupo 63229" transform="translate(116.741)">
                <path id="Trazado_229592" data-name="Trazado 229592" d="M258.185,373.858a3.2,3.2,0,1,1-3.188-3.2,3.2,3.2,0,0,1,3.188,3.2Z" transform="translate(-251.79 -370.66)" fill="#6e6d72"/>
                <path id="Trazado_229593" data-name="Trazado 229593" d="M257.225,373.868a2.228,2.228,0,1,1-2.218-2.218A2.228,2.228,0,0,1,257.225,373.868Z" transform="translate(-251.8 -370.67)" fill="#8acef0"/>
                <g id="Grupo_63228" data-name="Grupo 63228" transform="translate(2.109 1.901)">
                  <line id="Línea_159" data-name="Línea 159" y1="1.633" x2="1.97" fill="none" stroke="#fff" stroke-linecap="round" stroke-linejoin="round" stroke-width="0.21"/>
                  <line id="Línea_160" data-name="Línea 160" y1="1.168" x2="1.386" transform="translate(0.208 1.356)" fill="none" stroke="#fff" stroke-linecap="round" stroke-linejoin="round" stroke-width="0.21"/>
                </g>
              </g>
            </g>
            <g id="Grupo_63233" data-name="Grupo 63233" transform="translate(5.356 32.049)">
              <path id="Trazado_229594" data-name="Trazado 229594" d="M121.026,368.86h-13.91a6.564,6.564,0,0,0-1.376,3.594,1.98,1.98,0,0,0,1.069.317h14.216a1.98,1.98,0,0,0,0-3.911Z" transform="translate(-105.74 -368.86)" fill="#8acef0"/>
              <g id="Grupo_63231" data-name="Grupo 63231" transform="translate(2.01 0.703)">
                <line id="Línea_161" data-name="Línea 161" y1="1.633" x2="1.98" fill="none" stroke="#fff" stroke-linecap="round" stroke-linejoin="round" stroke-width="0.21"/>
                <line id="Línea_162" data-name="Línea 162" y1="1.158" x2="1.376" transform="translate(0.218 1.366)" fill="none" stroke="#fff" stroke-linecap="round" stroke-linejoin="round" stroke-width="0.21"/>
              </g>
              <g id="Grupo_63232" data-name="Grupo 63232" transform="translate(9.811 0.703)">
                <line id="Línea_163" data-name="Línea 163" y1="1.633" x2="1.97" fill="none" stroke="#fff" stroke-linecap="round" stroke-linejoin="round" stroke-width="0.21"/>
                <line id="Línea_164" data-name="Línea 164" y1="1.158" x2="1.376" transform="translate(0.218 1.366)" fill="none" stroke="#fff" stroke-linecap="round" stroke-linejoin="round" stroke-width="0.21"/>
              </g>
            </g>
            <path id="Trazado_229595" data-name="Trazado 229595" d="M286.178,364.83h-12.5c-18.1,8.811-49.975,16.355-86.674,19.533-35.086,3.029-66.518,1.376-86.13-3.633,1.861,4.455,9.524,10.207,37.62,10.207,5.138.307,10.89.445,17.414.445,70.627,0,84.576-7.059,111.316-12.613C280.426,376.037,290.168,364.83,286.178,364.83Z" transform="translate(-100.335 -336.77)" fill="#bbabf5"/>
            <g id="Grupo_63238" data-name="Grupo 63238" transform="translate(68.886 44.86)">
              <g id="Grupo_63237" data-name="Grupo 63237" transform="translate(8.809 10.742)">
                <g id="Grupo_63234" data-name="Grupo 63234" transform="translate(26.562 14.741)">
                  <path id="Trazado_229596" data-name="Trazado 229596" d="M220.411,411.262a3.722,3.722,0,0,1-3.722,3.722h-7.326a3.722,3.722,0,0,1-3.722-3.722h0a3.722,3.722,0,0,1,3.722-3.722h7.326a3.722,3.722,0,0,1,3.722,3.722Z" transform="translate(-205.64 -407.54)" fill="#9182ca"/>
                  <path id="Trazado_229597" data-name="Trazado 229597" d="M211.143,411.191a2.366,2.366,0,1,1-2.307-2.851,2.633,2.633,0,0,1,2.307,2.851Z" transform="translate(-205.648 -407.548)" fill="#727276"/>
                  <path id="Trazado_229598" data-name="Trazado 229598" d="M209.11,407.54a10.326,10.326,0,0,1,7.92,7.415,3.712,3.712,0,0,0-.3-7.415Z" transform="translate(-205.675 -407.54)" fill="#9182ca"/>
                </g>
                <g id="Grupo_63235" data-name="Grupo 63235" transform="translate(13.771 7.366)">
                  <path id="Trazado_229599" data-name="Trazado 229599" d="M207.491,403.812a3.722,3.722,0,0,1-3.722,3.722h-7.326a3.722,3.722,0,0,1-3.722-3.722h0a3.722,3.722,0,0,1,3.722-3.722h7.326A3.722,3.722,0,0,1,207.491,403.812Z" transform="translate(-192.72 -400.09)" fill="#9182ca"/>
                  <path id="Trazado_229600" data-name="Trazado 229600" d="M198.213,403.741a2.356,2.356,0,1,1-2.307-2.851,2.624,2.624,0,0,1,2.307,2.851Z" transform="translate(-192.728 -400.098)" fill="#727276"/>
                  <path id="Trazado_229601" data-name="Trazado 229601" d="M196.18,400.09a10.336,10.336,0,0,1,7.92,7.415,3.712,3.712,0,0,0-.3-7.415Z" transform="translate(-192.755 -400.09)" fill="#9182ca"/>
                </g>
                <g id="Grupo_63236" data-name="Grupo 63236">
                  <path id="Trazado_229602" data-name="Trazado 229602" d="M193.581,396.362a3.722,3.722,0,0,1-3.722,3.722h-7.326a3.722,3.722,0,0,1-3.722-3.722h0a3.713,3.713,0,0,1,3.722-3.712h7.356a3.722,3.722,0,0,1,3.722,3.712Z" transform="translate(-178.81 -392.65)" fill="#9182ca"/>
                  <path id="Trazado_229603" data-name="Trazado 229603" d="M184.313,396.3A2.366,2.366,0,1,1,182,393.45a2.624,2.624,0,0,1,2.317,2.851Z" transform="translate(-178.818 -392.658)" fill="#727276"/>
                  <path id="Trazado_229604" data-name="Trazado 229604" d="M182.27,392.65a10.316,10.316,0,0,1,7.92,7.405,3.712,3.712,0,0,0-.3-7.405Z" transform="translate(-178.845 -392.65)" fill="#9182ca"/>
                </g>
              </g>
              <path id="Trazado_229605" data-name="Trazado 229605" d="M206.233,384.839c-3.346-2.97-5.455-3.039-8.455-3.039H173.524c-3.96,0-4.544,2.574-2.336,3.851,10.464,5.989,37.986,20.038,53.905,29.324,1.98,1.148,3.158,1.6,4.465.871,1.732-.99,2.633-1.5,4.326-2.515a1.643,1.643,0,0,0,.406-2.841C219.123,397.432,217.9,395.175,206.233,384.839Z" transform="translate(-169.912 -381.8)" fill="#bbabf5"/>
            </g>
          </g>
        </g>
      </g>
    </g>
  </g>
</svg>
