<svg xmlns="http://www.w3.org/2000/svg" width="100" height="100" viewBox="0 0 100 100">
  <g id="Grupo_124792" data-name="Grupo 124792" transform="translate(-745 -2985)">
    <g id="CF8_tipo_3_copia_2" data-name="CF8_tipo 3 copia 2" transform="translate(745 2985)">
      <circle id="Elipse_4217" data-name="Elipse 4217" cx="50" cy="50" r="50" fill="#fcd4e0"/>
      <g id="Grupo_61485" data-name="Grupo 61485">
        <circle id="Elipse_4218" data-name="Elipse 4218" cx="39.37" cy="39.37" r="39.37" transform="translate(10.7 10.63)" fill="#aeeea4"/>
        <path id="Trazado_128773" data-name="Trazado 128773" d="M46.85,10.63H53c.14.2.37.14.56.16a39.4,39.4,0,0,1,8.32,1.7A38.76,38.76,0,0,1,79.33,23.87q-1.77,1.83-3.53,3.68a2,2,0,0,1-1.42.63,1.88,1.88,0,0,0-1.49-.05,3,3,0,0,0-2.16,1.78c-.68,1.74-2,3.24-1.9,5.26a3.45,3.45,0,0,0,5.56,2.55A4.1,4.1,0,0,0,75.9,36a3.23,3.23,0,0,1,3.18-1.38c2.39.15,4.78.33,7.17.26A35.531,35.531,0,0,1,89,45.83l-6.32-.6c-3.3-.3-6.6-.62-9.91-.88A7.14,7.14,0,0,0,67.44,46l-.15.17h0a3.054,3.054,0,0,0-1.34,1.32,7.37,7.37,0,0,0-.66,7.94c12.2,2.43,9.71,13.31,10.43,12.8.23.65.44,1.31.69,2,.83,2.14,1.48,4.35,2.42,6.45a1.67,1.67,0,0,1-.62.72c-.42-.19-.66.19-.94.35A39.8,39.8,0,0,1,57.88,83a36.544,36.544,0,0,1-4.66-.28,37.44,37.44,0,0,1-8.8-2,42.181,42.181,0,0,1-7-3.23.76.76,0,0,1,0-.15,5.47,5.47,0,0,0,.89-2.09c.9-3,1.78-5.91,2.67-8.87a3.4,3.4,0,0,1,1.12-1.7c2-1.6,3.88-3.23,5.8-4.87a3.37,3.37,0,0,0,1.36-2.23c.54-.47-10.26-4.58-11-12.34A6.5,6.5,0,0,0,35.5,44c-1.13-.27-2.3,0-3.42-.27-.84-.72-.92-1.24-.33-2.12A3.56,3.56,0,0,1,34,40a19.84,19.84,0,0,1,2.05-.3,7.94,7.94,0,0,0,5.69-2.82c.64-.79,1.19-1.66,1.78-2.5,1.27-1.86,2.56-3.71,3.81-5.58A3.81,3.81,0,0,0,47,23.73c-.81-.92-1.61-1.86-2.4-2.8a2.58,2.58,0,0,0-4.26.11l-1.66,2.12c-.2.25-.4.48-.76.4-2.62-.62-4.23-.81-5-3.74a15.749,15.749,0,0,0,.59-2.62l1.29-3.47A35.69,35.69,0,0,1,43,11.24,37.637,37.637,0,0,0,46.85,10.63ZM59.77,28c1.93-1.56,3.79-3.22,5.58-4.93a1.2,1.2,0,0,0-.47-2.05A18.221,18.221,0,0,0,63,20.4c-2.27-.71-4.48-1.62-6.78-2.25-.7-.36-1.43-.68-2.11,0s-.33,1.28-.09,1.94c.95,2.61,1.9,5.23,2.87,7.84.5,1.35,1.4,1.54,2.46.57a5.86,5.86,0,0,0,.42-.5Z" fill="#7dc2ed"/>
        <path id="Trazado_128774" data-name="Trazado 128774" d="M78.21,77.35a39,39,0,0,1-12.6,8.75,38,38,0,0,1-17.44,3.21,39.45,39.45,0,0,1-37.26-34,9.42,9.42,0,0,0-.35-2.24v-6c.15-.1.14-.26.15-.41a33.4,33.4,0,0,1,.63-4.47,36.36,36.36,0,0,1,3.8-10.54c1.25,1.93,2.41,3.91,3.55,5.9A13.79,13.79,0,0,0,18.38,40a40.47,40.47,0,0,0,.42,10.6A38.55,38.55,0,0,0,23.86,64a34.52,34.52,0,0,0,6.82,8.31l.18,3.12a3.69,3.69,0,0,0,2.75,3.37,3.84,3.84,0,0,0,3.86-1.26,42.18,42.18,0,0,0,7,3.23,37.44,37.44,0,0,0,8.8,2,36.541,36.541,0,0,0,4.66.28A39.8,39.8,0,0,0,77.27,77.7C77.55,77.54,77.79,77.16,78.21,77.35Z" fill="#64acdb"/>
        <path id="Trazado_128775" data-name="Trazado 128775" d="M34.15,15.32c-1.06,3.72,1.13,7.62,3.75,8.24.36.08.56-.15.76-.4L40.32,21a2.58,2.58,0,0,1,4.26-.11c.79.94,1.59,1.88,2.4,2.8a3.81,3.81,0,0,1,.36,5.06c-1.25,1.87-2.54,3.72-3.81,5.58-.59.84-1.14,1.71-1.78,2.5a7.94,7.94,0,0,1-5.69,2.82A19.84,19.84,0,0,0,34,40a3.56,3.56,0,0,0-2.26,1.6c-.59.88-.51,1.4.33,2.12a.59.59,0,0,1-.51.11c-1.42-.28-2.86-.07-4.29-.26a3.94,3.94,0,0,1-3.09-1.85c-1.21-2-2.39-3.94-3.57-5.92a4.7,4.7,0,0,1-.83-2.8,8.62,8.62,0,0,1,.66-2.36,15.71,15.71,0,0,1,1.69-3.85c0-3.66,5.11-4.82,5.51-4.55,1.11.78,1.47-1.49,2.56-2.29C33.08,17.81,32.54,18.6,34.15,15.32Z" fill="#aeeea4"/>
        <path id="Trazado_128776" data-name="Trazado 128776" d="M89,45.83a27.14,27.14,0,0,1,.22,6,39.12,39.12,0,0,1-2.11,11,37.85,37.85,0,0,1-6.44,11.62c-.36-1-.68-2.09-1.08-3.11-.65-1.64-1.1-3.35-1.89-4.93a16.55,16.55,0,0,0,3.34-4.74,6.1,6.1,0,0,0,.31-4.42,5.05,5.05,0,0,0-8.15-2.17c-.28.24-.48.4-.82.07A5.11,5.11,0,0,0,67.62,54a7.67,7.67,0,0,1-1.1-5.43,24.772,24.772,0,0,1,.76-2.4h0l.15-.17a7.14,7.14,0,0,1,5.35-1.62c3.31.26,6.61.58,9.91.88Z" fill="#aeeea4"/>
        <path id="Trazado_128777" data-name="Trazado 128777" d="M49.32,57.61A3.37,3.37,0,0,1,48,59.84c-1.92,1.64-3.85,3.27-5.8,4.87a3.4,3.4,0,0,0-1.2,1.7c-.89,3-1.77,5.91-2.67,8.87a5.47,5.47,0,0,1-.89,2.09,10.21,10.21,0,0,1-3.14-2,3,3,0,0,1-1-2.1q-.33-5.51-.62-11a3.57,3.57,0,0,0-1-2.41,29.74,29.74,0,0,0-3.25-2.56c-1.15-.9-1.08-2,.29-2.49,2.68-1,5.39-2,8.08-2.92,2.65-4.17-.35-9,6.93-1.83a13.53,13.53,0,0,0,2.45,1.37C48.13,52.49,50.77,52.31,49.32,57.61Z" fill="#aeeea4"/>
        <path id="Trazado_128778" data-name="Trazado 128778" d="M36.28,49.33c1.67-.72.23,1.7.53,2.52-2.69,1-5.4,1.9-8.08,2.92-1.37.52-1.44,1.59-.29,2.49a29.74,29.74,0,0,1,3.25,2.56,3.57,3.57,0,0,1,1,2.41q.28,5.51.62,11a3,3,0,0,0,1,2.1,10.21,10.21,0,0,0,3.14,2,.76.76,0,0,0,0,.15,3.84,3.84,0,0,1-3.86,1.26,3.69,3.69,0,0,1-2.75-3.37l-.18-3.12c-.15-3.3-.3-6.59-.47-9.88a1.56,1.56,0,0,0-.73-1.2c-1.52-1.13-3-2.28-4.53-3.42a2.54,2.54,0,0,1,.57-4.58c.54-.23,1.11-.41,1.66-.61Z" fill="#8ce0a4"/>
        <path id="Trazado_128779" data-name="Trazado 128779" d="M79.33,23.87a37.31,37.31,0,0,1,6.92,11c-2.39.07-4.78-.11-7.17-.26A3.23,3.23,0,0,0,75.9,36a4.1,4.1,0,0,1-1.51,1.69,3.3,3.3,0,0,1-2-1.66,3.73,3.73,0,0,1,0-3.58,46.074,46.074,0,0,0,1.95-4.3,2,2,0,0,0,1.42-.63Q77.56,25.71,79.33,23.87Z" fill="#aeeea4"/>
        <path id="Trazado_128780" data-name="Trazado 128780" d="M19.78,24.72c2.5-2.87,3.3-3.36,6.64-6.28-.83,1.16-5.49,10.86-6,12.17A8.62,8.62,0,0,0,19.78,33a4.7,4.7,0,0,0,.84,2.82c1.18,2,2.36,4,3.57,5.92a3.94,3.94,0,0,0,3.09,1.85c1.43.19,2.87,0,4.29.26a.59.59,0,0,0,.51-.11c1.12.31,2.29,0,3.42.27a6.5,6.5,0,0,1,2.76,1.26,9.56,9.56,0,0,0-1.56,2,3.19,3.19,0,0,0-2-.79c-2.32-.12-4.64-.25-7-.31a6.59,6.59,0,0,1-5.94-3.42c-1-1.75-2.09-3.46-3.14-5.19-1.14-2-2.3-4-3.55-5.9a34.67,34.67,0,0,1,4.71-6.94Z" fill="#8ce0a4"/>
        <path id="Trazado_128781" data-name="Trazado 128781" d="M56.22,18.15c2.3.63,4.51,1.54,6.78,2.25a18.22,18.22,0,0,1,1.88.66,1.2,1.2,0,0,1,.47,2.05c-1.79,1.71-3.65,3.37-5.58,4.93-.73-2-1.48-3.93-2.18-5.9a29.339,29.339,0,0,1-1.37-3.99Z" fill="#aeeea4"/>
        <path id="Trazado_128782" data-name="Trazado 128782" d="M74.38,28.18a46.069,46.069,0,0,1-1.95,4.3,3.73,3.73,0,0,0,0,3.58,3.3,3.3,0,0,0,2,1.66,3.45,3.45,0,0,1-5.56-2.55c-.11-2,1.22-3.52,1.9-5.26a3,3,0,0,1,2.16-1.78,1.88,1.88,0,0,1,1.45.05Z" fill="#8ce0a4"/>
        <path id="Trazado_128783" data-name="Trazado 128783" d="M56.22,18.15a29.339,29.339,0,0,0,1.37,4c.7,2,1.45,3.93,2.18,5.9a5.86,5.86,0,0,1-.42.44c-1.06,1-2,.78-2.46-.57-1-2.61-1.92-5.23-2.87-7.84-.24-.66-.52-1.35.09-1.94S55.52,17.79,56.22,18.15Z" fill="#8ce0a4"/>
        <path id="Trazado_128784" data-name="Trazado 128784" d="M75.72,68.23l2-1.81c.79,1.58,1.24,3.29,1.89,4.93.4,1,.72,2.08,1.08,3.11a13.25,13.25,0,0,1-1.86,2.17c-.94-2.1-1.59-4.31-2.42-6.45C76.16,69.54,76,68.88,75.72,68.23Z" fill="#8ce0a4"/>
        <path id="Trazado_128785" data-name="Trazado 128785" d="M67.62,54a6.87,6.87,0,0,0-2.34,1.43,7.37,7.37,0,0,1,.66-7.94c.38-.5.7-1.08,1.34-1.32a24.77,24.77,0,0,0-.76,2.4A7.67,7.67,0,0,0,67.62,54Z" fill="#8ce0a4"/>
        <path id="Trazado_128786" data-name="Trazado 128786" d="M33.45,17.2a7.64,7.64,0,0,0-.65-2.66,15,15,0,0,1,1.94-.81Z" fill="#aeeea4"/>
        <path id="Trazado_128787" data-name="Trazado 128787" d="M67.44,46l-.15.17Z" fill="#8ce0a4"/>
        <path id="Trazado_128788" data-name="Trazado 128788" d="M18.69,37.55c1,1.73,2.13,3.44,3.14,5.19a6.59,6.59,0,0,0,5.94,3.42c2.33.06,4.65.19,7,.31a3.19,3.19,0,0,1,2,.79c1.94,1.33,1.24,1.84-.42,2.07l-9.1,3.27c-.55.2-1.12.38-1.66.61A2.54,2.54,0,0,0,25,57.79c1.5,1.14,3,2.29,4.53,3.42a1.56,1.56,0,0,1,.73,1.2c.17,3.29.32,6.58.47,9.88A34.52,34.52,0,0,1,23.86,64,38.55,38.55,0,0,1,18.8,50.64,40.47,40.47,0,0,1,18.38,40a13.79,13.79,0,0,1,.31-2.45Z" fill="#7dc2ed"/>
        <path id="Trazado_128789" data-name="Trazado 128789" d="M65.28,55.39s6.07,6.71,7.59,8.73,2.85,4.11,2.85,4.11l2.78-2.5L69.42,53.64H66.2Z" fill="#8ce0a4"/>
        <path id="Trazado_128790" data-name="Trazado 128790" d="M67.62,54c0,.24,6.78,7.87,8.1,9.84a31.468,31.468,0,0,0,2.14,2.89l5.94-4.9.32-8.39L74.8,51.15Z" fill="#aeeea4"/>
        <path id="Trazado_128791" data-name="Trazado 128791" d="M38.26,45.24a8.3,8.3,0,0,1,1.63,1.41,2.55,2.55,0,0,1,0,3.06,7.88,7.88,0,0,1-3.08,2.14l-.53-2.52c1.8-.57,1.37-1.19.42-2.07l.78-1.74Z" fill="#8ce0a4"/>
      </g>
      <g id="Grupo_61486" data-name="Grupo 61486">
        <path id="Trazado_128792" data-name="Trazado 128792" d="M59.24,22.46a34.26,34.26,0,0,0-32,34.21" fill="none" stroke="#472ea6" stroke-linecap="round" stroke-miterlimit="10" stroke-width="2"/>
        <path id="Trazado_128793" data-name="Trazado 128793" d="M55.09,19.31l3.56,3.22-3.21,3.56,2.87-.15,3.22-3.56-3.56-3.21Z" fill="#472ea6"/>
      </g>
      <g id="Grupo_61488" data-name="Grupo 61488">
        <g id="Grupo_61487" data-name="Grupo 61487">
          <path id="Trazado_128794" data-name="Trazado 128794" d="M81.24,3.66H96.72V43.2c0,.38-.07.5-.48.5H81.29V33.43h3.12c.55,0,.55,0,.55-.53V31.5c0-.56,0-.56-.55-.56H81.24V29.15h3.11c.57,0,.57,0,.57-.58v-1.3c0-.55,0-.56-.56-.56H81.24V20h.86c.24,0,.33-.1.32-.33v-1c0-1.15,0-1.15-1.17-1.16V15.78h.86c.23,0,.33-.09.32-.32v-1.8c0-.24-.11-.32-.33-.32h-.86V11.56h.86c.23,0,.33-.08.32-.32V9.44c0-.24-.11-.32-.33-.32h-.86ZM88.9,8.51a4,4,0,0,0-3.66,2.4,3.9,3.9,0,0,0,1,4.39,1,1,0,0,1,.37.84v4.41c0,.31.06.4.37.27.5-.21,1-.36,1.54-.56a1,1,0,0,1,.82,0c.53.21,1.08.38,1.61.59.28.11.34,0,.34-.25v-5a4.24,4.24,0,0,0,1.48-2.22A4,4,0,0,0,88.9,8.51Z" fill="#f6bf2d"/>
          <path id="Trazado_128795" data-name="Trazado 128795" d="M81.24,33.43V43.66H73.32a.421.421,0,0,1-.29-.07.4.4,0,0,0,.08-.33c0-2.19,0-4.37,0-6.56,0-.3-.11-.37-.39-.37H66.28c-.13,0-.29,0-.36.14-.22-.15-.13-.38-.13-.57V3.65H81.24V9.1H69.79c-.27,0-.37.09-.36.36v1.72c0,.28.1.36.37.36H81.23v1.77H69.84c-.31,0-.41.11-.4.41V15.4c0,.24.06.36.33.35H81.24v1.71H75.99c-2.08-.07-4.17,0-6.25,0-.24,0-.26.15-.26.34v1.79c0,.24.07.35.33.35H81.28v6.71H69.84c-.3,0-.43.08-.41.4v1.48c0,.48,0,.56.56.56H81.23v1.79H69.91c-.36,0-.52.08-.49.47a12.181,12.181,0,0,1,0,1.48c0,.37.09.5.48.49H81.21A.615.615,0,0,0,81.24,33.43Z" fill="#fae17b"/>
          <path id="Trazado_128796" data-name="Trazado 128796" d="M91.23,15.61v5c0,.27-.06.36-.34.25-.53-.21-1.08-.38-1.61-.59a1,1,0,0,0-.82,0c-.51.2-1,.35-1.54.56-.31.13-.38,0-.37-.27V16.15a1,1,0,0,0-.37-.84,3.9,3.9,0,0,1-1-4.39,4,4,0,0,1,3.66-2.4V16c0,.37.14.44.47.37a4.91,4.91,0,0,0,1.92-.76Z" fill="#e33138"/>
          <path id="Trazado_128797" data-name="Trazado 128797" d="M81.24,33.43h0V30.98h3.12c.55,0,.55,0,.55.56v1.41c0,.52,0,.52-.55.53H81.24Z" fill="#f29524"/>
          <path id="Trazado_128798" data-name="Trazado 128798" d="M81.24,26.71h3.11c.56,0,.56,0,.56.56v1.29c0,.58,0,.58-.57.58H81.23V26.7Z" fill="#f29524"/>
          <path id="Trazado_128799" data-name="Trazado 128799" d="M91.23,15.61a4.91,4.91,0,0,1-1.87.75c-.33.07-.47,0-.47-.37V8.51a4,4,0,0,1,3.81,4.88,4.24,4.24,0,0,1-1.47,2.22Z" fill="#d8010c"/>
          <path id="Trazado_128800" data-name="Trazado 128800" d="M81.23,20h-5.3V17.56h5.25c1.17,0,1.17,0,1.17,1.16v1c0,.23-.08.34-.32.33Z" fill="#f29524"/>
          <path id="Trazado_128801" data-name="Trazado 128801" d="M75.92,9.13h6.16c.29,0,.34.08.33.32v1.79c0,.24-.09.33-.32.32H75.93Z" fill="#f29524"/>
          <path id="Trazado_128802" data-name="Trazado 128802" d="M81.23,15.78h-5.3V13.35h6.16c.29,0,.34.08.33.32v1.79c0,.23-.09.33-.32.32Z" fill="#f29524"/>
          <path id="Trazado_128803" data-name="Trazado 128803" d="M81.24,26.71v2.44H70c-.55,0-.55,0-.56-.56s0-1,0-1.48c0-.32.11-.4.41-.4h11.4Z" fill="#f6bf2d"/>
          <path id="Trazado_128804" data-name="Trazado 128804" d="M81.24,30.93v2.45H69.91c-.39,0-.5-.12-.48-.49a12.181,12.181,0,0,0,0-1.48c0-.39.13-.47.49-.47C73.69,30.94,77.47,30.93,81.24,30.93Z" fill="#f6bf2d"/>
          <path id="Trazado_128805" data-name="Trazado 128805" d="M73,43.6l-7.11-7.12c.07-.18.23-.14.36-.14h6.44c.28,0,.4.07.39.37v6.56a.4.4,0,0,1-.08.33Z" fill="#f6bf2d"/>
          <path id="Trazado_128806" data-name="Trazado 128806" d="M75.94,17.53v2.44H69.77c-.26,0-.33-.11-.33-.35V17.83c0-.19,0-.35.26-.34C71.77,17.52,73.86,17.46,75.94,17.53Z" fill="#f6bf2d"/>
          <path id="Trazado_128807" data-name="Trazado 128807" d="M75.92,9.13v2.41H69.79c-.27,0-.38-.08-.37-.36V9.46c0-.27.09-.36.36-.36Z" fill="#f6bf2d"/>
          <path id="Trazado_128808" data-name="Trazado 128808" d="M75.92,13.35v2.41H69.76c-.27,0-.33-.11-.33-.35V13.73c0-.3.09-.41.4-.41C71.86,13.35,73.89,13.34,75.92,13.35Z" fill="#f6bf2d"/>
        </g>
        <path id="Trazado_128809" data-name="Trazado 128809" d="M89.63,31.24a.8.8,0,0,0-.17-.56,1.73,1.73,0,0,0-.61-.38q-.45-.18-.81-.36a2.86,2.86,0,0,1-.64-.43A1.76,1.76,0,0,1,87,29a2,2,0,0,1-.14-.77,1.64,1.64,0,0,1,.51-1.24,2.15,2.15,0,0,1,1.36-.57v-.95h.71v1a2,2,0,0,1,1.29.68,2.1,2.1,0,0,1,.47,1.4H89.66a1.24,1.24,0,0,0-.17-.72.61.61,0,0,0-.51-.25.59.59,0,0,0-.46.19.73.73,0,0,0-.17.51.76.76,0,0,0,.19.53,2,2,0,0,0,.61.37c.27.12.53.24.78.37a2.75,2.75,0,0,1,.64.43,1.76,1.76,0,0,1,.42.56,1.87,1.87,0,0,1,.15.78,1.71,1.71,0,0,1-.48,1.25,2.11,2.11,0,0,1-1.33.56v.9h-.71V33a2.28,2.28,0,0,1-1.5-.66,2.17,2.17,0,0,1-.52-1.5h1.51a1.19,1.19,0,0,0,.23.78.78.78,0,0,0,.64.27.62.62,0,0,0,.48-.19.65.65,0,0,0,.17-.46Z" fill="#472ea6"/>
      </g>
    </g>
  </g>
</svg>
