<svg xmlns="http://www.w3.org/2000/svg" width="100" height="100" viewBox="0 0 100 100">
  <g id="Grupo_124788" data-name="Grupo 124788" transform="translate(-958 -3104)">
    <g id="CF8_1.5_tarjeta_3_copia_2" data-name="CF8_1.5 tarjeta 3 copia 2" transform="translate(958 3104)">
      <circle id="Elipse_4566" data-name="Elipse 4566" cx="50" cy="50" r="50" fill="#fcd4e0"/>
      <g id="Grupo_124784" data-name="Grupo 124784">
        <path id="Trazado_235379" data-name="Trazado 235379" d="M9.27,48.62c.19-.1.19-.3.25-.47.47-1.4.94-2.79,1.42-4.19a1.69,1.69,0,0,1,2.33-1.18c1.56.52,3.12,1,4.66,1.58a1.68,1.68,0,1,1-1,3.19c-.32-.09-.63-.2-1-.34a24.2,24.2,0,0,0,3,4.25,25.86,25.86,0,0,0,11.73,7.93,1.69,1.69,0,0,1-.12,3.33,2.19,2.19,0,0,1-1-.15A29.46,29.46,0,0,1,14,50.6c-.19-.28-.37-.56-.55-.84s-.33-.54-.5-.84c-.24.18-.24.43-.32.65a1.71,1.71,0,0,1-1.52,1.29A1.69,1.69,0,0,1,9.4,49.75s-.07-.08-.1-.12Z" fill="#0e82f7"/>
        <path id="Trazado_235380" data-name="Trazado 235380" d="M46.63,27.08A16.908,16.908,0,0,1,49,60.71a10.05,10.05,0,0,1-2.51.12,20.73,20.73,0,0,1,.11-3.34,13.52,13.52,0,0,0,0-27v-3.4Z" fill="#fcaa5a"/>
        <path id="Trazado_235381" data-name="Trazado 235381" d="M29.69,10.19a15.27,15.27,0,0,1,6.37,1.23A16.82,16.82,0,0,1,46.24,23.64a21,21,0,0,1,.39,3.44h0l-.33,3.36a24.229,24.229,0,0,1-1.57,4.37c-.09.14-.18.28-.26.42a17.06,17.06,0,0,1-4,4.82,22.14,22.14,0,0,1-3,2.06l-.76.34a21.119,21.119,0,0,1-3.62,1.22,2.92,2.92,0,0,0-1.1.13c-.75.17-1.52,0-2.26.21a.07.07,0,0,1,0-.06c0-1.14,0-2.28,0-3.41a10.05,10.05,0,0,0,2.39-.16,13.42,13.42,0,0,0,8.44-5.24A13.13,13.13,0,0,0,42.9,24.36a13.1,13.1,0,0,0-6-8.69,14.21,14.21,0,0,0-7.24-2.16Z" fill="#fcaa5a"/>
        <path id="Trazado_235382" data-name="Trazado 235382" d="M29.69,10.19v3.32h0c-.65.15-1.33.1-2,.2A13.48,13.48,0,0,0,16.33,29.06,13,13,0,0,0,21,37.42a12.58,12.58,0,0,0,8.67,3.12h0v3.41a15.84,15.84,0,0,1-7-1.56,16.39,16.39,0,0,1-9.54-12.34,16.23,16.23,0,0,1,4-14.23A16.52,16.52,0,0,1,27,10.39a19.869,19.869,0,0,1,2.69-.2Z" fill="#fcce5e"/>
        <path id="Trazado_235383" data-name="Trazado 235383" d="M63.11,22c.14-.39.23-.65.33-.9a1.671,1.671,0,1,1,3.17,1.06c-.52,1.61-1,3.22-1.61,4.83A1.66,1.66,0,0,1,62.79,28q-2.38-.77-4.79-1.6a1.64,1.64,0,0,1-1.08-2.1,1.69,1.69,0,0,1,2.16-1.08,3,3,0,0,0,1,.26,26.78,26.78,0,0,0-4.52-5.87,25.2,25.2,0,0,0-10.11-6.22,1.7,1.7,0,0,1-1.3-2.18,1.72,1.72,0,0,1,2.32-1A29,29,0,0,1,59.9,17.34,32.18,32.18,0,0,1,63.11,22Z" fill="#f61647"/>
        <path id="Trazado_235384" data-name="Trazado 235384" d="M29.69,44c.74-.22,1.51,0,2.26-.21a2.92,2.92,0,0,1,1.1-.13,12,12,0,0,0,.4,3.59,13.38,13.38,0,0,0,4.41,7,13.17,13.17,0,0,0,8.76,3.2h0a20.73,20.73,0,0,0-.11,3.34,16.19,16.19,0,0,1-10.46-3.67,16.66,16.66,0,0,1-6.23-10.91A11.1,11.1,0,0,1,29.69,44Z" fill="#fcce5e"/>
        <path id="Trazado_235385" data-name="Trazado 235385" d="M46.63,30.45a13.52,13.52,0,0,1,0,27h0V53.23h0a7.06,7.06,0,0,0,2.95-.46,8.37,8.37,0,0,0,4.17-2.94,1.62,1.62,0,0,0-.57-2.35,1.64,1.64,0,0,0-2.13.38,5.71,5.71,0,0,1-4.42,2h0V45.71h0a4.62,4.62,0,0,0,1-.1,1.63,1.63,0,0,0,1.41-1.76,1.6,1.6,0,0,0-1.57-1.5h-.89V38.08h0a4.9,4.9,0,0,1,2.07.37,6.7,6.7,0,0,1,2.48,1.76,1.69,1.69,0,0,0,2.2.14,1.64,1.64,0,0,0,.43-2.11,4,4,0,0,0-.72-.92,9.11,9.11,0,0,0-6.46-2.6h0V30.45Z" fill="#fcce5e"/>
        <path id="Trazado_235386" data-name="Trazado 235386" d="M46.29,30.45l.33-3.36v3.36h-.34Z" fill="#fcce5e"/>
        <path id="Trazado_235387" data-name="Trazado 235387" d="M29.69,13.51a14.21,14.21,0,0,1,7.24,2.16,13.1,13.1,0,0,1,6,8.69,13.13,13.13,0,0,1-2.38,10.79,13.42,13.42,0,0,1-8.44,5.24,10.05,10.05,0,0,1-2.39.16h0v-3a1.61,1.61,0,0,0,1.67-1.75.68.68,0,0,1,.48-.74,4.62,4.62,0,0,0,2.15-2,4.75,4.75,0,0,0,.17-4.94,4.86,4.86,0,0,0-4.47-2.73V22H33a1.76,1.76,0,0,0,1.74-1.74A1.6,1.6,0,0,0,33,18.67H31.77c-.41,0-.37-.1-.4-.39a1.57,1.57,0,0,0-1.67-1.63V13.51Z" fill="#fcce5e"/>
        <path id="Trazado_235388" data-name="Trazado 235388" d="M37.43,42.12a22.141,22.141,0,0,0,3-2.06,17.06,17.06,0,0,0,4-4.82c.08-.14.17-.28.26-.42a12,12,0,0,1,1.9-.12h0v3.36h0a4.27,4.27,0,0,0-1.81.23A5.85,5.85,0,0,0,41,41.9c-.14.35-.05.45.33.45h5.26V45.7h-5.1c-.56,0-.6.07-.39.57a5.76,5.76,0,0,0,5.48,3.57h0c0,.07-.09.14-.08.2a30.312,30.312,0,0,1,.08,3.16h0a8.37,8.37,0,0,1-3.53-.66A9.07,9.07,0,0,1,39.52,50a8.85,8.85,0,0,1-2.2-5.48,10.06,10.06,0,0,1,.11-2.4Z" fill="#fcce5e"/>
        <path id="Trazado_235389" data-name="Trazado 235389" d="M37.43,42.12a10.06,10.06,0,0,0-.11,2.39A8.85,8.85,0,0,0,39.52,50a9.07,9.07,0,0,0,3.57,2.58,8.37,8.37,0,0,0,3.53.66v4.25a13.17,13.17,0,0,1-8.76-3.2,13.38,13.38,0,0,1-4.41-7,12,12,0,0,1-.4-3.59,21.12,21.12,0,0,0,3.62-1.22Z" fill="#fce15c"/>
        <path id="Trazado_235390" data-name="Trazado 235390" d="M46.62,34.7a12,12,0,0,0-1.9.12,24.23,24.23,0,0,0,1.57-4.37h.33Z" fill="#fce15c"/>
        <path id="Trazado_235391" data-name="Trazado 235391" d="M29.68,13.51v3.14h0A1.59,1.59,0,0,0,28,18.34a.74.74,0,0,1-.51.81,4.37,4.37,0,0,0-1.94,1.64,4.78,4.78,0,0,0-.41,5.13,4.94,4.94,0,0,0,4.54,2.84h0v3.37H26.43a1.73,1.73,0,0,0-1.8,1.73,1.64,1.64,0,0,0,1.79,1.64h1.17c.39,0,.39.09.41.39a1.57,1.57,0,0,0,1.68,1.63h0v3A12.58,12.58,0,0,1,21,37.42a13,13,0,0,1-4.69-8.36A13.48,13.48,0,0,1,27.69,13.71C28.35,13.61,29,13.66,29.68,13.51Z" fill="#fce15c"/>
        <path id="Trazado_235392" data-name="Trazado 235392" d="M46.63,53.22a30.311,30.311,0,0,0-.08-3.16.642.642,0,0,1,.08-.2,5.71,5.71,0,0,0,4.42-2,1.64,1.64,0,0,1,2.13-.38,1.62,1.62,0,0,1,.57,2.35,8.37,8.37,0,0,1-4.17,2.94,7.06,7.06,0,0,1-2.95.45Z" fill="#fcaa5a"/>
        <path id="Trazado_235393" data-name="Trazado 235393" d="M46.63,38.07V34.71a9.11,9.11,0,0,1,6.46,2.6,4,4,0,0,1,.72.92,1.64,1.64,0,0,1-.43,2.11,1.69,1.69,0,0,1-2.2-.14,6.7,6.7,0,0,0-2.48-1.76,4.9,4.9,0,0,0-2.07-.37Z" fill="#fcaa5a"/>
        <path id="Trazado_235394" data-name="Trazado 235394" d="M46.62,42.33H41.36c-.38,0-.47-.1-.33-.45a5.85,5.85,0,0,1,3.78-3.59,4.27,4.27,0,0,1,1.81-.23Z" fill="#fce15c"/>
        <path id="Trazado_235395" data-name="Trazado 235395" d="M46.62,49.85a5.76,5.76,0,0,1-5.48-3.57c-.21-.5-.17-.57.39-.57h5.09Z" fill="#fce15c"/>
        <path id="Trazado_235396" data-name="Trazado 235396" d="M46.63,45.7V42.34h.89a1.6,1.6,0,0,1,1.57,1.5,1.63,1.63,0,0,1-1.41,1.76A4.62,4.62,0,0,1,46.63,45.7Z" fill="#fcaa5a"/>
        <path id="Trazado_235397" data-name="Trazado 235397" d="M29.69,25.4a4.86,4.86,0,0,1,4.47,2.73A4.75,4.75,0,0,1,34,33.07a4.62,4.62,0,0,1-2.15,2,.68.68,0,0,0-.48.74,1.61,1.61,0,0,1-1.67,1.75h0V32.13h0a1.61,1.61,0,0,0,1.68-1.67,1.69,1.69,0,0,0-1.68-1.7h0V25.4Z" fill="#fcaa5a"/>
        <path id="Trazado_235398" data-name="Trazado 235398" d="M29.69,16.65a1.57,1.57,0,0,1,1.67,1.63c0,.29.12.4.4.39s.82,0,1.23,0a1.6,1.6,0,0,1,1.74,1.62A1.76,1.76,0,0,1,33,22H29.7V16.65Z" fill="#fcaa5a"/>
        <path id="Trazado_235399" data-name="Trazado 235399" d="M29.69,22v3.4h0A1.66,1.66,0,0,1,28,23.65,1.62,1.62,0,0,1,29.69,22Z" fill="#fce15c"/>
        <path id="Trazado_235400" data-name="Trazado 235400" d="M29.69,22A1.62,1.62,0,0,0,28,23.65a1.66,1.66,0,0,0,1.69,1.75v3.36a4.94,4.94,0,0,1-4.54-2.84,4.78,4.78,0,0,1,.41-5.13,4.37,4.37,0,0,1,1.94-1.64.74.74,0,0,0,.51-.81,1.59,1.59,0,0,1,1.68-1.69Z" fill="#fcce5e"/>
        <path id="Trazado_235401" data-name="Trazado 235401" d="M29.69,32.13v5.38A1.57,1.57,0,0,1,28,35.88c0-.3-.12-.4-.41-.39s-.78,0-1.17,0a1.64,1.64,0,0,1-1.79-1.64,1.73,1.73,0,0,1,1.8-1.73C27.52,32.12,28.6,32.13,29.69,32.13Z" fill="#fcce5e"/>
        <path id="Trazado_235402" data-name="Trazado 235402" d="M29.69,28.76a1.69,1.69,0,0,1,1.68,1.7,1.61,1.61,0,0,1-1.68,1.67Z" fill="#fcce5e"/>
      </g>
      <g id="Grupo_124785" data-name="Grupo 124785">
        <path id="Trazado_235403" data-name="Trazado 235403" d="M75.47,36.81c0,.38.27.61.43.9q7.91,14,1.38,28.65a39,39,0,0,1-2.57,4.54c-.16.19-.33.36-.47.56A32.211,32.211,0,0,1,70,76.14c-.94.89-2.07,1.55-3,2.47a52,52,0,0,1-4.95,2.73A30.42,30.42,0,0,1,47.32,84a29.93,29.93,0,0,1-14.81-5A30.691,30.691,0,1,1,73.76,34.66a.77.77,0,0,0,.16.15,15.79,15.79,0,0,0,1.55,2Zm-5.23,1.65A21,21,0,0,0,66,33.76a21.81,21.81,0,0,0-6.21-3.82,3.21,3.21,0,0,0-.31-.19A25.656,25.656,0,0,0,24.4,48.22a15.56,15.56,0,0,0-.4,2.54,19.93,19.93,0,0,0-.05,5,25.13,25.13,0,0,0,5.47,13.52,19.74,19.74,0,0,0,4.31,4.2,15.36,15.36,0,0,0,3.65,2.45A25.63,25.63,0,0,0,69.6,69.08a25,25,0,0,0,5.44-16A24.71,24.71,0,0,0,73,43.27a9.9,9.9,0,0,0-1.37-2.59,8.85,8.85,0,0,0-1.39-2.22Z" fill="#472ea6"/>
        <path id="Trazado_235404" data-name="Trazado 235404" d="M80.19,76.39c1.17,1,2.23,2.21,3.33,3.33,2.57,2.58,5.15,5.13,7.71,7.71a5.46,5.46,0,0,1,.69,7.23,5.34,5.34,0,0,1-8.14.64C80,91.67,76.36,87.92,72.66,84.22a.69.69,0,0,1-.1-.19l5.06-5.1Z" fill="#472ea6"/>
        <path id="Trazado_235405" data-name="Trazado 235405" d="M80.19,76.39l-2.57,2.54c-1.17.09-2.34.17-3.5.29a26.759,26.759,0,0,0-5.38,1l-1.69-1.64c.91-.92,2-1.58,3-2.47a32.21,32.21,0,0,0,4.21-4.68c.14-.2.31-.37.47-.56Z" fill="#241753"/>
        <path id="Trazado_235406" data-name="Trazado 235406" d="M68.74,80.25a26.759,26.759,0,0,1,5.38-1c1.16-.12,2.33-.2,3.5-.29L72.56,84C71.21,82.85,70,81.54,68.74,80.25Z" fill="#35237d"/>
      </g>
    </g>
  </g>
</svg>
