<svg xmlns="http://www.w3.org/2000/svg" width="100" height="100" viewBox="0 0 100 100">
  <g id="Grupo_124793" data-name="Grupo 124793" transform="translate(-750 -3145)">
    <g id="CF8_tipo_6" data-name="CF8_tipo 6" transform="translate(750 3145)">
      <circle id="Elipse_4226" data-name="Elipse 4226" cx="50" cy="50" r="50" fill="#fcd4e0"/>
      <g id="Grupo_61503" data-name="Grupo 61503">
        <circle id="Elipse_4227" data-name="Elipse 4227" cx="39.37" cy="39.37" r="39.37" transform="translate(10.7 10.63)" fill="#aeeea4"/>
        <path id="Trazado_128920" data-name="Trazado 128920" d="M46.85,10.63H53c.14.2.37.14.56.16a39.4,39.4,0,0,1,8.32,1.7A38.76,38.76,0,0,1,79.33,23.87q-1.77,1.83-3.53,3.68a2,2,0,0,1-1.42.63,1.88,1.88,0,0,0-1.49-.05,3,3,0,0,0-2.16,1.78c-.68,1.74-2,3.24-1.9,5.26a3.45,3.45,0,0,0,5.56,2.55A4.1,4.1,0,0,0,75.9,36a3.23,3.23,0,0,1,3.18-1.38c2.39.15,4.78.33,7.17.26A35.531,35.531,0,0,1,89,45.83l-6.32-.6c-3.3-.3-6.6-.62-9.91-.88A7.14,7.14,0,0,0,67.44,46l-.15.17h0a3.054,3.054,0,0,0-1.34,1.32,7.37,7.37,0,0,0-.66,7.94c12.2,2.43,9.71,13.31,10.43,12.8.23.65.44,1.31.69,2,.83,2.14,1.48,4.35,2.42,6.45a1.67,1.67,0,0,1-.62.72c-.42-.19-.66.19-.94.35A39.8,39.8,0,0,1,57.88,83a36.544,36.544,0,0,1-4.66-.28,37.44,37.44,0,0,1-8.8-2,42.181,42.181,0,0,1-7-3.23.76.76,0,0,1,0-.15,5.47,5.47,0,0,0,.89-2.09c.9-3,1.78-5.91,2.67-8.87a3.4,3.4,0,0,1,1.12-1.7c2-1.6,3.88-3.23,5.8-4.87a3.37,3.37,0,0,0,1.36-2.23c.54-.47-10.26-4.58-11-12.34A6.5,6.5,0,0,0,35.5,44c-1.13-.27-2.3,0-3.42-.27-.84-.72-.92-1.24-.33-2.12A3.56,3.56,0,0,1,34,40a19.84,19.84,0,0,1,2.05-.3,7.94,7.94,0,0,0,5.69-2.82c.64-.79,1.19-1.66,1.78-2.5,1.27-1.86,2.56-3.71,3.81-5.58A3.81,3.81,0,0,0,47,23.73c-.81-.92-1.61-1.86-2.4-2.8a2.58,2.58,0,0,0-4.26.11l-1.66,2.12c-.2.25-.4.48-.76.4-2.62-.62-4.23-.81-5-3.74a15.749,15.749,0,0,0,.59-2.62l1.29-3.47A35.69,35.69,0,0,1,43,11.24,37.637,37.637,0,0,0,46.85,10.63ZM59.77,28c1.93-1.56,3.79-3.22,5.58-4.93a1.2,1.2,0,0,0-.47-2.05A18.221,18.221,0,0,0,63,20.4c-2.27-.71-4.48-1.62-6.78-2.25-.7-.36-1.43-.68-2.11,0s-.33,1.28-.09,1.94c.95,2.61,1.9,5.23,2.87,7.84.5,1.35,1.4,1.54,2.46.57a5.86,5.86,0,0,0,.42-.5Z" fill="#7dc2ed"/>
        <path id="Trazado_128921" data-name="Trazado 128921" d="M78.21,77.35a39,39,0,0,1-12.6,8.75,38,38,0,0,1-17.44,3.21,39.45,39.45,0,0,1-37.26-34,9.42,9.42,0,0,0-.35-2.24v-6c.15-.1.14-.26.15-.41a33.4,33.4,0,0,1,.63-4.47,36.36,36.36,0,0,1,3.8-10.54c1.25,1.93,2.41,3.91,3.55,5.9A13.79,13.79,0,0,0,18.38,40a40.47,40.47,0,0,0,.42,10.6A38.55,38.55,0,0,0,23.86,64a34.52,34.52,0,0,0,6.82,8.31l.18,3.12a3.69,3.69,0,0,0,2.75,3.37,3.84,3.84,0,0,0,3.86-1.26,42.18,42.18,0,0,0,7,3.23,37.44,37.44,0,0,0,8.8,2,36.541,36.541,0,0,0,4.66.28A39.8,39.8,0,0,0,77.27,77.7C77.55,77.54,77.79,77.16,78.21,77.35Z" fill="#64acdb"/>
        <path id="Trazado_128922" data-name="Trazado 128922" d="M34.15,15.32c-1.06,3.72,1.13,7.62,3.75,8.24.36.08.56-.15.76-.4L40.32,21a2.58,2.58,0,0,1,4.26-.11c.79.94,1.59,1.88,2.4,2.8a3.81,3.81,0,0,1,.36,5.06c-1.25,1.87-2.54,3.72-3.81,5.58-.59.84-1.14,1.71-1.78,2.5a7.94,7.94,0,0,1-5.69,2.82A19.84,19.84,0,0,0,34,40a3.56,3.56,0,0,0-2.26,1.6c-.59.88-.51,1.4.33,2.12a.59.59,0,0,1-.51.11c-1.42-.28-2.86-.07-4.29-.26a3.94,3.94,0,0,1-3.09-1.85c-1.21-2-2.39-3.94-3.57-5.92a4.7,4.7,0,0,1-.83-2.8,8.62,8.62,0,0,1,.66-2.36,15.71,15.71,0,0,1,1.69-3.85c0-3.66,5.11-4.82,5.51-4.55,1.11.78,1.47-1.49,2.56-2.29C33.08,17.81,32.54,18.6,34.15,15.32Z" fill="#aeeea4"/>
        <path id="Trazado_128923" data-name="Trazado 128923" d="M89,45.83a27.14,27.14,0,0,1,.22,6,39.12,39.12,0,0,1-2.11,11,37.85,37.85,0,0,1-6.44,11.62c-.36-1-.68-2.09-1.08-3.11-.65-1.64-1.1-3.35-1.89-4.93a16.55,16.55,0,0,0,3.34-4.74,6.1,6.1,0,0,0,.31-4.42,5.05,5.05,0,0,0-8.15-2.17c-.28.24-.48.4-.82.07A5.11,5.11,0,0,0,67.62,54a7.67,7.67,0,0,1-1.1-5.43,24.772,24.772,0,0,1,.76-2.4h0l.15-.17a7.14,7.14,0,0,1,5.35-1.62c3.31.26,6.61.58,9.91.88Z" fill="#aeeea4"/>
        <path id="Trazado_128924" data-name="Trazado 128924" d="M49.32,57.61A3.37,3.37,0,0,1,48,59.84c-1.92,1.64-3.85,3.27-5.8,4.87a3.4,3.4,0,0,0-1.2,1.7c-.89,3-1.77,5.91-2.67,8.87a5.47,5.47,0,0,1-.89,2.09,10.21,10.21,0,0,1-3.14-2,3,3,0,0,1-1-2.1q-.33-5.51-.62-11a3.57,3.57,0,0,0-1-2.41,29.74,29.74,0,0,0-3.25-2.56c-1.15-.9-1.08-2,.29-2.49,2.68-1,5.39-2,8.08-2.92,2.65-4.17-.35-9,6.93-1.83a13.53,13.53,0,0,0,2.45,1.37C48.13,52.49,50.77,52.31,49.32,57.61Z" fill="#aeeea4"/>
        <path id="Trazado_128925" data-name="Trazado 128925" d="M36.28,49.33c1.67-.72.23,1.7.53,2.52-2.69,1-5.4,1.9-8.08,2.92-1.37.52-1.44,1.59-.29,2.49a29.74,29.74,0,0,1,3.25,2.56,3.57,3.57,0,0,1,1,2.41q.28,5.51.62,11a3,3,0,0,0,1,2.1,10.21,10.21,0,0,0,3.14,2,.76.76,0,0,0,0,.15,3.84,3.84,0,0,1-3.86,1.26,3.69,3.69,0,0,1-2.75-3.37l-.18-3.12c-.15-3.3-.3-6.59-.47-9.88a1.56,1.56,0,0,0-.73-1.2c-1.52-1.13-3-2.28-4.53-3.42a2.54,2.54,0,0,1,.57-4.58c.54-.23,1.11-.41,1.66-.61Z" fill="#8ce0a4"/>
        <path id="Trazado_128926" data-name="Trazado 128926" d="M79.33,23.87a37.31,37.31,0,0,1,6.92,11c-2.39.07-4.78-.11-7.17-.26A3.23,3.23,0,0,0,75.9,36a4.1,4.1,0,0,1-1.51,1.69,3.3,3.3,0,0,1-2-1.66,3.73,3.73,0,0,1,0-3.58,46.074,46.074,0,0,0,1.95-4.3,2,2,0,0,0,1.42-.63Q77.56,25.71,79.33,23.87Z" fill="#aeeea4"/>
        <path id="Trazado_128927" data-name="Trazado 128927" d="M19.78,24.72c2.5-2.87,3.3-3.36,6.64-6.28-.83,1.16-5.49,10.86-6,12.17A8.62,8.62,0,0,0,19.78,33a4.7,4.7,0,0,0,.84,2.82c1.18,2,2.36,4,3.57,5.92a3.94,3.94,0,0,0,3.09,1.85c1.43.19,2.87,0,4.29.26a.59.59,0,0,0,.51-.11c1.12.31,2.29,0,3.42.27a6.5,6.5,0,0,1,2.76,1.26,9.56,9.56,0,0,0-1.56,2,3.19,3.19,0,0,0-2-.79c-2.32-.12-4.64-.25-7-.31a6.59,6.59,0,0,1-5.94-3.42c-1-1.75-2.09-3.46-3.14-5.19-1.14-2-2.3-4-3.55-5.9a34.67,34.67,0,0,1,4.71-6.94Z" fill="#8ce0a4"/>
        <path id="Trazado_128928" data-name="Trazado 128928" d="M56.22,18.15c2.3.63,4.51,1.54,6.78,2.25a18.22,18.22,0,0,1,1.88.66,1.2,1.2,0,0,1,.47,2.05c-1.79,1.71-3.65,3.37-5.58,4.93-.73-2-1.48-3.93-2.18-5.9a29.339,29.339,0,0,1-1.37-3.99Z" fill="#aeeea4"/>
        <path id="Trazado_128929" data-name="Trazado 128929" d="M74.38,28.18a46.069,46.069,0,0,1-1.95,4.3,3.73,3.73,0,0,0,0,3.58,3.3,3.3,0,0,0,2,1.66,3.45,3.45,0,0,1-5.56-2.55c-.11-2,1.22-3.52,1.9-5.26a3,3,0,0,1,2.16-1.78,1.88,1.88,0,0,1,1.45.05Z" fill="#8ce0a4"/>
        <path id="Trazado_128930" data-name="Trazado 128930" d="M56.22,18.15a29.339,29.339,0,0,0,1.37,4c.7,2,1.45,3.93,2.18,5.9a5.86,5.86,0,0,1-.42.44c-1.06,1-2,.78-2.46-.57-1-2.61-1.92-5.23-2.87-7.84-.24-.66-.52-1.35.09-1.94S55.52,17.79,56.22,18.15Z" fill="#8ce0a4"/>
        <path id="Trazado_128931" data-name="Trazado 128931" d="M75.72,68.23l2-1.81c.79,1.58,1.24,3.29,1.89,4.93.4,1,.72,2.08,1.08,3.11a13.25,13.25,0,0,1-1.86,2.17c-.94-2.1-1.59-4.31-2.42-6.45C76.16,69.54,76,68.88,75.72,68.23Z" fill="#8ce0a4"/>
        <path id="Trazado_128932" data-name="Trazado 128932" d="M67.62,54a6.87,6.87,0,0,0-2.34,1.43,7.37,7.37,0,0,1,.66-7.94c.38-.5.7-1.08,1.34-1.32a24.77,24.77,0,0,0-.76,2.4A7.67,7.67,0,0,0,67.62,54Z" fill="#8ce0a4"/>
        <path id="Trazado_128933" data-name="Trazado 128933" d="M33.45,17.2a7.64,7.64,0,0,0-.65-2.66,15,15,0,0,1,1.94-.81Z" fill="#aeeea4"/>
        <path id="Trazado_128934" data-name="Trazado 128934" d="M67.44,46l-.15.17Z" fill="#8ce0a4"/>
        <path id="Trazado_128935" data-name="Trazado 128935" d="M18.69,37.55c1,1.73,2.13,3.44,3.14,5.19a6.59,6.59,0,0,0,5.94,3.42c2.33.06,4.65.19,7,.31a3.19,3.19,0,0,1,2,.79c1.94,1.33,1.24,1.84-.42,2.07l-9.1,3.27c-.55.2-1.12.38-1.66.61A2.54,2.54,0,0,0,25,57.79c1.5,1.14,3,2.29,4.53,3.42a1.56,1.56,0,0,1,.73,1.2c.17,3.29.32,6.58.47,9.88A34.52,34.52,0,0,1,23.86,64,38.55,38.55,0,0,1,18.8,50.64,40.47,40.47,0,0,1,18.38,40a13.79,13.79,0,0,1,.31-2.45Z" fill="#7dc2ed"/>
        <path id="Trazado_128936" data-name="Trazado 128936" d="M65.28,55.39s6.07,6.71,7.59,8.73,2.85,4.11,2.85,4.11l2.78-2.5L69.42,53.64H66.2Z" fill="#8ce0a4"/>
        <path id="Trazado_128937" data-name="Trazado 128937" d="M67.62,54c0,.24,6.78,7.87,8.1,9.84a31.468,31.468,0,0,0,2.14,2.89l5.94-4.9.32-8.39L74.8,51.15Z" fill="#aeeea4"/>
        <path id="Trazado_128938" data-name="Trazado 128938" d="M38.26,45.24a8.3,8.3,0,0,1,1.63,1.41,2.55,2.55,0,0,1,0,3.06,7.88,7.88,0,0,1-3.08,2.14l-.53-2.52c1.8-.57,1.37-1.19.42-2.07l.78-1.74Z" fill="#8ce0a4"/>
      </g>
      <g id="Grupo_61504" data-name="Grupo 61504">
        <path id="Trazado_128939" data-name="Trazado 128939" d="M48.8,16.87a34.26,34.26,0,0,0-32,34.21" fill="none" stroke="#472ea6" stroke-linecap="round" stroke-miterlimit="10" stroke-width="2"/>
        <path id="Trazado_128940" data-name="Trazado 128940" d="M44.66,13.73l3.56,3.21L45,20.5l2.87-.14,3.22-3.56-3.56-3.22Z" fill="#472ea6"/>
      </g>
      <g id="Grupo_61505" data-name="Grupo 61505">
        <path id="Trazado_128941" data-name="Trazado 128941" d="M51.55,83.8a34.26,34.26,0,0,0,32-34.21" fill="none" stroke="#ef2a66" stroke-linecap="round" stroke-miterlimit="10" stroke-width="2"/>
        <path id="Trazado_128942" data-name="Trazado 128942" d="M55.69,86.94l-3.56-3.21,3.22-3.56-2.87.14-3.22,3.56,3.56,3.22Z" fill="#ef2a66"/>
      </g>
      <path id="Trazado_128943" data-name="Trazado 128943" d="M20.5,82.74a3,3,0,0,0-.64-2,6.09,6.09,0,0,0-2.25-1.4c-1.08-.43-2.07-.88-3-1.33a10.11,10.11,0,0,1-2.35-1.56,6.17,6.17,0,0,1-1.51-2,6.88,6.88,0,0,1-.52-2.83A6.05,6.05,0,0,1,12.12,67a8,8,0,0,1,5-2.09V61.4h2.62v3.53a7.38,7.38,0,0,1,4.72,2.47,7.73,7.73,0,0,1,1.71,5.15H20.61A4.5,4.5,0,0,0,20,69.93,2.16,2.16,0,0,0,18.08,69a2.1,2.1,0,0,0-1.68.68,2.74,2.74,0,0,0-.6,1.88,2.67,2.67,0,0,0,.69,1.93,6.86,6.86,0,0,0,2.22,1.36q1.53.65,2.88,1.35a11,11,0,0,1,2.34,1.58,6.37,6.37,0,0,1,1.54,2.07A6.51,6.51,0,0,1,26,82.7a6.18,6.18,0,0,1-1.78,4.59,7.71,7.71,0,0,1-4.85,2.07v3.3H16.79V89.34a8.39,8.39,0,0,1-5.5-2.45,7.77,7.77,0,0,1-1.91-5.48h5.53a4.31,4.31,0,0,0,.83,2.85,2.93,2.93,0,0,0,2.36,1,2.35,2.35,0,0,0,1.76-.66A2.55,2.55,0,0,0,20.5,82.74Z" fill="#472ea6"/>
      <path id="Trazado_128944" data-name="Trazado 128944" d="M87.27,27.23H82a4.59,4.59,0,0,0,1.2,3.26,5.27,5.27,0,0,0,3.68,1.05A8,8,0,0,0,89.86,31l.72,4.53a20.2,20.2,0,0,1-4.4.5A10.54,10.54,0,0,1,79,33.71a8.51,8.51,0,0,1-2.83-6.48H73.38V24.55h2.76v-2H73.38V19.84h2.81a8.92,8.92,0,0,1,3.12-6.48A11.18,11.18,0,0,1,86.7,11a16.1,16.1,0,0,1,3.88.52l-.72,4.52a7.6,7.6,0,0,0-2.79-.52,5.29,5.29,0,0,0-3.54,1.05,4.73,4.73,0,0,0-1.44,3.24h5.18v2.68H82v2h5.23Z" fill="#ef2a66"/>
    </g>
  </g>
</svg>
