<svg xmlns="http://www.w3.org/2000/svg" width="100" height="100" viewBox="0 0 100 100">
  <g id="Grupo_124810" data-name="Grupo 124810" transform="translate(-810 -3370)">
    <g id="CF8_1.5_tarjeta_b" data-name="CF8_1.5 tarjeta b" transform="translate(810 3370)">
      <circle id="Elipse_4363" data-name="Elipse 4363" cx="50" cy="50" r="50" fill="#472ea6"/>
      <g id="Grupo_62524" data-name="Grupo 62524">
        <path id="Trazado_132764" data-name="Trazado 132764" d="M82.21,28.43A45.2,45.2,0,0,1,86.7,38.68a41.56,41.56,0,0,1,1.38,8H67.46a13,13,0,0,0-11,20.11c-.1.35-.18.7-.3,1a19.92,19.92,0,0,0-.42,11.42,21.36,21.36,0,0,0,4.18,8,38.62,38.62,0,0,1-11.11,1.54q0-23.82,0-47.64V34.27a8.51,8.51,0,0,1,2.8-.23,6.77,6.77,0,1,0,0-13.54H48.79c0-3.5,0-7,.05-10.51A39.37,39.37,0,0,1,81.36,27.26c.12.17.26.34.4.51s.1.27.29.23h0a.34.34,0,0,0,.24.45Z" fill="#b5abdb"/>
        <path id="Trazado_132765" data-name="Trazado 132765" d="M48.76,20.54h2.82a6.77,6.77,0,0,1,0,13.54,8.51,8.51,0,0,0-2.8.23,6,6,0,0,0-.74.12,7.76,7.76,0,0,0-5.28,7.34,7.58,7.58,0,0,1-7.69,7.64c-8.54.08-17.08,0-25.61,0a38.26,38.26,0,0,1,7.5-23.18,31.13,31.13,0,0,1,5.12-5.7H45.2C46.37,20.6,47.56,20.56,48.76,20.54Z" fill="#26a8df"/>
        <path id="Trazado_132766" data-name="Trazado 132766" d="M9.44,49.44c8.53,0,17.07.07,25.61,0a7.58,7.58,0,0,0,7.69-7.64A7.76,7.76,0,0,1,48,34.45a6,6,0,0,1,.74-.12V88.81a38.88,38.88,0,0,1-23.5-7.76c-.26-.19-.54-.34-.81-.51h0c0-.16-.1-.21-.24-.23h0L24,80.13a45.371,45.371,0,0,1-4.38-4.28H30.48a8.3,8.3,0,0,0,1.73-.12,6.72,6.72,0,0,0-1.37-13.3c-6.41-.06-12.81,0-19.22,0A35.16,35.16,0,0,1,9.44,49.44Z" fill="#b9e5ed"/>
        <path id="Trazado_132767" data-name="Trazado 132767" d="M11.63,62.4c6.41,0,12.81-.07,19.22,0a6.72,6.72,0,0,1,1.37,13.3,8.3,8.3,0,0,1-1.73.12H19.63a36.48,36.48,0,0,1-8-13.42Z" fill="#26a8df"/>
        <path id="Trazado_132768" data-name="Trazado 132768" d="M49.29,20.54c-1.19,0-2.39.06-3.58.06H22.59a38,38,0,0,1,16.06-9.1A39.39,39.39,0,0,1,49.34,10C49.32,13.53,49.31,17,49.29,20.54Z" fill="#dad5ed"/>
        <path id="Trazado_132769" data-name="Trazado 132769" d="M82.26,28.44A.34.34,0,0,1,82,28,.5.5,0,0,1,82.26,28.44Z" fill="#f1b215"/>
        <path id="Trazado_132770" data-name="Trazado 132770" d="M82.05,28c-.19,0-.23-.11-.29-.23Z" fill="#f1b215"/>
        <path id="Trazado_132771" data-name="Trazado 132771" d="M24,80.13l.24.24Z" fill="#f1b215"/>
        <path id="Trazado_132772" data-name="Trazado 132772" d="M24.23,80.35a.213.213,0,0,1,.24.23Z" fill="#f1b215"/>
        <path id="Trazado_132773" data-name="Trazado 132773" d="M59.89,87.27a21.36,21.36,0,0,1-4.18-8,19.92,19.92,0,0,1,.42-11.42c.12-.34.2-.69.3-1a6,6,0,0,0,.37-.51c3.66-7.55,9.72-11.41,18.08-11.7v6.64c-2.86.86-3.34,1.53-3.34,4.56v1.74a1.19,1.19,0,0,1-.8,1.33c-1.93.92-3.75,2.08-5.74,2.81a3.254,3.254,0,0,0-2.35,4c.1.76.32.89,1,.77,1.67-.29,3.34-.58,5-.8.92-.12,2.1-.75,2.68-.22s0,1.8.21,2.7c.54,2.69-.58,4.2-3.16,4.78-1.33.29-1.72,1.1-1.58,2.42s0,1.31,1.31,1.12l6.74-1,.06,8.5a19.44,19.44,0,0,1-14.38-6.07A6.59,6.59,0,0,0,59.89,87.27Z" fill="#fefefd"/>
        <path id="Trazado_132774" data-name="Trazado 132774" d="M74.85,61.23V54.59a11,11,0,0,1,3.33.28A20.51,20.51,0,0,1,87,58.75a19.92,19.92,0,0,1,7.1,11.61A19.7,19.7,0,0,1,78.65,93.59a12.07,12.07,0,0,1-3.75.34l-.06-8.5c1.89.28,3.78.55,5.67.85,2.31.37,2.28.38,2.26-2A1,1,0,0,0,82,83.19c-1.11-.44-2.18-1-3.28-1.43a.84.84,0,0,1-.64-.86v-5c0-.59.22-.63.71-.55,1.74.29,3.5.51,5.23.83,2.94.53,2.91.56,2.89-2.45a1.26,1.26,0,0,0-.85-1.31,58.388,58.388,0,0,0-5.45-2.67c-2.09-.77-2.76-2-2.57-4.2C78.3,62.89,77.42,61.93,74.85,61.23Z" fill="#b9e5ed"/>
        <path id="Trazado_132775" data-name="Trazado 132775" d="M87,58.75a20.51,20.51,0,0,0-8.81-3.88,11,11,0,0,0-3.33-.28c-8.36.29-14.42,4.15-18.08,11.7a6,6,0,0,1-.37.51,13,13,0,0,1,11-20.11c6.87-.09,13.75,0,20.62,0A34.78,34.78,0,0,1,87,58.75Z" fill="#26a8df"/>
        <path id="Trazado_132776" data-name="Trazado 132776" d="M74.85,61.23c2.57.7,3.45,1.66,3.23,4.32-.19,2.2.48,3.43,2.57,4.2,1.89.7,3.63,1.8,5.45,2.67a1.26,1.26,0,0,1,.9,1.31c0,3,0,3-2.89,2.45-1.73-.32-3.49-.54-5.23-.83-.49-.08-.72,0-.71.55v5a.84.84,0,0,0,.64.86c1.1.46,2.17,1,3.28,1.43a1,1,0,0,1,.73,1.14c0,2.33,0,2.32-2.26,2-1.89-.3-3.78-.57-5.67-.85l-6.74,1c-1.28.19-1.18.17-1.31-1.12s.25-2.13,1.58-2.42c2.58-.58,3.7-2.09,3.16-4.78-.19-.9.37-2.18-.21-2.7s-1.76.1-2.68.22c-1.69.22-3.36.51-5,.8-.66.12-.88,0-1-.77-.27-2,.32-3.25,2.35-4s3.81-1.89,5.74-2.81a1.19,1.19,0,0,0,.8-1.33V65.83C71.51,62.76,72,62.09,74.85,61.23Z" fill="#fda551"/>
      </g>
    </g>
  </g>
</svg>
