<svg xmlns="http://www.w3.org/2000/svg" width="100" height="100" viewBox="0 0 100 100">
  <g id="Grupo_124807" data-name="Grupo 124807" transform="translate(-752 -2763)">
    <g id="CF8_1.5_tarjeta_2" data-name="CF8_1.5 tarjeta 2" transform="translate(752 2763)">
      <circle id="Elipse_4360" data-name="Elipse 4360" cx="50" cy="50" r="50" fill="#fcd4e0"/>
      <g id="Grupo_62520" data-name="Grupo 62520">
        <path id="Trazado_132708" data-name="Trazado 132708" d="M64.22,64.29l.02-42.49H14.13V64.29Z" fill="#edcc88" fill-rule="evenodd"/>
        <rect id="Rectángulo_7236" data-name="Rectángulo 7236" width="11.77" height="42.49" transform="translate(52.46 21.8)" fill="#d8b05c"/>
        <path id="Trazado_132709" data-name="Trazado 132709" d="M33.89,49.66a5.62,5.62,0,0,1,5,4,2.71,2.71,0,0,0-3.52,0A2.73,2.73,0,0,0,33.89,53v6.16h0a.75.75,0,0,0,.2.51.7.7,0,0,0,.49.22h0a.66.66,0,0,0,.49-.22.71.71,0,0,0,.2-.51h.49a1.27,1.27,0,0,1-.34.88,1.18,1.18,0,0,1-.84.36h0a1.16,1.16,0,0,1-.83-.36,1.23,1.23,0,0,1-.35-.88h0V53a2.73,2.73,0,0,0-1.5.63,2.71,2.71,0,0,0-3.52,0,5.62,5.62,0,0,1,5-4v-.85h.49Z" fill="#59595b" fill-rule="evenodd"/>
        <path id="Trazado_132710" data-name="Trazado 132710" d="M41.09,59.12h8.4v1.24h-8.4V59.12Zm7-.48V51.73h.62l-1.17-2.26-1.17,2.26H47v6.91Zm-4.59,0V51.73h.61L43,49.47l-1.16,2.26h.61v6.91Z" fill="#59595b" fill-rule="evenodd"/>
        <path id="Trazado_132711" data-name="Trazado 132711" d="M25.88,49.61c-.44,3.27-2.06,5.74-4,6V59.5h1.93v.87h-4.5V59.5H21.2V55.6c-2-.25-3.61-2.72-4-6h6.29L24,50.8l-.57-.06L24,52.93l-.19-1.85h.45l-.1-1.49Z" fill="#59595b" fill-rule="evenodd"/>
        <path id="Trazado_132712" data-name="Trazado 132712" d="M30.21,21.8h5.44v8.16l-.87.2-.94-.68-1.4.83-1.05-.81-1.18.7Z" fill="#a5896b" fill-rule="evenodd"/>
        <path id="Trazado_132713" data-name="Trazado 132713" d="M56.97,21.8h2.76v8.16l-.44.2-.48-.68-.71.83-.53-.81-.6.7Z" fill="#a5896b" fill-rule="evenodd"/>
        <rect id="Rectángulo_7237" data-name="Rectángulo 7237" width="88.76" height="10.69" transform="translate(3.5 64.29)" fill="#6c58b8"/>
        <path id="Trazado_132714" data-name="Trazado 132714" d="M10.01,82.88h9.27V81.17H76.49v1.71h9.26v-7.9H10.01Z" fill="#414243" fill-rule="evenodd"/>
        <rect id="Rectángulo_7238" data-name="Rectángulo 7238" width="3.53" height="33.9" transform="translate(79.42 30.39)" fill="#bdbdbe"/>
        <rect id="Rectángulo_7239" data-name="Rectángulo 7239" width="2.64" height="33.9" transform="translate(82.95 30.39)" fill="#808184"/>
        <rect id="Rectángulo_7240" data-name="Rectángulo 7240" width="15.46" height="2.24" transform="translate(75.32 28.15)" fill="#dc662b"/>
        <path id="Trazado_132715" data-name="Trazado 132715" d="M82.5,6.94a14,14,0,0,1,12,21.22h-24a13.84,13.84,0,0,1-2-7.22,14,14,0,0,1,14-14Z" fill="#e67c25" fill-rule="evenodd"/>
        <path id="Trazado_132716" data-name="Trazado 132716" d="M82.5,20.61,72.31,24.32a10.85,10.85,0,1,1,20.39,0Z" fill="#fdf9d7" fill-rule="evenodd"/>
        <path id="Trazado_132717" data-name="Trazado 132717" d="M75.72,12.87l-.11.12,5.62,7.74,1.51-1.32Z" fill="#ec2027" fill-rule="evenodd"/>
      </g>
    </g>
  </g>
</svg>
