<svg xmlns="http://www.w3.org/2000/svg" width="100" height="100" viewBox="0 0 100 100">
  <g id="Grupo_124794" data-name="Grupo 124794" transform="translate(-745 -3297)">
    <g id="CF8_tipo_3_copia_3" data-name="CF8_tipo 3 copia 3" transform="translate(745 3297)">
      <circle id="Elipse_4219" data-name="Elipse 4219" cx="50" cy="50" r="50" fill="#fcd4e0"/>
      <g id="Grupo_61489" data-name="Grupo 61489">
        <path id="Trazado_128810" data-name="Trazado 128810" d="M74.57,41.29h8.65a2.16,2.16,0,0,1,2,1.55V51.9H74.57Z" fill="#fcbe00"/>
        <path id="Trazado_128811" data-name="Trazado 128811" d="M74.57,51.89H85.18v8.5H74.57V51.9Z" fill="#fe7816"/>
        <path id="Trazado_128812" data-name="Trazado 128812" d="M74.57,60.38H85.18v8.5H74.57Z" fill="#fcbe00"/>
        <path id="Trazado_128813" data-name="Trazado 128813" d="M74.57,68.89H85.18v8.5H74.57V68.9Z" fill="#fe7816"/>
        <path id="Trazado_128814" data-name="Trazado 128814" d="M33.92,77.39v6.54a2.16,2.16,0,0,1-1.54,2H23.33V77.4Z" fill="#fcbe00"/>
        <path id="Trazado_128815" data-name="Trazado 128815" d="M59.54,77.39v6.54a2.15,2.15,0,0,1-1.54,2H49V77.38Z" fill="#fcbe00"/>
        <path id="Trazado_128816" data-name="Trazado 128816" d="M23.33,77.4v8.49H14.27a2.59,2.59,0,0,1-1.58-2.77c.08-1.91,0-3.82,0-5.73h10.6Z" fill="#fed300"/>
        <path id="Trazado_128817" data-name="Trazado 128817" d="M49,77.41v8.48H39.89a2.59,2.59,0,0,1-1.58-2.77c.08-1.91,0-3.82,0-5.73Z" fill="#fed300"/>
        <path id="Trazado_128818" data-name="Trazado 128818" d="M65.51,85.89a2.6,2.6,0,0,1-1.58-2.77c.08-1.91,0-3.82,0-5.73H74.57v8.49Z" fill="#fed300"/>
        <path id="Trazado_128819" data-name="Trazado 128819" d="M74.57,85.89V77.4H85.18v7a2.64,2.64,0,0,1-1.55,1.55Z" fill="#fcbe00"/>
        <path id="Trazado_128820" data-name="Trazado 128820" d="M83.63,85.89a2.64,2.64,0,0,0,1.55-1.55c0,.52.21,1.24-.05,1.5S84.15,85.89,83.63,85.89Z" fill="#fefefe"/>
        <path id="Trazado_128821" data-name="Trazado 128821" d="M74.57,41.29v10.6H64V43.34a2,2,0,0,1,2-2.06C68.88,41.26,71.72,41.29,74.57,41.29Z" fill="#fed300"/>
        <path id="Trazado_128822" data-name="Trazado 128822" d="M64,51.9H74.57v8.51L64,60.39Z" fill="#fe9e00"/>
        <path id="Trazado_128823" data-name="Trazado 128823" d="M64,60.39H74.59v8.48H64Z" fill="#fed300"/>
        <path id="Trazado_128824" data-name="Trazado 128824" d="M49,77.41H38.4V68.9H49v8.53Z" fill="#fe9e00"/>
        <path id="Trazado_128825" data-name="Trazado 128825" d="M49,77.38V68.91H59.59v8.5Z" fill="#fe7816"/>
        <path id="Trazado_128826" data-name="Trazado 128826" d="M64,68.9H74.57v8.49H64Z" fill="#fe9e00"/>
        <path id="Trazado_128827" data-name="Trazado 128827" d="M59.54,68.89,49,68.91V60.42h8.62a2,2,0,0,1,2,2C59.57,64.56,59.55,66.73,59.54,68.89Z" fill="#fcbe00"/>
        <path id="Trazado_128828" data-name="Trazado 128828" d="M33.92,77.39H23.33V68.92h8.62a2,2,0,0,1,2,2C34,73.05,33.93,75.22,33.92,77.39Z" fill="#fe7816"/>
        <path id="Trazado_128829" data-name="Trazado 128829" d="M49,60.42v8.46H38.4V62.45a2,2,0,0,1,2.07-2.06C43.26,60.39,46.1,60.41,49,60.42Z" fill="#fed300"/>
        <path id="Trazado_128830" data-name="Trazado 128830" d="M23.33,68.92v8.47H12.73V70.97a2,2,0,0,1,2.07-2.06C17.64,68.89,20.48,68.91,23.33,68.92Z" fill="#fe9e00"/>
      </g>
      <g id="Grupo_61490" data-name="Grupo 61490">
        <path id="Trazado_128831" data-name="Trazado 128831" d="M23.32,49.91l16.3-16.46,8.58,8.58L70.88,19.35" fill="none" stroke="#ef2a66" stroke-linecap="round" stroke-miterlimit="10" stroke-width="2"/>
        <path id="Trazado_128832" data-name="Trazado 128832" d="M70.46,24.56V19.77H65.67l2.03-2.04h4.8v4.8Z" fill="#ef2a66"/>
      </g>
    </g>
  </g>
</svg>
