<svg xmlns="http://www.w3.org/2000/svg" width="100" height="100" viewBox="0 0 100 100">
  <g id="Grupo_124808" data-name="Grupo 124808" transform="translate(-1168 -2763)">
    <g id="CF8_1.5_tarjeta_3" data-name="CF8_1.5 tarjeta 3" transform="translate(1168 2763)">
      <circle id="Elipse_4361" data-name="Elipse 4361" cx="50" cy="50" r="50" fill="#fcd4e0"/>
      <g id="Grupo_62522" data-name="Grupo 62522">
        <g id="Grupo_62521" data-name="Grupo 62521">
          <path id="Trazado_132718" data-name="Trazado 132718" d="M97.77,50.98H67.28L67.27,76.9h30.5Z" fill="#edcc88" fill-rule="evenodd"/>
          <rect id="Rectángulo_7241" data-name="Rectángulo 7241" width="7.16" height="25.92" transform="translate(90.6 50.98)" fill="#d8b05c"/>
          <path id="Trazado_132719" data-name="Trazado 132719" d="M79.3,67.93a3.43,3.43,0,0,1,3.06,2.41,1.65,1.65,0,0,0-1.08-.4,1.61,1.61,0,0,0-1.06.39,1.65,1.65,0,0,0-.92-.39v3.75h0a.48.48,0,0,0,.12.31.42.42,0,0,0,.3.13h0A.42.42,0,0,0,80,74a.48.48,0,0,0,.12-.31h.3a.79.79,0,0,1-.21.54.73.73,0,0,1-.51.22h0a.73.73,0,0,1-.51-.22.79.79,0,0,1-.21-.54h0V69.94a1.59,1.59,0,0,0-.91.39A1.64,1.64,0,0,0,77,69.94a1.67,1.67,0,0,0-1.08.4A3.44,3.44,0,0,1,79,67.93v-.51h.3Z" fill="#59595b" fill-rule="evenodd"/>
          <path id="Trazado_132720" data-name="Trazado 132720" d="M83.68,73.69H88.8v.76H83.68ZM88,73.4V69.2h.38l-.71-1.38-.71,1.38h.37v4.2Zm-2.79,0V69.2h.37l-.71-1.38-.71,1.38h.37v4.2Z" fill="#59595b" fill-rule="evenodd"/>
          <path id="Trazado_132721" data-name="Trazado 132721" d="M74.42,67.91c-.26,2-1.25,3.49-2.46,3.64v2.37h1.18v.53H70.4v-.53h1.18V71.55c-1.21-.15-2.2-1.66-2.47-3.64h3.83l.31.72h-.34l.35,1.33-.12-1.12h.28l-.06-.9Z" fill="#59595b" fill-rule="evenodd"/>
          <path id="Trazado_132722" data-name="Trazado 132722" d="M77.06,50.98h3.31v4.96l-.53.12-.57-.41-.85.51-.64-.5-.72.43Z" fill="#a5896b" fill-rule="evenodd"/>
          <path id="Trazado_132723" data-name="Trazado 132723" d="M93.34,50.98h1.69v4.96l-.27.12-.29-.41-.43.51-.33-.5-.37.43Z" fill="#a5896b" fill-rule="evenodd"/>
        </g>
        <path id="Trazado_132724" data-name="Trazado 132724" d="M47.9,55.74l-2.3,2.49.86,8.43A11.89,11.89,0,0,1,50.34,65c-.48-2-1-4.15-1.66-6.49C48.44,57.62,48.18,56.71,47.9,55.74Z" fill="#6e6f71" fill-rule="evenodd"/>
        <path id="Trazado_132725" data-name="Trazado 132725" d="M22.86,61.82H35.12a2.34,2.34,0,0,1,2.34,2.33v3h-6.8Z" fill="#6e6f71" fill-rule="evenodd"/>
        <path id="Trazado_132726" data-name="Trazado 132726" d="M15.33,57.71H5.65v1.27l9.5-.01.09-.61Z" fill="#dc662b" fill-rule="evenodd"/>
        <path id="Trazado_132727" data-name="Trazado 132727" d="M57.89,61.76h-.72A1.15,1.15,0,0,0,56,62.9V76a1.15,1.15,0,0,0,1.15,1.14h.72V81h5.29V33.93h.47V32.62H59v.57H57.89Z" fill="#6c58b8" fill-rule="evenodd"/>
        <path id="Trazado_132728" data-name="Trazado 132728" d="M52.34,64.69c-.49-2.1-1-4.27-1.72-6.72-1.08-3.91-2.47-8.48-4.46-14.54-.06-.18-.11-.35-.18-.52a7.491,7.491,0,0,0-.53-1.11,9,9,0,0,0-.85-1.23A9.7,9.7,0,0,0,37.15,37L18,37.14v2L15.24,58.36l-.09.61h.1l14.11,9.58L32.8,74l8.17,2a12.15,12.15,0,0,1,1.12-4.35H37.46V67.19h-6.8L17.32,58l2.74-18.88L37.16,39A7.65,7.65,0,0,1,43,41.84a7.25,7.25,0,0,1,.67,1,3.78,3.78,0,0,1,.25.49,8.34,8.34,0,0,1,.35,1c2,6,3.32,10.45,4.37,14.26.65,2.34,1.18,4.44,1.67,6.49a10.86,10.86,0,0,1,2.03-.39Z" fill="#808184" fill-rule="evenodd"/>
        <path id="Trazado_132729" data-name="Trazado 132729" d="M15.25,59H.81v2.36c.45.19.68.27,1.13.45a1,1,0,0,1,.56,1v1.5a1,1,0,0,1-.61.93l-1.08.53v3.85H9l10,1L32.8,74l-3.44-5.46Z" fill="#e67c25" fill-rule="evenodd"/>
        <path id="Trazado_132730" data-name="Trazado 132730" d="M24.85,81H.79V69.57H9l10,1,22,5.49a12.21,12.21,0,0,1,19.18-9.2l-7,10L42.13,81Z" fill="#dc662b" fill-rule="evenodd"/>
        <path id="Trazado_132731" data-name="Trazado 132731" d="M17.42,69.83a19.81,19.81,0,0,0-10,0,4.1,4.1,0,0,0-2,1.42c-2.27,2.65-3,5.93-3.06,9.63a3.21,3.21,0,0,0,1,.12H23c0-3.18-.95-7.17-2.92-9.5A4.7,4.7,0,0,0,17.42,69.83Z" fill="#414243" fill-rule="evenodd"/>
        <path id="Trazado_132732" data-name="Trazado 132732" d="M12.67,86.86a8,8,0,1,1,8-8A8,8,0,0,1,12.67,86.86Z" fill="#6e6f71" fill-rule="evenodd"/>
        <path id="Trazado_132733" data-name="Trazado 132733" d="M12.67,83.46a4.59,4.59,0,1,1,4.59-4.59A4.59,4.59,0,0,1,12.67,83.46Z" fill="#d1d3d2" fill-rule="evenodd"/>
        <path id="Trazado_132734" data-name="Trazado 132734" d="M65.47,52.85H63.59v25a1.38,1.38,0,0,0,1.32.92H82.62l5.55-.8.08-1.09H65.47Z" fill="#e67c25" fill-rule="evenodd"/>
        <path id="Trazado_132735" data-name="Trazado 132735" d="M26.72,59.7c1.21-.87-1.4-4.3-.46-8.48.33-1.46.07-2.12-1-2.26a1.77,1.77,0,0,0-1.09.06c-2.92,1.19.49,8.15.19,12.8H35.28C37.2,59.55,36.5,59,34.55,59,33.05,59.08,28.64,59.57,26.72,59.7Z" fill="#dc662b" fill-rule="evenodd"/>
        <path id="Trazado_132736" data-name="Trazado 132736" d="M53.16,76.87l7.76-7.64A10.89,10.89,0,0,0,43,80.71Z" fill="#414243" fill-rule="evenodd"/>
        <path id="Trazado_132737" data-name="Trazado 132737" d="M53.16,86.42a9.55,9.55,0,1,1,9.54-9.55A9.55,9.55,0,0,1,53.16,86.42Z" fill="#6e6f71" fill-rule="evenodd"/>
        <path id="Trazado_132738" data-name="Trazado 132738" d="M53.16,82.36a5.49,5.49,0,1,1,5.48-5.49A5.49,5.49,0,0,1,53.16,82.36Z" fill="#d1d3d2" fill-rule="evenodd"/>
      </g>
      <path id="Trazado_132739" data-name="Trazado 132739" d="M81.88,36.1a3,3,0,0,0-.64-2A6.09,6.09,0,0,0,79,32.67c-1.07-.44-2.07-.88-3-1.33a10.22,10.22,0,0,1-2.35-1.56,6.07,6.07,0,0,1-1.51-2.06,6.63,6.63,0,0,1-.53-2.82,6.08,6.08,0,0,1,1.87-4.58,8.15,8.15,0,0,1,5-2.09V14.76h2.61V18.3a7.31,7.31,0,0,1,4.72,2.47,7.72,7.72,0,0,1,1.72,5.15H82a4.46,4.46,0,0,0-.65-2.63,2.17,2.17,0,0,0-1.87-.92,2.14,2.14,0,0,0-1.69.68,2.76,2.76,0,0,0-.6,1.88,2.65,2.65,0,0,0,.69,1.93,6.86,6.86,0,0,0,2.22,1.37c1,.43,2,.88,2.88,1.34a10.9,10.9,0,0,1,2.34,1.59,6.54,6.54,0,0,1,1.55,2.07,6.63,6.63,0,0,1,.56,2.84,6.18,6.18,0,0,1-1.79,4.58,7.69,7.69,0,0,1-4.85,2.07V46H78.17V42.71a8.44,8.44,0,0,1-5.5-2.46,7.8,7.8,0,0,1-1.91-5.48h5.53a4.31,4.31,0,0,0,.83,2.85,2.94,2.94,0,0,0,2.36,1,2.31,2.31,0,0,0,1.76-.67A2.5,2.5,0,0,0,81.88,36.1Z" fill="#472ea6"/>
    </g>
  </g>
</svg>
