<svg xmlns="http://www.w3.org/2000/svg" width="100" height="100" viewBox="0 0 100 100">
  <g id="Grupo_124809" data-name="Grupo 124809" transform="translate(-285 -3363)">
    <g id="CF8_1.5_tarjeta_a" data-name="CF8_1.5 tarjeta a" transform="translate(285 3363)">
      <circle id="Elipse_4362" data-name="Elipse 4362" cx="50" cy="50" r="50" fill="#472ea6"/>
      <g id="Grupo_62523" data-name="Grupo 62523">
        <path id="Trazado_132740" data-name="Trazado 132740" d="M9.16,67.31c.28-.14.27-.43.35-.67l2-6A2.41,2.41,0,0,1,14.84,59c2.22.73,4.44,1.46,6.64,2.24a2.37,2.37,0,0,1,1.08,3.87,2.33,2.33,0,0,1-2.55.67c-.45-.12-.89-.28-1.49-.47a35.19,35.19,0,0,0,4.24,6A36.8,36.8,0,0,0,39.44,82.63a2.4,2.4,0,0,1-.16,4.73,3,3,0,0,1-1.41-.22,41.774,41.774,0,0,1-22-17c-.26-.4-.52-.8-.77-1.21s-.47-.77-.73-1.19c-.33.26-.33.62-.44.92a2.44,2.44,0,0,1-2.17,1.84A2.39,2.39,0,0,1,9.3,68.91a1,1,0,0,0-.14-.17Z" fill="#0e84f9"/>
        <path id="Trazado_132741" data-name="Trazado 132741" d="M62.29,36.67A24.047,24.047,0,0,1,65.71,84.5a14.68,14.68,0,0,1-3.57.18,30.26,30.26,0,0,1,.15-4.76,19.23,19.23,0,1,0,0-38.46V36.68Z" fill="#feac5a"/>
        <path id="Trazado_132742" data-name="Trazado 132742" d="M38.21,12.64a21.75,21.75,0,0,1,9,1.76A23.86,23.86,0,0,1,61.74,31.78a27.64,27.64,0,0,1,.55,4.89h0l-.48,4.78a33.42,33.42,0,0,1-2.23,6.22c-.12.2-.26.39-.37.6a24.21,24.21,0,0,1-5.69,6.85,30.57,30.57,0,0,1-4.31,2.93c-.36.16-.73.31-1.08.49A31.21,31.21,0,0,1,43,60.29a4.1,4.1,0,0,0-1.56.18c-1.06.24-2.16,0-3.21.29a.1.1,0,0,1,0-.09V55.83a14.94,14.94,0,0,0,3.41-.22,19.15,19.15,0,0,0,12-7.46A18.71,18.71,0,0,0,57,32.79a18.63,18.63,0,0,0-8.5-12.35,20.23,20.23,0,0,0-10.3-3.08Z" fill="#feac5a"/>
        <path id="Trazado_132743" data-name="Trazado 132743" d="M38.21,12.64v4.72h0c-.93.21-1.89.15-2.83.29A18.61,18.61,0,0,0,23,24.88a18.52,18.52,0,0,0-3.8,14.61,18.48,18.48,0,0,0,6.67,11.89A17.92,17.92,0,0,0,38.2,55.82h0v4.84a22.6,22.6,0,0,1-10-2.2c-7.42-3.61-12.09-9.42-13.57-17.56a23.08,23.08,0,0,1,5.72-20.24A23.49,23.49,0,0,1,34.4,12.93a28.49,28.49,0,0,1,3.81-.29Z" fill="#fed05e"/>
        <path id="Trazado_132744" data-name="Trazado 132744" d="M85.74,29.37c.2-.55.32-.92.46-1.28a2.383,2.383,0,1,1,4.52,1.51c-.74,2.29-1.5,4.58-2.3,6.86A2.34,2.34,0,0,1,85.29,38c-2.27-.74-4.54-1.5-6.79-2.29a2.34,2.34,0,0,1-1.54-3A2.4,2.4,0,0,1,80,31.18a4.24,4.24,0,0,0,1.42.37A37.89,37.89,0,0,0,75,23.2a36,36,0,0,0-14.38-8.85,2.41,2.41,0,0,1-1.85-3.1,2.44,2.44,0,0,1,3.3-1.46,41.2,41.2,0,0,1,19.09,13,44,44,0,0,1,4.58,6.58Z" fill="#f81647"/>
        <path id="Trazado_132745" data-name="Trazado 132745" d="M38.21,60.76c1-.31,2.15,0,3.21-.29A4.1,4.1,0,0,1,43,60.29a17.53,17.53,0,0,0,.57,5.1A19.37,19.37,0,0,0,62.29,79.91h0a30.261,30.261,0,0,0-.15,4.76,23.1,23.1,0,0,1-14.87-5.22,23.64,23.64,0,0,1-8.86-15.53,14,14,0,0,1-.2-3.16Z" fill="#fed05e"/>
        <path id="Trazado_132746" data-name="Trazado 132746" d="M62.29,41.46a19.23,19.23,0,1,1,0,38.46h0v-6h0a10.34,10.34,0,0,0,4.2-.65A12.06,12.06,0,0,0,72.43,69a2.38,2.38,0,0,0-3.84-2.8,8.15,8.15,0,0,1-6.29,2.85h0v-5.9h0A6.85,6.85,0,0,0,63.79,63a2.33,2.33,0,0,0,2-2.51,2.28,2.28,0,0,0-2.23-2.13H62.28v-6h0a6.89,6.89,0,0,1,2.94.51,9.43,9.43,0,0,1,3.53,2.52,2.42,2.42,0,0,0,3.13.19,2.35,2.35,0,0,0,.62-3,5.61,5.61,0,0,0-1-1.29,12.87,12.87,0,0,0-9.19-3.71h0v-6Z" fill="#fed05e"/>
        <path id="Trazado_132747" data-name="Trazado 132747" d="M61.81,41.46l.48-4.78v4.78Z" fill="#fed05e"/>
        <path id="Trazado_132748" data-name="Trazado 132748" d="M38.2,17.36a20.23,20.23,0,0,1,10.3,3.08A18.63,18.63,0,0,1,57,32.79a18.71,18.71,0,0,1-3.4,15.36,19.15,19.15,0,0,1-12,7.46,14.94,14.94,0,0,1-3.41.22h0V51.51A2.28,2.28,0,0,0,40.58,49a1,1,0,0,1,.68-1,6.67,6.67,0,0,0,3.07-2.78,6.77,6.77,0,0,0,.24-7,6.92,6.92,0,0,0-6.37-3.88V29.49h4.69A2.51,2.51,0,0,0,45.38,27a2.3,2.3,0,0,0-2.48-2.3H41.15c-.4,0-.53-.14-.57-.55a2.24,2.24,0,0,0-2.38-2.33V17.37Z" fill="#fed05e"/>
        <path id="Trazado_132749" data-name="Trazado 132749" d="M49.21,58.06a30.57,30.57,0,0,0,4.31-2.93,24.21,24.21,0,0,0,5.69-6.85c.11-.21.25-.4.37-.6a16.319,16.319,0,0,1,2.7-.17h0V52.3h0a6.11,6.11,0,0,0-2.58.33,8.32,8.32,0,0,0-5.38,5.11c-.19.49-.06.64.47.63h7.48v4.79H55c-.79,0-.84.1-.56.82a8.2,8.2,0,0,0,7.81,5.08h0c0,.1-.12.2-.11.29a42.062,42.062,0,0,1,.1,4.49h0a12,12,0,0,1-5-.93,13.15,13.15,0,0,1-5.08-3.67,12.62,12.62,0,0,1-3.12-7.8,14.89,14.89,0,0,1,.17-3.38Z" fill="#fed05e"/>
        <path id="Trazado_132750" data-name="Trazado 132750" d="M49.21,58.06a14.89,14.89,0,0,0-.15,3.4,12.62,12.62,0,0,0,3.12,7.8,13.15,13.15,0,0,0,5.08,3.67,12,12,0,0,0,5,.93v6A19.37,19.37,0,0,1,43.55,65.39a17.53,17.53,0,0,1-.57-5.1,31.211,31.211,0,0,0,5.15-1.74C48.48,58.37,48.85,58.22,49.21,58.06Z" fill="#fee35c"/>
        <path id="Trazado_132751" data-name="Trazado 132751" d="M62.28,47.51a16.319,16.319,0,0,0-2.7.17,33.42,33.42,0,0,0,2.23-6.22h.48Q62.29,44.49,62.28,47.51Z" fill="#fee35c"/>
        <path id="Trazado_132752" data-name="Trazado 132752" d="M38.19,17.37v4.46h0a2.25,2.25,0,0,0-2.38,2.4,1.05,1.05,0,0,1-.73,1.15,6.31,6.31,0,0,0-2.76,2.34,6.81,6.81,0,0,0-.59,7.3,7.07,7.07,0,0,0,6.46,4h0v4.79H33.58A2.48,2.48,0,0,0,31,46.31a2.36,2.36,0,0,0,2.56,2.34,13.293,13.293,0,0,1,1.67,0c.4,0,.54.13.58.55a2.23,2.23,0,0,0,2.38,2.33h0v4.31A17.92,17.92,0,0,1,25.86,51.4,18.48,18.48,0,0,1,19.2,39.49,18.52,18.52,0,0,1,23,24.88a18.61,18.61,0,0,1,12.36-7.22C36.3,17.52,37.26,17.58,38.19,17.37Z" fill="#fee35c"/>
        <path id="Trazado_132753" data-name="Trazado 132753" d="M62.29,73.85a42.064,42.064,0,0,0-.1-4.49.951.951,0,0,1,.11-.29,8.15,8.15,0,0,0,6.29-2.85A2.38,2.38,0,0,1,72.43,69a12.06,12.06,0,0,1-5.94,4.18A10.34,10.34,0,0,1,62.29,73.85Z" fill="#feac5a"/>
        <path id="Trazado_132754" data-name="Trazado 132754" d="M62.3,52.31V47.52a12.87,12.87,0,0,1,9.19,3.71,5.61,5.61,0,0,1,1,1.29,2.35,2.35,0,0,1-.62,3,2.42,2.42,0,0,1-3.13-.19,9.43,9.43,0,0,0-3.53-2.52,6.89,6.89,0,0,0-2.91-.5Z" fill="#feac5a"/>
        <path id="Trazado_132755" data-name="Trazado 132755" d="M62.28,58.36H54.8c-.53,0-.66-.14-.47-.63a8.32,8.32,0,0,1,5.38-5.11,6.11,6.11,0,0,1,2.58-.33Q62.29,55.34,62.28,58.36Z" fill="#fee35c"/>
        <path id="Trazado_132756" data-name="Trazado 132756" d="M62.29,69.06A8.2,8.2,0,0,1,54.48,64c-.28-.72-.23-.82.56-.82h7.25Z" fill="#fee35c"/>
        <path id="Trazado_132757" data-name="Trazado 132757" d="M62.3,63.16V58.37h1.28A2.28,2.28,0,0,1,65.8,60.5a2.33,2.33,0,0,1-2,2.51,6.85,6.85,0,0,1-1.5.15Z" fill="#feac5a"/>
        <path id="Trazado_132758" data-name="Trazado 132758" d="M38.2,34.28a6.92,6.92,0,0,1,6.37,3.88,6.77,6.77,0,0,1-.24,7A6.67,6.67,0,0,1,41.26,48a1,1,0,0,0-.68,1,2.28,2.28,0,0,1-2.38,2.5h0V43.85h0a2.29,2.29,0,0,0,2.39-2.38,2.39,2.39,0,0,0-2.39-2.41h0V34.28Z" fill="#feac5a"/>
        <path id="Trazado_132759" data-name="Trazado 132759" d="M38.2,21.83a2.24,2.24,0,0,1,2.38,2.33c0,.41.17.56.57.55H42.9A2.3,2.3,0,0,1,45.38,27a2.51,2.51,0,0,1-2.49,2.47H38.2Z" fill="#feac5a"/>
        <path id="Trazado_132760" data-name="Trazado 132760" d="M38.2,29.49v4.79h0a2.37,2.37,0,0,1-2.4-2.49,2.29,2.29,0,0,1,2.4-2.3Z" fill="#fee35c"/>
        <path id="Trazado_132761" data-name="Trazado 132761" d="M38.2,29.49a2.29,2.29,0,0,0-2.4,2.3,2.37,2.37,0,0,0,2.4,2.49v4.78a7.07,7.07,0,0,1-6.46-4,6.81,6.81,0,0,1,.59-7.3,6.31,6.31,0,0,1,2.76-2.34,1.05,1.05,0,0,0,.73-1.15,2.25,2.25,0,0,1,2.38-2.4Z" fill="#fed05e"/>
        <path id="Trazado_132762" data-name="Trazado 132762" d="M38.2,43.85v7.66a2.23,2.23,0,0,1-2.38-2.33c0-.42-.18-.56-.58-.55-.56,0-1.13-.05-1.67,0A2.36,2.36,0,0,1,31,46.31a2.48,2.48,0,0,1,2.57-2.46Z" fill="#fed05e"/>
        <path id="Trazado_132763" data-name="Trazado 132763" d="M38.2,39.06a2.39,2.39,0,0,1,2.39,2.41,2.29,2.29,0,0,1-2.39,2.38Z" fill="#fed05e"/>
      </g>
    </g>
  </g>
</svg>
