<svg xmlns="http://www.w3.org/2000/svg" width="100.42" height="100" viewBox="0 0 100.42 100">
  <g id="Grupo_124788" data-name="Grupo 124788" transform="translate(-744 -2339)">
    <g id="CF8_tipo_1" data-name="CF8_tipo 1" transform="translate(744.21 2339)">
      <circle id="Elipse_4216" data-name="Elipse 4216" cx="50" cy="50" r="50" fill="#fcd4e0"/>
      <g id="Grupo_61484" data-name="Grupo 61484">
        <path id="Trazado_128759" data-name="Trazado 128759" d="M30.17,24.77H23.82L18.28,35.45h7.71V31.58h4.18Z" fill="#ef2a66" fill-rule="evenodd"/>
        <path id="Trazado_128760" data-name="Trazado 128760" d="M22.89,26.56l-1.44,2.79h8.72V26.56Z" fill="#fed2a8" fill-rule="evenodd"/>
        <path id="Trazado_128761" data-name="Trazado 128761" d="M38.83,40.83H75.37V58.25H64.58V57.7H62.16v.55H58.31V57.7H55.89v.55H52.05V57.7H49.63v.55H38.83Z" fill="#e67c25" fill-rule="evenodd"/>
        <rect id="Rectángulo_7145" data-name="Rectángulo 7145" width="0.85" height="15.93" transform="translate(40.11 41.33)" fill="#dc662b"/>
        <rect id="Rectángulo_7146" data-name="Rectángulo 7146" width="0.85" height="15.93" transform="translate(41.77 41.33)" fill="#dc662b"/>
        <rect id="Rectángulo_7147" data-name="Rectángulo 7147" width="0.86" height="15.93" transform="translate(43.42 41.33)" fill="#dc662b"/>
        <rect id="Rectángulo_7148" data-name="Rectángulo 7148" width="0.85" height="15.93" transform="translate(45.08 41.33)" fill="#dc662b"/>
        <rect id="Rectángulo_7149" data-name="Rectángulo 7149" width="0.85" height="15.93" transform="translate(46.74 41.33)" fill="#dc662b"/>
        <rect id="Rectángulo_7150" data-name="Rectángulo 7150" width="0.86" height="15.93" transform="translate(48.39 41.33)" fill="#dc662b"/>
        <rect id="Rectángulo_7151" data-name="Rectángulo 7151" width="0.85" height="15.93" transform="translate(50.05 41.33)" fill="#dc662b"/>
        <rect id="Rectángulo_7152" data-name="Rectángulo 7152" width="0.86" height="15.93" transform="translate(51.71 41.33)" fill="#dc662b"/>
        <rect id="Rectángulo_7153" data-name="Rectángulo 7153" width="0.86" height="15.93" transform="translate(53.36 41.33)" fill="#dc662b"/>
        <rect id="Rectángulo_7154" data-name="Rectángulo 7154" width="0.86" height="15.93" transform="translate(55.02 41.33)" fill="#dc662b"/>
        <rect id="Rectángulo_7155" data-name="Rectángulo 7155" width="0.86" height="15.93" transform="translate(56.67 41.33)" fill="#dc662b"/>
        <rect id="Rectángulo_7156" data-name="Rectángulo 7156" width="0.86" height="15.93" transform="translate(58.33 41.33)" fill="#dc662b"/>
        <rect id="Rectángulo_7157" data-name="Rectángulo 7157" width="0.85" height="15.93" transform="translate(59.99 41.33)" fill="#dc662b"/>
        <rect id="Rectángulo_7158" data-name="Rectángulo 7158" width="0.86" height="15.93" transform="translate(61.64 41.33)" fill="#dc662b"/>
        <rect id="Rectángulo_7159" data-name="Rectángulo 7159" width="0.85" height="15.93" transform="translate(63.3 41.33)" fill="#dc662b"/>
        <rect id="Rectángulo_7160" data-name="Rectángulo 7160" width="0.85" height="15.93" transform="translate(64.96 41.33)" fill="#dc662b"/>
        <rect id="Rectángulo_7161" data-name="Rectángulo 7161" width="0.86" height="15.93" transform="translate(66.61 41.33)" fill="#dc662b"/>
        <rect id="Rectángulo_7162" data-name="Rectángulo 7162" width="0.86" height="15.93" transform="translate(68.27 41.33)" fill="#dc662b"/>
        <rect id="Rectángulo_7163" data-name="Rectángulo 7163" width="0.86" height="15.93" transform="translate(69.93 41.33)" fill="#dc662b"/>
        <rect id="Rectángulo_7164" data-name="Rectángulo 7164" width="0.85" height="15.93" transform="translate(71.58 41.33)" fill="#dc662b"/>
        <rect id="Rectángulo_7165" data-name="Rectángulo 7165" width="0.85" height="15.93" transform="translate(73.24 41.33)" fill="#dc662b"/>
        <path id="Trazado_128762" data-name="Trazado 128762" d="M62.07,55.41h38.14l-1.64,3.28C91.46,61.24,81,69.58,75.75,78.05H10.31l-10.52-17v-2.8H60.06a2,2,0,0,0,2-2Z" fill="#26a8df" fill-rule="evenodd"/>
        <path id="Trazado_128763" data-name="Trazado 128763" d="M80.09,72.29a41.779,41.779,0,0,0-4.34,5.76H10.31L6.75,72.29Z" fill="#35237d" fill-rule="evenodd"/>
        <path id="Trazado_128764" data-name="Trazado 128764" d="M83.85,59.12c.59,0,.92.6.74,1.35a1.68,1.68,0,0,1-1.39,1.35c-.59,0-.92-.61-.75-1.35A1.69,1.69,0,0,1,83.85,59.12Z" fill="#e67c25" fill-rule="evenodd"/>
        <rect id="Rectángulo_7166" data-name="Rectángulo 7166" width="16.88" height="22.82" transform="translate(9.11 35.45)" fill="#d8b05c"/>
        <path id="Trazado_128765" data-name="Trazado 128765" d="M36.68,58.27H18.4V40.56h7.59V31.58H36.68Z" fill="#d1d3d2" fill-rule="evenodd"/>
        <rect id="Rectángulo_7167" data-name="Rectángulo 7167" width="8.52" height="2.87" transform="translate(28.16 34.53)" fill="#a4c3d1"/>
        <rect id="Rectángulo_7168" data-name="Rectángulo 7168" width="1.14" height="1.6" transform="translate(21.51 42.92)" fill="#939597"/>
        <rect id="Rectángulo_7169" data-name="Rectángulo 7169" width="1.14" height="1.6" transform="translate(21.51 46.42)" fill="#939597"/>
        <rect id="Rectángulo_7170" data-name="Rectángulo 7170" width="1.14" height="1.6" transform="translate(21.51 49.92)" fill="#939597"/>
        <rect id="Rectángulo_7171" data-name="Rectángulo 7171" width="1.14" height="1.6" transform="translate(24.71 42.92)" fill="#939597"/>
        <rect id="Rectángulo_7172" data-name="Rectángulo 7172" width="1.14" height="1.6" transform="translate(24.71 46.42)" fill="#939597"/>
        <rect id="Rectángulo_7173" data-name="Rectángulo 7173" width="1.14" height="1.6" transform="translate(24.71 49.92)" fill="#939597"/>
        <rect id="Rectángulo_7174" data-name="Rectángulo 7174" width="1.14" height="1.6" transform="translate(27.91 42.92)" fill="#939597"/>
        <rect id="Rectángulo_7175" data-name="Rectángulo 7175" width="1.14" height="1.6" transform="translate(27.91 46.42)" fill="#939597"/>
        <rect id="Rectángulo_7176" data-name="Rectángulo 7176" width="1.14" height="1.6" transform="translate(27.91 49.92)" fill="#939597"/>
        <rect id="Rectángulo_7177" data-name="Rectángulo 7177" width="1.14" height="1.6" transform="translate(31.11 42.92)" fill="#939597"/>
        <rect id="Rectángulo_7178" data-name="Rectángulo 7178" width="1.14" height="1.6" transform="translate(31.11 46.42)" fill="#939597"/>
        <rect id="Rectángulo_7179" data-name="Rectángulo 7179" width="1.14" height="1.6" transform="translate(31.11 49.92)" fill="#939597"/>
        <path id="Trazado_128766" data-name="Trazado 128766" d="M20.61,65.93a1.84,1.84,0,1,0-1.84-1.84,1.84,1.84,0,0,0,1.84,1.84Z" fill="#a4c3d1" fill-rule="evenodd"/>
        <path id="Trazado_128767" data-name="Trazado 128767" d="M28.28,65.93a1.84,1.84,0,1,0-1.84-1.84A1.84,1.84,0,0,0,28.28,65.93Z" fill="#a4c3d1" fill-rule="evenodd"/>
        <path id="Trazado_128768" data-name="Trazado 128768" d="M35.94,65.93a1.84,1.84,0,1,0-1.84-1.84,1.84,1.84,0,0,0,1.84,1.84Z" fill="#a4c3d1" fill-rule="evenodd"/>
        <path id="Trazado_128769" data-name="Trazado 128769" d="M43.6,65.93a1.84,1.84,0,1,0-1.84-1.84A1.84,1.84,0,0,0,43.6,65.93Z" fill="#a4c3d1" fill-rule="evenodd"/>
        <path id="Trazado_128770" data-name="Trazado 128770" d="M51.26,65.93a1.84,1.84,0,1,0-1.84-1.84,1.84,1.84,0,0,0,1.84,1.84Z" fill="#a4c3d1" fill-rule="evenodd"/>
        <path id="Trazado_128771" data-name="Trazado 128771" d="M58.92,65.93a1.84,1.84,0,1,0-1.84-1.84A1.84,1.84,0,0,0,58.92,65.93Z" fill="#a4c3d1" fill-rule="evenodd"/>
        <path id="Trazado_128772" data-name="Trazado 128772" d="M66.58,65.93a1.84,1.84,0,1,0-1.84-1.84A1.84,1.84,0,0,0,66.58,65.93Z" fill="#a4c3d1" fill-rule="evenodd"/>
      </g>
    </g>
  </g>
</svg>
