<svg xmlns="http://www.w3.org/2000/svg" xmlns:xlink="http://www.w3.org/1999/xlink" width="150" height="150" viewBox="0 0 150 150">
  <defs>
    <linearGradient id="linear-gradient" y1="0.502" x2="1" y2="0.502" gradientUnits="objectBoundingBox">
      <stop offset="0" stop-color="#703722"/>
      <stop offset="0.52" stop-color="#9b573f"/>
      <stop offset="0.53" stop-color="#8b4b34"/>
    </linearGradient>
    <linearGradient id="linear-gradient-2" x1="0" y1="0.498" x2="1" y2="0.498" xlink:href="#linear-gradient"/>
    <linearGradient id="linear-gradient-3" y1="0.501" x2="1" y2="0.501" gradientUnits="objectBoundingBox">
      <stop offset="0.01" stop-color="#5a2f23"/>
      <stop offset="1" stop-color="#773c2c"/>
    </linearGradient>
    <linearGradient id="linear-gradient-4" x1="0" y1="0.499" x2="1" y2="0.499" xlink:href="#linear-gradient"/>
    <linearGradient id="linear-gradient-5" x1="0.001" y1="0.501" x2="1.001" y2="0.501" xlink:href="#linear-gradient-3"/>
    <linearGradient id="linear-gradient-6" x1="0" y1="0.5" x2="0.999" y2="0.5" xlink:href="#linear-gradient-3"/>
    <linearGradient id="linear-gradient-7" x1="0" y1="0.5" x2="0.999" y2="0.5" xlink:href="#linear-gradient"/>
    <linearGradient id="linear-gradient-8" x1="0" y1="0.5" x2="1" y2="0.5" xlink:href="#linear-gradient-3"/>
    <linearGradient id="linear-gradient-9" x1="0" y1="0.5" x2="1" y2="0.5" xlink:href="#linear-gradient"/>
    <linearGradient id="linear-gradient-10" x1="0.004" y1="0.5" x2="1.002" y2="0.5" xlink:href="#linear-gradient-3"/>
    <radialGradient id="radial-gradient" cx="0.781" cy="0.865" r="1.236" gradientTransform="translate(0.169) scale(0.662 1)" gradientUnits="objectBoundingBox">
      <stop offset="0" stop-color="#99563e"/>
      <stop offset="0.13" stop-color="#8f4e39"/>
      <stop offset="0.49" stop-color="#773c2c"/>
      <stop offset="0.9" stop-color="#603225"/>
      <stop offset="1" stop-color="#5a2f23"/>
    </radialGradient>
    <linearGradient id="linear-gradient-11" y1="0.504" x2="1.001" y2="0.504" gradientUnits="objectBoundingBox">
      <stop offset="0" stop-color="#703722"/>
      <stop offset="1" stop-color="#9b573f"/>
    </linearGradient>
    <radialGradient id="radial-gradient-2" cx="0.661" cy="0.133" r="0.896" gradientTransform="translate(0)" gradientUnits="objectBoundingBox">
      <stop offset="0" stop-color="#99563e"/>
      <stop offset="0.11" stop-color="#8f4e39"/>
      <stop offset="0.4" stop-color="#773c2c"/>
      <stop offset="0.71" stop-color="#603225"/>
      <stop offset="0.78" stop-color="#5a2f23"/>
      <stop offset="0.86" stop-color="#5e3124"/>
      <stop offset="0.95" stop-color="#693628"/>
      <stop offset="1" stop-color="#743b2b"/>
    </radialGradient>
    <linearGradient id="linear-gradient-12" y1="0.503" x2="0.999" y2="0.503" gradientUnits="objectBoundingBox">
      <stop offset="0" stop-color="#96533c"/>
      <stop offset="1" stop-color="#8e4d36"/>
    </linearGradient>
    <linearGradient id="linear-gradient-13" y1="0.5" x2="1" y2="0.5" gradientUnits="objectBoundingBox">
      <stop offset="0" stop-color="#ecb217"/>
      <stop offset="0.55" stop-color="#d89000"/>
      <stop offset="0.79" stop-color="#cc8400"/>
      <stop offset="1" stop-color="#be7600"/>
    </linearGradient>
    <linearGradient id="linear-gradient-14" y1="0.5" x2="1" y2="0.5" gradientUnits="objectBoundingBox">
      <stop offset="0" stop-color="#be7600"/>
      <stop offset="0.21" stop-color="#cc8400"/>
      <stop offset="0.45" stop-color="#d89000"/>
      <stop offset="0.67" stop-color="#e6a710"/>
      <stop offset="1" stop-color="#fac826"/>
    </linearGradient>
    <linearGradient id="linear-gradient-15" x1="0.51" y1="0.055" x2="0.484" y2="1.304" gradientUnits="objectBoundingBox">
      <stop offset="0" stop-color="#f8d763"/>
      <stop offset="0.19" stop-color="#e9bb41"/>
      <stop offset="0.4" stop-color="#dda324"/>
      <stop offset="0.6" stop-color="#d49210"/>
      <stop offset="0.8" stop-color="#cf8804"/>
      <stop offset="1" stop-color="#cd8500"/>
    </linearGradient>
    <linearGradient id="linear-gradient-16" x1="0.509" y1="0.04" x2="0.484" y2="1.298" xlink:href="#linear-gradient-15"/>
    <linearGradient id="linear-gradient-17" x1="0.561" y1="0.033" x2="0.387" y2="0.961" xlink:href="#linear-gradient-15"/>
    <linearGradient id="linear-gradient-18" x1="0" y1="0.5" x2="1" y2="0.5" xlink:href="#linear-gradient-13"/>
    <linearGradient id="linear-gradient-19" x1="0" y1="0.5" x2="1" y2="0.5" xlink:href="#linear-gradient-14"/>
    <linearGradient id="linear-gradient-20" x1="0.51" y1="0.055" x2="0.485" y2="1.301" xlink:href="#linear-gradient-15"/>
    <linearGradient id="linear-gradient-21" x1="0.508" y1="0.04" x2="0.484" y2="1.301" xlink:href="#linear-gradient-15"/>
    <linearGradient id="linear-gradient-22" x1="0.587" y1="0.033" x2="0.421" y2="0.963" xlink:href="#linear-gradient-15"/>
  </defs>
  <g id="Grupo_124796" data-name="Grupo 124796" transform="translate(-1033 -3796)">
    <g id="CF8_articulo_83" data-name="CF8_articulo 83" transform="translate(1033 3796)">
      <g id="Layer_1" data-name="Layer 1">
        <g id="Grupo_62092" data-name="Grupo 62092">
          <circle id="Elipse_4232" data-name="Elipse 4232" cx="72.5" cy="72.5" r="72.5" transform="translate(2.5 2.5)" fill="#e4ddfb"/>
          <path id="Trazado_130843" data-name="Trazado 130843" d="M75,5A70,70,0,1,1,5,75,70,70,0,0,1,75,5m0-5a75,75,0,1,0,75,75A75,75,0,0,0,75,0Z" fill="#b5abdb"/>
        </g>
        <g id="Grupo_62093" data-name="Grupo 62093">
          <path id="Trazado_130844" data-name="Trazado 130844" d="M68.89,55.18A18.25,18.25,0,0,1,66,65.3a20.53,20.53,0,0,1-7.86,7,22.74,22.74,0,0,1,9,7.57A19.36,19.36,0,0,1,70.48,91.2q0,10.45-7.1,16.51t-19.33,6q-12.23,0-19.39-6.08T17.58,91.25a19.5,19.5,0,0,1,3.34-11.36,22.33,22.33,0,0,1,9-7.54,20.3,20.3,0,0,1-7.83-7,18.32,18.32,0,0,1-2.83-10.12q0-10,6.68-16t18.14-6q11.42,0,18.12,5.9T68.89,55.18ZM55,90.12a11.29,11.29,0,0,0-3-8.18,10.55,10.55,0,0,0-8-3.07,10.54,10.54,0,0,0-7.92,3,11.29,11.29,0,0,0-3,8.21,11.27,11.27,0,0,0,2.91,8.08,10.62,10.62,0,0,0,8.08,3.07,10.58,10.58,0,0,0,7.94-3Q55,95.34,55,90.12ZM53.33,55.93a10.8,10.8,0,0,0-2.42-7.35,8.61,8.61,0,0,0-6.84-2.77,8.62,8.62,0,0,0-6.78,2.69,10.68,10.68,0,0,0-2.43,7.43,11.24,11.24,0,0,0,2.43,7.54,8.47,8.47,0,0,0,6.84,2.85,8.41,8.41,0,0,0,6.81-2.85,11.38,11.38,0,0,0,2.39-7.54Z" fill="#b5abdb"/>
          <path id="Trazado_130845" data-name="Trazado 130845" d="M96.89,66.65h8.3c3.94,0,6.87-1,8.77-3a10.85,10.85,0,0,0,2.86-7.86A9.58,9.58,0,0,0,114,48.45a11,11,0,0,0-7.78-2.64,11.46,11.46,0,0,0-7.49,2.45,7.82,7.82,0,0,0-3,6.38H80.15a19.12,19.12,0,0,1,3.31-11A22,22,0,0,1,92.72,36a30.94,30.94,0,0,1,13.11-2.75q12.44,0,19.49,6t7.06,16.4a16.47,16.47,0,0,1-3.29,9.9,21.36,21.36,0,0,1-8.61,6.95,19.49,19.49,0,0,1,9.88,7.11,19.29,19.29,0,0,1,3.26,11.2q0,10.44-7.62,16.74t-20.17,6.3q-11.73,0-19.19-6.19a20.2,20.2,0,0,1-7.46-16.37H94.74a9,9,0,0,0,3.31,7.22,12.25,12.25,0,0,0,8.16,2.8q5.54,0,8.69-2.94a10.12,10.12,0,0,0,3.15-7.78q0-11.73-12.92-11.74H96.89Z" fill="#b5abdb"/>
        </g>
        <g id="Grupo_62105" data-name="Grupo 62105">
          <g id="_2" data-name="2">
            <g id="Grupo_62094" data-name="Grupo 62094">
              <path id="Trazado_130846" data-name="Trazado 130846" d="M87.5,124c-6.8-4.09-18.06-4.21-25.14-.25s-7.32,10.47-.53,14.56,18.06,4.21,25.15.25S94.3,128.12,87.5,124Zm-2.89,12.28c-5.73,3.2-14.82,3.1-20.31-.2s-5.3-8.57.42-11.77,14.82-3.1,20.31.21,5.3,8.6-.42,11.79Z" fill="url(#linear-gradient)"/>
              <path id="Trazado_130847" data-name="Trazado 130847" d="M85,123.39c-.43-.26-.89-.5-1.37-.73a23,23,0,0,0-18,.06,9.761,9.761,0,0,0-.91.47C59,126.38,58.8,131.64,64.3,135s14.58,3.4,20.3.2S90.52,126.7,85,123.39Z" fill="url(#linear-gradient-2)"/>
              <path id="Trazado_130848" data-name="Trazado 130848" d="M72.45,121a24.59,24.59,0,0,0-10.09,2.8c-4.63,2.57-6.31,6.24-5,9.62h4v-1.15H74.67Z" fill="#5a2f23" opacity="0.5"/>
              <path id="Trazado_130849" data-name="Trazado 130849" d="M81.51,122.92a2.24,2.24,0,0,1-.79-.64,8.45,8.45,0,0,1-1.5-5.19H70.03a12.65,12.65,0,0,1-.29,2.74,6.38,6.38,0,0,1-1.15,2.47,2.2,2.2,0,0,1-.78.64c-1.77,1.06-2.64,2.43-2.65,3.79s.88,2.74,2.64,3.81a14.82,14.82,0,0,0,13.43.13c2-1.09,2.93-2.54,2.92-4S83.27,124,81.51,122.92Z" fill="url(#linear-gradient-3)"/>
              <path id="Trazado_130850" data-name="Trazado 130850" d="M77.94,115.25c1.76,1.06,1.7,2.75-.13,3.77a7.16,7.16,0,0,1-6.5-.07c-1.76-1-1.7-2.74.13-3.76a7.19,7.19,0,0,1,6.5.06Z" fill="url(#linear-gradient-4)"/>
              <path id="Trazado_130851" data-name="Trazado 130851" d="M89,129.13c0,2.19-1.47,4.38-4.42,6-5.72,3.2-14.81,3.1-20.3-.2-2.67-1.61-4-3.67-4-5.74v1.16c0,2.07,1.33,4.13,4,5.74,5.49,3.3,14.58,3.4,20.31.2,2.94-1.64,4.42-3.83,4.42-6Z" fill="url(#linear-gradient-5)"/>
              <path id="Trazado_130852" data-name="Trazado 130852" d="M92.45,131.13c0,2.72-1.83,5.43-5.47,7.46-7.09,4-18.35,3.84-25.15-.25-3.3-2-4.94-4.54-4.95-7.1v.88c0,2.56,1.65,5.12,5,7.11,6.8,4.09,18,4.2,25.14.25,3.65-2,5.48-4.75,5.47-7.46Z" fill="url(#linear-gradient-6)"/>
            </g>
            <g id="Axonometric_Cylinder" data-name="Axonometric Cylinder">
              <ellipse id="Cylinder_face" data-name="Cylinder face" cx="3.91" cy="2.26" rx="3.91" ry="2.26" transform="translate(70.74 33.6)" fill="url(#linear-gradient-7)"/>
              <path id="Cylinder_body" data-name="Cylinder body" d="M70.74,35.83v81a1.92,1.92,0,0,0,1.14,1.61,6.06,6.06,0,0,0,5.53,0,2,2,0,0,0,1.14-1.57V35.88a2,2,0,0,1-1.14,1.57,6.12,6.12,0,0,1-5.53,0A1.92,1.92,0,0,1,70.74,35.83Z" fill="url(#linear-gradient-8)"/>
            </g>
          </g>
          <path id="Trazado_130853" data-name="Trazado 130853" d="M54.66,115.13,22.94,96.82a31.77,31.77,0,0,0-9.79,3.48c-9.79,5.65-9.79,14.82,0,20.47s25.67,5.66,35.46,0a16,16,0,0,0,6.05-5.64Z" fill="#393d48" opacity="0.4"/>
          <g id="Grupo_62104" data-name="Grupo 62104">
            <g id="Grupo_62095" data-name="Grupo 62095">
              <path id="Trazado_130854" data-name="Trazado 130854" d="M115.46.79a.25.25,0,0,0-.26,0,.47.47,0,0,0-.12.09,11.85,11.85,0,0,1-2,1.49,6.07,6.07,0,0,1-3.42.9l.88.51A6.07,6.07,0,0,0,114,2.9a11.85,11.85,0,0,0,2-1.49l.12-.09a.25.25,0,0,1,.26,0Z" fill="#8e4d36"/>
              <path id="Trazado_130855" data-name="Trazado 130855" d="M77.73,22.75l-.88-.51L109.67,3.29l.88.51Z" fill="#96533c"/>
              <path id="Trazado_130856" data-name="Trazado 130856" d="M77.74,27.03l-.88-.51-.01-4.28.88.51Z" fill="#402018"/>
              <path id="Trazado_130857" data-name="Trazado 130857" d="M116.08,1.32c.33-.2.53.22.24.66A11.32,11.32,0,0,1,113,5.32L77.74,27V22.75L110.55,3.8A6.07,6.07,0,0,0,114,2.9a11.85,11.85,0,0,0,2-1.49Z" fill="#773c2c"/>
            </g>
            <g id="Axonometric_Cube" data-name="Axonometric Cube">
              <path id="Cube_face_-_top" data-name="Cube face - top" d="M74.67,23.94l-5.84-3.37,5.84-3.37,5.84,3.37Z" fill="url(#linear-gradient-9)"/>
              <path id="Cube_face_-_left" data-name="Cube face - left" d="M74.67,40.75l-5.84-3.37V20.57l5.84,3.37Z" fill="#5a2f23"/>
              <path id="Trazado_130858" data-name="Trazado 130858" d="M72.32,24.27l-1.68-.97V36.56l1.68.97Z" fill="#5a2f23" opacity="0.5"/>
              <path id="Cube_face_-_right" data-name="Cube face - right" d="M80.51,37.38l-5.84,3.37V23.94l5.84-3.37Z" fill="#773c2c"/>
            </g>
            <path id="Trazado_130859" data-name="Trazado 130859" d="M74.38,17.37l-5.55,3.2,2.52,1.46h3.32Z" fill="#5a2f23" opacity="0.5"/>
            <g id="Grupo_62098" data-name="Grupo 62098">
              <path id="Trazado_130860" data-name="Trazado 130860" d="M77.46,17.87a14.54,14.54,0,0,0-1.72-4.32.7.7,0,0,0-.26-.25c.11.2.2.41.29.61a.67.67,0,0,1-.32.33,1.8,1.8,0,0,1-1.63,0c-.31-.19-.4-.45-.26-.68-2.13,3.7-2,6.39-1.89,6.89a1.56,1.56,0,0,0,.83,1.08,4.68,4.68,0,0,0,4.25,0,1.59,1.59,0,0,0,.91-1.13.62.62,0,0,0,0-.13A8.2,8.2,0,0,0,77.46,17.87Z" fill="url(#linear-gradient-10)"/>
              <g id="Grupo_62097" data-name="Grupo 62097">
                <g id="Grupo_62096" data-name="Grupo 62096">
                  <path id="Trazado_130861" data-name="Trazado 130861" d="M76.4,11.76a3.66,3.66,0,0,0-3.43,0,1.91,1.91,0,0,0-.76.71c-.78,1.36,1.18,2.7,3.27,2.23C77.19,14.28,78,12.77,76.4,11.76Z" fill="url(#radial-gradient)"/>
                  <path id="Trazado_130862" data-name="Trazado 130862" d="M76.6,13.44c-.18-.3-2.24.24-2.25.59a.2.2,0,0,0,.06.12c.39.39,2.06.07,2.2-.57a.22.22,0,0,0-.01-.14Z" opacity="0.5" fill="url(#linear-gradient-11)"/>
                </g>
              </g>
              <path id="Trazado_130863" data-name="Trazado 130863" d="M79.8,7.73a5.2,5.2,0,1,1-5.19-5.19A5.2,5.2,0,0,1,79.8,7.73Z" fill="url(#radial-gradient-2)"/>
            </g>
            <g id="Grupo_62099" data-name="Grupo 62099">
              <path id="Trazado_130864" data-name="Trazado 130864" d="M39.51,44.82l-.88-.51L72.32,24.84l.01,1.02Z" fill="#96533c"/>
              <path id="Trazado_130865" data-name="Trazado 130865" d="M38.63,44.31a12.77,12.77,0,0,1-3.41,3,7.44,7.44,0,0,1-2,.81l-.11.05c-.33.18-.52.78-.28.92l.88.51c-.24-.14-.05-.74.27-.92a.31.31,0,0,1,.12,0,7.26,7.26,0,0,0,2-.81,12.79,12.79,0,0,0,3.42-3Z" fill="url(#linear-gradient-12)"/>
              <path id="Trazado_130866" data-name="Trazado 130866" d="M36.09,47.86a12.79,12.79,0,0,0,3.42-3L72.33,25.87v4.28l-35.25,19a4.21,4.21,0,0,1-3.35.53c-.3-.1-.1-.74.23-.93a.31.31,0,0,1,.12,0A7.26,7.26,0,0,0,36.09,47.86Z" fill="#773c2c"/>
            </g>
            <g id="Grupo_62101" data-name="Grupo 62101">
              <g id="Grupo_62100" data-name="Grupo 62100">
                <g id="Axonometric_Cylinder-2" data-name="Axonometric Cylinder">
                  <ellipse id="Cylinder_face-2" data-name="Cylinder face" cx="25.99" cy="15.01" rx="25.99" ry="15.01" transform="translate(88.15 41.59)" fill="#ffe473"/>
                  <ellipse id="Cylinder_face-3" data-name="Cylinder face" cx="25.05" cy="14.46" rx="25.05" ry="14.46" transform="translate(89.09 42.14)" fill="#fccf43"/>
                  <path id="Trazado_130867" data-name="Trazado 130867" d="M96.42,49.14c9.79-5.65,25.65-5.65,35.43,0,4.28,2.47,6.69,5.61,7.22,8.84.69-4.15-1.72-8.44-7.22-11.61-9.78-5.65-25.64-5.65-35.43,0-5.5,3.17-7.91,7.46-7.22,11.61C89.73,54.75,92.14,51.61,96.42,49.14Z" fill="url(#linear-gradient-13)"/>
                  <path id="Cylinder_body-2" data-name="Cylinder body" d="M140.13,56.46v3.38c.06,3.89-2.47,7.79-7.61,10.75-10.15,5.86-26.61,5.86-36.76,0-5-2.89-7.56-6.68-7.62-10.47V56.73c.06,3.8,2.6,7.58,7.62,10.48,10.15,5.86,26.61,5.86,36.76,0C137.66,64.24,140.19,60.34,140.13,56.46Z" fill="url(#linear-gradient-14)"/>
                </g>
                <path id="Trazado_130868" data-name="Trazado 130868" d="M113.77,8.22a.94.94,0,0,1-.94-1.05,3.12,3.12,0,0,1,1.52-2.41,1.68,1.68,0,0,1,.81-.25.94.94,0,0,1,1,1A3.12,3.12,0,0,1,114.59,8a1.69,1.69,0,0,1-.82.22ZM115.16,5a1.2,1.2,0,0,0-.57.18,2.67,2.67,0,0,0-1.27,2c0,.21.06.56.45.56a1.21,1.21,0,0,0,.58-.18,2.67,2.67,0,0,0,1.27-2C115.62,5.35,115.56,5,115.16,5Z" fill="#f8d763"/>
                <path id="Trazado_130869" data-name="Trazado 130869" d="M138.31,52.75l.11-.06a.155.155,0,0,0,.13-.19l-.58-1h-.24l-.1.06-.41-.73h.11a.155.155,0,0,0,.13-.19l-.58-1c0-.05-.13,0-.23,0h-.11l-.4-.72h.1c.1-.06.16-.14.13-.19l-.29-.52c-.15-.26-.28-.52-.28-.52h-.23l-.1.05-.38-.74h.11c.1-.05.16-.14.13-.19l-.53-1.06c0-.05-.13-.05-.23,0l-.1.06-.38-.74.11-.06c.1-.05.16-.14.13-.19l-.54-1.06c0-.05-.12-.05-.22,0l-.11.06-.37-.74.1-.06a.165.165,0,0,0,.14-.19l-.54-1.06h-.23l-.1.05-.37-.74.1-.06a.16.16,0,0,0,.14-.18l-.54-1.07h-.33l-.38-.74h.11c.1-.06.16-.14.13-.19l-.53-1.06h-.33l-.38-.74.11-.05a.155.155,0,0,0,.13-.19l-.53-1.06h-.23l-.11.06-.37-.75.1-.05c.1,0,.16-.14.14-.19l-.54-1.06h-.23l-.1.06-.37-.74.1-.06c.1-.05.16-.13.14-.19l-.54-1.06c0-.05-.13-.05-.23,0l-.1.06-.38-.74.11-.06c.1-.05.16-.13.13-.18l-.53-1.06c0-.06-.13-.06-.23,0h-.11l-.37-.74.11-.05c.1-.06.16-.14.13-.19l-.53-1.06c0-.05-.13-.05-.23,0l-.11.05-.37-.74.1-.05c.1-.05.16-.14.14-.19l-.54-1.06c0-.05-.13-.05-.23,0l-.1.05-.37-.74.1-.05c.1,0,.16-.14.14-.19l-.54-1.06h-.23l-.1.06-.38-.74.11-.06c.1-.05.16-.13.13-.18l-.53-1.07c0-.05-.13-.05-.23,0l-.11.06-.37-.74.11-.06a.146.146,0,0,0,.13-.18l-.53-1.06c0-.06-.13-.06-.23,0l-.11.05-.37-.74h.1c.1-.06.16-.14.14-.19l-.54-1.06c0-.05-.13-.05-.23,0h-.1l-.37-.74.1-.05c.1-.05.16-.14.14-.19l-.54-1.06h-.23l-.1.05-.38-.74.11-.05a.151.151,0,0,0,.13-.19l-.53-1.06h-.23l-.11.06-.37-.74.11-.06a.146.146,0,0,0,.13-.18l-.53-1.07h-.23l-.11.06-.37-.74.1-.06c.1-.05.17-.13.14-.18l-.54-1.06c0-.05-.12-.05-.23,0h-.1l-.37-.74h.1c.1-.06.16-.14.14-.19l-.54-1.06c0-.05-.13-.05-.23,0h-.1L115,7s-.29.09-.27.13l.43.85-.12.07a.16.16,0,0,0-.14.18l.54,1.06c0,.06.13.06.23,0l.12-.06.38.74-.13.07a.146.146,0,0,0-.13.18l.53,1.06h.23l.13-.06.37.74L117,12c-.1.05-.17.14-.14.19l.54,1.06c0,.05.12.05.23,0l.12-.06.37.74L118,14c-.1.05-.16.14-.14.19l.54,1.06c0,.05.13.05.23,0l.12-.06.37.74L119,16c-.1.05-.16.14-.13.19l.53,1.06c0,.05.13.05.23,0l.12-.06.38.74L120,18a.151.151,0,0,0-.13.19l.53,1.06h.23l.13-.07.37.74-.12.07c-.1.05-.16.13-.14.18l.54,1.07c0,.05.13.05.23,0l.12-.07.37.74-.12.07c-.1.05-.16.13-.14.18l.54,1.07c0,.05.13.05.23,0l.12-.06.38.74-.13.06c-.1.06-.16.14-.13.19l.53,1.06c0,.06.13.05.23,0l.12-.06.38.74-.12.06c-.11.06-.17.14-.14.19l.54,1.06c0,.05.12.05.22,0l.13-.06.37.74-.12.06c-.1.05-.16.14-.14.19l.54,1.06c0,.05.13.05.23,0l.12-.06.37.74-.12.06a.155.155,0,0,0-.13.19l.53,1.06h.23l.12-.07.38.75-.13.06c-.1.05-.16.14-.13.19l.53,1.06h.23l.13-.07.37.74-.12.07a.165.165,0,0,0-.14.19l.54,1.06h.23l.12-.07.37.74-.12.07c-.1.05-.16.13-.14.18l.54,1.07c0,.05.13.05.23,0l.12-.06.37.74-.12.06c-.1.06-.16.14-.13.19l.53,1.07c0,.05.13.05.23,0l.12-.06.38.74-.13.06c-.1.06-.16.14-.13.19l.54,1.06c0,.06.12,0,.22,0l.13-.06.37.74-.12.06c-.1.05-.16.14-.14.19l.54,1.06c0,.05.13.05.23,0l.12-.06.37.74-.12.06a.155.155,0,0,0-.13.19l.53,1.06h.23l.12-.07.38.74-.13.07a.155.155,0,0,0-.13.19l.53,1.06h.23l.12-.07.38.74-.12.07c-.1,0-.16.14-.14.19s.13.26.28.52l.29.52h.23l.13-.06.4.72-.12.07c-.1.05-.16.13-.13.19l.58,1c0,.05.13.05.23,0l.13-.07.4.73-.12.06c-.1.05-.16.14-.13.19l.58,1h.23l.12-.07.47.83s.28-.1.26-.14ZM115.71,9.2h-.18l-.48-1a.158.158,0,0,1,.1-.14h0c0,.07.3-.07.28-.1s.16-.08.18,0l.48,1a.168.168,0,0,1-.1.15h0s-.28.09-.26.13h0Zm1,2h-.18l-.48-.95a.166.166,0,0,1,.11-.15h0c0,.07.3-.07.28-.1s.17-.09.19-.05l.48,1a.157.157,0,0,1-.11.14h0s-.28.1-.26.14h0Zm1,2h-.19l-.48-.95a.166.166,0,0,1,.11-.15h0c0,.07.29-.06.28-.1s.16-.08.18,0l.48,1a.157.157,0,0,1-.11.14h0s-.28.1-.26.14h0Zm1,2h-.18l-.48-.95a.168.168,0,0,1,.1-.15h0c0,.07.3-.06.28-.1s.16-.08.18,0l.48.95a.166.166,0,0,1-.11.15h0s-.28.1-.27.13h0Zm1,2h-.18l-.48-.95a.166.166,0,0,1,.11-.15h0c0,.07.3-.06.28-.1s.16-.08.18,0l.48.95a.168.168,0,0,1-.1.15h0s-.28.1-.26.13h0Zm1,2h-.18l-.48-.95a.166.166,0,0,1,.11-.15h0c0,.07.3-.06.28-.1s.16-.08.19,0l.48.95a.166.166,0,0,1-.11.15h0s-.28.09-.26.13h0Zm1,2h-.18l-.49-1a.157.157,0,0,1,.11-.14h0c0,.07.29-.07.28-.1s.16-.09.18-.05l.48,1a.157.157,0,0,1-.11.14h0s-.28.1-.26.14h0Zm1,2h-.18l-.48-1a.158.158,0,0,1,.1-.14h0c0,.07.3-.07.28-.11s.16-.08.18,0l.48,1a.157.157,0,0,1-.11.14h0s-.28.1-.27.14h0Zm1,2h-.18l-.48-1a.166.166,0,0,1,.11-.15h0c0,.07.3-.07.28-.11s.16-.08.18,0l.48.95a.168.168,0,0,1-.1.15h0s-.28.1-.26.14h0Zm1,2h-.18l-.48-.95a.166.166,0,0,1,.11-.15h0c0,.07.29-.06.27-.1s.16-.08.19,0l.48,1a.166.166,0,0,1-.11.15h0s-.28.1-.26.13h0Zm1,2h-.18l-.48-.95a.168.168,0,0,1,.1-.15h0c0,.07.29-.06.28-.1s.16-.08.18,0l.48.95a.166.166,0,0,1-.11.15h0s-.28.1-.26.13h0Zm1,2h-.18l-.48-.95a.168.168,0,0,1,.1-.15h0c0,.07.3-.07.28-.1s.16-.09.18-.05l.48,1a.175.175,0,0,1-.11.15h0s-.28.09-.26.13h0Zm1,2h-.18l-.48-1a.166.166,0,0,1,.11-.15h0c0,.07.3-.07.28-.1s.16-.09.18-.05l.48,1a.158.158,0,0,1-.1.14h0s-.28.1-.26.14h0Zm1,2h-.19l-.48-1a.157.157,0,0,1,.11-.14h0c0,.07.29-.07.27-.11s.16-.08.19,0l.48.95a.166.166,0,0,1-.11.15h0s-.28.1-.26.14h0Zm1,2h-.18l-.48-1a.178.178,0,0,1,.1-.15h0c0,.07.29-.07.28-.11s.16-.08.18,0l.48.95a.166.166,0,0,1-.11.15h0s-.27.1-.26.14h0Zm1,2h-.18l-.48-1a.166.166,0,0,1,.11-.15h0c0,.07.3-.06.28-.1s.16-.08.18,0l.48,1a.166.166,0,0,1-.11.15h0s-.28.1-.26.14h0Zm1,2h-.18l-.48-.95a.166.166,0,0,1,.11-.15h0c0,.07.3-.06.28-.1s.16-.09.18,0l.48,1a.178.178,0,0,1-.1.15h0s-.28.1-.26.13h0Zm1,2h-.18l-.49-1a.166.166,0,0,1,.11-.15h0c0,.07.29-.07.27-.1s.16-.09.19-.05l.48,1a.157.157,0,0,1-.11.14h0s-.28.11-.26.14h0Zm1,2h-.18l-.48-1a.168.168,0,0,1,.1-.15h0c0,.07.3-.07.28-.11s.16-.08.18,0l.48,1a.166.166,0,0,1-.11.15h0s-.27.1-.26.14h0Zm1,2h-.18L134.1,46a.166.166,0,0,1,.11-.15h0c0,.07.3-.07.28-.11s.16-.08.18,0l.48.95a.168.168,0,0,1-.1.15h0s-.28.1-.26.14h0Zm1,2h-.18l-.26-.47c-.14-.23-.26-.47-.26-.47a.157.157,0,0,1,.11-.14h0c0,.07.3-.07.28-.11s.16-.08.18,0a2.767,2.767,0,0,0,.26.47l.26.46a.166.166,0,0,1-.11.15h0s-.28.1-.26.14h0Zm1.09,1.94h-.18l-.53-.93a.175.175,0,0,1,.11-.15h0c0,.06.3-.08.28-.11s.16-.09.18,0l.52.93a.168.168,0,0,1-.1.15h0s-.28.11-.26.14h0Zm1.2,1.69c-.08,0-.16.05-.19,0l-.52-.94a.157.157,0,0,1,.11-.14h0c0,.07.3-.07.28-.11s.16-.08.18,0l.52.93a.158.158,0,0,1-.1.14h0s-.28.1-.26.13h0Z" fill="url(#linear-gradient-15)"/>
                <path id="Trazado_130870" data-name="Trazado 130870" d="M113.78,8.51l-.1-.06.45-.84s-.24-.18-.26-.14l-.45.84-.12-.06c-.1-.05-.2-.06-.23,0l-.56,1a.172.172,0,0,0,.13.19l.12.07-.39.73-.12-.07c-.1-.05-.2-.05-.23,0l-.56,1c0,.05,0,.13.14.19l.12.06-.39.73-.12-.06c-.1,0-.21-.06-.23,0l-.56,1.05a.2.2,0,0,0,.13.18l.12.07-.39.73-.12-.06c-.1-.06-.2-.06-.23,0l-.56,1a.178.178,0,0,0,.13.19l.13.06-.39.74-.13-.07c-.09-.05-.2-.05-.22,0l-.56,1.05a.168.168,0,0,0,.13.18l.12.07-.39.73-.12-.06c-.1-.06-.2-.06-.23,0L107.28,19a.178.178,0,0,0,.13.19l.12.06-.38.74L107,20c-.1-.05-.2-.05-.23,0l-.55,1.05a.168.168,0,0,0,.13.18l.12.07-.39.73L106,22c-.1-.06-.2-.06-.23,0l-.56,1.05a.178.178,0,0,0,.13.19l.12.07-.39.73-.12-.07h-.23L104.14,25c0,.05,0,.13.14.19l.12.06L104,26l-.12-.06c-.1-.06-.21-.06-.23,0L103.1,27a.178.178,0,0,0,.13.19l.12.07L103,28l-.12-.07h-.23l-.6,1.07a.183.183,0,0,0,.13.19l.13.06-.39.73-.13-.06c-.09-.05-.2-.06-.22,0l-.57.99a.178.178,0,0,0,.13.19l.12.07-.39.73-.12-.07h-.23L100,32.88a.221.221,0,0,0,.13.19l.13.06-.39.73-.13-.06c-.1,0-.2-.06-.23,0l-.55,1.05a.212.212,0,0,0,.13.19l.12.07-.39.73-.12-.07h-.23l-.56,1.05a.221.221,0,0,0,.13.19l.12.06-.39.74-.12-.07c-.1,0-.2-.06-.23,0l-.56,1c0,.06,0,.14.14.19l.12.07-.39.73-.12-.06c-.1-.06-.21-.06-.23,0l-.56,1.05a.212.212,0,0,0,.13.19L96,41l-.39.74-.12-.07h-.23l-.56,1.05a.2.2,0,0,0,.13.18L95,43l-.39.73-.12-.06c-.1-.06-.21-.06-.23,0l-.56,1.05a.212.212,0,0,0,.13.19l.12.07-.39.73-.12-.07c-.1-.05-.2-.05-.23,0l-.56,1a.221.221,0,0,0,.13.19l.13.06-.39.73-.13-.06c-.1-.06-.2-.06-.23,0L91.6,48.6a.212.212,0,0,0,.13.19l.12.07-.39.73-.13-.07c-.1-.05-.2-.06-.23,0l-.56,1.05a.221.221,0,0,0,.13.19l.12.06-.4.73-.12-.06c-.1-.06-.2-.06-.23,0l-.57,1.05a.2.2,0,0,0,.13.18l.12.07-.45.83s.24.18.26.14l.45-.83.11.05c.1.06.2.06.23,0l.57-1a.172.172,0,0,0-.13-.19l-.11-.06.4-.73.1.06c.1.05.2.05.23,0L92,50a.212.212,0,0,0-.13-.19l-.11-.06.4-.72h.1c.1.05.2.06.23,0L93,48a.212.212,0,0,0-.13-.19l-.11-.06.39-.73.11.06h.23L94.05,46a.219.219,0,0,0-.14-.19l-.1-.05.39-.74.1.06c.1.05.21.06.23,0l.56-1.05a.172.172,0,0,0-.13-.19l-.1-.06.39-.73h.1c.1.06.2.06.23,0l.56-1a.212.212,0,0,0-.13-.19l-.11-.05.39-.74.11.06c.1.05.2.05.22,0l.56-1a.2.2,0,0,0-.13-.18L97,39.9l.39-.73h.1c.1.06.2.06.23,0l.56-1a.212.212,0,0,0-.13-.19L98,37.93l.39-.73.11.06c.1.05.2.05.23,0l.55-1a.183.183,0,0,0-.13-.19L99,36l.39-.73h.1c.1.06.21.06.23,0l.56-1a.212.212,0,0,0-.13-.19l-.1-.06.38-.73.11.06c.1.05.2.05.23,0l.56-1c0-.05,0-.13-.14-.19l-.1-.05.39-.73.1.05c.1.06.21.06.23,0l.56-1.05a.178.178,0,0,0-.13-.19l-.1-.06.39-.73.1.06c.1.05.2.05.23,0l.56-1a.183.183,0,0,0-.13-.19l-.11-.05.39-.73.11.05c.1.05.2.06.23,0l.55-1.05a.172.172,0,0,0-.13-.19l-.1-.06.39-.73.1.06c.1.05.2.05.23,0l.56-1a.183.183,0,0,0-.13-.19l-.11-.05.39-.74.11.06c.1.05.2.06.23,0l.56-1.05c0-.05,0-.13-.14-.18l-.1-.06.39-.73.1.05c.1.06.21.06.23,0l.56-1.05a.212.212,0,0,0-.13-.19l-.1-.05.38-.74.11.06c.1.05.2.05.23,0l.56-1.05c0-.05,0-.13-.14-.18l-.1-.06.39-.73.1.05c.1.06.21.06.23,0l.56-1.05a.212.212,0,0,0-.13-.19l-.1-.06.39-.73.1.06h.23l.56-1.05a.183.183,0,0,0-.13-.19l-.11-.05.39-.73.11.05c.1.06.2.06.23,0l.55-1a.178.178,0,0,0-.13-.19l-.1-.06.39-.73.1.06h.23l.56-1.05a.183.183,0,0,0-.13-.19l-.11-.05.39-.73.11.05c.1,0,.2.06.23,0l.56-1.05S113.88,8.56,113.78,8.51ZM90.63,51.76c.08.05.12.11.1.15l-.51.94h-.18c-.08,0,0-.05,0-.05s-.23-.18-.25-.14h0c-.08,0-.13-.11-.1-.15l.51-.94h.18c0,.07.22.21.24.18S90.63,51.76,90.63,51.76Zm1.06-1.95a.129.129,0,0,1,.11.15l-.51.93H91.1s-.24-.17-.26-.14h0a.122.122,0,0,1-.1-.15l.51-.94h.18c0,.07.22.21.24.17s.02-.02.02-.02Zm1-2a.129.129,0,0,1,.11.15l-.5.95h-.18s-.24-.17-.26-.14h0a.122.122,0,0,1-.1-.15l.5-.94h.18c0,.06.22.2.24.17s.06-.01.06-.01Zm1.05-2a.122.122,0,0,1,.1.15l-.5.94h-.18s-.24-.18-.26-.14h0a.129.129,0,0,1-.11-.15l.51-.94h.18c0,.07.23.21.24.17s.07.04.07.04Zm1-2c.07.05.12.11.1.15l-.5.95h-.18s-.24-.17-.26-.14h0c-.07,0-.12-.11-.1-.15l.5-.94h.18c0,.07.22.21.24.18s.12.05.12.05Zm1-2c.08,0,.13.11.1.15l-.5.94h-.18s-.24-.18-.26-.14h0c-.08,0-.13-.11-.1-.15l.5-.94h.18c0,.07.23.21.25.17s.15.16.15.16Zm1.05-2a.122.122,0,0,1,.1.15l-.5.94h-.18s-.24-.17-.26-.14h0a.129.129,0,0,1-.11-.15l.5-.94h.18c0,.07.22.21.24.18s.17.15.17.15Zm1-2a.129.129,0,0,1,.11.15l-.51.94h-.18s-.24-.18-.26-.14h0a.122.122,0,0,1-.1-.15l.5-.94h.18c0,.07.22.21.24.17S98,38,98,38Zm1-2a.122.122,0,0,1,.1.15l-.5.94h-.18s-.24-.17-.26-.14h0a.129.129,0,0,1-.11-.15l.5-.94h.19c0,.07.22.21.24.17s.23.21.23.21Zm1-2a.12.12,0,0,1,.11.14l-.5,1h-.18s-.24-.18-.26-.14h0a.122.122,0,0,1-.1-.15l.5-1h.18c0,.07.22.21.24.17s.28.26.28.26Zm1-2c.08,0,.13.11.1.15l-.5.94h-.18c-.08,0,0-.05,0-.05s-.24-.18-.26-.14h0a.129.129,0,0,1-.11-.15l.51-.94h.18c0,.07.23.21.24.17s.34.33.34.33Zm1-2a.12.12,0,0,1,.1.14l-.5.95h-.18s-.24-.17-.26-.13h0c-.07,0-.12-.11-.1-.15l.5-.95h.18c0,.07.22.2.24.17s.39.32.39.32Zm1-2a.129.129,0,0,1,.11.15l-.51.94h-.18c-.08,0,0-.05,0-.05s-.24-.18-.26-.14h0c-.08,0-.13-.11-.1-.15l.5-.94h.18c0,.07.23.21.25.17s.42.4.42.4Zm1-2c.08.05.12.11.1.15l-.5.95h-.18s-.24-.17-.26-.14h0a.12.12,0,0,1-.11-.14l.5-.95h.18c0,.06.22.2.24.17a3.5,3.5,0,0,1,.49.37Zm1-2a.129.129,0,0,1,.11.15l-.5.94h-.19c-.08,0,0-.05,0-.05s-.24-.18-.26-.14h0a.122.122,0,0,1-.1-.15l.5-.94h.18c0,.07.22.21.24.17s.52.47.52.47Zm1-2c.08.05.12.11.1.15l-.5.94h-.18c-.08,0,0-.05,0-.05s-.24-.17-.26-.14h0a.129.129,0,0,1-.11-.15l.5-.94h.19c0,.07.22.21.24.18a5.27,5.27,0,0,1,.57.49Zm1-2a.129.129,0,0,1,.11.15l-.5.94h-.18c-.07,0,0-.05,0-.05s-.24-.18-.26-.14h0a.122.122,0,0,1-.1-.15l.5-.94h.18c0,.07.22.21.24.17a5.046,5.046,0,0,1,.6.54Zm1.05-2c.08,0,.13.11.1.15l-.5.94h-.18c-.08,0,0-.05,0-.05s-.24-.17-.26-.14h0a.129.129,0,0,1-.11-.15l.51-.94h.18c0,.07.23.21.24.18a7.925,7.925,0,0,1,.61.56Zm1-2c.07,0,.12.11.1.15l-.5.94h-.18s-.24-.18-.26-.14h0a.122.122,0,0,1-.1-.15l.5-.94h.18c0,.07.22.21.24.17a5.757,5.757,0,0,1,.66.56Zm1-2a.129.129,0,0,1,.11.15l-.51.94h-.18s-.24-.17-.26-.14h0c-.08,0-.13-.11-.1-.15l.5-.94h.18c0,.07.23.21.25.17a6.338,6.338,0,0,1,.69.59Zm1-2a.113.113,0,0,1,.1.14l-.5,1h-.18c-.08,0,0-.05,0-.05s-.24-.17-.26-.13h0c-.08-.05-.13-.11-.11-.15l.5-.94h.18c0,.07.22.21.24.17a7.357,7.357,0,0,1,.76.62Zm1-2a.129.129,0,0,1,.11.15l-.5.94h-.19c-.08,0,0-.05,0-.05s-.24-.18-.26-.14h0a.122.122,0,0,1-.1-.15l.5-.94h.18c0,.07.22.21.24.17a8.73,8.73,0,0,1,.79.71Zm.65-.87h-.18s-.24-.17-.26-.13h0c-.08-.05-.13-.11-.11-.15l.5-1h.19c0,.07.22.2.24.17s.16.08.14.12Z" fill="url(#linear-gradient-16)"/>
                <path id="Trazado_130871" data-name="Trazado 130871" d="M114.65,9.58c.12,0,.21,0,.21-.09V8.39c0-.05-.08-.1-.2-.1h-.11V7.41s-.29-.05-.3,0V8.3h-.14c-.11,0-.2,0-.21.09v1.1c0,.05.09.1.2.1h.14v.76h-.14c-.12,0-.21,0-.21.08v1.1c0,.05.08.1.2.11h.13v.77H114c-.11,0-.21,0-.21.09l-.05,1.1a.313.313,0,0,0,.2.1h.14v.76h-.14c-.11,0-.2,0-.2.08l-.06,1.1c0,.06.09.1.2.11H114v.77h-.14c-.12,0-.21,0-.21.09v1.1a.283.283,0,0,0,.2.1h.14v.77h-.14c-.11,0-.21,0-.21.09v1.09c0,.06.09.1.2.11h.14v.76h-.13c-.12,0-.21,0-.21.08l-.06,1.1a.359.359,0,0,0,.2.11h.14v.77h-.14c-.11,0-.21,0-.21.09v1.1c0,.05.09.1.2.1h.14v.76h-.14c-.11,0-.2,0-.21.08l-.05,1.1c0,.06.09.1.2.11h.14v.77h-.13c-.12,0-.21,0-.21.09v1.1c0,.05.08.1.2.1h.13v.77h-.14c-.11,0-.21,0-.21.09v1.09c0,.06.09.1.2.11h.14v.76h-.14c-.11,0-.2,0-.21.08v1.1a.359.359,0,0,0,.2.11h.14v.77H113c-.12,0-.21,0-.21.09v1.1c0,.05.08.1.2.1h.13v.76h-.14c-.11,0-.21,0-.21.08v1.1a.359.359,0,0,0,.2.11H113v.77h-.14c-.11,0-.2,0-.21.09v1.1c0,.05.09.1.2.1h.14v.77h-.14c-.12,0-.21,0-.21.08l-.05,1.1c0,.06.08.1.2.11h.13v.77h-.14c-.11,0-.21,0-.21.09v1.1a.313.313,0,0,0,.2.1h.14v.77h-.14c-.11,0-.2,0-.21.09v1.09c0,.06.09.1.2.11h.14v.76h-.14c-.12,0-.21,0-.21.08v1.1a.32.32,0,0,0,.2.11h.14v.77h-.14c-.11,0-.21,0-.21.09l-.05,1.1c0,.05.09.1.2.1h.14v.76h-.14c-.11,0-.2,0-.2.08l-.06,1.1c0,.06.09.1.2.11h.14v.77h-.14c-.11,0-.21,0-.21.09l-.05,1.1c0,.05.08.1.2.1h.14v.77H112c-.11,0-.2,0-.21.09v1.09c0,.06.09.1.2.11h.14v.76H112c-.12,0-.21,0-.21.08l-.06,1.1c0,.05.09.1.2.11H112v.77h-.14c-.11,0-.21,0-.21.09v1.1c0,.05.09.1.2.1h.14v.76h-.14c-.11,0-.2,0-.21.08l-.05,1.1a.359.359,0,0,0,.2.11h.14v.77h-.13c-.12,0-.21,0-.21.09v1.1c0,.05.08.1.2.1h.13v.77h-.14c-.11,0-.21,0-.21.09V65c0,.06.09.1.2.11h.14v.76h-.14c-.11,0-.2,0-.21.09v1.1a.313.313,0,0,0,.2.1h.14v.77h-.13c-.12,0-.21,0-.21.09v1.1c0,.05.08.1.2.1h.13v.87s.3.06.3,0v-.88h.12c.11,0,.2,0,.2-.09l.06-1.1c0-.05-.09-.1-.2-.1h-.12v-.76H112c.12,0,.21,0,.21-.09V65.98c0-.06-.08-.1-.2-.11h-.11V65.1h.12c.11,0,.21,0,.21-.08v-1.1a.359.359,0,0,0-.2-.11H112v-.77h.12c.11,0,.2,0,.2-.09l.06-1.1c0-.05-.09-.1-.2-.1h-.12v-.76h.12c.11,0,.21,0,.21-.08v-1.1a.32.32,0,0,0-.2-.11h-.12v-.77h.12c.11,0,.2,0,.21-.09v-1.1a.313.313,0,0,0-.2-.1h-.12v-.76h.11c.12,0,.21,0,.21-.09l.06-1.09c0-.06-.09-.1-.2-.11h-.12v-.77h.12c.11,0,.21,0,.21-.09l.05-1.1a.313.313,0,0,0-.2-.1h-.12v-.77h.12c.11,0,.2,0,.21-.09V51.58c0-.06-.09-.11-.2-.11h-.12v-.76h.11c.12,0,.21,0,.21-.08v-1.1a.32.32,0,0,0-.2-.11h-.11v-.77h.12c.11,0,.21,0,.21-.09v-1.1c0-.05-.09-.1-.2-.1h-.12V46.6h.12c.11,0,.2,0,.21-.08l.05-1.1c0-.06-.09-.1-.2-.11h-.12v-.77H113c.12,0,.21,0,.21-.09v-1.1c0-.05-.08-.1-.2-.1H113v-.77h.12c.11,0,.21,0,.21-.09l.05-1.09c0-.06-.09-.1-.2-.11h-.12v-.76h.12c.11,0,.2,0,.21-.08v-1.1a.359.359,0,0,0-.2-.11h-.12v-.77h.11c.12,0,.21,0,.21-.09v-1.1c0-.05-.08-.1-.2-.1h-.11v-.76h.12c.11,0,.21,0,.21-.08v-1.1a.359.359,0,0,0-.2-.11h-.12v-.77h.12c.11,0,.2,0,.2-.09l.06-1.1c0-.05-.09-.1-.2-.1h-.12v-.76h.12c.12,0,.21,0,.21-.09V31.03c0-.06-.08-.1-.2-.11h-.11v-.77h.12c.11,0,.21,0,.21-.09v-1.1c0-.05-.09-.1-.2-.1h-.12v-.77h.12c.11,0,.2,0,.2-.09l.06-1.1c0-.05-.09-.1-.2-.1h-.12v-.76h.12c.11,0,.21,0,.21-.08v-1.1c0-.05-.08-.1-.2-.11h-.12v-.77H114c.11,0,.2,0,.21-.09v-1.1c0-.05-.09-.1-.2-.1h-.12v-.76H114c.12,0,.21,0,.21-.08l.06-1.1c0-.06-.09-.1-.2-.11H114v-.77h.12c.11,0,.21,0,.21-.09l.05-1.1c0-.05-.09-.1-.2-.1h-.12v-.77h.12c.11,0,.2,0,.21-.09V16.63c0-.06-.09-.1-.2-.11h-.12v-.76h.11c.12,0,.21,0,.21-.08l.05-1.1c0-.05-.08-.1-.2-.11h-.11V13.7h.12c.11,0,.21,0,.21-.09v-1.1c0-.05-.09-.1-.2-.1h-.12v-.76h.12c.11,0,.2,0,.21-.08v-1.1c0-.06-.09-.1-.2-.11h-.12V9.59ZM111.82,68c.08,0,.16,0,.15.08v1a.3.3,0,0,1-.17.07c-.09,0,0-.05,0-.05h-.29c-.09,0-.16,0-.16-.08v-1a.255.255,0,0,1,.16-.07h0c0,.08.29.09.29.05S111.82,68,111.82,68Zm.09-2.06c.09,0,.16,0,.16.09v1a.255.255,0,0,1-.16.07h-.29c-.09,0-.16,0-.15-.08v-1a.253.253,0,0,1,.17-.06h0c0,.07.29.08.29,0s-.02-.04-.02-.04Zm.1-2.05c.09,0,.16,0,.16.08v1L112,65h-.3c-.09,0-.16,0-.16-.09v-1a.255.255,0,0,1,.16-.07h0c0,.07.29.09.3,0s0,.03,0,.03Zm.09-2.06c.09,0,.16,0,.16.08v1a.3.3,0,0,1-.17.07h0s-.29-.06-.29,0h0c-.09,0-.16,0-.16-.08v-1a.3.3,0,0,1,.17-.07h0c0,.07.29.08.29,0s0-.02,0-.02Zm.1-2.06c.09,0,.16,0,.16.09v1a.21.21,0,0,1-.16.07h0s-.29-.05-.29,0h0c-.09,0-.16-.05-.15-.09v-1c0-.05.08-.08.17-.07h0c0,.07.29.09.29,0s-.02-.02-.02-.02Zm.1-2c.09,0,.16,0,.16.08v1a.3.3,0,0,1-.17.07c-.09,0,0-.05,0-.05h-.3c-.09,0-.16,0-.16-.08v-1a.255.255,0,0,1,.16-.07h0c0,.08.29.09.3,0s.01-.02.01-.02Zm.09-2.06c.09,0,.16,0,.16.09v1a.3.3,0,0,1-.17.07h0s-.29-.05-.29,0v.05h0c-.09,0-.16,0-.16-.08v-1a.253.253,0,0,1,.17-.06h0c0,.07.29.08.29,0s0-.14,0-.14Zm.1-2c.09,0,.16,0,.16.08l-.05,1a.218.218,0,0,1-.16.06h-.3c-.09,0-.16,0-.16-.09v-1a.3.3,0,0,1,.17-.07h0c0,.07.29.09.29,0s.05-.1.05-.1Zm.1-2.06c.09,0,.16,0,.15.08v1a.3.3,0,0,1-.17.07h0s-.3-.05-.3,0h0c-.09,0-.16,0-.16-.08v-1a.255.255,0,0,1,.16-.07h0c0,.07.29.08.3,0a1.129,1.129,0,0,1,.02-.12Zm.09-2.05c.09,0,.16,0,.16.08v1c0,.05-.08.08-.17.07h-.29c-.09,0-.16-.05-.16-.09v-1c0-.05.08-.08.17-.07h0c0,.07.29.09.29,0s0-.11,0-.11Zm.1-2.06c.09,0,.16,0,.16.08v1a.255.255,0,0,1-.16.07h0s-.29-.06-.3,0h0c-.09,0-.16,0-.16-.08l.05-1a.3.3,0,0,1,.17-.07h0c0,.08.29.09.29.05a.905.905,0,0,0-.05-.17Zm.1-2.06c.09,0,.16,0,.15.09v1a.242.242,0,0,1-.17.07h0s-.29-.05-.29,0h0c-.09,0-.16,0-.16-.08v-1c0-.05.07-.08.16-.07h0c0,.07.29.08.29,0a.381.381,0,0,1,.02-.13Zm.09-2c.09,0,.16,0,.16.08v1a.255.255,0,0,1-.16.07c-.09,0,0-.05,0-.05h-.29c-.08,0-.16,0-.15-.08v-1a.3.3,0,0,1,.17-.07h0c0,.08.29.09.29.05s.01-.17.01-.17Zm.1-2.06c.09,0,.16,0,.16.09v1a.255.255,0,0,1-.16.07h0s-.29-.05-.3,0h0c-.09,0-.16,0-.16-.08v-1a.243.243,0,0,1,.16-.06h.05c0,.07.29.08.29,0a.7.7,0,0,0-.04-.19Zm.1-2c.08,0,.16,0,.15.08v1a.253.253,0,0,1-.17.06h-.29c-.09,0-.16,0-.16-.09l.05-1a.255.255,0,0,1,.16-.07h0c0,.07.29.09.29,0a.914.914,0,0,0-.03-.2Zm.09-2.06c.09,0,.16,0,.16.08v1a.255.255,0,0,1-.16.07h0s-.29-.06-.29,0h0c-.09,0-.16,0-.15-.08v-1a.3.3,0,0,1,.17-.07h0c0,.07.29.08.29,0a2.087,2.087,0,0,0-.02-.22Zm.1-2.06c.09,0,.16.05.16.09v1c0,.05-.08.08-.16.07h-.3c-.09,0-.16-.05-.16-.09v-1a.21.21,0,0,1,.16-.07h0c0,.07.3.09.3,0s0-.22,0-.22Zm.1-2c.08,0,.16,0,.15.08v1a.3.3,0,0,1-.17.07c-.09,0,0-.05,0-.05h-.29c-.09,0-.16,0-.16-.08v-1a.255.255,0,0,1,.16-.07h0c0,.08.29.09.29.05s.02-.3.02-.3Zm.09-2.06c.09,0,.16,0,.16.09v1a.255.255,0,0,1-.16.07h-.29v.05h0c-.09,0-.16,0-.15-.08v-1a.253.253,0,0,1,.17-.06h0c0,.07.29.08.29.05s-.02-.36-.02-.36Zm.1-2c.09,0,.16,0,.16.08v1a.253.253,0,0,1-.17.06h0s-.3-.05-.3,0h0c-.09,0-.16,0-.16-.09v-1a.255.255,0,0,1,.16-.07h0c0,.07.29.09.3.05s.01-.35.01-.35Zm.09-2.06c.09,0,.16,0,.16.08v1a.3.3,0,0,1-.17.07h0s-.29-.06-.29,0h0c-.09,0-.16,0-.16-.08v-1a.3.3,0,0,1,.17-.07h0c0,.07.29.08.29,0s0-.32,0-.32Zm.1-2.06c.09,0,.16.05.16.09v1c0,.05-.07.08-.16.07h-.29c-.09,0-.16-.05-.16-.09v-1c0-.05.08-.08.17-.07h0c0,.07.29.09.29.05s-.01-.37-.01-.37Zm.1-2.05c.09,0,.16,0,.16.08v1a.3.3,0,0,1-.17.07c-.09,0,0-.05,0-.05s-.3-.05-.3,0h0c-.09,0-.16,0-.16-.08v-1a.255.255,0,0,1,.16-.07h0c0,.08.29.09.3.05s.01-.32.01-.32Zm.09-2.06c.09,0,.16,0,.16.09v1a.3.3,0,0,1-.17.07h0s-.29-.05-.29,0h0c-.09,0-.16,0-.16-.08v-1a.253.253,0,0,1,.17-.06h0c0,.07.29.08.29.05s-.03-.39-.03-.39Zm.1-2.05c.09,0,.16,0,.16.08l-.05,1a.255.255,0,0,1-.16.07c-.09,0,0-.05,0-.05s-.29-.05-.3,0h0c-.09,0-.16,0-.16-.09v-1a.3.3,0,0,1,.17-.07h0c0,.07.29.09.29.05s.05-.31.05-.31Zm.1-2.06c.09,0,.16,0,.15.08v1a.3.3,0,0,1-.17.07h0s-.3-.05-.3,0h0c-.09,0-.16,0-.16-.08v-1a.255.255,0,0,1,.16-.07h0c0,.07.29.08.3,0s.02-.32.02-.32Zm.09-2c.09,0,.16,0,.16.08v1a.218.218,0,0,1-.16.06h-.29c-.09,0-.16,0-.16-.09v-1a.242.242,0,0,1,.17-.07h0c0,.07.29.09.29.05s-.01-.4-.01-.4Zm.1-2.06c.09,0,.16,0,.16.08v1a.255.255,0,0,1-.16.07h0s-.29-.06-.3,0h0c-.09,0-.16,0-.16-.08l.05-1a.293.293,0,0,1,.16-.07h0c0,.07.29.08.29,0s-.04-.37-.04-.37Zm.1-2.06c.09,0,.16.05.15.09v1a.242.242,0,0,1-.17.07h-.29c-.09,0-.16,0-.16-.08v-1c0-.05.07-.08.16-.07h0c0,.07.29.09.29,0s.02-.38.02-.38Zm-.32-.93c-.08,0-.16,0-.15-.08v-1a.3.3,0,0,1,.17-.07h0c0,.08.29.09.29.05s.18,0,.18,0v1a.255.255,0,0,1-.16.07c-.09,0,0-.05,0-.05h-.29Z" fill="url(#linear-gradient-17)"/>
                <path id="Trazado_130872" data-name="Trazado 130872" d="M88.67,56.08a.13.13,0,0,1-.08,0,.14.14,0,0,1,0-.2,6.81,6.81,0,0,0,.93-2.26.61.61,0,0,0,0-.37,1.36,1.36,0,0,0-.29.3.143.143,0,1,1-.23-.17c.25-.34.47-.47.65-.39s.25.22.14.7a6.9,6.9,0,0,1-1,2.35A.14.14,0,0,1,88.67,56.08Z" fill="#cd8500"/>
                <path id="Trazado_130873" data-name="Trazado 130873" d="M139.49,56a.16.16,0,0,1-.13-.06,6.86,6.86,0,0,1-1-2.36c-.1-.47,0-.64.14-.7s.41,0,.66.39a.16.16,0,0,1,0,.21.17.17,0,0,1-.21,0c-.2-.28-.31-.3-.31-.3a1.47,1.47,0,0,0,0,.37,6.41,6.41,0,0,0,.93,2.26.16.16,0,0,1,0,.2Z" fill="#cd8500"/>
                <path id="Trazado_130874" data-name="Trazado 130874" d="M112.89,71.4a.16.16,0,0,1-.15-.16A1.21,1.21,0,0,0,111.59,70a1.24,1.24,0,0,0-1.3,1.15.14.14,0,0,1-.14.14.15.15,0,0,1-.15-.15,1.522,1.522,0,0,1,3.04.17A.15.15,0,0,1,112.89,71.4Z" fill="#cd8500"/>
              </g>
              <path id="Trazado_130875" data-name="Trazado 130875" d="M113.93,2.08a1.64,1.64,0,0,0-.82-.25.93.93,0,0,0-.94,1c.18-.07.36-.17.54-.26a.4.4,0,0,1,.4-.26,1.17,1.17,0,0,1,.57.18,2.67,2.67,0,0,1,1.27,2c0,.21,0,.56-.45.56a1.17,1.17,0,0,1-.57-.19l-.15-.11c-.14.11-.29.2-.43.3a2.52,2.52,0,0,0,.33.24,1.72,1.72,0,0,0,.82.25.94.94,0,0,0,.94-1,3.11,3.11,0,0,0-1.51-2.46Z" fill="#f8d763"/>
            </g>
            <g id="Grupo_62103" data-name="Grupo 62103">
              <g id="Grupo_62102" data-name="Grupo 62102">
                <g id="Axonometric_Cylinder-3" data-name="Axonometric Cylinder">
                  <ellipse id="Cylinder_face-4" data-name="Cylinder face" cx="25.99" cy="15.01" rx="25.99" ry="15.01" transform="translate(10.75 86.27)" fill="#ffe473"/>
                  <ellipse id="Cylinder_face-5" data-name="Cylinder face" cx="25.05" cy="14.46" rx="25.05" ry="14.46" transform="translate(11.69 86.82)" fill="#fccf43"/>
                  <path id="Trazado_130876" data-name="Trazado 130876" d="M19,93.82c9.79-5.64,25.65-5.64,35.43,0,4.28,2.48,6.69,5.62,7.22,8.85.69-4.15-1.72-8.44-7.22-11.61-9.78-5.65-25.64-5.65-35.43,0-5.5,3.17-7.91,7.46-7.22,11.61C12.33,99.44,14.74,96.3,19,93.82Z" fill="url(#linear-gradient-18)"/>
                  <path id="Cylinder_body-3" data-name="Cylinder body" d="M62.73,101.14v3.39c.06,3.89-2.48,7.78-7.61,10.75-10.15,5.86-26.61,5.86-36.76,0-5-2.89-7.56-6.68-7.62-10.47v-3.39c.06,3.8,2.6,7.58,7.62,10.48,10.15,5.86,26.61,5.86,36.76,0C60.25,108.93,62.79,105,62.73,101.14Z" fill="url(#linear-gradient-19)"/>
                </g>
                <path id="Trazado_130877" data-name="Trazado 130877" d="M36.37,52.91a.94.94,0,0,1-.94-1A3.12,3.12,0,0,1,37,49.45a1.68,1.68,0,0,1,.81-.25.94.94,0,0,1,1,1,3.12,3.12,0,0,1-1.52,2.41A1.72,1.72,0,0,1,36.37,52.91Zm1.39-3.22a1.2,1.2,0,0,0-.57.18,2.67,2.67,0,0,0-1.27,2c0,.21.06.56.45.56a1.21,1.21,0,0,0,.58-.18,2.67,2.67,0,0,0,1.27-2C38.22,50,38.16,49.69,37.76,49.69Z" fill="#f8d763"/>
                <path id="Trazado_130878" data-name="Trazado 130878" d="M60.91,97.43l.11-.05c.1,0,.15-.14.13-.19l-.59-1c0-.05-.13,0-.23,0h-.1l-.41-.72h.11c.1-.06.16-.14.13-.19l-.58-1h-.34l-.4-.72.1-.06a.146.146,0,0,0,.13-.18l-.29-.52c-.15-.26-.28-.53-.28-.53a.327.327,0,0,0-.23,0h-.1l-.38-.74h.11c.1-.06.16-.14.13-.19l-.53-1.06c0-.06-.13,0-.23,0h-.11l-.37-.74h.1c.1-.05.16-.14.14-.19l-.54-1.06c0-.05-.12-.05-.22,0l-.11.06-.37-.74.1-.06c.1,0,.16-.14.14-.19l-.54-1.06h-.23l-.1.06-.37-.74.1-.06a.151.151,0,0,0,.13-.19l-.53-1.06h-.23l-.1.06-.38-.74.11-.06a.146.146,0,0,0,.13-.18l-.53-1.07h-.34l-.37-.74h.1c.1-.06.17-.14.14-.19l-.54-1.06h-.33l-.37-.74.1-.05c.1,0,.16-.14.14-.19l-.54-1.06h-.23l-.1.06-.37-.75h.1a.155.155,0,0,0,.13-.19l-.53-1.06h-.23l-.1.06-.38-.74.11-.06c.1-.05.16-.13.13-.19l-.53-1.06c0-.05-.13-.05-.23,0l-.11.06-.37-.74.1-.06c.1,0,.17-.13.14-.18l-.54-1.07h-.33l-.37-.74h.1c.1-.06.16-.14.14-.19l-.54-1.06c0-.05-.13-.05-.23,0h-.1l-.38-.74h.11a.155.155,0,0,0,.13-.19l-.53-1.06h-.33l-.38-.74h.11a.155.155,0,0,0,.13-.19l-.53-1.06h-.23l-.11.06-.37-.74.1-.06c.11-.05.17-.13.14-.18l-.54-1.07c0-.05-.12-.05-.22,0l-.11.06-.37-.74.1-.06a.16.16,0,0,0,.14-.18l-.54-1.06c0-.06-.13-.06-.23,0h-.1l-.38-.74h.11c.1-.06.16-.14.14-.19l-.54-1.06c0-.05-.13-.05-.23,0h-.1l-.38-.74.11-.05a.155.155,0,0,0,.13-.19l-.53-1.06h-.23l-.11.05-.37-.74.1-.05a.156.156,0,0,0,.14-.19l-.54-1.06h-.22l-.11.06-.37-.75h.1c.1-.05.16-.13.14-.18l-.54-1.07c0-.05-.13-.05-.23,0l-.1.06-.38-.74.11-.06a.16.16,0,0,0,.14-.18l-.54-1.06c0-.06-.13-.06-.23,0l-.1.05-.44-.85s-.28.09-.26.13l.43.85-.12.06c-.1.06-.16.14-.14.19L38,54h.23l.12-.06.38.74-.13.06a.155.155,0,0,0-.13.19L39,56h.23l.12-.06.38.74-.13.06c-.1.05-.16.14-.13.19L40,58c0,.05.13.05.23,0l.13-.06.37.74-.12.06c-.1.05-.16.13-.14.19L41,60c0,.05.13.05.23,0l.12-.07.37.75-.12.06a.16.16,0,0,0-.14.18L42,62h.23l.12-.07.38.74-.13.07a.146.146,0,0,0-.13.18L43,64h.23l.13-.06.37.74-.12.07c-.1,0-.17.13-.14.18l.54,1.06c0,.06.12.06.23,0l.12-.06.37.74-.12.06c-.1.06-.16.14-.14.19l.54,1.06h.23l.12-.06.37.74-.12.06a.155.155,0,0,0-.13.19l.53,1.06h.23l.12-.06.38.74-.13.06a.155.155,0,0,0-.13.19l.53,1.06h.23l.13-.06.37.74-.12.06c-.1,0-.16.14-.14.19l.54,1.06h.23l.12-.07.37.74-.12.07c-.1.05-.16.13-.14.19l.54,1.06c0,.05.13.05.23,0l.12-.07.37.74-.12.07a.146.146,0,0,0-.13.18l.53,1.07h.23l.12-.06.38.74-.12.07c-.11,0-.17.13-.14.18l.54,1.07h.22l.13-.06.37.74-.12.06c-.1.06-.16.14-.14.19l.54,1.06c0,.06.13,0,.23,0l.12-.06.37.74-.12.06c-.1.06-.16.14-.13.19l.53,1.06h.23l.12-.06.38.74-.13.06c-.1.05-.16.14-.13.19l.53,1.06c0,.05.13.05.23,0l.12-.07.38.75-.12.06c-.1,0-.16.14-.14.19l.54,1.06h.23l.12-.07.37.74-.12.07c-.1,0-.16.14-.14.19l.54,1.06h.23l.12-.07.37.74-.12.07a.151.151,0,0,0-.13.19l.53,1.06h.23l.12-.06.38.74-.13.07a.146.146,0,0,0-.13.18c.03.05.13.27.28.53l.29.52h.23l.13-.06.4.72-.12.07a.146.146,0,0,0-.13.18l.58,1h.23l.12-.06.41.72-.12.07a.155.155,0,0,0-.13.19l.58,1h.23l.12-.07.47.83s.28-.1.26-.14ZM38.31,53.88h-.18l-.48-1a.168.168,0,0,1,.1-.15h0c0,.07.3-.07.28-.1s.16-.09.18-.05l.48,1a.158.158,0,0,1-.1.14h0s-.28.1-.27.14h0Zm1,2h-.18l-.48-.95a.166.166,0,0,1,.11-.15h0c0,.07.3-.06.28-.1s.16-.08.18,0l.49,1a.157.157,0,0,1-.11.14h0s-.28.1-.26.13h0Zm1,2h-.18l-.48-1a.166.166,0,0,1,.11-.15h0c0,.07.29-.06.27-.1s.17-.08.19,0l.48.95a.166.166,0,0,1-.11.15h0s-.28.1-.26.13h0Zm1,2h-.18l-.49-1a.166.166,0,0,1,.11-.15h0c0,.07.3-.06.28-.1s.16-.08.18,0l.48.95a.166.166,0,0,1-.11.15h0s-.29.09-.27.13h0Zm1,2h-.18l-.48-1a.158.158,0,0,1,.1-.14h0c0,.07.3-.07.28-.1s.16-.08.18,0l.48,1a.168.168,0,0,1-.1.15h0s-.28.09-.26.13h0Zm1,2h-.18l-.48-1a.157.157,0,0,1,.11-.14h0c0,.07.3-.07.28-.1s.16-.09.18,0l.48,1a.158.158,0,0,1-.1.14h0s-.28.1-.26.14h0Zm1,2h-.18l-.48-1a.175.175,0,0,1,.11-.15h0c0,.07.29-.07.27-.11s.17-.08.19,0l.48,1a.157.157,0,0,1-.11.14h0s-.28.1-.26.14h0Zm1,2h-.18l-.48-1a.168.168,0,0,1,.1-.15h0c0,.07.3-.06.28-.1s.16-.08.18,0l.48.95a.166.166,0,0,1-.11.15h0s-.28.1-.27.14h0Zm1,2h-.18l-.48-1a.166.166,0,0,1,.11-.15h0c0,.07.3-.06.28-.1s.16-.08.18,0l.48,1a.168.168,0,0,1-.1.15h0s-.28.1-.26.13h0Zm1,2h-.18l-.48-1a.166.166,0,0,1,.11-.15h0c0,.07.3-.06.28-.1s.16-.08.18,0l.48,1a.168.168,0,0,1-.1.15h0s-.28.1-.26.13h0Zm1,2h-.18l-.49-1a.166.166,0,0,1,.11-.15h0c0,.07.29-.07.27-.1s.17-.09.19,0l.48,1a.175.175,0,0,1-.11.15h0s-.28.1-.26.14h0Zm1,2h-.18l-.48-1a.158.158,0,0,1,.1-.14h0c0,.07.3-.07.28-.1s.16-.09.18-.05l.48,1a.157.157,0,0,1-.11.14h0s-.28.1-.27.14h0Zm1,2h-.18l-.48-1a.157.157,0,0,1,.11-.14h0c0,.07.3-.07.28-.11s.16-.08.18,0l.48,1a.168.168,0,0,1-.1.15h0s-.28.1-.26.14h0Zm1,2h-.18l-.48-1a.175.175,0,0,1,.11-.15h0c0,.06.3-.07.28-.11s.16-.08.18,0l.48,1a.168.168,0,0,1-.1.15h0s-.28.1-.26.14h0Zm1,2h-.18l-.48-1a.168.168,0,0,1,.1-.15h0c0,.07.29-.06.28-.1s.16-.08.18,0l.48,1a.166.166,0,0,1-.11.15h0s-.28.1-.26.13h0Zm1,2h-.18l-.48-.95a.168.168,0,0,1,.1-.15h0c0,.07.3-.07.28-.1s.16-.09.18,0l.48,1a.175.175,0,0,1-.11.15h0s-.28.1-.26.13h0Zm1,2h-.18l-.48-1a.166.166,0,0,1,.11-.15h0c0,.07.3-.07.28-.1s.16-.09.18,0l.48,1a.158.158,0,0,1-.1.14h0s-.28.1-.26.14h0Zm1,2h-.18l-.48-1a.166.166,0,0,1,.11-.15h0c0,.07.29-.07.27-.11s.16-.08.18,0l.48,1a.168.168,0,0,1-.1.15h0s-.28.1-.26.14h0Zm1,2h-.18l-.48-1a.168.168,0,0,1,.1-.15h0c0,.07.29-.07.28-.11s.16-.08.18,0l.48,1a.166.166,0,0,1-.11.15h0s-.28.1-.26.14h0Zm1,2h-.18l-.48-1a.175.175,0,0,1,.11-.15h0c0,.07.3-.07.28-.11s.16-.08.18,0l.48.95a.166.166,0,0,1-.11.15h0s-.28.1-.26.14h0Zm1,2c-.08.05-.16.05-.18,0L58,93.17c-.14-.23-.26-.47-.26-.47a.175.175,0,0,1,.11-.15h0c0,.07.3-.06.28-.1s.16-.09.18-.05.12.24.25.47.27.47.27.47a.166.166,0,0,1-.11.15h0s-.28.1-.26.14h0Zm1.09,2h-.19l-.52-.93a.166.166,0,0,1,.11-.15h0c0,.07.3-.07.28-.1s.16-.09.18,0l.52.93a.168.168,0,0,1-.1.15h0s-.28.1-.26.14h0Zm1.09,1.94H60.3l-.52-.93a.178.178,0,0,1,.1-.15h0c0,.06.3-.07.28-.11s.16-.09.18,0l.52.93a.168.168,0,0,1-.1.15h0s-.28.11-.26.14h0Z" fill="url(#linear-gradient-20)"/>
                <path id="Trazado_130879" data-name="Trazado 130879" d="M36.38,53.2l-.1-.06.45-.84s-.24-.18-.26-.14L36,53l-.12-.06c-.1-.06-.21-.06-.23,0l-.56,1a.178.178,0,0,0,.13.19l.12.07L35,55l-.12-.07h-.23L34.06,56a.221.221,0,0,0,.13.19l.13.06-.39.73-.12-.06c-.1-.06-.21-.06-.23,0l-.56,1a.178.178,0,0,0,.13.19l.12.07-.39.73-.12-.07h-.23L32,59.88a.221.221,0,0,0,.13.19l.13.06-.39.73-.13-.06c-.1,0-.2-.06-.23,0l-.55,1.05a.212.212,0,0,0,.13.19l.12.07-.39.73-.12-.07h-.23l-.56,1.05a.221.221,0,0,0,.13.19l.12.06-.39.73-.12-.06c-.1,0-.2-.06-.23,0l-.56,1a.21.21,0,0,0,.14.19l.12.07-.39.73-.12-.07h-.23l-.56,1a.183.183,0,0,0,.13.19L28,68l-.39.74-.12-.07c-.1,0-.2-.06-.23,0l-.56,1a.172.172,0,0,0,.13.19L27,70l-.39.73-.12-.06c-.1-.06-.21-.06-.23,0l-.56,1a.212.212,0,0,0,.13.19l.12.06-.39.74-.12-.07h-.23l-.56,1a.2.2,0,0,0,.13.18l.13.07-.39.73-.13-.06c-.1-.06-.2-.06-.23,0l-.55,1a.178.178,0,0,0,.13.19l.12.06-.39.74-.12-.07h-.23l-.56,1a.168.168,0,0,0,.13.18l.12.07-.39.73-.12-.06c-.1-.06-.2-.06-.23,0l-.56,1a.21.21,0,0,0,.14.19l.12.07-.39.73-.12-.07h-.23l-.56,1a.221.221,0,0,0,.13.19l.12.06-.39.73-.12-.06c-.1-.06-.2-.06-.23,0l-.56,1a.178.178,0,0,0,.13.19l.13.07-.39.73-.12-.07h-.23l-.56,1.05a.221.221,0,0,0,.13.19l.12.06-.39.73-.12-.06c-.1,0-.2-.06-.23,0l-.56,1a.212.212,0,0,0,.13.19l.13.07-.39.73L17.07,88h-.23l-.55,1a.221.221,0,0,0,.13.19l.12.06-.39.73-.15.3c-.1,0-.2-.06-.23,0l-.56,1a.178.178,0,0,0,.13.19l.12.07-.39.73L15,92.24h-.23l-.56,1.05a.219.219,0,0,0,.14.19l.12.06-.4.73-.12-.06c-.1-.06-.2-.06-.23,0l-.57,1a.219.219,0,0,0,.14.19l.12.06-.4.73-.12-.07h-.23l-.57,1a.212.212,0,0,0,.13.19l.12.07-.45.83s.24.18.26.14l.45-.83.11.05c.1.06.2.06.23,0l.56-1a.221.221,0,0,0-.13-.19h-.1l.4-.73.1.06H14l.57-1a.212.212,0,0,0-.13-.19l-.11-.06.4-.73.1.06c.1.05.2.05.23,0l.56-1a.2.2,0,0,0-.13-.18l-.11-.06.39-.73h.11c.1.06.2.06.23,0l.55-1a.212.212,0,0,0-.13-.19l-.1-.06.39-.73.1.06h.23l.56-1a.183.183,0,0,0-.13-.19h-.1l.38-.73h.11c.1.06.2.06.23,0l.56-1a.21.21,0,0,0-.14-.19l-.1-.06.39-.73.1.06c.1.05.21.05.23,0l.56-1a.221.221,0,0,0-.13-.19h-.1l.39-.73h.1c.1,0,.2.06.23,0l.56-1a.178.178,0,0,0-.13-.19l-.11-.06.39-.73.11.06h.22l.56-1a.183.183,0,0,0-.13-.19h-.1l.39-.74.1.06c.1,0,.2.06.23,0l.56-1a.172.172,0,0,0-.13-.19l-.11-.06.39-.73.11.05c.1.06.2.06.23,0L24,77a.21.21,0,0,0-.14-.19h-.1l.39-.74.1.06h.23L25,75a.2.2,0,0,0-.13-.18l-.1-.06.38-.73h.11c.1.06.2.06.23,0l.56-1a.177.177,0,0,0-.14-.19l-.1-.06.39-.73.1.06h.23l.56-1.05a.221.221,0,0,0-.13-.19h-.1l.39-.73.1.05c.1.06.2.06.23,0l.56-1a.212.212,0,0,0-.13-.19l-.11-.06.39-.73.11.06h.23l.55-1a.221.221,0,0,0-.13-.19h-.1l.39-.73h.1c.1.06.2.06.23,0l.56-1a.178.178,0,0,0-.13-.19l-.1-.23.39-.73.11.06h.23l.56-1.05c0-.05,0-.13-.14-.19l-.1-.05.39-.73h.1c.1.05.21.06.23,0l.56-1a.172.172,0,0,0-.13-.19L32.1,61l.38-.73.11.06c.1.05.2.05.23,0l.56-1a.183.183,0,0,0-.13-.19L33.14,59l.39-.74.1.06c.1,0,.21.06.23,0l.56-1a.168.168,0,0,0-.13-.18l-.1-.06.39-.73h.1c.1.06.2.06.23,0l.56-1a.178.178,0,0,0-.13-.19h-.11l.39-.74.11.06h.23l.55-1A.227.227,0,0,0,36.38,53.2ZM13.23,96.45a.122.122,0,0,1,.1.15l-.51.94h-.18s-.24-.17-.26-.13h0a.12.12,0,0,1-.11-.14l.51-.94h.19c0,.07.22.21.24.17A.162.162,0,0,0,13.23,96.45Zm1.06-2c.08.05.13.11.1.15l-.51.94H13.7s-.24-.18-.26-.14h0a.122.122,0,0,1-.1-.15l.51-.94h.18c0,.06.23.2.25.17s.01.01.01.01Zm1.05-2a.129.129,0,0,1,.11.15l-.51.94h-.18c-.08,0,0-.05,0-.05s-.24-.17-.26-.14h0a.122.122,0,0,1-.1-.15l.5-.94h.18c0,.07.22.21.24.18s.02.09.02.09Zm1.05-2a.122.122,0,0,1,.1.15l-.5.94h-.18s-.24-.18-.26-.14h0a.129.129,0,0,1-.11-.15l.5-1h.19c0,.07.22.21.24.17s.02.15.02.15Zm1-2a.129.129,0,0,1,.11.15l-.5.94h-.18s-.24-.18-.26-.14h0a.122.122,0,0,1-.1-.15l.5-.94h.18c0,.07.22.21.24.17s.05.12.05.12Zm1.05-2a.113.113,0,0,1,.1.14l-.5,1h-.18s-.24-.17-.26-.13h0a.129.129,0,0,1-.11-.15l.51-1h.18c0,.07.23.21.24.17s.06.16.06.16Zm1.05-2c.07,0,.12.11.1.15l-.5.94h-.18c-.08,0,0-.05,0-.05s-.24-.18-.26-.14h0c-.07,0-.12-.11-.1-.15l.5-.94h.18c0,.07.22.21.24.17s.06.24.06.24Zm1-2a.129.129,0,0,1,.11.15l-.51,1h-.18c-.08,0,0-.05,0-.05s-.24-.17-.26-.14h0c-.08,0-.13-.1-.1-.14l.5-1h.18c0,.06.23.2.25.17s.09.26.09.26Zm1.05-2a.122.122,0,0,1,.1.15l-.5.94h-.18s-.24-.18-.26-.14h0a.129.129,0,0,1-.11-.15l.5-.94h.18c0,.07.22.21.24.17s.11.26.11.26Zm1-2a.129.129,0,0,1,.11.15l-.5,1h-.19s-.24-.17-.26-.14h0a.122.122,0,0,1-.1-.15l.5-.94h.18c0,.06.22.2.24.17s.14.23.14.23Zm1.05-2a.122.122,0,0,1,.1.15l-.5.94h-.18c-.08,0,0-.05,0-.05s-.24-.18-.26-.14h0a.129.129,0,0,1-.11-.15l.5-.94h.19c0,.07.22.21.24.17s.14.38.14.38Zm1-2a.129.129,0,0,1,.11.15l-.5.94h-.18c-.07,0,0-.05,0-.05s-.24-.17-.26-.14h0a.122.122,0,0,1-.1-.15l.5-.94h.18c0,.07.22.21.24.18a2.092,2.092,0,0,1,.17.4Zm1.05-2c.08,0,.13.11.1.15l-.5.94h-.18s-.24-.18-.26-.14h0a.129.129,0,0,1-.11-.15l.51-.94h.18c0,.07.23.21.24.17a2.509,2.509,0,0,1,.18.4Zm1.05-2c.07,0,.12.11.1.15l-.5.94h-.18s-.24-.17-.26-.14h0c-.07,0-.12-.11-.1-.15l.5-.94h.18c0,.07.22.21.24.17s.18.43.18.43Zm1-2a.12.12,0,0,1,.11.14l-.51,1h-.18s-.24-.18-.26-.14h0c-.08-.05-.13-.11-.1-.15l.5-.94h.18c0,.07.23.21.25.17a2.557,2.557,0,0,1,.21.47Zm1.05-2a.122.122,0,0,1,.1.15l-.5.94h-.18s-.24-.18-.26-.14h0a.129.129,0,0,1-.11-.15l.5-.94h.18c0,.07.22.21.24.17a3.128,3.128,0,0,1,.23.52Zm1-2a.12.12,0,0,1,.11.14l-.5,1h-.19s-.24-.17-.26-.13h0a.122.122,0,0,1-.1-.15l.5-1h.18c0,.07.22.2.24.17A3.657,3.657,0,0,1,30,65Zm1.05-2a.122.122,0,0,1,.1.15l-.5.94h-.18s-.24-.18-.26-.14h0a.129.129,0,0,1-.11-.15l.5-.94h.19c0,.07.22.21.24.17a3.759,3.759,0,0,1,.23.57Zm1-2c.08.05.13.11.11.15l-.5,1h-.18c-.07,0,0-.05,0-.05s-.24-.17-.26-.14h0a.113.113,0,0,1-.1-.14l.5-1h.18c0,.07.22.2.24.17a5.381,5.381,0,0,1,.29.64Zm1-2c.08,0,.13.11.1.15l-.5.94h-.18c-.08,0,0-.05,0-.05a4.462,4.462,0,0,1,.07.51h0a.129.129,0,0,1-.11-.15l.51-.94h.18c0,.07.23.21.25.17s.01.04.01.04Zm1.05-2c.07.05.12.11.1.15l-.5.94h-.18c-.08,0,0-.05,0-.05s-.24-.17-.26-.14h0a.113.113,0,0,1-.1-.14l.5-1h.18c0,.06.22.2.24.17a7.791,7.791,0,0,1,.35.77Zm1-2a.129.129,0,0,1,.11.15l-.51.94h-.18c-.08,0,0-.05,0-.05s-.24-.18-.26-.14h0c-.08,0-.13-.11-.1-.15l.5-.94h.18c0,.07.23.21.25.17a6.73,6.73,0,0,1,.38.76Zm.65-.88h-.18c-.08,0,0-.05,0-.05s-.24-.17-.26-.14h0a.129.129,0,0,1-.11-.15l.5-.94h.18c0,.07.22.21.24.18s.16.08.14.12Z" fill="url(#linear-gradient-21)"/>
                <path id="Trazado_130880" data-name="Trazado 130880" d="M37.25,54.26c.11,0,.21,0,.21-.08v-1.1a.32.32,0,0,0-.2-.11h-.12l.05-.88s-.3-.06-.3,0v.88h-.14c-.11,0-.2,0-.21.08v1.1c0,.06.09.1.2.11h.14v.77h-.13c-.12,0-.21,0-.21.09l-.05,1.1c0,.05.08.1.2.1h.13v.77h-.14c-.11,0-.21,0-.21.09v1.09c0,.06.09.1.2.11h.14v.76h-.14c-.11,0-.2,0-.21.08v1.1c0,.05.09.1.2.11h.14v.77h-.13c-.12,0-.21,0-.21.09l-.05,1.1a.283.283,0,0,0,.2.1h.13v.76H36.6c-.11,0-.21,0-.21.08v1.1c0,.06.09.1.2.11h.14v.77h-.14c-.11,0-.2,0-.21.09v1.1a.313.313,0,0,0,.2.1h.14v.77h-.14c-.12,0-.21,0-.21.09l-.05,1.09c0,.06.08.1.2.11h.13v.76H36c-.11,0-.21,0-.21.08l-.05,1.1a.359.359,0,0,0,.2.11h.14v.77h-.14c-.11,0-.2,0-.2.09l-.06,1.1a.313.313,0,0,0,.2.1H36v.76h-.2c-.12,0-.21,0-.21.08l-.05,1.1a.32.32,0,0,0,.2.11h.14v.77H35.7c-.11,0-.21,0-.21.09l-.05,1.1a.313.313,0,0,0,.2.1h.14v.77h-.13c-.12,0-.21,0-.21.08l-.06,1.1c0,.06.09.1.2.11h.14v.76h-.14c-.11,0-.21,0-.21.09v1.1a.313.313,0,0,0,.2.1h.14v.77h-.14c-.11,0-.2,0-.21.09l-.05,1.09c0,.06.09.11.2.11h.14v.76h-.13c-.12,0-.21,0-.21.08v1.1a.32.32,0,0,0,.2.11h.13v.77H35.5c-.11,0-.21,0-.21.09L35,87a.313.313,0,0,0,.2.1h.14v.76H35.2c-.11,0-.2,0-.21.08v1.1c0,.06.09.1.2.11h.14v.77H35c-.12,0-.21,0-.21.09v1.1a.283.283,0,0,0,.2.1h.13v.77h-.14c-.11,0-.21,0-.21.09v1.09c0,.06.09.1.2.11H35v.76h-.14c-.11,0-.2,0-.21.08v1.1a.359.359,0,0,0,.2.11h.14v.77h-.14c-.12,0-.21,0-.21.09l-.05,1.1a.283.283,0,0,0,.2.1h.13v.76h-.14c-.11,0-.21,0-.21.08v1.1a.359.359,0,0,0,.2.11h.14v.77h-.14c-.11,0-.2,0-.21.09v1.1a.313.313,0,0,0,.2.1h.14v.77h-.14c-.12,0-.21,0-.21.09l-.05,1.09c0,.06.08.1.2.11h.14v.76H34.7c-.11,0-.21,0-.21.09v1.1a.313.313,0,0,0,.2.1h.14v.77h-.14c-.11,0-.2,0-.2.09l-.06,1.1a.313.313,0,0,0,.2.1h.14v.76h-.14c-.11,0-.21,0-.21.08l-.05,1.1a.32.32,0,0,0,.2.11h.14v.77h-.14c-.11,0-.2,0-.21.09l-.05,1.1a.313.313,0,0,0,.2.1h.14v.76H34c-.12,0-.21,0-.21.08l-.06,1.1c0,.06.09.1.2.11H34v.88s.29.05.3,0v-.87h.11c.12,0,.21,0,.21-.08l.06-1.1a.359.359,0,0,0-.2-.11H34.4v-.77h.12c.11,0,.21,0,.21-.09l.05-1.1a.313.313,0,0,0-.2-.1h-.12v-.76h.12c.11,0,.2,0,.21-.08v-1.1c0-.06-.09-.1-.2-.11h-.12v-.77h.11c.12,0,.21,0,.21-.09v-1.1a.283.283,0,0,0-.2-.1h-.11v-.76h.12c.11,0,.21,0,.21-.09l.05-1.09c0-.06-.09-.1-.2-.11h-.12v-.77h.12c.11,0,.2,0,.21-.08l.05-1.1a.359.359,0,0,0-.2-.11H34.6v-.77H35c.12,0,.21,0,.21-.09v-1.1a.283.283,0,0,0-.2-.1H35v-.76h.12c.11,0,.21,0,.21-.08v-1.1a.359.359,0,0,0-.2-.11h-.12v-.77h.12c.11,0,.2,0,.21-.09l.05-1.1a.313.313,0,0,0-.2-.1h-.12v-.76h.11c.12,0,.21,0,.21-.09V94.15c0-.06-.08-.1-.2-.11h-.11v-.77h.12c.11,0,.21,0,.21-.09v-1.1a.313.313,0,0,0-.2-.1h-.12v-.77h.12c.11,0,.2,0,.2-.09l.06-1.09c0-.06-.09-.11-.2-.11h-.12v-.76h.12c.12,0,.21,0,.21-.08v-1.1a.32.32,0,0,0-.2-.11h-.11V87.1h.12c.11,0,.21,0,.21-.09L36,86a.313.313,0,0,0-.2-.1h-.12v-.76h.12c.11,0,.2,0,.2-.08l.06-1.1c0-.06-.09-.1-.2-.11h-.12v-.77h.12c.11,0,.21,0,.21-.09v-1.1a.283.283,0,0,0-.2-.1h-.12v-.77H36c.11,0,.2,0,.21-.09V79.84c0-.06-.09-.1-.2-.11h-.12v-.76H36c.12,0,.21,0,.21-.08l.06-1.1a.362.362,0,0,0-.21-.11H36v-.77h.12c.11,0,.21,0,.21-.09l.05-1.1a.313.313,0,0,0-.2-.1h-.12v-.76h.12c.11,0,.2,0,.21-.08v-1.1a.359.359,0,0,0-.2-.11h-.12V72.8h.11c.12,0,.21,0,.21-.09v-1.1a.283.283,0,0,0-.2-.1h-.11v-.76h.12c.11,0,.21,0,.21-.09l.05-1.09c0-.06-.09-.1-.2-.11h-.12v-.77h.12c.11,0,.2,0,.21-.09l.05-1.1a.313.313,0,0,0-.2-.1H36.2v-.77h.11c.12,0,.21,0,.21-.09v-1.1a.283.283,0,0,0-.2-.1h-.11v-.76h.12c.11,0,.21,0,.21-.08l.05-1.1a.359.359,0,0,0-.2-.11h-.12v-.77h.12c.11,0,.2,0,.21-.09l.05-1.1a.313.313,0,0,0-.2-.1h-.12v-.76H37c.12,0,.21,0,.21-.08v-1.1c0-.06-.08-.1-.2-.11H36.9v-.77h.12c.11,0,.21,0,.21-.09v-1.1a.313.313,0,0,0-.2-.1H37v-.77h.12c.11,0,.2,0,.2-.09l.06-1.09c0-.06-.09-.1-.2-.11H37.1V54.3Zm-2.84,58.41c.09,0,.16,0,.16.08v1a.253.253,0,0,1-.17.06h0s-.29-.05-.29,0h0c-.09,0-.16,0-.16-.09v-1a.242.242,0,0,1,.17-.07h0c0,.07.29.09.29,0Zm.1-2.06c.09,0,.16,0,.16.08l-.05,1a.255.255,0,0,1-.16.07h0s-.29-.06-.3,0h0c-.09,0-.16,0-.16-.08l.05-1a.3.3,0,0,1,.17-.07h0c0,.07.29.08.29,0Zm.1-2.06c.09,0,.16,0,.15.09v1a.242.242,0,0,1-.17.07h0s-.3-.05-.3,0h0c-.09,0-.16,0-.16-.08l.05-1a.21.21,0,0,1,.16-.07h0c0,.07.29.09.3,0s-.03-.01-.03-.01Zm.09-2c.09,0,.16,0,.16.08v1a.3.3,0,0,1-.17.07H34.4c-.09,0-.16,0-.16-.08v-1a.3.3,0,0,1,.17-.07h0c0,.08.29.09.29,0s0-.05,0-.05Zm.1-2.06c.09,0,.16,0,.16.09l-.05,1a.255.255,0,0,1-.16.07h0s-.29-.05-.3,0h0c-.09,0-.16,0-.16-.08l.05-1a.253.253,0,0,1,.17-.06h0c0,.07.29.08.29,0s0-.07,0-.07Zm.1-2c.09,0,.16,0,.15.08v1a.253.253,0,0,1-.17.06h-.29c-.09,0-.16,0-.16-.09l.05-1a.255.255,0,0,1,.16-.07h0c0,.07.29.09.29,0s-.03-.08-.03-.08Zm.09-2.06c.09,0,.16,0,.16.08v1a.255.255,0,0,1-.16.07h0s-.29-.06-.29,0h-.05c-.08,0-.16,0-.15-.08v-1a.3.3,0,0,1,.17-.07h0c0,.07.29.08.29,0s.04-.1.04-.1Zm.1-2.06c.09,0,.16,0,.16.09v1a.21.21,0,0,1-.16.07h0s-.29-.05-.3,0h0c-.09,0-.16-.05-.16-.09v-1a.234.234,0,0,1,.16-.07h0c0,.07.3.09.3,0s0-.1,0-.1Zm.1-2c.08,0,.16,0,.15.08v1a.3.3,0,0,1-.17.07h-.29c-.09,0-.16,0-.16-.08l.05-1a.255.255,0,0,1,.16-.07h0c0,.08.29.09.29,0a.364.364,0,0,0-.03-.15Zm.09-2.06c.09,0,.16,0,.16.09v1a.255.255,0,0,1-.16.07h0s-.29-.05-.29,0v.05h0c-.09,0-.16,0-.15-.08v-1a.253.253,0,0,1,.17-.06h0c0,.07.29.08.29,0a2.084,2.084,0,0,0-.02-.22Zm.1-2c.09,0,.16,0,.16.08v1a.243.243,0,0,1-.16.06h-.3c-.09,0-.16,0-.16-.09v-1a.255.255,0,0,1,.16-.07h0c0,.07.3.09.3,0s0-.18,0-.18Zm.1-2.06c.08,0,.15,0,.15.08v1a.3.3,0,0,1-.17.07h0s-.29-.05-.29,0h0c-.09,0-.16,0-.16-.08l.05-1S35,90,35.12,90h0c0,.07.29.08.29,0l.07.05Zm.09-2c.09,0,.16,0,.16.08v1a.21.21,0,0,1-.16.07h-.29c-.09,0-.16-.05-.15-.09v-1a.242.242,0,0,1,.17-.07h0c0,.07.29.09.29,0a2.389,2.389,0,0,0-.02-.24Zm.1-2.06c.09,0,.16,0,.16.08v1a.3.3,0,0,1-.17.07h0s-.3-.06-.3,0h0c-.09,0-.16,0-.16-.08v-1a.255.255,0,0,1,.16-.07h0c0,.08.29.09.3,0s.01-.25.01-.25Zm.09-2.06c.09,0,.16.05.16.09v1a.242.242,0,0,1-.17.07h-.29c-.09,0-.16,0-.16-.08v-1a.242.242,0,0,1,.17-.07h0c0,.07.29.08.29,0s0-.26,0-.26Zm.1-2c.09,0,.16,0,.16.08l-.05,1a.255.255,0,0,1-.16.07h-.29c-.09,0-.16,0-.16-.08l.05-1a.3.3,0,0,1,.17-.07h0c0,.08.29.09.29,0s-.01-.3-.01-.3Zm.1-2.06c.09,0,.16,0,.16.09v1a.3.3,0,0,1-.17.07h0s-.3-.05-.3,0h0c-.09,0-.16,0-.16-.08v-1a.218.218,0,0,1,.16-.06h0c0,.07.29.08.3,0s.05-.32.05-.32Zm.09-2c.09,0,.16,0,.16.08v1a.253.253,0,0,1-.17.06h-.29c-.09,0-.16,0-.16-.09v-1a.3.3,0,0,1,.17-.07h0c0,.07.29.09.29,0s0-.33,0-.33Zm.1-2.06c.09,0,.16,0,.16.08l-.05,1a.255.255,0,0,1-.16.07h0s-.29-.06-.3,0h0c-.09,0-.16,0-.16-.08l.05-1a.3.3,0,0,1,.17-.07h0c0,.07.29.08.29,0s0-.35,0-.35Zm.1-2.06c.09,0,.16.05.15.09v1a.242.242,0,0,1-.17.07h-.3c-.09,0-.16,0-.16-.09v-1a.21.21,0,0,1,.16-.07h0c0,.07.29.09.3,0s.02-.35.02-.35Zm.09-2c.09,0,.16,0,.16.08v1a.255.255,0,0,1-.16.07h-.29c-.09,0-.16,0-.16-.08v-1a.3.3,0,0,1,.17-.07h0c0,.08.29.09.29,0s-.01-.4-.01-.4Zm.1-2.06c.09,0,.16,0,.16.09l-.05,1a.255.255,0,0,1-.16.07h-.3v.05h0c-.09,0-.16,0-.16-.08l.05-1a.243.243,0,0,1,.16-.06h.05c0,.07.29.08.29,0s-.04-.47-.04-.47Zm.1-2c.09,0,.16,0,.15.08v1a.253.253,0,0,1-.17.06h-.29c-.09,0-.16,0-.16-.09l.05-1a.255.255,0,0,1,.16-.07h0c0,.07.29.09.29,0s-.03-.43-.03-.43Zm.09-2.06c.09,0,.16,0,.16.08v1a.255.255,0,0,1-.16.07h0s-.29-.06-.29,0h0c-.08,0-.16,0-.15-.08v-1a.3.3,0,0,1,.17-.07h0c0,.07.29.08.29,0s-.02-.45-.02-.45Zm.1-2c.09,0,.16,0,.16.08v1a.234.234,0,0,1-.16.07h-.3c-.09,0-.16,0-.16-.09l.05-1c0-.05.08-.08.16-.07h0c0,.07.3.09.3,0s-.05-.49-.05-.49Zm.1-2.06c.08,0,.16,0,.15.08v1a.3.3,0,0,1-.17.07h0s-.29-.06-.29,0h0c-.09,0-.16,0-.16-.08l.05-1a.255.255,0,0,1,.16-.07h0c0,.08.29.09.29,0s-.03-.5-.03-.5Zm.09-2.06c.09,0,.16,0,.16.09v1a.21.21,0,0,1-.16.07h0s-.29-.05-.29,0h0c-.09,0-.16,0-.15-.08v-1a.253.253,0,0,1,.17-.06h0c0,.07.29.08.29,0s-.02-.52-.02-.52Zm.1-2.05c.09,0,.16,0,.16.08v1a.3.3,0,0,1-.17.07h-.3c-.09,0-.16,0-.16-.08v-1a.255.255,0,0,1,.16-.07h0c0,.07.29.09.3,0s-.01-.5-.01-.5Zm.09-2.06c.09,0,.16,0,.16.08v1a.3.3,0,0,1-.17.07h0s-.29-.05-.29,0h0c-.09,0-.16,0-.16-.08l.05-1a.255.255,0,0,1,.16-.07h0c0,.07.29.08.29,0s-.04-.5-.04-.5Zm-.31-.93c-.09,0-.16,0-.15-.09v-1a.242.242,0,0,1,.17-.07h0c0,.07.29.09.29,0s.18,0,.18.05v1a.218.218,0,0,1-.16.06h-.29Z" fill="url(#linear-gradient-22)"/>
                <path id="Trazado_130881" data-name="Trazado 130881" d="M11.27,100.76a.11.11,0,0,1-.08,0,.14.14,0,0,1,0-.2,6.81,6.81,0,0,0,.93-2.26.61.61,0,0,0,0-.37,1.12,1.12,0,0,0-.29.3.141.141,0,1,1-.2-.2c.25-.35.47-.48.65-.39s.25.22.14.69a6.86,6.86,0,0,1-1,2.36.14.14,0,0,1-.15.07Z" fill="#cd8500"/>
                <path id="Trazado_130882" data-name="Trazado 130882" d="M62.09,100.73a.15.15,0,0,1-.13-.07,6.74,6.74,0,0,1-1-2.35c-.1-.47,0-.64.14-.7s.41,0,.66.39a.16.16,0,0,1,0,.21.17.17,0,0,1-.21,0c-.2-.29-.31-.3-.31-.3a1.47,1.47,0,0,0,0,.37,6.37,6.37,0,0,0,.93,2.25.17.17,0,0,1,0,.21Z" fill="#cd8500"/>
                <path id="Trazado_130883" data-name="Trazado 130883" d="M35.49,116.08a.15.15,0,0,1-.15-.15,1.243,1.243,0,1,0-2.48-.18.14.14,0,0,1-.14.14.15.15,0,0,1-.15-.15,1.52,1.52,0,0,1,1.6-1.44,1.47,1.47,0,0,1,1,.51,1.52,1.52,0,0,1,.39,1.1A.15.15,0,0,1,35.49,116.08Z" fill="#cd8500"/>
              </g>
              <path id="Trazado_130884" data-name="Trazado 130884" d="M36.53,46.76a1.75,1.75,0,0,0-.82-.25.94.94,0,0,0-.94,1.05,3,3,0,0,0,.45-.21l.08-.05a.39.39,0,0,1,.41-.3,1.2,1.2,0,0,1,.57.19,2.64,2.64,0,0,1,1.27,2c0,.21-.06.57-.45.57a1.17,1.17,0,0,1-.57-.19l-.14-.11a4.76,4.76,0,0,1-.57.19,3.1,3.1,0,0,0,.46.35,1.7,1.7,0,0,0,.82.24.94.94,0,0,0,.94-1A3.11,3.11,0,0,0,36.53,46.76Z" fill="#f8d763"/>
            </g>
          </g>
        </g>
      </g>
    </g>
  </g>
</svg>
