<svg xmlns="http://www.w3.org/2000/svg" width="512.79" height="552.86" viewBox="0 0 512.79 552.86">
  <g id="Grupo_124813" data-name="Grupo 124813" transform="translate(-265 -5014)">
    <g id="CF8_sanciones" transform="translate(244.48 4990.34)">
      <g id="Layer_1" data-name="Layer 1">
        <rect id="Rectángulo_7247" data-name="Rectángulo 7247" width="2.63" height="187.35" transform="translate(352.91 48.77)" fill="#f6ba4f"/>
        <rect id="Rectángulo_7248" data-name="Rectángulo 7248" width="5.26" height="187.35" transform="translate(499.58 384.41)" fill="#f6ba4f"/>
        <path id="Trazado_132836" data-name="Trazado 132836" d="M504.85,474.72h-5.27v58.82l5.27,10.9Z" fill="#f39234"/>
        <path id="Trazado_132837" data-name="Trazado 132837" d="M533.31,576.52H471.12l31.48-11.49Z" fill="#f6ba4f"/>
        <path id="Trazado_132838" data-name="Trazado 132838" d="M354.1,23.66l-5.64,39.75,5.64,10.01,5.64-10.01Z" fill="#f6ba4f"/>
        <path id="Trazado_132839" data-name="Trazado 132839" d="M349.4,72.11a4.83,4.83,0,1,0,4.82-5,4.9,4.9,0,0,0-4.82,5Z" fill="#f6ba4f"/>
        <path id="Trazado_132840" data-name="Trazado 132840" d="M445.89,430.53a5.78,5.78,0,0,1-8.06,2.69l-94.19-56.93a10.19,10.19,0,0,1-5.12-9.8l22.16-239.76a2.34,2.34,0,0,1,4.54-.67l100.21,254.3Z" fill="#fd8f25"/>
        <path id="Trazado_132841" data-name="Trazado 132841" d="M445.89,430.53a5.78,5.78,0,0,1-8.06,2.69l-94.19-56.93a10.19,10.19,0,0,1-5.12-9.8l22.16-239.76a2.34,2.34,0,0,1,4.54-.67l100.21,254.3Z" fill="#04357c"/>
        <path id="Trazado_132842" data-name="Trazado 132842" d="M343.29,314.88l-4.77,51.61a10.19,10.19,0,0,0,5.12,9.8l94.19,56.93a5.78,5.78,0,0,0,8.06-2.69l16.86-43.28Z" fill="#cd1126"/>
        <path id="Trazado_132843" data-name="Trazado 132843" d="M445.89,430.53a5.78,5.78,0,0,1-8.06,2.69l-94.19-56.93a10.19,10.19,0,0,1-5.12-9.8l22.16-239.76a2.34,2.34,0,0,1,4.54-.67l100.21,254.3" fill="none"/>
        <path id="Trazado_132844" data-name="Trazado 132844" d="M360.68,126.73,349.21,250.87l85.64,51.87L365.22,126.06a2.34,2.34,0,0,0-4.54.67Z" fill="#e2bc1b"/>
        <path id="Trazado_132845" data-name="Trazado 132845" d="M399.11,389.66a5.77,5.77,0,0,1-8.33,1.72L304,323.71a10.16,10.16,0,0,1-3.92-10.33L350.43,77.92A2.34,2.34,0,0,1,355,77.8l69.43,264.37Z" fill="#fd8f25"/>
        <path id="Trazado_132846" data-name="Trazado 132846" d="M399.11,389.66a5.77,5.77,0,0,1-8.33,1.72L304,323.71a10.16,10.16,0,0,1-3.92-10.33L350.43,77.92A2.34,2.34,0,0,1,355,77.8l69.43,264.37Z" fill="#003892"/>
        <path id="Trazado_132847" data-name="Trazado 132847" d="M310.91,262.7l-10.84,50.68A10.16,10.16,0,0,0,304,323.71l86.79,67.67a5.77,5.77,0,0,0,8.33-1.72l21.86-41Z" fill="#cd1126"/>
        <path id="Trazado_132848" data-name="Trazado 132848" d="M399.11,389.66a5.77,5.77,0,0,1-8.33,1.72L304,323.71a10.16,10.16,0,0,1-3.92-10.33L350.43,77.92A2.34,2.34,0,0,1,355,77.8l69.43,264.37" fill="none"/>
        <path id="Trazado_132849" data-name="Trazado 132849" d="M350.43,77.92,324.35,199.83l78.9,61.64L355,77.8a2.34,2.34,0,0,0-4.57.12Z" fill="#fbd016"/>
        <g id="Grupo_62536" data-name="Grupo 62536">
          <path id="Trazado_132850" data-name="Trazado 132850" d="M361.08,332.3a5.21,5.21,0,1,0,5.21-5.21A5.21,5.21,0,0,0,361.08,332.3Z" fill="#8d4136"/>
          <path id="Trazado_132851" data-name="Trazado 132851" d="M463.89,332.3a5.21,5.21,0,1,0,5.21-5.21A5.21,5.21,0,0,0,463.89,332.3Z" fill="#8d4136"/>
          <rect id="Rectángulo_7249" data-name="Rectángulo 7249" width="88.23" height="102" rx="3.38" transform="translate(373.58 339.07)" fill="#4c2926"/>
          <path id="Trazado_132852" data-name="Trazado 132852" d="M465.54,335.36h7.12a4.26,4.26,0,0,1,4.26,4.26V447H461.29V339.62a4.26,4.26,0,0,1,4.25-4.26Z" fill="#a45546"/>
          <path id="Trazado_132853" data-name="Trazado 132853" d="M362.73,335.36h7.12a4.26,4.26,0,0,1,4.26,4.26V447H358.47V339.62A4.26,4.26,0,0,1,362.73,335.36Z" fill="#a45546"/>
          <rect id="Rectángulo_7250" data-name="Rectángulo 7250" width="80.24" height="96.1" rx="3.13" transform="translate(377.58 342.02)" fill="#4c2926"/>
          <path id="Trazado_132854" data-name="Trazado 132854" d="M454.92,342H380.47a2.89,2.89,0,0,0-2.89,2.89v12.48c9.09,9.4,26,15.72,45.32,15.72,13.41,0,25.64-3,34.91-8V344.91a2.89,2.89,0,0,0-2.89-2.91Z" fill="#5e3431"/>
          <g id="Grupo_62527" data-name="Grupo 62527">
            <path id="Trazado_132855" data-name="Trazado 132855" d="M391.21,355.35c0-.89-.43-1.6-1-1.6s-.95.71-.95,1.6.43,1.61.95,1.61S391.21,356.24,391.21,355.35Z" fill="#3d1f1e"/>
            <path id="Trazado_132856" data-name="Trazado 132856" d="M389.79,355.05l-2.31-5.91,2.89,5.33,4.98-4.52-4.52,5.44,1.86,4.29-2.55-3.59-3.36,2.66Z" fill="#3d1f1e"/>
          </g>
          <g id="Grupo_62528" data-name="Grupo 62528">
            <path id="Trazado_132857" data-name="Trazado 132857" d="M417.32,355.35c0-.89-.43-1.6-1-1.6s-.95.71-.95,1.6.43,1.61.95,1.61S417.32,356.24,417.32,355.35Z" fill="#3d1f1e"/>
            <path id="Trazado_132858" data-name="Trazado 132858" d="M415.9,355.05l-2.32-5.91,2.9,5.33,4.98-4.52-4.52,5.44,1.86,4.29-2.55-3.59-3.36,2.66Z" fill="#3d1f1e"/>
          </g>
          <g id="Grupo_62529" data-name="Grupo 62529">
            <path id="Trazado_132859" data-name="Trazado 132859" d="M443.43,355.35c0-.89-.43-1.6-1-1.6s-1,.71-1,1.6.42,1.61,1,1.61S443.43,356.24,443.43,355.35Z" fill="#3d1f1e"/>
            <path id="Trazado_132860" data-name="Trazado 132860" d="M442.01,355.05l-2.32-5.91,2.9,5.33,4.98-4.52-4.52,5.44,1.85,4.29-2.54-3.59L439,358.75Z" fill="#3d1f1e"/>
          </g>
          <g id="Grupo_62530" data-name="Grupo 62530">
            <path id="Trazado_132861" data-name="Trazado 132861" d="M391.21,382.44c0-.88-.43-1.6-1-1.6s-.95.72-.95,1.6.43,1.61.95,1.61S391.21,383.33,391.21,382.44Z" fill="#3d1f1e"/>
            <path id="Trazado_132862" data-name="Trazado 132862" d="M389.79,382.14l-2.31-5.91,2.89,5.33,4.98-4.51-4.52,5.44,1.86,4.28-2.55-3.59-3.36,2.66Z" fill="#3d1f1e"/>
          </g>
          <g id="Grupo_62531" data-name="Grupo 62531">
            <path id="Trazado_132863" data-name="Trazado 132863" d="M417.32,382.44c0-.88-.43-1.6-1-1.6s-.95.72-.95,1.6.43,1.61.95,1.61S417.32,383.33,417.32,382.44Z" fill="#3d1f1e"/>
            <path id="Trazado_132864" data-name="Trazado 132864" d="M415.9,382.14l-2.32-5.91,2.9,5.33,4.98-4.51-4.52,5.44,1.86,4.28-2.55-3.59-3.36,2.66Z" fill="#3d1f1e"/>
          </g>
          <g id="Grupo_62532" data-name="Grupo 62532">
            <path id="Trazado_132865" data-name="Trazado 132865" d="M443.43,382.44c0-.88-.43-1.6-1-1.6s-1,.72-1,1.6.42,1.61,1,1.61S443.43,383.33,443.43,382.44Z" fill="#3d1f1e"/>
            <path id="Trazado_132866" data-name="Trazado 132866" d="M442.01,382.14l-2.32-5.91,2.9,5.33,4.98-4.51-4.52,5.44,1.85,4.28-2.54-3.59L439,385.84Z" fill="#3d1f1e"/>
          </g>
          <g id="Grupo_62533" data-name="Grupo 62533">
            <path id="Trazado_132867" data-name="Trazado 132867" d="M391.21,409.54c0-.89-.43-1.61-1-1.61s-.95.72-.95,1.61.43,1.6.95,1.6S391.21,410.42,391.21,409.54Z" fill="#3d1f1e"/>
            <path id="Trazado_132868" data-name="Trazado 132868" d="M389.79,409.23l-2.31-5.9,2.89,5.32,4.98-4.51-4.52,5.44,1.86,4.28-2.55-3.59-3.36,2.67Z" fill="#3d1f1e"/>
          </g>
          <g id="Grupo_62534" data-name="Grupo 62534">
            <path id="Trazado_132869" data-name="Trazado 132869" d="M417.32,409.54c0-.89-.43-1.61-1-1.61s-.95.72-.95,1.61.43,1.6.95,1.6S417.32,410.42,417.32,409.54Z" fill="#3d1f1e"/>
            <path id="Trazado_132870" data-name="Trazado 132870" d="M415.9,409.23l-2.32-5.9,2.9,5.32,4.98-4.51-4.52,5.44,1.86,4.28-2.55-3.59-3.36,2.67Z" fill="#3d1f1e"/>
          </g>
          <g id="Grupo_62535" data-name="Grupo 62535">
            <path id="Trazado_132871" data-name="Trazado 132871" d="M443.43,409.54c0-.89-.43-1.61-1-1.61s-1,.72-1,1.61.42,1.6,1,1.6S443.43,410.42,443.43,409.54Z" fill="#3d1f1e"/>
            <path id="Trazado_132872" data-name="Trazado 132872" d="M442.01,409.23l-2.32-5.9,2.9,5.32,4.98-4.51-4.52,5.44,1.85,4.28-2.54-3.59L439,412.94Z" fill="#3d1f1e"/>
          </g>
          <path id="Trazado_132873" data-name="Trazado 132873" d="M467.56,339.18h3.09a3.2,3.2,0,0,1,3.2,3.2V443.16h-9.49V342.38a3.2,3.2,0,0,1,3.2-3.2Z" fill="#8d4136"/>
          <path id="Trazado_132874" data-name="Trazado 132874" d="M364.74,339.18h3.09a3.2,3.2,0,0,1,3.2,3.2V443.16h-9.49V342.38a3.2,3.2,0,0,1,3.2-3.2Z" fill="#8d4136"/>
        </g>
        <path id="Trazado_132875" data-name="Trazado 132875" d="M150.75,332.3a5.21,5.21,0,1,0,5.21-5.21,5.21,5.21,0,0,0-5.21,5.21Z" fill="#8d4136"/>
        <path id="Trazado_132876" data-name="Trazado 132876" d="M63.57,441.07h82a3.13,3.13,0,0,0,3.13-3.12V342.19a3.13,3.13,0,0,0-3.13-3.12h-82" fill="#4c2926"/>
        <path id="Trazado_132877" data-name="Trazado 132877" d="M152.4,335.36h7.12a4.26,4.26,0,0,1,4.26,4.26V447H148.15V339.62a4.26,4.26,0,0,1,4.26-4.26Z" fill="#a45546"/>
        <path id="Trazado_132878" data-name="Trazado 132878" d="M67.33,438.12h74.45a2.89,2.89,0,0,0,2.89-2.89V344.91a2.89,2.89,0,0,0-2.89-2.89H67.33" fill="#4c2926"/>
        <path id="Trazado_132879" data-name="Trazado 132879" d="M64.44,357.39c9.09,9.4,26,15.72,45.32,15.72,13.41,0,25.64-3,34.91-8v-20.2a2.89,2.89,0,0,0-2.89-2.89H67.33" fill="#5e3431"/>
        <g id="Grupo_62537" data-name="Grupo 62537">
          <path id="Trazado_132880" data-name="Trazado 132880" d="M78.07,355.35c0-.89-.43-1.6-1-1.6s-1,.71-1,1.6.43,1.61,1,1.61S78.07,356.24,78.07,355.35Z" fill="#3d1f1e"/>
          <path id="Trazado_132881" data-name="Trazado 132881" d="M76.65,355.05l-2.32-5.91,2.9,5.33,4.98-4.52-4.52,5.44,1.86,4.29L77,356.09l-3.36,2.66Z" fill="#3d1f1e"/>
        </g>
        <g id="Grupo_62538" data-name="Grupo 62538">
          <path id="Trazado_132882" data-name="Trazado 132882" d="M104.18,355.35c0-.89-.43-1.6-1-1.6s-1,.71-1,1.6.42,1.61,1,1.61S104.18,356.24,104.18,355.35Z" fill="#3d1f1e"/>
          <path id="Trazado_132883" data-name="Trazado 132883" d="M102.76,355.05l-2.32-5.91,2.9,5.33,4.98-4.52-4.52,5.44,1.85,4.29-2.54-3.59-3.36,2.66Z" fill="#3d1f1e"/>
        </g>
        <g id="Grupo_62539" data-name="Grupo 62539">
          <path id="Trazado_132884" data-name="Trazado 132884" d="M130.29,355.35c0-.89-.43-1.6-1-1.6s-1,.71-1,1.6.42,1.61,1,1.61S130.29,356.24,130.29,355.35Z" fill="#3d1f1e"/>
          <path id="Trazado_132885" data-name="Trazado 132885" d="M128.87,355.05l-2.32-5.91,2.9,5.33,4.98-4.52-4.52,5.44,1.85,4.29-2.54-3.59-3.36,2.66Z" fill="#3d1f1e"/>
        </g>
        <g id="Grupo_62540" data-name="Grupo 62540">
          <path id="Trazado_132886" data-name="Trazado 132886" d="M78.07,382.44c0-.88-.43-1.6-1-1.6s-1,.72-1,1.6.43,1.61,1,1.61S78.07,383.33,78.07,382.44Z" fill="#3d1f1e"/>
          <path id="Trazado_132887" data-name="Trazado 132887" d="M76.65,382.14l-2.32-5.91,2.9,5.33,4.98-4.51-4.52,5.44,1.86,4.28L77,383.18l-3.36,2.66Z" fill="#3d1f1e"/>
        </g>
        <g id="Grupo_62541" data-name="Grupo 62541">
          <path id="Trazado_132888" data-name="Trazado 132888" d="M104.18,382.44c0-.88-.43-1.6-1-1.6s-1,.72-1,1.6.42,1.61,1,1.61S104.18,383.33,104.18,382.44Z" fill="#3d1f1e"/>
          <path id="Trazado_132889" data-name="Trazado 132889" d="M102.76,382.14l-2.32-5.91,2.9,5.33,4.98-4.51-4.52,5.44,1.85,4.28-2.54-3.59-3.36,2.66Z" fill="#3d1f1e"/>
        </g>
        <g id="Grupo_62542" data-name="Grupo 62542">
          <path id="Trazado_132890" data-name="Trazado 132890" d="M130.29,382.44c0-.88-.43-1.6-1-1.6s-1,.72-1,1.6.42,1.61,1,1.61S130.29,383.33,130.29,382.44Z" fill="#3d1f1e"/>
          <path id="Trazado_132891" data-name="Trazado 132891" d="M128.87,382.14l-2.32-5.91,2.9,5.33,4.98-4.51-4.52,5.44,1.85,4.28-2.54-3.59-3.36,2.66Z" fill="#3d1f1e"/>
        </g>
        <g id="Grupo_62543" data-name="Grupo 62543">
          <path id="Trazado_132892" data-name="Trazado 132892" d="M78.07,409.54c0-.89-.43-1.61-1-1.61s-1,.72-1,1.61.43,1.6,1,1.6S78.07,410.42,78.07,409.54Z" fill="#3d1f1e"/>
          <path id="Trazado_132893" data-name="Trazado 132893" d="M76.65,409.23l-2.32-5.9,2.9,5.32,4.98-4.51-4.52,5.44,1.86,4.28L77,410.27l-3.36,2.67Z" fill="#3d1f1e"/>
        </g>
        <g id="Grupo_62544" data-name="Grupo 62544">
          <path id="Trazado_132894" data-name="Trazado 132894" d="M104.18,409.54c0-.89-.43-1.61-1-1.61s-1,.72-1,1.61.42,1.6,1,1.6S104.18,410.42,104.18,409.54Z" fill="#3d1f1e"/>
          <path id="Trazado_132895" data-name="Trazado 132895" d="M102.76,409.23l-2.32-5.9,2.9,5.32,4.98-4.51-4.52,5.44,1.85,4.28-2.54-3.59-3.36,2.67Z" fill="#3d1f1e"/>
        </g>
        <g id="Grupo_62545" data-name="Grupo 62545">
          <path id="Trazado_132896" data-name="Trazado 132896" d="M130.29,409.54c0-.89-.43-1.61-1-1.61s-1,.72-1,1.61.42,1.6,1,1.6S130.29,410.42,130.29,409.54Z" fill="#3d1f1e"/>
          <path id="Trazado_132897" data-name="Trazado 132897" d="M128.87,409.23l-2.32-5.9,2.9,5.32,4.98-4.51-4.52,5.44,1.85,4.28-2.54-3.59-3.36,2.67Z" fill="#3d1f1e"/>
        </g>
        <path id="Trazado_132898" data-name="Trazado 132898" d="M154.41,339.18h3.09a3.2,3.2,0,0,1,3.2,3.2V443.16h-9.49V342.38a3.2,3.2,0,0,1,3.2-3.2Z" fill="#8d4136"/>
        <g id="Grupo_62555" data-name="Grupo 62555">
          <path id="Trazado_132899" data-name="Trazado 132899" d="M202.88,312.84a5.21,5.21,0,1,0,5.21-5.21,5.21,5.21,0,0,0-5.21,5.21Z" fill="#8d4136"/>
          <path id="Trazado_132900" data-name="Trazado 132900" d="M305.69,312.84a5.21,5.21,0,1,0,5.21-5.21,5.21,5.21,0,0,0-5.21,5.21Z" fill="#8d4136"/>
          <rect id="Rectángulo_7251" data-name="Rectángulo 7251" width="88.23" height="102" rx="3.38" transform="translate(215.38 319.62)" fill="#4c2926"/>
          <path id="Trazado_132901" data-name="Trazado 132901" d="M307.34,315.91h7.12a4.26,4.26,0,0,1,4.26,4.26V427.53H303.09V320.17a4.25,4.25,0,0,1,4.25-4.26Z" fill="#a45546"/>
          <path id="Trazado_132902" data-name="Trazado 132902" d="M204.53,315.91h7.12a4.26,4.26,0,0,1,4.26,4.26V427.53H200.27V320.17a4.26,4.26,0,0,1,4.26-4.26Z" fill="#a45546"/>
          <rect id="Rectángulo_7252" data-name="Rectángulo 7252" width="80.24" height="96.1" rx="3.13" transform="translate(219.38 322.57)" fill="#4c2926"/>
          <path id="Trazado_132903" data-name="Trazado 132903" d="M296.72,322.57H222.27a2.89,2.89,0,0,0-2.89,2.89v12.48c9.09,9.4,26,15.72,45.33,15.72,13.41,0,25.63-3,34.91-8v-20.2a2.9,2.9,0,0,0-2.9-2.89Z" fill="#5e3431"/>
          <g id="Grupo_62546" data-name="Grupo 62546">
            <path id="Trazado_132904" data-name="Trazado 132904" d="M233,335.9c0-.89-.43-1.61-.95-1.61s-1,.72-1,1.61.43,1.6,1,1.6S233,336.79,233,335.9Z" fill="#3d1f1e"/>
            <path id="Trazado_132905" data-name="Trazado 132905" d="M231.59,335.6l-2.31-5.91,2.89,5.33,4.98-4.52-4.51,5.44,1.85,4.29-2.55-3.59-3.36,2.66Z" fill="#3d1f1e"/>
          </g>
          <g id="Grupo_62547" data-name="Grupo 62547">
            <path id="Trazado_132906" data-name="Trazado 132906" d="M259.12,335.9c0-.89-.43-1.61-.95-1.61s-1,.72-1,1.61.43,1.6,1,1.6S259.12,336.79,259.12,335.9Z" fill="#3d1f1e"/>
            <path id="Trazado_132907" data-name="Trazado 132907" d="M257.7,335.6l-2.31-5.91,2.89,5.33,4.98-4.52-4.52,5.44,1.86,4.29-2.55-3.59-3.36,2.66Z" fill="#3d1f1e"/>
          </g>
          <g id="Grupo_62548" data-name="Grupo 62548">
            <path id="Trazado_132908" data-name="Trazado 132908" d="M285.23,335.9c0-.89-.43-1.61-1-1.61s-.95.72-.95,1.61.43,1.6.95,1.6S285.23,336.79,285.23,335.9Z" fill="#3d1f1e"/>
            <path id="Trazado_132909" data-name="Trazado 132909" d="M283.81,335.6l-2.31-5.91,2.89,5.33,4.98-4.52-4.52,5.44,1.85,4.29-2.54-3.59-3.36,2.66Z" fill="#3d1f1e"/>
          </g>
          <g id="Grupo_62549" data-name="Grupo 62549">
            <path id="Trazado_132910" data-name="Trazado 132910" d="M233,363c0-.88-.43-1.6-.95-1.6s-1,.72-1,1.6.43,1.61,1,1.61S233,363.88,233,363Z" fill="#3d1f1e"/>
            <path id="Trazado_132911" data-name="Trazado 132911" d="M231.59,362.69l-2.31-5.91,2.89,5.33,4.98-4.52-4.51,5.45,1.85,4.28-2.55-3.59-3.36,2.66Z" fill="#3d1f1e"/>
          </g>
          <g id="Grupo_62550" data-name="Grupo 62550">
            <path id="Trazado_132912" data-name="Trazado 132912" d="M259.12,363c0-.88-.43-1.6-.95-1.6s-1,.72-1,1.6.43,1.61,1,1.61S259.12,363.88,259.12,363Z" fill="#3d1f1e"/>
            <path id="Trazado_132913" data-name="Trazado 132913" d="M257.7,362.69l-2.31-5.91,2.89,5.33,4.98-4.52-4.52,5.45,1.86,4.28-2.55-3.59-3.36,2.66Z" fill="#3d1f1e"/>
          </g>
          <g id="Grupo_62551" data-name="Grupo 62551">
            <path id="Trazado_132914" data-name="Trazado 132914" d="M285.23,363c0-.88-.43-1.6-1-1.6s-.95.72-.95,1.6.43,1.61.95,1.61S285.23,363.88,285.23,363Z" fill="#3d1f1e"/>
            <path id="Trazado_132915" data-name="Trazado 132915" d="M283.81,362.69l-2.31-5.91,2.89,5.33,4.98-4.52-4.52,5.45,1.85,4.28-2.54-3.59-3.36,2.66Z" fill="#3d1f1e"/>
          </g>
          <g id="Grupo_62552" data-name="Grupo 62552">
            <path id="Trazado_132916" data-name="Trazado 132916" d="M233,390.08c0-.88-.43-1.6-.95-1.6s-1,.72-1,1.6.43,1.61,1,1.61S233,391,233,390.08Z" fill="#3d1f1e"/>
            <path id="Trazado_132917" data-name="Trazado 132917" d="M231.59,389.78l-2.31-5.9,2.89,5.32,4.98-4.51-4.51,5.44,1.85,4.28-2.55-3.59-3.36,2.67Z" fill="#3d1f1e"/>
          </g>
          <g id="Grupo_62553" data-name="Grupo 62553">
            <path id="Trazado_132918" data-name="Trazado 132918" d="M259.12,390.08c0-.88-.43-1.6-.95-1.6s-1,.72-1,1.6.43,1.61,1,1.61S259.12,391,259.12,390.08Z" fill="#3d1f1e"/>
            <path id="Trazado_132919" data-name="Trazado 132919" d="M257.7,389.78l-2.31-5.9,2.89,5.32,4.98-4.51-4.52,5.44,1.86,4.28-2.55-3.59-3.36,2.67Z" fill="#3d1f1e"/>
          </g>
          <g id="Grupo_62554" data-name="Grupo 62554">
            <path id="Trazado_132920" data-name="Trazado 132920" d="M285.23,390.08c0-.88-.43-1.6-1-1.6s-.95.72-.95,1.6.43,1.61.95,1.61S285.23,391,285.23,390.08Z" fill="#3d1f1e"/>
            <path id="Trazado_132921" data-name="Trazado 132921" d="M283.81,389.78l-2.31-5.9,2.89,5.32,4.98-4.51-4.52,5.44,1.85,4.28-2.54-3.59-3.36,2.67Z" fill="#3d1f1e"/>
          </g>
          <path id="Trazado_132922" data-name="Trazado 132922" d="M309.36,319.73h3.09a3.2,3.2,0,0,1,3.2,3.2V423.7h-9.49V322.93a3.2,3.2,0,0,1,3.2-3.2Z" fill="#8d4136"/>
          <path id="Trazado_132923" data-name="Trazado 132923" d="M206.54,319.73h3.09a3.2,3.2,0,0,1,3.2,3.2V423.7h-9.49V322.93a3.2,3.2,0,0,1,3.2-3.2Z" fill="#8d4136"/>
        </g>
        <g id="Grupo_62559" data-name="Grupo 62559">
          <path id="Trazado_132924" data-name="Trazado 132924" d="M236.3,217.7c-8.37,1.8-14.39-1-14.54-1.62,0,0-3,1.25-8.15-.33,0,0-9.63,5.42-16.49-.68s-4-13.1,8-11.92c0,0-.42-14.2,5.59-17.44,0,0-6.52-3-1-8.14s23-7.72,23.78-10.31.82-9.24,14.12-3.69c13.72,5.71,18,15,18.3,16.86,0,0,9.35,1.9,10.51,11.49,1.14,9.41-4.56,15.74-11.47,18.35,0,0,7.87,4.65-2.27,7.54-8.68,2.47-12.36-.93-12.36-.93C245.15,219.16,240.48,219.48,236.3,217.7Z" fill="#8b3e4b"/>
          <path id="Trazado_132925" data-name="Trazado 132925" d="M274.93,187.2c-6.56,2.93-13.92,5.2-14.26,6.9-.53,2.64-.07,9.22-13.85,4.89-14.22-4.47-19.3-13.26-19.72-15.11,0,0-9-1-11.3-9.82a21.07,21.07,0,0,0-6.12,3.51c-5.52,5.16,1,8.14,1,8.14-6,3.24-5.59,17.44-5.59,17.44-12-1.18-14.71,5.92-8,11.92s16.49.68,16.49.68c5.14,1.58,8.15.33,8.15.33.15.63,6.17,3.42,14.54,1.62,4.18,1.78,8.85,1.46,14-.82,0,0,3.68,3.4,12.36.93,10.14-2.89,2.27-7.54,2.27-7.54,6.91-2.61,12.61-8.94,11.47-18.35a13.3,13.3,0,0,0-1.44-4.72Z" fill="#752e3d"/>
          <path id="Trazado_132926" data-name="Trazado 132926" d="M247.72,221.07c.44-2.19-4.65-5.2-11.36-6.73s-12.51-1-13,1.22,4.64,5.21,11.36,6.73S247.28,223.27,247.72,221.07Z" fill="#382f31"/>
          <path id="Trazado_132927" data-name="Trazado 132927" d="M289.24,263.48l-16.26,10c1.35,8,4.54,54.82,30.74,58.2C303.5,310.29,299.28,282.58,289.24,263.48Z" fill="#282123"/>
          <path id="Trazado_132928" data-name="Trazado 132928" d="M188.58,308.67,165.37,328.9s1.68,7.61,29.78,18.38Z" fill="#282123"/>
          <path id="Trazado_132929" data-name="Trazado 132929" d="M273.32,469.16c7.58,2.68,14.71,4.38,20.14,2.38,1.81-17.07-3.92-74.87-.65-145.8,1.9-41.1-13.6-77.57-24.84-91.33C251.05,213.71,273.32,469.16,273.32,469.16Z" fill="#382f31"/>
          <path id="Trazado_132930" data-name="Trazado 132930" d="M282.23,394.14c0-42,3.75-78.54,9.25-96.82-3.94-28.81-15-52.44-23.51-62.91-16.92-20.7,5.35,234.75,5.35,234.75,5,1.78,9.86,3.12,14.13,3.24C284.23,452.55,282.23,424.82,282.23,394.14Z" fill="#2d2527"/>
          <path id="Trazado_132931" data-name="Trazado 132931" d="M276.36,310.05c5.66-.35,11.66-.34,16.44,15.9a1.479,1.479,0,0,0,0-.21c1.9-41.1-13.6-77.57-24.84-91.33-7.77-9.5-7.28,39.14-4.48,94.57C266.21,311.55,270.56,310.41,276.36,310.05Z" fill="#332a2c"/>
          <path id="Trazado_132932" data-name="Trazado 132932" d="M196.56,477.85l-23.94-6.31s6.84-220.14,22.22-239.06S196.56,477.85,196.56,477.85Z" fill="#382f31"/>
          <path id="Trazado_132933" data-name="Trazado 132933" d="M181.07,316.16q-.49,6-1,12.1c8.11,54.57,7.79,114.86,6.8,147.05l9.66,2.54s1.91-37,3.5-82.31l-4.85-83.42Z" fill="#2d2527"/>
          <g id="Grupo_62556" data-name="Grupo 62556">
            <path id="Trazado_132934" data-name="Trazado 132934" d="M196.28,477.78l.28.07s0-.72.11-2.08Q196.48,476.79,196.28,477.78Z" fill="#2d2527"/>
            <path id="Trazado_132935" data-name="Trazado 132935" d="M184.16,347.69c7.32,0,13.53,22.16,15.72,52.89,2.76-76.36,4.81-180.2-5-168.1-7.4,9.1-12.82,64.73-16.46,120C180.18,349.4,182.13,347.69,184.16,347.69Z" fill="#2d2527"/>
          </g>
          <path id="Trazado_132936" data-name="Trazado 132936" d="M210.57,389.9S238,523,238.5,524.29l2,.32L232.4,384Z" fill="#e9865c"/>
          <path id="Trazado_132937" data-name="Trazado 132937" d="M247.03,528.73l-25.29.08,9.22-7.65,2.51-17.42,5.07-6.17,4.11,24.08Z" fill="#56474c"/>
          <path id="Trazado_132938" data-name="Trazado 132938" d="M259.76,397.93S247.6,522.58,247.19,523.81l-1.95.31-8-131.75Z" fill="#e9865c"/>
          <path id="Trazado_132939" data-name="Trazado 132939" d="M241.52,528.82h23.35l-11.56-7.33-3.6-17.95-6.98-5.73Z" fill="#56474c"/>
          <path id="Trazado_132940" data-name="Trazado 132940" d="M191.42,485.73c34.05,3.42,89-5.43,89-5.43s2.88-145.36-.69-170.58-9.77-72.77-12.84-76.45-28.22-18.91-34.27-18.91-31,5.51-36.52,16.28c-2.82,5.5-6.52,65.68-7,129.25C188.66,421,191.42,485.73,191.42,485.73Z" fill="#3d3234"/>
          <path id="Trazado_132941" data-name="Trazado 132941" d="M240.27,216.12c8.29,14.68,9.67,43.17,9.67,43.17l10.19-2.94-8.29-30-6.73-8.63Z" fill="#332a2c"/>
          <path id="Trazado_132942" data-name="Trazado 132942" d="M279.7,309.72c-3.57-25.22-9.77-72.77-12.84-76.45-1.08-1.3-4.91-4-9.68-7,.12,1.38.19,2.78.19,4.21,0,17-8.93,30.82-20,30.82s-19.94-13.8-19.94-30.82a44.869,44.869,0,0,1,2.08-13.7c-9.21,2.58-20.07,7.23-23.49,13.89-2.82,5.5-6.52,65.68-7,129.25-.44,61.12,2.32,125.84,2.32,125.84,3.41.34,7,.56,10.78.68A406.682,406.682,0,0,1,201,428.16c3.32-70.87,19.9-95.15,38.81-116.12,13.59-15.09,38,48.69,34.66,119.56a419.341,419.341,0,0,1-5.31,50.32c7-.92,11.28-1.62,11.28-1.62S283.27,334.94,279.7,309.72Z" fill="#332a2c"/>
          <path id="Trazado_132943" data-name="Trazado 132943" d="M221.63,428.32c4.14-70.7,18.13-122,18.13-122l-25.13-8.81C211.49,318.42,217.07,375.51,221.63,428.32Z" fill="#332a2c"/>
          <path id="Trazado_132944" data-name="Trazado 132944" d="M230.69,213.88c-4.14-4.15-32.11,20.46-32.11,20.46l21.75,38.33C237.68,232.52,234.83,218,230.69,213.88Z" fill="#332a2c"/>
          <path id="Trazado_132945" data-name="Trazado 132945" d="M243.48,216.85c8,18.65,13.26,57.67,13.26,57.67s36.54,3.28,46.6,46.23C300.59,285,295,239.18,243.48,216.85Z" fill="#443b3d"/>
          <path id="Trazado_132946" data-name="Trazado 132946" d="M289.43,261.89l-2.92.6c1.66-3.77,6.81-8.17,7.54-8.33s-1.87,4.77-2.85,6.69a2.49,2.49,0,0,1-1.77,1.04Z" fill="#e9865c"/>
          <path id="Trazado_132947" data-name="Trazado 132947" d="M237.17,256.86l-3.72,1.93c6.46,1,17.26-.26,18.21-.74.76-.38-7.95-1.51-11.37-1.94A5.69,5.69,0,0,0,237.17,256.86Z" fill="#e9865c"/>
          <path id="Trazado_132948" data-name="Trazado 132948" d="M257.53,257.88c-13.47-3.16-25.19,8.05-24.39,39.58l43.94,3.15c-1.21-32.57,17.79-38.18,17.79-38.18S271,261,257.53,257.88Z" fill="#c5bdae"/>
          <path id="Trazado_132949" data-name="Trazado 132949" d="M251.82,264.23c-.34-.88-2.77-.76-5.42.27s-4.51,2.59-4.17,3.47,2.77.76,5.42-.27S252.17,265.12,251.82,264.23Z" fill="#e9865c"/>
          <path id="Trazado_132950" data-name="Trazado 132950" d="M255,262.87c-.11-.94-2.5-1.42-5.32-1.07s-5,1.41-4.89,2.35,2.5,1.42,5.32,1.06S255.1,263.81,255,262.87Z" fill="#e9865c"/>
          <path id="Trazado_132951" data-name="Trazado 132951" d="M248.5,259.14l-3.44,2.59c7.38,1.29,17.38.43,18,0S248.5,259.14,248.5,259.14Z" fill="#e9865c"/>
          <path id="Trazado_132952" data-name="Trazado 132952" d="M255.76,257.53c7.95,12.61,4,39.23,4,39.23l42.33-8.41s6.31-22.65-1.57-25.57C284.45,256.83,255.76,257.53,255.76,257.53Z" fill="#e9e3d7"/>
          <path id="Trazado_132953" data-name="Trazado 132953" d="M234.89,257.89c7.43-.52,16.56,1.79,16.56,1.79s-4.75,9.18-7.52,9-10.78-3.11-10.78-3.11l-15.55,4.29,1.82-6.46Z" fill="#ffa67b"/>
          <path id="Trazado_132954" data-name="Trazado 132954" d="M228.36,261v-.81l-9,3.18-1.83,6.46,11.18-3.08a41.281,41.281,0,0,1-.35-5.75Z" fill="#dc704a"/>
          <path id="Trazado_132955" data-name="Trazado 132955" d="M243.65,198.29l-13-.88-.78,17.73s1.56,7.75,8.41,8.28c6,.46,5.25-5.52,5.25-5.52Z" fill="#dc704a"/>
          <path id="Trazado_132956" data-name="Trazado 132956" d="M238,218.53a22.19,22.19,0,0,0-3.28,3.77,8.08,8.08,0,0,0,3.57,1.12c6,.46,5.25-5.52,5.25-5.52v-3.14a21.54,21.54,0,0,0-5.54,3.77Z" fill="#e9865c"/>
          <path id="Trazado_132957" data-name="Trazado 132957" d="M227.43,213.57c-24.59,2.1-34.48,17.86-34.48,17.86s-7.75,2.63-10.27,10.51-17.39,87-17.39,87c4.14,2.58,14.3,6,18.42.61,3-3.85,26.2,2.28,26.2,2.28-.68-58.33,16.44-70.23,21.72-104.56Z" fill="#382f31"/>
          <path id="Trazado_132958" data-name="Trazado 132958" d="M227.43,213.57a52.46,52.46,0,0,0-19.31,5.29c-3.37,14.34-.29,27.19,7.44,29.51,3.85,1.16,8.18-.51,12.18-4.18a121,121,0,0,0,3.89-17Z" fill="#443b3d"/>
          <path id="Trazado_132959" data-name="Trazado 132959" d="M252.85,201.36c1.38,1.6,3.47-.43,3.6-3.57s-1.78-3.92-2.67-1.58a17.49,17.49,0,0,0-.93,5.15Z" fill="#ffa67b"/>
          <path id="Trazado_132960" data-name="Trazado 132960" d="M253.91,200.25c.61.9,1.54-.26,1.62-2s-.78-2.22-1.19-.89A12.671,12.671,0,0,0,253.91,200.25Z" fill="#cb4f46"/>
          <path id="Trazado_132961" data-name="Trazado 132961" d="M253.49,200.45c.49.8,1.27-.24,1.33-1.84s-.63-2-1-.79a12.529,12.529,0,0,0-.33,2.63Z" fill="#ffa67b"/>
          <path id="Trazado_132962" data-name="Trazado 132962" d="M224.14,200.38c-2.79,2.19-7,.08-7.26-3.74s3.63-5.12,5.42-2.41a13.07,13.07,0,0,1,1.84,6.15Z" fill="#ffa67b"/>
          <path id="Trazado_132963" data-name="Trazado 132963" d="M222.82,199.05a2.77,2.77,0,0,1-4.34-2.24c-.16-2.28,2.17-3.06,3.24-1.44a7.88,7.88,0,0,1,1.1,3.68Z" fill="#cb4f46"/>
          <path id="Trazado_132964" data-name="Trazado 132964" d="M223.34,198.67a1.92,1.92,0,0,1-2.9-1.7,1.25,1.25,0,0,1,2.33-.8,4.94,4.94,0,0,1,.57,2.5Z" fill="#ffa67b"/>
          <path id="Trazado_132965" data-name="Trazado 132965" d="M241.85,214.71c-10.36-3.8-17.41-11.05-17.33-16.68s4.1-22.42,17.16-21.58c11.36.73,10.69,12.66,10.38,20.64C251.67,207,241.85,214.71,241.85,214.71Z" fill="#ffa67b"/>
          <path id="Trazado_132966" data-name="Trazado 132966" d="M254.62,355.63a318.812,318.812,0,0,1,3.09,45.24c0,34.44-5,64.94-12.72,83.78,9.16-.85,17.44-1.85,23.69-2.67C263.58,462.12,265.65,378.86,254.62,355.63Z" fill="#332a2c"/>
          <path id="Trazado_132967" data-name="Trazado 132967" d="M296.58,260.05l1.3,1.2c-3,1.08-7.48.69-7.82.4s3.72-1.49,5.28-2a1.35,1.35,0,0,1,1.24.4Z" fill="#ffa67b"/>
          <path id="Trazado_132968" data-name="Trazado 132968" d="M283.67,276.79c-13.91-3.31-24.33-11.37-25.88-19.29h-2c7.95,12.61,4,39.23,4,39.23l42.33-8.41a79,79,0,0,0,2.09-11,47,47,0,0,1-20.54-.53Z" fill="#dfd7c9"/>
          <path id="Trazado_132969" data-name="Trazado 132969" d="M204,221.19c-7.67,4.89-11,10.24-11,10.24s-7.75,2.63-10.27,10.51c-2,6.33-12,58.61-15.87,78.92a6.15,6.15,0,0,0,1.48.5c10.88,2,25.26-26.91,32.12-64.52A211.451,211.451,0,0,0,204,221.19Z" fill="#443b3d"/>
          <path id="Trazado_132970" data-name="Trazado 132970" d="M225.16,249.43c-13.73-1.6-28.77,30.5-33.58,71.7q-.42,3.63-.72,7.19c7.84.51,19,3.47,19,3.47C209.4,287.87,219,270.27,226,249.6,225.72,249.54,225.44,249.47,225.16,249.43Z" fill="#443b3d"/>
          <g id="Grupo_62557" data-name="Grupo 62557">
            <path id="Trazado_132971" data-name="Trazado 132971" d="M249.52,236.11a88.19,88.19,0,0,0,20.11-3,97.85,97.85,0,0,0-26.15-16.31,130.768,130.768,0,0,1,6.04,19.31Z" fill="#332a2c"/>
            <path id="Trazado_132972" data-name="Trazado 132972" d="M227.43,213.57c-15.59,1.33-25.26,8.15-30.26,13,7.84,4.17,19.52,7.46,32.9,8.9.59-2.61,1.12-5.33,1.56-8.21Z" fill="#332a2c"/>
          </g>
          <path id="Trazado_132973" data-name="Trazado 132973" d="M253.31,521.49l-2-10.14a6.12,6.12,0,0,0-2.73.24c-4.62,1.58-6.49,8.81-4.92,17.22H264.9Z" fill="#75686d"/>
          <path id="Trazado_132974" data-name="Trazado 132974" d="M245.56,528.74a22.46,22.46,0,0,0-6.28-8.09,23.35,23.35,0,0,0-7.64-4.23l-.68,4.74-9.22,7.65Z" fill="#75686d"/>
          <path id="Trazado_132975" data-name="Trazado 132975" d="M232.16,505.85l-.17-5.35,8.02-4.06.26,7.08Z" fill="#56474c"/>
          <path id="Trazado_132976" data-name="Trazado 132976" d="M251.55,505.25l.2-5.36-9.36-4.05-.3,7.08Z" fill="#56474c"/>
          <g id="Grupo_62558" data-name="Grupo 62558">
            <path id="Trazado_132977" data-name="Trazado 132977" d="M241.36,191.21a41.306,41.306,0,0,1,1.17,5.18L241,198.85a18,18,0,0,0,2.92-1.59C244.13,196.18,241.36,191.21,241.36,191.21Z" fill="#dc704a"/>
            <path id="Trazado_132978" data-name="Trazado 132978" d="M230.93,191.81c1.81-4.15,7.86-2.06,7.86-2.06-.15,0-.11.75-.26.78C236,191,233.36,191,230.93,191.81Z" fill="#3a2d2d"/>
            <path id="Trazado_132979" data-name="Trazado 132979" d="M251.58,192.13c-1.42-4.25-7.47-2.59-7.47-2.59s0,.75.18.79C246.71,191,249.29,191.1,251.58,192.13Z" fill="#3a2d2d"/>
            <path id="Trazado_132980" data-name="Trazado 132980" d="M237,191.47a1.84,1.84,0,1,0-1.83,1.9,1.87,1.87,0,0,0,1.83-1.9Z" fill="#3a2d2d"/>
            <path id="Trazado_132981" data-name="Trazado 132981" d="M249.65,191.32a1.84,1.84,0,1,0-1.7,2A1.86,1.86,0,0,0,249.65,191.32Z" fill="#3a2d2d"/>
            <path id="Trazado_132982" data-name="Trazado 132982" d="M229.26,187.89a12.56,12.56,0,0,1,9.27-3.54v2.63Z" fill="#8b3e4b"/>
            <path id="Trazado_132983" data-name="Trazado 132983" d="M252.51,188.24a9.74,9.74,0,0,0-8-3.56l-.16,2.62Z" fill="#8b3e4b"/>
            <path id="Trazado_132984" data-name="Trazado 132984" d="M237.25,203.92c1.92-3.11,2.6-3,2.81-3s2.7-.28,3.09,0a22.162,22.162,0,0,1,1.74,2.53s-1.06,3.11-3.62,3A5.52,5.52,0,0,1,237.25,203.92Z" fill="#3a2d2d"/>
            <path id="Trazado_132985" data-name="Trazado 132985" d="M239.45,209.26a3.15,3.15,0,0,1,2-.82,3.09,3.09,0,0,1,1.79.82,5.32,5.32,0,0,1-3.79,0Z" fill="#dc704a"/>
            <path id="Trazado_132986" data-name="Trazado 132986" d="M243.74,202.59a9.5,9.5,0,0,0-1-1.4,7.37,7.37,0,0,0-2.43,0c-.14,0-.54,0-1.56,1.42C239.66,202.63,242.59,202.66,243.74,202.59Z" fill="#d0cabc"/>
            <path id="Trazado_132987" data-name="Trazado 132987" d="M238.79,204.76a3.57,3.57,0,0,0,2.48,1.32,2.15,2.15,0,0,0,1.59-.62,2.51,2.51,0,0,0-2.37-1.1,3.5,3.5,0,0,0-1.7.4Z" fill="#cb4f46"/>
          </g>
          <path id="Trazado_132988" data-name="Trazado 132988" d="M241.6,232.21c-3.89,0-8.4-2-10.39-4.69a.51.51,0,0,1,.11-.73.53.53,0,0,1,.73.14c2.06,2.83,7.37,4.77,11.14,4.08a4.38,4.38,0,0,0,3.88-3.47.5.5,0,0,1,.62-.38.55.55,0,0,1,.42.63,5.34,5.34,0,0,1-4.68,4.26A10.829,10.829,0,0,1,241.6,232.21Z" fill="#d0cabc"/>
          <path id="Trazado_132989" data-name="Trazado 132989" d="M229.52,226.7a2,2,0,0,0,1.73,1.73,1.31,1.31,0,0,0,1.26-1.64,2,2,0,0,0-1.73-1.73,1.32,1.32,0,0,0-1.26,1.64Z" fill="#d0cabc"/>
          <path id="Trazado_132990" data-name="Trazado 132990" d="M246.16,227.14a1.9,1.9,0,0,0,1.7,1.66,1.31,1.31,0,0,0,1.19-1.66,1.89,1.89,0,0,0-1.7-1.66,1.31,1.31,0,0,0-1.19,1.66Z" fill="#d0cabc"/>
          <path id="Trazado_132991" data-name="Trazado 132991" d="M246,174.08c-10.45-1.21-9.5-12.52-6.47-12.61a1.858,1.858,0,0,0,.26,0c-5.56-.3-5.75,3.88-6.3,5.82a.819.819,0,0,1-.09.19,8.2,8.2,0,0,0,1.81,4.81C238.72,176.75,246,174.08,246,174.08Z" fill="#752e3d"/>
          <path id="Trazado_132992" data-name="Trazado 132992" d="M265.88,180.43c-8.51-1.78-6.35,8.58-6.35,8.58s-4.49-5.44-2.51-10.1,6.91-2.76,6.91-2.76A9.73,9.73,0,0,1,265.88,180.43Z" fill="#752e3d"/>
        </g>
        <g id="Grupo_62560" data-name="Grupo 62560">
          <path id="Trazado_132993" data-name="Trazado 132993" d="M279,534.84H249.85s-1.12-3.14.51-4.08,10.79-4.39,10.79-4.39l4.71-7.22,9.8-1.72s4.2,9.88,4.13,11.76A53.4,53.4,0,0,1,279,534.84Z" fill="#564247"/>
          <path id="Trazado_132994" data-name="Trazado 132994" d="M275.6,523.73c-.16-2.16-2.73-3.94-6.75-5.1l-3,.52-4.71,7.22s-9.16,3.45-10.79,4.39c-1,.58-1,2-.79,3,1.22,0,2.45-.07,3.72-.17C266,532.62,275.94,528.21,275.6,523.73Z" fill="#725960"/>
          <path id="Trazado_132995" data-name="Trazado 132995" d="M304.52,534.84H339s1.48-2.82-.19-3.76-16.28-5.34-16.28-5.34L317,519.15l-9.6-2.88s-4,11-3.86,12.92A54.063,54.063,0,0,0,304.52,534.84Z" fill="#564247"/>
          <path id="Trazado_132996" data-name="Trazado 132996" d="M338.81,531.08c-1.68-.94-16.28-5.34-16.28-5.34L317,519.15l-.63-.18c-3.81,1.1-6.18,2.73-6.31,4.67-.26,4.19,10.12,8.25,23.18,9.06,2.21.14,4.35.18,6.39.12A1.7,1.7,0,0,0,338.81,531.08Z" fill="#725960"/>
          <path id="Trazado_132997" data-name="Trazado 132997" d="M269.28,524.62a.9.9,0,0,0-1.14-.48c-.53.12-.89.54-.8.93a.89.89,0,0,0,1.13.49C269,525.44,269.37,525,269.28,524.62Z" fill="#564247"/>
          <path id="Trazado_132998" data-name="Trazado 132998" d="M270.2,522.37a.9.9,0,0,0-1.13-.49c-.54.13-.9.55-.8.94a.89.89,0,0,0,1.13.49C269.93,523.18,270.29,522.76,270.2,522.37Z" fill="#564247"/>
          <path id="Trazado_132999" data-name="Trazado 132999" d="M271.09,520a.89.89,0,0,0-1.14-.48c-.53.12-.89.54-.8.93a.9.9,0,0,0,1.13.49C270.82,520.79,271.18,520.37,271.09,520Z" fill="#564247"/>
          <path id="Trazado_133000" data-name="Trazado 133000" d="M264.5,524.73c0-.4-.37-.66-.91-.58a1.23,1.23,0,0,0-1.06.88c0,.4.36.66.91.58A1.21,1.21,0,0,0,264.5,524.73Z" fill="#564247"/>
          <path id="Trazado_133001" data-name="Trazado 133001" d="M266.1,522.54c0-.4-.36-.66-.91-.58a1.19,1.19,0,0,0-1.05.88c-.05.4.36.66.9.58A1.22,1.22,0,0,0,266.1,522.54Z" fill="#564247"/>
          <path id="Trazado_133002" data-name="Trazado 133002" d="M267.71,520.21c0-.41-.37-.66-.91-.58a1.21,1.21,0,0,0-1.06.87c0,.41.37.67.91.58a1.21,1.21,0,0,0,1.06-.87Z" fill="#564247"/>
          <path id="Trazado_133003" data-name="Trazado 133003" d="M318.3,525.23c0-.4.49-.69,1-.65s1,.41.93.81a.9.9,0,0,1-1,.65C318.73,526,318.27,525.63,318.3,525.23Z" fill="#564247"/>
          <path id="Trazado_133004" data-name="Trazado 133004" d="M317.05,523.14c0-.4.5-.69,1-.65s1,.41.92.81a.9.9,0,0,1-1,.65C317.46,523.91,317,523.54,317.05,523.14Z" fill="#564247"/>
          <path id="Trazado_133005" data-name="Trazado 133005" d="M315.83,520.91c0-.4.49-.69,1-.65s.95.41.92.81a.865.865,0,0,1-1,.65C316.24,521.68,315.8,521.31,315.83,520.91Z" fill="#564247"/>
        </g>
        <rect id="Rectángulo_7253" data-name="Rectángulo 7253" width="40.56" height="182.7" transform="translate(447.84 388.04)" fill="#8d4739"/>
        <path id="Trazado_133006" data-name="Trazado 133006" d="M454.13,521c0-62,14.92-113.13,34.27-121.16V388H447.84V570.75h9.71A350.7,350.7,0,0,1,454.13,521Z" fill="#7f3b32"/>
        <path id="Trazado_133007" data-name="Trazado 133007" d="M30.6,570.75H71.15V388.04H30.6" fill="#8d4739"/>
        <path id="Trazado_133008" data-name="Trazado 133008" d="M56.08,570.75H71.15V388H30.6" fill="#7f3b32"/>
        <path id="Trazado_133009" data-name="Trazado 133009" d="M491.41,385.73H450.88v7.87h40.53a3.94,3.94,0,0,0,0-7.87Z" fill="#a45546"/>
        <path id="Trazado_133010" data-name="Trazado 133010" d="M20.52,576.3H76.1V552.69h-45" fill="#98503d"/>
        <path id="Trazado_133011" data-name="Trazado 133011" d="M46.57,576.3h55.58V552.68H46.57" fill="#7f3b32"/>
        <path id="Trazado_133012" data-name="Trazado 133012" d="M435.95,552.69H487a11.45,11.45,0,0,1,11.45,11.45V576.3h-62.5Z" fill="#98503d"/>
        <rect id="Rectángulo_7254" data-name="Rectángulo 7254" width="31.96" height="23.62" transform="translate(436.99 552.69)" fill="#7f3b32"/>
        <g id="Grupo_62562" data-name="Grupo 62562">
          <path id="Trazado_133013" data-name="Trazado 133013" d="M305.26,373.85h21.09a4,4,0,0,1,4,4v1.45H301.21v-1.4a4,4,0,0,1,4.05-4.05Z" fill="#e42e44"/>
          <path id="Trazado_133014" data-name="Trazado 133014" d="M331,377.71H300.43a2.19,2.19,0,0,0,0,4.33H331a2.19,2.19,0,0,0,0-4.33Z" fill="#ffb33b"/>
          <g id="Grupo_62561" data-name="Grupo 62561">
            <rect id="Rectángulo_7255" data-name="Rectángulo 7255" width="9.19" height="14.03" transform="translate(295.464 361.932) rotate(-17.89)" fill="#ffb33b"/>
            <path id="Trazado_133015" data-name="Trazado 133015" d="M253.65,381.53c-2-3.77,47-14.2,47-14.2l.33,1S255.65,385.38,253.65,381.53Z" fill="#ffb33b"/>
          </g>
        </g>
        <rect id="Rectángulo_7256" data-name="Rectángulo 7256" width="133.38" height="182.7" transform="translate(320.63 388.04)" fill="#98503d"/>
        <path id="Trazado_133016" data-name="Trazado 133016" d="M64.98,570.75H198.36V388.04H64.98" fill="#98503d"/>
        <path id="Trazado_133017" data-name="Trazado 133017" d="M172.49,388.04H99.59L78.7,570.75h72.9Z" fill="#a45444"/>
        <path id="Trazado_133018" data-name="Trazado 133018" d="M177.58,554.65H71.87V404.14H177.58ZM73.26,553.26H176.19V405.53H73.26Z" fill="#7f3b32"/>
        <path id="Trazado_133019" data-name="Trazado 133019" d="M435.77,388.04H362.88L341.99,570.75h72.89Z" fill="#a45444"/>
        <path id="Trazado_133020" data-name="Trazado 133020" d="M445.73,554.65H340V404.14H445.73Zm-104.32-1.39H444.34V405.53H341.41Z" fill="#7f3b32"/>
        <rect id="Rectángulo_7257" data-name="Rectángulo 7257" width="146.93" height="182.7" transform="translate(186.03 388.04)" fill="#8d4739"/>
        <rect id="Rectángulo_7258" data-name="Rectángulo 7258" width="133.38" height="12.5" transform="translate(320.63 388.04)" fill="#8d4739"/>
        <path id="Trazado_133021" data-name="Trazado 133021" d="M64.98,400.55H198.36V388.04H64.98" fill="#8d4739"/>
        <rect id="Rectángulo_7259" data-name="Rectángulo 7259" width="133.38" height="182.7" transform="translate(192.81 388.04)" fill="#a45546"/>
        <path id="Trazado_133022" data-name="Trazado 133022" d="M313.45,388.04H230.78L208.32,570.75h82.67Z" fill="#ac584d"/>
        <path id="Trazado_133023" data-name="Trazado 133023" d="M321.15,554.65H197.84V404.14H321.15Zm-121.92-1.39H319.76V405.53H199.23Z" fill="#7f3b32"/>
        <rect id="Rectángulo_7260" data-name="Rectángulo 7260" width="133.38" height="15.75" transform="translate(192.81 384.34)" fill="#92453b"/>
        <path id="Trazado_133024" data-name="Trazado 133024" d="M61.51,393.6h396a6.59,6.59,0,0,0,6.6-6.6v-5.9H54.91" fill="#bb5d4a"/>
        <path id="Trazado_133025" data-name="Trazado 133025" d="M346.68,381.1H175.09l-1.83,8.23a3.32,3.32,0,0,0,3.33,4.27h163a5.63,5.63,0,0,0,5.22-4.27Z" fill="#a94c3f"/>
        <path id="Trazado_133026" data-name="Trazado 133026" d="M325.07,381.1H240.72l-4,8.23c-1.14,2.36-1.13,4.27,0,4.27h80.14c1.16,0,3-1.91,4.18-4.27Z" fill="#bb5d4a"/>
        <path id="Trazado_133027" data-name="Trazado 133027" d="M54.91,576.3H464.08V563.8H54.91" fill="#bb5d4a"/>
        <path id="Trazado_133028" data-name="Trazado 133028" d="M340.66,564.71H172.08l-2.31,11.61H338.34Z" fill="#a94c3f"/>
        <path id="Trazado_133029" data-name="Trazado 133029" d="M310.43,477.6c0-.82,0-1.63-.06-2.44a4.541,4.541,0,0,0-.06-.9,14.117,14.117,0,0,0-.11-1.47c-.05-.47-.07-.77-.12-1.15s-.09-.75-.14-1.13-.12-.9-.19-1.34a4.782,4.782,0,0,0-.13-.74,51.62,51.62,0,0,0-4.07-12.92c-.49-1.06-1-2.1-1.58-3.11a2.754,2.754,0,0,0-.17-.29c-.52-.94-1.07-1.85-1.64-2.75l-.14-.22c-.63-1-1.29-1.9-2-2.82l-.12-.15c-.64-.85-1.3-1.67-2-2.47l-.29-.33a50.752,50.752,0,0,0-4.67-4.72c-.15-.12-.29-.25-.43-.38-.59-.51-1.2-1-1.81-1.49l-.32-.25a16.2,16.2,0,0,0-1.39-1l-.5-.36c-.39-.28-.79-.55-1.2-.82l-.38-.26-.38-.24-1.31-.81-.7-.41-.32-.18-.26-.16-.73-.39-.75-.39-1.34-.67-.2-.1-.45-.2-.11-.05c-.46-.21-.92-.42-1.38-.61l-.7-.28-.38-.15-.58-.24c-1-.38-2-.73-3.05-1.05l-.61-.17c-.87-.26-1.74-.49-2.63-.7l-.77-.18c-1.06-.23-2.13-.44-3.21-.6l-.47-.06c-.95-.13-1.9-.24-2.87-.32l-.88-.07c-1.12-.07-2.24-.12-3.37-.12a50.261,50.261,0,0,0-15.15,2.32,47.688,47.688,0,0,0-4.68,1.74c-.76.33-1.51.67-2.26,1a51.588,51.588,0,0,0-8.39,5.18c-1.22.92-2.39,1.91-3.52,2.94-.69.63-1.37,1.27-2,1.93s-1.28,1.35-1.9,2a51.376,51.376,0,0,0-3.91,5c-.3.45-.6.89-.89,1.34-.54.85-1.06,1.71-1.55,2.59-.37.66-.73,1.33-1.07,2a52.12,52.12,0,0,0-5.6,23.56c0,1,0,2,.09,3a3.569,3.569,0,0,0,.07.86c.05.71.11,1.4.18,2.1l.12.91c.09.7.2,1.4.31,2.1a4.211,4.211,0,0,0,.14.76c.15.82.33,1.64.52,2.45a.551.551,0,0,0,.07.32c.23.93.47,1.85.75,2.76.1.32.21.64.31,1s.27.83.41,1.24l.39,1c.14.37.28.74.43,1.11s.23.57.35.85c0,.07.06.13.08.19.16.37.32.73.49,1.1s.3.66.46,1,.31.63.47.94l.16.32.7,1.31c.24.44.48.87.74,1.3s.36.6.55.89.43.7.65,1l.6.9c.16.23.31.46.47.68l.06.09.17.22c.2.29.4.57.61.85s.55.71.82,1.06.37.48.57.71q.67.82,1.38,1.62c.2.23.41.45.61.67l.39.42.08.09.46.48.7.7.93.9.72.67c.34.31.68.61,1,.9l.67.58.74.59.23.18.73.58c.14.12.3.22.45.33.45.34.91.67,1.38,1l.72.49,1.19.77.77.47,1.24.73.74.41c.52.29,1,.56,1.58.83l.43.22c.67.32,1.36.63,2,.93l.67.28.51.21h.11l.85.34.8.29,1.42.49.79.25c.54.17,1.08.32,1.62.47l.62.17.85.21.23.05,1.17.27.5.09c.6.12,1.2.23,1.81.33l.8.12,1.57.2.85.09,1.65.13h.75c.8,0,1.61.06,2.42.06a50.07,50.07,0,0,0,22.08-5.1A50.7,50.7,0,0,0,290,519c.66-.5,1.3-1,1.93-1.54a51.88,51.88,0,0,0,18.5-39.86Z" fill="#7f3b32"/>
        <g id="Grupo_62565" data-name="Grupo 62565">
          <circle id="Elipse_4366" data-name="Elipse 4366" cx="50.94" cy="50.94" r="50.94" transform="translate(188.186 464.124) rotate(-36.93)" fill="#ffb95f"/>
          <path id="Trazado_133030" data-name="Trazado 133030" d="M212.7,494.41a50.93,50.93,0,0,0,46.53,30.8c9.7-23.13,28.32-52.71,44.39-76.36a51.07,51.07,0,0,0-26.8-22.48C263.32,446,242.94,470,212.7,494.41Z" fill="#fff" opacity="0.32"/>
          <g id="Grupo_62563" data-name="Grupo 62563">
            <path id="Trazado_133031" data-name="Trazado 133031" d="M259.16,505c-5.19,0-19.33,5.1-19.33,5.1h38.65S264.34,505,259.16,505Z" fill="#ffda89"/>
            <path id="Trazado_133032" data-name="Trazado 133032" d="M239.12,483.08a21.71,21.71,0,0,0,12.52-3.75h-25a21.69,21.69,0,0,0,12.48,3.75Z" fill="#ffda89"/>
            <path id="Trazado_133033" data-name="Trazado 133033" d="M279.46,483.08A21.69,21.69,0,0,0,292,479.33H267A21.69,21.69,0,0,0,279.46,483.08Z" fill="#ffda89"/>
            <path id="Trazado_133034" data-name="Trazado 133034" d="M256.74,448a2.55,2.55,0,1,0,2.55-2.55A2.55,2.55,0,0,0,256.74,448Z" fill="#ffda89"/>
            <circle id="Elipse_4367" data-name="Elipse 4367" cx="1.89" cy="1.89" r="1.89" transform="translate(256.94 479.08)" fill="#ffda89"/>
            <path id="Trazado_133035" data-name="Trazado 133035" d="M257.68,441.62c0,2.22.72,4,1.61,4s1.61-1.8,1.61-4-.72-4-1.61-4S257.68,439.39,257.68,441.62Z" fill="#ffda89"/>
            <path id="Trazado_133036" data-name="Trazado 133036" d="M257.32,465.52c0,16.23.85,15.75,1.51,15.75s1.51.48,1.51-15.75-.84-15.75-1.51-15.75S257.32,449.29,257.32,465.52Z" fill="#ffda89"/>
            <path id="Trazado_133037" data-name="Trazado 133037" d="M256.82,495c0,13.49,1.12,13.1,2,13.1s2,.39,2-13.1-1.13-13.1-2-13.1S256.82,481.48,256.82,495Z" fill="#ffda89"/>
            <rect id="Rectángulo_7261" data-name="Rectángulo 7261" width="48.85" height="0.69" transform="translate(234.87 447.61)" fill="#ffda89"/>
            <path id="Trazado_133038" data-name="Trazado 133038" d="M240.24,447.49a1.15,1.15,0,0,0-1.45-.78,1.164,1.164,0,0,0,.67,2.23,1.15,1.15,0,0,0,.78-1.45Z" fill="#ffda89"/>
            <path id="Trazado_133039" data-name="Trazado 133039" d="M280.58,447.49a1.16,1.16,0,1,0-.088.887,1.17,1.17,0,0,0,.088-.887Z" fill="#ffda89"/>
            <path id="Trazado_133040" data-name="Trazado 133040" d="M268.6,478.79a1.15,1.15,0,0,0-1.45-.78,1.164,1.164,0,1,0,.67,2.23,1.15,1.15,0,0,0,.78-1.45Z" fill="#ffda89"/>
            <path id="Trazado_133041" data-name="Trazado 133041" d="M292.76,478.79a1.17,1.17,0,1,0-.79,1.45A1.17,1.17,0,0,0,292.76,478.79Z" fill="#ffda89"/>
            <path id="Trazado_133042" data-name="Trazado 133042" d="M228.15,478.79a1.169,1.169,0,1,0-.79,1.45A1.17,1.17,0,0,0,228.15,478.79Z" fill="#ffda89"/>
            <path id="Trazado_133043" data-name="Trazado 133043" d="M252.3,478.79a1.16,1.16,0,1,0-.088.887,1.17,1.17,0,0,0,.088-.887Z" fill="#ffda89"/>
            <path id="Trazado_133044" data-name="Trazado 133044" d="M251.15,479.48l-12.09-31.27-12.09,31.12-.37-.14,12.46-32.09,12.47,32.24Z" fill="#ffda89"/>
            <path id="Trazado_133045" data-name="Trazado 133045" d="M291.61,479.48l-12.09-31.27-12.09,31.12-.37-.14,12.46-32.09,12.47,32.24Z" fill="#ffda89"/>
          </g>
          <g id="Grupo_62564" data-name="Grupo 62564">
            <path id="Trazado_133046" data-name="Trazado 133046" d="M259.32,505.43c-5.18,0-19.32,5.1-19.32,5.1h38.65S264.51,505.43,259.32,505.43Z" fill="#d57b3e"/>
            <path id="Trazado_133047" data-name="Trazado 133047" d="M239.29,483.53a21.66,21.66,0,0,0,12.51-3.76h-25a21.67,21.67,0,0,0,12.49,3.76Z" fill="#d57b3e"/>
            <path id="Trazado_133048" data-name="Trazado 133048" d="M279.63,483.53a21.66,21.66,0,0,0,12.51-3.76h-25a21.67,21.67,0,0,0,12.49,3.76Z" fill="#d57b3e"/>
            <path id="Trazado_133049" data-name="Trazado 133049" d="M256.91,448.4a2.55,2.55,0,1,0,2.55-2.55,2.55,2.55,0,0,0-2.55,2.55Z" fill="#d57b3e"/>
            <path id="Trazado_133050" data-name="Trazado 133050" d="M257.56,481.41a1.9,1.9,0,1,0,1.9-1.89,1.9,1.9,0,0,0-1.9,1.89Z" fill="#d57b3e"/>
            <path id="Trazado_133051" data-name="Trazado 133051" d="M257.85,442.06c0,2.22.72,4,1.61,4s1.61-1.81,1.61-4-.72-4-1.61-4S257.85,439.84,257.85,442.06Z" fill="#d57b3e"/>
            <path id="Trazado_133052" data-name="Trazado 133052" d="M258,466c0,16.23.84,15.75,1.51,15.75S261,482.19,261,466s-.85-15.75-1.51-15.75S258,449.74,258,466Z" fill="#d57b3e"/>
            <path id="Trazado_133053" data-name="Trazado 133053" d="M257.44,495.42c0,13.49,1.13,13.1,2,13.1s2,.39,2-13.1-1.12-13.1-2-13.1S257.44,481.92,257.44,495.42Z" fill="#d57b3e"/>
            <rect id="Rectángulo_7262" data-name="Rectángulo 7262" width="48.85" height="0.69" transform="translate(235.03 448.06)" fill="#d57b3e"/>
            <path id="Trazado_133054" data-name="Trazado 133054" d="M240.41,447.93a1.149,1.149,0,1,0-.79,1.46,1.18,1.18,0,0,0,.79-1.46Z" fill="#d57b3e"/>
            <path id="Trazado_133055" data-name="Trazado 133055" d="M280.75,447.93a1.149,1.149,0,1,0-.79,1.46,1.18,1.18,0,0,0,.79-1.46Z" fill="#d57b3e"/>
            <path id="Trazado_133056" data-name="Trazado 133056" d="M268.77,479.23a1.17,1.17,0,1,0-.79,1.46,1.17,1.17,0,0,0,.79-1.46Z" fill="#d57b3e"/>
            <path id="Trazado_133057" data-name="Trazado 133057" d="M292.92,479.23a1.2,1.2,0,1,0-.78,1.46A1.17,1.17,0,0,0,292.92,479.23Z" fill="#d57b3e"/>
            <path id="Trazado_133058" data-name="Trazado 133058" d="M228.31,479.23a1.17,1.17,0,1,0-.78,1.46,1.17,1.17,0,0,0,.78-1.46Z" fill="#d57b3e"/>
            <path id="Trazado_133059" data-name="Trazado 133059" d="M252.46,479.23a1.2,1.2,0,1,0-.78,1.46A1.17,1.17,0,0,0,252.46,479.23Z" fill="#d57b3e"/>
            <path id="Trazado_133060" data-name="Trazado 133060" d="M251.32,479.93l-12.09-31.27-12.09,31.11-.38-.14,12.47-32.09,12.46,32.24Z" fill="#d57b3e"/>
            <path id="Trazado_133061" data-name="Trazado 133061" d="M291.78,479.93l-12.09-31.27-12.1,31.11-.37-.14,12.47-32.09,12.46,32.24Z" fill="#d57b3e"/>
          </g>
          <path id="Trazado_133062" data-name="Trazado 133062" d="M209.35,475.86a50.93,50.93,0,0,1,96.2-23.34,50.927,50.927,0,1,0-91.325,45.1,50.62,50.62,0,0,1-4.875-21.762Z" fill="#ffda89"/>
          <path id="Trazado_133063" data-name="Trazado 133063" d="M307.66,457.71A50.937,50.937,0,1,1,210.8,489.292a50.939,50.939,0,1,0,96.858-31.583Z" fill="#d57b3e"/>
        </g>
        <path id="Trazado_133064" data-name="Trazado 133064" d="M54.91,567.66H464.08v-4.02H54.91" fill="#df6b58"/>
        <path id="Trazado_133065" data-name="Trazado 133065" d="M54.91,384.57H464.08V381.1H54.91" fill="#df6b58"/>
      </g>
    </g>
  </g>
</svg>
