<svg xmlns="http://www.w3.org/2000/svg" width="382.719" height="362.046" viewBox="0 0 382.719 362.046">
  <g id="Grupo_124821" data-name="Grupo 124821" transform="translate(-962.026 -3005.476)">
    <g id="CF8_banco" transform="translate(959.35 2994.846)">
      <g id="Layer_1" data-name="Layer 1" transform="translate(2.676 10.63)">
        <g id="Grupo_63453" data-name="Grupo 63453" transform="translate(9.836)">
          <circle id="Elipse_4415" data-name="Elipse 4415" cx="181.023" cy="181.023" r="181.023" transform="translate(0.649)" fill="#6c58b8"/>
          <path id="Trazado_229945" data-name="Trazado 229945" d="M158.43,10.63h28.32c.674.911,1.7.649,2.595.736a180.9,180.9,0,0,1,38.251,7.8,178.4,178.4,0,0,1,80.169,52.323L291.546,88.441a8.858,8.858,0,0,1-6.525,2.907,8.933,8.933,0,0,0-6.849-.237c-4.441,1.347-8.2,3.743-9.981,8.2-3.106,8-9.195,14.971-8.733,24.19a14.809,14.809,0,0,0,9.095,13.561c5.726,2.595,11.39,2.3,16.493-1.846,3.418-1.584,4.99-4.928,6.936-7.747,3.643-5.277,8.508-6.749,14.609-6.363,10.979.686,21.97,1.51,32.986,1.248A163.431,163.431,0,0,1,352.3,172.565c-9.694-.911-19.375-1.859-29.068-2.745-15.183-1.385-30.353-2.857-45.549-4.042-9.082-.7-17.466,1.422-24.615,7.485l-.7.786h0c-2.957,1.11-4.454,3.743-6.238,6.063-8.047,10.542-9.294,26.2-2.994,36.492,56.141,11.353,44.775,61.393,48.007,59.035,1.048,2.994,2.009,6.026,3.156,8.97,3.83,9.843,6.8,19.961,11.141,29.655a8.06,8.06,0,0,1-2.869,3.356c-1.946-.9-3.044.848-4.3,1.584-27.559,16.094-57.388,23.7-89.164,24.527a175.945,175.945,0,0,1-21.41-1.309,174.421,174.421,0,0,1-40.495-9.171,195.78,195.78,0,0,1-31.963-14.884c0-.225,0-.449,0-.661,2.383-2.782,3.106-6.238,4.117-9.631q6.175-20.373,12.264-40.808a15.482,15.482,0,0,1,5.227-7.91Q150.3,248.28,163.52,236.9c3.156-2.695,5.864-5.8,6.238-10.243,2.208-2.283-47.408-21.034-50.814-56.877a30.578,30.578,0,0,0-12.7-5.8c-5.215-1.248-10.592.162-15.769-1.248-3.818-3.319-4.2-5.689-1.51-9.744a16.381,16.381,0,0,1,10.455-7.348,88.794,88.794,0,0,1,9.419-1.385c10.367-1.048,19.45-4.716,26.2-12.975,2.957-3.643,5.514-7.623,8.184-11.5,5.876-8.533,11.8-17.042,17.553-25.65,5.39-8.084,4.7-15.981-1.7-23.28-3.743-4.242-7.386-8.546-11.029-12.862-5.689-6.724-14.11-6.525-19.587.5-2.5,3.244-5.1,6.475-7.61,9.731-.911,1.173-1.871,2.233-3.506,1.834-12.064-2.844-19.462-3.743-23.192-17.192a66.446,66.446,0,0,0,2.72-12.039l5.876-16.006c12.151-5.6,24.951-8.9,38.051-11.44C146.653,12.264,152.679,12.339,158.43,10.63Zm59.434,80.032c8.883-7.186,17.391-14.784,25.65-22.656,3.269-3.131,2.146-7.585-2.146-9.444a87.882,87.882,0,0,0-8.671-3.007c-10.442-3.269-20.6-7.485-31.189-10.342-3.231-1.672-6.575-3.131-9.719-.087-2.795,2.695-1.51,5.864-.412,8.883,4.391,12.027,8.733,24.078,13.212,36.067,2.3,6.238,6.45,7.111,11.328,2.645A19.986,19.986,0,0,0,217.864,90.662Z" transform="translate(8.42 -10.63)" fill="#dad5ed"/>
          <path id="Trazado_229946" data-name="Trazado 229946" d="M321.63,298.264a179.338,179.338,0,0,1-57.937,40.2,175.21,175.21,0,0,1-80.182,14.784c-51.6-2.77-94.716-23.7-128.8-62.516-23.642-26.848-37.5-58.411-42.567-93.83-.487-3.443-.287-7-1.584-10.317V159.01c.661-.487.624-1.248.674-1.909a156.333,156.333,0,0,1,2.907-20.548c3.518-16.979,8.933-33.285,17.466-48.443,5.739,8.858,11.066,17.953,16.318,27.1a61.13,61.13,0,0,0-1.422,11.44,186.7,186.7,0,0,0,1.959,48.768,177.555,177.555,0,0,0,23.23,61.331c8.658,14.21,18.714,27.247,31.376,38.2l.823,14.36A16.929,16.929,0,0,0,116.554,304.8c7.174,1.871,12.788-.923,17.74-5.8a195.778,195.778,0,0,0,31.963,14.884,174.424,174.424,0,0,0,40.484,9.17,176,176,0,0,0,21.446,1.322c31.713-.836,61.605-8.434,89.164-24.527C318.586,299.112,319.684,297.366,321.63,298.264Z" transform="translate(-10.56 8.552)" fill="#b5abdb"/>
          <path id="Trazado_229947" data-name="Trazado 229947" d="M110.609,27.89c-4.853,17.117,5.19,35.069,17.254,37.889,1.634.4,2.595-.661,3.506-1.834,2.5-3.256,5.078-6.487,7.61-9.731,5.477-7.024,13.9-7.223,19.587-.5,3.643,4.317,7.311,8.621,11.029,12.862,6.4,7.3,7.086,15.2,1.7,23.28-5.751,8.608-11.677,17.117-17.553,25.65-2.67,3.88-5.227,7.86-8.184,11.5-6.712,8.259-15.794,11.927-26.2,12.975A88.791,88.791,0,0,0,110,141.369a16.381,16.381,0,0,0-10.4,7.348c-2.695,4.055-2.308,6.425,1.51,9.744a2.707,2.707,0,0,1-2.333.561c-6.5-1.248-13.124-.324-19.687-1.173-6.238-.811-11.029-3.256-14.26-8.533-5.539-9.032-10.966-18.127-16.381-27.235-2.37-3.967-4.279-8.072-3.892-12.962.312-3.855,1.784-7.323,3.069-10.829,2.233-6.038,3.892-12.351,7.735-17.691.137-16.93,23.454-22.269,25.326-20.984,5.128,3.581,6.787-6.874,11.765-10.542C105.718,39.355,103.236,43,110.609,27.89Z" transform="translate(-2.157 -6.357)" fill="#6c58b8"/>
          <path id="Trazado_229948" data-name="Trazado 229948" d="M320.357,141.745a127.953,127.953,0,0,1,1.035,27.8,179.776,179.776,0,0,1-9.731,50.414,174.573,174.573,0,0,1-29.592,53.471c-1.659-4.778-3.156-9.619-4.99-14.322-2.957-7.485-5.053-15.4-8.658-22.681,6.013-6.625,11.877-13.374,15.32-21.808,2.695-6.6,3.892-13.411,1.435-20.3-5.676-15.944-24.4-20.9-37.427-9.981-1.248,1.11-2.2,1.809-3.743.324-6.238-5.839-13.723-7.211-21.982-5.514-4.566-7.735-6.662-15.919-4.99-24.951.7-3.867,2.433-7.336,3.518-11.041h0l.7-.786c7.136-6.026,15.532-8.147,24.615-7.485,15.2,1.248,30.366,2.657,45.549,4.042C300.983,139.886,310.7,140.834,320.357,141.745Z" transform="translate(40.416 20.103)" fill="#6c58b8"/>
          <path id="Trazado_229949" data-name="Trazado 229949" d="M173.189,194.038c-.387,4.441-3.094,7.548-6.238,10.243Q153.7,215.6,140.278,226.737a15.482,15.482,0,0,0-5.14,7.772q-6.1,20.423-12.264,40.808c-1.011,3.356-1.734,6.849-4.117,9.631-5.5-2.034-10.08-5.589-14.4-9.344a13.8,13.8,0,0,1-4.678-9.656q-1.522-25.3-2.857-50.614a16.418,16.418,0,0,0-4.666-11.116c-4.466-4.554-9.981-7.885-14.971-11.777-5.29-4.1-4.99-9.057,1.248-11.453,12.314-4.678,24.777-8.958,37.178-13.4,12.164-19.188-1.634-41.245,31.826-8.434,2.732,1.909,2.171,1.722,11.228,6.238C167.7,170.521,179.888,169.673,173.189,194.038Z" transform="translate(5.015 21.979)" fill="#6c58b8"/>
          <path id="Trazado_229950" data-name="Trazado 229950" d="M116.737,153.357c7.71-3.256,1.1,7.872,2.5,11.627-12.4,4.441-24.864,8.733-37.178,13.4-6.238,2.4-6.6,7.348-1.248,11.453,4.99,3.892,10.467,7.223,14.971,11.777a16.418,16.418,0,0,1,4.666,11.116q1.36,25.3,2.857,50.614A13.8,13.8,0,0,0,107.979,273c4.317,3.743,8.9,7.311,14.4,9.344V283c-4.99,4.878-10.567,7.673-17.741,5.8a16.93,16.93,0,0,1-12.663-15.495l-.823-14.36c-.711-15.146-1.385-30.279-2.146-45.424a7.286,7.286,0,0,0-3.381-5.514c-6.986-5.177-13.9-10.467-20.834-15.732-8.309-6.238-6.974-17,2.645-21.047,2.5-1.048,5.078-1.871,7.623-2.795Z" transform="translate(1.508 24.56)" fill="#472ea6"/>
          <path id="Trazado_229951" data-name="Trazado 229951" d="M270.731,59.41a171.577,171.577,0,0,1,31.851,50.776c-11.016.312-22.007-.512-32.986-1.248-6.1-.387-10.966,1.085-14.609,6.363-1.959,2.82-3.518,6.163-6.937,7.747a15.108,15.108,0,0,1-9.195-7.623c-3.169-5.539-2.283-10.929.175-16.468,2.932-6.612,6.724-12.85,8.958-19.774a8.858,8.858,0,0,0,6.525-2.82Z" transform="translate(45.455 1.447)" fill="#6c58b8"/>
          <path id="Trazado_229952" data-name="Trazado 229952" d="M48.766,68.3c11.5-13.174,15.158-15.457,30.516-28.906-3.843,5.352-25.251,49.9-27.447,55.991-1.248,3.506-2.757,6.974-3.069,10.829-.387,4.89,1.522,9,3.892,12.962,5.414,9.107,10.841,18.2,16.381,27.235,3.231,5.277,8.084,7.722,14.26,8.533,6.562.848,13.187-.112,19.687,1.173a2.707,2.707,0,0,0,2.333-.5c5.177,1.4,10.554,0,15.769,1.248a30.578,30.578,0,0,1,12.7,5.8,42.716,42.716,0,0,0-7.2,9.307,14.435,14.435,0,0,0-9-3.655c-10.679-.574-21.358-1.123-32.05-1.435-12-.349-21.209-5.152-27.322-15.732-4.653-8.047-9.606-15.919-14.434-23.866-5.252-9.145-10.579-18.24-16.318-27.1A156.782,156.782,0,0,1,48.766,68.3Z" transform="translate(-6.374 -3.51)" fill="#472ea6"/>
          <path id="Trazado_229953" data-name="Trazado 229953" d="M178.85,38.35c10.567,2.894,20.722,7.074,31.189,10.342A87.882,87.882,0,0,1,218.71,51.7c4.292,1.859,5.414,6.313,2.146,9.444-8.259,7.872-16.767,15.47-25.65,22.656-3.356-9.032-6.812-18.04-10.043-27.122C182.967,50.6,180.147,44.725,178.85,38.35Z" transform="translate(31.104 -3.767)" fill="#6c58b8"/>
          <path id="Trazado_229954" data-name="Trazado 229954" d="M250.851,75.459c-2.221,6.924-5.963,13.162-8.958,19.774-2.5,5.539-3.343,10.929-.175,16.468a15.108,15.108,0,0,0,9.195,7.623c-5.1,4.142-10.767,4.441-16.493,1.846a14.809,14.809,0,0,1-9.095-13.561c-.474-9.27,5.614-16.218,8.733-24.19,1.759-4.516,5.514-6.849,9.981-8.2a8.933,8.933,0,0,1,6.812.237Z" transform="translate(42.604 5.222)" fill="#472ea6"/>
          <path id="Trazado_229955" data-name="Trazado 229955" d="M181.113,38.719c1.248,6.375,4.117,12.251,6.238,18.327,3.231,9.082,6.687,18.09,10.043,27.122-.636.686-1.248,1.422-1.921,2.059-4.878,4.466-9.032,3.543-11.328-2.645-4.416-11.989-8.77-24.091-13.162-36.067-1.1-3.019-2.383-6.238.412-8.883C174.538,35.588,177.881,37.035,181.113,38.719Z" transform="translate(28.842 -4.137)" fill="#472ea6"/>
          <path id="Trazado_229956" data-name="Trazado 229956" d="M250.74,224.559l9.195-8.309c3.606,7.286,5.7,15.146,8.658,22.681,1.834,4.7,3.331,9.544,4.99,14.322a62.382,62.382,0,0,1-8.546,9.981c-4.342-9.644-7.311-19.811-11.141-29.655C252.749,230.585,251.788,227.553,250.74,224.559Z" transform="translate(48.902 40.276)" fill="#472ea6"/>
          <path id="Trazado_229957" data-name="Trazado 229957" d="M223.761,177.485a31.314,31.314,0,0,0-10.717,6.55c-6.238-10.255-4.99-25.95,2.994-36.492,1.747-2.308,3.244-4.99,6.238-6.063-1.085,3.743-2.82,7.174-3.518,11.041C217.1,161.566,219.2,169.75,223.761,177.485Z" transform="translate(38.591 21.765)" fill="#472ea6"/>
          <path id="Trazado_229958" data-name="Trazado 229958" d="M95.5,38.006A34.633,34.633,0,0,0,92.52,25.743c3.032-1.1,5.714-3.044,8.92-3.743Q98.471,30.034,95.5,38.006Z" transform="translate(9.731 -7.815)" fill="#6c58b8"/>
          <path id="Trazado_229959" data-name="Trazado 229959" d="M220.339,140.89l-.7.786Z" transform="translate(41.203 21.619)" fill="#472ea6"/>
          <path id="Trazado_229960" data-name="Trazado 229960" d="M40.97,109.83c4.828,7.947,9.781,15.819,14.434,23.916,6.113,10.579,15.32,15.383,27.322,15.732,10.692.312,21.371.861,32.05,1.435a14.435,14.435,0,0,1,9,3.655c8.933,6.076,5.7,8.446-1.946,9.482L79.995,179.07c-2.5.923-5.128,1.747-7.623,2.795-9.619,4.042-10.954,14.759-2.645,21.047,6.937,5.265,13.848,10.554,20.834,15.732a7.286,7.286,0,0,1,3.393,5.514c.761,15.146,1.435,30.279,2.146,45.424-12.638-10.954-22.718-23.991-31.376-38.2A177.555,177.555,0,0,1,41.482,170.05a186.7,186.7,0,0,1-1.959-48.78,61.132,61.132,0,0,1,1.447-11.44Z" transform="translate(-3.581 13.929)" fill="#dad5ed"/>
          <path id="Trazado_229961" data-name="Trazado 229961" d="M212.26,177.187s27.871,30.852,34.932,40.134,13.112,18.9,13.112,18.9l12.763-11.465L231.3,169.14H216.477Z" transform="translate(39.376 28.613)" fill="#472ea6"/>
          <path id="Trazado_229962" data-name="Trazado 229962" d="M220.85,172.9c0,1.085,31.189,36.18,37.29,45.25a148.007,148.007,0,0,0,9.793,13.287l27.359-22.456,1.472-38.675L253.9,160Z" transform="translate(41.502 26.35)" fill="#6c58b8"/>
          <path id="Trazado_229963" data-name="Trazado 229963" d="M114.49,138.19a38.551,38.551,0,0,1,7.485,6.462c4.017,4.766,2.121,11.727,0,14.1-4.8,4.866-9.544,8.409-14.16,9.843l-2.5-11.615c8.3-2.62,6.325-5.477,1.946-9.482l3.568-8.022Z" transform="translate(12.9 20.951)" fill="#472ea6"/>
        </g>
        <g id="Grupo_63457" data-name="Grupo 63457" transform="translate(205.545 181.489)">
          <g id="Grupo_63454" data-name="Grupo 63454">
            <rect id="Rectángulo_7426" data-name="Rectángulo 7426" width="142.211" height="72.272" transform="matrix(0.754, -0.657, 0.657, 0.754, 0, 93.374)" fill="#65cefe"/>
            <path id="Trazado_229964" data-name="Trazado 229964" d="M315.3,209.952l-100.317,87.33L172,247.94l100.317-87.33ZM215.4,291.206l93.83-81.666-37.3-42.854L178.1,248.427Z" transform="translate(-166.301 -154.988)" fill="#c9edf9"/>
            <path id="Trazado_229965" data-name="Trazado 229965" d="M255.325,203.446c10.692,12.289,10.292,30.129-.886,39.86s-28.906,7.66-39.6-4.616-10.292-30.129.886-39.922S244.633,191.17,255.325,203.446Z" transform="translate(-157.617 -147.06)" fill="#c9edf9"/>
            <path id="Trazado_229966" data-name="Trazado 229966" d="M230.133,208.91a4.99,4.99,0,0,0-4.4-.986,4.552,4.552,0,0,0,.337.536c1.647,1.921,3.319,3.83,4.99,5.764a.811.811,0,0,0,1.148.237,34.114,34.114,0,0,1,3.556-1.273c4.342-1.31,7.785.412,10.168,3.917,2.869,4.229,2.67,8.271-.4,12.388-.561.749-.512,1.248.112,1.809a9.679,9.679,0,0,1,1.248,1.472l-2.5,2.133-1.921-2.221c-6.151,3.743-11.116,1.248-13.836-1.4l4.017-4.317a7.772,7.772,0,0,0,6.151,1.46l-2.5-2.907c-1.085-1.248-2.2-2.5-3.244-3.743a.936.936,0,0,0-1.248-.337,12.676,12.676,0,0,1-5.789,1.173,9.669,9.669,0,0,1-8.446-6.238,8.533,8.533,0,0,1,1.472-9.307l.449-.574.175-.3-1.609-1.859,2.5-2.171c.387.449.8.873,1.148,1.347s.7.487,1.248.175a8.92,8.92,0,0,1,7.273-1.248,9.444,9.444,0,0,1,3.743,2.083Zm5.676,10.779,5.739,6.662a4.479,4.479,0,0,0,.175-5.689c-1.273-1.759-3.468-2.158-5.963-.973Zm-12.75-9.544a4.292,4.292,0,0,0,.4,4.99,4.154,4.154,0,0,0,4.666.936Z" transform="translate(-155.206 -144.702)" fill="#65cefe"/>
            <path id="Trazado_229967" data-name="Trazado 229967" d="M204.294,238.737a3.917,3.917,0,1,0-.387,5.527,3.917,3.917,0,0,0,.387-5.527Z" transform="translate(-160.008 -135.979)" fill="#cbefef"/>
            <path id="Trazado_229968" data-name="Trazado 229968" d="M262.364,188.267a3.917,3.917,0,1,0-.387,5.527A3.917,3.917,0,0,0,262.364,188.267Z" transform="translate(-145.631 -148.474)" fill="#c9edf9"/>
          </g>
          <path id="Trazado_229969" data-name="Trazado 229969" d="M303.61,194.733l-5.152-5.913L214.87,205.962v5.427Z" transform="translate(-155.687 -148.004)" fill="#65cefe"/>
          <g id="Grupo_63455" data-name="Grupo 63455" transform="translate(23.956 43.481)">
            <rect id="Rectángulo_7427" data-name="Rectángulo 7427" width="142.211" height="72.272" transform="translate(0 26.599) rotate(-10.78)" fill="#65cefe"/>
            <path id="Trazado_229970" data-name="Trazado 229970" d="M333.665,258.6,203.019,283.474,190.78,219.237,321.426,194.36ZM206.412,278.446l122.2-23.267-10.629-55.8-122.175,23.23Z" transform="translate(-185.607 -190.113)" fill="#c9edf9"/>
            <ellipse id="Elipse_4416" data-name="Elipse 4416" cx="26.835" cy="29.48" rx="26.835" ry="29.48" transform="translate(44.806 24.961) rotate(-10.78)" fill="#c9edf9"/>
            <path id="Trazado_229971" data-name="Trazado 229971" d="M253.215,224.432a4.99,4.99,0,0,0-3.306-3.057,3.32,3.32,0,0,0,0,.624c.462,2.5.936,4.99,1.372,7.485.1.549.324.711.873.773a36.56,36.56,0,0,1,3.818.686c4.4,1.06,6.512,4.279,6.8,8.508.337,5.1-1.859,8.484-6.587,10.492-.873.374-1.06.811-.823,1.634a19.245,19.245,0,0,1,.362,1.909l-3.206.6c-.187-.986-.362-1.946-.536-2.894-7.223.175-10.255-4.479-11.228-8.172l5.639-1.7a7.86,7.86,0,0,0,4.579,4.354c-.262-1.385-.474-2.582-.7-3.743-.3-1.622-.636-3.256-.9-4.891a.936.936,0,0,0-.948-.936,12.712,12.712,0,0,1-5.6-1.909,9.656,9.656,0,0,1-4.167-9.606c.349-3.605,2.595-5.988,5.963-7.3l.674-.262.3-.175c-.137-.761-.287-1.547-.449-2.408l3.269-.611c.1.574.25,1.16.312,1.747s.349.761.948.749a8.9,8.9,0,0,1,6.874,2.632,9.631,9.631,0,0,1,2.208,3.743Zm-.524,12.176c.536,2.944,1.073,5.789,1.6,8.646a4.466,4.466,0,0,0,3.007-4.828C257.082,238.28,255.336,236.783,252.691,236.608Zm-6.238-14.671a4.329,4.329,0,0,0-2.146,4.479,4.142,4.142,0,0,0,3.556,3.156Z" transform="translate(-173.786 -185.29)" fill="#65cefe"/>
            <path id="Trazado_229972" data-name="Trazado 229972" d="M215.051,237.282a3.917,3.917,0,1,0-3.106,4.579,3.917,3.917,0,0,0,3.106-4.579Z" transform="translate(-181.521 -180.275)" fill="#cbefef"/>
            <path id="Trazado_229973" data-name="Trazado 229973" d="M290.631,222.893a3.917,3.917,0,1,0-3.119,4.579,3.917,3.917,0,0,0,3.119-4.579Z" transform="translate(-162.809 -183.838)" fill="#c9edf9"/>
          </g>
          <g id="Grupo_63456" data-name="Grupo 63456" transform="translate(5.066 71.933)">
            <rect id="Rectángulo_7428" data-name="Rectángulo 7428" width="142.211" height="72.272" transform="translate(11.754 0) rotate(9.36)" fill="#65cefe"/>
            <path id="Trazado_229974" data-name="Trazado 229974" d="M306.81,303.227l-131.22-21.62,10.629-64.537L317.452,238.7ZM180.53,278.114l122.736,20.223,9.245-56.041L189.825,221.973Z" transform="translate(-170.479 -212.943)" fill="#c9edf9"/>
            <path id="Trazado_229975" data-name="Trazado 229975" d="M264.286,261.893c-2.645,16.069-16.643,27.135-31.264,24.727s-24.34-17.391-21.7-33.46,16.655-27.135,31.277-24.714S266.93,245.825,264.286,261.893Z" transform="translate(-161.739 -210.209)" fill="#c9edf9"/>
            <path id="Trazado_229976" data-name="Trazado 229976" d="M240.815,247.519a4.99,4.99,0,0,0-2.046-4.017c-.075.25-.162.424-.2.6q-.636,3.743-1.248,7.485c-.1.549,0,.773.549,1.035a34.333,34.333,0,0,1,3.343,1.946c3.743,2.5,4.641,6.238,3.456,10.342-1.435,4.9-4.666,7.323-9.806,7.573-.936,0-1.248.4-1.322,1.248a12.293,12.293,0,0,1-.312,1.921l-3.219-.549c.162-.973.324-1.946.487-2.894-6.837-2.32-8.084-7.735-7.747-11.553l5.876.349a7.835,7.835,0,0,0,2.795,5.664c.237-1.385.449-2.582.649-3.743.274-1.634.524-3.281.848-4.9a.948.948,0,0,0-.574-1.248,12.538,12.538,0,0,1-4.591-3.743,9.669,9.669,0,0,1-.624-10.455,8.558,8.558,0,0,1,8.109-4.791h.724a1.6,1.6,0,0,0,.349,0c.125-.761.262-1.547.412-2.408l3.269.549c-.1.574-.15,1.173-.3,1.747s.062.848.624,1.035a8.87,8.87,0,0,1,5.564,4.841,9.444,9.444,0,0,1,.786,4.229Zm-4.678,11.228-1.472,8.658a4.466,4.466,0,0,0,4.479-3.481c.549-2.071-.574-4.067-3.007-5.152Zm-.786-15.919a4.3,4.3,0,0,0-3.543,3.468,4.142,4.142,0,0,0,2.246,4.192c.424-2.483.861-5,1.3-7.635Z" transform="translate(-158.815 -208.41)" fill="#65cefe"/>
            <path id="Trazado_229977" data-name="Trazado 229977" d="M199.3,246.793a3.917,3.917,0,1,0-1.582,2.549,3.917,3.917,0,0,0,1.582-2.549Z" transform="translate(-166.534 -206.711)" fill="#cbefef"/>
            <path id="Trazado_229978" data-name="Trazado 229978" d="M275.215,259.3a3.917,3.917,0,1,0-1.582,2.549,3.917,3.917,0,0,0,1.582-2.549Z" transform="translate(-147.741 -203.614)" fill="#c9edf9"/>
          </g>
          <path id="Trazado_229979" data-name="Trazado 229979" d="M308.875,260.635l3.955-23.966-97.96-16.231V214.6l104.3,17.179-4.616,27.808Z" transform="translate(-155.687 -141.621)" fill="#65cefe"/>
        </g>
        <g id="Grupo_63458" data-name="Grupo 63458" transform="translate(61.438 104.611)">
          <circle id="Elipse_4417" data-name="Elipse 4417" cx="46.759" cy="46.759" r="46.759" transform="translate(0 9.613) rotate(-5.9)" fill="#e6a748"/>
          <circle id="Elipse_4418" data-name="Elipse 4418" cx="42.056" cy="42.056" r="42.056" transform="translate(2.829 85.746) rotate(-80.36)" fill="#ffcb83"/>
          <path id="Trazado_229980" data-name="Trazado 229980" d="M128.02,171.943a39.373,39.373,0,1,1,1.372-55.667,39.373,39.373,0,0,1-1.372,55.667Zm-53.3-55.991a37.926,37.926,0,1,0,53.646,1.322,37.926,37.926,0,0,0-53.646-1.322Z" transform="translate(-49.551 -92.113)" fill="#e6a748"/>
          <path id="Trazado_229981" data-name="Trazado 229981" d="M93.621,126.643a6.974,6.974,0,0,0-6.238-1.073,4.99,4.99,0,0,0,.512.736c2.42,2.5,4.878,5.1,7.286,7.685a1.148,1.148,0,0,0,1.609.262,48.384,48.384,0,0,1,4.99-2.108c5.963-2.121,10.866,0,14.434,4.766,4.279,5.7,4.279,11.328.287,17.279a1.6,1.6,0,0,0,.287,2.5,21.494,21.494,0,0,1,1.871,1.946l-3.244,3.181-2.832-2.969c-8.3,5.7-15.4,2.582-19.362-.986l5.29-6.238a10.941,10.941,0,0,0,8.733,1.609l-3.743-3.88c-1.6-1.672-3.219-3.319-4.778-4.99a1.322,1.322,0,0,0-1.821-.374,17.466,17.466,0,0,1-7.984,2.034c-5.764-.1-9.694-3.231-12.189-8.034C74.4,133.5,75.207,129,78.139,124.909c.187-.274.4-.536.586-.811a1.509,1.509,0,0,0,.212-.437l-2.358-2.5,3.319-3.281c.561.6,1.173,1.16,1.684,1.8s1.011.624,1.7.162a12.376,12.376,0,0,1,9.981-2.158,13.15,13.15,0,0,1,5.377,2.645C97.015,122.438,95.368,124.5,93.621,126.643Zm8.733,14.622,8.446,8.883a6.238,6.238,0,0,0-.15-7.922C108.7,139.867,105.536,139.443,102.354,141.264ZM83.928,128.789a5.988,5.988,0,0,0,.9,6.862,5.789,5.789,0,0,0,6.562.986Z" transform="translate(-46.116 -88.806)" fill="#fff9ff" opacity="0.5"/>
        </g>
        <path id="Trazado_229982" data-name="Trazado 229982" d="M58.59,122.506a46.772,46.772,0,0,0,58.075,60.944A53.646,53.646,0,0,0,58.59,122.506Z" transform="translate(10.431 17.011)" fill="#f4a640" opacity="0.5"/>
        <g id="Grupo_63459" data-name="Grupo 63459" transform="translate(0 140.285)">
          <circle id="Elipse_4419" data-name="Elipse 4419" cx="57.675" cy="57.675" r="57.675" transform="translate(0 113.936) rotate(-81.02)" fill="#e6a748"/>
          <circle id="Elipse_4420" data-name="Elipse 4420" cx="51.874" cy="51.874" r="51.874" transform="matrix(0.172, -0.985, 0.985, 0.172, 5.962, 108.166)" fill="#ffcb83"/>
          <path id="Trazado_229983" data-name="Trazado 229983" d="M71.03,233.808a48.568,48.568,0,1,1,42.418-54.045A48.568,48.568,0,0,1,71.03,233.808ZM59.577,139.155a46.784,46.784,0,1,0,52.061,40.821,46.784,46.784,0,0,0-52.061-40.821Z" transform="translate(0.785 -119.625)" fill="#e6a748"/>
          <path id="Trazado_229984" data-name="Trazado 229984" d="M65.539,166.714c-1.06-2.607-2.5-4.691-5.34-5.614a8.733,8.733,0,0,0,0,1.1c.512,4.317,1.073,8.646,1.547,12.975.112.948.474,1.248,1.41,1.435a64.455,64.455,0,0,1,6.475,1.584c7.485,2.308,10.717,8.047,10.754,15.358,0,8.733-4.1,14.36-12.476,17.291-1.522.536-1.9,1.248-1.584,2.707a32.051,32.051,0,0,1,.424,3.319l-5.577.674c-.212-1.7-.412-3.368-.611-4.99-12.476-.487-17.129-8.8-18.427-15.245L51.99,195a13.5,13.5,0,0,0,7.386,7.972c-.287-2.408-.536-4.479-.786-6.55-.349-2.832-.736-5.664-1.011-8.508a1.609,1.609,0,0,0-1.535-1.709,21.745,21.745,0,0,1-9.394-3.88c-5.627-4.342-7.211-10.342-6.138-16.93,1-6.151,5.1-9.981,11.029-11.889l1.248-.387c.137,0,.274-.137.536-.262-.162-1.335-.324-2.707-.512-4.192l5.6-.661c.125,1,.312,2.009.349,3.019s.536,1.36,1.547,1.41a15.3,15.3,0,0,1,11.54,5.252,16.131,16.131,0,0,1,3.368,6.587Zm-2.208,20.859c.611,5.09,1.248,9.981,1.809,14.971a7.71,7.71,0,0,0,5.689-7.96c-.125-3.655-2.957-6.413-7.5-6.986Zm-9.082-25.85c-3.032,1.7-4.666,4.728-4.167,7.485a7.161,7.161,0,0,0,5.776,5.814C55.321,170.643,54.8,166.289,54.248,161.723Z" transform="translate(6.614 -116.905)" fill="#fff9ff" opacity="0.5"/>
        </g>
        <path id="Trazado_229985" data-name="Trazado 229985" d="M145.319,75.612a9.145,9.145,0,0,0-8.908-7.1,9.357,9.357,0,0,0-2.308.3,13.449,13.449,0,0,0-12.2-7.76,13.636,13.636,0,0,0-4,.6,16.593,16.593,0,0,0-29.8,2.907,11.228,11.228,0,0,0-5.539-1.435A11.378,11.378,0,0,0,71.163,74.5a10.841,10.841,0,0,0,0,1.11Z" transform="translate(14.276 0.015)" fill="#fff" opacity="0.8"/>
        <path id="Trazado_229986" data-name="Trazado 229986" d="M268.861,136.92a8.733,8.733,0,0,0-8.446-6.712,9.019,9.019,0,0,0-2.183.274,12.763,12.763,0,0,0-15.345-6.774,15.719,15.719,0,0,0-28.233,2.745,10.792,10.792,0,0,0-16.031,9.482,9.456,9.456,0,0,0,0,1.048Z" transform="translate(45.832 15.484)" fill="#fff" opacity="0.8"/>
        <path id="Trazado_229987" data-name="Trazado 229987" d="M277.825,64.356a10.292,10.292,0,0,0-9.981-7.972,10.592,10.592,0,0,0-2.607.324,15.108,15.108,0,0,0-13.723-8.733,15.308,15.308,0,0,0-4.5.674,18.714,18.714,0,0,0-33.535,3.281A12.788,12.788,0,0,0,194.45,63.158a8.277,8.277,0,0,0,.062,1.248Z" transform="translate(44.802 -3.437)" fill="#fff" opacity="0.8"/>
        <rect id="Rectángulo_7429" data-name="Rectángulo 7429" width="160.413" height="123.485" transform="translate(98.775 198.726)" fill="#064c91"/>
        <path id="Trazado_229988" data-name="Trazado 229988" d="M92.631,273.573H92.22V198.606h.412a4.741,4.741,0,1,0,0-9.482H92.22V189H70.262v.087h-.412a4.741,4.741,0,0,0,0,9.482h.412v74.967h-.412a4.741,4.741,0,0,0-4.741,4.741h0a4.741,4.741,0,0,0,4.741,4.741h.412v2.345H92.22v-2.345h.412a4.741,4.741,0,0,0,4.741-4.741h0a4.741,4.741,0,0,0-4.741-4.7Z" transform="translate(12.781 33.53)" fill="#2880bc"/>
        <path id="Trazado_229989" data-name="Trazado 229989" d="M81.2,285.393V189.117l-10.979-.087v.087h-.412a4.741,4.741,0,0,0,0,9.482h.412v74.967h-.412a4.741,4.741,0,0,0-4.741,4.741h0a4.741,4.741,0,0,0,4.741,4.741h.412v2.345Z" transform="translate(12.771 33.537)" fill="#65cefe"/>
        <path id="Trazado_229990" data-name="Trazado 229990" d="M125.734,273.573h-.412V198.606h.412a4.741,4.741,0,1,0,0-9.482h-.412V189H103.377v.087h-.437a4.741,4.741,0,0,0,0,9.482h.412v74.967h-.412a4.741,4.741,0,0,0-4.741,4.741h0a4.741,4.741,0,0,0,4.741,4.741h.412v2.345H125.3v-2.345h.412a4.741,4.741,0,0,0,4.741-4.741h0A4.741,4.741,0,0,0,125.734,273.573Z" transform="translate(20.973 33.53)" fill="#2880bc"/>
        <path id="Trazado_229991" data-name="Trazado 229991" d="M114.344,285.393V189.117l-10.966-.087v.087h-.437a4.741,4.741,0,0,0,0,9.482h.412v74.967h-.412a4.741,4.741,0,0,0-4.741,4.741h0a4.741,4.741,0,0,0,4.741,4.741h.412v2.345Z" transform="translate(20.973 33.537)" fill="#65cefe"/>
        <g id="Grupo_63460" data-name="Grupo 63460" transform="translate(196.323 222.53)">
          <path id="Trazado_229992" data-name="Trazado 229992" d="M187.549,273.573h-.4V198.606h.4a4.741,4.741,0,1,0,0-9.482h-.4V189H165.192v.087h-.412a4.741,4.741,0,0,0,0,9.482h.412v74.967h-.412a4.741,4.741,0,0,0-4.741,4.741h0a4.741,4.741,0,0,0,4.741,4.741h.412v2.345H187.15v-2.345h.4a4.741,4.741,0,0,0,4.741-4.741h0a4.741,4.741,0,0,0-4.741-4.7Z" transform="translate(-160.04 -189)" fill="#2880bc"/>
          <path id="Trazado_229993" data-name="Trazado 229993" d="M176.2,285.393V189.117l-10.979-.087v.087h-.412a4.741,4.741,0,0,0,0,9.482h.412v74.967h-.412a4.741,4.741,0,0,0-4.741,4.741h0a4.741,4.741,0,0,0,4.741,4.741h.412v2.345Z" transform="translate(-160.033 -188.993)" fill="#65cefe"/>
          <path id="Trazado_229994" data-name="Trazado 229994" d="M220.647,273.573h-.412V198.606h.412a4.741,4.741,0,1,0,0-9.482h-.412V189H198.29v.087h-.349a4.741,4.741,0,0,0,0,9.482h.412v74.967h-.412a4.741,4.741,0,0,0-4.741,4.741h0a4.741,4.741,0,0,0,4.741,4.741h.412v2.345H220.3v-2.345h.412a4.741,4.741,0,0,0,4.741-4.741h0a4.741,4.741,0,0,0-4.8-4.7Z" transform="translate(-151.83 -189)" fill="#2880bc"/>
          <path id="Trazado_229995" data-name="Trazado 229995" d="M209.256,285.393V189.117l-10.966-.087v.087h-.349a4.741,4.741,0,0,0,0,9.482h.412v74.967h-.412a4.741,4.741,0,0,0-4.741,4.741h0a4.741,4.741,0,0,0,4.741,4.741h.412v2.345Z" transform="translate(-151.83 -188.993)" fill="#65cefe"/>
        </g>
        <path id="Trazado_229996" data-name="Trazado 229996" d="M62.867,263.19H269.215a17.167,17.167,0,0,1,17.167,17.167v1.971H45.7v-1.971A17.167,17.167,0,0,1,62.867,263.19Z" transform="translate(7.976 51.897)" fill="#2880bc"/>
        <rect id="Rectángulo_7430" data-name="Rectángulo 7430" width="254.019" height="13.698" rx="4.92" transform="translate(47.014 324.656)" fill="#064c91"/>
        <rect id="Rectángulo_7431" data-name="Rectángulo 7431" width="269.339" height="13.698" rx="4.92" transform="translate(39.354 334.225)" fill="#65cefe"/>
        <path id="Trazado_229997" data-name="Trazado 229997" d="M50.72,181.13H278.415v1.248a10.642,10.642,0,0,1-10.642,10.642H61.362A10.642,10.642,0,0,1,50.72,182.378Z" transform="translate(9.219 31.581)" fill="#65cefe"/>
        <path id="Trazado_229998" data-name="Trazado 229998" d="M283.1,176.64,165.321,122.67,47.65,176.64Z" transform="translate(8.458 17.108)" fill="#65cefe"/>
        <path id="Trazado_229999" data-name="Trazado 229999" d="M260.6,175.309l-98.883-45.4-99.045,45.4,98.97-.462Z" transform="translate(12.177 18.901)" fill="#064c91"/>
        <path id="Trazado_230000" data-name="Trazado 230000" d="M245.423,178.3,158.629,138.33,75.8,178.29l-1.073-2.221,83.887-40.459,87.842,40.446Z" transform="translate(15.163 20.312)" fill="#65cefe"/>
        <path id="Trazado_230001" data-name="Trazado 230001" d="M41.3,165.93H294.97a4.591,4.591,0,0,1,4.591,4.591v1.971a12.576,12.576,0,0,1-12.576,12.576H49.3A12.576,12.576,0,0,1,36.71,172.5v-1.984A4.591,4.591,0,0,1,41.3,165.93Z" transform="translate(5.75 27.818)" fill="#2880bc"/>
        <path id="Trazado_230002" data-name="Trazado 230002" d="M143.432,225.86h2.745a11.889,11.889,0,0,1,11.889,11.889v34.67H131.53v-34.67a11.889,11.889,0,0,1,11.9-11.889Z" transform="translate(29.225 42.655)" fill="#74aaa6" opacity="0.5"/>
        <g id="Grupo_63462" data-name="Grupo 63462" transform="translate(226.262 187.219)">
          <path id="Trazado_230003" data-name="Trazado 230003" d="M204.908,223.316l1.6-4.99s-6.113-2.5-6.912-5.34c-.474-1.634,3.568-10.5,3.568-10.5l-3.069-.611s-6.637,10.093-4.3,14.11,8.371,7.6,8.371,7.6Z" transform="translate(-181.252 -150.503)" fill="#ffc0bb"/>
          <rect id="Rectángulo_7432" data-name="Rectángulo 7432" width="2.52" height="6.113" transform="translate(32.767 66.156) rotate(-7.55)" fill="#ffc0bb"/>
          <path id="Trazado_230004" data-name="Trazado 230004" d="M217.128,209.594a.923.923,0,0,0-.836.137,4.481,4.481,0,0,0-8.883,1.185.961.961,0,0,0-.848.075,1.272,1.272,0,1,0,1.422,2.108.461.461,0,0,0,.162-.15,4.042,4.042,0,0,0,7.96-1.048l.212.1a1.173,1.173,0,0,0,1.372-.886A1.148,1.148,0,0,0,217.128,209.594Z" transform="translate(-178.6 -149.519)" fill="#ffc0bb"/>
          <path id="Trazado_230005" data-name="Trazado 230005" d="M210.027,210.321a.374.374,0,1,1-.437-.3A.374.374,0,0,1,210.027,210.321Z" transform="translate(-177.787 -148.486)" fill="#333"/>
          <path id="Trazado_230006" data-name="Trazado 230006" d="M212.619,209.99a.387.387,0,1,1-.432-.244.387.387,0,0,1,.432.244Z" transform="translate(-177.147 -148.554)" fill="#333"/>
          <path id="Trazado_230007" data-name="Trazado 230007" d="M210.524,209.689l-.561-.075a1.785,1.785,0,0,0-.524,0,1.385,1.385,0,0,0-.487.2h-.062l-.112.075a1.66,1.66,0,0,1-.237.175,2.643,2.643,0,0,1,.137-.262,1.493,1.493,0,0,1,.761-.524,1.322,1.322,0,0,1,.624,0A1.135,1.135,0,0,1,210.524,209.689Z" transform="translate(-177.972 -148.678)" fill="#031322"/>
          <path id="Trazado_230008" data-name="Trazado 230008" d="M211.34,209.559a1.1,1.1,0,0,1,.437-.424,1.385,1.385,0,0,1,.586-.175,1.248,1.248,0,0,1,.611.137,1.147,1.147,0,0,1,.262.162l.212.212-.274-.1h-.212a1.883,1.883,0,0,0-.524,0,1.947,1.947,0,0,0-.512.1A2.37,2.37,0,0,0,211.34,209.559Z" transform="translate(-177.278 -148.747)" fill="#031322"/>
          <path id="Trazado_230009" data-name="Trazado 230009" d="M216.085,205.433c-.911-1.46-4.192-2.246-6.151-1.709a1.872,1.872,0,0,0,.262.761c-.237-.225-1.135-.911-3.082-.175,0,0,.362.624.536.848a3.393,3.393,0,0,1-1.248-.112,2.5,2.5,0,0,0,.137,2.133l-.711-.187s.524,2.333,1,3.743h0c.087.437.162.711.162.711a1.248,1.248,0,0,1,1.023.349l.1-.062c.424-.287.25-2.32.848-3.219a10.243,10.243,0,0,1,4.841-.948c1.16.212,1.559,2.932,2.108,3.131h.125a1.036,1.036,0,0,1,.9-.611S217.008,206.892,216.085,205.433Z" transform="translate(-178.643 -150.086)" fill="#031322"/>
          <path id="Trazado_230010" data-name="Trazado 230010" d="M210.73,209.25a4.88,4.88,0,0,1,.424.611,5.364,5.364,0,0,1,.349.649,1.533,1.533,0,0,1,.112.362.237.237,0,0,1,0,.1h0v.062h-.075a2.819,2.819,0,0,1-.324.2l-.337.137a7.068,7.068,0,0,0,.586-.424v-.062h0a.275.275,0,0,0,0-.137,1.781,1.781,0,0,0-.112-.337l-.312-.649A1.583,1.583,0,0,1,210.73,209.25Z" transform="translate(-177.429 -148.675)" fill="#f99893"/>
          <path id="Trazado_230011" data-name="Trazado 230011" d="M212.421,211.68a1.1,1.1,0,0,1-.973.811,1.048,1.048,0,0,1-1.148-.512Z" transform="translate(-177.536 -148.074)" fill="#fff"/>
          <path id="Trazado_230012" data-name="Trazado 230012" d="M209,215.163l6.151-.823-1.31,2.969a25.265,25.265,0,0,1-3.007.4A19.083,19.083,0,0,1,209,215.163Z" transform="translate(-177.858 -147.415)" fill="#ffc0bb"/>
          <path id="Trazado_230013" data-name="Trazado 230013" d="M208.233,231.4s-2.72,24.265-2.221,32.724l4.8.574,4.99-28.07h.636l3.219,28.233h4.366s.724-28.183-1.634-36.18S208.233,231.4,208.233,231.4Z" transform="translate(-178.613 -144.599)" fill="#063e70"/>
          <path id="Trazado_230014" data-name="Trazado 230014" d="M209.838,258.183l-.1,3.518-2.333,1.7a11.426,11.426,0,0,1-1.085-1.7c0-.212.225-4.441.225-4.441Z" transform="translate(-178.521 -136.789)" fill="#ffc0bb"/>
          <path id="Trazado_230015" data-name="Trazado 230015" d="M217.56,258.183l.1,3.518,2.333,1.7a10.5,10.5,0,0,0,1.085-1.7c0-.212-.212-4.441-.212-4.441Z" transform="translate(-175.738 -136.789)" fill="#ffc0bb"/>
          <path id="Trazado_230016" data-name="Trazado 230016" d="M205.909,256.252l5.053.6a.25.25,0,0,1,.212.287l-.349,1.784a.249.249,0,0,1-.274.2l-4.728-.661a.237.237,0,0,1-.212-.237v-1.734a.237.237,0,0,1,.3-.237Z" transform="translate(-178.697 -137.041)" fill="#064c91"/>
          <path id="Trazado_230017" data-name="Trazado 230017" d="M220.925,220.95l-2.5-4.7s5.577-3.531,5.889-6.437c.187-1.7-4.629-9.245-4.629-9.245l2.32-1.485s8.172,8.658,6.575,13.025-6.936,8.92-6.936,8.92Z" transform="translate(-175.523 -151.193)" fill="#ffc0bb"/>
          <path id="Trazado_230018" data-name="Trazado 230018" d="M221.8,256.361l-5.053.6a.237.237,0,0,0-.212.287l.337,1.784a.237.237,0,0,0,.274.187l4.741-.649a.237.237,0,0,0,.2-.237V256.6a.237.237,0,0,0-.287-.237Z" transform="translate(-175.995 -137.013)" fill="#064c91"/>
          <path id="Trazado_230019" data-name="Trazado 230019" d="M227.163,218.34l-3.643-6.5a54.807,54.807,0,0,1-5.4,2.72,4.99,4.99,0,0,0-1.5.624h0a6.438,6.438,0,0,1-5.215.686h0a4.99,4.99,0,0,0-1.609-.225,63.963,63.963,0,0,1-6.849-1.16l-1.447,6.862a45.512,45.512,0,0,0,6.525.674l.749,14.8h0a36.18,36.18,0,0,0,15.819-2.071h.125l-3.032-14.035a54.35,54.35,0,0,0,5.477-2.37Z" transform="translate(-179.714 -148.034)" fill="#e74a60"/>
          <g id="Grupo_63461" data-name="Grupo 63461">
            <circle id="Elipse_4421" data-name="Elipse 4421" cx="22.905" cy="22.905" r="22.905" transform="translate(0 20.776) rotate(-26.97)" fill="#e6a748"/>
            <path id="Trazado_230020" data-name="Trazado 230020" d="M233.265,186.983a20.6,20.6,0,1,1-22.918-17.953A20.6,20.6,0,0,1,233.265,186.983Z" transform="translate(-182.012 -158.671)" fill="#ffcb83"/>
            <path id="Trazado_230021" data-name="Trazado 230021" d="M214.878,208.348a19.288,19.288,0,1,1,16.83-21.458A19.288,19.288,0,0,1,214.878,208.348Zm-4.554-37.589A18.576,18.576,0,1,0,231,186.977,18.576,18.576,0,0,0,210.324,170.758Z" transform="translate(-181.752 -158.415)" fill="#e6a748"/>
            <path id="Trazado_230022" data-name="Trazado 230022" d="M212.724,181.718a3.406,3.406,0,0,0-2.121-2.233,2.869,2.869,0,0,0,0,.437c.212,1.722.437,3.431.624,5.152,0,.374.187.5.549.574a22.055,22.055,0,0,1,2.57.624,5.864,5.864,0,0,1,4.279,6.1,6.637,6.637,0,0,1-4.99,6.862c-.611.212-.749.5-.624,1.073a9.5,9.5,0,0,1,.162,1.322l-2.221.274c-.075-.674-.162-1.347-.237-2a7.236,7.236,0,0,1-7.311-6.063l3.9-.911a5.4,5.4,0,0,0,2.932,3.169c-.112-.961-.212-1.784-.312-2.607-.137-1.123-.287-2.246-.4-3.368a.649.649,0,0,0-.611-.686,8.733,8.733,0,0,1-3.743-1.535,6.612,6.612,0,0,1-2.5-6.724,5.864,5.864,0,0,1,4.379-4.728l.474-.15.212-.1c0-.536-.137-1.073-.2-1.672l2.246-.262c0,.387.125.786.137,1.248s.212.536.611.549a6.076,6.076,0,0,1,4.579,2.1,6.412,6.412,0,0,1,1.347,2.607ZM211.838,190c.25,2.021.487,3.98.724,5.951a3.057,3.057,0,0,0,2.258-3.156A3.019,3.019,0,0,0,211.851,190Zm-3.605-10.28a2.957,2.957,0,0,0-1.647,2.957A2.845,2.845,0,0,0,208.869,185c-.212-1.734-.412-3.468-.636-5.277Z" transform="translate(-179.461 -157.336)" fill="#fff9ff" opacity="0.5"/>
          </g>
          <path id="Trazado_230023" data-name="Trazado 230023" d="M199.846,201.578a1.385,1.385,0,0,1-.225-1.372c.312-.774-.237-.561-.412-.237a1.809,1.809,0,0,0,.362,2.795,2.3,2.3,0,0,0,2.745.212Z" transform="translate(-180.406 -151.046)" fill="#ffc0bb"/>
          <path id="Trazado_230024" data-name="Trazado 230024" d="M221.663,199.2a1.4,1.4,0,0,0,0-1.4c-.449-.7.125-.586.362-.3a1.8,1.8,0,0,1,.125,2.807,2.283,2.283,0,0,1-2.67.686Z" transform="translate(-175.263 -151.639)" fill="#ffc0bb"/>
        </g>
        <path id="Trazado_230025" data-name="Trazado 230025" d="M73.5,224.857c-1.772,0-4.791-1.173-8.072.961a5.1,5.1,0,0,0-1.9,2.62,17.055,17.055,0,0,0-.7,2.857c-.324,1.884-4.828,1.4-6.375,4.691-2,4.279,1.535,8.147,4.1,11.1,5.577,6.425,12.775,4.728,14.547,5.577,1.248.611.337-1.971,1.747-1.884s3.044.062,3.83-1.085a12.2,12.2,0,0,0,.811-2.233,5.988,5.988,0,0,1,2.333-2.333,27.207,27.207,0,0,1,3.593-2.208c1.347-.636,8.9-1.41,6.637-11.141a12.476,12.476,0,0,0-5.414-7.623,9.107,9.107,0,0,0-5.514-1.647C77.84,222.374,78.214,224.857,73.5,224.857Z" transform="translate(10.493 41.825)" fill="#e74a60"/>
        <path id="Trazado_230026" data-name="Trazado 230026" d="M80.53,235.3s4.03,1.6,5.6,9.981a4.5,4.5,0,0,1-3.269,1.522c-2.258.15-1.572-5.365-1.572-5.365Z" transform="translate(16.599 44.992)" fill="#65cefe"/>
        <path id="Trazado_230027" data-name="Trazado 230027" d="M76.71,233.3l.15,2.433,3.306.686h.574l-.112-2.907-3.506-1.235Z" transform="translate(15.653 44.245)" fill="#ffc0bb"/>
        <path id="Trazado_230028" data-name="Trazado 230028" d="M81.954,236.569c.15,1.634-.524,1.934-.524,1.934l-4.99-3.743c3.094.3,5.1.624,5.1.624S81.792,236.619,81.954,236.569Z" transform="translate(15.586 44.859)" fill="#ffc0bb"/>
        <path id="Trazado_230029" data-name="Trazado 230029" d="M74.272,230.249s-1.023-4.167,1.41-5.739a6.625,6.625,0,0,1,6.737-.449,5.589,5.589,0,0,1,2.021,6.076l-5.814-1.784Z" transform="translate(14.997 42.034)" fill="#e74a60"/>
        <path id="Trazado_230030" data-name="Trazado 230030" d="M82.006,288.408l-.986-3.331,3.194-.337.2.225.449,3.543-1.422.986Z" transform="translate(16.72 57.233)" fill="#ffc0bb"/>
        <path id="Trazado_230031" data-name="Trazado 230031" d="M65.77,284.967l1.659-3.057,2.508,2.021-.025.287-2.47,3.156-1.422-.636Z" transform="translate(12.944 56.532)" fill="#ffc0bb"/>
        <path id="Trazado_230032" data-name="Trazado 230032" d="M75.91,251.889l2.4,20.972s2.271,17.94,4.1,21.92h4.067L85.591,254.7l-7.174-4.516Z" transform="translate(15.455 48.676)" fill="#d4902b"/>
        <path id="Trazado_230033" data-name="Trazado 230033" d="M76.65,232.6s.075.7.137,1.572a4.117,4.117,0,0,0,3.917.773v-1.335Z" transform="translate(15.638 44.324)" fill="#f99893"/>
        <path id="Trazado_230034" data-name="Trazado 230034" d="M76.412,249.93a22.057,22.057,0,0,0-3.468,15.2,79.844,79.844,0,0,1,.836,12.688,28.769,28.769,0,0,0-7.66,13.162,14.733,14.733,0,0,0,4.317,2.1s8.608-13.112,9.257-14.721,4.753-26.012,4.753-26.012Z" transform="translate(13.031 48.614)" fill="#e6a748"/>
        <path id="Trazado_230035" data-name="Trazado 230035" d="M81.8,229.532a.886.886,0,1,0,.665-.742A.886.886,0,0,0,81.8,229.532Z" transform="translate(16.878 43.374)" fill="#f99893"/>
        <path id="Trazado_230036" data-name="Trazado 230036" d="M83.736,233.713a4.218,4.218,0,0,0,.324-.773,8.571,8.571,0,0,0,.387-2.146v-.424a4.778,4.778,0,0,0-.1-1.772,4.628,4.628,0,0,0-9.12,1.248.961.961,0,0,0-.9,0,1.4,1.4,0,0,0,1.248,2.5,1.134,1.134,0,0,0,.2-.137,4.342,4.342,0,0,0,4.454,3.83A4.179,4.179,0,0,0,83,234.786l.162-.15a4.5,4.5,0,0,0,.574-.923Z" transform="translate(14.89 42.462)" fill="#ffc0bb"/>
        <path id="Trazado_230037" data-name="Trazado 230037" d="M78.562,229.524a.424.424,0,0,1-.412.449.472.472,0,1,1,.412-.412Z" transform="translate(15.897 43.445)" fill="#333"/>
        <path id="Trazado_230038" data-name="Trazado 230038" d="M81.663,229.514a.437.437,0,1,1-.284-.4A.437.437,0,0,1,81.663,229.514Z" transform="translate(16.663 43.455)" fill="#333"/>
        <path id="Trazado_230039" data-name="Trazado 230039" d="M79.17,228.95a3.034,3.034,0,0,0-.611-.225,1.833,1.833,0,0,0-.636,0,1.249,1.249,0,0,0-.312,0h-.3a5.257,5.257,0,0,0-.561.349,1.722,1.722,0,0,1,.5-.449,1.436,1.436,0,0,1,.312-.15,1.583,1.583,0,0,1,.349-.075,1.759,1.759,0,0,1,.674.087,1.434,1.434,0,0,1,.312.15Z" transform="translate(15.663 43.283)" fill="#e74a60"/>
        <path id="Trazado_230040" data-name="Trazado 230040" d="M80.09,228.927l.274-.2a1.436,1.436,0,0,1,.312-.15,1.759,1.759,0,0,1,.674-.087,1.585,1.585,0,0,1,.349.075,1.771,1.771,0,0,1,.312.15,1.9,1.9,0,0,1,.5.449,5.25,5.25,0,0,0-.561-.349h-.3a1.246,1.246,0,0,0-.312,0,1.833,1.833,0,0,0-.636,0,3.035,3.035,0,0,0-.611.112Z" transform="translate(16.49 43.306)" fill="#e74a60"/>
        <path id="Trazado_230041" data-name="Trazado 230041" d="M72.132,240.879a2.006,2.006,0,0,0,.3-.349,4.3,4.3,0,0,0,.25-.4,3.506,3.506,0,0,0,.362-.861,2.033,2.033,0,0,1-.1.462,1.587,1.587,0,0,1-.075.225l-.1.225a3.622,3.622,0,0,1-.25.412l-.237.3h.25a1.535,1.535,0,0,0,.337,0h.337a1.485,1.485,0,0,0,.312-.162,1.486,1.486,0,0,1-.287.2,1.635,1.635,0,0,1-.349.112,1.148,1.148,0,0,1-.362,0H72.07Z" transform="translate(14.504 45.975)" fill="#fff"/>
        <path id="Trazado_230042" data-name="Trazado 230042" d="M79.715,229.26a5.917,5.917,0,0,1,.324.624,5.8,5.8,0,0,1,.249.649,3.114,3.114,0,0,1,0,.362v.087a.112.112,0,0,0,0,.062H80.2a1.771,1.771,0,0,1-.312.15l-.349.087a3.889,3.889,0,0,0,.6-.324h.075a.424.424,0,0,0,0-.137c0-.1,0-.212,0-.324a4.2,4.2,0,0,0-.212-.649Z" transform="translate(16.354 43.497)" fill="#f99893"/>
        <path id="Trazado_230043" data-name="Trazado 230043" d="M72.975,248.9h0c-.6-3.294-.848-6.837-.848-6.837a20.856,20.856,0,0,1,0-2.183l1.984-1.622,1.971-3.356h0l1.085-.075a5.114,5.114,0,0,1,.873,0l4.616.574h0a10.455,10.455,0,0,1,3.867,7.049,35.83,35.83,0,0,1,.075,5.889h0s.836,10.729,1.248,12.476c0,0-9.981,1.248-15.956.175A96.635,96.635,0,0,0,72.975,248.9Z" transform="translate(14.46 44.87)" fill="#c9edf9"/>
        <path id="Trazado_230044" data-name="Trazado 230044" d="M74.53,229.391h.112l.075-.9.462-.873,1.647-2.308s1.248-.773,1.335-.811,1.772.237,1.772.237,2.982-.636,2.5,1.023a4.254,4.254,0,0,1-2.795,2.5,2.957,2.957,0,0,0,.387-1.435,14.722,14.722,0,0,1-4.841,3.194.936.936,0,0,0-.9,0Z" transform="translate(15.051 42.318)" fill="#e74a60"/>
        <path id="Trazado_230045" data-name="Trazado 230045" d="M80.933,231.57a1.248,1.248,0,0,1-2.383,0Z" transform="translate(16.108 44.069)" fill="#fff"/>
        <g id="Grupo_63463" data-name="Grupo 63463" transform="translate(94.995 282.563)">
          <path id="Trazado_230046" data-name="Trazado 230046" d="M79.045,251.319l.075-.362A11.889,11.889,0,0,1,90.21,241.75l4.8.811a11.877,11.877,0,0,1,7.485,12.314c0,.125,0,.25,0,.362-1.06,7.847-8.384,7.485-13.149,6.687S77.46,259.079,79.045,251.319Z" transform="translate(-78.819 -235.973)" fill="#ffcb83"/>
          <path id="Trazado_230047" data-name="Trazado 230047" d="M84.925,249.756a4.653,4.653,0,1,0,5.365-3.743A4.653,4.653,0,0,0,84.925,249.756Z" transform="translate(-77.327 -234.934)" fill="#e6a748"/>
          <path id="Trazado_230048" data-name="Trazado 230048" d="M85.829,256.586c4.766.8,11.827,1.123,13.149-6.675a11.528,11.528,0,0,0-.674-5.9,11.789,11.789,0,0,1,4.129,10.3c0,.125,0,.25,0,.362-1.06,7.847-8.384,7.485-13.149,6.687-3.955-.674-9.457-2.183-10.355-7.1a19.462,19.462,0,0,0,6.9,2.32Z" transform="translate(-78.792 -235.414)" fill="#e6a748" opacity="0.3"/>
          <path id="Trazado_230049" data-name="Trazado 230049" d="M89.848,249.289a.686.686,0,0,0-.187-.611v.087l-.337,1.011v.15l.424.349a1.248,1.248,0,0,1,.262,1.522,1.385,1.385,0,0,1-1.535.836c-.137,0-.187,0-.212.15a1.588,1.588,0,0,1-.087.262l-.437-.15a1.638,1.638,0,0,1,.125-.4,1.5,1.5,0,0,1-.823-1.772l.811.175a1.1,1.1,0,0,0,.274.848l.162-.512.225-.661a.125.125,0,0,0,0-.187,1.884,1.884,0,0,1-.561-.611,1.372,1.372,0,0,1,.15-1.472,1.248,1.248,0,0,1,1.248-.5h.1l.112-.324.437.15-.075.237v.162a1.248,1.248,0,0,1,.674.786,1.435,1.435,0,0,1,0,.611Zm-.9,1.46c-.125.4-.262.786-.387,1.173a.636.636,0,0,0,.7-.387.611.611,0,0,0-.312-.786Zm.25-2.233a.611.611,0,0,0-.574.4.574.574,0,0,0,.225.636Z" transform="translate(-76.798 -234.555)" fill="#ffcb83"/>
          <path id="Trazado_230050" data-name="Trazado 230050" d="M94.92,241.886a4.454,4.454,0,0,0,1.36-2.2.512.512,0,0,0,0-.337.524.524,0,0,0-.337-.225,2.5,2.5,0,0,0-1.248,0,1.073,1.073,0,0,1-.524,0c-.374-.125-.4-.624-.524-1a1.347,1.347,0,0,0-.8-.848.836.836,0,0,0-.462,0c-.449.087-.736.649-1.248.611s-.474-.262-.674-.462a.7.7,0,0,0-.736-.262c-.212.112-.274.412-.474.561s-.711,0-1.011-.225-.649-.487-1-.349a.724.724,0,0,0-.387.711,2.42,2.42,0,0,0,.25.823,17.218,17.218,0,0,1,.786,3.9,2.57,2.57,0,0,0,.5,1.36,2.608,2.608,0,0,0,1.472.686l1.048.25c.9.212,1.248-.075,1.846-.7Z" transform="translate(-76.829 -237.12)" fill="#ffcb83"/>
          <path id="Trazado_230051" data-name="Trazado 230051" d="M87.772,242.079a30.191,30.191,0,0,1,5.527.9.362.362,0,0,0,.424-.262h0a.349.349,0,0,0-.262-.424,28.982,28.982,0,0,0-5.7-.911.362.362,0,0,0-.349.374h0a.349.349,0,0,0,.362.324Z" transform="translate(-76.693 -236.065)" fill="#e6a748"/>
        </g>
        <path id="Trazado_230052" data-name="Trazado 230052" d="M90.961,255.75c0-.162-1.36-1.173-1.248-1.248s1.584.836,1.7.624-1.572-1.148-1.422-1.248,1.859.873,1.934.661a13.077,13.077,0,0,0-2.42-1.709.112.112,0,0,1,0-.2c1.248-.6,1.322-.711,1.248-.836a19.646,19.646,0,0,0-2.5.15l-1.447.137c-.4-.087-12.476-2.944-13.149-3.743s1.123-5.165,1.123-5.165l-3.917-1.684s-1.8,7.149-.075,9.357c.936,1.185,15.956,3.306,15.956,3.306.237.187.873.624.873.624,2.632,1.659,2.333,1.534,2.408,1.447s-.8-1.073-.686-1.135S90.974,255.912,90.961,255.75Z" transform="translate(14.002 46.525)" fill="#ffc0bb"/>
        <path id="Trazado_230053" data-name="Trazado 230053" d="M76.686,234.88s-4.4,1.659-7.186,8.134c0,0,1.372,3.019,5.889,3.131Z" transform="translate(13.868 44.888)" fill="#c9edf9"/>
        <path id="Trazado_230054" data-name="Trazado 230054" d="M70.63,243.361a6.748,6.748,0,0,0,1.435.936,8.246,8.246,0,0,0,1.622.536c.287.075.574.1.848.15h.749q.212-.786.449-1.572c.175-.561.349-1.123.574-1.672a15.57,15.57,0,0,1,.736-1.609,5.065,5.065,0,0,1,1.048-1.41,5.339,5.339,0,0,0-.911,1.485,14.236,14.236,0,0,0-.661,1.622c-.175.549-.374,1.1-.536,1.659s-.312,1.123-.449,1.684v.125h-.125l-.886-.087a3.49,3.49,0,0,1-.861-.162,6.626,6.626,0,0,1-.848-.25,6.79,6.79,0,0,1-.823-.349,6.4,6.4,0,0,1-1.435-1.023,4.79,4.79,0,0,1-1.035-1.41A4.915,4.915,0,0,0,70.63,243.361Z" transform="translate(13.873 45.839)" fill="#fbf9eb"/>
        <path id="Trazado_230055" data-name="Trazado 230055" d="M126.963,285.847v1.959l-2.4,1.734a10.429,10.429,0,0,1-1.1-1.734V284.2s2.732,1.048,2.844,1.048S126.963,285.847,126.963,285.847Z" transform="translate(27.23 57.099)" fill="#ffc0bb"/>
        <path id="Trazado_230056" data-name="Trazado 230056" d="M117.606,287.724V285.3l-2.782-.773-.611.274-.112,2.919.873,2.545Z" transform="translate(24.91 57.181)" fill="#ffc0bb"/>
        <path id="Trazado_230057" data-name="Trazado 230057" d="M121.392,259.79,124.9,295.4a38.685,38.685,0,0,0,4.242-.324c.175-6.837.636-27.247.561-35.444-.075-9.981-3.057-11.365-3.057-11.365l-5.065-1.322-6.9,1.248C116.826,256.521,121.392,259.79,121.392,259.79Z" transform="translate(25.053 47.874)" fill="#063e70"/>
        <path id="Trazado_230058" data-name="Trazado 230058" d="M113.883,295.06c1.035.125,2.5.262,4.192.362l3.743-41.17.387-6.55s-5.652-2.72-7.485.512a18.552,18.552,0,0,0-1.809,8.034S113.022,286.577,113.883,295.06Z" transform="translate(24.615 47.798)" fill="#063e70"/>
        <path id="Trazado_230059" data-name="Trazado 230059" d="M114.835,238.3l-1.535,4.99a60.86,60.86,0,0,1-5.726-6.175,31.187,31.187,0,0,0-.786-3.93c-.162-.075-.274,0-.586,1.572a.137.137,0,0,1-.225,0,14.832,14.832,0,0,0-2.5-2.2c-.162.112,1.335,1.734,1.248,1.934s-1.572-1.385-1.772-1.248,1.248,1.584,1.135,1.684-1.535-1.1-1.722-1.073,1.248,1.522,1.248,1.672-1.36-.561-1.435-.449-.137.162,2.4,2.595l1.011.9c.661,1.035,7.211,11.228,8.733,10.542s4.1-7.011,4.1-7.011Z" transform="translate(21.954 44.313)" fill="#f7b5b2"/>
        <path id="Trazado_230060" data-name="Trazado 230060" d="M115.7,231.14s-1.011.3-2.5,2.558-2.782,8.521-2.782,8.521l4.691,3.194,3.057-7.56Z" transform="translate(23.999 43.963)" fill="#e6a748"/>
        <g id="Grupo_63464" data-name="Grupo 63464" transform="translate(139.91 258.966)">
          <path id="Trazado_230061" data-name="Trazado 230061" d="M121.554,228.464l.462,3.793-3.755-.125.1-4.342Z" transform="translate(-113.97 -215.833)" fill="#ffc0bb"/>
          <path id="Trazado_230062" data-name="Trazado 230062" d="M118.3,229.786v-2l3.231,1.035.1.749a5.751,5.751,0,0,1-3.331.212Z" transform="translate(-113.96 -215.833)" fill="#fc8d84" opacity="0.6"/>
          <path id="Trazado_230063" data-name="Trazado 230063" d="M115.91,222.714l.087,2.632.449.2.374-3.256Z" transform="translate(-114.552 -217.194)" fill="#031322"/>
          <path id="Trazado_230064" data-name="Trazado 230064" d="M117.015,224.606a1,1,0,0,1-.512,1.31,1.123,1.123,0,1,1,.512-1.31Z" transform="translate(-114.821 -216.816)" fill="#f99893"/>
          <path id="Trazado_230065" data-name="Trazado 230065" d="M116.621,228.766a3.83,3.83,0,0,1-.287-.8,8.585,8.585,0,0,1-.3-2.183v-.424a4.466,4.466,0,0,1,.175-1.8,4.691,4.691,0,0,1,9.157,1.722,1.011,1.011,0,0,1,.923,0,1.41,1.41,0,0,1-1.322,2.408,1.134,1.134,0,0,1-.2-.137,4.4,4.4,0,0,1-4.678,3.668,4.229,4.229,0,0,1-2.745-1.41l-.15-.162A4.356,4.356,0,0,1,116.621,228.766Z" transform="translate(-114.527 -217.694)" fill="#ffc0bb"/>
          <path id="Trazado_230066" data-name="Trazado 230066" d="M120.1,224.425a.424.424,0,0,0,.374.437.412.412,0,0,0,.449-.362.424.424,0,0,0-.374-.449.412.412,0,0,0-.449.374Z" transform="translate(-113.515 -216.759)" fill="#333"/>
          <path id="Trazado_230067" data-name="Trazado 230067" d="M117.28,224.335a.424.424,0,0,0,.374.449.413.413,0,1,0-.374-.449Z" transform="translate(-114.213 -216.781)" fill="#333"/>
          <path id="Trazado_230068" data-name="Trazado 230068" d="M119.787,223.761a4.069,4.069,0,0,1,.6-.137,2.208,2.208,0,0,1,.574,0,1.735,1.735,0,0,1,.549.162h.075l.125.075.274.162a2.04,2.04,0,0,0-.175-.274,2.018,2.018,0,0,0-.237-.225,1.247,1.247,0,0,0-.624-.249,1.372,1.372,0,0,0-1.248.424Z" transform="translate(-113.614 -216.956)" fill="#031322"/>
          <path id="Trazado_230069" data-name="Trazado 230069" d="M118.9,223.707a1.248,1.248,0,0,0-.512-.412,1.46,1.46,0,0,0-.661-.125,1.248,1.248,0,0,0-.636.2,1.448,1.448,0,0,0-.262.2,1.824,1.824,0,0,0-.2.262l.287-.137.137-.062h.075a1.8,1.8,0,0,1,.561-.112,1.723,1.723,0,0,1,.561,0A5.31,5.31,0,0,1,118.9,223.707Z" transform="translate(-114.374 -216.977)" fill="#031322"/>
          <path id="Trazado_230070" data-name="Trazado 230070" d="M115.979,220.581s-1.4-.1.187-1.123,5.676-2.009,8.059-.412c0,0,.611-1.023,1.31-.686s-.574.936-.574.936.936.075,1.173.561-.4.312-.711.262c.524.15,2.146,1.347.7,5.34a35.062,35.062,0,0,1-2.894-2.957s-4.192,1.959-3.531.674c0,0-4.99,1.884-3.98-.561C115.717,222.615,113.771,222.553,115.979,220.581Z" transform="translate(-114.796 -218.206)" fill="#031322"/>
          <path id="Trazado_230071" data-name="Trazado 230071" d="M119.123,223.59a3.019,3.019,0,0,1,0,.886,1.884,1.884,0,0,1-.075.449.948.948,0,0,1-.212.437h0a.337.337,0,0,0-.075.125.449.449,0,0,0,.062.324,1.248,1.248,0,0,0,.674.437.973.973,0,0,1-.848-.312.586.586,0,0,1-.137-.5.249.249,0,0,1,0-.137l.075-.112.1-.1h0a1.073,1.073,0,0,0,.175-.337,3.738,3.738,0,0,0,.112-.4A3.1,3.1,0,0,1,119.123,223.59Z" transform="translate(-113.91 -216.873)" fill="#f99893"/>
          <path id="Trazado_230072" data-name="Trazado 230072" d="M121.58,221.841a11.415,11.415,0,0,1,1.023,4.292s.886-1.248,2.009-1.1a9.519,9.519,0,0,0,.312-4.154l-2.607.15Z" transform="translate(-113.148 -217.543)" fill="#031322"/>
        </g>
        <path id="Trazado_230073" data-name="Trazado 230073" d="M127.247,230.873a9.083,9.083,0,0,0-3.069-1.073c-.661.561-2.682.536-3.743.574-1.684,0-1.884.137-2.5-.15-1.51.574-4.142,1.535-4.179,2.5-.749,19.961.786,19.749.786,19.749,2.1.923,10.979.412,12.4,0s2.5-9.981,2.5-9.981l4.3,4.067a53.427,53.427,0,0,1,4.828-3.743S131.664,233.48,127.247,230.873Z" transform="translate(24.775 43.631)" fill="#ffcb83"/>
        <path id="Trazado_230074" data-name="Trazado 230074" d="M122.48,233.61c.175.337.362.674.549,1.011l.561,1c.187.337.362.674.561,1l.561,1,.586.986.287.5.3.487.312.487.15.237.15.237.162.25.075.112.087.125.312.474c-.474-.6-.923-1.248-1.347-1.859s-.811-1.248-1.248-1.959-.749-1.335-1.11-2.009S122.792,234.309,122.48,233.61Z" transform="translate(26.984 44.574)" fill="#fff"/>
        <path id="Trazado_230075" data-name="Trazado 230075" d="M116.81,230.425l1.859-.786.861.786,2.52-1.085,1.322.574-2.445,1.934-1.385-1.26-.923,1.16Z" transform="translate(25.581 43.517)" fill="#e6a748"/>
        <path id="Trazado_230076" data-name="Trazado 230076" d="M115.09,249.32q.624.112,1.248.187l1.248.15c.836.087,1.672.137,2.5.162h1.248a8.444,8.444,0,0,0,1.248-.062c.424-.062.823-.087,1.248-.162a10.144,10.144,0,0,0,1.248-.262,9.979,9.979,0,0,1-1.248.287c-.412.075-.836.137-1.248.175s-.836.062-1.248.075H120.08a23.723,23.723,0,0,1-2.5-.175,8.54,8.54,0,0,1-1.248-.162C115.926,249.47,115.5,249.407,115.09,249.32Z" transform="translate(25.155 48.463)" fill="#daeef7" opacity="0.5"/>
        <path id="Trazado_230077" data-name="Trazado 230077" d="M122.729,230.287l-.624.487-.624.5-.561.462-.649-.661-.686-.7h-.062c-.162.2-.312.412-.462.611l-.412.561-.873-.6-.462-.324-.474-.312.449.349.437.337.9.686h0l.462-.6.412-.536.624.636.7.7h0l.611-.524.6-.512.6-.524.6-.524Z" transform="translate(25.588 43.631)" fill="#fff"/>
        <path id="Trazado_230078" data-name="Trazado 230078" d="M119.144,230.26c-.075.948-.15,1.884-.212,2.819s-.112,1.884-.162,2.82a10.57,10.57,0,0,1-.062,1.41v1.41c0,.948,0,1.884-.075,2.832v5.639a21.233,21.233,0,0,0,.125,2.82v.711a3.269,3.269,0,0,0,0,.349v.349c0,.474.087.936.125,1.41-.112-.936-.225-1.871-.3-2.807s-.112-1.884-.162-2.819v-5.664c0-.936,0-1.884.087-2.82v-1.41a8.823,8.823,0,0,1,.075-1.41c0-.948.125-1.884.2-2.82v-.711l.075-.7C118.969,231.183,119.019,230.734,119.144,230.26Z" transform="translate(25.979 43.745)" fill="#fff"/>
        <path id="Trazado_230079" data-name="Trazado 230079" d="M120.543,226.17a2.221,2.221,0,0,1-.986.487,2.007,2.007,0,0,1-.549.075,2.672,2.672,0,0,1-.549,0c.349-.087.711-.112,1.06-.212A6.141,6.141,0,0,0,120.543,226.17Z" transform="translate(25.989 42.732)" fill="#f99893"/>
        <g id="Grupo_63465" data-name="Grupo 63465" transform="translate(133.83 286.441)">
          <path id="Trazado_230080" data-name="Trazado 230080" d="M110.587,252.3l-.611,3.082a1.248,1.248,0,0,0,.986,1.485l29.518,5.926a1.248,1.248,0,0,0,1.485-.986l.624-3.069Z" transform="translate(-109.948 -237.239)" fill="#b32e69"/>
          <path id="Trazado_230081" data-name="Trazado 230081" d="M144.294,246.181l-29.518-5.926a1.248,1.248,0,0,0-1.485.986l-2.832,14.073,32,6.437,2.82-14.085a1.248,1.248,0,0,0-.986-1.485Z" transform="translate(-109.821 -240.228)" fill="#e74a60"/>
          <rect id="Rectángulo_7433" data-name="Rectángulo 7433" width="32.624" height="4.304" transform="matrix(0.98, 0.197, -0.197, 0.98, 1.982, 8.499)" fill="#031322"/>
          <rect id="Rectángulo_7434" data-name="Rectángulo 7434" width="1.435" height="5.352" rx="0.31" transform="matrix(0.197, -0.98, 0.98, 0.197, 4.196, 6.397)" fill="#c9edf9"/>
          <rect id="Rectángulo_7435" data-name="Rectángulo 7435" width="1.435" height="5.352" rx="0.31" transform="matrix(0.197, -0.98, 0.98, 0.197, 11.845, 7.959)" fill="#c9edf9"/>
          <path id="Trazado_230082" data-name="Trazado 230082" d="M134.13,248.678a2.5,2.5,0,1,1-.366-1.9A2.5,2.5,0,0,1,134.13,248.678Z" transform="translate(-105.184 -238.882)" fill="#c9edf9"/>
          <path id="Trazado_230083" data-name="Trazado 230083" d="M134.718,246.26a2.408,2.408,0,0,0-1.248.075,2.982,2.982,0,0,1-.861,4.317,2.5,2.5,0,1,0,2.158-4.391Z" transform="translate(-104.338 -238.747)" fill="#c9edf9"/>
        </g>
        <path id="Trazado_230084" data-name="Trazado 230084" d="M135.111,240.21l-4.092,2.42.724,1-7.573,8.2h0l1.584,1.572s11.078-8.733,11.328-9.432S135.111,240.21,135.111,240.21Z" transform="translate(27.403 46.208)" fill="#ffc0bb"/>
        <path id="Trazado_230085" data-name="Trazado 230085" d="M133.943,240.04l-5.053.5,1,3.393,4.791-3.68Z" transform="translate(28.571 46.166)" fill="#ffcb83"/>
        <path id="Trazado_230086" data-name="Trazado 230086" d="M123.337,251.161a.125.125,0,0,1,.137.187,14.684,14.684,0,0,0-1.322,3.106c.187.162,1.248-1.834,1.472-1.8s-.848,1.946-.611,2.083,1.148-1.647,1.248-1.622-.586,1.821-.5,1.984,1.073-1.672,1.248-1.684-.112,1.485,0,1.522.212.075,1.747-3.106l.549-1.248-.112-1.248-1.485-.449a45.974,45.974,0,0,0-4.067,2.271C121.616,251.273,121.753,251.348,123.337,251.161Z" transform="translate(26.776 48.357)" fill="#ffc0bb"/>
        <path id="Trazado_230087" data-name="Trazado 230087" d="M176.162,230.953l.012.724.075,1.8-3.543-.462-.387-.349-.037-1.547-.112-1.285h2.358Z" transform="translate(39.286 43.638)" fill="#ffc0bb"/>
        <path id="Trazado_230088" data-name="Trazado 230088" d="M178.951,266.455a5.252,5.252,0,0,1,0,1.821c-.175,1.023-4.791,25.263-4.791,25.263l2.5.362s7.947-22.519,8.384-24.028.936-3.643-.574-5.277S178.951,266.455,178.951,266.455Z" transform="translate(39.779 52.138)" fill="#ffc0bb"/>
        <path id="Trazado_230089" data-name="Trazado 230089" d="M180.154,288.916l-2.907-3.506-2.907,1.248.724,1.011,3.169,1.584s1.36.274,1.435.262a5.971,5.971,0,0,0,.487-.6Z" transform="translate(39.824 57.398)" fill="#ffc0bb"/>
        <path id="Trazado_230090" data-name="Trazado 230090" d="M180.243,288.668l.636.8a.462.462,0,0,1-.512.736l-6.1-2.034a.387.387,0,0,1-.262-.511l.424-1.248C178.085,289.017,179.632,289.092,180.243,288.668Z" transform="translate(39.734 57.646)" fill="#063e70"/>
        <path id="Trazado_230091" data-name="Trazado 230091" d="M176.97,288.773l-3.343-2.083-2.907,1.734,1.011.724,3.506.512s1.372-.175,1.435-.212A4.331,4.331,0,0,0,176.97,288.773Z" transform="translate(38.927 57.715)" fill="#ffc0bb"/>
        <path id="Trazado_230092" data-name="Trazado 230092" d="M169.26,264.353s.487,11.553.524,13.549,1.073,16.8,1.51,18.09l2.5-.187s1.7-28.694,1.16-31.451S169.26,264.353,169.26,264.353Z" transform="translate(38.566 51.882)" fill="#ffc0bb"/>
        <path id="Trazado_230093" data-name="Trazado 230093" d="M176.97,288.429l.848.549a.462.462,0,0,1-.25.861h-6.437a.412.412,0,0,1-.412-.412V288.08C175.012,289.44,176.484,289.028,176.97,288.429Z" transform="translate(38.927 58.059)" fill="#063e70"/>
        <path id="Trazado_230094" data-name="Trazado 230094" d="M177.85,232.1s8.733,2.595,12.7,10.592a2.208,2.208,0,0,1-.262,2.383,19.787,19.787,0,0,1-8.945,5.8,1.722,1.722,0,0,1-1.06-1.522s4.8-4.367,6.013-5.39l-6.724-5.277Z" transform="translate(40.693 44.2)" fill="#ee5f3d"/>
        <path id="Trazado_230095" data-name="Trazado 230095" d="M178.79,247.422l1.248-1.372,1.035,1.372s-.15,3.83,0,4.99c0,0-.349.2-.462,0S178.79,247.422,178.79,247.422Z" transform="translate(40.925 47.654)" fill="#ffc0bb"/>
        <path id="Trazado_230096" data-name="Trazado 230096" d="M184.01,254.161h0l-1.435-7.485s3.406-14.7-1.447-14.547l-6.575-.087s-4.3-.474-5.664,1.248-5.976,13.312-6.238,18.876a57.263,57.263,0,0,0,1.11,12.139,14.56,14.56,0,0,0,2.2,0c.674-.1-.162-10.754.574-12.476s4.03-9.981,4.242-10.8l.823,4.329a4.6,4.6,0,0,1-.2,2.4c-.7,1.871-1.921,7.086-1.921,7.086h0c-1.535,4.878-2.745,13.174.362,24.8,0,0,.911.075,2.37.112l.337-7.585,2.058,7.623c4.753,0,11.852-.449,15.383-2.794C189.986,276.917,186.792,262.271,184.01,254.161Z" transform="translate(36.928 44.171)" fill="#ff6e53"/>
        <path id="Trazado_230097" data-name="Trazado 230097" d="M177.791,226.313a1.048,1.048,0,0,0,.462,1.385,1.173,1.173,0,1,0-.462-1.385Z" transform="translate(40.652 42.577)" fill="#f99893"/>
        <path id="Trazado_230098" data-name="Trazado 230098" d="M172.14,229.57s.087.736.15,1.609a3.743,3.743,0,0,0,3.892.561,4.642,4.642,0,0,1,.075-1.36C176.494,229.682,172.14,229.57,172.14,229.57Z" transform="translate(39.279 43.574)" fill="#f99893"/>
        <path id="Trazado_230099" data-name="Trazado 230099" d="M179.8,230.687a4.269,4.269,0,0,0,.337-.811,8.235,8.235,0,0,0,.412-2.246v-.449a4.778,4.778,0,0,0-.1-1.871,4.866,4.866,0,0,0-9.581,1.36,1.048,1.048,0,0,0-.961,0,1.472,1.472,0,0,0,1.248,2.57.886.886,0,0,0,.212-.137,4.554,4.554,0,0,0,4.678,4.017,4.317,4.317,0,0,0,2.919-1.335l.162-.162A3.743,3.743,0,0,0,179.8,230.687Z" transform="translate(38.595 41.608)" fill="#ffc0bb"/>
        <path id="Trazado_230100" data-name="Trazado 230100" d="M174.4,226.287a.462.462,0,1,1-.455-.386.462.462,0,0,1,.455.386Z" transform="translate(39.612 42.665)" fill="#333"/>
        <path id="Trazado_230101" data-name="Trazado 230101" d="M177.413,226.3a.462.462,0,1,1-.474-.437.462.462,0,0,1,.474.437Z" transform="translate(40.356 42.655)" fill="#333"/>
        <path id="Trazado_230102" data-name="Trazado 230102" d="M175.466,225.51v.873a.9.9,0,0,0,.075.437,1.335,1.335,0,0,0,.162.387h0a.561.561,0,0,1,.087.225.549.549,0,0,1-.137.437.935.935,0,0,1-.374.25,1.4,1.4,0,0,1-.449.062.71.71,0,0,0,.225,0l.2-.062a1.048,1.048,0,0,0,.349-.25.487.487,0,0,0,.112-.387.587.587,0,0,0-.075-.187h0a.812.812,0,0,1-.112-.2,1.513,1.513,0,0,1,0-.225,2.5,2.5,0,0,1-.062-.437A5.214,5.214,0,0,1,175.466,225.51Z" transform="translate(39.945 42.569)" fill="#f99893"/>
        <path id="Trazado_230103" data-name="Trazado 230103" d="M175.033,225.718a2.584,2.584,0,0,0-.649-.25,1.959,1.959,0,0,0-.661,0,1.36,1.36,0,0,0-.324,0h-.312a2.918,2.918,0,0,0-.586.374,1.634,1.634,0,0,1,.524-.487,1.533,1.533,0,0,1,.324-.15,1.7,1.7,0,0,1,.362-.075,1.722,1.722,0,0,1,.711.087,2.571,2.571,0,0,1,.324.15A1.248,1.248,0,0,1,175.033,225.718Z" transform="translate(39.368 42.473)" fill="#031322"/>
        <path id="Trazado_230104" data-name="Trazado 230104" d="M176,225.693a1.246,1.246,0,0,1,.274-.225c.112,0,.212-.112.324-.15a1.784,1.784,0,0,1,.724-.087,1.874,1.874,0,0,1,.362.075,1.535,1.535,0,0,1,.324.15,1.635,1.635,0,0,1,.524.487,2.92,2.92,0,0,0-.586-.374h-.312a1.485,1.485,0,0,0-.324,0,2.045,2.045,0,0,0-.674,0A2.493,2.493,0,0,0,176,225.693Z" transform="translate(40.235 42.498)" fill="#031322"/>
        <path id="Trazado_230105" data-name="Trazado 230105" d="M171.54,232s.561.711,1.248,1.647a2.632,2.632,0,0,0,4.728-1.435v-.1Z" transform="translate(39.13 44.175)" fill="#ffc0bb"/>
        <path id="Trazado_230106" data-name="Trazado 230106" d="M169.16,240.264a4.552,4.552,0,0,0,.162-.686,4.293,4.293,0,0,1,.112-.7c0-.474.075-.936.1-1.41v-1.41a3.3,3.3,0,0,0,0-.349v-1.06l.112.7a2.745,2.745,0,0,0,.062.711v.349a3.506,3.506,0,0,1,0,.362v.7a10.943,10.943,0,0,1-.125,1.422v.349l-.075.349a4.737,4.737,0,0,1-.349.674Z" transform="translate(38.541 44.832)" fill="#fff"/>
        <path id="Trazado_230107" data-name="Trazado 230107" d="M180.2,223.2c-.9-3.094-4.99-3.194-4.99-3.194-6.35.437-5.352,6.013-5.14,6.937a1.036,1.036,0,0,1,.749.125,2.246,2.246,0,0,1,.312.225c.749-.237.973-1.472,1.36-2.071.536-.811,2.844-.4,3.743-.973a2.158,2.158,0,0,0,.961-1.472,4.1,4.1,0,0,1,3.344,4.129,1.246,1.246,0,0,1,.324,0,9.694,9.694,0,0,0-.661-3.705Z" transform="translate(38.72 41.207)" fill="#031322"/>
        <g id="Grupo_63468" data-name="Grupo 63468" transform="translate(191.071 310.162)">
          <g id="Grupo_63466" data-name="Grupo 63466" transform="translate(5.995)">
            <path id="Trazado_230108" data-name="Trazado 230108" d="M168.136,262.421l-.5-.062.162-1.322a.6.6,0,0,0-.524-.674l-4.99-.611a.6.6,0,0,0-.674.524l-.162,1.322-.5-.062.162-1.322a1.11,1.11,0,0,1,1.248-.961l4.99.611a1.1,1.1,0,0,1,.961,1.248Z" transform="translate(-160.557 -259.242)" fill="#d4902b"/>
            <path id="Trazado_230109" data-name="Trazado 230109" d="M.337,0h.674a.337.337,0,0,1,.337.337H0A.337.337,0,0,1,.337,0Z" transform="matrix(0.992, 0.123, -0.123, 0.992, 0.041, 1.726)" fill="#eefbff"/>
            <path id="Trazado_230110" data-name="Trazado 230110" d="M.349,0h.674A.337.337,0,0,1,1.36.337H0A.337.337,0,0,1,.349,0Z" transform="matrix(0.992, 0.123, -0.123, 0.992, 6.726, 2.541)" fill="#eefbff"/>
          </g>
          <g id="Grupo_63467" data-name="Grupo 63467" transform="translate(0 1.425)">
            <path id="Trazado_230111" data-name="Trazado 230111" d="M157.627,272.692c18.352,2.121,14.472,4.678,16.593-8.122l-17.354-2.37C155.93,270.06,154.795,272.006,157.627,272.692Z" transform="translate(-155.83 -259.935)" fill="#d4902b"/>
            <path id="Trazado_230112" data-name="Trazado 230112" d="M156.76,264.995l16.543,2.258c1.248.112,1.073-.175,1.435-2.77s.487-1.385-15.994-3.917c-1.684-.187-2.208-.686-2.383,1.559C156.211,263.735,155.7,264.733,156.76,264.995Z" transform="translate(-155.761 -260.385)" fill="#e6a748"/>
            <rect id="Rectángulo_7436" data-name="Rectángulo 7436" width="1.198" height="6.388" transform="translate(5.852 5.882) rotate(-82.23)" fill="#eefbff"/>
          </g>
        </g>
        <g id="Grupo_63469" data-name="Grupo 63469" transform="translate(213.889 271.385)">
          <path id="Trazado_230113" data-name="Trazado 230113" d="M174.46,228.38a1.123,1.123,0,0,1,.936.125.836.836,0,0,1,.886,0,.923.923,0,0,1-.986.686.848.848,0,0,1-.836-.811Z" transform="translate(-174.036 -228.118)" fill="#f99893" opacity="0.3"/>
          <path id="Trazado_230114" data-name="Trazado 230114" d="M174.12,228.16a1.486,1.486,0,0,0,.287.2,2.071,2.071,0,0,0,.973.349,2.146,2.146,0,0,0,.686-.075,2.919,2.919,0,0,0,.624-.312l-.287.212-.312.162a1.789,1.789,0,0,1-.349.087,1.884,1.884,0,0,1-.374,0,1.909,1.909,0,0,1-.686-.212A1.709,1.709,0,0,1,174.12,228.16Z" transform="translate(-174.12 -228.16)" fill="#f99893"/>
        </g>
        <path id="Trazado_230115" data-name="Trazado 230115" d="M175.31,222.61s-4.1-4.791-8.5-2.408-4.928,5.564-8.184,6.238c0,0,3.393,5.739,7.722,1.248s8.733-3.406,8.733-3.406Z" transform="translate(35.934 41.09)" fill="#031322"/>
        <path id="Trazado_230116" data-name="Trazado 230116" d="M166.142,260.14h-.462c.349.387.424.374.5.3a.574.574,0,0,0-.037-.3Z" transform="translate(37.68 51.142)" fill="#ffc0bb"/>
        <path id="Trazado_230117" data-name="Trazado 230117" d="M166.16,258.683l-.3-.873a15.287,15.287,0,0,1-2.108,0c-.125.287-.349.886-.349.886-.187.561-.349,1-.462,1.347h0s-.062.3.312.412a.187.187,0,0,0,.112,0s.1-.1.125-.075a.412.412,0,0,1,0,.187h0a.337.337,0,0,0,.487.187s.112-.162.125-.15a.424.424,0,0,1,0,.212h0a.349.349,0,0,0,.437.15h0c.087-.2.162-.324.2-.287s0,.087,0,.225v.087s.1.3.474.1c.15-.437.3-.861.374-1.1a.112.112,0,0,1,.187,0v.087l.786.1A9.359,9.359,0,0,0,166.16,258.683Z" transform="translate(37 50.565)" fill="#ffc0bb"/>
        <g id="Grupo_63470" data-name="Grupo 63470" transform="translate(234.474 107.753)">
          <path id="Trazado_230118" data-name="Trazado 230118" d="M225.415,105l1.672,12.638-8.97-6.562L190.62,97l21.209,1.946s10.841,2.632,11.428,3.156A26.711,26.711,0,0,1,225.415,105Z" transform="translate(-190.62 -97)" fill="#e6a748"/>
          <path id="Trazado_230119" data-name="Trazado 230119" d="M234.834,97.342,190.62,97.03l34.795,7.96Z" transform="translate(-190.62 -96.993)" fill="#ffcb83"/>
          <path id="Trazado_230120" data-name="Trazado 230120" d="M211.2,117.7l11.577-9.307L190.62,97.03Z" transform="translate(-190.62 -96.993)" fill="#ffcb83"/>
        </g>
        <g id="Grupo_63471" data-name="Grupo 63471" transform="translate(278.239 120.528)">
          <path id="Trazado_230121" data-name="Trazado 230121" d="M262.444,158.787l-.574-.861a12.239,12.239,0,0,0,2.433-2.2l.786.661A12.639,12.639,0,0,1,262.444,158.787Z" transform="translate(-216.745 -95.235)" fill="#ffcb83"/>
          <path id="Trazado_230122" data-name="Trazado 230122" d="M275.41,161.627l-.986-.312a29.768,29.768,0,0,0,1.185-6.475l1.035.075A30.319,30.319,0,0,1,275.41,161.627Zm1.248-13.511-1.035.1a2.544,2.544,0,0,0-.1-.861,26.45,26.45,0,0,0-.549-2.907c-.225-.886-.487-1.772-.8-2.645l.986-.349c.312.9.6,1.834.823,2.745a28.554,28.554,0,0,1,.574,3.019C276.57,147.517,276.658,147.8,276.658,148.116Zm-5.34-12.264a38.679,38.679,0,0,0-3.942-5.315l.773-.686A39.788,39.788,0,0,1,272.2,135.3Zm-32.524-2.5a5.776,5.776,0,0,1-3.68-.487,5.489,5.489,0,0,1-2.083-2.345l.936-.449a4.442,4.442,0,0,0,1.684,1.909,4.716,4.716,0,0,0,2.894.349h.1l.15-.1.574.861a.884.884,0,0,1-.175.125,1.759,1.759,0,0,1-.424.175Zm23.829-7.485a52.4,52.4,0,0,0-5.327-3.98l.574-.873a53.958,53.958,0,0,1,5.427,4.067Zm-19.5,1.385-1.023-.225a9.181,9.181,0,0,0,.212-1.934,11.528,11.528,0,0,0-.349-2.807,13.137,13.137,0,0,0-.487-1.559l.973-.374a14.524,14.524,0,0,1,.524,1.684,12.961,12.961,0,0,1,.374,3.057,10.568,10.568,0,0,1-.249,2.171Zm-9.157-3.206-.936-.449a10.492,10.492,0,0,1,4.866-4.741l.15-.075.437.948h-.137a9.419,9.419,0,0,0-4.4,4.329Zm17.279-4.666a20.061,20.061,0,0,0-4.117-.961h-2.32v-1.035h2.408a22.719,22.719,0,0,1,4.367,1.011ZM238.1,115.167a22.219,22.219,0,0,0-4.928-4.292l.561-.886a23.442,23.442,0,0,1,5.165,4.5Z" transform="translate(-223.885 -106.559)" fill="#ffcb83"/>
          <path id="Trazado_230123" data-name="Trazado 230123" d="M228.981,108.9a20.522,20.522,0,0,0-3.281-.624l.1-1.035a21.045,21.045,0,0,1,3.456.649Z" transform="translate(-225.7 -107.24)" fill="#ffcb83"/>
        </g>
        <g id="Grupo_63472" data-name="Grupo 63472" transform="translate(97.777 344.692)">
          <rect id="Rectángulo_7437" data-name="Rectángulo 7437" width="0.724" height="7.61" rx="0.26" transform="translate(0 3.344) rotate(-89.8)" fill="#063e70"/>
          <path id="Trazado_230124" data-name="Trazado 230124" d="M81.394,287.307l-.262,2.021a.387.387,0,0,0,.312.474h6.7a.474.474,0,0,0,.437-.3.823.823,0,0,0-.175-.9c-.6-.8-2.5-1.011-3.506-1.684H81.744C81.569,286.908,81.419,287.082,81.394,287.307Z" transform="translate(-81.032 -286.919)" fill="#e74a60"/>
          <path id="Trazado_230125" data-name="Trazado 230125" d="M83.746,288.062h0a.15.15,0,0,1,0-.175,1.173,1.173,0,0,1,1.31-.773s.15,0,.15.1h0c0,.062,0,.1-.1.1a1.123,1.123,0,0,0-1.248.7.087.087,0,0,1-.112.05Z" transform="translate(-80.389 -286.876)" fill="#063e70"/>
          <path id="Trazado_230126" data-name="Trazado 230126" d="M84.415,288.31h0a.175.175,0,0,1,0-.175,1.248,1.248,0,0,1,1.31-.773s.162,0,.15.1h0c0,.062,0,.1-.1.1a1.123,1.123,0,0,0-1.248.7.087.087,0,0,1-.112.05Z" transform="translate(-80.222 -286.812)" fill="#063e70"/>
        </g>
        <g id="Grupo_63473" data-name="Grupo 63473" transform="translate(134.943 344.468)">
          <path id="Trazado_230127" data-name="Trazado 230127" d="M111.177,289.754h7.411a.412.412,0,0,0,.387-.4h0a.324.324,0,0,0-.324-.324h-7.485a.324.324,0,0,0-.324.324v.137a.324.324,0,0,0,.337.262Z" transform="translate(-110.84 -286.173)" fill="#063e70"/>
          <path id="Trazado_230128" data-name="Trazado 230128" d="M118.585,287.152l.274,2.158c0,.274-.112.512-.324.512h-7.161a.536.536,0,0,1-.462-.312.923.923,0,0,1,.2-.973c.624-.848,2.695-1.073,3.743-1.8h3.368a.424.424,0,0,1,.362.412Z" transform="translate(-110.837 -286.74)" fill="#e74a60"/>
        </g>
        <g id="Grupo_63474" data-name="Grupo 63474" transform="translate(146.582 344.468)">
          <path id="Trazado_230129" data-name="Trazado 230129" d="M120.557,289.766H127.9a.412.412,0,0,0,.387-.4h0a.387.387,0,0,0-.387-.387h-7.348a.387.387,0,0,0-.387.387h0a.387.387,0,0,0,.387.4Z" transform="translate(-120.17 -286.185)" fill="#063e70"/>
          <path id="Trazado_230130" data-name="Trazado 230130" d="M127.916,287.152l.274,2.158c0,.274-.125.512-.337.512h-7.149a.536.536,0,0,1-.474-.312.948.948,0,0,1,.2-.973c.636-.848,2.695-1.073,3.743-1.8h3.356A.437.437,0,0,1,127.916,287.152Z" transform="translate(-120.169 -286.74)" fill="#e74a60"/>
        </g>
        <g id="Grupo_63475" data-name="Grupo 63475" transform="translate(76.224 340.37)">
          <rect id="Rectángulo_7438" data-name="Rectángulo 7438" width="0.724" height="7.61" rx="0.26" transform="translate(0 1.557) rotate(-36.2)" fill="#063e70"/>
          <path id="Trazado_230131" data-name="Trazado 230131" d="M66.243,283.536l-1.772,1c-.225.125-.324.374-.212.524l3.967,5.414a.474.474,0,0,0,.5.175c.212,0,.462-.2.611-.686.3-.948-.686-2.632-.724-3.818a.112.112,0,0,0,0-.062l-1.834-2.5A.4.4,0,0,0,66.243,283.536Z" transform="translate(-63.665 -283.455)" fill="#e74a60"/>
          <path id="Trazado_230132" data-name="Trazado 230132" d="M66.76,285.866h0a.125.125,0,0,1,.112-.125,1.173,1.173,0,0,1,1.4.586v.187h-.125a1.135,1.135,0,0,0-1.248-.561S66.76,285.915,66.76,285.866Z" transform="translate(-63.035 -282.903)" fill="#063e70"/>
          <path id="Trazado_230133" data-name="Trazado 230133" d="M67,286.555h0a.125.125,0,0,1,.1-.125,1.173,1.173,0,0,1,1.4.6s.075.137,0,.175h0a.112.112,0,0,1-.137,0,1.11,1.11,0,0,0-1.248-.561C67,286.63,67,286.605,67,286.555Z" transform="translate(-62.975 -282.732)" fill="#063e70"/>
        </g>
        <g id="Grupo_63476" data-name="Grupo 63476" transform="translate(250.061 311.524)">
          <rect id="Rectángulo_7439" data-name="Rectángulo 7439" width="8.122" height="0.773" rx="0.26" transform="translate(0.013 2.788) rotate(-0.2)" fill="#fff"/>
          <path id="Trazado_230134" data-name="Trazado 230134" d="M210.856,260.741l.274,2.171c0,.262-.125.5-.337.5h-7.149a.512.512,0,0,1-.474-.312.923.923,0,0,1,.2-.961c.636-.861,2.707-1.085,3.743-1.8a.1.1,0,0,1,.075,0h3.269a.437.437,0,0,1,.4.4Z" transform="translate(-203.114 -260.334)" fill="#e74a60"/>
          <path id="Trazado_230135" data-name="Trazado 230135" d="M207.057,261.544h0a.137.137,0,0,0,0-.175,1.248,1.248,0,0,0-1.385-.836s-.175,0-.162.112h0c0,.075,0,.112.1.1a1.248,1.248,0,0,1,1.248.749C206.97,261.556,207.02,261.569,207.057,261.544Z" transform="translate(-202.521 -260.289)" fill="#fff"/>
          <path id="Trazado_230136" data-name="Trazado 230136" d="M206.31,261.812h0a.137.137,0,0,0,0-.175,1.248,1.248,0,0,0-1.4-.823s-.175,0-.162.1h0a.1.1,0,0,0,.112.1,1.248,1.248,0,0,1,1.248.749S206.31,261.837,206.31,261.812Z" transform="translate(-202.709 -260.22)" fill="#fff"/>
        </g>
        <g id="Grupo_63477" data-name="Grupo 63477" transform="translate(267.366 311.532)">
          <rect id="Rectángulo_7440" data-name="Rectángulo 7440" width="0.773" height="8.122" rx="0.26" transform="translate(0 3.566) rotate(-89.8)" fill="#fff"/>
          <path id="Trazado_230137" data-name="Trazado 230137" d="M217.347,260.739l-.287,2.171c0,.262.125.5.337.5h7.149a.512.512,0,0,0,.474-.312.923.923,0,0,0-.2-.961c-.636-.861-2.695-1.085-3.743-1.8h-3.356A.424.424,0,0,0,217.347,260.739Z" transform="translate(-216.966 -260.34)" fill="#e74a60"/>
          <path id="Trazado_230138" data-name="Trazado 230138" d="M219.856,261.544h0a.137.137,0,0,1,0-.175,1.248,1.248,0,0,1,1.385-.836s.175,0,.162.112h0c0,.075,0,.112-.1.1a1.248,1.248,0,0,0-1.248.749C219.944,261.556,219.894,261.569,219.856,261.544Z" transform="translate(-216.282 -260.296)" fill="#fff"/>
          <path id="Trazado_230139" data-name="Trazado 230139" d="M220.576,261.812h0a.15.15,0,0,1,0-.175,1.248,1.248,0,0,1,1.4-.823s.175,0,.162.1h0a.1.1,0,0,1-.112.1,1.248,1.248,0,0,0-1.248.749S220.613,261.837,220.576,261.812Z" transform="translate(-216.103 -260.227)" fill="#fff"/>
        </g>
      </g>
    </g>
  </g>
</svg>
