<svg xmlns="http://www.w3.org/2000/svg" width="439.406" height="364.577" viewBox="0 0 439.406 364.577">
  <g id="Grupo_124782" data-name="Grupo 124782" transform="translate(-981.049 -501.233)">
    <g id="CF8_tema_1_Mercado_cambiario" data-name="CF8_tema 1 Mercado cambiario" transform="translate(975.178 415.833)">
      <g id="Layer_1" data-name="Layer 1" transform="translate(5.871 85.9)">
        <g id="Grupo_58704" data-name="Grupo 58704">
          <g id="Grupo_58691" data-name="Grupo 58691" transform="translate(0 67.395)">
            <path id="Trazado_119799" data-name="Trazado 119799" d="M173.964,361.251c-8.609-5.95-5.32-2.376-10.09-3.866s-5.054-1.179-7.43-5.32-2.376-8.609-6.207-9.2-11.89-5.648-14.275-9.8l-4.753.3-3.263-1.188-3.29,1.2-.594-2.97-1.179.293v2.66l-.3,2.66-1.773-1.481.293-2.979.6-2.075-3.547,1.188-1.49,2.66-2.66,2.066h-2.66l-3.263-.887s-4.753.585-4.753-5.054,0-6.535-7.421-6.207c0,0,.585-7.98,2.66-10.1s-4.753-1.773-5.648.887c0,0-1.188,5.639-6.827,4.753a13.456,13.456,0,0,1-3.272-14.852c3.556-8.911,4.433-7.093,9.212-6.207s1.49-2.97,5.639-2.367,3.866.594,5.054,2.66,3.263,6.207,2.075,7.98,6.535,2.376,2.979-8.911,5.932-10.383,7.98-10.09-4.433-10.986,2.97-12.475,5.639-1.773,5.639-1.773-1.481-5.63,6.207-5.63l1.49,1.481,3.547-2.075,3.272-2.97.887-2.66,4.158-.3,2.084,1.773,4.167-.6-1.445-5.027s-3.857-.585-4.433-2.97,4.15-1.472,1.49-5.63-3.875-5.639-7.732-7.723-3.547-7.714-6.836-10.693-2.367,7.723-5.639,4.433-5.045-9.212-13.956-8.317c0,0,2.376,5.932-.887,8.317,0,0,7.723,6.827-1.188,9.5,0,0,4.433,6.207-.594,7.093s-3.263-5.941-3.547-8.308c0,0-7.723-.6-9.5-2.66s-5.941-1.481-5.941-1.481l-1.2-3.866-2.11-1.144s.585-5.639,1.773-5.639,5.32-3.263,5.32-3.263l2.084-3.866,2.367-2.97v-2.988l2.66,2.376,2.385,1.481,2.376-5.32.594-3.866-5.32-.293-9.8,2.66-4.744-2.97L83.1,210.4l-6.827.293H70.6l-4.158-1.179-.887,2.075-3.272,1.773-4.158-1.188H54.858l.293-1.773-2.367-1.773-2.376-.887-2.66-.594-2.97-1.179-2.367.887s-4.167,1.188-6.544-3.547c0,0-12.475,4.433-14.843,4.176-.4-.053-9.071.133-10.534-.044a.142.142,0,0,0-.16.133c-8.246-.514-4.682,9.053,7.616,26.077,2.226.984,4.886,2.571,5.772,4.69a39.422,39.422,0,0,0,4.158,7.093s6.481,9.23,11.8,12.5,0,10.392,2.66,19.586,4.744,10.09,4.744,10.09l3.272,1.49,2.66,3.547,1.773,4.753,2.075,2.367-2.97.887,2.66,2.075,2.385,2.376,2.376,3.272,2.367,2.075-2.961-8.317-4.433-7.98,1.188-.6s2.66.3,5.32,5.054a30.59,30.59,0,0,1,3.263,7.421l3.272,4.433s1.481,3.547,0,5.32,12.475,8.024,14.258,8.024,4.433-1.2,5.941,1.481,4.158,2.66,7.421,3.547,3.547,3.866,2.66,5.932,5.639,1.773,7.093,4.167,1.773-3.547,3.857-1.49,2.66,5.045.594,8.308-3.857,6.836-3.547,9.5a16.776,16.776,0,0,1-.6,8.326c-1.188,4.159,5.648,4.159,6.836,14.24s10.986.594,9.753,17.52-2.367,9.2-2.075,18.709l-3.547,9.5.293,4.753-1.188,3.547L116.189,436v3.263L115,445.2v8.911s5.32,11.278,15.747,7.98a36.553,36.553,0,0,1-4.167-5.932s-2.97-5.32,0-5.045.3-4.761,3.272-5.648-4.433-2.66.293-7.093-1.481-4.753,1.773-7.421,4.167-5.045,8.317-4.761,5.054-2.953,5.054-6.207,5.32-1.188,7.093-10.1,9.505-16.031,13.655-14.843,5.648-13.655,5.648-17.813S182.582,367.183,173.964,361.251Z" transform="translate(-5.871 -166.602)" fill="#b5abdb"/>
            <path id="Trazado_119800" data-name="Trazado 119800" d="M77.227,201.82l1.933,1.064h1.933l.736,1.188.594.594.151,1.773-2.518-.745-1.046,1.623-4.433.293-1.188-.745-2.075.745-2.234.594-3.715.443-2.217-1.33-1.037-.3-3.272-1.037-1.623-1.49s5.187-1.037,6.969-.585-.293-1.933-7.271-1.49l1.924-1.49-2.226-1.179-.142-1.481,1.33-1.773,3.272-.443,1.481-.887.594,1.339h2.376l2.057,1.312.736-.585,1.773-.31,1.037,1.2,1.206,1.224v-4h1.623l.452-1.188,3.272.293.142,1.631-.293,1.339-1.2.443.6,1.339Z" transform="translate(-11.606 -165.563)" fill="#b5abdb"/>
            <path id="Trazado_119801" data-name="Trazado 119801" d="M49.625,191.8s3.467,1.392,5.32.7,5.32,2.075,4.061,2.474-4.948.594-5.941,2.474-1.685.887-1.685.887l-.1,1.49-1.578.594L48.02,201.5l-1.853-1.543-3.467-.692,2.084-2.766.984-1.1.692-1.676-1.676-1.481Z" transform="translate(-10.045 -165.297)" fill="#b5abdb"/>
            <path id="Trazado_119802" data-name="Trazado 119802" d="M86.081,195.566v1.383H84.494l-1.082-.789s-1.392,1.383,1.188,2.376,2.181,1.082,2.864,1.88,1,1.871,1.986,1.082,1.188-1.383,2.571-1.277,1.188-1.773.5-2.58-1.88-1.88-1.383-2.66-.2-2.961-1.295-2.172-2.27,1.383-3.263.8-1.977.5-1.88,1.286S86.081,195.566,86.081,195.566Z" transform="translate(-14.617 -165.392)" fill="#b5abdb"/>
            <path id="Trazado_119803" data-name="Trazado 119803" d="M92.111,176.622v1.383H90.524l-1.082-.789s-1.392,1.383,1.179,2.376,2.181,1.091,2.873,1.88.993,1.88,1.986,1.091,1.179-1.383,2.571-1.286,1.2-1.773.5-2.58-1.889-1.871-1.383-2.66-.177-2.961-1.295-2.217-2.27,1.374-3.263.8a1.309,1.309,0,0,0-1.88,1.277C90.834,176.693,92.111,176.622,92.111,176.622Z" transform="translate(-15.3 -163.242)" fill="#b5abdb"/>
            <path id="Trazado_119804" data-name="Trazado 119804" d="M99.638,205.064s1.773-.585,1.383-1.179-1.1-1.685-1.1-1.685l-1.082-.887-.789-1.587H96.862l.887-1.88s.594-1.383.887-1.2a5.5,5.5,0,0,0,1.88,0l.887-2.066,1.685-1.188s-5.249-1.179-6.925-.39-2.084,1.481-1.587,2.766a21.045,21.045,0,0,0,1.091,2.367l-.585,1.924-1.2.692-1.383.789.8,1.578-.7,1.091,1.587.887,2.279.408.4.887,1.4-1.011Z" transform="translate(-15.689 -165.403)" fill="#b5abdb"/>
            <path id="Trazado_119805" data-name="Trazado 119805" d="M81.022,183.284l1.924,1.037h1.906l.745,1.2.6.594.142,1.773-2.527-.736-1.029,1.631-4.433.293-1.188-.709-2.066.709-2.226.594-3.715.452-2.226-1.339-1.046-.3-3.281-1L60.975,186s5.2-1.037,6.978-.594-.293-1.933-7.279-1.49l1.933-1.481-2.226-1.188-.151-1.49,1.33-1.773,3.272-.443,1.49-.887.594,1.33h2.376l2.075,1.339.745-.585,1.773-.3,1.037,1.188,1.188,1.188v-4.061h1.649l.443-1.179,3.272.293.16,1.631-.328,1.339-1.179.443.585,1.339Z" transform="translate(-12.032 -163.458)" fill="#b5abdb"/>
            <path id="Trazado_119806" data-name="Trazado 119806" d="M40.3,173.686v1.383H38.714l-1.082-.78s-1.392,1.374,1.179,2.367,2.181,1.091,2.873,1.889.993,1.871,1.977,1.082,1.188-1.392,2.571-1.295,1.2-1.773.505-2.571-1.889-1.88-1.383-2.66-.2-2.97-1.286-2.172-2.288,1.383-3.272.789-1.986.488-1.889,1.286S40.3,173.686,40.3,173.686Z" transform="translate(-9.428 -162.912)" fill="#b5abdb"/>
            <path id="Trazado_119807" data-name="Trazado 119807" d="M53.84,183.2s1.773-.594,1.392-1.188L54.15,180.33l-1.091-.887-.8-1.578H51.082l.887-1.88s.594-1.392.887-1.2a5.444,5.444,0,0,0,1.871,0l.887-2.066,1.685-1.188s-5.249-1.188-6.925-.4-2.093,1.481-1.6,2.766a23.8,23.8,0,0,0,1.108,2.4l-.585,1.889-1.2.692-1.383.789.789,1.578-.692,1.091,1.587.887,2.27.39.408.887,1.383-1Z" transform="translate(-10.501 -162.924)" fill="#b5abdb"/>
            <path id="Trazado_119808" data-name="Trazado 119808" d="M130.209,216.528l-2.376.4h-3.369l-1.2,1.295.4.683,1.188.5,1.383-.2s2.376-.5,2.873,0a6.256,6.256,0,0,0,1.773,1.091,5.817,5.817,0,0,1,2.376,2.27,3.848,3.848,0,0,0,3.165,1.88,4.434,4.434,0,0,1,3.068.7,3.4,3.4,0,0,0,2.181.692c.692,0-3.547-2.571-4.433-4.158s4.664.5,6.437,2.075.3-2.66.3-2.66l-2.483-3.263-1.773-1.392.78-2.075,1.773.789a8.13,8.13,0,0,1,1.685,2.376c.692,1.481,2.27.594,2.766-.293s-.887-1.685.993-2.775,2.376-2.181.7-2.961-5.16-.3-5.843-1.188-4.557-1.587-3.866-2.084,2.279-.1,1.685-1.383a8.361,8.361,0,0,0-3.174-3.272,15.373,15.373,0,0,0-2.961-.887l-2.181-2.376H129.3l-1.383-.887-1.188-1.889h-2.075l-.887.6-1.49.488-2.367-1.286a4.2,4.2,0,0,1-.993-1.578c-.5-1.188-2.66-1.977-3.272-1.091s-2.961,1.286-2.961,1.871-.8,1.773.488,3.547,1.889,1.685,2.376,2.961a2.988,2.988,0,0,0,3.165,2.084,7.793,7.793,0,0,1,3.467.089c.505.2.594-1.277,2.288-.186a19.727,19.727,0,0,1,3.165,2.66l-1.889.5,1.392.4,1.773.2,2.172,1.49s1.49.2.5,1.88a4.522,4.522,0,0,1-2.376,2.075Z" transform="translate(-17.95 -165.579)" fill="#b5abdb"/>
            <path id="Trazado_119809" data-name="Trazado 119809" d="M468,251.463l-.576-1.773-2.3,1.88-3.963-2.713-3.139,1.454s-.417-4.176,4.389-7.723A35.52,35.52,0,0,1,468,239.316V200.072a12.867,12.867,0,0,0-1.827.222c-3.139.63-5.95,3.139-6.9,3.44a3.139,3.139,0,0,1-3.759-.931c-1.25-1.569-4.38-.94-5.32,1.25s-6.269,1.561-5.958-.319,1.259-4.07.328-5.63-4.079-2.2-5.958-1.88-1.25,2.82-4.708,2.82-8.769-1.259-11.27-1.88-5.01,2.811-5.639.621,0-3.44,1.569-5.63-5.958-7.2-7.519-7.82a5.617,5.617,0,0,0-5.01.3,11.119,11.119,0,0,1-6.9,2.2c-3.449,0-7.829.621-8.148,2.181s-1.25,0-6.26,1.578-10.028.931-10.028,3.751-.94,4.38-4.07,4.38.63,4.079.63,4.079-5.32-.94-7.528-1.569-3.13-1.88-5.63,1.25-6.269,2.82-8.778,2.19-5,.94-1.561,6.26-7.829-3.742-13.158-4.38,2.82,3.759.94,5.01-9.709-2.82-11.278-1.561-8.769,5.639-11.269,6.26-1.578-2.82,0-2.82-1.259-3.759-4.389-1.569,0,4.433.621,5.32-2.82-.94-3.759,1.561,0,5.63-1.25,5.95-5.01-1.561-5.01-1.561l-2.2,1.241-5.63-8.131s17.538,5.32,13.468-2.509-11.6-5.32-14.727-5.63-5.019-3.13-6.9-3.449-4.69,1.569-4.69,1.569l-8.148,4.7-3.759-.3-1.561,2.19-1.569,2.82-3.751,2.5a4.434,4.434,0,0,0-1.773,2.926c-.2,1.88-.621,2.713-1.88,3.325a11.233,11.233,0,0,0-2.722,2.518s-2.3-1.259-3.121.2-2.1,2.084-2.1,2.713-.621,2.3-.621,3.547a7.891,7.891,0,0,0,.833,4.167,4.816,4.816,0,0,0,4.6,1.88c1.055-.417,2.917-4.38,3.13-2.917s1.046,4.38,1.046,4.38a6.986,6.986,0,0,1,2.3,2.3c.833,1.463,0,2.509-.213,3.547s2.926,0,3.343-.833,3.343-1.88,3.759-6.473,2.926-2.093,3.547-2.093-.63-3.547-1.472-4.788-1.037-5.019,1.472-5.852,5.843-9.806,8.352-6.685-.63,4.185-3.759,6.9-1.676,3.963-1.055,5.214.426,2.093,1.259,2.926,1.046,1.037,3.547.408,5-2.908,6.26-1.871,1.463,2.5-.2,2.5-3.972.213-5.018,1.25-2.288-.2-1.25,2.509-.417,2.722-2.084,1.259-2.926,1.463-2.305,3.13.213,2.713-1.667,3.13-1.259,2.084-2.5,1.463-2.509-.426-4.185.417-2.713,1.88-3.547.833a2.412,2.412,0,0,0-2.722-.63,5.16,5.16,0,0,1-3.334.417c-1.463-.417-.834-3.334-.213-3.759s.63-2.509.63-3.13-1.25-3.13-3.343-.63-.621,4.185-.621,6.481-.638,1.454-2.518,1.667-3.13.63-3.13,2.3.63,2.713-.63,2.917a4.079,4.079,0,0,0-2.66,1.676c-.63.833,0,.833-1.889,2.084a9.3,9.3,0,0,1-3.759,1.463l-3.174,1.091-2.5,1.676,2.935,2.5s5.01,6.26,2.084,7.723-2.722.833-6.9-.417-2.492.621-3.759,2.3-1.667,7.093-1.667,7.093l2.713,5.843,3.768,1.046,2.288-.621,3.981-.842,1.454-2.084,1.259-4.176s2.917-2.5,4.38-2.917-1.046-5.222,4.593-3.547,2.3-4.593,5.01-2.917,2.092,3.13,2.092,3.13l4.8,3.547,2.093,1.454,1.25,1.259a9.5,9.5,0,0,1,0,4.389c-.63,1.676,2.3-1.472,2.3-1.472l.842-1.88-.63-2.084,2.3,1.667.63-1.454-2.3-2.367-2.3-.833-3.547-2.926-1.871-3.13.2-2.084,3.13,1.658,6.269,4.185,1.88,3.547,2.926,6.677.833,2.926,2.926-.842-.833-3.751v-2.5l5.222-1.055-.63,3.343,1.871,3.343,2.926,1.25,1.463-2.288,1.871,1.25,2.935,1.667,3.343.833,1.25.621L296.4,294.3l-1.25,3.547-2.305,2.713-4.176-.833-2.713,1.88-4.593-1.88-1.463.417-1.454-1.454-2.509-.63s-2.722-1.259-4.389.833-1.046,3.759-1.046,3.759-2.713-1.88-4.176-2.092a3.369,3.369,0,0,1-2.713-2.5c-.213-1.046-3.759-1.259-6.685-1.88s-1.25-3.139-.213-3.759,1.259-3.972-.417-4.389-3.963.417-6.889.63-10.445,1.676-12.316,3.139-6.969,1.073-6.57-.4c-.887,1.472-3.9,5.941-5.967,4.992-2.713-1.25-1.037,4.584-.833,6.88s-4.185,2.509-5.639,3.547-6.269,8.14-5.843,15.029,2.288,8.14-.426,12.732,1.046,3.547-.2,5.63,6.889,2.926,6.889,7.936,4.6,2.3,7.936,5.843,6.473-1.667,8.982,0,8.769-7.51,12.112,0,9.186-1.871,6.685,10.64c0,0,4.8,6.047,5.435,13.566s3.963,5.639,2.084,8.556-5.435,3.768-1.046,16.084,2.926,3.955,2.713,10.427,6.677,11.482,5.435,15.029,3.759,5.435,10.232,2.305,12.741-7.519,12.741-18.168l4.593-2.3-.638-9.177,4.77-4.167s7.315-3.343,2.509-14.816c0,0-2.722-10.64,6.685-21.28,0,0,12.732-11.482,11.686-21.28l-8.769,2.722-1.676.408-1.241-2.917-1.472-1.88-5.214-4.38-2.722-7.306-2.092-2.926-.621-3.963-2.092-2.3-1.037-7.093,2.084-2.3,3.13,7.306s2.092,3.13,1.88,5.223,3.343,4.176,3.972,7.306,1.88,11.473,8.148,9.6l8.388-3.972s2.713-3.972,5.01-3.352,3.13-3.963,4.389-3.963,1.454-4.8,1.454-4.8l2.092-3.547-3.963-2.075-1.88-3.963-3.547,3.13-3.121.833-3.547-3.547-2.713-5.426,3.343-3.547,3.759,5.843,3.139,1.25,3.334-.417,1.88,2.084a15.96,15.96,0,0,0,7.936,1.676c3.972-.417,8.769,1.463,9.195,4.38s6.473,6.464,6.473,6.464l2.084,12.112s2.3,13.566,6.473,10.64,2.509.63,3.547,3.343,4.593.63,2.3-5.214-2.5-10.64-1.259-13.158,5.444-2.3,11.7-10.019,10.028,4.806,10.028,8.14,7.093,4.389,7.093,14.187,6.269,12.529,3.343,13.149-9.186-7.093-9.815-3.963,7.936,6.473,8.352,9.6,9.6,10.055,9.6,10.055l1.667-5.223-1.88-3.13-2.926-2.713.842-6.889-3.547-5.01-1.463-2.288-2.305-4.6.887-4.8a25.806,25.806,0,0,0,3.963,1.046c.833,0,3.13,4.584,3.13,4.584l-.621,2.3,2.5-1.037,1.88-3.972,2.713-2.7s1.25-4.389-4.8-11.066,5.018-5.222,5.852-5.426,6.881-2.3,6.881-2.3,10.64-1.676,12.741-18.372c0,0-.629-8.556-2.288-8.352s1.241-4.806,3.121-4.806,0-4.167,1.889-4.167,6.677,1.88,6.677,3.963,0,1.046-1.463,4.433,5.639.417,5.435-1.25-2.926-9.4.417-12.945,5.01-3.768,6.685-3.139,6.26-13.566,10.436-18.363-.2,8.556-.2,11.057c0,1.587,1.587,1.419,3.077.231Z" transform="translate(-29.097 -164.401)" fill="#b5abdb"/>
            <path id="Trazado_119810" data-name="Trazado 119810" d="M448.238,389.485l.621,2.3,2.084-1.25,1.463-5.639,2.305-2.3,1.037-2.084-.833-3.343v-3.139l1.259-2.084-1.463-2.7L454.5,365.9l-1.667,3.963-2.926,3.13-3.963,1.037-1.463,3.759-3.139,1.88-1.88.842.621,4.584,2.092,3.759,2.722.63,2.5-.213Z" transform="translate(-55.013 -185.029)" fill="#b5abdb"/>
            <path id="Trazado_119811" data-name="Trazado 119811" d="M499.258,392.007c-1.587-1.17-3.156-2.261-3.5-2.926-.408-.842-2.084-1.259-3.334-.842s-3.972.842-4.806,1.463-1.046,3.751-1.046,3.751,9.815,4.806,5.852,6.473-1.676,3.759.2,3.759,4.806-2.509,5.639-.621a1.552,1.552,0,0,0,.993.887Z" transform="translate(-60.352 -187.542)" fill="#b5abdb"/>
            <path id="Trazado_119812" data-name="Trazado 119812" d="M494.882,413.253a1.835,1.835,0,0,1-.364-1.02,9.2,9.2,0,0,0-1.259-3.963s-3.547-.2-1.88,14.187l-.674-.355c-1.1-.6-3.245-1.862-3.706-2.775-.63-1.25-4.6-2.3-4.6-2.3l3.139-4.806s-6.889-4.593-9.611-2.713-1.037,5.435-2.288,6.685-2.305-.2-4.815-.417-6.047,3.759-6.677,5.426-3.972,5.426-7.093,5.426-7.093,3.972-7.093,7.723,3.139,9.6,2.713,13.362,3.343,5.426.629,7.093-.417,4.593,5.852.417,7.519-3.547,10.64-3.334,7.936-2.509,9.611,0,2.713,2.288,5.843,3.547,4.806.408,4.806,3.13,4.806,2.509,5.843,4.806a6.211,6.211,0,0,0,.993,1.445Z" transform="translate(-55.976 -189.831)" fill="#b5abdb"/>
            <path id="Trazado_119813" data-name="Trazado 119813" d="M437.419,398.62l3.13,1.046,4.38-.629,2.722,1.463.621,1.463,6.056.621,2.722-.621,2.713,1.25,5.639.2-1.463,2.093-5.223.833-6.685-1.046h-3.963l-2.713-1.25-3.343-1.88-3.972.833-3.759-1.454Z" transform="translate(-54.425 -188.737)" fill="#b5abdb"/>
            <path id="Trazado_119814" data-name="Trazado 119814" d="M498.066,287.161c-.612-.417-1.1-.692-1.1-.692l-2.5-1.88.2,2.509a3.219,3.219,0,0,1-1.454.621c-.629,0-1.463,1.676-1.055,2.926s.213,2.722.426,3.972-.213,3.751-2.509,4.38-2.509,0-2.509,0l-1.046,6.26s-4.38,1.88-5.426,1.88-2.5,1.25-4.38,2.713.833,8.352.833,7.306,2.509-3.13,3.334-5.01,7.093-1.676,8.991-1.676,3.343-8.556,3.963-10.64,0-4.38-.621-6.677,4.176,1.871,4.176,0a1.578,1.578,0,0,1,.674-1.33Z" transform="translate(-59.16 -175.814)" fill="#b5abdb"/>
            <path id="Trazado_119815" data-name="Trazado 119815" d="M139.694,183.27l9.753,4.158,5.648,7.98,5.941,5.941-1.773,4.744.293,5.054-4.167,2.97,7.785,10.161s3.547,2.97,4.744,2.97,5.648-4.158,5.648-5.054,3.272-8.308,3.272-8.308l10.986-6.207,7.421-1.188,4.753-2.66,2.376-4.744-2.66-4.433,4.433-6.526,4.158-2.084.6-10.383,2.376-3.866,1.773-3.857s-7.98.594-9.807.887-7.705,2.97-8.867.3-1.481-5.639-3.866-5.639h-9.54c-1.481,0-3.857.293-5.941.293s-.585-2.376-4.158-1.773-3.857.3-6.535,2.376-3.547,1.773-5.932,2.376-3.866,0-5.941-.3.293-4.15-5.941.887-8.326,3.857-10.1,6.207-9.505,3.263-9.505,3.263-2.376-.594-1.188,2.376,2.66,7.43,5.32,7.714S139.694,183.27,139.694,183.27Z" transform="translate(-19.419 -161.909)" fill="#b5abdb"/>
          </g>
          <g id="Grupo_58703" data-name="Grupo 58703" transform="translate(54.733)">
            <path id="Trazado_119816" data-name="Trazado 119816" d="M346.145,314.985c-5.949-8.131-6.951-13.734-7.661-35.467-.621-18.992,2.66-35.254-1.623-59.539-1.028-5.852-25.713-13.371-25.412,34.58,0,0,2.589,23.638-.426,26.689-3.591,3.635-15.455-46.373-91.539-46.373-22.947,0-19.657,21.209-19.125,51.338.559,31.344-.94,42.719-.94,42.719s18.283,31.4,74.028,36.211c29.411,2.545,39.27,14.3,71.518,36.752L376,345.779S355.216,327.372,346.145,314.985Z" transform="translate(-82.54 -100.608)" fill="#f4d7a6" stroke="#000" stroke-linecap="round" stroke-linejoin="round" stroke-width="1"/>
            <g id="Grupo_58692" data-name="Grupo 58692" transform="translate(222.712 215.646)">
              <path id="Trazado_119817" data-name="Trazado 119817" d="M480.241,412.217l-112.6-83.107L318.78,393.774l112.81,83.267h48.651Z" transform="translate(-318.78 -329.11)" fill="#472ea6" stroke="#000" stroke-linecap="round" stroke-linejoin="round" stroke-width="1"/>
              <path id="Trazado_119818" data-name="Trazado 119818" d="M357.394,360,330.75,395.289l33.693,23.94C353.528,400.849,350.78,379.1,357.394,360Z" transform="translate(-320.137 -332.611)" fill="#ededed" opacity="0.1"/>
              <path id="Trazado_119819" data-name="Trazado 119819" d="M485.751,412.217,373.144,329.11l-5.754,7.616a111.946,111.946,0,0,1,17.618,10.241A108.545,108.545,0,0,1,415.58,380.04c15.41,21.794,43.172,66.012,46.878,97.045h23.293Z" transform="translate(-324.289 -329.11)" fill="#27127a"/>
            </g>
            <g id="Grupo_58693" data-name="Grupo 58693" transform="translate(120.462 97.914)">
              <rect id="Rectángulo_5213" data-name="Rectángulo 5213" width="122.608" height="183.3" transform="translate(0)" fill="#12263f" stroke="#000" stroke-linecap="round" stroke-linejoin="round" stroke-width="1"/>
              <rect id="Rectángulo_5214" data-name="Rectángulo 5214" width="122.608" height="145.564" transform="translate(0 13.477)" fill="#ffe9d3" stroke="#000" stroke-linecap="round" stroke-linejoin="round" stroke-width="1"/>
              <path id="Trazado_119820" data-name="Trazado 119820" d="M203.46,211.53V357.085h122.6V211.53ZM319.409,349.193H210.145V219.421H319.409Z" transform="translate(-203.46 -198.053)" fill="#12263f" opacity="0.14"/>
              <path id="Trazado_119821" data-name="Trazado 119821" d="M279.442,388.467a7.856,7.856,0,1,1-7.856-7.847A7.856,7.856,0,0,1,279.442,388.467Z" transform="translate(-210.291 -217.217)" fill="#fff" stroke="#000" stroke-linecap="round" stroke-linejoin="round" stroke-width="1"/>
              <path id="Trazado_119822" data-name="Trazado 119822" d="M271.586,380.62a7.847,7.847,0,1,0,5.554,2.3,7.856,7.856,0,0,0-5.554-2.3Zm0,12.715a2.019,2.019,0,1,1,0,.035Z" transform="translate(-210.291 -217.217)" fill="#d5d5d5"/>
              <path id="Trazado_119823" data-name="Trazado 119823" d="M305.284,196.33a138.319,138.319,0,0,1-2.66,69.364,139.419,139.419,0,0,1-99.164,101.47v12.413h122.6V196.33Z" transform="translate(-203.46 -196.33)" fill="#12263f" opacity="0.11"/>
              <path id="Trazado_119824" data-name="Trazado 119824" d="M238.328,224.058a110.62,110.62,0,0,1,26.13-19.338H210.23v67.1a111.09,111.09,0,0,1,28.1-47.765Z" transform="translate(-204.227 -197.281)" fill="#e0e5f5" opacity="0.4"/>
            </g>
            <g id="Grupo_58694" data-name="Grupo 58694" transform="translate(305.207 149.447)">
              <path id="Trazado_119825" data-name="Trazado 119825" d="M480.182,288.631A34.181,34.181,0,1,1,446,254.45,34.181,34.181,0,0,1,480.182,288.631Z" transform="translate(-411.82 -254.45)" fill="#cd0a45" stroke="#000" stroke-miterlimit="10" stroke-width="1"/>
              <path id="Trazado_119826" data-name="Trazado 119826" d="M471.732,289.866a24.516,24.516,0,1,1-24.516-24.516A24.516,24.516,0,0,1,471.732,289.866Z" transform="translate(-413.053 -255.685)" fill="#fff" stroke="#000" stroke-linecap="round" stroke-linejoin="round" stroke-width="1"/>
              <path id="Trazado_119827" data-name="Trazado 119827" d="M447.234,265.36a24.516,24.516,0,1,0,24.5,24.507A24.516,24.516,0,0,0,447.234,265.36Zm0,45.894a21.377,21.377,0,1,1,21.378-21.386A21.377,21.377,0,0,1,447.234,311.254Z" transform="translate(-413.053 -255.686)" fill="#d5d5d5"/>
              <path id="Trazado_119828" data-name="Trazado 119828" d="M420.346,284.72c1.374-10.108,8.37-16.847,17.1-20.721-.355-.071-.709-.133-1.073-.186a17.907,17.907,0,0,0-15.827,29.242A41.454,41.454,0,0,1,420.346,284.72Z" transform="translate(-412.34 -255.495)" fill="#fff" opacity="0.3"/>
              <path id="Trazado_119829" data-name="Trazado 119829" d="M457.486,256.41a32.656,32.656,0,0,1,9.212,22.6,33.09,33.09,0,0,1-32.807,32.807,32.239,32.239,0,0,1-15.712-4.105,34.181,34.181,0,1,0,39.288-51.285Z" transform="translate(-412.541 -254.672)" fill="#12263f" opacity="0.17"/>
              <path id="Trazado_119830" data-name="Trazado 119830" d="M458.166,272.83H440.3v4.939h1.277a25.481,25.481,0,0,1,3.1.2,8.113,8.113,0,0,1,2.66.807,3.938,3.938,0,0,1,1.614,1.552H440.3v4.93h9.257a5.117,5.117,0,0,1-.532,1.507,4.54,4.54,0,0,1-1.818,1.773,8.326,8.326,0,0,1-2.66.887,22.231,22.231,0,0,1-3.449.239h-.523v4.77l10.959,15.916h6.411l-11.7-16.43a10.09,10.09,0,0,0,6.047-3.174,9.984,9.984,0,0,0,2.483-5.488h3.387v-4.93h-3.609a8.959,8.959,0,0,0-.78-2.1c-.08-.16-.168-.31-.257-.461h4.646Z" transform="translate(-415.048 -256.533)" fill="#12263f"/>
            </g>
            <g id="Grupo_58695" data-name="Grupo 58695" transform="translate(0 149.447)">
              <path id="Trazado_119831" data-name="Trazado 119831" d="M135.962,288.631a34.181,34.181,0,1,1-34.181-34.181A34.181,34.181,0,0,1,135.962,288.631Z" transform="translate(-67.6 -254.45)" fill="#27127a" stroke="#000" stroke-linecap="round" stroke-linejoin="round" stroke-width="1"/>
              <path id="Trazado_119832" data-name="Trazado 119832" d="M127.532,289.866a24.516,24.516,0,1,1-24.516-24.516A24.516,24.516,0,0,1,127.532,289.866Z" transform="translate(-68.835 -255.685)" fill="#fff" stroke="#000" stroke-linecap="round" stroke-linejoin="round" stroke-width="1"/>
              <path id="Trazado_119833" data-name="Trazado 119833" d="M103.016,265.36a24.775,24.775,0,1,1-.006,0Zm0,45.894a21.377,21.377,0,1,1,21.377-21.386,21.377,21.377,0,0,1-21.377,21.386Z" transform="translate(-68.835 -255.686)" fill="#d5d5d5"/>
              <path id="Trazado_119834" data-name="Trazado 119834" d="M76.126,284.72C77.5,274.612,84.5,267.873,93.22,264c-.346-.071-.709-.133-1.073-.186a17.733,17.733,0,0,0-19.8,15.322,17.919,17.919,0,0,0,3.981,13.921,41.452,41.452,0,0,1-.2-8.335Z" transform="translate(-68.119 -255.495)" fill="#fff" opacity="0.3"/>
              <path id="Trazado_119835" data-name="Trazado 119835" d="M113.109,304.663H101.032a19.551,19.551,0,0,0-.346-10.578h10.791v-4.433H99.348c-.94-2.9-1.552-5.1,0-8.131,3.786-7.448,12.165-4.38,12.582-4.247l1.516-4.62c-4.868-1.614-13.885-2.288-18.434,6.659a13.814,13.814,0,0,0-1.029,10.339H92.21v4.433H95.3c1.144,3.547,2.11,6.065-.089,10.56h-1.6v4.868h21.4v-4.868Z" transform="translate(-70.389 -256.402)" fill="#12263f"/>
              <path id="Trazado_119836" data-name="Trazado 119836" d="M113.27,256.41a32.656,32.656,0,0,1,9.212,22.6,33.09,33.09,0,0,1-32.807,32.807A32.3,32.3,0,0,1,74,307.695a34.19,34.19,0,1,0,39.3-51.285Z" transform="translate(-68.325 -254.672)" fill="#12263f" opacity="0.17"/>
            </g>
            <g id="Grupo_58696" data-name="Grupo 58696" transform="translate(65.241 35.316)">
              <path id="Trazado_119837" data-name="Trazado 119837" d="M197.926,154.1a28.373,28.373,0,1,1-28.373-28.373A28.373,28.373,0,0,1,197.926,154.1Z" transform="translate(-141.18 -125.73)" fill="#7f43bb" stroke="#000" stroke-linecap="round" stroke-linejoin="round" stroke-width="1"/>
              <circle id="Elipse_4056" data-name="Elipse 4056" cx="20.376" cy="20.376" r="20.376" transform="translate(7.417 48.198) rotate(-88.5)" fill="#fff" stroke="#000" stroke-linecap="round" stroke-linejoin="round" stroke-width="1"/>
              <path id="Trazado_119838" data-name="Trazado 119838" d="M170.533,134.75a20.393,20.393,0,1,0,20.393,20.393A20.393,20.393,0,0,0,170.533,134.75Zm0,38.127a7.344,7.344,0,1,1,0,.018Z" transform="translate(-142.195 -126.752)" fill="#d5d5d5"/>
              <path id="Trazado_119839" data-name="Trazado 119839" d="M148.168,150.833c1.144-8.4,6.96-14.018,14.187-17.219-.293-.062-.594-.115-.887-.16A14.728,14.728,0,0,0,145,146.2a14.887,14.887,0,0,0,3.316,11.527,34.743,34.743,0,0,1-.151-6.889Z" transform="translate(-141.598 -126.592)" fill="#fff" opacity="0.3"/>
              <path id="Trazado_119840" data-name="Trazado 119840" d="M179.055,127.31a27.149,27.149,0,0,1,7.652,18.788,27.487,27.487,0,0,1-27.256,27.256,26.839,26.839,0,0,1-13.061-3.414,28.373,28.373,0,1,0,32.665-42.631Z" transform="translate(-141.77 -125.909)" fill="#12263f" opacity="0.17"/>
              <path id="Trazado_119841" data-name="Trazado 119841" d="M173.672,160.044l9.514-16.554h-4.646l-6.872,12.032-6.881-12.032H160.15l9.505,16.554v1.481h-4.717v3.334h4.717v7.554h4.017v-7.554h4.717v-3.334h-4.717Z" transform="translate(-143.33 -127.743)" fill="#1d1d1b"/>
            </g>
            <g id="Grupo_58697" data-name="Grupo 58697" transform="translate(254.198 37.329)">
              <path id="Trazado_119842" data-name="Trazado 119842" d="M411.161,156.435A28.435,28.435,0,1,1,382.725,128a28.435,28.435,0,0,1,28.435,28.435Z" transform="translate(-354.29 -128)" fill="#ef2a93" stroke="#000" stroke-miterlimit="10" stroke-width="1"/>
              <path id="Trazado_119843" data-name="Trazado 119843" d="M404.146,157.463a20.393,20.393,0,1,1-20.393-20.393A20.393,20.393,0,0,1,404.146,157.463Z" transform="translate(-355.318 -129.028)" fill="#fff" stroke="#000" stroke-linecap="round" stroke-linejoin="round" stroke-width="1"/>
              <path id="Trazado_119844" data-name="Trazado 119844" d="M386.9,162.515l9.594-16.7h-4.682l-6.943,12.138-6.943-12.138H373.25l9.594,16.7v1.5h-4.761v3.36h4.761v1.339h-4.761v3.36h4.761v2.935H386.9v-2.935h4.761v-3.36H386.9v-1.339h4.761v-3.36H386.9Z" transform="translate(-356.439 -130.019)" fill="#12263f"/>
              <path id="Trazado_119845" data-name="Trazado 119845" d="M383.753,137.07a20.393,20.393,0,1,0,20.393,20.393A20.393,20.393,0,0,0,383.753,137.07Zm0,38.18a17.786,17.786,0,1,1,17.786-17.786A17.786,17.786,0,0,1,383.753,175.25Z" transform="translate(-355.318 -129.028)" fill="#d5d5d5"/>
              <path id="Trazado_119846" data-name="Trazado 119846" d="M361.377,153.171c1.144-8.406,6.96-14.027,14.187-17.237-.293-.062-.585-.115-.887-.16a14.736,14.736,0,0,0-16.474,12.75,14.923,14.923,0,0,0,3.352,11.589,34.2,34.2,0,0,1-.177-6.943Z" transform="translate(-354.718 -128.868)" fill="#fff" opacity="0.3"/>
              <path id="Trazado_119847" data-name="Trazado 119847" d="M392.281,129.62a27.194,27.194,0,0,1,7.661,18.806,27.54,27.54,0,0,1-27.283,27.283,26.812,26.812,0,0,1-13.069-3.423,28.444,28.444,0,1,0,32.691-42.666Z" transform="translate(-354.891 -128.184)" fill="#12263f" opacity="0.17"/>
            </g>
            <g id="Grupo_58698" data-name="Grupo 58698" transform="translate(195.35)">
              <path id="Trazado_119848" data-name="Trazado 119848" d="M344.259,114.069A28.169,28.169,0,1,1,316.089,85.9a28.169,28.169,0,0,1,28.169,28.169Z" transform="translate(-287.92 -85.9)" fill="#bb43b0" stroke="#000" stroke-linecap="round" stroke-linejoin="round" stroke-width="1"/>
              <path id="Trazado_119849" data-name="Trazado 119849" d="M337.314,115.087A20.207,20.207,0,1,1,317.107,94.88,20.207,20.207,0,0,1,337.314,115.087Z" transform="translate(-288.938 -86.918)" fill="#fff" stroke="#000" stroke-linecap="round" stroke-linejoin="round" stroke-width="1"/>
              <path id="Trazado_119850" data-name="Trazado 119850" d="M317.107,94.88a20.207,20.207,0,1,0,20.207,20.207A20.207,20.207,0,0,0,317.107,94.88Zm0,37.825a17.618,17.618,0,1,1,17.618-17.618A17.618,17.618,0,0,1,317.107,132.705Z" transform="translate(-288.938 -86.918)" fill="#d5d5d5"/>
              <path id="Trazado_119851" data-name="Trazado 119851" d="M325.589,118.315a6.207,6.207,0,0,0-1.286-1.924,8.947,8.947,0,0,0-1.818-1.383c-.656-.372-1.454-.771-2.376-1.179h-.053v-7.537a3.325,3.325,0,0,1,.887.4,5.532,5.532,0,0,1,1.649,1.9l.133.239,2.58-1.658-.115-.2a7.377,7.377,0,0,0-2.66-2.873,7.094,7.094,0,0,0-2.421-.887v-.887h-2.846v.887a8.744,8.744,0,0,0-1.17.31,7.28,7.28,0,0,0-2.252,1.295,6.055,6.055,0,0,0-1.561,2.039,6.207,6.207,0,0,0-.55,2.66,5.93,5.93,0,0,0,.417,2.3,5.576,5.576,0,0,0,1.179,1.773,8.094,8.094,0,0,0,1.649,1.268c.594.346,1.321.718,2.163,1.108l.124.053v9.505a4.194,4.194,0,0,1-2.1-1.135,5.231,5.231,0,0,1-1.543-3.032v-.293l-3.139.887.053.239a8.024,8.024,0,0,0,2.66,4.673,7.43,7.43,0,0,0,4.079,1.711v.958h2.846v-1.2a7.19,7.19,0,0,0,1.2-.372,7.82,7.82,0,0,0,2.518-1.64,7.351,7.351,0,0,0,1.685-2.465,7.714,7.714,0,0,0,.6-3.032A6.5,6.5,0,0,0,325.589,118.315Zm-5.178-.887a6.42,6.42,0,0,1,1.232.887,3.547,3.547,0,0,1,1.206,2.8,4.15,4.15,0,0,1-.372,1.773,4.433,4.433,0,0,1-1.046,1.419,4.78,4.78,0,0,1-1.374.887V117.3Zm-3.263-4.974a6.968,6.968,0,0,1-1.108-.718,3.13,3.13,0,0,1-.816-.958,2.332,2.332,0,0,1-.3-1.2,3.192,3.192,0,0,1,1.091-2.5,4.132,4.132,0,0,1,1.232-.745v6.207Z" transform="translate(-290.477 -87.761)" fill="#1d1d1b"/>
              <path id="Trazado_119852" data-name="Trazado 119852" d="M294.943,110.833c1.135-8.326,6.9-13.894,14.089-17.068a8.761,8.761,0,0,0-.887-.16,14.594,14.594,0,0,0-16.323,12.626A14.79,14.79,0,0,0,295.1,117.7a34.126,34.126,0,0,1-.16-6.872Z" transform="translate(-288.347 -86.76)" fill="#fff" opacity="0.3"/>
              <path id="Trazado_119853" data-name="Trazado 119853" d="M325.56,87.51a26.892,26.892,0,0,1,7.59,18.62,27.274,27.274,0,0,1-27.026,27.034,26.6,26.6,0,0,1-12.954-3.387A28.169,28.169,0,1,0,325.56,87.51Z" transform="translate(-288.515 -86.082)" fill="#12263f" opacity="0.17"/>
            </g>
            <g id="Grupo_58699" data-name="Grupo 58699" transform="translate(127.148 1.374)">
              <path id="Trazado_119854" data-name="Trazado 119854" d="M265.973,114.937A27.487,27.487,0,1,1,238.487,87.45a27.487,27.487,0,0,1,27.487,27.487Z" transform="translate(-211 -87.45)" fill="#9743bb" stroke="#000" stroke-linecap="round" stroke-linejoin="round" stroke-width="1"/>
              <circle id="Elipse_4057" data-name="Elipse 4057" cx="19.702" cy="19.702" r="19.702" transform="matrix(0.161, -0.987, 0.987, 0.161, 4.868, 43.761)" fill="#fff" stroke="#000" stroke-linecap="round" stroke-linejoin="round" stroke-width="1"/>
              <path id="Trazado_119855" data-name="Trazado 119855" d="M239.482,96.23a19.7,19.7,0,1,0,19.7,19.7A19.7,19.7,0,0,0,239.482,96.23Zm0,36.885a17.184,17.184,0,1,1,17.184-17.184,17.184,17.184,0,0,1-17.184,17.184Z" transform="translate(-211.995 -88.445)" fill="#d5d5d5"/>
              <path id="Trazado_119856" data-name="Trazado 119856" d="M217.852,111.837c1.1-8.122,6.73-13.557,13.743-16.652a8.384,8.384,0,0,0-.887-.151,14.187,14.187,0,0,0-15.916,12.316,14.408,14.408,0,0,0,3.2,11.19,33.143,33.143,0,0,1-.142-6.7Z" transform="translate(-211.415 -88.296)" fill="#fff" opacity="0.3"/>
              <path id="Trazado_119857" data-name="Trazado 119857" d="M236.23,109.72a10.79,10.79,0,0,1,3.2-2.217,9.354,9.354,0,0,1,3.822-.807,10.135,10.135,0,0,1,3.2.532v-3.272a13.141,13.141,0,0,0-3.032-.337,13.344,13.344,0,0,0-5.2,1.029,13.575,13.575,0,0,0-7.244,7.093,12.941,12.941,0,0,0-.47,1.277h-2.048v3.4h1.481v.452a12.556,12.556,0,0,0,.08,1.419H227.7v3.4h3.2l.106.257a13.362,13.362,0,0,0,2.935,4.194,13.832,13.832,0,0,0,4.318,2.82,13.469,13.469,0,0,0,5.169,1.02,12.67,12.67,0,0,0,3.032-.372v-3.281a9.878,9.878,0,0,1-3.13.532,9.55,9.55,0,0,1-3.857-.807,10.179,10.179,0,0,1-4.859-4.362h9.31V118.3H233.419a9.7,9.7,0,0,1-.115-1.516v-.355h11.261v-3.4H234.048a.124.124,0,0,0,0-.053,10.206,10.206,0,0,1,2.181-3.263Z" transform="translate(-212.893 -89.283)" fill="#12263f"/>
              <path id="Trazado_119858" data-name="Trazado 119858" d="M247.713,89a26.254,26.254,0,0,1,7.395,18.168,26.6,26.6,0,0,1-26.352,26.36,25.873,25.873,0,0,1-12.626-3.307A27.487,27.487,0,1,0,247.713,89Z" transform="translate(-211.581 -87.626)" fill="#12263f" opacity="0.17"/>
            </g>
            <g id="Grupo_58700" data-name="Grupo 58700" transform="translate(23.674 85.022)">
              <path id="Trazado_119859" data-name="Trazado 119859" d="M151.135,210.208a28.418,28.418,0,1,1-28.418-28.418A28.418,28.418,0,0,1,151.135,210.208Z" transform="translate(-94.3 -181.79)" fill="#472ea6" stroke="#000" stroke-linecap="round" stroke-linejoin="round" stroke-width="1"/>
              <path id="Trazado_119860" data-name="Trazado 119860" d="M144.117,211.233a20.393,20.393,0,1,1-20.393-20.393A20.393,20.393,0,0,1,144.117,211.233Z" transform="translate(-95.323 -182.816)" fill="#fff" stroke="#000" stroke-linecap="round" stroke-linejoin="round" stroke-width="1"/>
              <path id="Trazado_119861" data-name="Trazado 119861" d="M123.743,190.85a20.393,20.393,0,1,0,20.393,20.393,20.393,20.393,0,0,0-20.393-20.393Zm0,38.127a7.348,7.348,0,1,1,0,.027Z" transform="translate(-95.326 -182.817)" fill="#d5d5d5"/>
              <path id="Trazado_119862" data-name="Trazado 119862" d="M101.388,206.943c1.144-8.406,6.96-14.018,14.187-17.219-.293-.062-.585-.124-.887-.16A14.719,14.719,0,0,0,98.222,202.3a14.9,14.9,0,0,0,3.334,11.58,34.093,34.093,0,0,1-.168-6.934Z" transform="translate(-94.729 -182.657)" fill="#fff" opacity="0.3"/>
              <path id="Trazado_119863" data-name="Trazado 119863" d="M132.265,183.41a27.132,27.132,0,0,1,7.661,18.788,27.487,27.487,0,0,1-27.265,27.265A26.8,26.8,0,0,1,99.6,226.041a28.418,28.418,0,1,0,32.665-42.631Z" transform="translate(-94.901 -181.974)" fill="#12263f" opacity="0.17"/>
              <path id="Trazado_119864" data-name="Trazado 119864" d="M135.1,202.4a7.6,7.6,0,0,0-2.58-3.032,7.98,7.98,0,0,0-3.316-1.348,27.653,27.653,0,0,0-4.15-.275H119.79v13.486h-1.64v3.751h1.587v1.188H118.15v3.963h1.64V227.7h4.167v-7.563h8.512v-3.946h-8.512V215h1.88a17.359,17.359,0,0,0,3.937-.417,7.882,7.882,0,0,0,3.254-1.623,7.731,7.731,0,0,0,2.19-2.944,9.23,9.23,0,0,0,.754-3.653,9.132,9.132,0,0,0-.869-3.955Zm-3.724,6.207a3.546,3.546,0,0,1-1.259,1.428,5.816,5.816,0,0,1-1.942.789,12.18,12.18,0,0,1-2.509.239h-1.685v-9.381h.727a25.331,25.331,0,0,1,2.908.151,7.147,7.147,0,0,1,2.181.612,3.414,3.414,0,0,1,1.481,1.357,4.956,4.956,0,0,1,.55,2.5A5.249,5.249,0,0,1,131.379,208.611Z" transform="translate(-97.003 -183.599)" fill="#12263f"/>
            </g>
            <g id="Grupo_58701" data-name="Grupo 58701" transform="translate(294.514 85.022)">
              <path id="Trazado_119865" data-name="Trazado 119865" d="M456.507,210.208a28.373,28.373,0,1,1-28.418-28.418A28.373,28.373,0,0,1,456.507,210.208Z" transform="translate(-399.76 -181.79)" fill="#ef2a66" stroke="#000" stroke-linecap="round" stroke-linejoin="round" stroke-width="1"/>
              <path id="Trazado_119866" data-name="Trazado 119866" d="M449.487,211.233a20.393,20.393,0,1,1-20.393-20.393A20.393,20.393,0,0,1,449.487,211.233Z" transform="translate(-400.773 -182.816)" fill="#fff" stroke="#000" stroke-linecap="round" stroke-linejoin="round" stroke-width="1"/>
              <path id="Trazado_119867" data-name="Trazado 119867" d="M429.1,190.85A20.393,20.393,0,1,0,449.5,211.243,20.393,20.393,0,0,0,429.1,190.85Zm0,38.127a7.353,7.353,0,1,1,0,.027Z" transform="translate(-400.774 -182.817)" fill="#d5d5d5"/>
              <path id="Trazado_119868" data-name="Trazado 119868" d="M406.748,206.943c1.144-8.406,6.96-14.018,14.187-17.219-.293-.062-.585-.124-.887-.16A14.719,14.719,0,0,0,403.582,202.3a14.9,14.9,0,0,0,3.334,11.58,34.109,34.109,0,0,1-.169-6.934Z" transform="translate(-400.178 -182.658)" fill="#fff" opacity="0.3"/>
              <path id="Trazado_119869" data-name="Trazado 119869" d="M437.629,183.41A27.132,27.132,0,0,1,445.29,202.2a27.487,27.487,0,0,1-27.265,27.265A26.8,26.8,0,0,1,405,226.041a28.418,28.418,0,1,0,32.665-42.631Z" transform="translate(-400.354 -181.974)" fill="#12263f" opacity="0.17"/>
              <path id="Trazado_119870" data-name="Trazado 119870" d="M438.643,201.417V197.4H424.208v18.895H421.69v3.5h2.518v8.193h4.256V219.8h7.794v-3.5h-7.794v-3.006h9.86v-4.017h-9.86v-7.856Z" transform="translate(-402.245 -183.559)" fill="#12263f"/>
            </g>
            <g id="Grupo_58702" data-name="Grupo 58702" transform="translate(135.021 141.6)">
              <rect id="Rectángulo_5215" data-name="Rectángulo 5215" width="15.579" height="59.096" transform="translate(11.979 28.923)" fill="#9743bb" stroke="#000" stroke-linecap="round" stroke-linejoin="round" stroke-width="1"/>
              <rect id="Rectángulo_5216" data-name="Rectángulo 5216" width="7.368" height="59.096" transform="translate(20.18 28.923)" fill="#d9d9d9"/>
              <rect id="Rectángulo_5217" data-name="Rectángulo 5217" width="15.579" height="39.111" transform="translate(31.024 49.884)" fill="#66529d" stroke="#000" stroke-miterlimit="10" stroke-width="1"/>
              <rect id="Rectángulo_5218" data-name="Rectángulo 5218" width="7.874" height="39.111" transform="translate(38.729 49.884)" fill="#d9d9d9"/>
              <rect id="Rectángulo_5219" data-name="Rectángulo 5219" width="15.579" height="51.843" transform="translate(50.079 37.151)" fill="#9182ca" stroke="#000" stroke-linecap="round" stroke-linejoin="round" stroke-width="1"/>
              <rect id="Rectángulo_5220" data-name="Rectángulo 5220" width="7.749" height="51.843" transform="translate(57.908 37.151)" fill="#d9d9d9"/>
              <rect id="Rectángulo_5221" data-name="Rectángulo 5221" width="15.579" height="30.528" transform="translate(69.133 58.467)" fill="#ef2a66" stroke="#000" stroke-linecap="round" stroke-linejoin="round" stroke-width="1"/>
              <rect id="Rectángulo_5222" data-name="Rectángulo 5222" width="7.829" height="30.528" transform="translate(76.874 58.467)" fill="#d9d9d9"/>
              <path id="Trazado_119871" data-name="Trazado 119871" d="M224.606,331.686V245.6H219.88v90.821h93.162v-4.735Z" transform="translate(-219.88 -245.6)" fill="#2b3b8e" stroke="#000" stroke-linecap="round" stroke-linejoin="round" stroke-width="1"/>
              <path id="Trazado_119872" data-name="Trazado 119872" d="M231.98,270.55l15.65-8.37,13.256,25,18.194-18.061,19.09,25.181,14.284-16.137" transform="translate(-221.251 -247.479)" fill="none" stroke="#000" stroke-linecap="round" stroke-linejoin="round" stroke-width="1"/>
              <path id="Trazado_119873" data-name="Trazado 119873" d="M232.755,273.154a2.536,2.536,0,1,1,1.01-1.659A2.536,2.536,0,0,1,232.755,273.154Z" transform="translate(-220.882 -248.203)" fill="#2b3b8e" stroke="#000" stroke-linecap="round" stroke-linejoin="round" stroke-width="1"/>
              <path id="Trazado_119874" data-name="Trazado 119874" d="M286.035,271.934a2.527,2.527,0,1,1,1.014-1.659A2.536,2.536,0,0,1,286.035,271.934Z" transform="translate(-226.921 -248.065)" fill="#2b3b8e" stroke="#000" stroke-linecap="round" stroke-linejoin="round" stroke-width="1"/>
              <path id="Trazado_119875" data-name="Trazado 119875" d="M266.142,292.213a2.536,2.536,0,1,1,1.01-1.659,2.545,2.545,0,0,1-1.01,1.659Z" transform="translate(-224.664 -250.362)" fill="#2b3b8e" stroke="#000" stroke-linecap="round" stroke-linejoin="round" stroke-width="1"/>
              <path id="Trazado_119876" data-name="Trazado 119876" d="M250.485,264.224a2.536,2.536,0,1,1,1.01-1.659,2.536,2.536,0,0,1-1.01,1.659Z" transform="translate(-222.892 -247.191)" fill="#2b3b8e" stroke="#000" stroke-linecap="round" stroke-linejoin="round" stroke-width="1"/>
              <path id="Trazado_119877" data-name="Trazado 119877" d="M307.812,300.123a2.536,2.536,0,1,1,1.01-1.659A2.545,2.545,0,0,1,307.812,300.123Z" transform="translate(-229.387 -251.259)" fill="#2b3b8e" stroke="#000" stroke-linecap="round" stroke-linejoin="round" stroke-width="1"/>
              <path id="Trazado_119878" data-name="Trazado 119878" d="M323.622,281.563a2.536,2.536,0,1,1,1.01-1.659A2.545,2.545,0,0,1,323.622,281.563Z" transform="translate(-231.178 -249.155)" fill="#2b3b8e" stroke="#000" stroke-linecap="round" stroke-linejoin="round" stroke-width="1"/>
            </g>
            <path id="Trazado_119879" data-name="Trazado 119879" d="M239.38,285.768c-.16,6.207-5.71,11.11-12.413,10.968l-31.787-.7c-6.677-.142-11.97-5.32-11.81-11.527h0c.16-6.207,5.7-11.11,12.413-10.959l31.778.692C234.246,274.392,239.531,279.561,239.38,285.768Z" transform="translate(-80.72 -107.167)" fill="#f4d7a6" stroke="#000" stroke-linecap="round" stroke-linejoin="round" stroke-width="1"/>
            <path id="Trazado_119880" data-name="Trazado 119880" d="M239.505,258.123c.452,6.207-4.584,11.527-11.261,11.97l-31.716,2c-6.668.417-12.413-4.265-12.892-10.445h0c-.452-6.207,4.584-11.527,11.252-11.97l31.716-1.995C233.272,247.261,239.017,251.943,239.505,258.123Z" transform="translate(-80.748 -104.233)" fill="#f4d7a6" stroke="#000" stroke-linecap="round" stroke-linejoin="round" stroke-width="1"/>
            <path id="Trazado_119881" data-name="Trazado 119881" d="M240.429,313.682c-.887,6.145-6.934,10.48-13.566,9.682l-31.521-3.8c-6.632-.789-11.3-6.428-10.445-12.582h0c.887-6.153,6.934-10.489,13.566-9.691l31.521,3.8C236.616,301.89,241.289,307.529,240.429,313.682Z" transform="translate(-80.882 -109.847)" fill="#f4d7a6" stroke="#000" stroke-linecap="round" stroke-linejoin="round" stroke-width="1"/>
            <path id="Trazado_119882" data-name="Trazado 119882" d="M236.113,340.367c-1.41,6.056-7.847,9.922-14.382,8.609L190.7,342.77c-6.535-1.3-10.693-7.279-9.283-13.344h0c1.4-6.065,7.847-9.922,14.382-8.618l31.033,6.207c6.535,1.3,10.693,7.28,9.283,13.3Z" transform="translate(-80.468 -112.495)" fill="#f4d7a6" stroke="#000" stroke-linecap="round" stroke-linejoin="round" stroke-width="1"/>
          </g>
        </g>
      </g>
    </g>
  </g>
</svg>
