<svg xmlns="http://www.w3.org/2000/svg" width="813.742" height="363.07" viewBox="0 0 813.742 363.07">
  <g id="Grupo_124798" data-name="Grupo 124798" transform="translate(-359.999 -5141)">
    <g id="Grupo_124797" data-name="Grupo 124797">
      <g id="CF8_figura_2" data-name="CF8_figura 2" transform="translate(181.791 5090.1)">
        <path id="Trazado_235335" data-name="Trazado 235335" d="M231.78,389.35H696.13V313.3H231.78a38,38,0,0,0-38,38h0a38,38,0,0,0,38,38.05Z" fill="#fff"/>
        <path id="Trazado_235336" data-name="Trazado 235336" d="M232.61,277.81H697V201.76H232.61a38,38,0,0,0-38,38h0a38,38,0,0,0,38,38.05Z" fill="#fff"/>
        <path id="Trazado_235337" data-name="Trazado 235337" d="M231.78,166.27H782.33V90.22H231.78a38,38,0,0,0-38,38h0a38,38,0,0,0,38,38.05Z" fill="#fff"/>
        <path id="Trazado_235338" data-name="Trazado 235338" d="M863.16,190.91,637.11,302.44l58.12-100.68L782.33,50.9Z" fill="#ffb33c"/>
        <path id="Trazado_235339" data-name="Trazado 235339" d="M863.16,190.91,637.11,302.44l58.12-100.68L782.33,50.9Z" fill="#7f4813" opacity="0.2"/>
        <path id="Trazado_235340" data-name="Trazado 235340" d="M630.84,313.3,869.43,201.76l58.13,100.68L572.71,413.97Z" fill="#ff3752"/>
        <path id="Trazado_235341" data-name="Trazado 235341" d="M630.84,313.3,869.43,201.76l58.13,100.68L572.71,413.97Z" fill="#781533" opacity="0.3"/>
        <path id="Trazado_235342" data-name="Trazado 235342" d="M695.23,201.76,637.11,302.44H927.56L869.43,201.76Z" fill="#f25585"/>
        <path id="Trazado_235343" data-name="Trazado 235343" d="M863.16,190.91,782.33,50.9,701.5,190.91Z" fill="#fda551"/>
        <path id="Trazado_235344" data-name="Trazado 235344" d="M991.95,413.97,933.83,313.3H630.84L572.71,413.97Z" fill="#6c58b8"/>
        <path id="Trazado_235345" data-name="Trazado 235345" d="M782.33,413.97H991.95L933.83,313.3H782.33Z" opacity="0.2"/>
        <path id="Trazado_235346" data-name="Trazado 235346" d="M782.33,201.76V302.44H927.56L869.43,201.76Z" opacity="0.2"/>
        <path id="Trazado_235347" data-name="Trazado 235347" d="M863.16,190.91,782.33,50.9V190.91Z" opacity="0.1"/>
        <g id="Grupo">
          <path id="Trazado_235383" data-name="Trazado 235383" d="M10.9-4.061A4.708,4.708,0,0,1,9.4-.927,4.911,4.911,0,0,1,6.047.176,4.509,4.509,0,0,1,2.413-1.45,6.542,6.542,0,0,1,1.046-5.8v-1.23a7.291,7.291,0,0,1,.637-3.138,4.76,4.76,0,0,1,1.806-2.079A5.029,5.029,0,0,1,6.2-12.973a4.624,4.624,0,0,1,3.27,1.138A4.765,4.765,0,0,1,10.9-8.684H9.2a3.677,3.677,0,0,0-.954-2.222A2.885,2.885,0,0,0,6.2-11.593a3.019,3.019,0,0,0-2.536,1.2,5.492,5.492,0,0,0-.918,3.4v1.24a5.645,5.645,0,0,0,.87,3.316A2.812,2.812,0,0,0,6.047-1.2,3.247,3.247,0,0,0,8.2-1.841a3.536,3.536,0,0,0,1-2.219ZM12.981-.853a1.018,1.018,0,0,1,.25-.7.954.954,0,0,1,.751-.281.983.983,0,0,1,.76.281,1,1,0,0,1,.259.7.944.944,0,0,1-.259.677,1,1,0,0,1-.76.272.971.971,0,0,1-.751-.272A.962.962,0,0,1,12.981-.853Z" transform="translate(767.48 132.95)" fill="#fff"/>
          <path id="Trazado_235379" data-name="Trazado 235379" d="M3.173-5.01V0H1.485V-12.8h4.72A4.742,4.742,0,0,1,9.5-11.725a3.635,3.635,0,0,1,1.191,2.839,3.587,3.587,0,0,1-1.165,2.87A4.954,4.954,0,0,1,6.188-5.01Zm0-1.38H6.205a3.032,3.032,0,0,0,2.074-.638A2.334,2.334,0,0,0,9-8.873,2.411,2.411,0,0,0,8.279-10.7,2.84,2.84,0,0,0,6.3-11.417H3.173Z" transform="translate(783.93 132.95)" fill="#fff"/>
          <text id="_." data-name="." transform="translate(792.44 132.95)" fill="#fff" font-size="18" font-family="Roboto-Regular, Roboto"><tspan x="0" y="0">.</tspan></text>
          <path id="Trazado_235381" data-name="Trazado 235381" d="M3.182-1.38H9.246V0H1.485V-12.8h1.7Z" transform="translate(748.65 154.55)" fill="#fff"/>
          <path id="Trazado_235382" data-name="Trazado 235382" d="M5.177.176A4.155,4.155,0,0,1,2.03-1.094a4.714,4.714,0,0,1-1.213-3.4v-.3a5.707,5.707,0,0,1,.541-2.527A4.217,4.217,0,0,1,2.87-9.057a3.8,3.8,0,0,1,2.1-.628A3.562,3.562,0,0,1,7.857-8.464a5.289,5.289,0,0,1,1.028,3.5v.677H2.443a3.38,3.38,0,0,0,.822,2.272,2.583,2.583,0,0,0,2,.866A2.832,2.832,0,0,0,6.724-1.5,3.666,3.666,0,0,0,7.77-2.435l.993.773A3.993,3.993,0,0,1,5.177.176Zm-.2-8.525a2.169,2.169,0,0,0-1.652.716A3.482,3.482,0,0,0,2.5-5.625H7.26v-.123a3.1,3.1,0,0,0-.668-1.92A2.042,2.042,0,0,0,4.975-8.35Z" transform="translate(758.33 154.55)" fill="#fff"/>
          <path id="Trazado_235380" data-name="Trazado 235380" d="M4.342-2.382,6.557-9.51H8.3L4.474,1.468Q3.586,3.841,1.652,3.841l-.308-.026L.738,3.7V2.382l.439.035a2.164,2.164,0,0,0,1.288-.334A2.417,2.417,0,0,0,3.226.861l.36-.967L.193-9.51H1.969ZM20.268-5.625a3.978,3.978,0,0,1-1.217.976A3.3,3.3,0,0,1,17.5-4.28a3.41,3.41,0,0,1-1.929-.545A3.543,3.543,0,0,1,14.3-6.359a5.229,5.229,0,0,1-.448-2.184,5.327,5.327,0,0,1,.488-2.312,3.583,3.583,0,0,1,1.384-1.573,3.947,3.947,0,0,1,2.092-.545,3.574,3.574,0,0,1,2.993,1.419A6.191,6.191,0,0,1,21.9-7.682v.475q0,3.735-1.477,5.454A5.673,5.673,0,0,1,15.97.009h-.316v-1.38H16A4.476,4.476,0,0,0,19.09-2.419,4.5,4.5,0,0,0,20.268-5.625Zm-2.5,0a2.511,2.511,0,0,0,1.507-.5,2.953,2.953,0,0,0,1.006-1.239v-.65a4.474,4.474,0,0,0-.694-2.6,2.072,2.072,0,0,0-1.758-1A2.088,2.088,0,0,0,16.1-10.8a3.39,3.39,0,0,0-.65,2.167,3.528,3.528,0,0,0,.628,2.158A1.99,1.99,0,0,0,17.763-5.625Zm9.932.853H23.405V-6.1h4.289Zm7.646-.853a3.978,3.978,0,0,1-1.217.976,3.3,3.3,0,0,1-1.551.369,3.41,3.41,0,0,1-1.929-.545,3.543,3.543,0,0,1-1.27-1.534,5.229,5.229,0,0,1-.448-2.184,5.327,5.327,0,0,1,.488-2.312A3.583,3.583,0,0,1,30.8-12.428a3.947,3.947,0,0,1,2.092-.545,3.574,3.574,0,0,1,2.993,1.419,6.191,6.191,0,0,1,1.094,3.872v.475q0,3.735-1.477,5.454A5.673,5.673,0,0,1,31.043.009h-.316v-1.38h.343a4.476,4.476,0,0,0,3.094-1.048A4.5,4.5,0,0,0,35.341-5.625Zm-2.5,0a2.511,2.511,0,0,0,1.507-.5A2.953,2.953,0,0,0,35.35-7.365v-.65a4.474,4.474,0,0,0-.694-2.6,2.072,2.072,0,0,0-1.758-1,2.088,2.088,0,0,0-1.723.822,3.39,3.39,0,0,0-.65,2.167,3.528,3.528,0,0,0,.628,2.158A1.99,1.99,0,0,0,32.836-5.625ZM44.561,0H42.926V-10.837l-3.278,1.2v-1.477l4.658-1.749h.255Z" transform="translate(767.75 154.55)" fill="#fff"/>
        </g>
        <g id="Grupo-2" data-name="Grupo">
          <path id="Trazado_235387" data-name="Trazado 235387" d="M1.485,0V-12.8H5.1a5.815,5.815,0,0,1,2.953.738,4.993,4.993,0,0,1,1.982,2.1,6.837,6.837,0,0,1,.708,3.129v.817a6.861,6.861,0,0,1-.7,3.173,4.915,4.915,0,0,1-2,2.092A6.185,6.185,0,0,1,5.027,0ZM3.173-11.417V-1.38H4.948A3.863,3.863,0,0,0,7.985-2.594,5.016,5.016,0,0,0,9.07-6.051V-6.8A5.1,5.1,0,0,0,8.046-10.19a3.644,3.644,0,0,0-2.9-1.227ZM16.98.176a4.155,4.155,0,0,1-3.146-1.27,4.714,4.714,0,0,1-1.213-3.4v-.3a5.707,5.707,0,0,1,.541-2.527,4.217,4.217,0,0,1,1.512-1.74,3.8,3.8,0,0,1,2.1-.628,3.562,3.562,0,0,1,2.883,1.222,5.289,5.289,0,0,1,1.028,3.5v.677H14.247a3.38,3.38,0,0,0,.822,2.272,2.583,2.583,0,0,0,2,.866A2.832,2.832,0,0,0,18.527-1.5a3.666,3.666,0,0,0,1.046-.932l.993.773A3.993,3.993,0,0,1,16.98.176Zm-.2-8.525a2.169,2.169,0,0,0-1.652.716A3.482,3.482,0,0,0,14.3-5.625h4.764v-.123a3.1,3.1,0,0,0-.668-1.92A2.042,2.042,0,0,0,16.778-8.35Zm9.606,7.2a2.342,2.342,0,0,0,1.521-.527A1.855,1.855,0,0,0,28.626-3h1.538A2.949,2.949,0,0,1,29.6-1.441,3.7,3.7,0,0,1,28.217-.264a3.994,3.994,0,0,1-1.833.439,3.918,3.918,0,0,1-3.089-1.3,5.163,5.163,0,0,1-1.147-3.546v-.272a5.725,5.725,0,0,1,.51-2.47,3.883,3.883,0,0,1,1.463-1.679,4.157,4.157,0,0,1,2.254-.6,3.814,3.814,0,0,1,2.659.958A3.424,3.424,0,0,1,30.164-6.24H28.626a2.241,2.241,0,0,0-.7-1.516,2.174,2.174,0,0,0-1.551-.593,2.276,2.276,0,0,0-1.92.892,4.19,4.19,0,0,0-.681,2.58v.308a4.106,4.106,0,0,0,.677,2.531A2.287,2.287,0,0,0,26.385-1.151Z" transform="translate(686.22 260.97)" fill="#fff"/>
          <path id="Trazado_235385" data-name="Trazado 235385" d="M5.827-8.051a4.873,4.873,0,0,0-.8-.062A2.143,2.143,0,0,0,2.856-6.75V0H1.23V-9.51H2.813l.026,1.1A2.532,2.532,0,0,1,5.106-9.686a1.661,1.661,0,0,1,.721.123Z" transform="translate(716.98 260.97)" fill="#fff"/>
          <path id="Trazado_235386" data-name="Trazado 235386" d="M5.177.176A4.155,4.155,0,0,1,2.03-1.094a4.714,4.714,0,0,1-1.213-3.4v-.3a5.707,5.707,0,0,1,.541-2.527A4.217,4.217,0,0,1,2.87-9.057a3.8,3.8,0,0,1,2.1-.628A3.562,3.562,0,0,1,7.857-8.464a5.289,5.289,0,0,1,1.028,3.5v.677H2.443a3.38,3.38,0,0,0,.822,2.272,2.583,2.583,0,0,0,2,.866A2.832,2.832,0,0,0,6.724-1.5,3.666,3.666,0,0,0,7.77-2.435l.993.773A3.993,3.993,0,0,1,5.177.176Zm-.2-8.525a2.169,2.169,0,0,0-1.652.716A3.482,3.482,0,0,0,2.5-5.625H7.26v-.123a3.1,3.1,0,0,0-.668-1.92A2.042,2.042,0,0,0,4.975-8.35Z" transform="translate(722.91 260.97)" fill="#fff"/>
          <text id="t" transform="translate(732.44 260.97)" fill="#fff" font-size="18" font-family="Roboto-Regular, Roboto" letter-spacing="-0.01em"><tspan x="0" y="0">t</tspan></text>
          <path id="Trazado_235384" data-name="Trazado 235384" d="M.8-4.843a5.617,5.617,0,0,1,.549-2.514A4.1,4.1,0,0,1,2.878-9.079a4.163,4.163,0,0,1,2.237-.606A4.01,4.01,0,0,1,8.257-8.341a5.174,5.174,0,0,1,1.2,3.577v.114a5.666,5.666,0,0,1-.532,2.492A4.038,4.038,0,0,1,7.4-.439,4.211,4.211,0,0,1,5.133.176,4,4,0,0,1,2-1.169,5.147,5.147,0,0,1,.8-4.729Zm1.635.193a4.068,4.068,0,0,0,.734,2.54,2.349,2.349,0,0,0,1.964.958A2.335,2.335,0,0,0,7.1-2.123a4.449,4.449,0,0,0,.729-2.72,4.061,4.061,0,0,0-.743-2.536A2.361,2.361,0,0,0,5.115-8.35a2.335,2.335,0,0,0-1.942.958A4.416,4.416,0,0,0,2.435-4.649ZM21.129,0H19.494V-10.837l-3.278,1.2v-1.477l4.658-1.749h.255ZM31.236,0H29.6V-10.837l-3.278,1.2v-1.477l4.658-1.749h.255Zm11-5.625a3.978,3.978,0,0,1-1.217.976,3.3,3.3,0,0,1-1.551.369,3.41,3.41,0,0,1-1.929-.545,3.543,3.543,0,0,1-1.27-1.534,5.229,5.229,0,0,1-.448-2.184,5.327,5.327,0,0,1,.488-2.312,3.583,3.583,0,0,1,1.384-1.573,3.947,3.947,0,0,1,2.092-.545,3.574,3.574,0,0,1,2.993,1.419,6.191,6.191,0,0,1,1.094,3.872v.475q0,3.735-1.477,5.454A5.673,5.673,0,0,1,37.934.009h-.316v-1.38h.343a4.476,4.476,0,0,0,3.094-1.048A4.5,4.5,0,0,0,42.231-5.625Zm-2.5,0a2.511,2.511,0,0,0,1.507-.5A2.953,2.953,0,0,0,42.24-7.365v-.65a4.474,4.474,0,0,0-.694-2.6,2.072,2.072,0,0,0-1.758-1,2.088,2.088,0,0,0-1.723.822,3.39,3.39,0,0,0-.65,2.167,3.528,3.528,0,0,0,.628,2.158A1.99,1.99,0,0,0,39.727-5.625Zm9.932.853H45.369V-6.1h4.289ZM56.417,0H54.782V-10.837L51.5-9.633v-1.477l4.658-1.749h.255ZM69.442-11.883,64.143,0H62.438L67.72-11.461H60.794V-12.8h8.648ZM81.088,0H79.453V-10.837l-3.278,1.2v-1.477l4.658-1.749h.255ZM93.876-5.458A7.436,7.436,0,0,1,92.9-1.213,3.47,3.47,0,0,1,89.851.176a3.5,3.5,0,0,1-3.032-1.358A7.058,7.058,0,0,1,85.8-5.238V-7.409a7.271,7.271,0,0,1,.976-4.192,3.5,3.5,0,0,1,3.059-1.371,3.528,3.528,0,0,1,3.041,1.323,7.017,7.017,0,0,1,1,4.083ZM92.25-7.682a5.958,5.958,0,0,0-.58-3.01,2,2,0,0,0-1.837-.945,1.97,1.97,0,0,0-1.819.94A5.817,5.817,0,0,0,87.425-7.8v2.6a6.053,6.053,0,0,0,.6,3.063,1.993,1.993,0,0,0,1.824.989,1.966,1.966,0,0,0,1.789-.932,5.834,5.834,0,0,0,.611-2.936Zm10.09-5.124v1.38h-.3A4.281,4.281,0,0,0,99.018-10.3a4.681,4.681,0,0,0-1.3,3.067,3.471,3.471,0,0,1,2.76-1.16,3.319,3.319,0,0,1,2.667,1.178,4.543,4.543,0,0,1,1,3.041,4.528,4.528,0,0,1-1.077,3.164A3.707,3.707,0,0,1,100.178.176,3.653,3.653,0,0,1,97.2-1.235a5.591,5.591,0,0,1-1.143-3.634v-.624a8.424,8.424,0,0,1,1.507-5.4,5.536,5.536,0,0,1,4.487-1.912ZM100.2-7.04a2.594,2.594,0,0,0-1.538.5,2.61,2.61,0,0,0-.976,1.257v.6A4.2,4.2,0,0,0,98.4-2.136a2.133,2.133,0,0,0,1.775.967,2.067,2.067,0,0,0,1.727-.809,3.355,3.355,0,0,0,.628-2.118,3.356,3.356,0,0,0-.637-2.131A2.042,2.042,0,0,0,100.2-7.04Zm13.623-2.417a2.972,2.972,0,0,1-.505,1.705,3.439,3.439,0,0,1-1.367,1.169,3.668,3.668,0,0,1,1.586,1.257,3.163,3.163,0,0,1,.584,1.872,3.344,3.344,0,0,1-1.121,2.646,4.305,4.305,0,0,1-2.949.984A4.286,4.286,0,0,1,107.1-.813a3.36,3.36,0,0,1-1.112-2.641,3.257,3.257,0,0,1,.567-1.872,3.528,3.528,0,0,1,1.569-1.266,3.354,3.354,0,0,1-1.345-1.169,3.014,3.014,0,0,1-.492-1.7,3.308,3.308,0,0,1,1.037-2.566,3.89,3.89,0,0,1,2.733-.949,3.894,3.894,0,0,1,2.729.949A3.3,3.3,0,0,1,113.827-9.457ZM112.5-3.489a2.359,2.359,0,0,0-.681-1.749,2.416,2.416,0,0,0-1.78-.677,2.373,2.373,0,0,0-1.762.668,2.385,2.385,0,0,0-.664,1.758,2.271,2.271,0,0,0,.646,1.714,2.48,2.48,0,0,0,1.8.624,2.472,2.472,0,0,0,1.793-.628A2.266,2.266,0,0,0,112.5-3.489Zm-2.443-8.147a2.1,2.1,0,0,0-1.551.593,2.179,2.179,0,0,0-.593,1.613,2.169,2.169,0,0,0,.584,1.578,2.074,2.074,0,0,0,1.56.6,2.074,2.074,0,0,0,1.56-.6,2.169,2.169,0,0,0,.584-1.578,2.17,2.17,0,0,0-.606-1.591A2.068,2.068,0,0,0,110.057-11.637Zm9.668,6.864h-4.289V-6.1h4.289ZM126.483,0h-1.635V-10.837l-3.278,1.2v-1.477l4.658-1.749h.255Zm5.511-6.416.65-6.381H139.2v1.5h-5.177L133.638-7.8a4.13,4.13,0,0,1,2.136-.554A3.531,3.531,0,0,1,138.551-7.2a4.53,4.53,0,0,1,1.028,3.125,4.372,4.372,0,0,1-1.068,3.116A3.892,3.892,0,0,1,135.527.176a4.045,4.045,0,0,1-2.769-.94,3.754,3.754,0,0,1-1.222-2.6h1.538a2.582,2.582,0,0,0,.782,1.657,2.432,2.432,0,0,0,1.67.558,2.194,2.194,0,0,0,1.78-.773,3.233,3.233,0,0,0,.646-2.136,2.968,2.968,0,0,0-.7-2.061A2.377,2.377,0,0,0,135.4-6.9a2.681,2.681,0,0,0-1.67.466l-.431.352Z" transform="translate(738.15 260.97)" fill="#fff"/>
          <path id="Trazado_235388" data-name="Trazado 235388" d="M6.179-5.177H3.173V0h-1.7V-12.8H5.713a5.014,5.014,0,0,1,3.327.984A3.542,3.542,0,0,1,10.2-8.947a3.445,3.445,0,0,1-.646,2.083,3.856,3.856,0,0,1-1.8,1.327L10.767-.105V0H8.956ZM3.173-6.557H5.766a2.924,2.924,0,0,0,2-.652,2.2,2.2,0,0,0,.743-1.743A2.32,2.32,0,0,0,7.8-10.774a3,3,0,0,0-2.043-.643H3.173ZM16.26.176a4.155,4.155,0,0,1-3.146-1.27,4.714,4.714,0,0,1-1.213-3.4v-.3a5.707,5.707,0,0,1,.541-2.527,4.217,4.217,0,0,1,1.512-1.74,3.8,3.8,0,0,1,2.1-.628A3.562,3.562,0,0,1,18.94-8.464a5.289,5.289,0,0,1,1.028,3.5v.677H13.526a3.38,3.38,0,0,0,.822,2.272,2.583,2.583,0,0,0,2,.866A2.832,2.832,0,0,0,17.807-1.5a3.666,3.666,0,0,0,1.046-.932l.993.773A3.993,3.993,0,0,1,16.26.176Zm-.2-8.525a2.169,2.169,0,0,0-1.652.716,3.482,3.482,0,0,0-.826,2.008h4.764v-.123a3.1,3.1,0,0,0-.668-1.92A2.042,2.042,0,0,0,16.058-8.35ZM27.387-2.522a1.2,1.2,0,0,0-.5-1.024,4.78,4.78,0,0,0-1.731-.628,8.186,8.186,0,0,1-1.96-.633,2.788,2.788,0,0,1-1.072-.879A2.1,2.1,0,0,1,21.779-6.9a2.467,2.467,0,0,1,.989-1.978,3.861,3.861,0,0,1,2.527-.809,3.974,3.974,0,0,1,2.624.835,2.652,2.652,0,0,1,1.006,2.136H27.29a1.468,1.468,0,0,0-.567-1.151,2.124,2.124,0,0,0-1.428-.483,2.223,2.223,0,0,0-1.389.387,1.217,1.217,0,0,0-.5,1.011.986.986,0,0,0,.466.888,5.731,5.731,0,0,0,1.683.571,8.77,8.77,0,0,1,1.973.65,2.878,2.878,0,0,1,1.121.91,2.237,2.237,0,0,1,.365,1.3,2.434,2.434,0,0,1-1.02,2.043,4.277,4.277,0,0,1-2.646.769,4.789,4.789,0,0,1-2.021-.4,3.288,3.288,0,0,1-1.375-1.129,2.722,2.722,0,0,1-.5-1.569H23.08a1.683,1.683,0,0,0,.655,1.3,2.54,2.54,0,0,0,1.613.479,2.622,2.622,0,0,0,1.481-.374A1.148,1.148,0,0,0,27.387-2.522ZM30.7-4.843a5.617,5.617,0,0,1,.549-2.514,4.1,4.1,0,0,1,1.529-1.723,4.163,4.163,0,0,1,2.237-.606,4.01,4.01,0,0,1,3.142,1.345,5.174,5.174,0,0,1,1.2,3.577v.114a5.666,5.666,0,0,1-.532,2.492A4.038,4.038,0,0,1,37.305-.439a4.211,4.211,0,0,1-2.272.615A4,4,0,0,1,31.9-1.169a5.147,5.147,0,0,1-1.2-3.56Zm1.635.193a4.068,4.068,0,0,0,.734,2.54,2.349,2.349,0,0,0,1.964.958A2.335,2.335,0,0,0,37-2.123a4.449,4.449,0,0,0,.729-2.72,4.061,4.061,0,0,0-.743-2.536,2.361,2.361,0,0,0-1.973-.971,2.335,2.335,0,0,0-1.942.958A4.416,4.416,0,0,0,32.335-4.649ZM43.163,0H41.537V-13.5h1.626Zm8.473-.94A3.454,3.454,0,0,1,48.85.176a2.956,2.956,0,0,1-2.316-.883,3.823,3.823,0,0,1-.8-2.615V-9.51h1.626v6.144q0,2.162,1.758,2.162a2.434,2.434,0,0,0,2.479-1.389V-9.51h1.626V0H51.671ZM59.5-1.151a2.342,2.342,0,0,0,1.521-.527A1.855,1.855,0,0,0,61.743-3h1.538a2.949,2.949,0,0,1-.562,1.556A3.7,3.7,0,0,1,61.334-.264,3.994,3.994,0,0,1,59.5.176a3.918,3.918,0,0,1-3.089-1.3,5.163,5.163,0,0,1-1.147-3.546v-.272a5.725,5.725,0,0,1,.51-2.47,3.883,3.883,0,0,1,1.463-1.679,4.157,4.157,0,0,1,2.254-.6,3.814,3.814,0,0,1,2.659.958A3.424,3.424,0,0,1,63.281-6.24H61.743a2.241,2.241,0,0,0-.7-1.516,2.174,2.174,0,0,0-1.551-.593,2.276,2.276,0,0,0-1.92.892,4.19,4.19,0,0,0-.681,2.58v.308a4.106,4.106,0,0,0,.677,2.531A2.287,2.287,0,0,0,59.5-1.151ZM66.876,0H65.25V-9.51h1.626ZM65.118-12.032a.971.971,0,0,1,.242-.668.907.907,0,0,1,.716-.272.922.922,0,0,1,.721.272.96.96,0,0,1,.246.668.929.929,0,0,1-.246.659.938.938,0,0,1-.721.264.924.924,0,0,1-.716-.264A.938.938,0,0,1,65.118-12.032Zm3.929,7.189A5.617,5.617,0,0,1,69.6-7.356a4.1,4.1,0,0,1,1.529-1.723,4.163,4.163,0,0,1,2.237-.606A4.01,4.01,0,0,1,76.5-8.341a5.174,5.174,0,0,1,1.2,3.577v.114a5.666,5.666,0,0,1-.532,2.492A4.038,4.038,0,0,1,75.652-.439,4.211,4.211,0,0,1,73.38.176a4,4,0,0,1-3.133-1.345,5.147,5.147,0,0,1-1.2-3.56Zm1.635.193a4.068,4.068,0,0,0,.734,2.54,2.349,2.349,0,0,0,1.964.958,2.335,2.335,0,0,0,1.969-.971,4.449,4.449,0,0,0,.729-2.72,4.061,4.061,0,0,0-.743-2.536,2.361,2.361,0,0,0-1.973-.971,2.335,2.335,0,0,0-1.942.958A4.416,4.416,0,0,0,70.682-4.649ZM74.1-13.5h1.969l-2.355,2.584-1.31,0Zm7.181,3.99.053,1.2a3.465,3.465,0,0,1,2.848-1.371q3.015,0,3.041,3.4V0H85.6V-6.293a2.189,2.189,0,0,0-.47-1.521,1.884,1.884,0,0,0-1.437-.492,2.347,2.347,0,0,0-1.389.422,2.865,2.865,0,0,0-.932,1.107V0H79.743V-9.51ZM99.308,0H97.673V-10.837l-3.278,1.2v-1.477l4.658-1.749h.255Zm8.314-4.772h-4.289V-6.1h4.289ZM114.381,0h-1.635V-10.837l-3.278,1.2v-1.477l4.658-1.749h.255Zm12.524-9.457a2.972,2.972,0,0,1-.505,1.705,3.439,3.439,0,0,1-1.367,1.169,3.668,3.668,0,0,1,1.586,1.257,3.163,3.163,0,0,1,.584,1.872,3.344,3.344,0,0,1-1.121,2.646,4.305,4.305,0,0,1-2.949.984,4.286,4.286,0,0,1-2.958-.989,3.36,3.36,0,0,1-1.112-2.641,3.257,3.257,0,0,1,.567-1.872A3.528,3.528,0,0,1,121.2-6.592a3.354,3.354,0,0,1-1.345-1.169,3.014,3.014,0,0,1-.492-1.7,3.308,3.308,0,0,1,1.037-2.566,3.89,3.89,0,0,1,2.733-.949,3.894,3.894,0,0,1,2.729.949A3.3,3.3,0,0,1,126.905-9.457Zm-1.327,5.968a2.359,2.359,0,0,0-.681-1.749,2.416,2.416,0,0,0-1.78-.677,2.373,2.373,0,0,0-1.762.668,2.385,2.385,0,0,0-.664,1.758,2.271,2.271,0,0,0,.646,1.714,2.48,2.48,0,0,0,1.8.624,2.472,2.472,0,0,0,1.793-.628A2.266,2.266,0,0,0,125.578-3.489Zm-2.443-8.147a2.1,2.1,0,0,0-1.551.593,2.179,2.179,0,0,0-.593,1.613,2.169,2.169,0,0,0,.584,1.578,2.074,2.074,0,0,0,1.56.6,2.074,2.074,0,0,0,1.56-.6,2.169,2.169,0,0,0,.584-1.578,2.17,2.17,0,0,0-.606-1.591A2.068,2.068,0,0,0,123.135-11.637Z" transform="translate(718.23 282.57)" fill="#fff"/>
        </g>
        <path id="Trazado_235389" data-name="Trazado 235389" d="M10.9-4.061A4.708,4.708,0,0,1,9.4-.927,4.911,4.911,0,0,1,6.047.176,4.509,4.509,0,0,1,2.413-1.45,6.542,6.542,0,0,1,1.046-5.8v-1.23a7.291,7.291,0,0,1,.637-3.138,4.76,4.76,0,0,1,1.806-2.079A5.029,5.029,0,0,1,6.2-12.973a4.624,4.624,0,0,1,3.27,1.138A4.765,4.765,0,0,1,10.9-8.684H9.2a3.677,3.677,0,0,0-.954-2.222A2.885,2.885,0,0,0,6.2-11.593a3.019,3.019,0,0,0-2.536,1.2,5.492,5.492,0,0,0-.918,3.4v1.24a5.645,5.645,0,0,0,.87,3.316A2.812,2.812,0,0,0,6.047-1.2,3.247,3.247,0,0,0,8.2-1.841a3.536,3.536,0,0,0,1-2.219ZM14.713,0H13.087V-9.51h1.626ZM12.955-12.032A.971.971,0,0,1,13.2-12.7a.907.907,0,0,1,.716-.272.922.922,0,0,1,.721.272.96.96,0,0,1,.246.668.929.929,0,0,1-.246.659.938.938,0,0,1-.721.264.924.924,0,0,1-.716-.264A.938.938,0,0,1,12.955-12.032Zm8.956,3.981a4.873,4.873,0,0,0-.8-.062A2.143,2.143,0,0,0,18.94-6.75V0H17.314V-9.51H18.9l.026,1.1A2.532,2.532,0,0,1,21.19-9.686a1.661,1.661,0,0,1,.721.123Zm4.962,6.9a2.342,2.342,0,0,0,1.521-.527A1.855,1.855,0,0,0,29.114-3h1.538a2.949,2.949,0,0,1-.562,1.556A3.7,3.7,0,0,1,28.705-.264a3.994,3.994,0,0,1-1.833.439,3.918,3.918,0,0,1-3.089-1.3,5.163,5.163,0,0,1-1.147-3.546v-.272a5.725,5.725,0,0,1,.51-2.47A3.883,3.883,0,0,1,24.61-9.088a4.157,4.157,0,0,1,2.254-.6,3.814,3.814,0,0,1,2.659.958A3.424,3.424,0,0,1,30.652-6.24H29.114a2.241,2.241,0,0,0-.7-1.516,2.174,2.174,0,0,0-1.551-.593,2.276,2.276,0,0,0-1.92.892,4.19,4.19,0,0,0-.681,2.58v.308a4.106,4.106,0,0,0,.677,2.531A2.287,2.287,0,0,0,26.873-1.151ZM38.351-.94A3.454,3.454,0,0,1,35.565.176a2.956,2.956,0,0,1-2.316-.883,3.823,3.823,0,0,1-.8-2.615V-9.51h1.626v6.144q0,2.162,1.758,2.162a2.434,2.434,0,0,0,2.479-1.389V-9.51h1.626V0H38.386ZM44.17,0H42.544V-13.5H44.17Zm8.473,0a3.416,3.416,0,0,1-.229-1A3.628,3.628,0,0,1,49.707.176,3.357,3.357,0,0,1,47.4-.62a2.573,2.573,0,0,1-.9-2.017,2.688,2.688,0,0,1,1.129-2.307,5.325,5.325,0,0,1,3.177-.822h1.582v-.747a1.826,1.826,0,0,0-.51-1.358,2.049,2.049,0,0,0-1.5-.505,2.371,2.371,0,0,0-1.459.439,1.3,1.3,0,0,0-.589,1.063H46.692A2.244,2.244,0,0,1,47.2-8.249,3.449,3.449,0,0,1,48.569-9.3a4.613,4.613,0,0,1,1.9-.387,3.759,3.759,0,0,1,2.575.822A2.964,2.964,0,0,1,54.013-6.6v4.377a5.351,5.351,0,0,0,.334,2.083V0Zm-2.7-1.239a2.858,2.858,0,0,0,1.45-.4,2.392,2.392,0,0,0,.993-1.028V-4.614H51.113q-2.988,0-2.988,1.749a1.48,1.48,0,0,0,.51,1.2A1.959,1.959,0,0,0,49.944-1.239ZM61.159-8.051a4.873,4.873,0,0,0-.8-.062A2.143,2.143,0,0,0,58.188-6.75V0H56.562V-9.51h1.582l.026,1.1a2.532,2.532,0,0,1,2.268-1.274,1.661,1.661,0,0,1,.721.123Zm10.9,2.874H69.051V0h-1.7V-12.8h4.236a5.014,5.014,0,0,1,3.327.984,3.542,3.542,0,0,1,1.165,2.865,3.445,3.445,0,0,1-.646,2.083,3.856,3.856,0,0,1-1.8,1.327L76.645-.105V0H74.835Zm-3.006-1.38h2.593a2.924,2.924,0,0,0,2-.652,2.2,2.2,0,0,0,.743-1.743,2.32,2.32,0,0,0-.708-1.823,3,3,0,0,0-2.043-.643H69.051ZM82.138.176a4.155,4.155,0,0,1-3.146-1.27,4.714,4.714,0,0,1-1.213-3.4v-.3a5.707,5.707,0,0,1,.541-2.527,4.217,4.217,0,0,1,1.512-1.74,3.8,3.8,0,0,1,2.1-.628,3.562,3.562,0,0,1,2.883,1.222,5.289,5.289,0,0,1,1.028,3.5v.677H79.4a3.38,3.38,0,0,0,.822,2.272,2.583,2.583,0,0,0,2,.866A2.832,2.832,0,0,0,83.685-1.5a3.666,3.666,0,0,0,1.046-.932l.993.773A3.993,3.993,0,0,1,82.138.176Zm-.2-8.525a2.169,2.169,0,0,0-1.652.716,3.482,3.482,0,0,0-.826,2.008h4.764v-.123a3.1,3.1,0,0,0-.668-1.92A2.042,2.042,0,0,0,81.936-8.35Zm5.405,3.516A5.589,5.589,0,0,1,88.37-8.372a3.289,3.289,0,0,1,2.725-1.314,3.271,3.271,0,0,1,2.716,1.23l.079-1.055h1.485V-.229A3.869,3.869,0,0,1,94.28,2.681a4.038,4.038,0,0,1-2.94,1.063A4.891,4.891,0,0,1,89.328,3.3a3.465,3.465,0,0,1-1.5-1.2l.844-.976a3.18,3.18,0,0,0,2.558,1.292,2.491,2.491,0,0,0,1.85-.668A2.553,2.553,0,0,0,93.74-.132V-.949A3.342,3.342,0,0,1,91.077.176a3.248,3.248,0,0,1-2.7-1.345A5.876,5.876,0,0,1,87.341-4.834Zm1.635.185a4.264,4.264,0,0,0,.659,2.527,2.142,2.142,0,0,0,1.846.918A2.382,2.382,0,0,0,93.74-2.6V-6.943A2.41,2.41,0,0,0,91.5-8.306a2.161,2.161,0,0,0-1.854.923A4.644,4.644,0,0,0,88.976-4.649ZM99.593,0H97.967V-13.5h1.626Zm8.473,0a3.416,3.416,0,0,1-.229-1A3.628,3.628,0,0,1,105.131.176a3.357,3.357,0,0,1-2.307-.8,2.573,2.573,0,0,1-.9-2.017,2.688,2.688,0,0,1,1.129-2.307,5.325,5.325,0,0,1,3.177-.822h1.582v-.747a1.826,1.826,0,0,0-.51-1.358,2.049,2.049,0,0,0-1.5-.505,2.371,2.371,0,0,0-1.459.439,1.3,1.3,0,0,0-.589,1.063h-1.635a2.244,2.244,0,0,1,.505-1.375,3.449,3.449,0,0,1,1.371-1.05,4.613,4.613,0,0,1,1.9-.387,3.759,3.759,0,0,1,2.575.822,2.964,2.964,0,0,1,.967,2.263v4.377a5.351,5.351,0,0,0,.334,2.083V0Zm-2.7-1.239a2.858,2.858,0,0,0,1.45-.4,2.392,2.392,0,0,0,.993-1.028V-4.614h-1.274q-2.988,0-2.988,1.749a1.48,1.48,0,0,0,.51,1.2A1.959,1.959,0,0,0,105.368-1.239Zm8.147-8.271.044,1.055a3.512,3.512,0,0,1,2.821-1.23A2.719,2.719,0,0,1,119.1-8.156a3.6,3.6,0,0,1,1.235-1.107,3.647,3.647,0,0,1,1.8-.422q3.129,0,3.182,3.313V0h-1.626V-6.275a2.184,2.184,0,0,0-.466-1.525,2.051,2.051,0,0,0-1.564-.505,2.156,2.156,0,0,0-1.5.541,2.193,2.193,0,0,0-.694,1.455V0h-1.635V-6.231a1.814,1.814,0,0,0-2.03-2.074A2.175,2.175,0,0,0,113.6-6.943V0h-1.626V-9.51ZM131.709.176a4.155,4.155,0,0,1-3.146-1.27,4.714,4.714,0,0,1-1.213-3.4v-.3a5.707,5.707,0,0,1,.541-2.527,4.216,4.216,0,0,1,1.512-1.74,3.8,3.8,0,0,1,2.1-.628,3.562,3.562,0,0,1,2.883,1.222,5.29,5.29,0,0,1,1.028,3.5v.677h-6.442a3.38,3.38,0,0,0,.822,2.272,2.583,2.583,0,0,0,2,.866,2.832,2.832,0,0,0,1.459-.352,3.666,3.666,0,0,0,1.046-.932l.993.773A3.993,3.993,0,0,1,131.709.176Zm-.2-8.525a2.169,2.169,0,0,0-1.652.716,3.481,3.481,0,0,0-.826,2.008h4.764v-.123a3.1,3.1,0,0,0-.668-1.92A2.042,2.042,0,0,0,131.507-8.35Zm7.33-1.16.053,1.2a3.465,3.465,0,0,1,2.848-1.371q3.015,0,3.041,3.4V0h-1.626V-6.293a2.189,2.189,0,0,0-.47-1.521,1.884,1.884,0,0,0-1.437-.492,2.347,2.347,0,0,0-1.389.422,2.865,2.865,0,0,0-.932,1.107V0H137.3V-9.51Zm10.6-2.3v2.3h1.775v1.257h-1.775v5.9a1.32,1.32,0,0,0,.237.858,1,1,0,0,0,.809.286,3.937,3.937,0,0,0,.773-.105V0a4.742,4.742,0,0,1-1.248.175,2.025,2.025,0,0,1-1.644-.659,2.832,2.832,0,0,1-.554-1.872v-5.9h-1.731V-9.51h1.731v-2.3ZM158.981,0a3.416,3.416,0,0,1-.229-1A3.628,3.628,0,0,1,156.046.176a3.357,3.357,0,0,1-2.307-.8,2.573,2.573,0,0,1-.9-2.017,2.688,2.688,0,0,1,1.129-2.307,5.325,5.325,0,0,1,3.177-.822h1.582v-.747a1.826,1.826,0,0,0-.51-1.358,2.049,2.049,0,0,0-1.5-.505,2.371,2.371,0,0,0-1.459.439,1.3,1.3,0,0,0-.589,1.063h-1.635a2.244,2.244,0,0,1,.505-1.375,3.449,3.449,0,0,1,1.371-1.05,4.613,4.613,0,0,1,1.9-.387,3.759,3.759,0,0,1,2.575.822,2.964,2.964,0,0,1,.967,2.263v4.377a5.351,5.351,0,0,0,.334,2.083V0Zm-2.7-1.239a2.858,2.858,0,0,0,1.45-.4,2.392,2.392,0,0,0,.993-1.028V-4.614h-1.274q-2.988,0-2.988,1.749a1.48,1.48,0,0,0,.51,1.2A1.959,1.959,0,0,0,156.283-1.239ZM167.5-8.051a4.873,4.873,0,0,0-.8-.062c-1.066,0-2.171,1.362-2.171,1.362V0H162.9V-9.51h1.582l.026,1.1a2.532,2.532,0,0,1,2.268-1.274,1.661,1.661,0,0,1,.721.123ZM170.758,0h-1.626V-9.51h1.626ZM169-12.032a.971.971,0,0,1,.242-.668.907.907,0,0,1,.716-.272.922.922,0,0,1,.721.272.96.96,0,0,1,.246.668.929.929,0,0,1-.246.659.938.938,0,0,1-.721.264.924.924,0,0,1-.716-.264A.938.938,0,0,1,169-12.032ZM179.231,0A3.416,3.416,0,0,1,179-1,3.628,3.628,0,0,1,176.3.176a3.357,3.357,0,0,1-2.307-.8,2.573,2.573,0,0,1-.9-2.017,2.688,2.688,0,0,1,1.129-2.307,5.325,5.325,0,0,1,3.177-.822h1.582v-.747a1.826,1.826,0,0,0-.51-1.358,2.049,2.049,0,0,0-1.5-.505,2.371,2.371,0,0,0-1.459.439,1.3,1.3,0,0,0-.589,1.063h-1.635a2.244,2.244,0,0,1,.505-1.375,3.449,3.449,0,0,1,1.371-1.05,4.613,4.613,0,0,1,1.9-.387,3.759,3.759,0,0,1,2.575.822A2.964,2.964,0,0,1,180.6-6.6v4.377a5.351,5.351,0,0,0,.334,2.083V0Zm-2.7-1.239a2.858,2.858,0,0,0,1.45-.4,2.392,2.392,0,0,0,.993-1.028V-4.614H177.7q-2.988,0-2.988,1.749a1.48,1.48,0,0,0,.51,1.2A1.959,1.959,0,0,0,176.533-1.239ZM187.862,0V-12.8h3.612a5.815,5.815,0,0,1,2.953.738,4.993,4.993,0,0,1,1.982,2.1,6.837,6.837,0,0,1,.708,3.129v.817a6.861,6.861,0,0,1-.7,3.173,4.915,4.915,0,0,1-2,2.092A6.185,6.185,0,0,1,191.4,0Zm1.688-11.417V-1.38h1.775a3.863,3.863,0,0,0,3.037-1.214,5.016,5.016,0,0,0,1.085-3.457V-6.8a5.1,5.1,0,0,0-1.024-3.391,3.644,3.644,0,0,0-2.9-1.227Zm19.529,7.356a4.708,4.708,0,0,1-1.5,3.133,4.911,4.911,0,0,1-3.353,1.1,4.509,4.509,0,0,1-3.634-1.626A6.542,6.542,0,0,1,199.226-5.8v-1.23a7.291,7.291,0,0,1,.637-3.138,4.76,4.76,0,0,1,1.806-2.079,5.029,5.029,0,0,1,2.707-.725,4.624,4.624,0,0,1,3.27,1.138,4.765,4.765,0,0,1,1.433,3.151h-1.7a3.677,3.677,0,0,0-.954-2.222,2.885,2.885,0,0,0-2.052-.688,3.019,3.019,0,0,0-2.536,1.2,5.492,5.492,0,0,0-.918,3.4v1.24a5.645,5.645,0,0,0,.87,3.316A2.812,2.812,0,0,0,204.227-1.2a3.247,3.247,0,0,0,2.158-.637,3.536,3.536,0,0,0,1-2.219ZM213.192,0H211.5V-12.8h1.688Zm12.92,0h-1.7l-6.442-9.861V0h-1.7V-12.8h1.7l6.46,9.905V-12.8h1.679Zm6.126-4.772h-4.289V-6.1h4.289Zm9.176-4.685a2.972,2.972,0,0,1-.505,1.705,3.439,3.439,0,0,1-1.367,1.169,3.668,3.668,0,0,1,1.586,1.257,3.163,3.163,0,0,1,.584,1.872,3.344,3.344,0,0,1-1.121,2.646,4.305,4.305,0,0,1-2.949.984,4.286,4.286,0,0,1-2.958-.989,3.36,3.36,0,0,1-1.112-2.641,3.257,3.257,0,0,1,.567-1.872,3.528,3.528,0,0,1,1.569-1.266,3.354,3.354,0,0,1-1.345-1.169,3.014,3.014,0,0,1-.492-1.7,3.308,3.308,0,0,1,1.037-2.566,3.89,3.89,0,0,1,2.733-.949,3.894,3.894,0,0,1,2.729.949A3.3,3.3,0,0,1,241.414-9.457Zm-1.327,5.968a2.359,2.359,0,0,0-.681-1.749,2.416,2.416,0,0,0-1.78-.677,2.373,2.373,0,0,0-1.762.668,2.385,2.385,0,0,0-.664,1.758,2.271,2.271,0,0,0,.646,1.714,2.48,2.48,0,0,0,1.8.624,2.472,2.472,0,0,0,1.793-.628A2.266,2.266,0,0,0,240.087-3.489Zm-2.443-8.147a2.1,2.1,0,0,0-1.551.593,2.179,2.179,0,0,0-.593,1.613,2.169,2.169,0,0,0,.584,1.578,2.074,2.074,0,0,0,1.56.6,2.074,2.074,0,0,0,1.56-.6,2.169,2.169,0,0,0,.584-1.578,2.17,2.17,0,0,0-.606-1.591A2.068,2.068,0,0,0,237.643-11.637Zm8.481,4.447h1.222a2.685,2.685,0,0,0,1.811-.606,2.026,2.026,0,0,0,.659-1.591,1.985,1.985,0,0,0-2.241-2.25,2.331,2.331,0,0,0-1.683.6,2.107,2.107,0,0,0-.628,1.6h-1.626a3.264,3.264,0,0,1,1.112-2.527,4.05,4.05,0,0,1,2.826-1.006,4,4,0,0,1,2.839.958,3.461,3.461,0,0,1,1.028,2.663,2.809,2.809,0,0,1-.541,1.617,3.264,3.264,0,0,1-1.472,1.169,3.145,3.145,0,0,1,1.63,1.107,3.076,3.076,0,0,1,.576,1.89A3.491,3.491,0,0,1,250.51-.835,4.213,4.213,0,0,1,247.584.176,4.324,4.324,0,0,1,244.653-.8a3.236,3.236,0,0,1-1.129-2.575h1.635a2.092,2.092,0,0,0,.659,1.617,2.507,2.507,0,0,0,1.767.606,2.46,2.46,0,0,0,1.8-.615,2.371,2.371,0,0,0,.624-1.767,2.151,2.151,0,0,0-.686-1.714,2.987,2.987,0,0,0-1.978-.615h-1.222Z" transform="translate(655.84 363.8)" fill="#fff"/>
        <circle id="Elipse_4564" data-name="Elipse 4564" cx="129.17" cy="129.17" r="129.17" transform="translate(205.15 128.24)" fill="#fcd4e0"/>
        <g id="Grupo_64663" data-name="Grupo 64663">
          <circle id="Elipse_4565" data-name="Elipse 4565" cx="101.7" cy="101.7" r="101.7" transform="translate(232.8 155.71)" fill="#6c58b8"/>
          <path id="Trazado_235348" data-name="Trazado 235348" d="M326.18,155.71h15.88c.38.52,1,.37,1.46.42A102.341,102.341,0,0,1,365,160.5a100.28,100.28,0,0,1,45.07,29.4L401,199.4a4.94,4.94,0,0,1-3.7,1.6,5,5,0,0,0-3.85-.13c-2.49.76-4.6,2.07-5.59,4.61-1.74,4.49-5.17,8.38-4.9,13.59a8.91,8.91,0,0,0,14.38,6.58c1.91-.89,2.79-2.77,3.89-4.36,2-3,4.78-3.79,8.21-3.57,6.17.39,12.34.85,18.53.67a91.86,91.86,0,0,1,7.15,28.22c-5.45-.52-10.89-1-16.33-1.55-8.53-.78-17.06-1.6-25.59-2.26a18.38,18.38,0,0,0-13.83,4.2l-.4.44h0c-1.66.62-2.5,2.11-3.48,3.4-4.53,5.93-5.23,14.74-1.69,20.51,31.55,6.38,25.16,34.48,27,33.17.59,1.68,1.13,3.38,1.78,5,2.15,5.53,3.82,11.24,6.26,16.66a4.41,4.41,0,0,1-1.62,1.88c-1.09-.5-1.7.48-2.41.9-15.48,9-32.28,13.31-50.09,13.78a99.139,99.139,0,0,1-12-.74,97.762,97.762,0,0,1-22.74-5.15,109.36,109.36,0,0,1-18-8.37c0-.12,0-.24,0-.37,1.34-1.55,1.75-3.52,2.32-5.4q3.47-11.46,6.89-22.93a8.7,8.7,0,0,1,2.89-4.37q7.56-6.23,15-12.6c1.78-1.52,3.3-3.26,3.51-5.75,1.24-1.29-26.65-11.82-28.55-31.95a17,17,0,0,0-7.13-3.26c-2.93-.71-5.95.09-8.86-.7-2.14-1.86-2.36-3.2-.85-5.47a9.19,9.19,0,0,1,5.85-4.13,52.269,52.269,0,0,1,5.29-.78c5.82-.58,10.93-2.65,14.69-7.29,1.67-2,3.1-4.28,4.6-6.46,3.31-4.79,6.63-9.57,9.86-14.41,3-4.54,2.65-9-.94-13.08-2.1-2.38-4.15-4.8-6.2-7.22-3.2-3.78-7.93-3.67-11,.27-1.42,1.83-2.86,3.64-4.27,5.47-.51.66-1,1.25-2,1-6.78-1.61-10.94-2.08-13-9.67a38,38,0,0,0,1.53-6.76l3.33-9a93,93,0,0,1,21.38-6.43C319.56,156.63,322.94,156.65,326.18,155.71Zm33.39,45c5-4,9.77-8.3,14.4-12.73,1.84-1.75,1.21-4.26-1.2-5.3A49.173,49.173,0,0,0,367.9,181c-5.87-1.84-11.57-4.18-17.51-5.81-1.81-.94-3.7-1.76-5.46,0-1.57,1.52-.85,3.3-.23,5,2.46,6.76,4.91,13.52,7.42,20.27,1.29,3.47,3.63,4,6.36,1.48.39-.47.73-.88,1.09-1.27Z" fill="#dad5ed"/>
          <path id="Trazado_235349" data-name="Trazado 235349" d="M407.19,328.07a100.648,100.648,0,0,1-32.54,22.59,98.35,98.35,0,0,1-45,8.3c-29-1.55-53.21-13.29-72.36-35.11a99.533,99.533,0,0,1-23.96-52.72c-.27-1.93-.16-3.93-.89-5.79V249.85c.37-.28.35-.69.38-1.08a88,88,0,0,1,1.63-11.54A93.641,93.641,0,0,1,244.27,210c3.23,5,6.22,10.09,9.18,15.23a33.1,33.1,0,0,0-.82,6.43,105.221,105.221,0,0,0,1.1,27.4,99.71,99.71,0,0,0,13,34.45A89.238,89.238,0,0,0,284.41,315c.15,2.69.31,5.38.46,8.07a9.49,9.49,0,0,0,7.11,8.7c4,1.05,7.19-.51,10-3.26a109.359,109.359,0,0,0,18,8.37A97.759,97.759,0,0,0,342.65,342a99.139,99.139,0,0,0,12,.74c17.81-.47,34.61-4.74,50.09-13.78C405.49,328.55,406.1,327.57,407.19,328.07Z" fill="#9182ca"/>
          <path id="Trazado_235350" data-name="Trazado 235350" d="M293.37,167.81c-2.73,9.62,2.91,19.68,9.69,21.29.92.21,1.46-.38,2-1,1.41-1.83,2.85-3.64,4.27-5.47,3.08-3.94,7.81-4.05,11-.27,2.05,2.42,4.1,4.84,6.2,7.22,3.59,4.1,4,8.54.94,13.08-3.23,4.84-6.55,9.62-9.86,14.41-1.5,2.18-2.93,4.42-4.6,6.46-3.76,4.64-8.87,6.71-14.69,7.29a52.268,52.268,0,0,0-5.29.78,9.19,9.19,0,0,0-5.85,4.13c-1.51,2.27-1.29,3.61.85,5.47a1.51,1.51,0,0,1-1.31.28c-3.65-.72-7.38-.18-11.06-.66-3.47-.45-6.19-1.83-8-4.79-3.11-5.07-6.16-10.19-9.21-15.3-1.33-2.23-2.39-4.53-2.18-7.28a22.629,22.629,0,0,1,1.73-6.09c1.25-3.39,2.18-6.94,4.34-9.94.09-9.47,13.22-12.47,14.24-11.75,2.88,2,3.81-3.86,6.61-5.92C290.61,174.25,289.22,176.3,293.37,167.81Z" fill="#6c58b8"/>
          <path id="Trazado_235351" data-name="Trazado 235351" d="M435.12,246.64a71.54,71.54,0,0,1,.58,15.61,101,101,0,0,1-5.47,28.32,98.18,98.18,0,0,1-16.62,30c-.93-2.68-1.77-5.4-2.81-8-1.66-4.23-2.83-8.65-4.86-12.74,3.38-3.73,6.67-7.52,8.61-12.26,1.51-3.71,2.18-7.53.8-11.4-3.18-9-13.71-11.74-21-5.6-.74.62-1.24,1-2.14.18-3.53-3.28-7.73-4.06-12.35-3.1a19.87,19.87,0,0,1-2.82-14,59.6,59.6,0,0,1,2-6.2h0l.4-.44a18.38,18.38,0,0,1,13.83-4.18c8.53.66,17.06,1.48,25.59,2.26C424.23,245.59,429.67,246.12,435.12,246.64Z" fill="#6c58b8"/>
          <path id="Trazado_235352" data-name="Trazado 235352" d="M332.55,277.07c-.21,2.49-1.73,4.23-3.51,5.75q-7.44,6.36-15,12.6a8.7,8.7,0,0,0-2.89,4.37q-3.44,11.47-6.89,22.93c-.57,1.88-1,3.85-2.32,5.4a26.46,26.46,0,0,1-8.08-5.24,7.8,7.8,0,0,1-2.63-5.43q-.86-14.2-1.6-28.44a9.23,9.23,0,0,0-2.63-6.23c-2.51-2.57-5.57-4.44-8.39-6.62s-2.79-5.09.74-6.43c6.92-2.64,13.92-5,20.89-7.54,6.83-10.77-.93-23.16,17.87-4.73,1.54,1.07,1.23,1,6.35,3.53C329.49,263.85,336.31,263.38,332.55,277.07Z" fill="#6c58b8"/>
          <path id="Trazado_235353" data-name="Trazado 235353" d="M298.87,255.67c4.33-1.84.61,4.41,1.39,6.52-7,2.5-14,4.9-20.89,7.54-3.53,1.34-3.71,4.12-.74,6.43s5.88,4,8.39,6.62a9.23,9.23,0,0,1,2.63,6.23q.77,14.24,1.6,28.44a7.8,7.8,0,0,0,2.63,5.43,26.46,26.46,0,0,0,8.08,5.24v.37c-2.78,2.75-5.93,4.31-10,3.26a9.49,9.49,0,0,1-7.11-8.7c-.15-2.69-.31-5.38-.46-8.07-.4-8.5-.78-17-1.21-25.51a4.07,4.07,0,0,0-1.89-3.1c-3.93-2.91-7.82-5.88-11.71-8.84-4.67-3.53-3.92-9.55,1.48-11.82,1.4-.59,2.86-1.06,4.29-1.57Z" fill="#472ea6"/>
          <path id="Trazado_235354" data-name="Trazado 235354" d="M410.08,189.9A96.631,96.631,0,0,1,428,218.42c-6.19.18-12.36-.28-18.53-.67-3.43-.22-6.17.61-8.21,3.57-1.1,1.59-2,3.47-3.89,4.36a8.51,8.51,0,0,1-5.17-4.28c-1.78-3.12-1.28-6.14.1-9.25,1.64-3.72,3.77-7.22,5-11.12a4.94,4.94,0,0,0,3.7-1.63Z" fill="#6c58b8"/>
          <path id="Trazado_235355" data-name="Trazado 235355" d="M256.25,192.1c6.46-7.41,8.52-8.68,17.16-16.23-2.16,3-14.19,28.06-15.44,31.45a22.629,22.629,0,0,0-1.73,6.09c-.21,2.75.85,5.05,2.18,7.28,3.05,5.11,6.1,10.23,9.21,15.3,1.82,3,4.54,4.34,8,4.79,3.68.48,7.41-.06,11.06.66a1.51,1.51,0,0,0,1.31-.28c2.91.79,5.93,0,8.86.7a17,17,0,0,1,7.13,3.26,24.081,24.081,0,0,0-4,5.22,8.1,8.1,0,0,0-5-2.05c-6-.32-12-.63-18-.81-6.74-.19-11.91-2.89-15.35-8.83-2.61-4.52-5.4-8.94-8.1-13.41-3-5.14-5.95-10.25-9.18-15.23a89.318,89.318,0,0,1,11.89-17.91Z" fill="#472ea6"/>
          <path id="Trazado_235356" data-name="Trazado 235356" d="M350.39,175.14c5.94,1.63,11.64,4,17.51,5.81a49.178,49.178,0,0,1,4.87,1.69c2.41,1,3,3.55,1.2,5.3-4.63,4.43-9.42,8.7-14.41,12.73-1.88-5.07-3.82-10.13-5.64-15.24C352.7,182,351.12,178.72,350.39,175.14Z" fill="#6c58b8"/>
          <path id="Trazado_235357" data-name="Trazado 235357" d="M397.3,201c-1.26,3.9-3.39,7.4-5,11.12-1.38,3.11-1.88,6.13-.1,9.25a8.51,8.51,0,0,0,5.17,4.28A8.91,8.91,0,0,1,383,219.1c-.27-5.21,3.16-9.1,4.9-13.59,1-2.54,3.1-3.85,5.59-4.61A5,5,0,0,1,397.3,201Z" fill="#472ea6"/>
          <path id="Trazado_235358" data-name="Trazado 235358" d="M350.39,175.14c.73,3.58,2.31,6.88,3.53,10.29,1.82,5.11,3.76,10.17,5.64,15.24-.35.39-.69.8-1.08,1.16-2.73,2.5-5.07,2-6.36-1.48-2.51-6.75-5-13.51-7.42-20.27-.62-1.69-1.34-3.47.23-5C346.69,173.38,348.58,174.2,350.39,175.14Z" fill="#472ea6"/>
          <path id="Trazado_235359" data-name="Trazado 235359" d="M400.77,304.5l5.17-4.67c2,4.09,3.2,8.51,4.86,12.74,1,2.64,1.88,5.36,2.81,8a35.519,35.519,0,0,1-4.8,5.58c-2.44-5.42-4.11-11.13-6.26-16.66C401.9,307.88,401.36,306.18,400.77,304.5Z" fill="#472ea6"/>
          <path id="Trazado_235360" data-name="Trazado 235360" d="M379.82,267.65a17.551,17.551,0,0,0-6,3.68c-3.54-5.77-2.84-14.58,1.69-20.51,1-1.29,1.82-2.78,3.48-3.4a59.581,59.581,0,0,0-2,6.2,19.87,19.87,0,0,0,2.83,14.03Z" fill="#472ea6"/>
          <path id="Trazado_235361" data-name="Trazado 235361" d="M291.56,172.67a19.21,19.21,0,0,0-1.68-6.87c1.71-.62,3.21-1.71,5-2.1Z" fill="#6c58b8"/>
          <path id="Trazado_235362" data-name="Trazado 235362" d="M379.37,247l-.4.44Z" fill="#472ea6"/>
          <path id="Trazado_235363" data-name="Trazado 235363" d="M253.45,225.24c2.7,4.47,5.49,8.89,8.1,13.41,3.44,5.94,8.61,8.64,15.35,8.83,6,.18,12,.49,18,.81a8.1,8.1,0,0,1,5,2.05c5,3.42,3.2,4.75-1.09,5.33l-23.5,8.47c-1.43.51-2.89,1-4.29,1.57-5.4,2.27-6.15,8.29-1.48,11.82,3.89,3,7.78,5.93,11.71,8.84a4.07,4.07,0,0,1,1.89,3.1c.43,8.5.81,17,1.21,25.51a89.24,89.24,0,0,1-17.63-21.46,99.71,99.71,0,0,1-13-34.45,105.221,105.221,0,0,1-1.1-27.4,33.1,33.1,0,0,1,.83-6.43Z" fill="#dad5ed"/>
          <path id="Trazado_235364" data-name="Trazado 235364" d="M373.8,271.33s15.66,17.33,19.61,22.54,7.36,10.63,7.36,10.63l7.17-6.45-23.46-31.24h-8.3Z" fill="#472ea6"/>
          <path id="Trazado_235365" data-name="Trazado 235365" d="M379.82,267.65c0,.61,17.52,20.33,20.95,25.42a81.647,81.647,0,0,0,5.51,7.46l15.36-12.65.83-21.7-24.08-5.81Z" fill="#6c58b8"/>
          <path id="Trazado_235366" data-name="Trazado 235366" d="M304,245.12a21.46,21.46,0,0,1,4.21,3.62c2.26,2.68,1.19,6.59,0,7.93-2.7,2.73-5.36,4.72-7.95,5.52l-1.39-6.52c4.66-1.47,3.55-3.07,1.09-5.33l2-4.5Z" fill="#472ea6"/>
        </g>
        <g id="Grupo_64664" data-name="Grupo 64664">
          <path id="Trazado_235367" data-name="Trazado 235367" d="M341.59,132.87A127.89,127.89,0,0,0,213.7,256.27" fill="none" stroke="#ef2a66" stroke-linecap="round" stroke-miterlimit="10" stroke-width="4"/>
          <path id="Trazado_235368" data-name="Trazado 235368" d="M207.16,248.13l6.6,6.96,6.96-6.62-.15,5.76-6.95,6.61-6.61-6.95Z" fill="#ef2a66"/>
        </g>
        <g id="Grupo_64665" data-name="Grupo 64665">
          <path id="Trazado_235369" data-name="Trazado 235369" d="M324.52,381.62A127.88,127.88,0,0,0,452.41,258.23" fill="none" stroke="#472ea6" stroke-linecap="round" stroke-miterlimit="10" stroke-width="4"/>
          <path id="Trazado_235370" data-name="Trazado 235370" d="M458.95,266.36l-6.6-6.95-6.96,6.61.15-5.76,6.95-6.61,6.61,6.95Z" fill="#472ea6"/>
        </g>
        <path id="Trazado_235371" data-name="Trazado 235371" d="M465.7,92.71a42.73,42.73,0,0,0-29.82-12.07h0a42.817,42.817,0,1,0,0,85.635v-.005A42.81,42.81,0,0,0,465.7,92.71ZM437.29,107.8c6,0,11.1-.3,15.45-.68A76.919,76.919,0,0,1,454.38,122H437.29Zm0-2.86V83.63a10.57,10.57,0,0,1,4.7,2.26A24.58,24.58,0,0,1,448.21,94a50.138,50.138,0,0,1,3.85,10.28C447.88,104.66,443,104.91,437.29,104.94Zm-2.85-21.31v21.31c-5.68,0-10.58-.28-14.76-.64a51.587,51.587,0,0,1,3.4-9.39c3.14-6.5,7.22-10.52,11.36-11.28Zm0,24.17V122h-17.1A77.058,77.058,0,0,1,419,107.12C423.35,107.5,428.47,107.76,434.44,107.8ZM414.49,122H395.88a39.63,39.63,0,0,1,5-18,86,86,0,0,0,15.28,2.79A80.478,80.478,0,0,0,414.49,122Zm0,2.85a81.119,81.119,0,0,0,1.66,15.19,87.681,87.681,0,0,0-15.29,2.79,39.611,39.611,0,0,1-5-18Zm2.86,0h17.09v14.24c-6,0-11.1.3-15.44.68a77.7,77.7,0,0,1-1.65-14.89ZM434.44,142v21.32a10.65,10.65,0,0,1-4.7-2.27,24.67,24.67,0,0,1-6.22-8.12,50.227,50.227,0,0,1-3.85-10.29C423.86,142.26,428.76,142,434.44,142Zm2.85,21.31V142c5.68,0,10.58.28,14.77.64a52.071,52.071,0,0,1-3.4,9.39c-3.15,6.47-7.23,10.49-11.37,11.25Zm0-24.16V124.88h17.1a78,78,0,0,1-1.66,14.92c-4.35-.39-9.47-.65-15.44-.68Zm19.95-14.24h18.62a39.77,39.77,0,0,1-5,18,87.7,87.7,0,0,0-15.28-2.79,80.479,80.479,0,0,0,1.66-15.24Zm0-2.85a82.058,82.058,0,0,0-1.65-15.19,87.489,87.489,0,0,0,15.28-2.79,39.641,39.641,0,0,1,5,18Zm6.48-27.27a40.791,40.791,0,0,1,5.61,6.75,92.2,92.2,0,0,1-14.4,2.52,53.7,53.7,0,0,0-4.18-11.32,29.09,29.09,0,0,0-6-8.23,39.82,39.82,0,0,1,18.97,10.25Zm-56.59.9a39.81,39.81,0,0,1,13.39-9.12A41,41,0,0,1,427,84.48a30.13,30.13,0,0,0-6.49,9.19A54.788,54.788,0,0,0,416.8,104a90.591,90.591,0,0,1-14.38-2.52,40.231,40.231,0,0,1,4.71-5.82Zm.89,56.5a40.369,40.369,0,0,1-5.61-6.76,90.9,90.9,0,0,1,14.39-2.51,54.261,54.261,0,0,0,4.2,11.29,28.89,28.89,0,0,0,6,8.22,39.77,39.77,0,0,1-19-10.27Zm56.58-.9a39.83,39.83,0,0,1-13.39,9.11,40.64,40.64,0,0,1-6.48,2.06,30,30,0,0,0,6.5-9.18,55.74,55.74,0,0,0,3.7-10.36,90.939,90.939,0,0,1,14.38,2.51,40.309,40.309,0,0,1-4.71,5.83Z" fill="#472ea6"/>
        <path id="Trazado_235372" data-name="Trazado 235372" d="M262,372.39a7.75,7.75,0,0,0-1.74-3.58l-.47-.54h0a.13.13,0,0,0-.09-.12h0c-.18-.4-.24-.85-.45-1.24a.37.37,0,0,0-.23-.34l-1.5-2a.409.409,0,0,0-.13-.1c-.51-.21-.51-.62-.43-1.07a2.19,2.19,0,0,1,.27-.67c.26-.55.79-.88,1.05-1.44s.27-.6-.24-.85-.54-.41-.45-.88a1.921,1.921,0,0,1,.33-.71c.44-.61.42-.88-.08-1.42l-.18-.21h0a1.3,1.3,0,0,0-.79-.47c-.46-.15-.47-.15-.43-.62a1.71,1.71,0,0,0-.14-.92c-.14-.3-.29-.59-.44-.89a.22.22,0,0,0-.11-.22h0c0-.27-.2-.44-.25-.68a.2.2,0,0,0-.09-.24h0a6.12,6.12,0,0,1-.11-1.54c.2-.21.05-.47.09-.71a.11.11,0,0,0,0-.08h0a12.625,12.625,0,0,0,.18-1.49h0v-.34h0a.33.33,0,0,0,.11-.31,1.63,1.63,0,0,1,.23-.91,15.189,15.189,0,0,1,1-1.88,1.15,1.15,0,0,0,.26-.61v-.13h0a2.44,2.44,0,0,1,.61-1.75,5.08,5.08,0,0,0,.62-1.05c.19-.36.07-.59-.33-.7l-.65-.16c-.24-.06-.43-.14-.33-.46s0-.35-.25-.41h0c-.05-.08-.15-.15-.16-.23-.07-.38-.32-.45-.65-.42s-.74.07-1.11.07a19.279,19.279,0,0,1-2.15,0,10.732,10.732,0,0,0-1.7,0H251a3.3,3.3,0,0,0-.61-.08h-2.22c-.71-.17-1.45-.2-2.14-.44a1.53,1.53,0,0,0-.68-.23h0a9.293,9.293,0,0,0-1.24-.68h0a2.1,2.1,0,0,0-.78-.45.53.53,0,0,0-.36-.25h0l-.11-.08h0c-.39-.25-.8-.47-1.17-.75a11.87,11.87,0,0,1-2.11-2.08,3.46,3.46,0,0,0-3-1.36c-.76,0-1.51.24-2.28.23h0a.58.58,0,0,0-.32,0,5.65,5.65,0,0,1-2.16-.21h0a.48.48,0,0,0-.24-.11,16.061,16.061,0,0,0-1.81-.25,2.67,2.67,0,0,0-1.7.25c-.29.05-.35.4-.64.46a2.1,2.1,0,0,0-.69-.6h0a.29.29,0,0,0-.13-.23,13.33,13.33,0,0,1-2-1.66h0v-.11a.329.329,0,0,0-.09-.11l-.26-.43a1.14,1.14,0,0,1,.07-1.36c.12-.15.27-.27.39-.41a2.16,2.16,0,0,0,.71-1.3c.12-.1.05-.21,0-.32h0a.23.23,0,0,0,.06-.21,3.7,3.7,0,0,0-.76-1.81c-.46-.68-1.15-1.17-1.56-1.89a.11.11,0,0,0,0-.08.12.12,0,0,0-.08-.12h0a.27.27,0,0,0-.12-.24h0a4.319,4.319,0,0,0-.69-1.33h0c-.14-.29-.3-.57-.43-.85a3.19,3.19,0,0,0-.84-1.18,3.38,3.38,0,0,1-1-1h0c0-.14.18-.3,0-.41-.35-.21-.25-.52-.21-.81a2.11,2.11,0,0,1,.63-1.28,2.55,2.55,0,0,0,.52-.92,3.79,3.79,0,0,0,.21-1.66,2.37,2.37,0,0,1,.71-1.92,3.86,3.86,0,0,0,1.07-1.56h0a2.12,2.12,0,0,0,.34-.69,8.719,8.719,0,0,1,.85-1.93,3,3,0,0,0,.63-1h0a4.13,4.13,0,0,0,1.15-.79h0a3.47,3.47,0,0,0,2.14-2h0a3.42,3.42,0,0,0,.78-1h0a10.381,10.381,0,0,1,2.16-1.61c.38-.22.76-.48,1.13-.74a1.4,1.4,0,0,0,.39-1.93,10.62,10.62,0,0,1-1.12-1.75c-.21-.44-.65-.49-1.11-.3a3.14,3.14,0,0,0-.9.62c-.49.44-1,.9-1.45,1.34a6.93,6.93,0,0,1-1.47,1.11h-.23a.72.72,0,0,0-.58.16,6.16,6.16,0,0,0-1.8,2.19h0a3.42,3.42,0,0,1-.91.69,5.3,5.3,0,0,0-1.12.23h0c-.44.07-.89.1-1.32.2a7.73,7.73,0,0,0-2.42,1c-.69.45-1.45.81-2.14,1.29h0a1.651,1.651,0,0,0-.32.07,3.41,3.41,0,0,1-2.16.16h-.23a1.23,1.23,0,0,0-.7.21h0a.52.52,0,0,0-.38.23,2.14,2.14,0,0,1-1.84.86c-.67,0-1.31.25-2,.31a3.19,3.19,0,0,0-1.55.42h0a1.86,1.86,0,0,0-1.09.37,5.07,5.07,0,0,0-1.71,1.1,1.59,1.59,0,0,1,.21.15,1.59,1.59,0,0,1-.21-.15,3.24,3.24,0,0,0-1.31,3.19,2.31,2.31,0,0,1-.07,1h0a.33.33,0,0,1-.11.13l.11-.13a.14.14,0,0,0-.11.13h0a.15.15,0,0,0,0,.07.27.27,0,0,0-.21.27l-.34.29a1.69,1.69,0,0,0-.39,2.06,2.922,2.922,0,0,0,.29.48c.07.1.13.2.05.3a3.19,3.19,0,0,1-1.13,1.15,2.58,2.58,0,0,0-1.09.75,2.6,2.6,0,0,1-.56.54,3.65,3.65,0,0,0-1.12,1.32,2.9,2.9,0,0,1-.82.92l-.43.34h0a2.24,2.24,0,0,0-1.13.45,2.27,2.27,0,0,0-.88,2,2.39,2.39,0,0,1-.11,1.06,1,1,0,0,1-1,.78,1,1,0,0,0-.91.52h0a6.507,6.507,0,0,1-.31-.72,6.23,6.23,0,0,0-1.65-2.62c-.43-.43-.84-.34-1.07.23-.09.24-.11.52-.22.75a2.12,2.12,0,0,0,.21,2.31,3,3,0,0,1,.44,1,1.651,1.651,0,0,0,.06.32.9.9,0,0,1-.42,1.15,4.591,4.591,0,0,0-.44.33h0a4.789,4.789,0,0,0-1.78,1.34c0,.06-.12.09-.17.15a1.56,1.56,0,0,0-.18,2.34c.4.5.82,1,1.18,1.51a4,4,0,0,0,.8.93,15.844,15.844,0,0,1,1.25,1.21h0a.38.38,0,0,0,.14.21.406.406,0,0,0,.11.35h0a.12.12,0,0,0,0,.1c.05.39.08.77-.39,1a.34.34,0,0,0-.18.33,2.981,2.981,0,0,1-.14.59h0a.56.56,0,0,0-.19.36h0a2.88,2.88,0,0,0-.91,1.36c-.08.33,0,.4.33.56.14,0,.12-.12.13-.2.16.15.33.31.55.08h0c.3,0,.7-.15.88.15s-.1.66-.23,1c-.2.48-.57.86-.78,1.33h0c-.18,0-.24.13-.3.26h0a3.11,3.11,0,0,0-.43.9,1.11,1.11,0,0,0,.16,1,12.337,12.337,0,0,1,1.17,2,3.46,3.46,0,0,1,.56,1.61v.44h0a4.81,4.81,0,0,1-1.09,1.45,1.37,1.37,0,0,0-.42,1.42,3.84,3.84,0,0,0,.71,1.32,5,5,0,0,1,.83,1.24c0,.15,0,.33,0,.44a1.07,1.07,0,0,0,.06,1.24.35.35,0,0,1,0,.46c-.31.3-.46.72-.75,1a.21.21,0,0,1,.16,0H190l-.06.09a.15.15,0,0,1,.08.08.6.6,0,0,0-.08-.08,1,1,0,0,0-.34.63,2.51,2.51,0,0,1-2.34,1.52,1.07,1.07,0,0,0-.6.13c-.95.45-1,1.32-.8,2.38,0,.23.35.4.24.66s-.45.14-.61.34a.281.281,0,0,1-.09.07,11.709,11.709,0,0,0-3.24,1.76,4.2,4.2,0,0,1-.76.47,2.81,2.81,0,0,0-1,.68,1.58,1.58,0,0,0-.57,1.35,3.76,3.76,0,0,0,.32.83c.37.85.32,1.09-.38,1.69a2.569,2.569,0,0,1-.55.38,3,3,0,0,0-.72.55.6.6,0,0,0-.05,1,2.87,2.87,0,0,0,1.25.83,2.931,2.931,0,0,1,.84.44c0,.1.11.13.2.15h0v.5c0,.49,0,.49.45.73a.069.069,0,0,0,.12,0h.11c.16.16.38.09.57.1a.961.961,0,0,1,.57.13h0a.13.13,0,0,0,.1.11.36.36,0,0,0,.22.23h0l.11.13h0a.13.13,0,0,0,0,.08.31.31,0,0,0,.3.24h0a1.38,1.38,0,0,0,.25.55h0c.21.35.4.72.63,1.06a3.94,3.94,0,0,0,.58.75,1.71,1.71,0,0,0,1.52.39,1.47,1.47,0,0,1,1.58.54,2.22,2.22,0,0,0,1,.89h0a5.291,5.291,0,0,0,1.24,1.12,1.08,1.08,0,0,0,1,0h.11c.8-.24,1.52-.68,2.34-.86a2.81,2.81,0,0,1,1,.19,4.42,4.42,0,0,0,2.62-.11,1.59,1.59,0,0,0,.94-.32h0a3.779,3.779,0,0,0,.82-.36c.17-.13.28-.08.44.06.77.69,1.55,1.4,2.36,2a5.15,5.15,0,0,0,2,1.19,4.741,4.741,0,0,1,1.1.43c.93.49,1.91.86,2.84,1.34a5.119,5.119,0,0,1,1.72,1,.44.44,0,0,0,.2.25c0,.16.13.26.21.38.33.48.73.9,1.06,1.37a8.15,8.15,0,0,0,.83,1.32,3.771,3.771,0,0,1,.62.86,9.38,9.38,0,0,0,1.58,2.07c.05.19.21.29.34.41h0a8,8,0,0,0,1.35,1.49,2.45,2.45,0,0,0,.45.46,4.32,4.32,0,0,0,1,.78.39.39,0,0,0,.33.24,2.06,2.06,0,0,0,.82.73c.41.26.52.41.35.8a5.841,5.841,0,0,0-.25,1.65.61.61,0,0,0,.31.66,1,1,0,0,0,.49.29h.11a.14.14,0,0,0,.09,0h0a1.65,1.65,0,0,0,.82.11,21.289,21.289,0,0,0,3.81-.6,26.807,26.807,0,0,0,4-1.43c.26-.23.64,0,.92-.24h.28a3,3,0,0,1,2.28.55,1.4,1.4,0,0,0,1,.23c.2.05.37-.07.56-.12a1.489,1.489,0,0,0,.58-.2,3.631,3.631,0,0,1,1.89-.35c.29.17.63.07.92.21h0l.31.13a3.76,3.76,0,0,1,2.39,2.6,4.54,4.54,0,0,1-.17,2.6,3.13,3.13,0,0,1-.85,1.35,7.7,7.7,0,0,0-1.42,1.87c-.28.51-.09.9.49,1.07.43.12.87.23,1.3.33a1.07,1.07,0,0,1,.87.8,3.2,3.2,0,0,0,.33.88c.28.58.52.62.94.15.08-.09.15-.19.26-.2.45-.05.53-.35.5-.72a3.818,3.818,0,0,0-.05-.68.74.74,0,0,1,.06-.49,4.1,4.1,0,0,0,.44-2.06,3.391,3.391,0,0,1,.15-.77c.31-1.12.81-2.17,1.06-3.31a4.767,4.767,0,0,1,.17-.65,3.94,3.94,0,0,0,.14-2,10.29,10.29,0,0,1,.76-4.82,9.6,9.6,0,0,0,.66-2.2,7.49,7.49,0,0,0-1.11-4.17,1.79,1.79,0,0,0-.34-.56h0l-1.23-2a.19.19,0,0,0-.13-.21,7,7,0,0,1-.84-1.68,16.409,16.409,0,0,1-.66-2.2,3.13,3.13,0,0,1,.49-2.07,2.07,2.07,0,0,1,1.13-1,3.9,3.9,0,0,0,1.52-1.22c.3-.39.5-.88,1-1.13.35,0,.65.3,1,.14h0a.51.51,0,0,0,.54-.39.31.31,0,0,0-.22-.36,10.109,10.109,0,0,0-1.67-.77.6.6,0,0,0-.57-.23.1.1,0,0,0-.12-.08h0c-.19-.15-.44-.2-.59-.41-.28-.38-.61-.73-.87-1.11a.9.9,0,0,1-.22-.74c.11-.37.16-.76.3-1.14a.66.66,0,0,1,.41-.42,4.59,4.59,0,0,1,1.65-.29,8.421,8.421,0,0,0,2.07,0,5.1,5.1,0,0,1,1.33-.2,1.59,1.59,0,0,0,.86-.21,1,1,0,0,1,.92-.06c.33.13.66.25,1,.36a2.18,2.18,0,0,0,1.53,0,11.581,11.581,0,0,0,1.65-.83,1.66,1.66,0,0,1,2.15.13,1,1,0,0,0,.77.3,2.26,2.26,0,0,0,1.35-.47.7.7,0,0,1,1,0,1.64,1.64,0,0,1,.54.57,8,8,0,0,1,1.23,3.15,2.18,2.18,0,0,0,.35.94.45.45,0,0,0,.78.06,1,1,0,0,0,.18-.46A4,4,0,0,0,262,372.39Zm-35.65-38.62Zm5.49.81Zm-39.39,6.09v-.1a.17.17,0,0,1-.03.1ZM220,325.29ZM192.73,333.74Zm-1.45-3.08ZM191,345.42Zm-2,34.8Zm66.23-29.59Zm-65-13.89ZM189.15,341.36Zm8.93,39.74h.13a.291.291,0,0,1-.12,0Z" fill="#ef2a66"/>
      </g>
    </g>
  </g>
</svg>
