<svg xmlns="http://www.w3.org/2000/svg" width="310" height="310" viewBox="0 0 310 310">
  <g id="Grupo_124784" data-name="Grupo 124784" transform="translate(-179.94 -1483)">
    <g id="CF8_tarjeta1" transform="translate(179.94 1483)">
      <rect id="Rectángulo_7182" data-name="Rectángulo 7182" width="309.94" height="310" fill="#472ea6"/>
      <g id="Grupo_63033" data-name="Grupo 63033" transform="translate(50.64)">
        <path id="Trazado_229162" data-name="Trazado 229162" d="M309.95,219l-2,.18-2.939,1.06-3.179-.27-1.59.2-.58-1,1-1.58.27-3.52.56-1.68,1.16-1.43.93-3.22.07-2.77,1.4-1.55.57-2.32-2.46-.16-1.76-.17-4,.54-2.53,1.35-.62,2.09V206l-.85.92v1.39l-1.26,1.06-.88,1.08-2.35-.35-7.359,1.59-2.22-1.18-2-.67-1.45-3.84s-2-2-2.5-2.64a13.675,13.675,0,0,1-1.31-2.59s-.46-5.47-.45-5.84v-4.18l1.27-3.35-.54-1.17-1.77-2.54,2.22-2v-2.08l1.66-1,1-1.59,2.32-.22,1.61-1.23.73-1.8h1.95l1.37-1.22,1.6.14.66-.34,1.54,1.2,1.26.16.63-.6.58-.76,1.5,1.73,1.19.72,2.51-.1.33-1,2.769,1.94.62-.18-1.22-1.46-.62-1.74.16-.81,1.95-.56h2.43l.9-.89.5.35.23.87,1.22.15,2-.5,1-.13,1.83.64.89.94.11.21V74.18h0l-1.45-.85-2.45-.91-2.54-1.26-1.06-1.35-2.569-1.42-1-.55-1.58-.3h-1.17l-3.809-1.64-1.89.45-2.759.94-.09-.6.56-1.19-1.46-3.5-1.19-2.65-.83-.34L282.8,59l-1.84-.77-.63-1.7.4-3.69.83-2.44,1.36-2.93.42-1.23,2.15-1.09.26-.6.16-1.12.24-.42,1.14-.43.38-.73.14-.79.91-.2-.49-.77.38-.35,2.569-.21,1.68-.56.72-1.49-.62-.67-2.22-.33-1.43-.31-.71-1-3.8-1.05-.65-.48,1.23-.21,2.54.47,2.849.82,2.1.67,1.44.08,1.57-.23-.18-1.81v-.69l.81-.1,1.58.55,1.81.36,1-.29,2.15-2.34.91-1.22.84-.82.54-.78-.91-.64-2.05-.11h-2l-2.19-1-1.78-1.33-.55-.82.55-.38h1.32l1.78,1,3.159,1.78,1.13.17,1.16-.57,3.459-3.11-.22-.43-1.13-.58-.75-.42.28-.66,1.4-.33h1.16l.82.55V8.85h-.19l-.57.58-.48,2.48L307.95,13l-.93.39-.27-.65-.36-1.27-.33-.09-.73.52-.21,1,.53.91.89.16.29,1.79-.24.53-1.19.32-.79.67-.24.34-.28.06-.66-1.08-.56-.71-1.71-2-.37-1.27.5-1.06.82-.32.3-.53-.37-1.56-.31-.79-1.21-.81a14.394,14.394,0,0,0-1.16-1.12,10.548,10.548,0,0,0-1.41-.5l-.88.4-.45,1.15-.33.77-.7.53a4.357,4.357,0,0,0-.34.69c-.05.21-.74,1.58-.74,1.58l-.48-.76-.29-2.51-.27-.48-.38-.89.79-.43,1.07-.59.11-.49s-.66-.91-1-.63-1.65-.33-1.65-.33l-.91-.46-1,.33-.75.39-.61-.09-.19-1.18.28-1.08.09-.45.21-.28.76.08.84-.42V.2l-.36-.2H275.586l-.25.52.44,1.24,2.09,1.16,2.37.6,2.09.7a10.913,10.913,0,0,1,1.3.7l-1.16,1,.18,1-1.05,1.8.22.43.51-.65,1.11-1.49h.7l.51,1.35-.14,1-.21.63-1.17.55-.52.4a6.769,6.769,0,0,1-.78.95,6.929,6.929,0,0,1-1.12.64l-1.75-.04-.4.51.63,2,.41,1.3-.64.52-1.34-.12-1.76-1.11.09-1.46.86-1.88v-.38l-1.23-.13-2-.44-.8-.64-.12-.69,2.41.34,1-.34.31-.85,1.89.14,1.53-.11.81-.71-.18-1.32-1.37-1.02-2.1.41-.82-.6.49-.51h2.08V4.72l-.91-.44h-1l-.94.19-1.25-.09-.89-.5-1.43-1.15-1.06-.25-1,.53-.54,1.34-.54,1.28-1.11.48-1.21.15-.5.57.63.6,1.3.56,1.81.09c.19,0,1.35.33,1.35.33l.51.74-.29.75-.72.63-.34.3-1.08-.29-.76.35.38,1v.55l-.37.83-.33.7-2.09-.37-4.549.28-2.909.52-1.91-.16-1.71-.74-1.56-1-2.2-.1-.91-.32-1-.9-1.11-.2-.83-.38-.39-1.25V8l-2-.1-2.909.59-1.17.53-1.94.45-1.79,1.2-.18.86.84.47,1.07-.14.6-.24.7-.6h1.27l1-.19,1.84-.85,1.18-.45.1.31-.59,1-2.4,1.16-2.609.7-.67.69.44,1.76s1.23,2,1.33,2.17a7.665,7.665,0,0,1,.29,1l-.74.3a.35.35,0,0,0-.48.23,4.642,4.642,0,0,1-.3.73l-1.63-.36-.13-.84.73-.7-.38-1.15-1.1-1-1.15-.24v-.81h-1.54l-2.26-1.24-1.1.28-1.94.53-4.809.58-5,.06-3.269-.82.33-1.18,1.31-.82,1.9-.43.49-.14-.62-1.3-1.48-1.25-1.9-.75-2.4-.37-.57.59-3.3-.52-3-.83-1.72-.71-2.15-.26-2.789-.79-2.829-1.64-2.54-.48-3.109.63-.58.61-.77.89-2.859.38-.54-.34.68-1.68-.33-.6-.35-1.67-.36-.15-.84.65-1.15,2-1.17,1.44-1.08.38-1.32-.81L179.3.79l-.62-.79H176.3l.31.76-.63.24-.76.26-.1.39-.7,1.35-1.09.73-.51-.1-.3-.55L171.327,3l-1.24.81-1.05,1.08-1.12.67h-.73l-.4-.45-1.85.4-2.21,1.27-.8,1-.15.71-1.26.64-1.2-.13V8.47l3.189-2.34,3.609-2.08,1.45-.37,2.839-1.12,1.16-1-.36-.37-1.38.05-2.07.1-2.2,1-2.08,1-2.11.53-.92.42-.1,1-1-.09h-.66l-.74.51-.6-.32.3-.76L156.19,4l-.3.16-.46.76-1.62.35-2.37.92.15,1.09,1,.54.7.56-.42.7-1.4-.36-2.38-.86-2-.1-2.619-.88-3.1-1.84-.48-.6-3.219-.36-3.529-.27-3.8-1.42-2.57-.57-3,.42h-3l-2.909-.91h-2.619l-1.78-.1L110.858,0H76V.22l-.7.19L74.835,0h-1.28L73.4.19l-1.07.43-2.44.23-.78-.07-1.18.63-1.79,1.7-.71.72-.22,1.27-.5,1.32-1.3,1.31-3.179.94-3.3.11-1.14.09-.2,1.13-.33,1.15.44.58,2.59,1,2,.61c.14,0,2.22,2.52,2.22,2.52L64,18.33l.68.38,2.42-.23h2.18l.6.1.37,2,.7.46,2.42.28.28.6-.75.49-1.4.05-1.6.5L68,24l-1.12-.64H64.007l-1.08.09-.18-.58L63,21l-1.11-.27-2.58.81-1.62,1.06-.1.8-.51.33-.91-.29-.91.06-2.2,1.08L50.65,26.1l.68.81,2.729.86,1.39.23-.4.61-.44.82.89.48.39,1L57.819,32l3.209.14,2.6-.37,1.72.6,1,.1,1.26-1.3,2.18-1.4,1.58.05.68.36.43.75-1.16.79L71,32l.9,1.46.33,1.54-1.07,1.59-1.59.4-1.23-.18-.69-.13-.8,1.33L66,39.29h-1.63l-.84-.55-1.09-.48-1.31.3-.39,1.13v2l-.92.27-1.23.39-.55.54-.61,1.46-.74.62-1.36.17.84,1.33,1.18,1.33.69.17,1,.38.35.9-.61,1.15-.25.68.37.25,1.49.4,1.48,2.25.92,1,1,.35L65,54.84l1.47-.42.76-.16.56-1.3.75.69.8,1.45.19.62-.21.92-.38.93L69,59v.74l1.44.48,1.67-.42.61-.74,1.2-.65,1.68.46,1.4,1.13,1.26,1.06.35-.76.25-1.3.79-.65.49.93.81.37,2.38-.58,1-.3.13.44-1,1.32-.7,1.91v1.3l-.07,1.49-1.16.92-1.9,2.22-.61.36-1.4.43-1.93,1.38L73.2,73l-3.749-.2-.89.36-.76,1.27-1.39,1.49-.44.65.09.32L68,76.31l1.85-1.43.33-.84.78.78,1.08.33L73.476,74l.74-.41,1.55.13,1-.41,1.73-.7,1.5-.38.44-1.51L82.624,69l2.37-1,1.49-.46.51-1.54,2.32-.93,1.56-1.43,1.1-.64,1.75-.44.09-1.56.48-.53,1-.39.82-1.4-1.12-.58-1.63-.49.33-.67,1-1,1.3-.56H97.1l1-1.2-.11-.67.43-.93,1.44-1,1.25-2,1-.41,1.21-.93,1.35-.89.79.38s.29.57.77.49a4.348,4.348,0,0,1,1.13,0v1l-1.11.14-1.2-.36a7.137,7.137,0,0,0-.93.24c-.15.07-1.52,1.38-1.52,1.38L102.28,52l-.77,1.35-.33,1.33.88.46.35.61-2,1.26,1.11.54,1.21-.14,1.72-.69,3.3-2.37,3.059-.84,2.07.45-.26-1.1.33-.5-.84-.75-.83-1.35.23-.88,1.09-.42.54-.88,1.57.83h1.17l1.2,1.29h.84l1.14.09.32.68-1.71.36-.62.54.19.66,1.7-.84,1.12-.19,1,.75.32.32,1-.89.64-.36v1s1.11.73,1.25.78,3.719.47,3.719.47l4.269-.19,1.1-.16,1.36,1.23,1.42.65h1.6l1.53-1.3.68.1.47.74-1.09,1.2-.11.47.94.46,3.569,1.4,1.3,1.39,2.47,1.77,1.44.69.41-.6-.09-1.3.42-.14,1.3.74.65.14.88.67.65.49.37-.65s-.27-1-.32-1.11-.56-1.81-.56-1.81v-.84l1.06.6.37,1,.37,1-.07,2.78s-.25.76-.49.84a5.358,5.358,0,0,1-1.19-.09l-.66-.57-.16-.6-.66-.08-1.23.51v.8l1.14,1.71,1.33.81.65,1.3.32.85.75.78.71,1a3.06,3.06,0,0,0,.45-.79c0-.19-.41-2-.41-2s-.61-1.67-.66-1.86-.08-1.35.38-1.12l.88.47-.14,1.44.13.55.84-.18,1.31-1.3-.28-1.67-.1-.79,1.09.08.63,1.63.21,1.07-.67.9-.61,1-1.55.47-.19,1.76.53,1.51.91-1.49.65.6,1.34-1,.37.33,1.26,1.59,1.37.49.21-.51-.56-.65-1.53-.65-.19-.88.61-.75,1.06.1,1.36,2.22.2,1.32-1,.81-.85.63-1-.61-1.07-.84-.65.22.41,1.34.39.82-.09,1.13-.27.85.42,1.07.64.28a1.63,1.63,0,0,0,.23-.56,5,5,0,0,1,.17-.76l.39-.21,1.21.55.14.29.65-.84v-.9l.56-.36,1,.92.31.29.36-.49.79-.57.45.87-.18,1.35v.33l1-.33.37.56.64,1,.68.57-.1.57-1.13.34.37.84.34,1.46.5,1.05,1.58-.32,1.35-.61.6.51-.39,1.51-.12.75.6.62.84-.33.84-.18,1.73,1.77,1,1-.84.37-.57.28v1.21l.9.6a7.483,7.483,0,0,1,.26,1.16,1.69,1.69,0,0,0,.31.72l1.52.77h1.5l1.75.49.87,1.31,1.67.49,1.11-.5.56,1.78.29.84h2.15l1.21.52,1.18.31,1,.31.31,1.56.89,1.53.5,1v1.28l.21,2.17-.59,1.85-1.3-.19.37-1.21.35-1.15-.77-.79-.58-.75.33-2.12-1.48-.46-.49-.35-3.129-1.27-1-1.52-2.22-2.65-1.28-.33-2.5-.28-2.06-1.17-1.38-.34-1.08.39.74,1.05.6,1.19,1.09.19,1.35,1,.8.64,1.31.9,1.73.56.7,1.66,1.6.69.56.8.83,1,.92,3.18,1.08,1.75.39,1.29.21.68,1.51,1.24-.57.21-1,.11-.16,2.75-.19,1.78-.15,3.59-.25,2.74-1,3.29.52,1.55.78,1.92.18,1.62-.44,2.59.16,1.6.47,1,.49,2.85.48,1.25,1.35,1.25,1,1.45,1.46,1.22.35,1.67,1,.79.59.67-.17,1.76,1.2,1.63,2.679,2.54.43,1.46.15.72,2,.45,2.54,1.68,1.49.24.93-.1,2.06,1.84,1.22,2.8,1,2.05s2.919,5,3,5.21.63,2.26.63,2.26l1.78,1.84,2.1,1.28,1.35,1.77.18,2.39-2.5.21,1,1.39,1.49,1.08,1.35.45,1.39.18,2,1.9,1.28,2a2.365,2.365,0,0,1-.06,1.46,2.48,2.48,0,0,0-.4.91l2,1.63,2.52,1.7,2.09,2.45.43,1,.93.13.6-1.1-.6-1.5-.1-1-.46-.79-2.18-.32-.76-2.78-1.15-1.36-.86-3.07-1.48-2.5-2.16-2.79-1.24-1.92-1-1,.35-1.67-1.39-.52-1.79-.81-1.12-1.3-.37-3.15-.68-2.85.68-.44,1.16,1.19,1.2-.26,1,.93.43.37h1.65l-.26,1.32.28,1.51,1.51,3.14-.42,1.53.32,1.25h.64l.5-.43,1,.43,1.24,1.37,1.05.8,1.59,1,.46,1.4,1.06.68.73.31.91,1,.95.26.22,1.43-.26,1.4,2.749,1.85.92.91,1.46,1.65,5.569,6.15,1.81,3.21.35,1-.31,1.72.19,1.05-1,.63,1.44,3.27,1,.61,1.47.44,3,2.62,1.42.67,2.479.49,6,3,2.749.57,5.619,2.95,3,.83,3.329-1.18,2.549-.43,3.889,1.71,3.429,3,4,3.09h3.149l1.94,1,4.129,1.11,1-.42h.94l.28,1.18.08.81,2.34,2.28,1.88,1.77,1.07,1.27-.24,1.23-.41,1,1.24,1.72h.17Z" transform="translate(-50.65)" fill="#3d2a88"/>
        <path id="Trazado_229163" data-name="Trazado 229163" d="M309.85,4.36l.15.29v-.7Z" transform="translate(-50.7)" fill="#3d2a88"/>
      </g>
      <path id="Trazado_229164" data-name="Trazado 229164" d="M292.16,269.08l-1.26,1.99.63,1.31,1.7.46.2-1.88Z" transform="translate(-0.056)" fill="#372384"/>
      <path id="Trazado_229165" data-name="Trazado 229165" d="M163.029,80.44,160.26,82.2l1.39,2.69,1.38,1.53,2.589,1.36V86.66l-1.2-2.52-.28-1.2Z" transform="translate(-0.031)" fill="#372384"/>
      <g id="Grupo_63115" data-name="Grupo 63115" transform="translate(67.131 22.29)">
        <path id="Trazado_229166" data-name="Trazado 229166" d="M213.742,204.78c-33.5-19.33-87.863-19.33-121.436,0s-33.524,50.8,0,70.13,87.933,19.4,121.436,0S247.265,224.16,213.742,204.78Z" transform="translate(-67.144 -22.29)" opacity="0.3"/>
        <g id="Grupo_63041" data-name="Grupo 63041" transform="translate(74.612 153.513)">
          <path id="Trazado_229167" data-name="Trazado 229167" d="M201.778,241.93a4,4,0,0,1-2-.5L143,208.65a2.25,2.25,0,0,1-1.23-2,2.45,2.45,0,0,1,1.36-2.11l24.375-14.08a4.608,4.608,0,0,1,4.229-.07L228.5,223.17a2.31,2.31,0,0,1,1.23,2,2.47,2.47,0,0,1-1.35,2.1l-24.4,14.1A4.549,4.549,0,0,1,201.778,241.93Z" transform="translate(-141.77 -175.803)" opacity="0.3"/>
          <g id="Grupo_63034" data-name="Grupo 63034" transform="translate(0.445 11.886)">
            <path id="Trazado_229168" data-name="Trazado 229168" d="M228.983,222.12l-3.889-.1v1l-54.529-31.49a3.159,3.159,0,0,0-2.869.06L146,204.1l.22-.24-4-.53v3.46h0a.93.93,0,0,0,.54.78L200.629,241a3.249,3.249,0,0,0,2.879-.07l24.855-14.36a1.07,1.07,0,0,0,.65-.89h0Z" transform="translate(-142.216 -187.689)" fill="#70aa44"/>
            <path id="Trazado_229169" data-name="Trazado 229169" d="M228.483,221.4,170.6,188a3.159,3.159,0,0,0-2.869.07L142.87,202.4c-.82.48-.88,1.22-.12,1.66l57.879,33.43a3.249,3.249,0,0,0,2.879-.07l24.855-14.36C229.183,222.58,229.243,221.84,228.483,221.4Z" transform="translate(-142.216 -187.689)" fill="#88c65b"/>
            <path id="Trazado_229170" data-name="Trazado 229170" d="M220.166,220.78l.23-.14c.76-.43.78-1.14,0-1.57l-46.541-26.88a3,3,0,0,0-2.749,0l-.14.07a3,3,0,0,1-2.739,0h0a2.939,2.939,0,0,0-2.719,0l-15.257,8.8c-.76.45-.78,1.15,0,1.57h0a.835.835,0,0,1,0,1.57l-.22.13c-.76.44-.78,1.15,0,1.58l46.561,26.88a3,3,0,0,0,2.709,0l.25-.15a3,3,0,0,1,2.709,0l.6.35a3,3,0,0,0,2.739,0l15.177-8.76c.76-.45.78-1.14,0-1.57l-.62-.37C219.386,221.92,219.406,221.22,220.166,220.78Z" transform="translate(-142.217 -187.689)" fill="#fff"/>
            <path id="Trazado_229171" data-name="Trazado 229171" d="M192.506,216.76c5.449-3.14,6.769-7.49,2.939-9.7s-11.348-1.45-16.8,1.69-6.769,7.49-2.939,9.7S187.067,219.91,192.506,216.76Z" transform="translate(-142.222 -187.689)" fill="#88c65b"/>
            <path id="Trazado_229172" data-name="Trazado 229172" d="M165.74,201.25c-1.73,1-1.84,2.55-.25,3.47a6.638,6.638,0,0,0,6-.15c1.72-1,1.84-2.54.25-3.46a6.638,6.638,0,0,0-6,.14Z" transform="translate(-142.22 -187.689)" fill="#88c65b"/>
            <path id="Trazado_229173" data-name="Trazado 229173" d="M199.57,220.79c-1.72,1-1.83,2.55-.24,3.47a6.648,6.648,0,0,0,6-.15c1.73-1,1.84-2.56.26-3.47a6.668,6.668,0,0,0-6.019.15Z" transform="translate(-142.226 -187.689)" fill="#88c65b"/>
          </g>
          <g id="Grupo_63035" data-name="Grupo 63035" transform="translate(0.446 7.886)">
            <path id="Trazado_229174" data-name="Trazado 229174" d="M228.983,218.15l-3.889-.09V219l-54.529-31.49a3.159,3.159,0,0,0-2.869.07L146,200.13l.22-.24-4-.52v3.45h0a.9.9,0,0,0,.54.78L200.629,237a3.219,3.219,0,0,0,2.879-.07l24.855-14.36a1.08,1.08,0,0,0,.65-.9h0Z" transform="translate(-142.216 -183.689)" fill="#70aa44"/>
            <path id="Trazado_229175" data-name="Trazado 229175" d="M228.483,217.43,170.6,184a3.159,3.159,0,0,0-2.869.07L142.87,198.42c-.82.48-.88,1.23-.12,1.67l57.879,33.42a3.179,3.179,0,0,0,2.879-.07l24.855-14.36C229.183,218.61,229.243,217.87,228.483,217.43Z" transform="translate(-142.216 -183.689)" fill="#88c65b"/>
            <path id="Trazado_229176" data-name="Trazado 229176" d="M220.166,216.81l.23-.14c.76-.44.78-1.14,0-1.57l-46.541-26.87a3,3,0,0,0-2.749,0l-.14.09a3,3,0,0,1-2.739,0h0a3,3,0,0,0-2.719,0l-15.257,8.81c-.76.44-.78,1.14,0,1.57h0a.835.835,0,0,1,0,1.57l-.22.12c-.76.44-.78,1.15,0,1.58l46.561,26.89a3.069,3.069,0,0,0,2.71,0l.25-.15a3,3,0,0,1,2.709,0l.6.35a3,3,0,0,0,2.739,0l15.177-8.78c.76-.43.78-1.13,0-1.57l-.62-.36C219.386,218,219.406,217.25,220.166,216.81Z" transform="translate(-142.217 -183.689)" fill="#fff"/>
            <path id="Trazado_229177" data-name="Trazado 229177" d="M192.506,212.79c5.449-3.15,6.769-7.49,2.939-9.7s-11.348-1.45-16.8,1.69-6.769,7.49-2.939,9.71S187.067,215.94,192.506,212.79Z" transform="translate(-142.222 -183.689)" fill="#88c65b"/>
            <path id="Trazado_229178" data-name="Trazado 229178" d="M165.74,197.28c-1.73,1-1.84,2.55-.25,3.47a6.668,6.668,0,0,0,6-.14c1.72-1,1.84-2.55.25-3.47a6.608,6.608,0,0,0-6,.14Z" transform="translate(-142.22 -183.689)" fill="#88c65b"/>
            <path id="Trazado_229179" data-name="Trazado 229179" d="M199.57,216.82c-1.72,1-1.83,2.55-.24,3.47a6.618,6.618,0,0,0,6-.15c1.73-1,1.84-2.55.26-3.47a6.668,6.668,0,0,0-6.019.15Z" transform="translate(-142.226 -183.689)" fill="#88c65b"/>
          </g>
          <g id="Grupo_63036" data-name="Grupo 63036" transform="translate(0.446 3.946)">
            <path id="Trazado_229180" data-name="Trazado 229180" d="M228.983,214.2l-3.889-.1v1l-54.529-31.49a3.159,3.159,0,0,0-2.869.07L146,196.18l.22-.24-4-.52v3.45h0a.94.94,0,0,0,.54.79l57.879,33.42a3.179,3.179,0,0,0,2.879-.07l24.855-14.36a1.08,1.08,0,0,0,.65-.91h0Z" transform="translate(-142.216 -179.749)" fill="#70aa44"/>
            <path id="Trazado_229181" data-name="Trazado 229181" d="M228.483,213.48,170.6,180.06a3.159,3.159,0,0,0-2.869.07L142.87,194.48c-.82.48-.88,1.23-.12,1.66l57.879,33.42a3.179,3.179,0,0,0,2.879-.06l24.855-14.35C229.183,214.66,229.243,213.93,228.483,213.48Z" transform="translate(-142.216 -179.749)" fill="#88c65b"/>
            <path id="Trazado_229182" data-name="Trazado 229182" d="M220.166,212.87l.23-.14c.76-.44.78-1.14,0-1.57l-46.541-26.88a3,3,0,0,0-2.749,0l-.14.08a3,3,0,0,1-2.739,0h0a3,3,0,0,0-2.719,0l-15.257,8.81c-.76.43-.78,1.14,0,1.57h0a.835.835,0,0,1,0,1.57l-.22.13c-.76.44-.78,1.14,0,1.57L196.511,225a3,3,0,0,0,2.709,0l.25-.15a3,3,0,0,1,2.709,0l.6.34a3,3,0,0,0,2.739,0l15.177-8.77c.76-.43.78-1.13,0-1.57l-.62-.37A.87.87,0,0,1,220.166,212.87Z" transform="translate(-142.217 -179.749)" fill="#fff"/>
            <path id="Trazado_229183" data-name="Trazado 229183" d="M192.506,208.85c5.449-3.15,6.769-7.5,2.939-9.7s-11.348-1.46-16.8,1.69-6.769,7.49-2.939,9.7S187.067,212,192.506,208.85Z" transform="translate(-142.222 -179.749)" fill="#88c65b"/>
            <path id="Trazado_229184" data-name="Trazado 229184" d="M165.74,193.33c-1.73,1-1.84,2.55-.25,3.47a6.638,6.638,0,0,0,6-.14c1.72-1,1.84-2.55.25-3.47a6.638,6.638,0,0,0-6,.14Z" transform="translate(-142.22 -179.749)" fill="#88c65b"/>
            <path id="Trazado_229185" data-name="Trazado 229185" d="M199.57,212.87c-1.72,1-1.83,2.55-.24,3.47a6.648,6.648,0,0,0,6-.14c1.73-1,1.84-2.56.26-3.48a6.728,6.728,0,0,0-6.019.15Z" transform="translate(-142.226 -179.749)" fill="#88c65b"/>
          </g>
          <g id="Grupo_63037" data-name="Grupo 63037" transform="translate(0.416)">
            <path id="Trazado_229186" data-name="Trazado 229186" d="M228.983,210.23l-3.889-.09v1L170.6,179.6a3.189,3.189,0,0,0-2.869.07L146,192.22l.22-.25-4-.53v3.46h0a.93.93,0,0,0,.54.78l57.879,33.43a3.179,3.179,0,0,0,2.879-.07l24.855-14.36a1.08,1.08,0,0,0,.65-.9h0Z" transform="translate(-142.186 -175.803)" fill="#70aa44"/>
            <path id="Trazado_229187" data-name="Trazado 229187" d="M228.483,209.51,208.567,198l-2.57-.56L191.26,189l-.69-1.36-20-11.53a3.189,3.189,0,0,0-2.869.07L142.84,190.53c-.82.48-.88,1.23-.12,1.66L200.6,225.62a3.149,3.149,0,0,0,2.879-.07l24.855-14.35C229.183,210.7,229.243,210,228.483,209.51Z" transform="translate(-142.186 -175.803)" fill="#88c65b"/>
            <path id="Trazado_229188" data-name="Trazado 229188" d="M220.166,208.89l.23-.13c.76-.44.78-1.14,0-1.57l-46.541-26.88a3,3,0,0,0-2.749,0l-.14.09a3,3,0,0,1-2.739,0h0a3,3,0,0,0-2.719,0l-15.257,8.82c-.76.43-.78,1.13,0,1.56h0a.835.835,0,0,1,0,1.57l-.22.13c-.76.43-.78,1.14,0,1.57L196.511,221a3,3,0,0,0,2.709,0l.25-.15a3,3,0,0,1,2.709,0l.6.35a3,3,0,0,0,2.739,0l15.177-8.77c.76-.44.78-1.14,0-1.57l-.62-.37A.862.862,0,0,1,220.166,208.89Z" transform="translate(-142.187 -175.803)" fill="#fff"/>
            <path id="Trazado_229189" data-name="Trazado 229189" d="M192.506,204.88c5.449-3.15,6.769-7.5,2.939-9.71s-11.348-1.45-16.8,1.7-6.769,7.49-2.939,9.7S187.067,208,192.506,204.88Z" transform="translate(-142.192 -175.803)" fill="#88c65b"/>
            <path id="Trazado_229190" data-name="Trazado 229190" d="M165.74,189.36c-1.73,1-1.84,2.55-.25,3.47a6.678,6.678,0,0,0,6-.15c1.72-1,1.84-2.55.25-3.46a6.637,6.637,0,0,0-6,.14Z" transform="translate(-142.19 -175.803)" fill="#88c65b"/>
            <path id="Trazado_229191" data-name="Trazado 229191" d="M199.57,208.9c-1.72,1-1.83,2.56-.24,3.47a6.648,6.648,0,0,0,6-.14c1.73-1,1.84-2.56.26-3.48a6.7,6.7,0,0,0-6.019.15Z" transform="translate(-142.196 -175.803)" fill="#88c65b"/>
          </g>
          <g id="Grupo_63040" data-name="Grupo 63040" transform="translate(20.866 11.787)">
            <g id="Grupo_63038" data-name="Grupo 63038" transform="translate(0 16.13)">
              <path id="Trazado_229192" data-name="Trazado 229192" d="M177.338,227.57l-11.4-6.58V205.63l11.4,6.59Z" transform="translate(-162.641 -203.72)" fill="#b3c9ec"/>
              <path id="Trazado_229193" data-name="Trazado 229193" d="M180.639,229.48l-3.3-1.91V212.22l3.3,1.9Z" transform="translate(-162.643 -203.72)" fill="#ffc554"/>
              <path id="Trazado_229194" data-name="Trazado 229194" d="M165.939,220.99l-3.3-1.91V203.72l3.3,1.91Z" transform="translate(-162.64 -203.72)" fill="#ffc554"/>
            </g>
            <g id="Grupo_63039" data-name="Grupo 63039">
              <path id="Trazado_229195" data-name="Trazado 229195" d="M205.292,196.07l-11.4-6.57L165.94,205.63l11.4,6.58Z" transform="translate(-162.641 -187.59)" fill="#fff"/>
              <path id="Trazado_229196" data-name="Trazado 229196" d="M208.594,197.98l-3.3-1.91L177.34,212.21l3.3,1.91Z" transform="translate(-162.643 -187.59)" fill="#ffeb7a"/>
              <path id="Trazado_229197" data-name="Trazado 229197" d="M193.894,189.5l-3.3-1.91L162.64,203.72l3.3,1.91Z" transform="translate(-162.64 -187.59)" fill="#ffeb7a"/>
            </g>
          </g>
        </g>
        <g id="Grupo_63049" data-name="Grupo 63049" transform="translate(72.294 132.854)">
          <g id="Grupo_63042" data-name="Grupo 63042" transform="translate(0.03 11.89)">
            <path id="Trazado_229198" data-name="Trazado 229198" d="M226.293,201.48l-3.889-.09v1L167.875,170.9a3.179,3.179,0,0,0-2.879.07l-21.716,12.54.23-.24-4-.53v3.46h0a.93.93,0,0,0,.54.79l57.879,33.42a3.189,3.189,0,0,0,2.869-.07l24.865-14.36a1.06,1.06,0,0,0,.64-.9h0Z" transform="translate(-139.482 -167.034)" fill="#70aa44"/>
            <path id="Trazado_229199" data-name="Trazado 229199" d="M225.743,200.76l-57.869-33.42a3.219,3.219,0,0,0-2.879.07L140.14,181.77c-.83.47-.88,1.22-.12,1.65L197.9,216.84a3.129,3.129,0,0,0,2.869-.06l24.865-14.35C226.453,201.94,226.513,201.2,225.743,200.76Z" transform="translate(-139.482 -167.034)" fill="#88c65b"/>
            <path id="Trazado_229200" data-name="Trazado 229200" d="M217.426,200.14l.23-.13c.77-.44.78-1.14,0-1.57l-46.551-26.88a3,3,0,0,0-2.739,0l-.14.07a3,3,0,0,1-2.739,0h0a3,3,0,0,0-2.719,0l-15.267,8.8c-.76.45-.77,1.16,0,1.57h0a.842.842,0,0,1,0,1.58l-.22.12c-.77.44-.78,1.15,0,1.58l46.561,26.89a3.069,3.069,0,0,0,2.71,0l.26-.16a3.069,3.069,0,0,1,2.71,0l.6.35a3,3,0,0,0,2.729,0l15.137-8.71c.76-.45.78-1.14,0-1.57l-.62-.37C216.656,201.28,216.676,200.58,217.426,200.14Z" transform="translate(-139.483 -167.034)" fill="#fff"/>
            <path id="Trazado_229201" data-name="Trazado 229201" d="M189.776,196.12c5.449-3.14,6.769-7.49,2.939-9.69s-11.358-1.46-16.807,1.69-6.769,7.49-2.929,9.7S184.327,199.27,189.776,196.12Z" transform="translate(-139.488 -167.034)" fill="#88c65b"/>
            <path id="Trazado_229202" data-name="Trazado 229202" d="M163,180.61c-1.72,1-1.83,2.55-.25,3.47a6.638,6.638,0,0,0,6-.15c1.73-1,1.84-2.55.25-3.46A6.668,6.668,0,0,0,163,180.61Z" transform="translate(-139.486 -167.034)" fill="#88c65b"/>
            <path id="Trazado_229203" data-name="Trazado 229203" d="M196.84,200.15c-1.73,1-1.84,2.55-.25,3.47a6.678,6.678,0,0,0,6-.15c1.73-1,1.84-2.55.25-3.47A6.678,6.678,0,0,0,196.84,200.15Z" transform="translate(-139.493 -167.034)" fill="#88c65b"/>
          </g>
          <g id="Grupo_63043" data-name="Grupo 63043" transform="translate(0.03 7.923)">
            <path id="Trazado_229204" data-name="Trazado 229204" d="M226.293,197.51l-3.889-.09v1l-54.529-31.49A3.179,3.179,0,0,0,165,167l-21.716,12.54.23-.24-4-.53v3.46h0a.9.9,0,0,0,.54.78l57.879,33.43a3.159,3.159,0,0,0,2.869-.07L225.633,202a1.06,1.06,0,0,0,.64-.9h0Z" transform="translate(-139.482 -163.068)" fill="#70aa44"/>
            <path id="Trazado_229205" data-name="Trazado 229205" d="M225.743,196.79l-57.869-33.42a3.249,3.249,0,0,0-2.879.07L140.14,177.79c-.83.48-.88,1.23-.12,1.67L197.9,212.88a3.159,3.159,0,0,0,2.869-.07l24.865-14.36C226.453,198,226.513,197.23,225.743,196.79Z" transform="translate(-139.482 -163.068)" fill="#88c65b"/>
            <path id="Trazado_229206" data-name="Trazado 229206" d="M217.426,196.17l.23-.13c.77-.44.78-1.14,0-1.57l-46.551-26.88a3,3,0,0,0-2.739,0l-.14.08a3,3,0,0,1-2.739,0h0a3,3,0,0,0-2.719,0L147.5,176.48c-.76.44-.77,1.15,0,1.58h0a.835.835,0,0,1,0,1.57l-.22.13c-.77.44-.78,1.15,0,1.58l46.561,26.89a3,3,0,0,0,2.709,0l.26-.15a3,3,0,0,1,2.709,0l.6.36a3.049,3.049,0,0,0,2.729,0l15.137-8.76c.76-.44.78-1.14,0-1.57l-.62-.37C216.656,197.32,216.676,196.61,217.426,196.17Z" transform="translate(-139.483 -163.068)" fill="#fff"/>
            <path id="Trazado_229207" data-name="Trazado 229207" d="M189.776,192.15c5.449-3.14,6.769-7.48,2.939-9.7s-11.358-1.44-16.807,1.7-6.769,7.48-2.929,9.7S184.327,195.31,189.776,192.15Z" transform="translate(-139.488 -163.068)" fill="#88c65b"/>
            <path id="Trazado_229208" data-name="Trazado 229208" d="M163,176.64c-1.72,1-1.83,2.56-.25,3.47a6.668,6.668,0,0,0,6-.14c1.73-1,1.84-2.55.25-3.47A6.668,6.668,0,0,0,163,176.64Z" transform="translate(-139.486 -163.068)" fill="#88c65b"/>
            <path id="Trazado_229209" data-name="Trazado 229209" d="M196.84,196.18c-1.73,1-1.84,2.55-.25,3.47a6.638,6.638,0,0,0,6-.15c1.73-1,1.84-2.55.25-3.47A6.678,6.678,0,0,0,196.84,196.18Z" transform="translate(-139.493 -163.068)" fill="#88c65b"/>
          </g>
          <g id="Grupo_63044" data-name="Grupo 63044" transform="translate(0.03 3.965)">
            <path id="Trazado_229210" data-name="Trazado 229210" d="M226.293,193.56l-3.889-.1v1l-54.529-31.48A3.179,3.179,0,0,0,165,163l-21.716,12.54.23-.23-4-.53v3.45h0a.94.94,0,0,0,.54.79l57.879,33.42a3.129,3.129,0,0,0,2.869-.07L225.633,198a1.06,1.06,0,0,0,.64-.9h0Z" transform="translate(-139.482 -159.109)" fill="#70aa44"/>
            <path id="Trazado_229211" data-name="Trazado 229211" d="M225.743,192.85l-57.869-33.43a3.179,3.179,0,0,0-2.879.07L140.14,173.85c-.83.48-.88,1.22-.12,1.66L197.9,208.93a3.189,3.189,0,0,0,2.869-.06l24.865-14.37C226.453,194,226.513,193.29,225.743,192.85Z" transform="translate(-139.482 -159.109)" fill="#88c65b"/>
            <path id="Trazado_229212" data-name="Trazado 229212" d="M217.426,192.23l.23-.14c.77-.44.78-1.13,0-1.57l-46.551-26.88a3,3,0,0,0-2.739,0l-.14.08a3,3,0,0,1-2.739,0h0a3,3,0,0,0-2.719,0L147.5,172.53c-.76.44-.77,1.14,0,1.57h0a.835.835,0,0,1,0,1.57l-.22.13c-.77.44-.78,1.14,0,1.57l46.561,26.89a3,3,0,0,0,2.709,0l.26-.15a3,3,0,0,1,2.709,0l.6.34a3,3,0,0,0,2.729,0l15.137-8.72c.76-.44.78-1.14,0-1.57l-.62-.37C216.656,193.36,216.676,192.66,217.426,192.23Z" transform="translate(-139.483 -159.109)" fill="#fff"/>
            <path id="Trazado_229213" data-name="Trazado 229213" d="M189.776,188.21c5.449-3.15,6.769-7.5,2.939-9.7s-11.358-1.46-16.807,1.69-6.769,7.49-2.929,9.71S184.327,191.35,189.776,188.21Z" transform="translate(-139.488 -159.109)" fill="#88c65b"/>
            <path id="Trazado_229214" data-name="Trazado 229214" d="M163,172.7c-1.72,1-1.83,2.54-.25,3.47a6.678,6.678,0,0,0,6-.15c1.73-1,1.84-2.55.25-3.47A6.638,6.638,0,0,0,163,172.7Z" transform="translate(-139.486 -159.109)" fill="#88c65b"/>
            <path id="Trazado_229215" data-name="Trazado 229215" d="M196.84,192.23c-1.73,1-1.84,2.55-.25,3.47a6.638,6.638,0,0,0,6-.15c1.73-1,1.84-2.55.25-3.47A6.678,6.678,0,0,0,196.84,192.23Z" transform="translate(-139.493 -159.109)" fill="#88c65b"/>
          </g>
          <g id="Grupo_63045" data-name="Grupo 63045">
            <path id="Trazado_229216" data-name="Trazado 229216" d="M226.293,189.59l-3.889-.09v.95L167.875,159A3.189,3.189,0,0,0,165,159l-21.716,12.54.23-.25-4-.52v3.46h0a.93.93,0,0,0,.54.78l57.879,33.43a3.2,3.2,0,0,0,2.869-.08l24.865-14.35a1.08,1.08,0,0,0,.64-.91h0Z" transform="translate(-139.452 -155.144)" fill="#70aa44"/>
            <path id="Trazado_229217" data-name="Trazado 229217" d="M225.743,188.88l-19.916-11.5-2.56-.57-14.737-8.47-.69-1.36-20-11.53a3.219,3.219,0,0,0-2.879.07L140.11,169.88c-.83.47-.88,1.22-.12,1.65L197.9,205a3.159,3.159,0,0,0,2.869-.07l24.865-14.35C226.453,190.06,226.513,189.32,225.743,188.88Z" transform="translate(-139.452 -155.144)" fill="#88c65b"/>
            <path id="Trazado_229218" data-name="Trazado 229218" d="M217.426,188.26l.23-.14c.77-.43.78-1.13,0-1.57l-46.551-26.87a3,3,0,0,0-2.739,0l-.14.08a3,3,0,0,1-2.739,0h0a3,3,0,0,0-2.719,0L147.5,168.57c-.76.44-.77,1.14,0,1.57h0a.835.835,0,0,1,0,1.57l-.22.13c-.77.44-.78,1.14,0,1.57l46.561,26.89a3,3,0,0,0,2.709,0l.26-.14a3,3,0,0,1,2.709,0l.6.35a3.049,3.049,0,0,0,2.729,0l15.137-8.75c.76-.44.78-1.14,0-1.57l-.62-.36C216.656,189.4,216.676,188.7,217.426,188.26Z" transform="translate(-139.453 -155.144)" fill="#fff"/>
            <path id="Trazado_229219" data-name="Trazado 229219" d="M189.776,184.24c5.449-3.14,6.769-7.49,2.939-9.7s-11.358-1.46-16.807,1.69-6.769,7.49-2.929,9.7S184.327,187.39,189.776,184.24Z" transform="translate(-139.458 -155.144)" fill="#88c65b"/>
            <path id="Trazado_229220" data-name="Trazado 229220" d="M163,168.72c-1.72,1-1.83,2.56-.25,3.48a6.678,6.678,0,0,0,6-.15c1.73-1,1.84-2.55.25-3.47a6.668,6.668,0,0,0-6,.14Z" transform="translate(-139.456 -155.144)" fill="#88c65b"/>
            <path id="Trazado_229221" data-name="Trazado 229221" d="M196.84,188.27c-1.73,1-1.84,2.55-.25,3.46a6.668,6.668,0,0,0,6-.14c1.73-1,1.84-2.55.25-3.47a6.638,6.638,0,0,0-6,.15Z" transform="translate(-139.463 -155.144)" fill="#88c65b"/>
          </g>
          <g id="Grupo_63048" data-name="Grupo 63048" transform="translate(20.444 11.806)">
            <g id="Grupo_63046" data-name="Grupo 63046" transform="translate(0 16.14)">
              <path id="Trazado_229222" data-name="Trazado 229222" d="M174.6,206.93l-11.388-6.58V185l11.388,6.58Z" transform="translate(-159.901 -183.09)" fill="#b3c9ec"/>
              <path id="Trazado_229223" data-name="Trazado 229223" d="M177.909,208.84l-3.309-1.91V191.58l3.309,1.9Z" transform="translate(-159.903 -183.09)" fill="#ffc554"/>
              <path id="Trazado_229224" data-name="Trazado 229224" d="M163.209,200.35l-3.309-1.91V183.09l3.309,1.91Z" transform="translate(-159.9 -183.09)" fill="#ffc554"/>
            </g>
            <g id="Grupo_63047" data-name="Grupo 63047">
              <path id="Trazado_229225" data-name="Trazado 229225" d="M202.562,175.44l-11.408-6.59L163.21,185l11.388,6.57Z" transform="translate(-159.901 -166.95)" fill="#fff"/>
              <path id="Trazado_229226" data-name="Trazado 229226" d="M205.854,177.34l-3.289-1.9L174.6,191.57l3.309,1.91Z" transform="translate(-159.903 -166.95)" fill="#ffeb7a"/>
              <path id="Trazado_229227" data-name="Trazado 229227" d="M191.154,168.85l-3.289-1.9L159.9,183.09l3.309,1.91Z" transform="translate(-159.9 -166.95)" fill="#ffeb7a"/>
            </g>
          </g>
        </g>
        <g id="Grupo_63065" data-name="Grupo 63065" transform="translate(58.235 172.133)">
          <g id="Grupo_63052" data-name="Grupo 63052" transform="translate(0.72 11.514)">
            <path id="Trazado_229228" data-name="Trazado 229228" d="M138.248,222.33a17.2,17.2,0,0,1-8.5-2.05c-2.34-1.35-3.639-3.18-3.639-5.14s1.3-3.79,3.639-5.15a18.723,18.723,0,0,1,17,0c2.35,1.36,3.639,3.19,3.639,5.15s-1.29,3.79-3.639,5.14A17.234,17.234,0,0,1,138.248,222.33Z" transform="translate(-126.11 -205.936)" opacity="0.3"/>
            <path id="Trazado_229229" data-name="Trazado 229229" d="M149.216,212.73a7.769,7.769,0,0,0-2.669-2.38c-4.579-2.65-12-2.65-16.587,0a7.369,7.369,0,0,0-2.879,2.71l-.56-.34v2.42c0,1.73,1.15,3.47,3.439,4.79,4.569,2.64,12,2.64,16.587,0,2.23-1.29,3.369-3,3.429-4.67h0v-2.65Z" transform="translate(-126.11 -205.936)" fill="#f4a42e"/>
            <path id="Trazado_229230" data-name="Trazado 229230" d="M146.546,207.92c4.579,2.65,4.579,6.94,0,9.59s-12,2.64-16.587,0-4.579-6.94,0-9.59S142,205.28,146.546,207.92Z" transform="translate(-126.11 -205.936)" fill="#ffeb7a"/>
            <g id="Grupo_63050" data-name="Grupo 63050" transform="translate(2.867 0.984)">
              <path id="Trazado_229231" data-name="Trazado 229231" d="M145,208.93a14.635,14.635,0,0,0-13.267,0c-3.669,2.12-3.669,5.55,0,7.66a14.635,14.635,0,0,0,13.267,0C148.636,214.48,148.636,211.05,145,208.93Zm-1.17,7a12,12,0,0,1-10.838,0c-3-1.72-3-4.53,0-6.26a12,12,0,0,1,10.838,0c2.969,1.72,2.969,4.53-.03,6.25Z" transform="translate(-128.977 -206.92)" fill="#f4a42e"/>
              <path id="Trazado_229232" data-name="Trazado 229232" d="M145,208.51a14.635,14.635,0,0,0-13.267,0c-3.669,2.11-3.669,5.54,0,7.66a14.635,14.635,0,0,0,13.267,0C148.636,214.05,148.636,210.62,145,208.51Zm-1.17,7a12,12,0,0,1-10.838,0c-3-1.72-3-4.54,0-6.26a12,12,0,0,1,10.838,0c2.969,1.75,2.969,4.53-.03,6.25Z" transform="translate(-128.977 -206.92)" fill="#ffc554"/>
            </g>
            <g id="Grupo_63051" data-name="Grupo 63051" transform="translate(7.119 2.924)">
              <path id="Trazado_229233" data-name="Trazado 229233" d="M142.378,214.45a1.79,1.79,0,0,0,.74-1.17h0v-.81l-.27.06a2.14,2.14,0,0,0-.55-.45c-1-.59-2.18-.64-4-.13-1.32.34-2,.44-2.33.22s-.39-.5.34-.92a6.637,6.637,0,0,1,2-.73v-.75l-.95-.17a7.218,7.218,0,0,0-2,.73l-1-.58-1.11-.11v.76l1.08.62a2.529,2.529,0,0,0-.48.52l-.21-.14v.78h0a1.32,1.32,0,0,0,.79,1.1c1.1.63,2.49.48,4.1,0,1.13-.32,1.76-.37,2.19-.12s.26.66-.39,1-1.71-.09-2.37.05V215l1,1a8.1,8.1,0,0,0,2.41-.82l1.07.61,1.11-.64v-.75Z" transform="translate(-133.23 -208.86)" fill="#f4a42e"/>
              <path id="Trazado_229234" data-name="Trazado 229234" d="M142.418,215l-1.07-.62a8.138,8.138,0,0,1-2.41.83l-1-1a7.607,7.607,0,0,0,2.37-.79c.65-.38.84-.77.39-1s-1.06-.19-2.19.13c-1.61.46-3,.61-4.1,0s-1.07-1.43-.1-2.27l-1.08-.62,1.11-.64,1,.58a7.638,7.638,0,0,1,2-.74l.95.93a6.838,6.838,0,0,0-2,.72c-.73.42-.66.75-.34.92s1,.13,2.33-.21c1.82-.51,3-.46,4,.12s1.15,1.49.08,2.37l1.15.67Z" transform="translate(-133.23 -208.86)" fill="#ffc554"/>
            </g>
          </g>
          <g id="Grupo_63055" data-name="Grupo 63055" transform="translate(1.54 8.597)">
            <path id="Trazado_229235" data-name="Trazado 229235" d="M149.626,209.83a7.9,7.9,0,0,0-2.669-2.39c-4.579-2.64-12-2.64-16.587,0a7.459,7.459,0,0,0-2.879,2.72l-.56-.34v2.42c0,1.73,1.15,3.46,3.439,4.78,4.569,2.65,12,2.65,16.587,0,2.23-1.28,3.369-3,3.429-4.65h0v-2.66Z" transform="translate(-126.93 -203.02)" fill="#f4a42e"/>
            <path id="Trazado_229236" data-name="Trazado 229236" d="M147,205c4.579,2.65,4.579,6.94,0,9.59s-12,2.64-16.587,0-4.589-6.94,0-9.59S142.377,202.37,147,205Z" transform="translate(-126.93 -203.02)" fill="#ffeb7a"/>
            <g id="Grupo_63053" data-name="Grupo 63053" transform="translate(2.425 0.997)">
              <path id="Trazado_229237" data-name="Trazado 229237" d="M145.377,206a14.775,14.775,0,0,0-13.277,0c-3.659,2.13-3.659,5.56,0,7.67a14.655,14.655,0,0,0,13.277,0C149,211.58,149,208.15,145.377,206Zm-1.17,7a12,12,0,0,1-10.848,0c-3-1.73-3-4.53,0-6.26a11.926,11.926,0,0,1,10.848,0C147.207,208.49,147.207,211.29,144.207,213Z" transform="translate(-129.355 -204.017)" fill="#f4a42e"/>
              <path id="Trazado_229238" data-name="Trazado 229238" d="M145.377,205.6a14.715,14.715,0,0,0-13.277,0c-3.659,2.12-3.659,5.55,0,7.67a14.715,14.715,0,0,0,13.277,0C149,211.15,149,207.72,145.377,205.6Zm-1.17,7a12.046,12.046,0,0,1-10.848,0c-3-1.73-3-4.54,0-6.27a12,12,0,0,1,10.848,0C147.207,208.06,147.207,210.87,144.207,212.6Z" transform="translate(-129.355 -204.017)" fill="#ffc554"/>
            </g>
            <g id="Grupo_63054" data-name="Grupo 63054" transform="translate(6.709 2.93)">
              <path id="Trazado_229239" data-name="Trazado 229239" d="M142.788,211.54a1.71,1.71,0,0,0,.74-1.16h0v-.81l-.27.06a2,2,0,0,0-.55-.46c-1-.58-2.18-.62-4-.12-1.32.34-2,.43-2.33.22s-.4-.5.34-.93a6.838,6.838,0,0,1,2-.72v-.75l-.95-.17a7.218,7.218,0,0,0-2,.73l-1-.58-1.11-.11v.75l1.08.62a2.84,2.84,0,0,0-.48.53l-.21-.15v.79h0a1.31,1.31,0,0,0,.79,1.1c1.1.63,2.49.48,4.109,0,1.12-.32,1.75-.38,2.18-.12s.26.65-.38,1-1.72-.09-2.38,0v.77l1,.95a8.707,8.707,0,0,0,2.41-.82l1.08.6,1.1-.63v-.75Z" transform="translate(-133.64 -205.95)" fill="#f4a42e"/>
              <path id="Trazado_229240" data-name="Trazado 229240" d="M142.838,212.1l-1.08-.62a8.1,8.1,0,0,1-2.41.82l-1-1a7.487,7.487,0,0,0,2.38-.79c.64-.37.83-.77.38-1a3.029,3.029,0,0,0-2.18.12c-1.62.47-3,.61-4.109,0s-1.07-1.43-.1-2.26l-1.08-.62,1.11-.64,1,.57a7.218,7.218,0,0,1,2-.73l.95.93a6.748,6.748,0,0,0-2,.71c-.74.43-.66.75-.34.93s1,.13,2.33-.22c1.82-.5,3-.45,4,.13s1.16,1.49.08,2.37l1.15.67Z" transform="translate(-133.64 -205.95)" fill="#ffc554"/>
            </g>
          </g>
          <g id="Grupo_63058" data-name="Grupo 63058" transform="translate(0.72 5.95)">
            <path id="Trazado_229241" data-name="Trazado 229241" d="M148.806,207.16a7.769,7.769,0,0,0-2.669-2.38c-4.579-2.64-12-2.64-16.587,0a7.289,7.289,0,0,0-2.869,2.72l-.57-.34v2.41c0,1.74,1.15,3.47,3.439,4.79,4.579,2.65,12,2.65,16.587,0,2.23-1.28,3.369-3,3.429-4.65h0v-2.66Z" transform="translate(-126.11 -200.372)" fill="#f4a42e"/>
            <path id="Trazado_229242" data-name="Trazado 229242" d="M146.136,202.36c4.579,2.65,4.579,6.94,0,9.58s-12,2.65-16.587,0-4.579-6.93,0-9.58S141.557,199.71,146.136,202.36Z" transform="translate(-126.11 -200.372)" fill="#ffeb7a"/>
            <g id="Grupo_63056" data-name="Grupo 63056" transform="translate(2.427 0.985)">
              <path id="Trazado_229243" data-name="Trazado 229243" d="M144.557,203.36a14.7,14.7,0,0,0-13.267,0c-3.669,2.12-3.669,5.56,0,7.67a14.635,14.635,0,0,0,13.267,0C148.216,208.92,148.216,205.48,144.557,203.36Zm-1.17,7a12,12,0,0,1-10.838,0c-3-1.73-3-4.54,0-6.27a12,12,0,0,1,10.838,0C146.387,205.82,146.387,208.63,143.387,210.36Z" transform="translate(-128.537 -201.357)" fill="#f4a42e"/>
              <path id="Trazado_229244" data-name="Trazado 229244" d="M144.557,202.94a14.7,14.7,0,0,0-13.267,0c-3.669,2.12-3.669,5.55,0,7.67a14.7,14.7,0,0,0,13.267,0C148.216,208.49,148.216,205.06,144.557,202.94Zm-1.17,7a11.906,11.906,0,0,1-10.838,0c-3-1.73-3-4.53,0-6.26a12,12,0,0,1,10.838,0c3,1.72,3,4.52,0,6.25Z" transform="translate(-128.537 -201.357)" fill="#ffc554"/>
            </g>
            <g id="Grupo_63057" data-name="Grupo 63057" transform="translate(6.689 2.918)">
              <path id="Trazado_229245" data-name="Trazado 229245" d="M142,208.88a1.71,1.71,0,0,0,.74-1.17h0v-.8l-.27.06a2.189,2.189,0,0,0-.56-.46c-1-.58-2.18-.62-4-.12-1.33.34-2,.43-2.33.22s-.4-.5.34-.93a6.938,6.938,0,0,1,2-.72v-.76L137,204a7.558,7.558,0,0,0-2,.73l-1-.57-1.11-.12v.76l1.08.62a2.56,2.56,0,0,0-.48.53l-.21-.15v.78h0a1.33,1.33,0,0,0,.79,1.1c1.1.63,2.49.48,4.109,0,1.11-.32,1.75-.38,2.18-.13s.26.66-.38,1-1.72-.09-2.38,0v.76l1,1a8.187,8.187,0,0,0,2.42-.83l1.07.62,1.11-.64v-.76Z" transform="translate(-132.8 -203.29)" fill="#f4a42e"/>
              <path id="Trazado_229246" data-name="Trazado 229246" d="M142,209.44l-1.07-.62a8.147,8.147,0,0,1-2.42.82l-1-1a7.488,7.488,0,0,0,2.38-.79c.64-.37.83-.77.38-1a3.03,3.03,0,0,0-2.18.12c-1.62.46-3,.61-4.109,0s-1.07-1.43-.1-2.27l-1.08-.62,1.11-.63,1,.57a7.927,7.927,0,0,1,2-.73l.95.92a6.938,6.938,0,0,0-2,.72c-.74.43-.66.75-.34.93s1,.13,2.33-.22c1.82-.5,3-.46,4,.13s1.16,1.49.08,2.37l1.16.66Z" transform="translate(-132.8 -203.29)" fill="#ffc554"/>
            </g>
          </g>
          <g id="Grupo_63061" data-name="Grupo 63061" transform="translate(1.817 3.054)">
            <path id="Trazado_229247" data-name="Trazado 229247" d="M149.906,204.26a7.769,7.769,0,0,0-2.669-2.38c-4.579-2.64-12-2.64-16.587,0a7.409,7.409,0,0,0-2.869,2.71l-.57-.35v2.43c0,1.73,1.15,3.47,3.439,4.8,4.579,2.64,12,2.64,16.587,0,2.24-1.3,3.379-3,3.429-4.67h0v-2.66Z" transform="translate(-127.208 -197.476)" fill="#f4a42e"/>
            <path id="Trazado_229248" data-name="Trazado 229248" d="M147.236,199.46c4.589,2.65,4.589,6.93,0,9.58s-12,2.65-16.587,0-4.589-6.93,0-9.58S142.657,196.82,147.236,199.46Z" transform="translate(-127.208 -197.476)" fill="#ffeb7a"/>
            <g id="Grupo_63059" data-name="Grupo 63059" transform="translate(2.437 0.941)">
              <path id="Trazado_229249" data-name="Trazado 229249" d="M145.657,200.46a14.7,14.7,0,0,0-13.267,0c-3.659,2.11-3.659,5.55,0,7.67a14.635,14.635,0,0,0,13.267,0C149.326,206,149.326,202.57,145.657,200.46Zm-1.17,7a12,12,0,0,1-10.838,0c-3-1.73-3-4.54,0-6.27a12,12,0,0,1,10.838,0C147.487,202.92,147.487,205.73,144.487,207.46Z" transform="translate(-129.645 -198.417)" fill="#f4a42e"/>
              <path id="Trazado_229250" data-name="Trazado 229250" d="M145.657,200a14.7,14.7,0,0,0-13.267,0c-3.659,2.12-3.659,5.55,0,7.66a14.635,14.635,0,0,0,13.267,0C149.326,205.59,149.326,202.16,145.657,200Zm-1.17,7a12,12,0,0,1-10.838,0c-3-1.73-3-4.54,0-6.26a12,12,0,0,1,10.838,0C147.487,202.49,147.487,205.3,144.487,207Z" transform="translate(-129.645 -198.417)" fill="#ffc554"/>
            </g>
            <g id="Grupo_63060" data-name="Grupo 63060" transform="translate(6.701 2.974)">
              <path id="Trazado_229251" data-name="Trazado 229251" d="M143.068,206a1.71,1.71,0,0,0,.74-1.17h0V204l-.26.05a2,2,0,0,0-.56-.45c-1-.59-2.18-.63-4-.13-1.32.35-2,.44-2.33.22s-.39-.5.34-.93a6.848,6.848,0,0,1,2-.71v-.76l-.95-.16a6.907,6.907,0,0,0-2,.73l-1-.58-1.12-.12v.76l1.08.62a2.49,2.49,0,0,0-.47.53l-.21-.15v.79h0a1.29,1.29,0,0,0,.78,1.09c1.1.64,2.49.49,4.109,0,1.12-.32,1.75-.37,2.18-.12s.26.66-.38,1-1.72-.1-2.38,0v.76l1,1a8.537,8.537,0,0,0,2.41-.83l1.07.62,1.1-.64v-.76Z" transform="translate(-133.91 -200.45)" fill="#f4a42e"/>
              <path id="Trazado_229252" data-name="Trazado 229252" d="M143.118,206.53l-1.07-.62a8.538,8.538,0,0,1-2.41.83l-1-1A7.408,7.408,0,0,0,141,205c.64-.38.83-.78.38-1a3.1,3.1,0,0,0-2.18.13c-1.62.46-3,.61-4.109,0s-1.07-1.44-.1-2.26l-1.08-.63,1.12-.63,1,.57a7.218,7.218,0,0,1,2-.73l.95.92a6.938,6.938,0,0,0-2,.72c-.73.43-.66.75-.34.93s1,.13,2.33-.22c1.82-.5,3-.46,4,.13s1.15,1.49.08,2.37l1.15.66Z" transform="translate(-133.91 -200.45)" fill="#ffc554"/>
            </g>
          </g>
          <g id="Grupo_63064" data-name="Grupo 63064">
            <path id="Trazado_229253" data-name="Trazado 229253" d="M148.086,201.21a7.769,7.769,0,0,0-2.669-2.38c-4.579-2.65-12-2.65-16.587,0a7.429,7.429,0,0,0-2.869,2.72l-.57-.36v2.43c0,1.73,1.15,3.47,3.439,4.79,4.579,2.65,12,2.65,16.587,0,2.24-1.29,3.379-3,3.429-4.66h0v-2.66Z" transform="translate(-125.39 -194.423)" fill="#f4a42e"/>
            <path id="Trazado_229254" data-name="Trazado 229254" d="M145.416,196.41c4.589,2.65,4.589,6.93,0,9.58s-12,2.65-16.587,0-4.579-6.93,0-9.58S140.837,193.76,145.416,196.41Z" transform="translate(-125.39 -194.423)" fill="#ffeb7a"/>
            <g id="Grupo_63062" data-name="Grupo 63062" transform="translate(2.435 0.988)">
              <path id="Trazado_229255" data-name="Trazado 229255" d="M143.837,197.41a14.7,14.7,0,0,0-13.267,0c-3.659,2.12-3.659,5.55,0,7.67a14.635,14.635,0,0,0,13.267,0C147.506,203,147.506,199.53,143.837,197.41Zm-1.16,7a12,12,0,0,1-10.848,0c-3-1.73-3-4.52,0-6.26a12,12,0,0,1,10.848,0c2.989,1.73,2.989,4.52,0,6.25Z" transform="translate(-127.825 -195.41)" fill="#f4a42e"/>
              <path id="Trazado_229256" data-name="Trazado 229256" d="M143.837,197a14.635,14.635,0,0,0-13.267,0c-3.659,2.12-3.659,5.55,0,7.66a14.635,14.635,0,0,0,13.267,0C147.506,202.54,147.506,199.11,143.837,197Zm-1.16,7a12,12,0,0,1-10.848,0c-3-1.73-3-4.53,0-6.26a12,12,0,0,1,10.848,0C145.667,199.45,145.667,202.25,142.677,204Z" transform="translate(-127.825 -195.41)" fill="#ffc554"/>
            </g>
            <g id="Grupo_63063" data-name="Grupo 63063" transform="translate(6.719 2.918)">
              <path id="Trazado_229257" data-name="Trazado 229257" d="M141.248,202.93a1.68,1.68,0,0,0,.74-1.16h0V201h-.27a2.14,2.14,0,0,0-.55-.45c-1-.58-2.18-.64-4-.13-1.32.34-1.95.44-2.33.22s-.39-.5.34-.92a7,7,0,0,1,2-.72v-.75l-.95-.18a7.607,7.607,0,0,0-2,.73l-1-.57-1.11-.11v.75l1.07.62a2.45,2.45,0,0,0-.47.53l-.21-.15v.78h0a1.31,1.31,0,0,0,.78,1.1c1.1.63,2.5.47,4.109,0,1.12-.31,1.75-.37,2.18-.12s.26.66-.38,1-1.71-.1-2.37,0v.76l1,1a8.437,8.437,0,0,0,2.41-.83l1.07.62,1.11-.64v-.75Z" transform="translate(-132.11 -197.34)" fill="#f4a42e"/>
              <path id="Trazado_229258" data-name="Trazado 229258" d="M141.3,203.48l-1.07-.61a8.387,8.387,0,0,1-2.41.82l-1-1a7.148,7.148,0,0,0,2.37-.8c.64-.36.84-.76.38-1s-1.06-.18-2.18.13c-1.61.46-3,.61-4.109,0s-1.07-1.43-.1-2.26l-1.07-.62,1.11-.65,1,.58a7.267,7.267,0,0,1,2-.73l.95.93a6.688,6.688,0,0,0-2,.72c-.73.42-.65.74-.34.92s1,.13,2.33-.22c1.83-.5,3-.46,4,.13s1.15,1.49.07,2.37l1.16.67Z" transform="translate(-132.11 -197.34)" fill="#ffc554"/>
            </g>
          </g>
        </g>
        <g id="Grupo_63072" data-name="Grupo 63072" transform="translate(39.499 189.846)">
          <g id="Grupo_63068" data-name="Grupo 63068" transform="translate(0 2.887)">
            <path id="Trazado_229259" data-name="Trazado 229259" d="M118.788,231.42a17.344,17.344,0,0,1-8.5-2c-2.35-1.37-3.639-3.19-3.639-5.14s1.29-3.8,3.639-5.15a18.743,18.743,0,0,1,17,0c2.35,1.35,3.629,3.18,3.629,5.15s-1.28,3.77-3.629,5.14a17.384,17.384,0,0,1-8.5,2Z" transform="translate(-106.65 -215.024)" opacity="0.3"/>
            <path id="Trazado_229260" data-name="Trazado 229260" d="M129.756,221.83a7.689,7.689,0,0,0-2.669-2.39c-4.579-2.65-12-2.65-16.6,0a7.429,7.429,0,0,0-2.869,2.72l-.56-.35v2.43c0,1.72,1.14,3.46,3.429,4.78,4.589,2.65,12,2.65,16.6,0,2.24-1.28,3.369-3,3.429-4.66h0v-2.65Z" transform="translate(-106.65 -215.024)" fill="#f4a42e"/>
            <path id="Trazado_229261" data-name="Trazado 229261" d="M127.086,217c4.579,2.65,4.579,6.94,0,9.58s-12,2.65-16.6,0-4.569-6.93,0-9.58S122.507,214.38,127.086,217Z" transform="translate(-106.65 -215.024)" fill="#ffeb7a"/>
            <g id="Grupo_63066" data-name="Grupo 63066" transform="translate(2.837 0.986)">
              <path id="Trazado_229262" data-name="Trazado 229262" d="M125.507,218a14.7,14.7,0,0,0-13.267,0c-3.669,2.12-3.669,5.56,0,7.67a14.7,14.7,0,0,0,13.267,0C129.166,223.58,129.166,220.14,125.507,218Zm-1.17,7a12,12,0,0,1-10.838,0c-3-1.73-3-4.53,0-6.27a12,12,0,0,1,10.838,0c3,1.76,3,4.56,0,6.27Z" transform="translate(-109.488 -216.01)" fill="#f4a42e"/>
              <path id="Trazado_229263" data-name="Trazado 229263" d="M125.507,217.6a14.635,14.635,0,0,0-13.267,0c-3.669,2.12-3.669,5.55,0,7.67a14.7,14.7,0,0,0,13.267,0C129.166,223.15,129.166,219.72,125.507,217.6Zm-1.17,7a12,12,0,0,1-10.838,0c-3-1.73-3-4.54,0-6.27a12,12,0,0,1,10.838,0c3,1.73,3,4.54,0,6.27Z" transform="translate(-109.488 -216.01)" fill="#ffc554"/>
            </g>
            <g id="Grupo_63067" data-name="Grupo 63067" transform="translate(7.099 2.916)">
              <path id="Trazado_229264" data-name="Trazado 229264" d="M122.918,223.55a1.77,1.77,0,0,0,.74-1.18h0v-.8l-.26.05a2.4,2.4,0,0,0-.56-.45c-1-.59-2.18-.63-4-.13-1.32.35-2,.44-2.33.23s-.39-.51.34-.93a6.838,6.838,0,0,1,2-.72v-.76l-1-.17a7,7,0,0,0-2,.74l-1-.58-1.1-.12v.76l1.07.62a2.239,2.239,0,0,0-.47.53l-.22-.15v.79h0a1.32,1.32,0,0,0,.79,1.09c1.1.64,2.49.49,4.1,0,1.13-.33,1.76-.38,2.19-.13s.26.67-.39,1-1.71-.09-2.37,0v.75l1,1a8.287,8.287,0,0,0,2.42-.83l1.07.62,1.1-.64v-.75Z" transform="translate(-113.75 -217.94)" fill="#f4a42e"/>
              <path id="Trazado_229265" data-name="Trazado 229265" d="M123,224.09l-1.07-.61a8.547,8.547,0,0,1-2.42.82l-1-1a7.637,7.637,0,0,0,2.37-.8c.65-.37.84-.78.39-1a3.111,3.111,0,0,0-2.19.12c-1.61.46-3,.62-4.1,0s-1.07-1.43-.1-2.26l-1.07-.63,1.1-.63,1,.57a7.218,7.218,0,0,1,2-.73l1,.92a6.837,6.837,0,0,0-2,.72c-.73.43-.66.75-.34.93s1,.13,2.33-.22c1.82-.5,3-.46,4,.13s1.15,1.49.08,2.37l1.15.67Z" transform="translate(-113.75 -217.94)" fill="#ffc554"/>
            </g>
          </g>
          <g id="Grupo_63071" data-name="Grupo 63071" transform="translate(0.817)">
            <path id="Trazado_229266" data-name="Trazado 229266" d="M130.166,218.92a7.769,7.769,0,0,0-2.669-2.38c-4.579-2.65-12-2.65-16.587,0a7.449,7.449,0,0,0-2.879,2.71l-.56-.34v2.42c0,1.73,1.14,3.46,3.439,4.79,4.569,2.64,12,2.64,16.587,0,2.23-1.28,3.369-3,3.429-4.66h0V218.8Z" transform="translate(-107.468 -212.136)" fill="#f4a42e"/>
            <path id="Trazado_229267" data-name="Trazado 229267" d="M127.5,214.12c4.579,2.65,4.579,6.93,0,9.58s-12,2.64-16.587,0-4.589-6.93,0-9.58S122.917,211.48,127.5,214.12Z" transform="translate(-107.467 -212.136)" fill="#ffeb7a"/>
            <g id="Grupo_63069" data-name="Grupo 63069" transform="translate(2.43 0.981)">
              <path id="Trazado_229268" data-name="Trazado 229268" d="M125.917,215.13a14.635,14.635,0,0,0-13.267,0c-3.669,2.11-3.669,5.54,0,7.66a14.7,14.7,0,0,0,13.267,0C129.576,220.67,129.576,217.24,125.917,215.13Zm-1.17,7a12,12,0,0,1-10.838,0c-3-1.72-3-4.53,0-6.26a12,12,0,0,1,10.838,0c3,1.71,3,4.52,0,6.24Z" transform="translate(-109.897 -213.117)" fill="#f4a42e"/>
              <path id="Trazado_229269" data-name="Trazado 229269" d="M125.917,214.7a14.7,14.7,0,0,0-13.267,0c-3.669,2.12-3.669,5.54,0,7.66a14.635,14.635,0,0,0,13.267,0C129.576,220.24,129.576,216.82,125.917,214.7Zm-1.17,7a12,12,0,0,1-10.838,0c-3-1.73-3-4.54,0-6.27a12,12,0,0,1,10.838,0c3,1.72,3,4.57,0,6.26Z" transform="translate(-109.897 -213.117)" fill="#ffc554"/>
            </g>
            <g id="Grupo_63070" data-name="Grupo 63070" transform="translate(6.681 2.924)">
              <path id="Trazado_229270" data-name="Trazado 229270" d="M123.328,220.64a1.73,1.73,0,0,0,.74-1.17h0v-.81l-.27.06a2,2,0,0,0-.55-.45c-1-.59-2.19-.63-4-.13-1.33.35-2,.44-2.33.22s-.4-.5.34-.92a6.558,6.558,0,0,1,2-.72V216l-1-.17a7.218,7.218,0,0,0-2,.73l-1-.57-1.11-.12v.76l1.08.61a2.481,2.481,0,0,0-.47.54l-.22-.15v.78h0a1.32,1.32,0,0,0,.79,1.1c1.1.64,2.49.48,4.1,0,1.12-.32,1.76-.37,2.19-.12s.26.66-.39,1-1.71-.1-2.37,0v.76l1,1a8.488,8.488,0,0,0,2.4-.83l1.07.62,1.11-.64v-.75Z" transform="translate(-114.15 -215.06)" fill="#f4a42e"/>
              <path id="Trazado_229271" data-name="Trazado 229271" d="M123.368,221.19l-1.07-.62a8.488,8.488,0,0,1-2.4.83l-1-1a7.357,7.357,0,0,0,2.37-.79c.65-.38.84-.78.39-1a3.074,3.074,0,0,0-2.19.13c-1.61.46-3,.61-4.1,0s-1.07-1.43-.1-2.27l-1.08-.62,1.11-.64,1,.58a7.557,7.557,0,0,1,2-.73l1,.92a6.838,6.838,0,0,0-2,.72c-.74.42-.66.75-.34.93s1,.12,2.33-.22c1.81-.51,3-.46,4,.12s1.15,1.49.08,2.38l1.15.67Z" transform="translate(-114.15 -215.06)" fill="#ffc554"/>
            </g>
          </g>
        </g>
        <g id="Grupo_63080" data-name="Grupo 63080" transform="translate(3.955 195.519)">
          <path id="Trazado_229272" data-name="Trazado 229272" d="M131.1,284a4,4,0,0,1-2-.49L72.32,250.68a2.25,2.25,0,0,1-1.22-2,2.43,2.43,0,0,1,1.35-2.1L96.825,232.5a4.608,4.608,0,0,1,4.229-.07l56.769,32.78a2.28,2.28,0,0,1,1.23,2,2.47,2.47,0,0,1-1.35,2.1L133.328,283.4A4.579,4.579,0,0,1,131.1,284Z" transform="translate(-71.1 -217.809)" opacity="0.3"/>
          <g id="Grupo_63073" data-name="Grupo 63073" transform="translate(0.429 11.884)">
            <path id="Trazado_229273" data-name="Trazado 229273" d="M158.333,264.14l-3.879-.09V265L99.915,233.52a3.159,3.159,0,0,0-2.869.06L75.329,246.13l.22-.24-4-.53v3.46h0a.91.91,0,0,0,.53.78L129.989,283a3.2,3.2,0,0,0,2.859-.07l24.865-14.36a1.08,1.08,0,0,0,.65-.9h0Z" transform="translate(-71.53 -229.693)" fill="#70aa44"/>
            <path id="Trazado_229274" data-name="Trazado 229274" d="M157.793,263.43,99.914,230a3.189,3.189,0,0,0-2.869.07L72.18,244.43c-.82.48-.87,1.22-.12,1.66l57.929,33.42a3.109,3.109,0,0,0,2.859-.07l24.865-14.35C158.5,264.61,158.553,263.87,157.793,263.43Z" transform="translate(-71.53 -229.693)" fill="#88c65b"/>
            <path id="Trazado_229275" data-name="Trazado 229275" d="M149.476,262.81l.23-.14c.77-.43.78-1.14,0-1.57L103.2,234.23a3,3,0,0,0-2.739,0l-.14.08a3,3,0,0,1-2.739,0h0a2.939,2.939,0,0,0-2.719,0L79.6,243.11c-.76.44-.78,1.15,0,1.57h0c.74.43.73,1.13,0,1.58l-.23.12c-.76.44-.77,1.15,0,1.58l46.561,26.88a3,3,0,0,0,2.709,0l.26-.15a3,3,0,0,1,2.7,0l.61.35a3,3,0,0,0,2.729,0l15.047-8.73c.76-.44.78-1.14,0-1.57l-.62-.37C148.706,263.94,148.716,263.24,149.476,262.81Z" transform="translate(-71.531 -229.693)" fill="#fff"/>
            <path id="Trazado_229276" data-name="Trazado 229276" d="M121.826,258.79c5.449-3.14,6.769-7.49,2.929-9.7s-11.348-1.45-16.8,1.69-6.769,7.49-2.929,9.7S116.377,261.94,121.826,258.79Z" transform="translate(-71.536 -229.693)" fill="#88c65b"/>
            <path id="Trazado_229277" data-name="Trazado 229277" d="M95.05,243.28c-1.72,1-1.84,2.55-.25,3.47a6.638,6.638,0,0,0,6-.15c1.73-1,1.84-2.55.25-3.46a6.608,6.608,0,0,0-6,.14Z" transform="translate(-71.534 -229.693)" fill="#88c65b"/>
            <path id="Trazado_229278" data-name="Trazado 229278" d="M128.89,262.82c-1.73,1-1.84,2.55-.25,3.47a6.678,6.678,0,0,0,6-.15c1.72-1,1.84-2.56.25-3.47a6.638,6.638,0,0,0-6,.15Z" transform="translate(-71.54 -229.693)" fill="#88c65b"/>
          </g>
          <g id="Grupo_63074" data-name="Grupo 63074" transform="translate(0.429 7.88)">
            <path id="Trazado_229279" data-name="Trazado 229279" d="M158.333,260.18l-3.879-.09v1L99.915,229.55a3.159,3.159,0,0,0-2.869.07L75.329,242.16l.22-.24-4-.53v3.45h0a.9.9,0,0,0,.53.79l57.909,33.43a3.169,3.169,0,0,0,2.859-.07l24.865-14.36a1.1,1.1,0,0,0,.65-.91h0Z" transform="translate(-71.53 -225.689)" fill="#70aa44"/>
            <path id="Trazado_229280" data-name="Trazado 229280" d="M157.793,259.46,99.914,226a3.159,3.159,0,0,0-2.869.07L72.18,240.46c-.82.48-.87,1.22-.12,1.66l57.929,33.42a3.169,3.169,0,0,0,2.859-.06l24.865-14.37C158.5,260.64,158.553,259.9,157.793,259.46Z" transform="translate(-71.53 -225.689)" fill="#88c65b"/>
            <path id="Trazado_229281" data-name="Trazado 229281" d="M149.476,258.84l.23-.13c.77-.44.78-1.15,0-1.57L103.2,230.26a3,3,0,0,0-2.739,0l-.14.08a3,3,0,0,1-2.739,0h0a3,3,0,0,0-2.719,0L79.6,239.14c-.76.44-.78,1.15,0,1.58h0a.835.835,0,0,1,0,1.57l-.23.13c-.76.44-.77,1.15,0,1.58l46.451,27a3,3,0,0,0,2.709,0l.26-.15a3,3,0,0,1,2.7,0l.61.35a3,3,0,0,0,2.729,0l15.157-8.85c.76-.45.78-1.15,0-1.57l-.62-.37C148.706,260,148.716,259.28,149.476,258.84Z" transform="translate(-71.531 -225.689)" fill="#fff"/>
            <path id="Trazado_229282" data-name="Trazado 229282" d="M121.826,254.82c5.449-3.15,6.769-7.49,2.929-9.7s-11.348-1.45-16.8,1.69-6.769,7.49-2.929,9.71S116.377,258,121.826,254.82Z" transform="translate(-71.536 -225.689)" fill="#88c65b"/>
            <path id="Trazado_229283" data-name="Trazado 229283" d="M95.05,239.3c-1.72,1-1.84,2.56-.25,3.48a6.638,6.638,0,0,0,6-.15c1.73-1,1.84-2.55.25-3.46a6.638,6.638,0,0,0-6,.13Z" transform="translate(-71.534 -225.689)" fill="#88c65b"/>
            <path id="Trazado_229284" data-name="Trazado 229284" d="M128.89,258.85c-1.73,1-1.84,2.55-.25,3.46a6.638,6.638,0,0,0,6-.14c1.72-1,1.84-2.55.25-3.47a6.678,6.678,0,0,0-6,.15Z" transform="translate(-71.54 -225.689)" fill="#88c65b"/>
          </g>
          <g id="Grupo_63075" data-name="Grupo 63075" transform="translate(0.429 3.97)">
            <path id="Trazado_229285" data-name="Trazado 229285" d="M158.333,256.22l-3.879-.09v1L99.915,225.6a3.159,3.159,0,0,0-2.869.07L75.329,238.21l.22-.24-4-.53v3.46h0a.9.9,0,0,0,.53.78l57.909,33.42a3.079,3.079,0,0,0,2.859-.07l24.865-14.35a1.07,1.07,0,0,0,.65-.91h0Z" transform="translate(-71.53 -221.779)" fill="#70aa44"/>
            <path id="Trazado_229286" data-name="Trazado 229286" d="M157.793,255.51,99.914,222.09a3.159,3.159,0,0,0-2.869.07L72.18,236.51c-.82.49-.87,1.23-.12,1.67l57.929,33.41a3.139,3.139,0,0,0,2.859-.06l24.865-14.36C158.5,256.7,158.553,256,157.793,255.51Z" transform="translate(-71.53 -221.779)" fill="#88c65b"/>
            <path id="Trazado_229287" data-name="Trazado 229287" d="M149.476,254.9l.23-.14c.77-.44.78-1.14,0-1.57L103.2,226.31a3,3,0,0,0-2.739,0l-.14.08a3,3,0,0,1-2.739,0h0a3,3,0,0,0-2.719,0L79.6,235.21c-.76.44-.78,1.14,0,1.57h0a.828.828,0,0,1,0,1.56l-.23.14c-.76.43-.77,1.14,0,1.57L125.821,267a3,3,0,0,0,2.709,0l.26-.15a3,3,0,0,1,2.7,0l.61.35a3,3,0,0,0,2.729,0l15.157-8.8c.76-.44.78-1.15,0-1.57l-.62-.37C148.706,256,148.716,255.33,149.476,254.9Z" transform="translate(-71.531 -221.779)" fill="#fff"/>
            <path id="Trazado_229288" data-name="Trazado 229288" d="M121.826,250.88c5.449-3.15,6.769-7.5,2.929-9.71s-11.348-1.45-16.8,1.69-6.769,7.49-2.929,9.71S116.377,254,121.826,250.88Z" transform="translate(-71.536 -221.779)" fill="#88c65b"/>
            <path id="Trazado_229289" data-name="Trazado 229289" d="M95.05,235.36c-1.72,1-1.84,2.55-.25,3.47a6.708,6.708,0,0,0,6-.14c1.73-1,1.84-2.55.25-3.47a6.608,6.608,0,0,0-6,.14Z" transform="translate(-71.534 -221.779)" fill="#88c65b"/>
            <path id="Trazado_229290" data-name="Trazado 229290" d="M128.89,254.9c-1.73,1-1.84,2.55-.25,3.46a6.608,6.608,0,0,0,6-.14c1.72-1,1.84-2.55.25-3.47a6.638,6.638,0,0,0-6,.15Z" transform="translate(-71.54 -221.779)" fill="#88c65b"/>
          </g>
          <g id="Grupo_63076" data-name="Grupo 63076" transform="translate(0.429)">
            <path id="Trazado_229291" data-name="Trazado 229291" d="M158.333,252.25l-3.879-.09v1L99.915,221.63a3.159,3.159,0,0,0-2.869.07L75.329,234.24l.22-.24-4-.53v3.46h0a.93.93,0,0,0,.53.79l57.909,33.42a3.109,3.109,0,0,0,2.859-.08l24.865-14.35a1.07,1.07,0,0,0,.65-.9h0Z" transform="translate(-71.53 -217.809)" fill="#70aa44"/>
            <path id="Trazado_229292" data-name="Trazado 229292" d="M157.793,251.54,137.877,240l-2.559-.56L120.57,231l-.69-1.35-20-11.53a3.159,3.159,0,0,0-2.869.07L72.18,232.55c-.82.47-.87,1.22-.12,1.65l57.929,33.43a3.169,3.169,0,0,0,2.859-.07l24.865-14.36C158.5,252.72,158.553,252,157.793,251.54Z" transform="translate(-71.53 -217.809)" fill="#88c65b"/>
            <path id="Trazado_229293" data-name="Trazado 229293" d="M149.476,250.92l.23-.13c.77-.44.78-1.14,0-1.57L103.2,222.34a3,3,0,0,0-2.739,0l-.14.09a3,3,0,0,1-2.739,0h0a3,3,0,0,0-2.719,0L79.6,231.24c-.76.44-.78,1.14,0,1.57h0a.835.835,0,0,1,0,1.57l-.23.13c-.76.43-.77,1.14,0,1.57L125.821,263a3,3,0,0,0,2.709,0l.26-.15a3,3,0,0,1,2.7,0l.61.35a3.049,3.049,0,0,0,2.729,0l15.157-8.78c.76-.44.78-1.14,0-1.57l-.62-.36C148.706,252.06,148.716,251.36,149.476,250.92Z" transform="translate(-71.531 -217.809)" fill="#fff"/>
            <path id="Trazado_229294" data-name="Trazado 229294" d="M121.826,246.91c5.449-3.15,6.769-7.5,2.929-9.71s-11.348-1.45-16.8,1.7-6.769,7.49-2.929,9.7S116.377,250.05,121.826,246.91Z" transform="translate(-71.536 -217.809)" fill="#88c65b"/>
            <path id="Trazado_229295" data-name="Trazado 229295" d="M95.05,231.39c-1.72,1-1.84,2.56-.25,3.47a6.638,6.638,0,0,0,6-.15c1.73-1,1.84-2.55.25-3.47a6.678,6.678,0,0,0-6,.15Z" transform="translate(-71.534 -217.809)" fill="#88c65b"/>
            <path id="Trazado_229296" data-name="Trazado 229296" d="M128.89,250.93c-1.73,1-1.84,2.55-.25,3.46a6.638,6.638,0,0,0,6-.14c1.72-1,1.84-2.55.25-3.47a6.678,6.678,0,0,0-6,.15Z" transform="translate(-71.54 -217.809)" fill="#88c65b"/>
          </g>
          <g id="Grupo_63079" data-name="Grupo 63079" transform="translate(20.846 11.801)">
            <g id="Grupo_63077" data-name="Grupo 63077" transform="translate(0 16.15)">
              <path id="Trazado_229297" data-name="Trazado 229297" d="M106.648,269.6l-11.4-6.58V247.66l11.388,6.59Z" transform="translate(-91.951 -245.76)" fill="#b3c9ec"/>
              <path id="Trazado_229298" data-name="Trazado 229298" d="M109.949,271.5l-3.3-1.9-.01-15.35,3.309,1.9Z" transform="translate(-91.953 -245.76)" fill="#ffc554"/>
              <path id="Trazado_229299" data-name="Trazado 229299" d="M95.249,263.02l-3.3-1.91V245.76l3.3,1.9Z" transform="translate(-91.95 -245.76)" fill="#ffc554"/>
            </g>
            <g id="Grupo_63078" data-name="Grupo 63078">
              <path id="Trazado_229300" data-name="Trazado 229300" d="M134.6,238.1l-11.4-6.58L95.25,247.66l11.4,6.58Z" transform="translate(-91.951 -229.61)" fill="#fff"/>
              <path id="Trazado_229301" data-name="Trazado 229301" d="M137.9,240l-3.3-1.9L106.65,254.24l3.3,1.91Z" transform="translate(-91.953 -229.61)" fill="#ffeb7a"/>
              <path id="Trazado_229302" data-name="Trazado 229302" d="M123.2,231.52l-3.3-1.91L91.95,245.76l3.3,1.9Z" transform="translate(-91.95 -229.61)" fill="#ffeb7a"/>
            </g>
          </g>
        </g>
        <g id="Grupo_63081" data-name="Grupo 63081" transform="translate(0.049)">
          <path id="Trazado_229303" data-name="Trazado 229303" d="M156.7,242.53h0V45.68H149.29V242.53h0a1.84,1.84,0,0,0,1.08,1.54,5.848,5.848,0,0,0,5.249,0,1.84,1.84,0,0,0,1.08-1.54Z" transform="translate(-67.209 -22.29)" fill="#383838"/>
          <path id="Trazado_229304" data-name="Trazado 229304" d="M72.449,140.91c4.429,5.38,7.329,0,7.329-5.77C74.7,130.32,71.6,122.44,67.2,115.68,67.2,125.64,68,135.52,72.449,140.91Z" transform="translate(-67.193 -22.29)" fill="#fff"/>
          <path id="Trazado_229305" data-name="Trazado 229305" d="M69.8,127.73c0,10,1.28,19.85,8.088,25.23s11.238,0,11.238-5.75C81.338,142.38,76.569,134.5,69.8,127.73Z" transform="translate(-67.194 -22.29)" fill="#ea5c44"/>
          <path id="Trazado_229306" data-name="Trazado 229306" d="M102.417,166.79c4.389,1.81,9.538-.54,11.228-8a120.557,120.557,0,0,1-24.515-11.6C90.21,155.3,93.179,163,102.417,166.79Z" transform="translate(-67.197 -22.29)" fill="#fff"/>
          <path id="Trazado_229307" data-name="Trazado 229307" d="M127.087,174.4c8.068,1.81,12-3.05,12.618-9.78a122.177,122.177,0,0,1-26.055-5.81C115.39,166.32,119,172.61,127.087,174.4Z" transform="translate(-67.202 -22.29)" fill="#ea5c44"/>
          <path id="Trazado_229308" data-name="Trazado 229308" d="M233.529,140.91c4.419-5.39,5.249-15.27,5.249-25.23-4.389,6.76-7.5,14.64-12.558,19.46C226.22,140.91,229.109,146.29,233.529,140.91Z" transform="translate(-67.224 -22.29)" fill="#fff"/>
          <path id="Trazado_229309" data-name="Trazado 229309" d="M216.85,147.21c0,5.75,4.449,11.13,11.248,5.75s8.078-15.25,8.078-25.23C229.408,134.5,224.648,142.38,216.85,147.21Z" transform="translate(-67.222 -22.29)" fill="#ea5c44"/>
          <path id="Trazado_229310" data-name="Trazado 229310" d="M203.558,166.79c9.238-3.79,12.2-11.49,13.287-19.58a120.067,120.067,0,0,1-24.515,11.6C194,166.25,199.169,168.6,203.558,166.79Z" transform="translate(-67.217 -22.29)" fill="#fff"/>
          <path id="Trazado_229311" data-name="Trazado 229311" d="M178.9,174.4c8.068-1.79,11.7-8.08,13.427-15.59a122.217,122.217,0,0,1-26.045,5.81C166.87,171.35,170.829,176.21,178.9,174.4Z" transform="translate(-67.212 -22.29)" fill="#ea5c44"/>
          <path id="Trazado_229312" data-name="Trazado 229312" d="M152.348,164.41c-4.239,0-12.638.21-12.638.21-.89,6.7,5,13,13.277,13s14.177-6.27,13.287-13C166.275,164.62,157,164.43,152.348,164.41Z" transform="translate(-67.207 -22.29)" fill="#fff"/>
          <path id="Trazado_229313" data-name="Trazado 229313" d="M152.983,29.84A85.822,85.822,0,0,0,67.2,115.68h0c0,12.68,8.378,25.37,25.125,35,33.523,19.36,87.853,19.36,121.356,0,17.387-10,25.745-23.31,25.085-36.46a85.8,85.8,0,0,0-85.783-84.38Z" transform="translate(-67.193 -22.29)" fill="#fff"/>
          <path id="Trazado_229314" data-name="Trazado 229314" d="M132.455,32.32A84.976,84.976,0,0,0,105,44.52s26.495-13.61,47.991-.39C152.991,44.13,139.4,29.9,132.455,32.32Z" transform="translate(-67.201 -22.29)" fill="#ea5c44"/>
          <path id="Trazado_229315" data-name="Trazado 229315" d="M153,44.13c21.506-13.22,47.991.39,47.991.39a85.075,85.075,0,0,0-27.435-12.2C166.667,29.9,153,44.13,153,44.13Z" transform="translate(-67.21 -22.29)" fill="#ea5c44"/>
          <path id="Trazado_229316" data-name="Trazado 229316" d="M147,30.05c2.47,2.82,6,16.11,6,16.11s3.409-11.77,6-16.11q-3-.21-6-.21T147,30.05Z" transform="translate(-67.209 -22.29)" fill="#ea5c44"/>
          <path id="Trazado_229317" data-name="Trazado 229317" d="M153,44.13s67.477,5.61,83.254,83.65a30.545,30.545,0,0,0,2.53-13.53C234.494,38.29,153,44.13,153,44.13Z" transform="translate(-67.21 -22.29)" fill="#ea5c44"/>
          <path id="Trazado_229318" data-name="Trazado 229318" d="M153,44.13c35.443,36.7,39.552,115.54,39.552,115.54a98.881,98.881,0,0,0,21.146-9q1.45-.84,2.819-1.71S205.43,66.94,153,44.13Z" transform="translate(-67.21 -22.29)" fill="#ea5c44"/>
          <path id="Trazado_229319" data-name="Trazado 229319" d="M67.22,114.25a30.425,30.425,0,0,0,2.549,13.53c15.777-78.04,83.214-83.65,83.214-83.65S71.559,38.29,67.22,114.25Z" transform="translate(-67.193 -22.29)" fill="#ea5c44"/>
          <path id="Trazado_229320" data-name="Trazado 229320" d="M89.49,149c.92.58,1.86,1.15,2.829,1.71a98.541,98.541,0,0,0,21.156,9s4.109-78.88,39.512-115.58C100.638,66.94,89.49,149,89.49,149Z" transform="translate(-67.197 -22.29)" fill="#ea5c44"/>
          <path id="Trazado_229321" data-name="Trazado 229321" d="M139.71,164.63a150.119,150.119,0,0,0,26.565,0S168.144,114.4,153,44.13C139,95.94,139.71,164.63,139.71,164.63Z" transform="translate(-67.207 -22.29)" fill="#ea5c44"/>
          <path id="Trazado_229322" data-name="Trazado 229322" d="M160.686,41.74a16.874,16.874,0,0,0-15.287,0c-4.219,2.44-4.219,6.39,0,8.83a16.874,16.874,0,0,0,15.287,0C164.9,48.13,164.9,44.18,160.686,41.74Z" transform="translate(-67.208 -22.29)" fill="#d8391e"/>
          <path id="Trazado_229323" data-name="Trazado 229323" d="M156.749,26a3.709,3.709,0,1,0-7.419,0V45.42h0a1.85,1.85,0,0,0,1.09,1.52,5.818,5.818,0,0,0,5.239,0,1.83,1.83,0,0,0,1.09-1.52h0Z" transform="translate(-67.209 -22.29)" fill="#383838"/>
        </g>
        <g id="Grupo_63088" data-name="Grupo 63088" transform="translate(123.342 215.193)">
          <g id="Grupo_63084" data-name="Grupo 63084" transform="translate(0 2.908)">
            <path id="Trazado_229324" data-name="Trazado 229324" d="M202.648,256.77a17.344,17.344,0,0,1-8.5-2c-2.35-1.37-3.639-3.19-3.639-5.14s1.29-3.8,3.639-5.15a18.743,18.743,0,0,1,17,0c2.35,1.35,3.639,3.18,3.639,5.15s-1.29,3.77-3.639,5.14a17.354,17.354,0,0,1-8.5,2Z" transform="translate(-190.51 -240.39)" opacity="0.3"/>
            <path id="Trazado_229325" data-name="Trazado 229325" d="M213.616,247.18a7.689,7.689,0,0,0-2.669-2.39c-4.579-2.65-12-2.65-16.587,0a7.459,7.459,0,0,0-2.879,2.72l-.55-.35v2.43c0,1.72,1.14,3.46,3.429,4.78,4.579,2.65,12,2.65,16.587,0,2.24-1.29,3.379-3,3.429-4.66h0v-2.65Z" transform="translate(-190.51 -240.39)" fill="#f4a42e"/>
            <ellipse id="Elipse_4368" data-name="Elipse 4368" cx="11.728" cy="6.77" rx="11.728" ry="6.77" transform="translate(0.41)" fill="#ffeb7a"/>
            <g id="Grupo_63082" data-name="Grupo 63082" transform="translate(2.837 1.02)">
              <path id="Trazado_229326" data-name="Trazado 229326" d="M209.377,243.37a14.715,14.715,0,0,0-13.277,0c-3.669,2.12-3.669,5.55,0,7.67a14.715,14.715,0,0,0,13.277,0C213,248.92,213,245.49,209.377,243.37Zm-1.17,7a12,12,0,0,1-10.848,0c-3-1.72-3-4.53,0-6.26a12,12,0,0,1,10.848,0c2.989,1.72,2.989,4.53,0,6.25Z" transform="translate(-193.348 -241.41)" fill="#f4a42e"/>
              <path id="Trazado_229327" data-name="Trazado 229327" d="M209.377,243a14.655,14.655,0,0,0-13.277,0c-3.669,2.12-3.669,5.55,0,7.66a14.655,14.655,0,0,0,13.277,0C213,248.5,213,245.07,209.377,243Zm-1.17,7a12,12,0,0,1-10.848,0c-3-1.72-3-4.53,0-6.26a12,12,0,0,1,10.848,0c2.989,1.67,2.989,4.48,0,6.2Z" transform="translate(-193.347 -241.41)" fill="#ffc554"/>
            </g>
            <g id="Grupo_63083" data-name="Grupo 63083" transform="translate(7.129 2.9)">
              <path id="Trazado_229328" data-name="Trazado 229328" d="M206.778,248.9a1.79,1.79,0,0,0,.75-1.18h0v-.8l-.27.05a2.33,2.33,0,0,0-.55-.45c-1-.59-2.19-.63-4-.13-1.32.35-2,.44-2.32.23s-.4-.51.34-.93a6.747,6.747,0,0,1,2-.72v-.76l-.95-.17a7,7,0,0,0-2,.74l-1-.58-1.11-.12v.76l1.07.62a2.489,2.489,0,0,0-.47.53l-.21-.15v.79h0a1.28,1.28,0,0,0,.79,1.09c1.09.64,2.49.49,4.1,0,1.12-.33,1.75-.38,2.18-.13s.26.67-.38,1-1.72-.09-2.38,0v.75l1,1a8,8,0,0,0,2.41-.83l1.08.62,1.1-.64v-.75Z" transform="translate(-197.64 -243.29)" fill="#f4a42e"/>
              <path id="Trazado_229329" data-name="Trazado 229329" d="M206.828,249.44l-1.08-.62a8,8,0,0,1-2.41.83l-1-1a8,8,0,0,0,2.38-.8c.64-.37.83-.78.38-1a3.085,3.085,0,0,0-2.18.12c-1.61.46-3,.62-4.1,0s-1.08-1.43-.11-2.26l-1.07-.63,1.11-.63,1,.57a7.266,7.266,0,0,1,2-.73l.95.92a6.747,6.747,0,0,0-2,.72c-.74.42-.66.75-.34.93s1,.13,2.32-.22c1.82-.5,3-.46,4,.13s1.15,1.49.07,2.37l1.15.67Z" transform="translate(-197.64 -243.29)" fill="#ffc554"/>
            </g>
          </g>
          <g id="Grupo_63087" data-name="Grupo 63087" transform="translate(0.79)">
            <path id="Trazado_229330" data-name="Trazado 229330" d="M214,244.27a7.769,7.769,0,0,0-2.669-2.38c-4.579-2.65-12-2.65-16.587,0a7.449,7.449,0,0,0-2.879,2.71l-.56-.34v2.41c0,1.74,1.15,3.47,3.439,4.8,4.579,2.64,12,2.64,16.587,0,2.24-1.29,3.369-3,3.439-4.66h0v-2.66Z" transform="translate(-191.3 -237.482)" fill="#f4a42e"/>
            <path id="Trazado_229331" data-name="Trazado 229331" d="M211.356,239.47c4.589,2.65,4.589,6.93,0,9.58s-12,2.64-16.587,0-4.579-6.93,0-9.58S206.777,236.82,211.356,239.47Z" transform="translate(-191.3 -237.482)" fill="#ffeb7a"/>
            <g id="Grupo_63085" data-name="Grupo 63085" transform="translate(2.457 0.985)">
              <path id="Trazado_229332" data-name="Trazado 229332" d="M209.777,240.47a14.7,14.7,0,0,0-13.267,0c-3.669,2.12-3.669,5.55,0,7.67a14.7,14.7,0,0,0,13.267,0C213.436,246,213.436,242.59,209.777,240.47Zm-1.16,7a12,12,0,0,1-10.848,0c-3-1.72-3-4.53,0-6.26a12,12,0,0,1,10.848,0c2.989,1.72,2.989,4.53,0,6.25Z" transform="translate(-193.758 -238.467)" fill="#f4a42e"/>
              <path id="Trazado_229333" data-name="Trazado 229333" d="M209.777,240.05a14.7,14.7,0,0,0-13.267,0c-3.669,2.12-3.669,5.54,0,7.66a14.7,14.7,0,0,0,13.267,0C213.436,245.59,213.436,242.17,209.777,240.05Zm-1.16,7a12,12,0,0,1-10.848,0c-3-1.73-3-4.54,0-6.27a12,12,0,0,1,10.848,0c2.989,1.72,2.989,4.53,0,6.22Z" transform="translate(-193.758 -238.467)" fill="#ffc554"/>
            </g>
            <g id="Grupo_63086" data-name="Grupo 63086" transform="translate(6.759 2.918)">
              <path id="Trazado_229334" data-name="Trazado 229334" d="M207.188,246a1.69,1.69,0,0,0,.74-1.17h0V244l-.26.06a2.17,2.17,0,0,0-.56-.45c-1-.59-2.18-.63-4-.13-1.33.35-2,.44-2.33.22s-.39-.5.34-.92a6.738,6.738,0,0,1,2-.72v-.76l-.95-.17a7.218,7.218,0,0,0-2,.73l-1-.57-1.11-.12v.76l1.07.61a2.781,2.781,0,0,0-.47.54l-.21-.15v.78h0a1.28,1.28,0,0,0,.79,1.1c1.09.64,2.48.48,4.1,0,1.12-.32,1.75-.37,2.18-.12s.26.66-.39,1-1.71-.1-2.37,0v.76l1,1a8.228,8.228,0,0,0,2.4-.84l1.08.63,1.11-.64v-.75Z" transform="translate(-198.06 -240.4)" fill="#f4a42e"/>
              <path id="Trazado_229335" data-name="Trazado 229335" d="M207.238,246.54l-1.08-.62a8.487,8.487,0,0,1-2.4.83l-1-1a7.357,7.357,0,0,0,2.37-.79c.65-.38.84-.78.39-1a3.047,3.047,0,0,0-2.18.13c-1.62.46-3,.61-4.1,0s-1.08-1.43-.11-2.27l-1.07-.62,1.11-.64,1,.57a7.927,7.927,0,0,1,2-.73l.95.93a7,7,0,0,0-2,.72c-.73.42-.66.75-.34.93s1,.12,2.33-.22c1.82-.51,3-.46,4,.12s1.16,1.49.08,2.38l1.16.67Z" transform="translate(-198.06 -240.4)" fill="#ffc554"/>
            </g>
          </g>
        </g>
        <g id="Grupo_63104" data-name="Grupo 63104" transform="translate(98.455 199.27)">
          <g id="Grupo_63091" data-name="Grupo 63091" transform="translate(0.722 11.512)">
            <path id="Trazado_229336" data-name="Trazado 229336" d="M178.478,249.45a17.234,17.234,0,0,1-8.5-2c-2.35-1.35-3.639-3.18-3.639-5.14s1.29-3.78,3.639-5.15a18.8,18.8,0,0,1,17,0c2.36,1.37,3.639,3.19,3.639,5.15s-1.28,3.79-3.639,5.14a17.174,17.174,0,0,1-8.5,2Z" transform="translate(-166.34 -233.072)" opacity="0.3"/>
            <path id="Trazado_229337" data-name="Trazado 229337" d="M189.446,239.86a7.769,7.769,0,0,0-2.669-2.38c-4.579-2.65-12-2.65-16.6,0a7.479,7.479,0,0,0-2.869,2.71l-.56-.34v2.42c0,1.73,1.15,3.47,3.429,4.79,4.589,2.65,12,2.65,16.6,0,2.24-1.29,3.379-3,3.429-4.66h0v-2.66Z" transform="translate(-166.34 -233.072)" fill="#f4a42e"/>
            <path id="Trazado_229338" data-name="Trazado 229338" d="M186.776,235.06c4.579,2.65,4.579,6.93,0,9.58s-12,2.64-16.6,0-4.569-6.93,0-9.58S182.2,232.41,186.776,235.06Z" transform="translate(-166.34 -233.072)" fill="#ffeb7a"/>
            <g id="Grupo_63089" data-name="Grupo 63089" transform="translate(2.837 0.978)">
              <path id="Trazado_229339" data-name="Trazado 229339" d="M185.2,236.06a14.7,14.7,0,0,0-13.267,0c-3.669,2.12-3.669,5.55,0,7.67a14.7,14.7,0,0,0,13.267,0C188.866,241.61,188.866,238.18,185.2,236.06Zm-1.16,7a11.926,11.926,0,0,1-10.848,0c-3-1.72-3-4.53,0-6.26a12,12,0,0,1,10.848,0c2.959,1.72,2.959,4.53-.04,6.25Z" transform="translate(-169.178 -234.05)" fill="#f4a42e"/>
              <path id="Trazado_229340" data-name="Trazado 229340" d="M185.2,235.64a14.635,14.635,0,0,0-13.267,0c-3.669,2.12-3.669,5.55,0,7.66a14.635,14.635,0,0,0,13.267,0C188.866,241.19,188.866,237.76,185.2,235.64Zm-1.16,7a12,12,0,0,1-10.848,0c-3-1.73-3-4.54,0-6.26a12,12,0,0,1,10.848,0c2.959,1.71,2.959,4.52-.04,6.25Z" transform="translate(-169.177 -234.05)" fill="#ffc554"/>
            </g>
            <g id="Grupo_63090" data-name="Grupo 63090" transform="translate(7.099 2.908)">
              <path id="Trazado_229341" data-name="Trazado 229341" d="M182.608,241.58a1.73,1.73,0,0,0,.74-1.17h0v-.81l-.27.06a2,2,0,0,0-.55-.45c-1-.59-2.18-.63-4-.13-1.32.35-1.95.44-2.33.22s-.39-.5.34-.92a6.928,6.928,0,0,1,2-.73v-.75l-1-.17a7.218,7.218,0,0,0-2,.73l-1-.57-1.1-.12v.76l1.07.62a2.459,2.459,0,0,0-.47.52l-.22-.14v.78h0a1.32,1.32,0,0,0,.79,1.1c1.1.63,2.49.48,4.1,0,1.12-.32,1.76-.37,2.19-.12s.26.66-.39,1-1.7-.1-2.37,0v.76l1,1a8.807,8.807,0,0,0,2.4-.83l1.08.62,1.1-.64v-.75Z" transform="translate(-173.44 -235.98)" fill="#f4a42e"/>
              <path id="Trazado_229342" data-name="Trazado 229342" d="M182.658,242.13l-1.08-.62a8.177,8.177,0,0,1-2.4.83l-1-1a7.068,7.068,0,0,0,2.37-.8c.65-.37.84-.77.39-1a3.074,3.074,0,0,0-2.19.13c-1.61.46-3,.61-4.1,0s-1.07-1.44-.1-2.27l-1.07-.62,1.1-.63,1,.56a7.218,7.218,0,0,1,2-.73l1,.93a6.837,6.837,0,0,0-2,.72c-.73.43-.66.75-.34.93s1,.12,2.33-.22c1.82-.5,3-.46,4,.13s1.16,1.48.08,2.37l1.15.67Z" transform="translate(-173.44 -235.98)" fill="#ffc554"/>
            </g>
          </g>
          <g id="Grupo_63094" data-name="Grupo 63094" transform="translate(1.53 8.616)">
            <path id="Trazado_229343" data-name="Trazado 229343" d="M189.856,237a7.769,7.769,0,0,0-2.669-2.38c-4.579-2.65-12-2.65-16.6,0a7.409,7.409,0,0,0-2.869,2.71l-.56-.34v2.41c0,1.74,1.14,3.47,3.429,4.8,4.579,2.64,12,2.64,16.6,0,2.24-1.29,3.369-3,3.429-4.66h0v-2.66Z" transform="translate(-167.147 -230.176)" fill="#f4a42e"/>
            <path id="Trazado_229344" data-name="Trazado 229344" d="M187.186,232.16c4.579,2.64,4.579,6.93,0,9.58s-12,2.64-16.6,0-4.579-6.94,0-9.58S182.607,229.51,187.186,232.16Z" transform="translate(-167.147 -230.176)" fill="#ffeb7a"/>
            <g id="Grupo_63092" data-name="Grupo 63092" transform="translate(2.44 0.974)">
              <path id="Trazado_229345" data-name="Trazado 229345" d="M185.607,233.16a14.7,14.7,0,0,0-13.267,0c-3.669,2.12-3.669,5.54,0,7.67a14.7,14.7,0,0,0,13.267,0C189.266,238.7,189.266,235.28,185.607,233.16Zm-1.17,7a12,12,0,0,1-10.838,0c-3-1.73-3-4.53,0-6.26a12,12,0,0,1,10.838,0c3,1.72,3,4.52,0,6.25Z" transform="translate(-169.587 -231.15)" fill="#f4a42e"/>
              <path id="Trazado_229346" data-name="Trazado 229346" d="M185.607,232.74a14.635,14.635,0,0,0-13.267,0c-3.669,2.11-3.669,5.54,0,7.66a14.7,14.7,0,0,0,13.267,0C189.266,238.28,189.266,234.85,185.607,232.74Zm-1.17,7a12,12,0,0,1-10.838,0c-3-1.73-3-4.53,0-6.27a12,12,0,0,1,10.838,0c3,1.73,3,4.53,0,6.26Z" transform="translate(-169.587 -231.15)" fill="#ffc554"/>
            </g>
            <g id="Grupo_63093" data-name="Grupo 63093" transform="translate(6.681 2.904)">
              <path id="Trazado_229347" data-name="Trazado 229347" d="M183,238.67a1.71,1.71,0,0,0,.74-1.16h0v-.81l-.26.06a2,2,0,0,0-.56-.45c-1-.59-2.18-.63-4-.13-1.33.34-2,.43-2.33.22s-.39-.5.34-.92a6.328,6.328,0,0,1,2-.72V234l-1-.17a7.218,7.218,0,0,0-2,.73l-1-.58-1.1-.11v.76l1.07.61a2.27,2.27,0,0,0-.47.54l-.22-.16v.79h0a1.33,1.33,0,0,0,.8,1.1c1.09.64,2.48.48,4.1,0,1.11-.32,1.75-.38,2.18-.12s.26.66-.39,1-1.71-.09-2.37,0v.75l1,1a8.177,8.177,0,0,0,2.4-.83l1.08.62,1.1-.64v-.74Z" transform="translate(-173.83 -233.08)" fill="#f4a42e"/>
              <path id="Trazado_229348" data-name="Trazado 229348" d="M183.068,239.23l-1.08-.62a8.177,8.177,0,0,1-2.4.83l-1-1a7.377,7.377,0,0,0,2.37-.8c.65-.37.84-.77.39-1a2.994,2.994,0,0,0-2.18.13c-1.62.45-3,.61-4.1,0s-1.08-1.43-.11-2.27l-1.07-.62,1.1-.64,1,.57a7.558,7.558,0,0,1,2-.73l1,.93a6.877,6.877,0,0,0-2,.72c-.73.42-.66.74-.34.93s1,.11,2.33-.23c1.82-.5,3-.45,4,.13s1.16,1.49.08,2.37l1.15.68Z" transform="translate(-173.83 -233.08)" fill="#ffc554"/>
            </g>
          </g>
          <g id="Grupo_63097" data-name="Grupo 63097" transform="translate(0.682 5.956)">
            <path id="Trazado_229349" data-name="Trazado 229349" d="M189,234.3a7.769,7.769,0,0,0-2.67-2.38c-4.579-2.65-12-2.65-16.587,0a7.519,7.519,0,0,0-2.879,2.71l-.56-.34v2.41c0,1.74,1.15,3.47,3.439,4.8,4.579,2.64,12,2.64,16.587,0,2.24-1.3,3.379-3,3.429-4.67h0v-2.65Z" transform="translate(-166.3 -227.516)" fill="#f4a42e"/>
            <path id="Trazado_229350" data-name="Trazado 229350" d="M186.366,229.5c4.579,2.64,4.579,6.93,0,9.57s-12,2.64-16.587,0-4.579-6.93,0-9.57S181.787,226.85,186.366,229.5Z" transform="translate(-166.3 -227.516)" fill="#ffeb7a"/>
            <g id="Grupo_63095" data-name="Grupo 63095" transform="translate(2.467 0.974)">
              <path id="Trazado_229351" data-name="Trazado 229351" d="M184.787,230.5a14.635,14.635,0,0,0-13.267,0c-3.669,2.12-3.669,5.55,0,7.67a14.7,14.7,0,0,0,13.267,0C188.456,236.05,188.456,232.62,184.787,230.5Zm-1.16,7a12,12,0,0,1-10.848,0c-3-1.73-3-4.54,0-6.26a12,12,0,0,1,10.848,0c3,1.76,3,4.52,0,6.25Z" transform="translate(-168.767 -228.49)" fill="#f4a42e"/>
              <path id="Trazado_229352" data-name="Trazado 229352" d="M184.787,230.08a14.635,14.635,0,0,0-13.267,0c-3.669,2.11-3.669,5.54,0,7.66a14.635,14.635,0,0,0,13.267,0C188.456,235.62,188.456,232.19,184.787,230.08Zm-1.16,7a12,12,0,0,1-10.848,0c-3-1.74-3-4.54,0-6.27a12,12,0,0,1,10.848,0c3,1.72,3,4.52,0,6.26Z" transform="translate(-168.767 -228.49)" fill="#ffc554"/>
            </g>
            <g id="Grupo_63096" data-name="Grupo 63096" transform="translate(6.749 2.894)">
              <path id="Trazado_229353" data-name="Trazado 229353" d="M182.2,236a1.75,1.75,0,0,0,.74-1.17h0V234l-.27.06a2,2,0,0,0-.56-.45c-1-.59-2.18-.63-4-.13-1.32.35-2,.43-2.33.22s-.39-.5.34-.93a6.938,6.938,0,0,1,2-.72v-.75l-.95-.17a7.328,7.328,0,0,0-2,.73l-1-.58-1.11-.11V232l1.07.62a2.521,2.521,0,0,0-.47.54l-.21-.16v.79h0a1.28,1.28,0,0,0,.79,1.1c1.09.63,2.479.48,4.089,0,1.13-.32,1.76-.37,2.19-.13s.26.67-.38,1-1.72-.1-2.37,0v.75l1,1a8.137,8.137,0,0,0,2.41-.83l1.08.62,1.11-.64v-.75Z" transform="translate(-173.05 -230.41)" fill="#f4a42e"/>
              <path id="Trazado_229354" data-name="Trazado 229354" d="M182.248,236.57l-1.08-.62a8.437,8.437,0,0,1-2.41.83l-1-1a7.718,7.718,0,0,0,2.37-.8c.64-.37.83-.77.38-1a3.054,3.054,0,0,0-2.19.12c-1.61.47-3,.62-4.089,0s-1.08-1.44-.11-2.27l-1.07-.62,1.11-.64,1,.57a8.067,8.067,0,0,1,2-.73l.95.93a6.378,6.378,0,0,0-2,.72c-.73.42-.65.74-.34.92s1,.13,2.33-.22c1.82-.5,3-.45,4,.14s1.16,1.49.08,2.37l1.16.66Z" transform="translate(-173.05 -230.41)" fill="#ffc554"/>
            </g>
          </g>
          <g id="Grupo_63100" data-name="Grupo 63100" transform="translate(1.822 3.065)">
            <path id="Trazado_229355" data-name="Trazado 229355" d="M190.136,231.4a7.789,7.789,0,0,0-2.669-2.39c-4.579-2.64-12-2.64-16.587,0a7.359,7.359,0,0,0-2.869,2.72l-.57-.35v2.42c0,1.74,1.15,3.47,3.439,4.8,4.579,2.64,12,2.64,16.587,0,2.24-1.3,3.369-3,3.439-4.67h0v-2.65Z" transform="translate(-167.44 -224.625)" fill="#f4a42e"/>
            <path id="Trazado_229356" data-name="Trazado 229356" d="M187.466,226.59c4.579,2.65,4.579,6.93,0,9.58s-12,2.65-16.587,0-4.579-6.93,0-9.58S182.887,224,187.466,226.59Z" transform="translate(-167.44 -224.625)" fill="#ffeb7a"/>
            <g id="Grupo_63098" data-name="Grupo 63098" transform="translate(2.435 0.963)">
              <path id="Trazado_229357" data-name="Trazado 229357" d="M185.887,227.6a14.635,14.635,0,0,0-13.267,0c-3.659,2.11-3.659,5.55,0,7.66a14.7,14.7,0,0,0,13.267,0C189.556,233.15,189.556,229.71,185.887,227.6Zm-1.16,7a12,12,0,0,1-10.848,0c-3-1.73-3-4.54,0-6.27a12,12,0,0,1,10.848,0c3,1.72,3,4.53,0,6.26Z" transform="translate(-169.875 -225.587)" fill="#f4a42e"/>
              <path id="Trazado_229358" data-name="Trazado 229358" d="M185.887,227.17a14.7,14.7,0,0,0-13.267,0c-3.659,2.12-3.659,5.55,0,7.67a14.7,14.7,0,0,0,13.267,0C189.556,232.72,189.556,229.29,185.887,227.17Zm-1.16,7a12,12,0,0,1-10.848,0c-3-1.74-3-4.54,0-6.27a12,12,0,0,1,10.848,0C187.727,229.63,187.727,232.43,184.727,234.17Z" transform="translate(-169.875 -225.587)" fill="#ffc554"/>
            </g>
            <g id="Grupo_63099" data-name="Grupo 63099" transform="translate(6.669 2.885)">
              <path id="Trazado_229359" data-name="Trazado 229359" d="M183.3,233.12a1.71,1.71,0,0,0,.74-1.18h0v-.8l-.27.05a2.4,2.4,0,0,0-.56-.45c-1-.59-2.18-.63-4-.13-1.32.35-1.95.44-2.32.23s-.4-.51.33-.94a6.788,6.788,0,0,1,2-.71v-.76l-1-.16a6.488,6.488,0,0,0-2,.73l-1-.58-1.11-.12v.76l1.07.62a2.489,2.489,0,0,0-.47.53l-.21-.15v.79h0a1.27,1.27,0,0,0,.79,1.09c1.1.64,2.48.49,4.1,0,1.11-.32,1.75-.38,2.18-.13s.26.66-.38,1-1.72-.09-2.38,0v.75l1,1a8.537,8.537,0,0,0,2.41-.83l1.07.62,1.11-.64V233Z" transform="translate(-174.11 -227.51)" fill="#f4a42e"/>
              <path id="Trazado_229360" data-name="Trazado 229360" d="M183.348,233.67l-1.07-.62a8.487,8.487,0,0,1-2.41.82l-1-1a7.777,7.777,0,0,0,2.38-.8c.64-.37.83-.77.38-1a3.03,3.03,0,0,0-2.18.12c-1.62.46-3,.61-4.1,0s-1.08-1.43-.11-2.27l-1.07-.62,1.11-.63,1,.57a7.058,7.058,0,0,1,2-.73l1,.92a6.877,6.877,0,0,0-2,.72c-.73.43-.65.75-.33.93s1,.13,2.32-.22c1.82-.5,3-.46,4,.13s1.16,1.49.08,2.37l1.16.67Z" transform="translate(-174.11 -227.51)" fill="#ffc554"/>
            </g>
          </g>
          <g id="Grupo_63103" data-name="Grupo 63103">
            <path id="Trazado_229361" data-name="Trazado 229361" d="M188.326,228.34a7.869,7.869,0,0,0-2.669-2.38c-4.589-2.64-12-2.64-16.6,0a7.429,7.429,0,0,0-2.869,2.72l-.56-.35v2.42c0,1.74,1.14,3.47,3.429,4.79,4.579,2.65,12,2.65,16.6,0,2.23-1.29,3.369-3,3.419-4.65h0v-2.67Z" transform="translate(-165.617 -221.56)" fill="#f4a42e"/>
            <path id="Trazado_229362" data-name="Trazado 229362" d="M185.656,223.54c4.579,2.64,4.579,6.93,0,9.58s-12,2.64-16.6,0-4.579-6.94,0-9.58S181.067,220.9,185.656,223.54Z" transform="translate(-165.617 -221.56)" fill="#ffeb7a"/>
            <g id="Grupo_63101" data-name="Grupo 63101" transform="translate(2.43 0.98)">
              <path id="Trazado_229363" data-name="Trazado 229363" d="M184.077,224.54a14.715,14.715,0,0,0-13.277,0c-3.669,2.12-3.669,5.55,0,7.67a14.655,14.655,0,0,0,13.277,0C187.736,230.09,187.736,226.66,184.077,224.54Zm-1.17,7a12,12,0,0,1-10.848,0c-3-1.73-3-4.53,0-6.27a12,12,0,0,1,10.848,0C185.907,227,185.907,229.81,182.907,231.54Z" transform="translate(-168.048 -222.54)" fill="#f4a42e"/>
              <path id="Trazado_229364" data-name="Trazado 229364" d="M184.077,224.13a14.655,14.655,0,0,0-13.277,0c-3.669,2.11-3.669,5.54,0,7.66a14.715,14.715,0,0,0,13.277,0C187.736,229.67,187.736,226.24,184.077,224.13Zm-1.17,7a12.046,12.046,0,0,1-10.848,0c-3-1.74-3-4.54,0-6.27a12,12,0,0,1,10.848,0c3,1.72,3,4.52,0,6.26Z" transform="translate(-168.048 -222.54)" fill="#ffc554"/>
            </g>
            <g id="Grupo_63102" data-name="Grupo 63102" transform="translate(6.691 2.92)">
              <path id="Trazado_229365" data-name="Trazado 229365" d="M181.488,230.06a1.75,1.75,0,0,0,.74-1.16h0v-.81h-.27a2,2,0,0,0-.56-.44c-1-.59-2.18-.64-4-.14-1.31.35-2,.44-2.32.22s-.4-.5.34-.92a6.838,6.838,0,0,1,2-.72v-.75l-1-.18a7.178,7.178,0,0,0-2,.74l-1-.58-1.11-.11V226l1.08.62a2.329,2.329,0,0,0-.48.53l-.21-.15v.79h0a1.33,1.33,0,0,0,.79,1.1c1.1.62,2.49.48,4.1,0,1.12-.32,1.75-.37,2.18-.11s.26.65-.38,1-1.72-.09-2.37,0v.76l1,1a8.236,8.236,0,0,0,2.41-.83l1.07.62,1.11-.64V230Z" transform="translate(-172.31 -224.48)" fill="#f4a42e"/>
              <path id="Trazado_229366" data-name="Trazado 229366" d="M181.528,230.61l-1.07-.62a8.237,8.237,0,0,1-2.41.83l-1-1a7.437,7.437,0,0,0,2.37-.79c.64-.37.84-.77.38-1s-1.06-.18-2.18.13c-1.61.46-3,.61-4.1,0s-1.08-1.43-.1-2.26l-1.08-.62,1.11-.64,1,.57a7.438,7.438,0,0,1,2-.73l1,.93a6.558,6.558,0,0,0-2,.72c-.74.41-.66.74-.34.92s1,.12,2.32-.23c1.82-.49,3-.45,4,.14s1.16,1.49.09,2.37l1.15.67Z" transform="translate(-172.31 -224.48)" fill="#ffc554"/>
            </g>
          </g>
        </g>
        <g id="Grupo_63114" data-name="Grupo 63114" transform="translate(103.327 223.302)">
          <g id="Grupo_63107" data-name="Grupo 63107" transform="translate(0.009 5.55)">
            <path id="Trazado_229367" data-name="Trazado 229367" d="M182.638,267.53a17.314,17.314,0,0,1-8.5-2c-2.35-1.36-3.639-3.18-3.639-5.14s1.29-3.79,3.639-5.15a18.723,18.723,0,0,1,17,0c2.35,1.36,3.639,3.19,3.639,5.15s-1.29,3.78-3.639,5.14A17.344,17.344,0,0,1,182.638,267.53Z" transform="translate(-170.5 -251.142)" opacity="0.3"/>
            <path id="Trazado_229368" data-name="Trazado 229368" d="M193.606,257.94a7.819,7.819,0,0,0-2.679-2.38c-4.579-2.65-12-2.65-16.587,0a7.479,7.479,0,0,0-2.869,2.71l-.57-.34v2.42c0,1.73,1.15,3.46,3.439,4.78,4.579,2.65,12,2.65,16.587,0,2.24-1.28,3.379-3,3.439-4.65h0v-2.66Z" transform="translate(-170.5 -251.142)" fill="#f4a42e"/>
            <path id="Trazado_229369" data-name="Trazado 229369" d="M190.926,253.13c4.589,2.65,4.589,6.94,0,9.58s-12,2.65-16.587,0-4.579-6.93,0-9.58S186.347,250.48,190.926,253.13Z" transform="translate(-170.5 -251.142)" fill="#ffeb7a"/>
            <g id="Grupo_63105" data-name="Grupo 63105" transform="translate(2.837 0.988)">
              <path id="Trazado_229370" data-name="Trazado 229370" d="M189.347,254.14a14.675,14.675,0,0,0-13.257,0c-3.669,2.12-3.669,5.55,0,7.67a14.675,14.675,0,0,0,13.257,0C193,259.69,193,256.26,189.347,254.14Zm-1.16,7a12,12,0,0,1-10.848,0c-3-1.72-3-4.53,0-6.26a11.926,11.926,0,0,1,10.848,0c3,1.72,3,4.53,0,6.25Z" transform="translate(-173.338 -252.13)" fill="#f4a42e"/>
              <path id="Trazado_229371" data-name="Trazado 229371" d="M189.347,253.72a14.615,14.615,0,0,0-13.257,0c-3.669,2.11-3.669,5.55,0,7.66a14.675,14.675,0,0,0,13.257,0C193,259.27,193,255.83,189.347,253.72Zm-1.16,7a12,12,0,0,1-10.848,0c-3-1.73-3-4.54,0-6.27a12.046,12.046,0,0,1,10.848,0c3,1.72,3,4.55,0,6.26Z" transform="translate(-173.337 -252.13)" fill="#ffc554"/>
            </g>
            <g id="Grupo_63106" data-name="Grupo 63106" transform="translate(7.089 2.918)">
              <path id="Trazado_229372" data-name="Trazado 229372" d="M186.768,259.66a1.71,1.71,0,0,0,.74-1.17h0v-.81l-.27.06a2.14,2.14,0,0,0-.55-.45c-1-.59-2.19-.64-4-.13-1.32.34-2,.44-2.32.22s-.4-.5.33-.92a6.767,6.767,0,0,1,2-.73V255l-1-.17a7.168,7.168,0,0,0-2,.73l-1-.58-1.11-.11v.76l1.07.61a2.52,2.52,0,0,0-.47.54l-.22-.16v.79h0a1.31,1.31,0,0,0,.8,1.1c1.1.63,2.48.48,4.1,0,1.12-.32,1.75-.37,2.19-.12s.25.65-.39,1-1.71-.09-2.38,0v.76l1,.95a8.388,8.388,0,0,0,2.41-.82l1.07.62,1.11-.64v-.76Z" transform="translate(-177.59 -254.06)" fill="#f4a42e"/>
              <path id="Trazado_229373" data-name="Trazado 229373" d="M186.808,260.21l-1.07-.62a8.136,8.136,0,0,1-2.41.83l-1-1a7.358,7.358,0,0,0,2.38-.8c.64-.36.84-.77.39-1a3.074,3.074,0,0,0-2.19.13c-1.62.46-3,.6-4.1,0s-1.07-1.44-.11-2.27l-1.07-.62,1.11-.64,1,.58a7.248,7.248,0,0,1,2-.74l1,.93a7,7,0,0,0-2,.72c-.73.42-.65.75-.33.93s1,.12,2.32-.22c1.82-.51,3-.46,4,.12s1.15,1.49.08,2.38l1.15.66Z" transform="translate(-177.59 -254.06)" fill="#ffc554"/>
            </g>
          </g>
          <g id="Grupo_63110" data-name="Grupo 63110" transform="translate(0.809 2.664)">
            <path id="Trazado_229374" data-name="Trazado 229374" d="M194,255a7.709,7.709,0,0,0-2.659-2.37c-4.589-2.65-12-2.65-16.6,0a7.409,7.409,0,0,0-2.869,2.71l-.57-.35v2.43c0,1.73,1.15,3.47,3.439,4.79,4.579,2.64,12,2.64,16.6,0,2.23-1.29,3.369-3,3.429-4.66h0v-2.66Z" transform="translate(-171.3 -248.256)" fill="#f4a42e"/>
            <path id="Trazado_229375" data-name="Trazado 229375" d="M191.346,250.24c4.579,2.64,4.579,6.93,0,9.57s-12,2.64-16.6,0-4.579-6.93,0-9.57S186.757,247.59,191.346,250.24Z" transform="translate(-171.3 -248.256)" fill="#ffeb7a"/>
            <g id="Grupo_63108" data-name="Grupo 63108" transform="translate(2.447 0.971)">
              <path id="Trazado_229376" data-name="Trazado 229376" d="M189.767,251.24a14.7,14.7,0,0,0-13.267,0c-3.669,2.11-3.669,5.55,0,7.67a14.7,14.7,0,0,0,13.267,0C193.426,256.79,193.426,253.35,189.767,251.24Zm-1.17,7a12.046,12.046,0,0,1-10.848,0c-3-1.73-3-4.53,0-6.26a12,12,0,0,1,10.848,0c2.989,1.72,2.989,4.52,0,6.25Z" transform="translate(-173.748 -249.227)" fill="#f4a42e"/>
              <path id="Trazado_229377" data-name="Trazado 229377" d="M189.767,250.81a14.7,14.7,0,0,0-13.267,0c-3.669,2.12-3.669,5.55,0,7.67a14.7,14.7,0,0,0,13.267,0C193.426,256.36,193.426,252.93,189.767,250.81Zm-1.17,7a12.046,12.046,0,0,1-10.848,0c-3-1.73-3-4.54,0-6.27a12.046,12.046,0,0,1,10.848,0C191.587,253.27,191.587,256.08,188.6,257.81Z" transform="translate(-173.748 -249.227)" fill="#ffc554"/>
            </g>
            <g id="Grupo_63109" data-name="Grupo 63109" transform="translate(6.699 2.914)">
              <path id="Trazado_229378" data-name="Trazado 229378" d="M187.178,256.76a1.79,1.79,0,0,0,.74-1.17h0v-.81l-.27.06a1.8,1.8,0,0,0-.55-.45c-1-.59-2.19-.63-4-.13-1.32.34-2,.43-2.33.22s-.39-.51.34-.93a7,7,0,0,1,2-.72v-.75l-1-.18a7.558,7.558,0,0,0-2,.74l-1-.58-1.11-.11v.75l1.08.62a2.53,2.53,0,0,0-.48.53l-.21-.15v.79h0a1.31,1.31,0,0,0,.78,1.1c1.11.63,2.49.48,4.109,0,1.12-.32,1.76-.37,2.18-.13s.26.66-.38,1-1.71-.09-2.38.05v.75l1,1a8.388,8.388,0,0,0,2.41-.82l1.07.61,1.11-.64v-.75Z" transform="translate(-178 -251.17)" fill="#f4a42e"/>
              <path id="Trazado_229379" data-name="Trazado 229379" d="M187.218,257.31l-1.07-.62a8.438,8.438,0,0,1-2.41.83l-1-1a7.357,7.357,0,0,0,2.38-.8c.64-.37.84-.77.38-1a2.994,2.994,0,0,0-2.18.13c-1.62.46-3,.61-4.109,0s-1.07-1.43-.09-2.26l-1.08-.62,1.11-.64,1,.57a7.158,7.158,0,0,1,2-.73l1,.93a6.687,6.687,0,0,0-2,.72c-.73.42-.65.75-.34.92s1,.13,2.33-.22c1.82-.5,3-.45,4,.13s1.15,1.49.08,2.38l1.15.66Z" transform="translate(-178 -251.17)" fill="#ffc554"/>
            </g>
          </g>
          <g id="Grupo_63113" data-name="Grupo 63113">
            <path id="Trazado_229380" data-name="Trazado 229380" d="M193.2,252.37a7.919,7.919,0,0,0-2.679-2.38c-4.579-2.64-12-2.64-16.587,0a7.559,7.559,0,0,0-2.869,2.71l-.56-.34v2.42c0,1.74,1.14,3.47,3.429,4.79,4.589,2.65,12,2.65,16.587,0,2.24-1.29,3.379-3,3.439-4.66h0v-2.65Z" transform="translate(-170.491 -245.592)" fill="#f4a42e"/>
            <path id="Trazado_229381" data-name="Trazado 229381" d="M190.516,247.58c4.589,2.64,4.589,6.93,0,9.57s-12,2.65-16.587,0-4.579-6.93,0-9.57S185.937,244.92,190.516,247.58Z" transform="translate(-170.491 -245.592)" fill="#ffeb7a"/>
            <g id="Grupo_63111" data-name="Grupo 63111" transform="translate(2.486 0.978)">
              <path id="Trazado_229382" data-name="Trazado 229382" d="M189,248.58a14.635,14.635,0,0,0-13.267,0c-3.669,2.11-3.669,5.54,0,7.66a14.635,14.635,0,0,0,13.267,0C192.616,254.12,192.616,250.69,189,248.58Zm-1.17,7a12,12,0,0,1-10.838,0c-3-1.73-3-4.54,0-6.27a12,12,0,0,1,10.838,0c2.949,1.69,2.949,4.53-.05,6.26Z" transform="translate(-172.977 -246.57)" fill="#f4a42e"/>
              <path id="Trazado_229383" data-name="Trazado 229383" d="M189,248.16a14.635,14.635,0,0,0-13.267,0c-3.669,2.11-3.669,5.54,0,7.66a14.7,14.7,0,0,0,13.267,0C192.616,253.7,192.616,250.27,189,248.16Zm-1.17,7a11.906,11.906,0,0,1-10.838,0c-3-1.73-3-4.53,0-6.26a12,12,0,0,1,10.838,0c2.949,1.71,2.949,4.51-.05,6.24Z" transform="translate(-172.977 -246.57)" fill="#ffc554"/>
            </g>
            <g id="Grupo_63112" data-name="Grupo 63112" transform="translate(6.677 2.928)">
              <path id="Trazado_229384" data-name="Trazado 229384" d="M186.358,254.09a1.75,1.75,0,0,0,.74-1.17h0v-.81l-.27.07a2,2,0,0,0-.55-.46c-1-.59-2.18-.63-4-.12-1.33.34-1.95.43-2.34.22s-.39-.51.34-.93a6.688,6.688,0,0,1,2-.72v-.76l-1-.17a7.607,7.607,0,0,0-2,.73l-1-.57-1.11-.11V250l1.08.62a2.3,2.3,0,0,0-.48.53l-.21-.15v.79h0a1.31,1.31,0,0,0,.79,1.1c1.1.63,2.48.48,4.1,0,1.12-.33,1.76-.38,2.19-.13s.26.66-.39,1-1.71-.09-2.37,0v.76l1,1a8.137,8.137,0,0,0,2.41-.83l1.08.62,1.1-.64V254Z" transform="translate(-177.17 -248.52)" fill="#f4a42e"/>
              <path id="Trazado_229385" data-name="Trazado 229385" d="M186.408,254.64l-1.08-.61a8.747,8.747,0,0,1-2.41.83l-1-1a7.357,7.357,0,0,0,2.37-.79c.65-.38.84-.77.39-1a3.074,3.074,0,0,0-2.19.13c-1.62.47-3,.62-4.1,0s-1.07-1.43-.1-2.26l-1.08-.62,1.11-.64,1,.57a7.606,7.606,0,0,1,2-.73l1,.92a6.769,6.769,0,0,0-2,.73c-.73.42-.65.74-.34.93s1,.12,2.34-.23c1.82-.5,3-.45,4,.13s1.16,1.49.08,2.37l1.15.67Z" transform="translate(-177.17 -248.52)" fill="#ffc554"/>
            </g>
          </g>
        </g>
      </g>
    </g>
  </g>
</svg>
