<svg xmlns="http://www.w3.org/2000/svg" width="310.02" height="310" viewBox="0 0 310.02 310">
  <g id="Grupo_124786" data-name="Grupo 124786" transform="translate(-799 -1483)">
    <g id="CF8_tarjeta1_copia_2" data-name="CF8_tarjeta1 copia 2" transform="translate(799 1483)">
      <rect id="Rectángulo_7182" data-name="Rectángulo 7182" width="310" height="310" fill="#472ea6"/>
      <g id="Grupo_62566" data-name="Grupo 62566">
        <path id="Trazado_227578" data-name="Trazado 227578" d="M291.54,210.39c.1-1.11,1.91-2.85,1.67-3.69-.19-.65-2.68-.28-3.89-.28s-4.25,1.76-3.05,4.25S291.45,211.5,291.54,210.39Z" fill="#372384"/>
        <path id="Trazado_227579" data-name="Trazado 227579" d="M291.54,210.39c.1-1.11,1.91-2.85,1.67-3.69-.19-.65-2.68-.28-3.89-.28s-4.25,1.76-3.05,4.25S291.45,211.5,291.54,210.39Z" fill="#372384"/>
      </g>
      <g id="Grupo_62567" data-name="Grupo 62567">
        <path id="Trazado_227580" data-name="Trazado 227580" d="M277.2,284.13a19.218,19.218,0,0,1,.47-3.24c0-.65.46-.92,1.29-.74s.74-1.76.09-1.94-1-2.5-2.59-2.5-1.29,1.29-.37,1.39,1.48.83,1.21,1.48-.65-.65-1.95-.55-.46-1.58-1.94-1.67-1.2-2.78-2.78-2.78-1.66-1.29-.64-2.22-1.58-1.76-1.58-2.87-1.66-.46-1.66-1.39-.74-.45-1.57-1.57-1.21-.09-1.95-.92-1.75-1.3-2.4-1-2.13-1.2-2.68-2.68c-.44-1.18-4.72-3.15-5.28-4.72s-2-2.22-4.53-2.13-3.48-2.44-4.07-1.2c-.74,1.57,2.68,5.09,4.25,6s2.41,4.26,4.26,4.44,2,6,3.42,6.29,4.35,4.81,4.81,7.22,3.52,3.61,4.54,5.37,5.08,4.16,5.64,4.9,1.11,2.4,1.57,1.57,2.41,0,3.33.1S277.3,285.42,277.2,284.13Z" fill="#3d2a88"/>
        <path id="Trazado_227581" data-name="Trazado 227581" d="M277.2,284.13a19.218,19.218,0,0,1,.47-3.24c0-.65.46-.92,1.29-.74s.74-1.76.09-1.94-1-2.5-2.59-2.5-1.29,1.29-.37,1.39,1.48.83,1.21,1.48-.65-.65-1.95-.55-.46-1.58-1.94-1.67-1.2-2.78-2.78-2.78-1.66-1.29-.64-2.22-1.58-1.76-1.58-2.87-1.66-.46-1.66-1.39-.74-.45-1.57-1.57-1.21-.09-1.95-.92-1.75-1.3-2.4-1-2.13-1.2-2.68-2.68c-.44-1.18-4.72-3.15-5.28-4.72s-2-2.22-4.53-2.13-3.48-2.44-4.07-1.2c-.74,1.57,2.68,5.09,4.25,6s2.41,4.26,4.26,4.44,2,6,3.42,6.29,4.35,4.81,4.81,7.22,3.52,3.61,4.54,5.37,5.08,4.16,5.64,4.9,1.11,2.4,1.57,1.57,2.41,0,3.33.1S277.3,285.42,277.2,284.13Z" fill="#3d2a88"/>
      </g>
      <path id="Trazado_227582" data-name="Trazado 227582" d="M200.14,239.72l-1.3,7.12,1.58,4.63,4.81-4.44Z" fill="#372384"/>
      <g id="Grupo_62568" data-name="Grupo 62568">
        <path id="Trazado_227583" data-name="Trazado 227583" d="M13.13,138.77l3.21,1.33.21-.81-4.11-3.32-3.5-3.01-.9.08-2.87-1.43-1.99-3.56L0,124.8v9.5l3,1.71,3.47,2.37,2.1,1.72.97,3.36-.78,2.32.48,1.6,1.83-3.14,1.55-1.3-1.43-2.45.61-1.42Z" fill="#3d2a88"/>
        <path id="Trazado_227584" data-name="Trazado 227584" d="M310,0H206.42l.54.36-1,.53L204.05,0H191.48l1.38,1.76L193.09,3,191.3,6.84l.12,1.46v2.39l2.55.06,3.63-.88,3,1.09,3.4,1.72.82,2.48-1.42,1.43v1l3.44,1.87-3.51-.27-1.43-2,.45-3.11-3.23-2.44L194.32,13l.65,4.89-2.79,2.79V21.7l-4.35,2.64-1.13,1.9-2.81-.8-3.17.43L178.83,25l-1.31.15-1.33-.44.58-1.58.79.09,1.3,1.07,1.72-.79L182,24.71l.88-.72h1.55l-.29-1.14,1.6-.66.35-1.43.63-.23.34-1,2-1.06.71-.84-.26-1.2.52-1.63.86-.61-2.74-2.74-.54-3.2.51-1.73-.46-2.22,1.08-2.67-.2-1.17L188.06,0H169.28L170,1.37h1.11l-.37,2.5-.18,1.47-.9.9-.17,1.23,4,1.63,1.29,2.58,1.63.7-.27,2-1.67,1.13-3.79-3-2.21-1L164.3,9.78l-2.78-1.17-3.45-1.39-8.58-.77-1.18-1.27-2.9-1.47-1.77.17.11,1.67,1.58.79.94.7,2.54.49.53,2,1.45,1.92-.25,1.09-1.73.33-1.26.32V14.6l-1.05.16-1.5-.71.89-1.32-2.47-1.37-4.24,2.34-3.23-.17-2.59.35L131,15.83h-2.58l-2-.67-.19-.48,2.34-.2L128,13.3l1-1.68-4.26,1.25-.6,1.76h-.39l-1-.88-6.35,1.57-1.32,1-2.31,1.1-.48.64-3.14.74-.6,2.91-1.74,1-4.13-.05L101.3,20.9l-1.11-.82-.21-1.61,1.21-.61,2-.74,2.32.33-1.6-2.28-.6-1.28L102,13.34H99.63l-1.86.12-2.52-.61-.13.34,2,1.41.06,2.9-1.39,3.27,1.77.19.45.46.24,1.41-.1,1.43-.62,1.05-.5,1-1.1-.35H95.5l-.49-.94-2.12-.5-2-.13L89.21,26l-2.84,1-1.6,1.29-1.3,1.24-.07.95,1.44,1.88.63,1.74-2,.53-1.76-.76-1.12-.56-2.12-.18-1.13-.57L74.93,31,73,32.71l1,1.81,1.4.92,2.11.38-.18,1.66-1.64.65-1.17-.51-2-.51-.28-.62-.83-.66-1.76-.34L68.18,35l-.2-1.7L67.47,32l-.65-2.25.87-.9L66.46,26l-2.35-1-.84-.71-1.73-1L60.22,21.7l-1.11-1L63,22.5l3.3.79,3.16,1.07,4.92,1.16,5,.65,4.55-1.25L88,22V20.44l-.69-2.16-1.61-1-1.82-1.45-1.51-.32-1.44-1.17-1.32-.17L72.25,10l-3.61-.92-1,.27L66.38,8.5l-2.22.55-1.71-.4-2-.09-.69-.78L62.44,7l-3.5-1.21L57.86,7.23,54,6.06l-1.28.74L52,5.7,50.28,4.34l2.14.56,1.72-1,1.91-.53-1.9-1.86L51.26,1l-1.4-1L47.33,2.72,47,.67l.94-.49V0h-3.6l.07.67L42.5,2.83,42.3,0H42L37.55,4.22l-.65-1,1.68-1.86L40,0H35.72l-.44.93.15.47L35,1.78,33.78,1l-2.1,2.3.33,1-.66.77-.83-1.22.13-1.36,1.18-1.24.68-1L31.66.07l-.95,1H28.86l-.68.27-.12.6L29.52,3.8H28.16l-2.36.05,1.76,1.57-1.48-.18-.88-.09-.79-.93-1.33.22L24.2,5.53l-.32,1.79-.76-.51-.4-1.2-1.4.46-.64-2.14-2.75.76.35,1.92-1.37.19-.58,1.27-1.48-.81-1.35.66-1.62,2.13,2-.14L14.29,11l.26.83H14l-1-.49-.58.68-1.82-.93L9.29,12,10,9.45,7.61,11.38,6.19,12.45,4.53,14.53,1.83,15.8.68,17l6.76-2.89.78.29,1.07-.57.87-.56,1.07.42L11,15.32l.16.51h-1L9.29,15l-1,1-1.52.9L6.1,18.79l-1.16,1-.88,1.72-2.53,2.9v.81l-.32,1.2H0V73.86l.78,1.27v2.64l3.43-.39.17-1.51,1-1,1.65-.48L9,74.66l.82-1.47,1.11.46L13,69.76l-1.45,1.11V68.7L12.57,63l3.3-1.56.73-1.73,1.85-2.55-3-3.28-2.22-.6-.37-3.52,1.15-3.05.83-2.41,1.49-1.43.87-2,4.26-2.17,4.81-3.61-.68-1.85,1.56-3.7,2-1.62,2.09-.27h2.88l3.53,2.1L37.2,32.2h-1l-1.67,3-2.28,1.54-2.83,1.87-.68,1.28L26.68,41l-1.84,2.74.55,1.06.32,2.2.79,2.35-1.07,4.4,2.92,1.16,1.89,1,3.43.74,5.49-1.27,5.58-1,3.06-2.92-.3,2.2,2,2,2.72.6-2.42.5L46.2,58.9l-2.46.25-3-.55-7,1.17-1.9,1.81.65,2,.81.91,2,.31L34.52,67l-.13,2.85-3.07-.12L29.37,67l-3,1.39-1.25,2.49-.78,1.18.39,2,.34,4.74-1,1.71-.51.89-1.74-1.41-1.54,1.4-1.71.88-1.48-1.94-6.85,1.94-4.88,1.6-.9.71-2.11-1.4.28-1.8L0,82.08v37.64l2.21-1.34,1.11,2.27,2.41,1,2.77,4.39L11,127.4l1,1,7.12,3.33,1.11,1.8-.93,4.66,2.52,3.32,1.34,1,.71,2.52h2l2.82,1-3.33.28L26,149l.29,1.43,2.19,1,2.05,1.11L30,149.38l2.17-.1L30.71,148l.21-.77,1.81.42,1.35-.53.22-1.46-1.24-1.08-1.3.15-1.29-.06,1-1.66L29,139.52v-1l.85-.27,1.94,1,1.3-.25v-1.86l1.3-.66,1.16.77,2.36-1.16,3.93,1.9,2.92-1.81L47,136l.68-1.5-1.09-.65-1.85-4.72,3.15-3.35,1.57-4.19,1.61-1.86,4.17-5.49,3.47-.52.32,2,5.09.74L60,118.85l3.14,1.43.14,2.4L73,120.19l-3.15-.83-2.55-2.55,3.94-2.5,9.71-2-3.88,2.27,1.2,1.76-4.4,3.88,13.93,9.53L89,133l-4.93,3-19.65-3.62-8,3-6.85.37L48,138.13,40.74,141l1.3.88.37,6.2,5.18,3.33,3.07,2.43,5.44-2.34,4.26,2.5,6.15-2.4h4.81l-1.06,7.86-5.65,12.21L54,170.51l-4.69,1.86-21.56-6.8-7,3.56.76,2.79-2.38,2.32-11.09-4-1-2.49L0,166.1V295.48l1.56,4.09L3,309.42l-.2.58H83.87l-.21-4-1.81-1.37-.32-1.5-.83-1.55-.18-2-.37-1.49.62-3.1L79,293.05l4.13-12.19,2.3-1,1-.77L97,268.23l3.72-2.05,6.13-5.76,3.6-5.11,1.37-3.46,4.76-7.94,1.27-5.68v-2.45l-1-.56L115,236.64l-6,1.13-3.35.33-1.64.83-3.1.33-3.41,1.39-1.94-.45-1.25-1.88-1.2-.8-2.29-.69.46-.84,2-.67.32-1.11-6.48-7-2.82-1.3L83,224.78l-1.34-1.3-1.57-3.21-.63-2.49-3.2-3.69-1.59-2.55-.35-4-1-4.54-1.38-1.59-2.67-3-.2-2.41-4.59-8.68L63,184.11l-.93-2-3.23-4.6.6-2.65,1.63,2.46,1.58,3.34,2,2.34h1.11l.84-4.37.55,3.63s3.37,3.7,3.65,4,2.42,3.25,2.42,3.25l.28,2.23,1.86,3.34,2.88,1.21.55,2.14,1.58,1.86L81.5,207l3.16,2.23,2.6,4.36,2.88,3.81.19,2.05,1.76,2.5-.93,2.88,2,3.35.42,4.59,4.51-.23,3-1.85,2.23.18,2.32-1.21,1.95-1.39,2.25.43,3.14-2.57,7.67-2.14.6-2.41,2.6-1.11,5.48-1.4h1.73l-.43-1.37,1.49-1.3,3,.06.74-1.55,1.29-1.32,2-1V211l1.06-2.67,1.68-.79.86-1,1.33-2,1.63-3.09-1.85-1.4-1.38-2.2-4.19-1.29L136,194.18l-1.32-5.4-5.28,5.89-3.4,1.17-2.79-.1-1.9,1-1.45-1.08-.44-2,.46-3-.83-1-2.31,3.1-1.67-3.37.21-.69-.91-1.95-3-2.93L110.11,181l-1.51-4,2.9-2.27.94.51,2.18-.1,4.22,7.49,2.88.92,1.69,1.26a27.222,27.222,0,0,1,3.46,1.91c.12.28,3.66.82,3.66.82l3.36-1.94,3,.56,1.11,4.11,12.45,1.92,1.66-.38,5.59.71.83-1.07,1.9.35,1.35.39,2.23-.18,1.46-.26,1.52-.58,1,1.32,1.43,1.71.65,2.13,1.4.7,1.83.81,2.88,2.66,1.33-.13,1.85-.74.24,1.05-1.17,1-3.17.49,3.27,3.78,3.39,1.63,2.6-1.49.68-1.75-.26-.89,1.23-.72.63,2.48,1,1.67-.86,2,1.69,11.52,3.26,7.77,2.32,6.82,1.48,1.95,1.12,1.67,1.21,2.88-.06,1.94,3,5,1.5-.21,1.42-1.73,2.91-2.91.06-1.85,1.87-1,.36-4,1.13-2.46.3-2.38-.49-2.38.43-3.28,1.15-2.59,2.5-2.35,7-5,3.38-3.64,3.05-2.14,2.57-2.83.17-2.54,2.38-.92,3.94-.06,2.09-.57,2.5-1.21.3-1.6,1.59.07,1.67,4.26,1.94,3.29,2.78,1.95,2,4.55.74,4.37-1,2.69,3,1.35,1.45-.81,2.15-2.17.53-1.71,2.43,3.49.64,3.66,1,4.27,1.77,2.33-.21,3.41.44,3-.91,8.9,1.51,1,3.55,4.55.72,4,1.58,4.09,2.42,3.9,3.9,2.6,4.46,2.16-2.51-5.42.38-5-.74-1.67-1.67-1.6-.29-.6-1.23-.93-1.48-1.59-2.36-1-1.84-1.71-.34-1.85-.84-2-.78-1.71-2.11-1.6,2.67-10.44-.15-1.71h2.42l1.12,2.51,2.22-.19,3.72,2.42.06,2.75,1.94.32.14,1.67,2.5.23,1.66,1.53-.87,2.72,1,1.52,3.41-2.44.74-1.2.83-1.67,2.92-.42,2.56-1.47,2.62-2.49.61-5.35-1-4.79-2.76-4.17-3-2.26-2.7-3.26-1.38-2.19-.15-3.2,2.22-2.73.41-2.09,2.19-.29,1.32-1.32,1.91-.51-.09-.67,1.1.19,1.6,1.11,1.58-1.11.44.65-.29,1.22.7,2.72.62.23.29-2.41,3.35-1.58,3.62-1.39,2.1-1.45ZM124.75,140.54l.18,1.94,2.32,1.84v7.23l-8.41,1.76-1.11-2.05-3-1.65-2.79-1-1-2.75.55-1.85,1.56-3,.29-3.64L107,128.33l-.21-2.71-1.86-3.9L108.6,118l4.86-2.23,3.15-2.12H120l4.81.92.37,4.63-3,.83-3.89,1.39-.46,1.76-1.57,1,2.4,2,1,2.4,2.22,1.3,1.48,1.57,1,3.8,1.85-2.69,2.4,2.87,1.48,1.85L127,138h-2.9ZM149.17,123,147,125.07h-2.34l-.59-5.81-1.29,4.53-1.65-1.33,1.46-4,1.48-1.39h2.69l2.4,2.22Z" fill="#3d2a88"/>
      </g>
      <path id="Trazado_227585" data-name="Trazado 227585" d="M49.31,154.54l1.87,1.05,3.02-1.31v-1.75l1.62-.84-4.44,1.34Z" fill="#372384"/>
      <path id="Trazado_227586" data-name="Trazado 227586" d="M21.95,153.22l2.64.85,1.94.35,4.22-1.29-1.95-.14H24.86l-1.41-.77Z" fill="#372384"/>
      <path id="Trazado_227588" data-name="Trazado 227588" d="M6,67.23l.78-3.24,1.34-.83-.18,2.05-.88,1.21Z" fill="#372384"/>
      <path id="Trazado_227589" data-name="Trazado 227589" d="M17.93,62.23l.55-2.37.7-.36,1.99.6-1.72.77Z" fill="#372384"/>
      <path id="Trazado_227590" data-name="Trazado 227590" d="M102.43,8.87l2.26-.86,1.82-1.15-.68-1.19-2.09-.84-2.71.53-.96,1.45.61,1.25Z" fill="#372384"/>
      <g id="Grupo_62629" data-name="Grupo 62629">
        <g id="Grupo_62574" data-name="Grupo 62574">
          <g id="Grupo_62569" data-name="Grupo 62569">
            <path id="Trazado_227591" data-name="Trazado 227591" d="M81,151.92l65.21-37.68a4.86,4.86,0,0,1,4,0l107.58,62.1,5.32-2.44v6.2a1.62,1.62,0,0,1-.85,1.23l-68.91,39.76a4.66,4.66,0,0,1-4.06,0L77.25,156.34a1.34,1.34,0,0,1-.83-1.14V149H81Z" fill="#383838"/>
            <path id="Trazado_227592" data-name="Trazado 227592" d="M146.19,108.11a4.64,4.64,0,0,1,4,0l112.09,64.7c1.13.64,1.13,1.67,0,2.37l-68.91,39.75a4.47,4.47,0,0,1-4.06,0L77.25,150.19c-1.1-.62-1.1-1.63,0-2.32Z" fill="gray"/>
            <path id="Trazado_227593" data-name="Trazado 227593" d="M188.07,181.9l-5.31,3.08-44.62-25.79,5.29-3.07Z" fill="#bbbdbf"/>
            <path id="Trazado_227594" data-name="Trazado 227594" d="M147.94,119.96l-5.23,2.98-5.31-2.98,5.31-3.04Z" fill="#bbbdbf"/>
            <path id="Trazado_227595" data-name="Trazado 227595" d="M157.83,125.66l-5.21,3.03-5.3-3.03,5.3-3.01Z" fill="#bbbdbf"/>
            <path id="Trazado_227596" data-name="Trazado 227596" d="M140.35,124.31l-5.23,3.06-5.25-3.06,5.25-3.01Z" fill="#bbbdbf"/>
            <path id="Trazado_227597" data-name="Trazado 227597" d="M141.86,132.66l-5.28,3.01-13.18-7.6,5.27-3.08Z" fill="#bbbdbf"/>
            <path id="Trazado_227598" data-name="Trazado 227598" d="M135.37,136.41l-5.24,2.97-13.15-7.59,5.23-3.01Z" fill="#bbbdbf"/>
            <path id="Trazado_227599" data-name="Trazado 227599" d="M128.79,140.19l-5.25,3.05-13.2-7.63,5.3-3.08Z" fill="#bbbdbf"/>
            <path id="Trazado_227600" data-name="Trazado 227600" d="M164.46,129.51l-5.28,2.97-5.26-2.97,5.26-3.08Z" fill="#bbbdbf"/>
            <path id="Trazado_227601" data-name="Trazado 227601" d="M171.02,133.26l-5.2,3.04-5.3-3.04,5.3-3.03Z" fill="#bbbdbf"/>
            <path id="Trazado_227602" data-name="Trazado 227602" d="M177.6,137.08l-5.21,3.05-5.26-3.05,5.26-2.99Z" fill="#bbbdbf"/>
            <path id="Trazado_227603" data-name="Trazado 227603" d="M148.32,128.88l-5.28,3.09-5.24-3.09,5.24-3.04Z" fill="#bbbdbf"/>
            <path id="Trazado_227604" data-name="Trazado 227604" d="M154.9,132.69l-5.28,3.05-5.23-3.05,5.23-2.98Z" fill="#bbbdbf"/>
            <path id="Trazado_227605" data-name="Trazado 227605" d="M161.53,136.55l-5.28,3.06-5.23-3.06,5.23-3.04Z" fill="#bbbdbf"/>
            <path id="Trazado_227606" data-name="Trazado 227606" d="M168.1,140.33l-5.24,3.05-5.3-3.05,5.3-3.03Z" fill="#bbbdbf"/>
            <path id="Trazado_227607" data-name="Trazado 227607" d="M174.7,144.15l-5.24,3.01-5.3-3.01,5.3-3Z" fill="#bbbdbf"/>
            <path id="Trazado_227608" data-name="Trazado 227608" d="M181.28,147.99l-5.26,3.03-5.21-3.03,5.21-3.05Z" fill="#bbbdbf"/>
            <path id="Trazado_227609" data-name="Trazado 227609" d="M187.89,151.76l-5.25,3.03-5.24-3.03,5.24-3.04Z" fill="#bbbdbf"/>
            <path id="Trazado_227610" data-name="Trazado 227610" d="M194.5,155.56l-5.24,3.04-5.25-3.04,5.25-3.01Z" fill="#bbbdbf"/>
            <path id="Trazado_227611" data-name="Trazado 227611" d="M200.88,159.29l-5.23,2.99-5.3-2.99,5.3-3.03Z" fill="#bbbdbf"/>
            <path id="Trazado_227612" data-name="Trazado 227612" d="M207.51,163.06l-5.27,3.04-5.27-3.04,5.27-3.01Z" fill="#bbbdbf"/>
            <path id="Trazado_227613" data-name="Trazado 227613" d="M214.1,166.91l-5.29,3.02-5.25-3.02,5.25-3.02Z" fill="#bbbdbf"/>
            <path id="Trazado_227614" data-name="Trazado 227614" d="M220.71,170.75l-5.26,3.01-5.26-3.01,5.26-3.06Z" fill="#bbbdbf"/>
            <path id="Trazado_227615" data-name="Trazado 227615" d="M227.28,174.48l-5.25,3-5.27-3,5.27-3.02Z" fill="#bbbdbf"/>
            <path id="Trazado_227616" data-name="Trazado 227616" d="M233.88,178.28l-5.25,3.05-5.24-3.05,5.24-2.99Z" fill="#bbbdbf"/>
            <path id="Trazado_227617" data-name="Trazado 227617" d="M142,140.19l-5.29,3.05-5.25-3.05,5.25-3.03Z" fill="#bbbdbf"/>
            <path id="Trazado_227618" data-name="Trazado 227618" d="M148.63,144.01l-5.33,3.03-5.22-3.03,5.22-3.02Z" fill="#bbbdbf"/>
            <path id="Trazado_227619" data-name="Trazado 227619" d="M155.19,147.79l-5.28,3.05-5.23-3.05,5.23-3.04Z" fill="#bbbdbf"/>
            <path id="Trazado_227620" data-name="Trazado 227620" d="M161.75,151.62l-5.24,2.99-5.25-2.99,5.25-3.06Z" fill="#bbbdbf"/>
            <path id="Trazado_227621" data-name="Trazado 227621" d="M168.39,155.41l-5.28,3.02-5.21-3.02,5.21-3.04Z" fill="#bbbdbf"/>
            <path id="Trazado_227622" data-name="Trazado 227622" d="M174.99,159.21l-5.29,3.03-5.24-3.03,5.24-3.02Z" fill="#bbbdbf"/>
            <path id="Trazado_227623" data-name="Trazado 227623" d="M181.56,163.02l-5.22,3.05-5.27-3.05,5.27-3.05Z" fill="#bbbdbf"/>
            <path id="Trazado_227624" data-name="Trazado 227624" d="M187.95,166.71l-5.24,3.04-5.22-3.04,5.22-3.04Z" fill="#bbbdbf"/>
            <path id="Trazado_227625" data-name="Trazado 227625" d="M194.59,170.56l-5.3,3.01-5.27-3.01,5.27-3.07Z" fill="#bbbdbf"/>
            <path id="Trazado_227626" data-name="Trazado 227626" d="M201.16,174.34l-5.25,3.07-5.26-3.07,5.26-3Z" fill="#bbbdbf"/>
            <path id="Trazado_227627" data-name="Trazado 227627" d="M207.77,178.14l-5.27,3.05-5.26-3.05,5.26-3.03Z" fill="#bbbdbf"/>
            <path id="Trazado_227628" data-name="Trazado 227628" d="M214.35,181.94l-5.22,3.04-5.31-3.04,5.31-2.99Z" fill="#bbbdbf"/>
            <path id="Trazado_227629" data-name="Trazado 227629" d="M135.37,144.01l-5.24,3.03-5.27-3.03,5.27-3.02Z" fill="#bbbdbf"/>
            <path id="Trazado_227630" data-name="Trazado 227630" d="M142,147.79l-5.29,3.05-5.25-3.05,5.25-3.04Z" fill="#bbbdbf"/>
            <path id="Trazado_227631" data-name="Trazado 227631" d="M148.63,151.62l-5.33,2.99-5.22-2.99,5.22-3.06Z" fill="#bbbdbf"/>
            <path id="Trazado_227632" data-name="Trazado 227632" d="M155.19,155.41l-5.28,3.02-5.23-3.02,5.23-3.04Z" fill="#bbbdbf"/>
            <path id="Trazado_227633" data-name="Trazado 227633" d="M161.75,159.21l-5.24,3.03-5.25-3.03,5.25-3.02Z" fill="#bbbdbf"/>
            <path id="Trazado_227634" data-name="Trazado 227634" d="M168.39,163.02l-5.28,3.05-5.21-3.05,5.21-3.05Z" fill="#bbbdbf"/>
            <path id="Trazado_227635" data-name="Trazado 227635" d="M174.99,166.87l-5.29,3.02-5.24-3.02,5.24-3.06Z" fill="#bbbdbf"/>
            <path id="Trazado_227636" data-name="Trazado 227636" d="M181.38,170.56l-5.26,3.01-5.26-3.01,5.26-3.07Z" fill="#bbbdbf"/>
            <path id="Trazado_227637" data-name="Trazado 227637" d="M187.95,174.34l-5.24,3.07-5.22-3.07,5.22-3Z" fill="#bbbdbf"/>
            <path id="Trazado_227638" data-name="Trazado 227638" d="M194.59,178.14l-5.3,3.05-5.27-3.05,5.27-3.03Z" fill="#bbbdbf"/>
            <path id="Trazado_227639" data-name="Trazado 227639" d="M201.16,181.94l-5.25,3.04-5.26-3.04,5.26-2.99Z" fill="#bbbdbf"/>
            <path id="Trazado_227640" data-name="Trazado 227640" d="M207.77,185.79l-5.27,3.06-5.26-3.06,5.26-3.03Z" fill="#bbbdbf"/>
            <path id="Trazado_227641" data-name="Trazado 227641" d="M220.95,193.39l-5.27,3-11.86-6.81,5.31-3.03Z" fill="#bbbdbf"/>
            <path id="Trazado_227642" data-name="Trazado 227642" d="M115.64,140.13l-5.19,3.03-6.64-3.82,5.29-3.04Z" fill="#bbbdbf"/>
            <path id="Trazado_227643" data-name="Trazado 227643" d="M128.91,147.74l-5.28,3.07-5.23-3.07,5.23-3.03Z" fill="#bbbdbf"/>
            <path id="Trazado_227644" data-name="Trazado 227644" d="M122.27,143.89l-5.23,3.12-5.26-3.12,5.26-3Z" fill="#bbbdbf"/>
            <path id="Trazado_227645" data-name="Trazado 227645" d="M135.51,151.59l-5.3,3.07-5.23-3.07,5.23-3.05Z" fill="#bbbdbf"/>
            <path id="Trazado_227646" data-name="Trazado 227646" d="M142.12,155.43l-5.31,3.07-5.23-3.07,5.23-3.06Z" fill="#bbbdbf"/>
            <path id="Trazado_227647" data-name="Trazado 227647" d="M194.65,185.73l-5.23,3.03-5.28-3.03,5.28-3.04Z" fill="#bbbdbf"/>
            <path id="Trazado_227648" data-name="Trazado 227648" d="M201.3,189.55l-5.27,3.05-5.28-3.05,5.28-3.05Z" fill="#bbbdbf"/>
            <path id="Trazado_227649" data-name="Trazado 227649" d="M214.47,197.16l-5.25,3.03-11.88-6.84,5.27-3.08Z" fill="#bbbdbf"/>
            <path id="Trazado_227650" data-name="Trazado 227650" d="M227.48,189.62l-5.28,3.02-11.85-6.8,5.28-3.06Z" fill="#bbbdbf"/>
            <path id="Trazado_227651" data-name="Trazado 227651" d="M233.98,185.88l-5.27,3-11.83-6.8,5.26-3.03Z" fill="#bbbdbf"/>
            <path id="Trazado_227652" data-name="Trazado 227652" d="M240.47,182.12l-5.25,3.06-5.27-3.06,5.27-3Z" fill="#bbbdbf"/>
            <path id="Trazado_227653" data-name="Trazado 227653" d="M148.44,136.47l-5.24,2.99-5.27-2.99,5.27-3.08Z" fill="#bbbdbf"/>
            <path id="Trazado_227654" data-name="Trazado 227654" d="M155.08,140.22l-5.31,3.07-5.22-3.07,5.22-2.98Z" fill="#bbbdbf"/>
            <path id="Trazado_227655" data-name="Trazado 227655" d="M161.62,144.06l-5.25,3.07-5.27-3.07,5.27-3Z" fill="#bbbdbf"/>
            <path id="Trazado_227656" data-name="Trazado 227656" d="M168.27,147.87l-5.3,3.05-5.22-3.05,5.22-3.02Z" fill="#bbbdbf"/>
            <path id="Trazado_227657" data-name="Trazado 227657" d="M174.84,151.64l-5.26,3.1-5.25-3.1,5.25-2.99Z" fill="#bbbdbf"/>
            <path id="Trazado_227658" data-name="Trazado 227658" d="M181.48,155.46l-5.26,3.1-5.29-3.1,5.29-3.01Z" fill="#bbbdbf"/>
            <path id="Trazado_227659" data-name="Trazado 227659" d="M188.07,159.34l-5.31,3.03-5.22-3.03,5.22-3.08Z" fill="#bbbdbf"/>
            <path id="Trazado_227660" data-name="Trazado 227660" d="M194.46,162.98l-5.3,3.09-5.23-3.09,5.23-3.01Z" fill="#bbbdbf"/>
            <path id="Trazado_227661" data-name="Trazado 227661" d="M201.02,166.8l-5.25,3.03-5.24-3.03,5.24-2.99Z" fill="#bbbdbf"/>
            <path id="Trazado_227662" data-name="Trazado 227662" d="M207.67,170.61l-5.31,3.04-5.24-3.04,5.24-3.07Z" fill="#bbbdbf"/>
            <path id="Trazado_227663" data-name="Trazado 227663" d="M214.21,174.42l-5.26,3.04-5.25-3.04,5.25-3.06Z" fill="#bbbdbf"/>
            <path id="Trazado_227664" data-name="Trazado 227664" d="M220.85,178.25l-5.3,3.02-5.24-3.02,5.24-3.06Z" fill="#bbbdbf"/>
            <path id="Trazado_227665" data-name="Trazado 227665" d="M187.53,142.8l-5.25,3.05L177,142.8l5.28-3.02Z" fill="#bbbdbf"/>
            <path id="Trazado_227666" data-name="Trazado 227666" d="M194.13,146.62l-5.25,3.05-5.26-3.05,5.26-3.02Z" fill="#bbbdbf"/>
            <path id="Trazado_227667" data-name="Trazado 227667" d="M200.72,150.39l-5.24,3.08-5.29-3.08,5.29-2.99Z" fill="#bbbdbf"/>
            <path id="Trazado_227668" data-name="Trazado 227668" d="M207.31,154.25l-5.24,3.04-5.29-3.04,5.29-3.04Z" fill="#bbbdbf"/>
            <path id="Trazado_227669" data-name="Trazado 227669" d="M217.2,159.97l-5.24,3.01-5.25-3.01,5.25-3.07Z" fill="#bbbdbf"/>
            <path id="Trazado_227670" data-name="Trazado 227670" d="M223.81,163.77l-5.25,3.03-5.25-3.03,5.25-3.07Z" fill="#bbbdbf"/>
            <path id="Trazado_227671" data-name="Trazado 227671" d="M230.37,167.54l-5.23,3.07-5.28-3.07,5.28-3.04Z" fill="#bbbdbf"/>
            <path id="Trazado_227672" data-name="Trazado 227672" d="M237.02,171.36l-5.31,3.06-5.24-3.06,5.24-3Z" fill="#bbbdbf"/>
            <path id="Trazado_227673" data-name="Trazado 227673" d="M248.07,177.76l-5.26,3.02-9.65-5.59,5.22-3.03Z" fill="#bbbdbf"/>
            <path id="Trazado_227674" data-name="Trazado 227674" d="M170.98,181.27l-16.11,9.26-34.14-19.71,16.12-9.29Z" fill="#bbbdbf"/>
            <path id="Trazado_227675" data-name="Trazado 227675" d="M98.32,153.38l-4.73,2.73-4.95-2.84,4.71-2.74Z" fill="#ea5c44"/>
            <path id="Trazado_227676" data-name="Trazado 227676" d="M92.37,149.97l-4.71,2.72-4.93-2.84,4.68-2.72Z" fill="#8cd4ff"/>
          </g>
          <g id="Grupo_62570" data-name="Grupo 62570">
            <path id="Trazado_227677" data-name="Trazado 227677" d="M152.74,22.28a1.58,1.58,0,0,1,1.45.1L266.26,87.13a4.34,4.34,0,0,1,2.06,3.53v79.5a1.37,1.37,0,0,1-.58,1.3v.06l-3.33,1.88-.74-3.57L154.19,106.67a4.4,4.4,0,0,1-2-3.53V26.92l-.66.54-2.2-3.18,3.36-2Z" fill="#383838"/>
            <path id="Trazado_227678" data-name="Trazado 227678" d="M150.8,24.35l112.12,64.7a4.52,4.52,0,0,1,2,3.55v79.54c0,1.26-.89,1.82-2,1.19L150.8,108.59a4.52,4.52,0,0,1-2-3.5l.05-79.55C148.86,24.21,149.7,23.67,150.8,24.35Z" fill="#575757"/>
            <path id="Trazado_227679" data-name="Trazado 227679" d="M155.73,98.02l104.33,60.2v1.98L153.93,98.93V31.84l1.8,1.05Z" fill="#121214"/>
            <path id="Trazado_227680" data-name="Trazado 227680" d="M260.06,158.22,155.73,98.02V32.89L260.11,93.11Z" fill="#295e86"/>
            <path id="Trazado_227681" data-name="Trazado 227681" d="M179.89,120.82l-25.96-15.01v-2.87l25.96,14.96Z" fill="#d0d2d3"/>
          </g>
          <g id="Grupo_62573" data-name="Grupo 62573">
            <path id="Trazado_227682" data-name="Trazado 227682" d="M260.06,146.38,155.73,86.18v-.13l104.38,60.21Z" fill="#fff"/>
            <path id="Trazado_227683" data-name="Trazado 227683" d="M260.06,97.78,155.73,37.57v-.13L260.11,97.65Z" fill="#fff"/>
            <path id="Trazado_227684" data-name="Trazado 227684" d="M156.78,55.52v-.58l-.42-.25v.58l-.62-.35V70.55l.62.36v1.16l.42.24V71.15l.63.36V55.88Z" fill="#8cd4ff"/>
            <path id="Trazado_227685" data-name="Trazado 227685" d="M159.07,43.3l-.63-.36v-.58l-.41-.24v.58l-.62-.36V58.91l.62.36v.37l.41.24v-.37l.63.36Z" fill="#8cd4ff"/>
            <path id="Trazado_227686" data-name="Trazado 227686" d="M162.39,42.24l-1.66-.96v6.81l.63.36v6.93l.41.24V48.68l.62.37Z" fill="#8cd4ff"/>
            <path id="Trazado_227687" data-name="Trazado 227687" d="M174.04,67.48l-1.67-.96v8.59l.63.36v1.66l.41.25V75.72l.63.35Z" fill="#ea5c44"/>
            <path id="Trazado_227688" data-name="Trazado 227688" d="M169.05,44.72l-1.66-.95V59.2l.62.35v4.91l.41.24V59.79l.63.36Z" fill="#8cd4ff"/>
            <path id="Trazado_227689" data-name="Trazado 227689" d="M160.73,39.24l-.63-.35V36.78l-.41-.24v2.11l-.62-.36V54.86l.62.36v1.6l.41.23V55.46l.63.36Z" fill="#ea5c44"/>
            <path id="Trazado_227690" data-name="Trazado 227690" d="M202.31,78.55l-.62-.36v-.57l-.42-.24v.57l-.62-.36v17.3l.62.36v.87l.42.24v-.87l.62.37Z" fill="#ea5c44"/>
            <path id="Trazado_227691" data-name="Trazado 227691" d="M164.06,45.3l-.63-.36v-.69l-.41-.23v.68l-.63-.36V47.7l.63.36V52.5l.41.24V48.3l.63.36Z" fill="#ea5c44"/>
            <path id="Trazado_227692" data-name="Trazado 227692" d="M165.72,49.62l-.63-.36v-.68l-.41-.24v.68l-.62-.36v3.82l.62.36v6.85l.41.24V53.08l.63.36Z" fill="#ea5c44"/>
            <path id="Trazado_227693" data-name="Trazado 227693" d="M175.7,77.04l-.63-.37v-.68l-.41-.25v.7l-.62-.37V78.5l.62.36v4.79l.41.24V79.1l.63.36Z" fill="#ea5c44"/>
            <path id="Trazado_227694" data-name="Trazado 227694" d="M180.69,77.22l-.62-.36V72.41l-.42-.24v4.45l-.62-.36v4.79l.62.35v.68l.42.24v-.68l.62.36Z" fill="#ea5c44"/>
            <path id="Trazado_227695" data-name="Trazado 227695" d="M190.67,88.11l-.63-.36V86.69l-.41-.24v1.06l-.63-.36v4.31l.63.36v3.92l.41.24V92.06l.63.36Z" fill="#ea5c44"/>
            <path id="Trazado_227696" data-name="Trazado 227696" d="M203.97,96.64l-.62-.36V92.89l-.42-.25v3.4l-.62-.36v2.74l.62.36v1.77l.42.24V99.02l.62.36Z" fill="#ea5c44"/>
            <path id="Trazado_227697" data-name="Trazado 227697" d="M212.28,76.74l-.62-.36V73.51l-.41-.24v2.87l-.62-.36v1.48l.62.36v5.99l.41.24v-6l.62.36Z" fill="#ea5c44"/>
            <path id="Trazado_227698" data-name="Trazado 227698" d="M213.95,78.84l-.62-.36v-.31l-.42-.24v.31l-.63-.36v7.79l.63.36V89.5l.42.24V86.28l.62.36Z" fill="#ea5c44"/>
            <path id="Trazado_227699" data-name="Trazado 227699" d="M215.62,90.83l-.62-.36V88.78l-.42-.24v1.69l-.63-.36v10.66l.63.36v.59l.42.25v-.59l.62.36Z" fill="#ea5c44"/>
            <path id="Trazado_227700" data-name="Trazado 227700" d="M217.28,104.89l-.63-.36v-2.67l-.41-.24v2.67l-.62-.36v5.4l.62.36v5.85l.41.24v-5.85l.63.36Z" fill="#ea5c44"/>
            <path id="Trazado_227701" data-name="Trazado 227701" d="M255.53,111.14l-.62-.36v-2.67l-.42-.24v2.67l-.62-.36v5.4l.62.36v5.85l.42.24v-5.85l.62.36Z" fill="#ea5c44"/>
            <path id="Trazado_227702" data-name="Trazado 227702" d="M227.26,106.11l-.63-.37v-2.66l-.41-.24v2.66l-.63-.36v5.41l.63.36v1.53l.41.25v-1.54l.62.36Z" fill="#ea5c44"/>
            <path id="Trazado_227703" data-name="Trazado 227703" d="M243.89,122.63l-.63-.36v-2.66l-.41-.25v2.67l-.62-.36v6.17l.62.36v3.27l.41.24v-3.27l.63.36Z" fill="#ea5c44"/>
            <path id="Trazado_227704" data-name="Trazado 227704" d="M245.55,126.18l-.62-.35v-6.48l-.42-.24v6.47l-.62-.36v2.27l.62.36v1.35l.42.23v-1.34l.62.36Z" fill="#ea5c44"/>
            <path id="Trazado_227705" data-name="Trazado 227705" d="M242.23,116.47l-1.67-.96v3.84l.63.36v3.76l.41.23v-3.75l.63.36Z" fill="#ea5c44"/>
            <path id="Trazado_227706" data-name="Trazado 227706" d="M220.6,113l-.62-.37v-.52l-.41-.24v.52l-.63-.36v6.41l.63.36v7.5l.41.25v-7.51l.62.36Z" fill="#ea5c44"/>
            <path id="Trazado_227707" data-name="Trazado 227707" d="M232.25,119.53l-.63-.37v-1.48l-.41-.24v1.49l-.63-.37v18.99l.63.36v.46l.41.24v-.45l.63.35Z" fill="#ea5c44"/>
            <path id="Trazado_227708" data-name="Trazado 227708" d="M218.94,109.36l-.63-.35v-3.93l-.41-.24v3.92l-.62-.35v2.97l.62.36v1.49l.41.24v-1.49l.63.36Z" fill="#8cd4ff"/>
            <path id="Trazado_227709" data-name="Trazado 227709" d="M233.91,132.61l-.62-.36v-2.61l-.42-.24v2.62l-.62-.37v2.98l.62.36v2.66l.42.24v-2.66l.62.36Z" fill="#8cd4ff"/>
            <path id="Trazado_227710" data-name="Trazado 227710" d="M228.92,126.01l.62.37v8.32l.42.24v-8.33l.62.36v-8.14l-.62-.36v-.6l-.42-.24v.6l-.62-.36Z" fill="#8cd4ff"/>
            <path id="Trazado_227711" data-name="Trazado 227711" d="M225.59,106.81l-.62-.36v-2.76l-.42-.25v2.77l-.62-.36v1.14l.62.36v7.68l.42.25v-7.69l.62.36Z" fill="#8cd4ff"/>
            <path id="Trazado_227712" data-name="Trazado 227712" d="M237.24,119.52l-.63-.36v-3.02l-.42-.24v3.02l-.62-.36v1.95l.62.36v3.21l.42.24v-3.21l.63.36Z" fill="#8cd4ff"/>
            <path id="Trazado_227713" data-name="Trazado 227713" d="M258.86,99.71l-.62-.36V96.33l-.42-.24v3.02l-.62-.36v1.95l.62.36v3.21l.42.24V101.3l.62.36Z" fill="#8cd4ff"/>
            <path id="Trazado_227714" data-name="Trazado 227714" d="M238.9,117.88l-.62-.36v-1.66l-.42-.24v1.66l-.62-.36v2.77l.62.36v4.18l.42.25v-4.19l.62.36Z" fill="#8cd4ff"/>
            <path id="Trazado_227715" data-name="Trazado 227715" d="M240.56,113.84l-.62-.36v-2.54l-.42-.23v2.53l-.62-.36v3.7l.62.36v1.5l.42.24v-1.49l.62.36Z" fill="#8cd4ff"/>
            <path id="Trazado_227716" data-name="Trazado 227716" d="M260.11,98.73l-.21-.13V96.07l-.41-.24v2.54l-.63-.36v3.71l.63.35v1.5l.41.24v-1.5l.21.13Z" fill="#8cd4ff"/>
            <path id="Trazado_227717" data-name="Trazado 227717" d="M223.93,106.64l-.62-.36v-1.97l-.42-.24v1.97l-.63-.36v5.83l1.67.96Z" fill="#8cd4ff"/>
            <path id="Trazado_227718" data-name="Trazado 227718" d="M248.88,100.33l-.62-.36V98l-.42-.24v1.97l-.63-.36v5.83l1.67.96Z" fill="#8cd4ff"/>
            <path id="Trazado_227719" data-name="Trazado 227719" d="M250.54,100.3l-.62-.36v-.31l-.41-.24v.32l-.63-.36v7.78l.63.36v3.47l.41.24v-3.47l.62.36Z" fill="#ea5c44"/>
            <path id="Trazado_227720" data-name="Trazado 227720" d="M235.57,119.92l-.62-.36v-.35l-.42-.24v.35l-.62-.36v11.62l1.66.96Z" fill="#8cd4ff"/>
            <path id="Trazado_227721" data-name="Trazado 227721" d="M227.26,112.42l.62.36v5.15l.42.24v-5.14l.62.36V101.97l-1.67-.96Z" fill="#8cd4ff"/>
            <path id="Trazado_227722" data-name="Trazado 227722" d="M222.26,116.98l-.62-.36v-8.5l-.41-.24v8.5l-.63-.36v.74l.63.36v1.98l.41.24v-1.98l.62.36Z" fill="#8cd4ff"/>
            <path id="Trazado_227723" data-name="Trazado 227723" d="M252.21,107.44l-.63-.36v-8.5l-.41-.24v8.5l-.63-.36v.74l.63.36v1.98l.41.24v-1.98l.63.36Z" fill="#8cd4ff"/>
            <path id="Trazado_227724" data-name="Trazado 227724" d="M205.63,99.47l-.62-.36V97.56l-.41-.23v1.54l-.63-.36v2.73l.63.36v5.23l.41.24v-5.23l.62.36Z" fill="#ea5c44"/>
            <path id="Trazado_227725" data-name="Trazado 227725" d="M207.29,99.57l-.62-.36v-.68l-.41-.24v.68l-.63-.36v4.5l.63.36v4.02l.41.24v-4.02l.62.36Z" fill="#ea5c44"/>
            <path id="Trazado_227726" data-name="Trazado 227726" d="M253.87,106.79l-.62-.35v-.69l-.42-.24v.68l-.62-.36v4.51l.62.36v4.01l.42.25v-4.03l.62.37Z" fill="#ea5c44"/>
            <path id="Trazado_227727" data-name="Trazado 227727" d="M192.33,94.57l-1.66-.96v9.17l.62.36v2.58l.42.24v-2.57l.62.35Z" fill="#ea5c44"/>
            <path id="Trazado_227728" data-name="Trazado 227728" d="M189,84.09l-.62-.37V81.43l-.41-.23v2.29l-.63-.36v7.5l1.66.96Z" fill="#ea5c44"/>
            <path id="Trazado_227729" data-name="Trazado 227729" d="M177.37,82.48l-.63-.36V75.95l-.41-.23v6.16l-.63-.36v5.13l.63.36V91.4l.41.24v-4.4l.63.37Z" fill="#ea5c44"/>
            <path id="Trazado_227730" data-name="Trazado 227730" d="M179.03,77.68l-.62-.36V74.34l-.42-.24v2.97l-.62-.35v8.9l.62.36v1.66l.42.24V86.22l.62.36Z" fill="#8cd4ff"/>
            <path id="Trazado_227731" data-name="Trazado 227731" d="M184.01,77.76l-.62-.36V66.93l-.42-.24V77.16l-.62-.36v1.67l.62.36v1.1l.42.24v-1.1l.62.36Z" fill="#8cd4ff"/>
            <path id="Trazado_227732" data-name="Trazado 227732" d="M187.34,79.02l-.63-.36V76.9l-.4-.24v1.75l-.64-.36v4.66l.64.36v3.35l.4.24V83.31l.63.36Z" fill="#8cd4ff"/>
            <path id="Trazado_227733" data-name="Trazado 227733" d="M197.32,86.11l-.62-.36V77.89l-.42-.24v7.86l-.62-.36V88.9l.62.36v4.36l.42.24V89.5l.62.36Z" fill="#8cd4ff"/>
            <path id="Trazado_227734" data-name="Trazado 227734" d="M198.98,80.91l-.62-.36V79.18l-.41-.24v1.37l-.63-.36v6.63l.63.35v1.09l.41.23V87.18l.62.36Z" fill="#8cd4ff"/>
            <path id="Trazado_227735" data-name="Trazado 227735" d="M208.96,92.06l-.62-.36V89.48l-.41-.24v2.22l-.64-.36v10.15l.64.36v1.09l.41.23v-1.08l.62.36Z" fill="#8cd4ff"/>
            <path id="Trazado_227736" data-name="Trazado 227736" d="M257.2,100.32l-.63-.36V97.74l-.41-.23v2.21l-.63-.35v10.15l.63.36v1.08l.41.24v-1.08l.63.36Z" fill="#8cd4ff"/>
            <path id="Trazado_227737" data-name="Trazado 227737" d="M210.63,76.96,210,76.6V75.41l-.42-.23v1.18l-.62-.36V91.22l.62.36v1.47l.42.24V91.82l.63.36Z" fill="#8cd4ff"/>
            <path id="Trazado_227738" data-name="Trazado 227738" d="M247.21,105.2l-.62-.36v-1.19l-.42-.23v1.18l-.62-.36v15.22l.62.36v1.47l.42.24v-1.47l.62.36Z" fill="#8cd4ff"/>
            <path id="Trazado_227739" data-name="Trazado 227739" d="M200.65,78.43l-.63-.35v-.95l-.41-.24v.94l-.63-.36v2.38l.63.36v4.81l.41.24V80.45l.63.36Z" fill="#8cd4ff"/>
            <path id="Trazado_227740" data-name="Trazado 227740" d="M193.99,97.63l-.62-.36V96.03l-.42-.24v1.24l-.62-.36v6.8l1.66.96Z" fill="#8cd4ff"/>
            <path id="Trazado_227741" data-name="Trazado 227741" d="M195.66,91.82l-.63-.36V86.17l-.41-.23v5.28l-.63-.36v4.25l1.67.96Z" fill="#8cd4ff"/>
            <path id="Trazado_227742" data-name="Trazado 227742" d="M185.67,79.74l-.62-.36v-.87l-.42-.24v.86l-.62-.36v1.68l.62.36V95.52l.42.24V81.05l.62.35Z" fill="#ea5c44"/>
            <path id="Trazado_227743" data-name="Trazado 227743" d="M182.35,80.59l-1.66-.96V82.3l.62.36v8.48l.42.24V82.9l.62.36Z" fill="#8cd4ff"/>
            <path id="Trazado_227744" data-name="Trazado 227744" d="M167.39,51.96l-.63-.36V50.24l-.41-.24v1.36l-.63-.37v7.89l.63.36v5.54l.41.24V59.48l.63.36Z" fill="#ea5c44"/>
            <path id="Trazado_227745" data-name="Trazado 227745" d="M170.71,45.99l-.62-.36V44.28l-.42-.24v1.35l-.62-.36v7.88l.62.37v5.54l.42.23V53.52l.62.36Z" fill="#ea5c44"/>
            <path id="Trazado_227746" data-name="Trazado 227746" d="M172.37,63.09l-.62-.36V51.84l-.41-.24V62.48l-.63-.35v3.43l.63.36V76.6l.41.24V66.16l.62.36Z" fill="#ea5c44"/>
            <g id="Grupo_62571" data-name="Grupo 62571">
              <path id="Trazado_227747" data-name="Trazado 227747" d="M251.9,96.56l-14.05-8.1V86.05l14.05,8.09,1.18,1.9Z" fill="#8cd4ff"/>
              <path id="Trazado_227748" data-name="Trazado 227748" d="M247,93.06l-7.98-4.61V87.39l7.98,4.6Z" fill="#fff"/>
            </g>
            <g id="Grupo_62572" data-name="Grupo 62572">
              <path id="Trazado_227749" data-name="Trazado 227749" d="M225.5,136.06l-14.04-8.11.01-2.41,14.04,8.1,1.18,1.9Z" fill="#ea5c44"/>
              <path id="Trazado_227750" data-name="Trazado 227750" d="M220.6,132.55l-7.97-4.6.01-1.06,7.96,4.6Z" fill="#fff"/>
            </g>
          </g>
        </g>
        <g id="Grupo_62579" data-name="Grupo 62579">
          <g id="Grupo_62575" data-name="Grupo 62575">
            <path id="Trazado_227751" data-name="Trazado 227751" d="M73.19,179.93c-12.46,7.19-32.67,7.19-45.13,0s-12.47-18.87,0-26.06,32.67-7.21,45.13,0S85.65,172.73,73.19,179.93Z" opacity="0.3"/>
            <path id="Trazado_227752" data-name="Trazado 227752" d="M82.55,162.63l-63.84.2v1.5h0c0,4.71,3.11,9.43,9.35,13,12.46,7.2,32.67,7.2,45.13,0,6.24-3.6,9.36-8.32,9.36-13h0Z" fill="#b3c9ec"/>
            <path id="Trazado_227753" data-name="Trazado 227753" d="M73.19,175.77c-12.46,7.19-32.67,7.19-45.13,0s-12.47-18.87,0-26.07,32.67-7.2,45.13,0S85.65,168.57,73.19,175.77Z" fill="#fff"/>
            <path id="Trazado_227754" data-name="Trazado 227754" d="M74.66,162.88c-.19-3.4-2.54-6.76-7-9.36-9.39-5.42-24.61-5.42-34,0-4.5,2.6-6.85,6-7,9.36-.21-3.69,2.13-7.44,7-10.26,9.39-5.43,24.61-5.43,34,0C72.51,155.44,74.87,159.19,74.66,162.88Z" fill="#b3c9ec"/>
            <path id="Trazado_227755" data-name="Trazado 227755" d="M74.66,162.88c-.19,3.4-2.54,6.77-7,9.37-9.39,5.42-24.61,5.42-34,0-4.5-2.6-6.85-6-7-9.37.18-3.4,2.53-6.76,7-9.36,9.39-5.42,24.61-5.42,34,0C72.12,156.12,74.47,159.48,74.66,162.88Z" fill="#fff"/>
          </g>
          <g id="Grupo_62578" data-name="Grupo 62578">
            <path id="Trazado_227756" data-name="Trazado 227756" d="M37.52,170.11c7.3,4.22,19.15,4.22,26.45,0s7.3-11.05,0-15.27-19.15-4.21-26.45,0S30.22,165.89,37.52,170.11Z" opacity="0.3"/>
            <g id="Grupo_62576" data-name="Grupo 62576">
              <path id="Trazado_227757" data-name="Trazado 227757" d="M32.13,159.91h3.93l-1.12-1.65c-.06,0-6,.74-8.65-1A2.51,2.51,0,0,1,25.07,155c0-1.42.3-3.25,1.7-3.86s4.7.43,5.51.83l.28-1.47c-.16-.08-3.9-1.88-6.7-.67-1.8.77-2.7,2.51-2.7,5.17a3.85,3.85,0,0,0,1.89,3.36C26.94,159.63,29.89,159.91,32.13,159.91Z" fill="#fff"/>
              <path id="Trazado_227758" data-name="Trazado 227758" d="M32.13,161.31h3.93l-1.12-1.65c-.06,0-6,.74-8.65-1a2.53,2.53,0,0,1-1.22-2.23c0-1.42.3-3.24,1.7-3.85s5,.53,5.8.92v-1.56c-.16-.08-3.9-1.89-6.7-.67-1.8.77-2.7,2.5-2.7,5.16a3.83,3.83,0,0,0,1.89,3.36C26.94,161,29.89,161.31,32.13,161.31Z" fill="#d9e4f7"/>
            </g>
            <g id="Grupo_62577" data-name="Grupo 62577">
              <path id="Trazado_227759" data-name="Trazado 227759" d="M32.05,149.59c0,10.63,8.37,19.26,18.69,19.26s18.71-8.63,18.71-19.26Z" fill="#d9e4f7"/>
              <path id="Trazado_227760" data-name="Trazado 227760" d="M37.52,157.07c7.3,4.22,19.15,4.22,26.45,0s7.3-11,0-15.27-19.15-4.22-26.45,0S30.22,152.86,37.52,157.07Z" fill="#fff"/>
              <path id="Trazado_227761" data-name="Trazado 227761" d="M34.34,151.56a9.85,9.85,0,0,1,4.51-4.75c6.57-3.79,17.22-3.79,23.79,0a9.85,9.85,0,0,1,4.51,4.75c1.22-3.15-.29-6.56-4.51-9-6.57-3.78-17.22-3.78-23.79,0C34.63,145,33.12,148.41,34.34,151.56Z" fill="#b3c9ec"/>
              <path id="Trazado_227762" data-name="Trazado 227762" d="M34.34,151.56a9.86,9.86,0,0,0,4.51,4.73c6.57,3.79,17.22,3.79,23.79,0a9.86,9.86,0,0,0,4.51-4.73A50,50,0,0,0,62,147.9a22.32,22.32,0,0,0-21.8-.14C37.8,149.11,34.34,151.56,34.34,151.56Z" fill="#572b26"/>
              <path id="Trazado_227763" data-name="Trazado 227763" d="M62.64,146.81c-6.57-3.79-17.22-3.79-23.79,0a9.85,9.85,0,0,0-4.51,4.75c.24.62,1.25,3.32,5.79,5.4-4.57-3.39-2.65-6.61-.54-7.9,5.81-3.53,14-3.63,20.15-1.15-4.26-.83-9.15-.27-12.54,1.69-4.31,2.49-4.72,6.38-1.22,9.14a28.94,28.94,0,0,0,4.76.4,24.41,24.41,0,0,0,11.9-2.85,11.31,11.31,0,0,0,3.6-3.09h0l.09-.13v-.06l.17-.26v-.05l.16-.27h0a6.82,6.82,0,0,0,.41-.87A9.85,9.85,0,0,0,62.64,146.81Zm-1.31,4.72c.15.08.15.22,0,.3a.57.57,0,0,1-.51,0c-.15-.08-.15-.22,0-.3a.57.57,0,0,1,.51,0Zm-1-1.44a.38.38,0,0,1,.36,0c.1.06.1.15,0,.21a.45.45,0,0,1-.36,0,.12.12,0,0,1,0-.21Zm-.08.95a.59.59,0,0,1,.52,0c.14.09.14.22,0,.3a.53.53,0,0,1-.52,0c-.14-.08-.14-.21,0-.34Zm-.16,1.05a.36.36,0,0,1,.35,0c.1.06.1.15,0,.21a.43.43,0,0,1-.35,0,.115.115,0,0,1,0-.21ZM47.8,155.22a.25.25,0,0,1,0-.48.87.87,0,0,1,.83,0c.24.13.24.35,0,.48a.93.93,0,0,1-.83,0Zm.52.67a.59.59,0,0,1-.52,0,.15.15,0,0,1,0-.29.53.53,0,0,1,.52,0,.15.15,0,0,1,0,.29Zm-3-2.4c-.18-.11-.18-.28,0-.38a.7.7,0,0,1,.66,0c.18.1.18.27,0,.38a.76.76,0,0,1-.69,0Zm0,1.25a.38.38,0,0,1-.36,0,.12.12,0,0,1,0-.21.45.45,0,0,1,.36,0,.12.12,0,0,1,.01.21Zm.58-.21a.43.43,0,0,1,.35,0c.1.06.1.15,0,.21a.36.36,0,0,1-.35,0c-.09-.06-.09-.15.01-.21Zm.35.76a1,1,0,0,1,.84,0,.25.25,0,0,1,0,.48.89.89,0,0,1-.84,0,.25.25,0,0,1,.01-.48Zm.1-1.2c-.18-.1-.18-.27,0-.38a.68.68,0,0,1,.65,0c.19.11.19.28,0,.38a.68.68,0,0,1-.64,0Zm0-1.53a.38.38,0,0,1,.36,0c.09.05.09.14,0,.2a.45.45,0,0,1-.36,0,.134.134,0,0,1,.05-.2Zm.7.69a.36.36,0,0,1-.35,0c-.1-.05-.1-.14,0-.2a.36.36,0,0,1,.35,0c.15.06.15.15.05.2ZM46.87,152c-.1-.06-.1-.15,0-.21a.43.43,0,0,1,.35,0c.1.06.1.15,0,.21a.36.36,0,0,1-.35,0Zm1-.69a.53.53,0,0,1-.52,0c-.14-.07-.14-.21,0-.29a.59.59,0,0,1,.52,0,.147.147,0,0,1,.02.27Zm0,.86a.38.38,0,0,1-.36,0c-.1-.06-.1-.15,0-.21a.45.45,0,0,1,.36,0c.13.04.13.13.05.19Zm-.55.47a.53.53,0,0,1,.52,0c.14.07.14.21,0,.29a.59.59,0,0,1-.52,0,.185.185,0,0,1,.05-.31Zm.19,1.45a.38.38,0,0,1,.36,0,.1.1,0,1,1,0,.2.38.38,0,0,1-.36,0,.113.113,0,0,1,.05-.22Zm3.35-3.92a.15.15,0,0,1,0,.29.53.53,0,0,1-.52,0,.15.15,0,0,1,0-.29.53.53,0,0,1,.57-.02Zm-.44-.5a.38.38,0,0,1,.36,0c.1,0,.1.14,0,.2a.38.38,0,0,1-.36,0,.152.152,0,0,1,.05-.22Zm-.76,3a.93.93,0,0,1,.83,0,.26.26,0,0,1,0,.49.93.93,0,0,1-.83,0,.3.3,0,0,1,.05-.53Zm0,2.29a.36.36,0,0,1,.35,0,.1.1,0,1,1,0,.2.36.36,0,0,1-.35,0,.122.122,0,1,1,.04-.24Zm-.71.46a.59.59,0,0,1,.52,0,.16.16,0,0,1,0,.3.59.59,0,0,1-.52,0,.172.172,0,1,1,.05-.34Zm-.54-1.12a.15.15,0,0,1,0-.29.53.53,0,0,1,.52,0,.15.15,0,0,1,0,.29.59.59,0,0,1-.48-.04Zm1.84-2.32a.16.16,0,0,1,0-.3.59.59,0,0,1,.52,0c.15.08.15.22,0,.3a.59.59,0,0,1-.48-.04Zm.22-1.29a.24.24,0,0,1,0,.45.83.83,0,0,1-.78,0,.24.24,0,0,1,0-.45.89.89,0,0,1,.82-.04Zm-.76,1.1c.1.05.1.14,0,.2a.43.43,0,0,1-.35,0c-.09-.06-.09-.15,0-.2a.36.36,0,0,1,.39-.04Zm-.24,1.78a.12.12,0,0,1,0,.21.45.45,0,0,1-.36,0c-.1-.06-.1-.15,0-.21a.45.45,0,0,1,.4-.04Zm-.65-2.14c.18.1.18.27,0,.38a.7.7,0,0,1-.66,0c-.18-.11-.18-.28,0-.38a.7.7,0,0,1,.7-.04Zm-.27-.66a.36.36,0,0,1,.35,0c.1.05.1.14,0,.2a.36.36,0,0,1-.35,0c-.06-.1-.06-.19.04-.24Zm.55,1.32c.15.09.15.22,0,.31a.67.67,0,0,1-.52,0,.17.17,0,0,1,0-.31.59.59,0,0,1,.56-.04Zm-.94.82a1,1,0,0,1,.87,0c.23.13.23.35,0,.49a1,1,0,0,1-.87,0,.327.327,0,0,1,.04-.53Zm.42,3.14a.67.67,0,0,1,.52,0c.15.09.15.23,0,.3a.53.53,0,0,1-.52,0,.217.217,0,0,1,.04-.35Zm.65.57a.67.67,0,0,1,.52,0c.14.09.14.22,0,.3a.53.53,0,0,1-.52,0,.207.207,0,0,1,.04-.34Zm.67-.72a.87.87,0,0,1,.83,0c.23.13.23.34,0,.48a.87.87,0,0,1-.83,0c-.2-.18-.2-.38.04-.52Zm-.07-1.47c-.27-.15-.27-.4,0-.56a1.1,1.1,0,0,1,1,0c.27.16.27.41,0,.56a1,1,0,0,1-.96-.04ZM51,152.5c-.19-.1-.19-.27,0-.38a.76.76,0,0,1,.66,0c.18.11.18.28,0,.38A.7.7,0,0,1,51,152.5Zm.39-2c-.14-.08-.14-.21,0-.3a.59.59,0,0,1,.52,0,.16.16,0,0,1,0,.3.59.59,0,0,1-.56.02Zm.4,1.24a.3.3,0,0,1-.29,0c-.07,0-.07-.12,0-.16a.37.37,0,0,1,.29,0,.132.132,0,0,1-.04.18Zm-.13-.77c.13.07.13.18,0,.25a.47.47,0,0,1-.43,0,.13.13,0,0,1,0-.25.47.47,0,0,1,.39.03Zm-.36,2.15a.52.52,0,0,1,.51,0c.15.08.15.21,0,.29a.52.52,0,0,1-.51,0c-.19-.06-.19-.19-.04-.27Zm0,1.51a.36.36,0,0,1,.35,0,.11.11,0,0,1,0,.2.36.36,0,0,1-.35,0,.1.1,0,0,1-.01-.18Zm.05,1.44a.59.59,0,0,1,.52,0c.14.09.14.22,0,.3a.53.53,0,0,1-.52,0c-.15-.06-.15-.19-.01-.28Zm.69-3.26a.43.43,0,0,1,.35,0c.11.06.11.15,0,.2a.36.36,0,0,1-.35,0c-.11-.01-.11-.12-.04-.18Zm7.47-1.38a.3.3,0,0,1,0,.56,1.06,1.06,0,0,1-1,0,.3.3,0,0,1,0-.56,1.06,1.06,0,0,1,.99.02Zm0-.52a.36.36,0,0,1,.35,0c.1,0,.1.14,0,.2a.36.36,0,0,1-.35,0c-.09-.04-.09-.11.01-.18Zm-1-.39a.53.53,0,0,1,.52,0c.14.08.14.21,0,.3a.59.59,0,0,1-.52,0c-.18-.07-.18-.2-.03-.28ZM59,150a.64.64,0,0,1-.6,0,.18.18,0,0,1,0-.34.64.64,0,0,1,.6,0,.18.18,0,0,1,0,.34Zm-.37,3a.18.18,0,0,1,0,.34.64.64,0,0,1-.6,0,.18.18,0,0,1,0-.34.7.7,0,0,1,.6,0Zm-.7-1.26a.64.64,0,0,1-.6,0c-.16-.09-.16-.24,0-.34a.64.64,0,0,1,.6,0c.16.08.16.23,0,.32Zm-5,1.3c-.15-.08-.15-.21,0-.3a.57.57,0,0,1,.51,0c.15.09.15.22,0,.3a.52.52,0,0,1-.51-.04Zm.18,1a.89.89,0,0,1-.84,0,.25.25,0,0,1,0-.48,1,1,0,0,1,.84,0,.25.25,0,0,1,0,.44Zm-.77-1.82c-.27-.15-.27-.4,0-.55a1,1,0,0,1,1,0c.27.15.27.4,0,.55a1,1,0,0,1-1-.06Zm1.28.14a.36.36,0,0,1,.35,0c.1,0,.1.14,0,.2a.36.36,0,0,1-.35,0c-.09-.12-.09-.21,0-.26Zm0-1.63a.59.59,0,0,1,.52,0c.15.08.15.22,0,.3a.59.59,0,0,1-.52,0,.18.18,0,1,1,.01-.36Zm.31,2.51a1.12,1.12,0,0,1,1,0,.3.3,0,0,1,0,.56,1.06,1.06,0,0,1-1,0c-.26-.21-.26-.46.01-.62Zm1.59-.87a.16.16,0,0,1,0,.3.59.59,0,0,1-.52,0,.16.16,0,0,1,0-.3.59.59,0,0,1,.53-.06Zm-.26-1.64a.64.64,0,0,1-.6,0c-.16-.09-.16-.24,0-.34a.7.7,0,0,1,.6,0c.18.04.18.19.01.28Zm-.49,3.45a1.1,1.1,0,0,1,1,0c.27.15.27.4,0,.55a1,1,0,0,1-1,0,.305.305,0,1,1,.01-.61Zm1.08-.55a.3.3,0,0,1,0-.56,1.1,1.1,0,0,1,1,0c.27.16.27.41,0,.56a1,1,0,0,1-.99-.06Zm.69-1.46a1,1,0,0,1,1,0,.3.3,0,0,1,0,.56,1.1,1.1,0,0,1-1,0c-.26-.22-.26-.46.01-.62Zm.58,1.35a.64.64,0,0,1,.6,0c.17.1.17.25,0,.35a.7.7,0,0,1-.6,0c-.12-.16-.12-.31.01-.41Zm.45-2.79a.62.62,0,0,1-.59,0c-.17-.09-.17-.24,0-.34a.68.68,0,0,1,.59,0c.18.04.18.19.01.28Zm-.75,1a1.1,1.1,0,0,1-1,0,.3.3,0,0,1,0-.56,1,1,0,0,1,1,0c.28.04.28.29.01.45Zm-1.33-1.91a.85.85,0,0,1-.79,0,.24.24,0,0,1,0-.45.85.85,0,0,1,.79,0,.24.24,0,0,1,.01.34Zm-.35,1.54a.25.25,0,0,1,0,.48.87.87,0,0,1-.83,0c-.24-.13-.24-.35,0-.48a.93.93,0,0,1,.84-.11Zm-.8-1a.43.43,0,0,1-.35,0c-.1-.06-.1-.15,0-.21a.36.36,0,0,1,.35,0c.11-.02.11.07.01.13Zm-.28-.7a.36.36,0,0,1-.35,0c-.1-.06-.1-.15,0-.21a.43.43,0,0,1,.35,0c.11-.02.11.07.01.13Zm-.54.53a.57.57,0,0,1-.51,0c-.14-.09-.14-.22,0-.3a.57.57,0,0,1,.51,0c.16,0,.16.11.01.22Zm-.37-.6a.55.55,0,0,1-.5,0,.16.16,0,0,1,0-.29.55.55,0,0,1,.5,0,.16.16,0,0,1,.01.21Zm-.1,1.18a.23.23,0,0,1,0,.43.79.79,0,0,1-.73,0c-.21-.12-.21-.31,0-.43a.85.85,0,0,1,.74-.08Zm-.58-.57a.36.36,0,0,1-.35,0c-.1-.06-.1-.15,0-.21a.43.43,0,0,1,.35,0c.11.01.11.07.01.13Zm-.28,5a.59.59,0,0,1,.52,0c.15.08.15.22,0,.3a.59.59,0,0,1-.52,0,.165.165,0,0,1,.01-.33Zm.14,1.06a.59.59,0,0,1,.52,0,.15.15,0,0,1,0,.29.53.53,0,0,1-.52,0,.16.16,0,0,1,.01-.32Zm.54-1.47c-.14-.09-.14-.22,0-.3a.59.59,0,0,1,.52,0c.14.08.14.21,0,.3a.59.59,0,0,1-.51-.03Zm.38.91a1.17,1.17,0,0,1,1,0,.31.31,0,0,1,0,.57,1.1,1.1,0,0,1-1,0,.3.3,0,1,1,.01-.6Zm.66,1.13a.59.59,0,0,1,.52,0c.14.08.14.21,0,.3a.59.59,0,0,1-.52,0c-.13-.13-.13-.25.01-.33Zm.51-1.4a.18.18,0,0,1,0-.34.64.64,0,0,1,.6,0,.18.18,0,0,1,0,.34.64.64,0,0,1-.59-.03Zm.38.82a.62.62,0,0,1,.59,0c.17.09.17.24,0,.34a.68.68,0,0,1-.59,0c-.16-.13-.16-.28.01-.37Zm.54.84a.43.43,0,0,1,.35,0,.12.12,0,0,1,0,.22.43.43,0,0,1-.35,0,.125.125,0,0,1,.01-.25Zm.17-1.25c-.27-.15-.27-.4,0-.56a1.1,1.1,0,0,1,1,0c.27.16.27.41,0,.56a1.1,1.1,0,0,1-.99-.03Zm.63-1.55a.19.19,0,0,1,0-.35.64.64,0,0,1,.6,0,.19.19,0,0,1,0,.35.7.7,0,0,1-.59-.03Zm.75.07a1.1,1.1,0,0,1,1,0,.3.3,0,0,1,0,.56,1.1,1.1,0,0,1-1,0c-.26-.19-.26-.44.01-.59ZM58,156a.1.1,0,0,1,0,.2.43.43,0,0,1-.35,0,.11.11,0,0,1,0-.2.36.36,0,0,1,.35,0Zm.08-.7a.36.36,0,0,1,.35,0c.1,0,.1.14,0,.2a.36.36,0,0,1-.35,0,.13.13,0,0,1-.03-.2Zm.28-1.15a.15.15,0,0,1,0-.29.53.53,0,0,1,.52,0,.15.15,0,0,1,0,.29.53.53,0,0,1-.55,0Zm.6.57a.36.36,0,0,1,.35,0,.1.1,0,0,1,0,.2.36.36,0,0,1-.35,0,.1.1,0,1,1-.03-.2Zm.32-.4a.16.16,0,0,1,0-.3.59.59,0,0,1,.52,0,.16.16,0,0,1,0,.3.59.59,0,0,1-.55,0Zm.27-1.3c-.14-.08-.14-.21,0-.3a.59.59,0,0,1,.52,0c.14.09.14.22,0,.3a.53.53,0,0,1-.55-.02Zm.45.51a.43.43,0,0,1,.35,0c.1.06.1.15,0,.21a.43.43,0,0,1-.35,0c-.13-.06-.13-.15,0-.21Zm-.1-3.37c.1.06.1.15,0,.2a.36.36,0,0,1-.35,0c-.1-.05-.1-.14,0-.2a.36.36,0,0,1,.32,0Zm-.78-2a.36.36,0,0,1,.35,0c.1,0,.1.14,0,.2a.43.43,0,0,1-.35,0c-.12-.11-.12-.2-.03-.25Zm-.47.56a.85.85,0,0,1,.79,0c.21.12.21.32,0,.45a.91.91,0,0,1-.79,0c-.25-.17-.25-.38-.03-.5Zm-.57-.5a.36.36,0,0,1,.35,0c.1.06.1.15,0,.2a.36.36,0,0,1-.35,0c-.08-.1-.08-.19-.03-.25Zm0,1.35a.16.16,0,0,1,0,.3.59.59,0,0,1-.52,0c-.15-.08-.15-.22,0-.3a.59.59,0,0,1,.5-.05Zm-.85-1.76a.43.43,0,0,1,.35,0c.1.06.1.15,0,.21a.43.43,0,0,1-.35,0c-.12-.11-.12-.2-.02-.26Zm-.22.76a.62.62,0,0,1,.59,0c.17.09.17.24,0,.34a.62.62,0,0,1-.59,0c-.19-.15-.19-.3-.01-.39Zm-.23.66a.59.59,0,0,1,.52,0c.14.09.14.22,0,.3a.53.53,0,0,1-.52,0c-.17-.13-.17-.26-.02-.35Zm-.3,1.38a.59.59,0,0,1-.52,0c-.14-.09-.14-.22,0-.3a.53.53,0,0,1,.52,0c.12.03.12.16-.02.25Zm-.44-.85a.45.45,0,0,1,.36,0c.1.06.1.15,0,.21a.45.45,0,0,1-.36,0,.132.132,0,0,1-.04-.26Zm.06-1.62a.36.36,0,0,1,.35,0,.1.1,0,0,1,0,.2.43.43,0,0,1-.35,0,.125.125,0,0,1-.02-.25Zm-.5.57a.53.53,0,0,1,.52,0c.14.07.14.21,0,.29a.59.59,0,0,1-.52,0c-.16-.13-.16-.27-.02-.34Zm-.49-.57a.38.38,0,0,1,.36,0,.11.11,0,0,1,0,.2.45.45,0,0,1-.36,0,.125.125,0,0,1-.02-.25Zm-.33.79a.76.76,0,0,1-.66,0,.21.21,0,0,1,0-.39.76.76,0,0,1,.66,0,.21.21,0,0,1-.02.34Zm-.39-1.12a.43.43,0,0,1,.35,0c.11.06.11.15,0,.21a.43.43,0,0,1-.35,0c-.12-.11-.12-.2-.02-.26Zm-.65.2a.43.43,0,0,1,.35,0c.1.06.1.15,0,.2a.36.36,0,0,1-.35,0c-.12-.1-.12-.21-.02-.21Zm-.5.41a.43.43,0,0,1,.35,0c.1.06.1.15,0,.21a.43.43,0,0,1-.35,0c-.12-.11-.12-.2-.02-.26Zm-.7-.28a.36.36,0,0,1,.35,0,.1.1,0,0,1,0,.2.43.43,0,0,1-.35,0,.125.125,0,1,1-.02-.25Zm-.71.47a.68.68,0,0,1,.65,0c.19.1.19.27,0,.38a.74.74,0,0,1-.65,0c-.21-.16-.21-.33-.02-.43Zm.21.78c.23.13.23.34,0,.48a1,1,0,0,1-.84,0c-.22-.14-.22-.35,0-.48a.89.89,0,0,1,.8-.05Zm-1.15-.7a.43.43,0,0,1,.35,0,.12.12,0,0,1,0,.21.43.43,0,0,1-.35,0c-.12-.11-.12-.2-.02-.26Zm-.57.42a.45.45,0,0,1,.36,0,.12.12,0,0,1,0,.21.45.45,0,0,1-.36,0,.13.13,0,0,1-.02-.26Zm-.25,1.3a.36.36,0,0,1-.35,0c-.1-.05-.1-.14,0-.2a.36.36,0,0,1,.35,0c.08.01.08.1-.02.15Zm-.47-1.57a.38.38,0,0,1,.36,0,.1.1,0,1,1,0,.2.38.38,0,0,1-.36,0,.125.125,0,1,1-.02-.25Zm-.29.59a.74.74,0,0,1,.65,0c.18.11.18.28,0,.38a.68.68,0,0,1-.65,0c-.21-.15-.21-.32-.02-.43Zm0,.69a.12.12,0,0,1,0,.21.45.45,0,0,1-.36,0c-.1-.06-.1-.15,0-.21a.38.38,0,0,1,.31-.05Zm-.63-1a.45.45,0,0,1,.36,0,.12.12,0,0,1,0,.21.38.38,0,0,1-.36,0,.137.137,0,1,1-.05-.27Zm-.17.59a.36.36,0,0,1,.35,0c.1,0,.1.14,0,.2a.36.36,0,0,1-.35,0c-.15-.12-.15-.21-.05-.26Zm-.07.42c.18.11.18.27,0,.38a.7.7,0,0,1-.66,0c-.18-.11-.18-.27,0-.38a.76.76,0,0,1,.61-.06Zm-1-.42a.36.36,0,0,1,.35,0c.1,0,.1.14,0,.2a.36.36,0,0,1-.35,0c-.12-.12-.12-.21-.02-.26Zm-.44.85a.43.43,0,0,1,.35,0c.1.06.1.15,0,.2a.36.36,0,0,1-.35,0c-.12-.11-.12-.2,0-.26Zm.1.59c.1.06.1.15,0,.2a.38.38,0,0,1-.36,0c-.09,0-.09-.14,0-.2a.38.38,0,0,1,.34-.06Zm-.68-.78a.33.33,0,0,1,.36,0c.09.05.09.14,0,.2a.45.45,0,0,1-.36,0c-.11-.12-.11-.21-.02-.26Zm-.49.78a.36.36,0,0,1,.35,0c.1.06.1.15,0,.2a.36.36,0,0,1-.35,0c-.12-.11-.12-.2-.02-.26Zm.5.71c.19.11.19.28,0,.38a.7.7,0,0,1-.66,0c-.18-.1-.18-.27,0-.38a.76.76,0,0,1,.64-.06Zm-1.09-.35a.36.36,0,0,1,.35,0c.1.06.1.14,0,.2a.36.36,0,0,1-.35,0c-.12-.12-.12-.2-.02-.26Zm-.09,1a.36.36,0,0,1,.35,0c.1.06.1.15,0,.2a.36.36,0,0,1-.35,0c-.12-.13-.12-.22-.02-.28Zm0,1.5c.1,0,.1.14,0,.2a.45.45,0,0,1-.36,0c-.1-.06-.1-.15,0-.2a.38.38,0,0,1,.33-.08Zm-.66-1.83a.36.36,0,0,1,.35,0c.1.06.1.15,0,.2a.36.36,0,0,1-.35,0c-.13-.13-.13-.22-.03-.28Zm-.43,1a.43.43,0,0,1,.35,0c.1.06.1.15,0,.2a.36.36,0,0,1-.35,0c-.16-.12-.16-.21-.03-.27Zm.18,2.52a.36.36,0,0,1-.35,0c-.1,0-.1-.14,0-.2a.36.36,0,0,1,.35,0c.06-.01.06.08-.03.13Zm.06-.92a.38.38,0,0,1-.36,0c-.09-.06-.09-.15,0-.2a.38.38,0,0,1,.36,0c.06-.02.06.07-.03.13Zm.11-.69a.36.36,0,0,1-.35,0c-.1-.05-.1-.14,0-.2a.36.36,0,0,1,.35,0c.07-.01.07.11-.03.11Zm.13,1a.45.45,0,0,1,.36,0,.12.12,0,0,1,0,.21.45.45,0,0,1-.36,0c-.13-.09-.13-.18-.03-.24Zm.25,1.08a.45.45,0,0,1,.36,0c.1.06.1.15,0,.2a.38.38,0,0,1-.36,0c-.13-.08-.13-.17-.03-.23Zm.56,1a.36.36,0,0,1-.35,0c-.1-.06-.1-.15,0-.21a.43.43,0,0,1,.35,0c.07.04.07.11-.03.17Zm-.1-1.56c-.1-.06-.1-.15,0-.21a.43.43,0,0,1,.35,0c.1.06.1.15,0,.21a.36.36,0,0,1-.38-.04Zm.69,2.56a.43.43,0,0,1-.35,0c-.1-.06-.1-.15,0-.21a.43.43,0,0,1,.35,0c.07.04.07.11-.04.17Zm.16-.72a.36.36,0,0,1-.35,0,.1.1,0,0,1,0-.19.36.36,0,0,1,.35,0c.07.01.07.1-.03.15Zm.09-.57a.43.43,0,0,1-.35,0c-.1-.06-.1-.15,0-.21a.43.43,0,0,1,.35,0c.07.02.07.11-.03.17Zm-.21-.5c-.1-.05-.1-.14,0-.2a.43.43,0,0,1,.35,0c.1.06.1.15,0,.2a.36.36,0,0,1-.38-.04Zm.43,1.58a.43.43,0,0,1,.35,0c.1.06.1.15,0,.21a.43.43,0,0,1-.35,0c-.13-.1-.13-.17-.03-.25Zm.49.74a.36.36,0,0,1-.35,0c-.1,0-.1-.14,0-.2a.43.43,0,0,1,.35,0c.07.02.07.11,0,.16Zm.36-1.38a.43.43,0,0,1-.35,0,.12.12,0,0,1,0-.22.43.43,0,0,1,.35,0,.12.12,0,0,1-.03.18Zm0-.73a.43.43,0,0,1-.35,0c-.1-.06-.1-.15,0-.21a.36.36,0,0,1,.35,0c.07.02.07.11-.03.17Zm0-1.88a.53.53,0,0,1-.52,0,.15.15,0,0,1,0-.29.53.53,0,0,1,.52,0,.15.15,0,0,1-.06.25Zm.62,3.61a.45.45,0,0,1-.36,0c-.1-.06-.1-.15,0-.21a.38.38,0,0,1,.36,0,.14.14,0,0,1-.06.17Zm.18-1.65a.43.43,0,0,1,.35,0c.1.06.1.15,0,.21a.43.43,0,0,1-.35,0c-.16-.1-.16-.19-.06-.25Zm.07.72a.43.43,0,0,1,.35,0c.1.06.1.15,0,.21a.43.43,0,0,1-.35,0c-.16-.1-.16-.19-.06-.25Zm.57,1.17a.38.38,0,0,1-.36,0c-.09-.05-.09-.14,0-.2a.38.38,0,0,1,.36,0c.03.02.03.11-.06.16Zm1.08-.48a.93.93,0,0,1-.83,0c-.24-.13-.24-.35,0-.48a.87.87,0,0,1,.83,0,.25.25,0,0,1-.06.4Zm.54.62a.36.36,0,0,1-.35,0c-.1,0-.1-.14,0-.2a.43.43,0,0,1,.35,0c.04.02.04.11-.06.16Zm0-1.25c-.1,0-.1-.14,0-.19a.36.36,0,0,1,.35,0c.1.05.1.14,0,.19a.36.36,0,0,1-.39-.04Zm.64.83a.36.36,0,0,1-.35,0c-.1-.06-.1-.14,0-.2a.36.36,0,0,1,.35,0c.06.02.06.1-.06.16Zm-.43-2.86c-.15-.08-.15-.21,0-.3a.59.59,0,0,1,.52,0c.14.09.14.22,0,.3a.59.59,0,0,1-.56-.04Zm.67,1.71a.52.52,0,0,1,.51,0c.15.08.15.21,0,.3a.57.57,0,0,1-.51,0c-.19-.13-.19-.26-.04-.34Zm.52,1.72a.36.36,0,0,1-.35,0c-.1-.05-.1-.15,0-.21a.43.43,0,0,1,.35,0c.06.02.06.12-.04.17Zm.28-.57a.38.38,0,0,1-.36,0,.11.11,0,0,1,0-.2.38.38,0,0,1,.36,0,.11.11,0,0,1-.04.16Zm.42-.69a.43.43,0,0,1-.35,0c-.1-.05-.1-.15,0-.21a.43.43,0,0,1,.35,0c.06.02.06.12-.04.17Zm.12.29a.1.1,0,0,1,0-.2.38.38,0,0,1,.36,0,.11.11,0,0,1,0,.2.38.38,0,0,1-.4-.04Zm.76.58a.36.36,0,0,1-.35,0c-.1-.06-.1-.15,0-.2a.36.36,0,0,1,.35,0c.06.01.06.1-.04.16Zm.08-1a.57.57,0,0,1-.51,0c-.15-.09-.15-.22,0-.3a.52.52,0,0,1,.51,0c.11.01.11.14-.04.23Zm.13,0a.43.43,0,0,1,.35,0c.1.06.1.15,0,.21a.43.43,0,0,1-.35,0c-.14-.17-.14-.26-.04-.32Zm.06.78a.12.12,0,0,1,0-.21.45.45,0,0,1,.36,0,.12.12,0,0,1,0,.21.45.45,0,0,1-.4-.11Zm.8.53a.36.36,0,0,1-.35,0c-.09,0-.09-.14,0-.2a.43.43,0,0,1,.35,0c.07-.05.07.04-.04.09Zm.29-.68a.36.36,0,0,1-.35,0c-.1,0-.1-.14,0-.2a.36.36,0,0,1,.35,0c.06-.05.06.04-.04.11Zm.08-.72c-.1,0-.1-.14,0-.2a.36.36,0,0,1,.35,0c.1.06.1.15,0,.2a.36.36,0,0,1-.39-.11Zm.42.58a.1.1,0,0,1,0-.2.36.36,0,0,1,.35,0,.1.1,0,0,1,0,.2.36.36,0,0,1-.39-.11Zm.74.55a.45.45,0,0,1-.36,0,.12.12,0,0,1,0-.21.45.45,0,0,1,.36,0,.12.12,0,0,1,0,.1Zm-.05-1.51c-.1-.06-.1-.15,0-.21a.43.43,0,0,1,.35,0c.1.06.1.15,0,.21a.43.43,0,0,1-.39-.11Zm.36.46a.43.43,0,0,1,.35,0c.1.06.1.16,0,.21a.43.43,0,0,1-.35,0,.161.161,0,0,1-.04-.32Zm.56.76a.38.38,0,0,1-.36,0c-.1-.06-.1-.15,0-.2a.38.38,0,0,1,.36,0c.05-.01.05-.01-.04.09Zm0-1.65a.36.36,0,0,1-.35,0,.1.1,0,1,1,0-.2.36.36,0,0,1,.35,0,.1.1,0,0,1,0,.09Zm.16-.69c-.15-.08-.15-.22,0-.3a.57.57,0,0,1,.51,0c.15.08.15.22,0,.3a.57.57,0,0,1-.54-.11Zm.69,2.08a.36.36,0,0,1-.35,0,.11.11,0,0,1,0-.2.36.36,0,0,1,.35,0,.1.1,0,0,1,0,.09Zm0-.71a.36.36,0,0,1-.35,0,.12.12,0,0,1,0-.21.43.43,0,0,1,.35,0c.1-.03.1.04,0,.1Zm.27-.6a.36.36,0,0,1,.35,0,.1.1,0,0,1,0,.2.36.36,0,0,1-.35,0,.155.155,0,0,1,.01-.31Zm.56,1a.43.43,0,0,1-.35,0c-.1-.05-.1-.15,0-.21a.43.43,0,0,1,.35,0c.1-.03.1.07,0,.12Zm.48-.67a.43.43,0,0,1-.35,0c-.1-.06-.1-.15,0-.21a.43.43,0,0,1,.35,0c.1-.03.1.06-.03.12Zm.16-.85a.38.38,0,0,1-.36,0c-.09-.06-.09-.15,0-.2a.38.38,0,0,1,.36,0c.09-.04.09.08,0,.08Zm.43-.45a.43.43,0,0,1-.35,0c-.1-.05-.1-.15,0-.21a.43.43,0,0,1,.35,0c.1-.03.1.07,0,.12Zm.57.87a.36.36,0,0,1-.35,0,.1.1,0,0,1,0-.2.36.36,0,0,1,.35,0,.1.1,0,0,1,0,.11Zm.09-1.53a.36.36,0,0,1,.35,0c.11.05.11.15,0,.2a.36.36,0,0,1-.35,0,.145.145,0,0,1,0-.29Zm.61.93a.36.36,0,0,1-.35,0c-.1-.06-.1-.15,0-.21a.36.36,0,0,1,.35,0,.12.12,0,0,1,0,.12Zm.25-2.4a.59.59,0,0,1-.52,0c-.14-.09-.14-.22,0-.3a.53.53,0,0,1,.52,0c.14-.01.14.12,0,.21Zm.48,1a.45.45,0,0,1-.36,0,.12.12,0,0,1,0-.21.45.45,0,0,1,.36,0c.1-.06.1.03,0,.09Zm.93,0a.45.45,0,0,1-.36,0c-.1-.06-.1-.15,0-.21a.45.45,0,0,1,.36,0,.12.12,0,0,1,0,.09Z" fill="#d5c894"/>
            </g>
          </g>
        </g>
        <g id="Grupo_62586" data-name="Grupo 62586">
          <g id="Grupo_62582" data-name="Grupo 62582">
            <path id="Trazado_227764" data-name="Trazado 227764" d="M220.33,257.1a17.11,17.11,0,0,1-8.38-2c-2.32-1.35-3.59-3.14-3.59-5.08s1.27-3.73,3.59-5.07a18.56,18.56,0,0,1,16.76,0c2.31,1.34,3.58,3.14,3.58,5.07s-1.27,3.73-3.58,5.08A17.11,17.11,0,0,1,220.33,257.1Z" opacity="0.3"/>
            <path id="Trazado_227765" data-name="Trazado 227765" d="M231.13,247.64a7.56,7.56,0,0,0-2.63-2.35c-4.51-2.61-11.84-2.61-16.35,0a7.29,7.29,0,0,0-2.83,2.68l-.56-.35V250c0,1.71,1.13,3.42,3.39,4.72,4.51,2.61,11.84,2.61,16.35,0,2.21-1.26,3.33-2.92,3.38-4.59h0v-2.61Z" fill="#f4a42e"/>
            <path id="Trazado_227766" data-name="Trazado 227766" d="M228.5,242.91c4.52,2.61,4.52,6.83,0,9.44s-11.84,2.61-16.35,0-4.51-6.83,0-9.44S224,240.3,228.5,242.91Z" fill="#ffeb7a"/>
            <g id="Grupo_62580" data-name="Grupo 62580">
              <path id="Trazado_227767" data-name="Trazado 227767" d="M227,243.9a14.43,14.43,0,0,0-13.08,0c-3.61,2.08-3.61,5.46,0,7.55a14.43,14.43,0,0,0,13.08,0C230.56,249.36,230.56,246,227,243.9Zm-1.15,6.89a11.84,11.84,0,0,1-10.69,0c-3-1.71-3-4.47,0-6.17a11.78,11.78,0,0,1,10.69,0c2.9,1.7,2.9,4.46-.05,6.17Z" fill="#f4a42e"/>
              <path id="Trazado_227768" data-name="Trazado 227768" d="M227,243.48a14.43,14.43,0,0,0-13.08,0c-3.61,2.09-3.61,5.46,0,7.55A14.43,14.43,0,0,0,227,251C230.56,248.94,230.56,245.57,227,243.48Zm-1.15,6.89a11.78,11.78,0,0,1-10.69,0c-3-1.71-3-4.47,0-6.17a11.78,11.78,0,0,1,10.69,0c2.9,1.7,2.9,4.46-.05,6.17Z" fill="#ffc554"/>
            </g>
            <g id="Grupo_62581" data-name="Grupo 62581">
              <path id="Trazado_227769" data-name="Trazado 227769" d="M224.4,249.33a1.75,1.75,0,0,0,.73-1.15h0v-.79l-.27.05a2,2,0,0,0-.54-.44c-1-.58-2.15-.63-3.95-.13-1.3.34-1.92.43-2.29.22s-.39-.5.33-.92a6.89,6.89,0,0,1,2-.7v-.75l-.94-.16a6.71,6.71,0,0,0-2,.72l-1-.57-1.1-.12v.75l1.06.61a3.112,3.112,0,0,0-.47.52l-.2-.14v.77h0a1.28,1.28,0,0,0,.77,1.08c1.08.63,2.45.48,4,0,1.11-.31,1.73-.36,2.16-.12s.25.65-.38,1-1.69-.1-2.34,0v.74l1,1a8.18,8.18,0,0,0,2.37-.82l1.06.61,1.09-.63v-.74Z" fill="#f4a42e"/>
              <path id="Trazado_227770" data-name="Trazado 227770" d="M224.44,249.88l-1.06-.62a7.889,7.889,0,0,1-2.37.82l-1-.94a7.45,7.45,0,0,0,2.34-.79c.63-.36.82-.76.38-1s-1-.19-2.16.13c-1.59.46-3,.6-4,0s-1.05-1.41-.1-2.23l-1.06-.62,1.1-.63,1,.57a7.339,7.339,0,0,1,2-.72l.94.91a7,7,0,0,0-2,.71c-.72.42-.65.74-.33.91s1,.13,2.29-.21c1.8-.5,2.94-.46,3.95.13s1.14,1.46.08,2.34l1.13.65Z" fill="#ffc554"/>
            </g>
          </g>
          <g id="Grupo_62585" data-name="Grupo 62585">
            <path id="Trazado_227771" data-name="Trazado 227771" d="M231.54,244.78a7.84,7.84,0,0,0-2.63-2.35c-4.52-2.61-11.84-2.61-16.35,0a7.4,7.4,0,0,0-2.84,2.68l-.55-.34v2.38c0,1.71,1.13,3.42,3.39,4.73,4.51,2.6,11.83,2.6,16.35,0,2.2-1.28,3.32-2.94,3.38-4.6h0v-2.62Z" fill="#f4a42e"/>
            <path id="Trazado_227772" data-name="Trazado 227772" d="M228.91,240.05c4.51,2.61,4.51,6.83,0,9.44s-11.84,2.6-16.35,0-4.53-6.83,0-9.44S224.39,237.44,228.91,240.05Z" fill="#ffeb7a"/>
            <g id="Grupo_62583" data-name="Grupo 62583">
              <path id="Trazado_227773" data-name="Trazado 227773" d="M227.35,241a14.49,14.49,0,0,0-13.08,0c-3.61,2.08-3.61,5.46,0,7.55a14.49,14.49,0,0,0,13.08,0C231,246.5,231,243.12,227.35,241Zm-1.15,6.88a11.78,11.78,0,0,1-10.69,0c-2.95-1.69-2.95-4.46,0-6.17a11.84,11.84,0,0,1,10.69,0c2.96,1.75,2.96,4.52,0,6.21Z" fill="#f4a42e"/>
              <path id="Trazado_227774" data-name="Trazado 227774" d="M227.35,240.62a14.43,14.43,0,0,0-13.08,0c-3.61,2.09-3.61,5.46,0,7.55a14.49,14.49,0,0,0,13.08,0C231,246.08,231,242.71,227.35,240.62Zm-1.15,6.88a11.78,11.78,0,0,1-10.69,0c-2.95-1.7-2.95-4.47,0-6.16a11.78,11.78,0,0,1,10.69,0c2.96,1.66,2.96,4.46,0,6.16Z" fill="#ffc554"/>
            </g>
            <g id="Grupo_62584" data-name="Grupo 62584">
              <path id="Trazado_227775" data-name="Trazado 227775" d="M224.8,246.47a1.71,1.71,0,0,0,.73-1.15h0v-.8l-.27.06a1.88,1.88,0,0,0-.54-.44c-1-.58-2.15-.62-3.94-.13-1.31.35-1.93.43-2.3.22s-.39-.5.34-.91a6.829,6.829,0,0,1,2-.72v-.74l-.94-.16a6.84,6.84,0,0,0-2,.71l-1-.56-1.09-.12v.75l1.05.61a2.42,2.42,0,0,0-.46.53l-.21-.16v.78h0a1.28,1.28,0,0,0,.78,1.08c1.07.63,2.45.48,4,0,1.1-.31,1.73-.36,2.15-.12s.26.65-.38,1-1.69-.1-2.34,0v.8l1,.95a8.08,8.08,0,0,0,2.37-.82l1.06.61,1.09-.63v-.74Z" fill="#f4a42e"/>
              <path id="Trazado_227776" data-name="Trazado 227776" d="M224.85,247l-1.06-.62a8.08,8.08,0,0,1-2.37.82l-1-.94a7.591,7.591,0,0,0,2.34-.78c.64-.38.82-.77.38-1s-1-.2-2.15.12c-1.59.45-3,.6-4,0s-1.06-1.41-.11-2.23l-1.05-.62,1.09-.63,1,.57a7.22,7.22,0,0,1,2-.72l.94.91a6.74,6.74,0,0,0-2,.71c-.73.42-.65.74-.34.92s1,.12,2.3-.22c1.79-.5,2.94-.45,3.94.12s1.14,1.47.08,2.35l1.14.65Z" fill="#ffc554"/>
            </g>
          </g>
        </g>
        <g id="Grupo_62594" data-name="Grupo 62594">
          <path id="Trazado_227777" data-name="Trazado 227777" d="M136.73,228.11a3.93,3.93,0,0,1-2-.5L78.8,195.31a2.22,2.22,0,0,1-1.21-1.94,2.43,2.43,0,0,1,1.33-2.08l24-13.87a4.58,4.58,0,0,1,4.17-.07l56,32.31a2.26,2.26,0,0,1,1.21,2,2.39,2.39,0,0,1-1.33,2.06l-24,13.88A4.49,4.49,0,0,1,136.73,228.11Z" opacity="0.3"/>
          <g id="Grupo_62587" data-name="Grupo 62587">
            <path id="Trazado_227778" data-name="Trazado 227778" d="M163.58,208.58l-3.83-.1v.94l-53.75-31a3.14,3.14,0,0,0-2.83.07L81.76,190.82l.22-.24-4-.51v3.4h0a.88.88,0,0,0,.52.77l57.06,32.94a3.14,3.14,0,0,0,2.83-.06L162.93,213a1.08,1.08,0,0,0,.64-.89h0Z" fill="#70aa44"/>
            <path id="Trazado_227779" data-name="Trazado 227779" d="M163.05,207.87,106,174.93a3.14,3.14,0,0,0-2.83.07l-24.5,14.15c-.82.47-.88,1.2-.13,1.63l57.06,32.94a3.08,3.08,0,0,0,2.83-.07l24.5-14.14C163.74,209,163.8,208.3,163.05,207.87Z" fill="#88c65b"/>
            <path id="Trazado_227780" data-name="Trazado 227780" d="M154.85,207.26l.23-.14c.75-.42.76-1.11,0-1.54L109.23,179.1a3,3,0,0,0-2.71,0l-.13.08a3,3,0,0,1-2.7,0h0a3,3,0,0,0-2.68,0l-15,8.68c-.75.43-.76,1.13,0,1.55h0a.817.817,0,0,1,0,1.54l-.22.13c-.75.43-.76,1.13,0,1.55l45.9,26.5a3,3,0,0,0,2.67,0l.25-.15a3,3,0,0,1,2.67,0l.6.35a2.94,2.94,0,0,0,2.69,0l15-8.63c.74-.44.76-1.13,0-1.55l-.61-.37C154.08,208.38,154.1,207.69,154.85,207.26Z" fill="#fff"/>
            <path id="Trazado_227781" data-name="Trazado 227781" d="M127.58,203.3c5.37-3.1,6.67-7.39,2.9-9.56s-11.19-1.43-16.56,1.67-6.67,7.38-2.9,9.56S122.22,206.4,127.58,203.3Z" fill="#88c65b"/>
            <path id="Trazado_227782" data-name="Trazado 227782" d="M101.2,188c-1.71,1-1.81,2.51-.25,3.42a6.55,6.55,0,0,0,5.92-.14c1.71-1,1.81-2.51.25-3.41a6.52,6.52,0,0,0-5.92.13Z" fill="#88c65b"/>
            <path id="Trazado_227783" data-name="Trazado 227783" d="M134.54,207.27c-1.7,1-1.81,2.51-.24,3.41a6.52,6.52,0,0,0,5.92-.14c1.7-1,1.81-2.52.25-3.42A6.57,6.57,0,0,0,134.54,207.27Z" fill="#88c65b"/>
          </g>
          <g id="Grupo_62588" data-name="Grupo 62588">
            <path id="Trazado_227784" data-name="Trazado 227784" d="M163.58,204.67l-3.83-.09v.93l-53.75-31a3.14,3.14,0,0,0-2.83.07L81.76,186.91l.22-.24-4-.51v3.4h0a.87.87,0,0,0,.52.77l57.06,32.94a3.17,3.17,0,0,0,2.83-.06l24.5-14.16a1.06,1.06,0,0,0,.64-.89h0Z" fill="#70aa44"/>
            <path id="Trazado_227785" data-name="Trazado 227785" d="M163.05,204,106,171a3.14,3.14,0,0,0-2.83.07l-24.5,14.14c-.82.48-.88,1.21-.13,1.65l57.06,32.93a3.11,3.11,0,0,0,2.83-.07l24.5-14.15C163.74,205.12,163.8,204.39,163.05,204Z" fill="#88c65b"/>
            <path id="Trazado_227786" data-name="Trazado 227786" d="M154.85,203.35l.23-.14c.75-.43.76-1.12,0-1.54L109.2,175.18a3,3,0,0,0-2.71,0l-.13.09a3,3,0,0,1-2.7,0h0a3,3,0,0,0-2.68,0l-15,8.68c-.75.43-.76,1.13,0,1.55h0a.817.817,0,0,1,0,1.54l-.22.13c-.75.43-.76,1.13,0,1.55l45.9,26.51a3.05,3.05,0,0,0,2.67,0l.25-.15a3,3,0,0,1,2.67,0l.6.35a3,3,0,0,0,2.69,0l15-8.65c.74-.43.76-1.12,0-1.55l-.61-.36C154.08,204.47,154.1,203.78,154.85,203.35Z" fill="#fff"/>
            <path id="Trazado_227787" data-name="Trazado 227787" d="M127.58,199.39c5.37-3.11,6.67-7.38,2.9-9.56s-11.19-1.43-16.56,1.67-6.67,7.37-2.9,9.56S122.22,202.49,127.58,199.39Z" fill="#88c65b"/>
            <path id="Trazado_227788" data-name="Trazado 227788" d="M101.2,184.1c-1.71,1-1.81,2.51-.25,3.42a6.55,6.55,0,0,0,5.92-.14c1.71-1,1.81-2.51.25-3.41a6.52,6.52,0,0,0-5.92.13Z" fill="#88c65b"/>
            <path id="Trazado_227789" data-name="Trazado 227789" d="M134.54,203.36c-1.7,1-1.81,2.51-.24,3.41a6.55,6.55,0,0,0,5.92-.14c1.7-1,1.81-2.52.25-3.42A6.57,6.57,0,0,0,134.54,203.36Z" fill="#88c65b"/>
          </g>
          <g id="Grupo_62589" data-name="Grupo 62589">
            <path id="Trazado_227790" data-name="Trazado 227790" d="M163.58,200.77l-3.83-.09v.94l-53.75-31a3.11,3.11,0,0,0-2.83.07L81.76,183l.22-.23-4-.52v3.39h0a.89.89,0,0,0,.52.78l57.06,32.94a3.08,3.08,0,0,0,2.83-.07l24.5-14.15a1.06,1.06,0,0,0,.64-.89h0Z" fill="#70aa44"/>
            <path id="Trazado_227791" data-name="Trazado 227791" d="M163.05,200.07,106,167.13a3.14,3.14,0,0,0-2.83.07l-24.5,14.15c-.82.47-.88,1.2-.13,1.63l57.06,32.93a3.11,3.11,0,0,0,2.83,0l24.5-14.15C163.74,201.24,163.8,200.5,163.05,200.07Z" fill="#88c65b"/>
            <path id="Trazado_227792" data-name="Trazado 227792" d="M154.85,199.46l.23-.13c.75-.44.76-1.13,0-1.55L109.2,171.29a3,3,0,0,0-2.71,0l-.13.08a3,3,0,0,1-2.7,0h0a3,3,0,0,0-2.68,0l-15,8.69c-.75.43-.76,1.12,0,1.54h0a.817.817,0,0,1,0,1.54l-.22.13c-.75.43-.76,1.13,0,1.55l45.9,26.5a3,3,0,0,0,2.67,0l.25-.15a3,3,0,0,1,2.67,0l.6.34a3,3,0,0,0,2.69,0l15-8.64c.74-.43.76-1.12,0-1.54l-.61-.37C154.08,200.57,154.1,199.89,154.85,199.46Z" fill="#fff"/>
            <path id="Trazado_227793" data-name="Trazado 227793" d="M127.58,195.5c5.37-3.1,6.67-7.39,2.9-9.56s-11.19-1.43-16.56,1.67-6.67,7.38-2.9,9.56S122.22,198.59,127.58,195.5Z" fill="#88c65b"/>
            <path id="Trazado_227794" data-name="Trazado 227794" d="M101.2,180.21c-1.71,1-1.81,2.51-.25,3.42a6.58,6.58,0,0,0,5.92-.14c1.71-1,1.81-2.52.25-3.42A6.55,6.55,0,0,0,101.2,180.21Z" fill="#88c65b"/>
            <path id="Trazado_227795" data-name="Trazado 227795" d="M134.54,199.46c-1.7,1-1.81,2.52-.24,3.42a6.55,6.55,0,0,0,5.92-.14c1.7-1,1.81-2.51.25-3.42a6.57,6.57,0,0,0-5.93.14Z" fill="#88c65b"/>
          </g>
          <g id="Grupo_62590" data-name="Grupo 62590">
            <path id="Trazado_227796" data-name="Trazado 227796" d="M163.58,196.86l-3.83-.09v.94l-53.75-31a3.14,3.14,0,0,0-2.83.07L81.76,179.11l.22-.24-4-.52v3.41h0a.9.9,0,0,0,.52.77l57.06,32.94a3.14,3.14,0,0,0,2.83-.07l24.5-14.15a1.06,1.06,0,0,0,.64-.89h0Z" fill="#70aa44"/>
            <path id="Trazado_227797" data-name="Trazado 227797" d="M163.05,196.16l-19.63-11.34-2.53-.55-14.53-8.35-.68-1.34L106,163.22a3.17,3.17,0,0,0-2.83.06l-24.5,14.16c-.82.47-.88,1.2-.13,1.63L135.6,212a3.11,3.11,0,0,0,2.83-.07l24.5-14.15C163.74,197.32,163.8,196.59,163.05,196.16Z" fill="#88c65b"/>
            <path id="Trazado_227798" data-name="Trazado 227798" d="M154.85,195.54l.23-.12c.75-.44.76-1.13,0-1.56L109.2,167.38a3,3,0,0,0-2.71,0l-.13.08a3,3,0,0,1-2.7,0h0a3,3,0,0,0-2.68,0l-15,8.68c-.75.43-.76,1.12,0,1.54h0a.831.831,0,0,1,0,1.56l-.22.12c-.75.43-.76,1.12,0,1.55l45.9,26.5a3,3,0,0,0,2.67,0l.25-.14a2.92,2.92,0,0,1,2.67,0l.6.34a3,3,0,0,0,2.69,0l15-8.65c.74-.44.76-1.13,0-1.55l-.61-.36C154.08,196.67,154.1,196,154.85,195.54Z" fill="#fff"/>
            <path id="Trazado_227799" data-name="Trazado 227799" d="M127.58,191.59c5.37-3.1,6.67-7.38,2.9-9.57s-11.19-1.42-16.56,1.67-6.67,7.39-2.9,9.56S122.22,194.69,127.58,191.59Z" fill="#88c65b"/>
            <path id="Trazado_227800" data-name="Trazado 227800" d="M101.2,176.3c-1.71,1-1.81,2.51-.25,3.42a6.58,6.58,0,0,0,5.92-.15c1.71-1,1.81-2.51.25-3.42A6.55,6.55,0,0,0,101.2,176.3Z" fill="#88c65b"/>
            <path id="Trazado_227801" data-name="Trazado 227801" d="M134.54,195.56c-1.7,1-1.81,2.51-.24,3.41a6.58,6.58,0,0,0,5.92-.14c1.7-1,1.81-2.52.25-3.42A6.57,6.57,0,0,0,134.54,195.56Z" fill="#88c65b"/>
          </g>
          <g id="Grupo_62593" data-name="Grupo 62593">
            <g id="Grupo_62591" data-name="Grupo 62591">
              <path id="Trazado_227802" data-name="Trazado 227802" d="M112.63,213.95l-11.24-6.49V192.33l11.24,6.49Z" fill="#b3c9ec"/>
              <path id="Trazado_227803" data-name="Trazado 227803" d="M115.88,215.83l-3.25-1.88V198.82l3.25,1.88Z" fill="#ffc554"/>
              <path id="Trazado_227804" data-name="Trazado 227804" d="M101.39,207.46l-3.25-1.87V190.45l3.25,1.88Z" fill="#ffc554"/>
            </g>
            <g id="Grupo_62592" data-name="Grupo 62592">
              <path id="Trazado_227805" data-name="Trazado 227805" d="M140.18,182.91l-11.23-6.48-27.56,15.9,11.24,6.48Z" fill="#fff"/>
              <path id="Trazado_227806" data-name="Trazado 227806" d="M143.43,184.79l-3.25-1.88-27.55,15.9,3.25,1.89Z" fill="#ffeb7a"/>
              <path id="Trazado_227807" data-name="Trazado 227807" d="M128.95,176.43l-3.25-1.88-27.56,15.9,3.25,1.88Z" fill="#ffeb7a"/>
            </g>
          </g>
        </g>
        <g id="Grupo_62602" data-name="Grupo 62602">
          <path id="Trazado_227808" data-name="Trazado 227808" d="M136.31,266.31a3.89,3.89,0,0,1-2-.5l-56-32.3a2.25,2.25,0,0,1-1.21-1.94,2.43,2.43,0,0,1,1.34-2.08l24-13.88a4.58,4.58,0,0,1,4.17-.06l56,32.31a2.23,2.23,0,0,1,1.21,1.94,2.43,2.43,0,0,1-1.33,2.08l-24,13.87A4.55,4.55,0,0,1,136.31,266.31Z" opacity="0.3"/>
          <g id="Grupo_62595" data-name="Grupo 62595">
            <path id="Trazado_227809" data-name="Trazado 227809" d="M163.17,246.77l-3.84-.09v.94l-53.74-31a3.14,3.14,0,0,0-2.83.06L81.35,229l.22-.23-4-.53v3.41h0a.9.9,0,0,0,.53.77l57.05,32.95a3.17,3.17,0,0,0,2.83-.08l24.5-14.14a1.08,1.08,0,0,0,.65-.89h0Z" fill="#70aa44"/>
            <path id="Trazado_227810" data-name="Trazado 227810" d="M162.63,246.07l-57-32.94a3.11,3.11,0,0,0-2.83.07L78.25,227.35c-.82.47-.87,1.2-.12,1.63l57.05,32.94a3.11,3.11,0,0,0,2.83-.07l24.5-14.14C163.33,247.24,163.38,246.5,162.63,246.07Z" fill="#88c65b"/>
            <path id="Trazado_227811" data-name="Trazado 227811" d="M154.43,245.46l.23-.14c.75-.43.77-1.12,0-1.55l-45.88-26.48a3,3,0,0,0-2.7,0l-.14.08a2.93,2.93,0,0,1-2.7,0h0a2.92,2.92,0,0,0-2.68,0l-15,8.68c-.75.43-.77,1.13,0,1.54h0a.824.824,0,0,1,0,1.55l-.21.13c-.76.43-.77,1.12,0,1.55l45.9,26.49a2.93,2.93,0,0,0,2.66,0l.26-.15a3.05,3.05,0,0,1,2.67,0l.59.34a2.94,2.94,0,0,0,2.69,0l15-8.64c.75-.43.77-1.12,0-1.55l-.62-.36C153.67,246.58,153.69,245.89,154.43,245.46Z" fill="#fff"/>
            <path id="Trazado_227812" data-name="Trazado 227812" d="M127.17,241.5c5.37-3.1,6.67-7.39,2.89-9.56s-11.19-1.43-16.56,1.66-6.67,7.39-2.89,9.56S121.8,244.6,127.17,241.5Z" fill="#88c65b"/>
            <path id="Trazado_227813" data-name="Trazado 227813" d="M100.78,226.21c-1.7,1-1.81,2.51-.25,3.42a6.63,6.63,0,0,0,5.93-.14c1.7-1,1.81-2.52.25-3.42a6.54,6.54,0,0,0-5.93.14Z" fill="#88c65b"/>
            <path id="Trazado_227814" data-name="Trazado 227814" d="M134.13,245.47c-1.71,1-1.81,2.52-.25,3.42a6.58,6.58,0,0,0,5.92-.15c1.71-1,1.82-2.52.25-3.42a6.55,6.55,0,0,0-5.92.15Z" fill="#88c65b"/>
          </g>
          <g id="Grupo_62596" data-name="Grupo 62596">
            <path id="Trazado_227815" data-name="Trazado 227815" d="M163.17,242.86l-3.84-.09v.94l-53.74-31a3.14,3.14,0,0,0-2.83.07L81.35,225.11l.22-.23-4-.53v3.4h0a.9.9,0,0,0,.53.78l57.05,32.94a3.14,3.14,0,0,0,2.83-.07l24.5-14.14a1.1,1.1,0,0,0,.65-.9h0Z" fill="#70aa44"/>
            <path id="Trazado_227816" data-name="Trazado 227816" d="M162.63,242.16l-57-32.94a3.14,3.14,0,0,0-2.83.07L78.25,223.44c-.82.47-.87,1.2-.12,1.63L135.18,258a3.14,3.14,0,0,0,2.83-.07l24.5-14.15C163.33,243.32,163.38,242.59,162.63,242.16Z" fill="#88c65b"/>
            <path id="Trazado_227817" data-name="Trazado 227817" d="M154.43,241.54l.23-.13c.75-.43.77-1.12,0-1.54l-45.88-26.49a3,3,0,0,0-2.7,0l-.14.08a2.93,2.93,0,0,1-2.7,0h0a3,3,0,0,0-2.68,0l-15,8.68c-.75.43-.77,1.12,0,1.55h0a.824.824,0,0,1,0,1.55l-.21.13c-.76.43-.77,1.13,0,1.55l45.9,26.5a3,3,0,0,0,2.66,0l.26-.15a3,3,0,0,1,2.67,0l.59.35a3,3,0,0,0,2.69,0L155,245c.75-.43.77-1.12,0-1.55l-.62-.36C153.67,242.67,153.69,242,154.43,241.54Z" fill="#fff"/>
            <path id="Trazado_227818" data-name="Trazado 227818" d="M127.17,237.58c5.37-3.1,6.67-7.38,2.89-9.55s-11.19-1.44-16.56,1.66-6.67,7.38-2.89,9.57S121.8,240.69,127.17,237.58Z" fill="#88c65b"/>
            <path id="Trazado_227819" data-name="Trazado 227819" d="M100.78,222.3c-1.7,1-1.81,2.51-.25,3.42a6.57,6.57,0,0,0,5.93-.15c1.7-1,1.81-2.51.25-3.41A6.54,6.54,0,0,0,100.78,222.3Z" fill="#88c65b"/>
            <path id="Trazado_227820" data-name="Trazado 227820" d="M134.13,241.55c-1.71,1-1.81,2.52-.25,3.42a6.55,6.55,0,0,0,5.92-.14c1.71-1,1.82-2.51.25-3.42a6.58,6.58,0,0,0-5.92.14Z" fill="#88c65b"/>
          </g>
          <g id="Grupo_62597" data-name="Grupo 62597">
            <path id="Trazado_227821" data-name="Trazado 227821" d="M163.17,239l-3.84-.09v.94l-53.74-31a3.14,3.14,0,0,0-2.83.06L81.35,221.22l.22-.24-4-.52v3.4h0a.9.9,0,0,0,.53.78l57.05,32.93a3.11,3.11,0,0,0,2.83-.06l24.5-14.15a1.07,1.07,0,0,0,.65-.9h0Z" fill="#70aa44"/>
            <path id="Trazado_227822" data-name="Trazado 227822" d="M162.63,238.27l-57-32.94a3.11,3.11,0,0,0-2.83.06L78.25,219.55c-.82.47-.87,1.2-.12,1.63l57.05,32.93a3.14,3.14,0,0,0,2.83-.06l24.5-14.15C163.33,239.43,163.38,238.7,162.63,238.27Z" fill="#88c65b"/>
            <path id="Trazado_227823" data-name="Trazado 227823" d="M154.43,237.66l.23-.13c.75-.43.77-1.13,0-1.55l-45.88-26.5a3,3,0,0,0-2.7,0l-.14.07a2.93,2.93,0,0,1-2.7,0h0a3,3,0,0,0-2.68,0l-15,8.69c-.75.43-.77,1.12,0,1.55h0a.817.817,0,0,1,0,1.54l-.21.13c-.76.43-.77,1.13,0,1.55l45.9,26.5a3,3,0,0,0,2.66,0l.26-.15a2.92,2.92,0,0,1,2.67,0l.59.34a2.94,2.94,0,0,0,2.69,0l15-8.64c.75-.43.77-1.13,0-1.55l-.62-.36C153.67,238.77,153.69,238.09,154.43,237.66Z" fill="#fff"/>
            <path id="Trazado_227824" data-name="Trazado 227824" d="M127.17,233.7c5.37-3.11,6.67-7.39,2.89-9.56s-11.19-1.44-16.56,1.66-6.67,7.39-2.89,9.57S121.8,236.79,127.17,233.7Z" fill="#88c65b"/>
            <path id="Trazado_227825" data-name="Trazado 227825" d="M100.78,218.41c-1.7,1-1.81,2.51-.25,3.42a6.6,6.6,0,0,0,5.93-.14c1.7-1,1.81-2.52.25-3.43a6.57,6.57,0,0,0-5.93.15Z" fill="#88c65b"/>
            <path id="Trazado_227826" data-name="Trazado 227826" d="M134.13,237.66c-1.71,1-1.81,2.51-.25,3.42a6.58,6.58,0,0,0,5.92-.14c1.71-1,1.82-2.52.25-3.43a6.58,6.58,0,0,0-5.92.15Z" fill="#88c65b"/>
          </g>
          <g id="Grupo_62598" data-name="Grupo 62598">
            <path id="Trazado_227827" data-name="Trazado 227827" d="M163.17,235.06l-3.84-.09v.94l-53.74-31a3.08,3.08,0,0,0-2.83.07L81.35,217.3l.22-.24-4-.51V220h0a.91.91,0,0,0,.53.77l57.05,32.94a3.14,3.14,0,0,0,2.83-.07l24.5-14.15a1.07,1.07,0,0,0,.65-.89h0Z" fill="#70aa44"/>
            <path id="Trazado_227828" data-name="Trazado 227828" d="M162.63,234.35,143,223l-2.53-.55-14.53-8.36-.68-1.33L105.59,201.4a3.14,3.14,0,0,0-2.83.06L78.25,215.63c-.82.47-.87,1.21-.12,1.63l57.05,33a3.17,3.17,0,0,0,2.83-.07L162.51,236C163.33,235.52,163.38,234.78,162.63,234.35Z" fill="#88c65b"/>
            <path id="Trazado_227829" data-name="Trazado 227829" d="M154.43,233.75l.23-.14c.75-.43.77-1.12,0-1.55l-45.88-26.48a3,3,0,0,0-2.7,0l-.14.08a3,3,0,0,1-2.7,0h0a3,3,0,0,0-2.68,0l-15,8.69c-.75.43-.77,1.12,0,1.54h0a.824.824,0,0,1,0,1.55l-.21.13c-.76.42-.77,1.12,0,1.55l45.9,26.49a3,3,0,0,0,2.66,0l.26-.15a3,3,0,0,1,2.67,0l.59.35a3,3,0,0,0,2.69,0l15-8.65c.75-.43.77-1.12,0-1.54l-.62-.36C153.67,234.86,153.69,234.17,154.43,233.75Z" fill="#fff"/>
            <path id="Trazado_227830" data-name="Trazado 227830" d="M127.17,229.79c5.37-3.1,6.67-7.39,2.89-9.57s-11.19-1.43-16.56,1.67-6.67,7.38-2.89,9.56S121.8,232.89,127.17,229.79Z" fill="#88c65b"/>
            <path id="Trazado_227831" data-name="Trazado 227831" d="M100.78,214.49c-1.7,1-1.81,2.52-.25,3.43a6.6,6.6,0,0,0,5.93-.15c1.7-1,1.81-2.51.25-3.42A6.6,6.6,0,0,0,100.78,214.49Z" fill="#88c65b"/>
            <path id="Trazado_227832" data-name="Trazado 227832" d="M134.13,233.75c-1.71,1-1.81,2.52-.25,3.41a6.55,6.55,0,0,0,5.92-.13c1.71-1,1.82-2.52.25-3.43a6.58,6.58,0,0,0-5.92.15Z" fill="#88c65b"/>
          </g>
          <g id="Grupo_62601" data-name="Grupo 62601">
            <g id="Grupo_62599" data-name="Grupo 62599">
              <path id="Trazado_227833" data-name="Trazado 227833" d="M112.21,252.15l-11.23-6.48V230.53l11.23,6.49Z" fill="#b3c9ec"/>
              <path id="Trazado_227834" data-name="Trazado 227834" d="M115.47,254.03l-3.26-1.88V237.02l3.26,1.88Z" fill="#ffc554"/>
              <path id="Trazado_227835" data-name="Trazado 227835" d="M100.98,245.67l-3.25-1.89V228.65l3.25,1.88Z" fill="#ffc554"/>
            </g>
            <g id="Grupo_62600" data-name="Grupo 62600">
              <path id="Trazado_227836" data-name="Trazado 227836" d="M139.77,221.11l-11.24-6.48-27.55,15.9,11.23,6.48Z" fill="#fff"/>
              <path id="Trazado_227837" data-name="Trazado 227837" d="M143.02,222.98l-3.25-1.87-27.56,15.9,3.26,1.89Z" fill="#ffeb7a"/>
              <path id="Trazado_227838" data-name="Trazado 227838" d="M128.53,214.63l-3.25-1.88-27.55,15.9,3.25,1.88Z" fill="#ffeb7a"/>
            </g>
          </g>
        </g>
        <g id="Grupo_62618" data-name="Grupo 62618">
          <g id="Grupo_62605" data-name="Grupo 62605">
            <path id="Trazado_227839" data-name="Trazado 227839" d="M206.41,236.54a17,17,0,0,1-8.37-2c-2.31-1.33-3.59-3.13-3.59-5.07s1.28-3.73,3.59-5.07a18.45,18.45,0,0,1,16.75,0c2.32,1.34,3.59,3.14,3.59,5.07s-1.27,3.74-3.59,5.07a17,17,0,0,1-8.38,2Z" opacity="0.3"/>
            <path id="Trazado_227840" data-name="Trazado 227840" d="M217.23,227.08a7.89,7.89,0,0,0-2.64-2.35c-4.52-2.6-11.84-2.6-16.35,0a7.29,7.29,0,0,0-2.83,2.68l-.56-.34v2.38c0,1.71,1.13,3.42,3.39,4.72,4.51,2.61,11.83,2.61,16.35,0,2.2-1.26,3.33-2.92,3.38-4.59h0V227Z" fill="#f4a42e"/>
            <path id="Trazado_227841" data-name="Trazado 227841" d="M214.59,222.34c4.52,2.61,4.52,6.84,0,9.45s-11.84,2.61-16.35,0-4.51-6.84,0-9.45S210.07,219.74,214.59,222.34Z" fill="#ffeb7a"/>
            <g id="Grupo_62603" data-name="Grupo 62603">
              <path id="Trazado_227842" data-name="Trazado 227842" d="M213,223.34a14.41,14.41,0,0,0-13.07,0c-3.62,2.08-3.62,5.46,0,7.55a14.47,14.47,0,0,0,13.07,0C216.65,228.8,216.65,225.42,213,223.34Zm-1.14,6.88a11.78,11.78,0,0,1-10.69,0c-3-1.69-3-4.46,0-6.16a11.78,11.78,0,0,1,10.69,0c2.98,1.7,2.98,4.47.03,6.16Z" fill="#f4a42e"/>
              <path id="Trazado_227843" data-name="Trazado 227843" d="M213,222.92a14.41,14.41,0,0,0-13.07,0c-3.62,2.08-3.62,5.47,0,7.55a14.41,14.41,0,0,0,13.07,0C216.65,228.39,216.65,225,213,222.92Zm-1.14,6.89a11.84,11.84,0,0,1-10.69,0c-3-1.7-3-4.47,0-6.17a11.84,11.84,0,0,1,10.69,0c2.98,1.7,2.98,4.47.03,6.17Z" fill="#ffc554"/>
            </g>
            <g id="Grupo_62604" data-name="Grupo 62604">
              <path id="Trazado_227844" data-name="Trazado 227844" d="M210.48,228.77a1.66,1.66,0,0,0,.73-1.15h0v-.8l-.26.06a2,2,0,0,0-.54-.44c-1-.58-2.16-.63-3.95-.13-1.3.34-1.93.43-2.3.22s-.38-.5.34-.91a6.73,6.73,0,0,1,2-.72v-.74l-.93-.17a6.87,6.87,0,0,0-2,.73l-1-.57-1.09-.11v.74l1.06.61a2.461,2.461,0,0,0-.47.52l-.21-.14v.77h0a1.31,1.31,0,0,0,.78,1.08c1.08.62,2.45.48,4,0,1.11-.32,1.73-.36,2.16-.12s.25.65-.39,1-1.68-.09-2.34,0v.76l1,.94a8.54,8.54,0,0,0,2.38-.82l1.06.61,1.08-.63v-.74Z" fill="#f4a42e"/>
              <path id="Trazado_227845" data-name="Trazado 227845" d="M210.53,229.32l-1.06-.61a7.9,7.9,0,0,1-2.38.81l-1-1a6.849,6.849,0,0,0,2.34-.77c.64-.37.83-.77.39-1s-1-.2-2.16.12c-1.59.45-3,.6-4,0s-1.06-1.41-.1-2.24l-1.06-.6,1.09-.63,1,.56a7.111,7.111,0,0,1,2-.72l.93.91a6.73,6.73,0,0,0-2,.72c-.72.41-.65.72-.34.9s1,.13,2.3-.21c1.79-.5,2.94-.45,3.95.12s1.13,1.47.07,2.34l1.13.66Z" fill="#ffc554"/>
            </g>
          </g>
          <g id="Grupo_62608" data-name="Grupo 62608">
            <path id="Trazado_227846" data-name="Trazado 227846" d="M217.63,224.22a7.69,7.69,0,0,0-2.64-2.35c-4.51-2.6-11.84-2.6-16.35,0a7.35,7.35,0,0,0-2.83,2.67l-.56-.33v2.38c0,1.71,1.14,3.42,3.39,4.72,4.51,2.61,11.84,2.61,16.35,0,2.21-1.26,3.33-2.92,3.38-4.59h0V224.1Z" fill="#f4a42e"/>
            <path id="Trazado_227847" data-name="Trazado 227847" d="M215,219.49c4.52,2.6,4.52,6.83,0,9.44s-11.84,2.6-16.35,0-4.51-6.84,0-9.44S210.48,216.88,215,219.49Z" fill="#ffeb7a"/>
            <g id="Grupo_62606" data-name="Grupo 62606">
              <path id="Trazado_227848" data-name="Trazado 227848" d="M213.44,220.47a14.49,14.49,0,0,0-13.08,0c-3.61,2.09-3.61,5.47,0,7.56a14.43,14.43,0,0,0,13.08,0C217.05,225.94,217.05,222.56,213.44,220.47Zm-1.15,6.9a11.84,11.84,0,0,1-10.69,0c-2.95-1.71-2.95-4.47,0-6.17a11.78,11.78,0,0,1,10.69,0c2.95,1.7,2.95,4.46,0,6.17Z" fill="#f4a42e"/>
              <path id="Trazado_227849" data-name="Trazado 227849" d="M213.44,220.06a14.49,14.49,0,0,0-13.08,0c-3.61,2.09-3.61,5.46,0,7.55a14.49,14.49,0,0,0,13.08,0C217.05,225.52,217.05,222.15,213.44,220.06ZM212.29,227a11.84,11.84,0,0,1-10.69,0c-2.95-1.71-2.95-4.47,0-6.18a11.84,11.84,0,0,1,10.69,0C215.24,222.48,215.24,225.24,212.29,227Z" fill="#ffc554"/>
            </g>
            <g id="Grupo_62607" data-name="Grupo 62607">
              <path id="Trazado_227850" data-name="Trazado 227850" d="M210.89,225.91a1.69,1.69,0,0,0,.72-1.15h0V224l-.26.06a2.26,2.26,0,0,0-.54-.45c-1-.57-2.16-.61-3.95-.11-1.3.33-1.92.42-2.29.21s-.39-.49.33-.91a6.68,6.68,0,0,1,2-.71v-.75l-.94-.16a7,7,0,0,0-2,.72l-1-.57-1.1-.11v.74l1.06.6a3.14,3.14,0,0,0-.47.53l-.2-.15v.78h0a1.27,1.27,0,0,0,.77,1.09c1.08.62,2.45.47,4,0,1.1-.31,1.72-.37,2.15-.12s.26.65-.38,1-1.69-.09-2.34,0v.76l1,.94a8.48,8.48,0,0,0,2.37-.82l1.07.6,1.08-.62v-.74Z" fill="#f4a42e"/>
              <path id="Trazado_227851" data-name="Trazado 227851" d="M210.94,226.46l-1.07-.62a7.89,7.89,0,0,1-2.37.82l-1-.95a7.17,7.17,0,0,0,2.34-.78c.64-.36.82-.76.38-1s-1.05-.19-2.15.13c-1.6.46-3,.6-4,0s-1.05-1.41-.1-2.23l-1.06-.61,1.1-.64,1,.57a7.34,7.34,0,0,1,2-.72l.94.91a7,7,0,0,0-2,.71c-.72.42-.65.74-.33.91s1,.13,2.29-.22c1.79-.49,2.95-.44,3.95.14s1.14,1.46.08,2.33l1.13.66Z" fill="#ffc554"/>
            </g>
          </g>
          <g id="Grupo_62611" data-name="Grupo 62611">
            <path id="Trazado_227852" data-name="Trazado 227852" d="M216.82,221.59a7.73,7.73,0,0,0-2.63-2.34c-4.52-2.61-11.84-2.61-16.35,0a7.35,7.35,0,0,0-2.83,2.67l-.56-.33V224c0,1.71,1.13,3.42,3.39,4.72,4.51,2.61,11.83,2.61,16.35,0,2.2-1.27,3.32-2.93,3.38-4.59h0v-2.62Z" fill="#f4a42e"/>
            <path id="Trazado_227853" data-name="Trazado 227853" d="M214.19,216.87c4.51,2.6,4.51,6.83,0,9.43s-11.84,2.61-16.35,0-4.52-6.83,0-9.43S209.67,214.26,214.19,216.87Z" fill="#ffeb7a"/>
            <g id="Grupo_62609" data-name="Grupo 62609">
              <path id="Trazado_227854" data-name="Trazado 227854" d="M212.63,217.85a14.49,14.49,0,0,0-13.08,0c-3.61,2.09-3.61,5.47,0,7.56a14.49,14.49,0,0,0,13.08,0C216.24,223.32,216.24,219.94,212.63,217.85Zm-1.15,6.9a11.88,11.88,0,0,1-10.68,0c-3-1.71-3-4.47,0-6.18a11.82,11.82,0,0,1,10.68,0c2.96,1.71,2.96,4.43,0,6.18Z" fill="#f4a42e"/>
              <path id="Trazado_227855" data-name="Trazado 227855" d="M212.63,217.44a14.43,14.43,0,0,0-13.08,0c-3.61,2.08-3.61,5.46,0,7.55a14.49,14.49,0,0,0,13.08,0C216.24,222.9,216.24,219.52,212.63,217.44Zm-1.15,6.88a11.76,11.76,0,0,1-10.68,0c-3-1.7-3-4.46,0-6.17a11.82,11.82,0,0,1,10.68,0c2.96,1.71,2.96,4.47,0,6.17Z" fill="#ffc554"/>
            </g>
            <g id="Grupo_62610" data-name="Grupo 62610">
              <path id="Trazado_227856" data-name="Trazado 227856" d="M210.08,223.29a1.71,1.71,0,0,0,.73-1.15h0v-.8l-.26.06a2.33,2.33,0,0,0-.55-.4c-1-.58-2.15-.61-3.94-.12-1.31.34-1.93.43-2.3.22s-.39-.5.33-.92a6.68,6.68,0,0,1,2-.7v-.75l-.94-.17a7.34,7.34,0,0,0-2,.72l-1-.56-1.09-.12v.75l1.06.61a2,2,0,0,0-.47.52l-.21-.15v.77h0a1.26,1.26,0,0,0,.78,1.08c1.08.63,2.45.48,4,0,1.1-.31,1.73-.37,2.15-.13s.26.66-.38,1-1.69-.09-2.33,0v.75l1,.95a8.429,8.429,0,0,0,2.38-.82l1.06.61,1.09-.64v-.74Z" fill="#f4a42e"/>
              <path id="Trazado_227857" data-name="Trazado 227857" d="M210.13,223.84l-1.06-.61a8.391,8.391,0,0,1-2.38.81l-1-.95a7.2,7.2,0,0,0,2.33-.78c.64-.37.83-.76.38-1s-1.05-.19-2.15.13c-1.59.45-3,.6-4,0s-1.06-1.41-.1-2.24l-1.06-.61,1.09-.62,1,.56a7.34,7.34,0,0,1,2-.72l.94.91a6.49,6.49,0,0,0-2,.71c-.72.42-.64.74-.33.91s1,.13,2.3-.22c1.79-.49,2.94-.44,3.94.14s1.14,1.46.08,2.33l1.14.65Z" fill="#ffc554"/>
            </g>
          </g>
          <g id="Grupo_62614" data-name="Grupo 62614">
            <path id="Trazado_227858" data-name="Trazado 227858" d="M217.91,218.74a7.68,7.68,0,0,0-2.64-2.35c-4.52-2.61-11.84-2.61-16.35,0a7.35,7.35,0,0,0-2.83,2.67l-.55-.34v2.39c0,1.71,1.12,3.42,3.38,4.73,4.51,2.6,11.83,2.6,16.35,0,2.21-1.28,3.33-2.94,3.39-4.6h0v-2.62Z" fill="#f4a42e"/>
            <path id="Trazado_227859" data-name="Trazado 227859" d="M215.27,214c4.52,2.6,4.52,6.83,0,9.43s-11.84,2.61-16.35,0-4.52-6.83,0-9.43S210.75,211.4,215.27,214Z" fill="#ffeb7a"/>
            <g id="Grupo_62612" data-name="Grupo 62612">
              <path id="Trazado_227860" data-name="Trazado 227860" d="M213.72,215a14.49,14.49,0,0,0-13.08,0c-3.61,2.08-3.61,5.47,0,7.56a14.49,14.49,0,0,0,13.08,0C217.33,220.46,217.33,217.07,213.72,215Zm-1.15,6.9a11.9,11.9,0,0,1-10.69,0c-2.95-1.71-2.95-4.48,0-6.18a11.84,11.84,0,0,1,10.69,0c2.95,1.69,2.95,4.46,0,6.17Z" fill="#f4a42e"/>
              <path id="Trazado_227861" data-name="Trazado 227861" d="M213.72,214.58a14.43,14.43,0,0,0-13.08,0c-3.61,2.08-3.61,5.46,0,7.55a14.49,14.49,0,0,0,13.08,0C217.33,220,217.33,216.66,213.72,214.58Zm-1.15,6.89a11.84,11.84,0,0,1-10.69,0c-2.95-1.71-2.95-4.48,0-6.18a11.84,11.84,0,0,1,10.69,0C215.52,217,215.52,219.76,212.57,221.47Z" fill="#ffc554"/>
            </g>
            <g id="Grupo_62613" data-name="Grupo 62613">
              <path id="Trazado_227862" data-name="Trazado 227862" d="M211.16,220.43a1.69,1.69,0,0,0,.74-1.16h0v-.78h-.27a2,2,0,0,0-.55-.45c-1-.58-2.14-.62-3.94-.12-1.3.34-1.93.43-2.29.22s-.39-.5.33-.92a6.64,6.64,0,0,1,2-.71v-.74l-.93-.17a7.111,7.111,0,0,0-2,.72l-1-.57-1.1-.11v.75l1.06.61a2,2,0,0,0-.46.52l-.21-.15v.78h0a1.24,1.24,0,0,0,.77,1.07c1.08.63,2.45.49,4,0,1.1-.32,1.72-.37,2.15-.12s.25.65-.38,1-1.69-.09-2.34,0v.9l1,.95a8.131,8.131,0,0,0,2.37-.81l1.06.61,1.09-.63v-.75Z" fill="#f4a42e"/>
              <path id="Trazado_227863" data-name="Trazado 227863" d="M211.21,221l-1.06-.61a8.481,8.481,0,0,1-2.37.82l-1-1a7.25,7.25,0,0,0,2.34-.78c.63-.37.82-.76.38-1s-1.05-.19-2.15.13c-1.6.45-3,.6-4,0s-1.05-1.42-.1-2.23l-1.06-.62,1.1-.63,1,.57a7.111,7.111,0,0,1,2-.72l.93.91a6.37,6.37,0,0,0-2,.71c-.72.42-.65.73-.33.91s1,.13,2.29-.22c1.8-.49,2.94-.45,3.94.13s1.14,1.47.08,2.34l1.14.65Z" fill="#ffc554"/>
            </g>
          </g>
          <g id="Grupo_62617" data-name="Grupo 62617">
            <path id="Trazado_227864" data-name="Trazado 227864" d="M216.11,215.73a7.75,7.75,0,0,0-2.63-2.35c-4.51-2.6-11.84-2.6-16.35,0a7.36,7.36,0,0,0-2.83,2.68l-.56-.35v2.4c0,1.7,1.13,3.42,3.39,4.72,4.51,2.6,11.84,2.6,16.35,0,2.2-1.28,3.33-2.93,3.38-4.59h0v-2.63Z" fill="#f4a42e"/>
            <path id="Trazado_227865" data-name="Trazado 227865" d="M213.48,211c4.52,2.61,4.52,6.83,0,9.44s-11.84,2.61-16.35,0-4.52-6.83,0-9.44S209,208.39,213.48,211Z" fill="#ffeb7a"/>
            <g id="Grupo_62615" data-name="Grupo 62615">
              <path id="Trazado_227866" data-name="Trazado 227866" d="M211.93,212a14.51,14.51,0,0,0-13.09,0c-3.6,2.09-3.6,5.47,0,7.56a14.45,14.45,0,0,0,13.09,0C215.54,217.45,215.54,214.07,211.93,212Zm-1.15,6.89a11.8,11.8,0,0,1-10.7,0c-2.94-1.7-2.94-4.46,0-6.17a11.86,11.86,0,0,1,10.7,0c2.95,1.69,2.95,4.45,0,6.15Z" fill="#f4a42e"/>
              <path id="Trazado_227867" data-name="Trazado 227867" d="M211.93,211.57a14.45,14.45,0,0,0-13.09,0c-3.6,2.09-3.6,5.46,0,7.55a14.45,14.45,0,0,0,13.09,0C215.54,217,215.54,213.66,211.93,211.57Zm-1.15,6.89a11.86,11.86,0,0,1-10.7,0c-2.94-1.71-2.94-4.47,0-6.17a11.8,11.8,0,0,1,10.7,0C213.73,214,213.73,216.75,210.78,218.46Z" fill="#ffc554"/>
            </g>
            <g id="Grupo_62616" data-name="Grupo 62616">
              <path id="Trazado_227868" data-name="Trazado 227868" d="M209.37,217.43a1.72,1.72,0,0,0,.73-1.15h0v-.8l-.27.05a1.88,1.88,0,0,0-.54-.44c-1-.58-2.15-.63-4-.13-1.3.34-1.92.43-2.3.22s-.38-.5.34-.91a6.59,6.59,0,0,1,2-.71v-.74l-.94-.17a6.8,6.8,0,0,0-2,.72l-1-.57-1.09-.11v.74l1.06.61a2.491,2.491,0,0,0-.47.53l-.2-.16v.78h0a1.28,1.28,0,0,0,.77,1.08c1.08.62,2.46.47,4.05,0,1.1-.31,1.72-.36,2.14-.12s.26.65-.37,1-1.69-.1-2.34,0V218l1,.94a8.13,8.13,0,0,0,2.37-.81l1.06.6,1.09-.63v-.74Z" fill="#f4a42e"/>
              <path id="Trazado_227869" data-name="Trazado 227869" d="M209.42,218l-1.06-.61a8.13,8.13,0,0,1-2.37.81l-1-.95a6.94,6.94,0,0,0,2.34-.78c.63-.36.82-.75.37-1s-1-.18-2.14.13c-1.59.46-3,.6-4.05,0s-1-1.41-.1-2.23l-1.06-.61,1.09-.64,1,.57a7.111,7.111,0,0,1,2-.72l.94.92a6.32,6.32,0,0,0-2,.71c-.72.41-.64.73-.34.91s1,.12,2.3-.22c1.8-.49,2.94-.45,4,.13s1.13,1.47.07,2.33l1.14.66Z" fill="#ffc554"/>
            </g>
          </g>
        </g>
        <g id="Grupo_62628" data-name="Grupo 62628">
          <g id="Grupo_62621" data-name="Grupo 62621">
            <path id="Trazado_227870" data-name="Trazado 227870" d="M189.37,248a17.08,17.08,0,0,1-8.38-2c-2.31-1.34-3.59-3.14-3.59-5.07s1.28-3.74,3.59-5.07a18.47,18.47,0,0,1,16.76,0c2.31,1.33,3.58,3.14,3.58,5.07s-1.27,3.73-3.58,5.07a17.11,17.11,0,0,1-8.38,2Z" opacity="0.3"/>
            <path id="Trazado_227871" data-name="Trazado 227871" d="M200.18,238.55a7.68,7.68,0,0,0-2.64-2.35c-4.51-2.61-11.84-2.61-16.35,0a7.42,7.42,0,0,0-2.83,2.67l-.56-.34v2.39c0,1.71,1.13,3.41,3.39,4.71,4.51,2.62,11.84,2.62,16.35,0,2.21-1.26,3.33-2.92,3.39-4.58h0v-2.62Z" fill="#f4a42e"/>
            <path id="Trazado_227872" data-name="Trazado 227872" d="M197.54,233.81c4.52,2.61,4.52,6.84,0,9.44s-11.84,2.61-16.35,0-4.51-6.83,0-9.44S193,231.2,197.54,233.81Z" fill="#ffeb7a"/>
            <g id="Grupo_62619" data-name="Grupo 62619">
              <path id="Trazado_227873" data-name="Trazado 227873" d="M196,234.8a14.49,14.49,0,0,0-13.08,0c-3.61,2.09-3.61,5.47,0,7.56a14.49,14.49,0,0,0,13.08,0C199.6,240.27,199.6,236.89,196,234.8Zm-1.15,6.89a11.84,11.84,0,0,1-10.69,0c-3-1.7-3-4.46,0-6.17a11.78,11.78,0,0,1,10.69,0c2.94,1.71,2.94,4.48-.01,6.17Z" fill="#f4a42e"/>
              <path id="Trazado_227874" data-name="Trazado 227874" d="M196,234.39a14.43,14.43,0,0,0-13.08,0c-3.61,2.08-3.61,5.46,0,7.55a14.49,14.49,0,0,0,13.08,0C199.6,239.85,199.6,236.47,196,234.39Zm-1.15,6.88a11.78,11.78,0,0,1-10.69,0c-3-1.7-3-4.47,0-6.17a11.84,11.84,0,0,1,10.69,0c2.94,1.7,2.94,4.47-.01,6.17Z" fill="#ffc554"/>
            </g>
            <g id="Grupo_62620" data-name="Grupo 62620">
              <path id="Trazado_227875" data-name="Trazado 227875" d="M193.43,240.24a1.67,1.67,0,0,0,.73-1.16h0v-.79l-.26.06a1.88,1.88,0,0,0-.54-.44c-1-.59-2.16-.63-4-.13-1.3.33-1.92.43-2.29.21s-.39-.49.33-.9a6.729,6.729,0,0,1,2-.72v-.74l-.93-.17a6.9,6.9,0,0,0-2,.72l-1-.57-1.1-.11v.75l1.06.6a2.489,2.489,0,0,0-.47.53l-.21-.15V238h0a1.28,1.28,0,0,0,.78,1.07c1.08.63,2.45.48,4,0,1.11-.31,1.73-.36,2.16-.11s.25.64-.38,1-1.69-.09-2.34,0v.75l1,.94a8.13,8.13,0,0,0,2.37-.81l1.06.61,1.09-.63v-.75Z" fill="#f4a42e"/>
              <path id="Trazado_227876" data-name="Trazado 227876" d="M193.48,240.78l-1.06-.61a7.89,7.89,0,0,1-2.37.82l-1-1a7.17,7.17,0,0,0,2.34-.78c.63-.36.82-.76.38-1s-1.05-.19-2.16.13c-1.59.45-3,.6-4,0s-1-1.41-.1-2.23l-1.06-.61,1.1-.63,1,.57a6.9,6.9,0,0,1,2-.72l.93.91a6.64,6.64,0,0,0-2,.71c-.72.41-.65.73-.33.91s1,.12,2.29-.22c1.79-.49,2.94-.45,4,.13s1.14,1.47.07,2.34l1.14.65Z" fill="#ffc554"/>
            </g>
          </g>
          <g id="Grupo_62624" data-name="Grupo 62624">
            <path id="Trazado_227877" data-name="Trazado 227877" d="M200.58,235.68a7.63,7.63,0,0,0-2.63-2.34c-4.52-2.61-11.84-2.61-16.36,0a7.42,7.42,0,0,0-2.83,2.67l-.55-.34v2.39c0,1.7,1.12,3.42,3.38,4.72,4.52,2.61,11.84,2.61,16.36,0,2.2-1.27,3.32-2.93,3.38-4.59h0v-2.62Z" fill="#f4a42e"/>
            <path id="Trazado_227878" data-name="Trazado 227878" d="M198,231c4.52,2.61,4.52,6.83,0,9.44s-11.84,2.61-16.36,0-4.51-6.83,0-9.44S193.43,228.34,198,231Z" fill="#ffeb7a"/>
            <g id="Grupo_62622" data-name="Grupo 62622">
              <path id="Trazado_227879" data-name="Trazado 227879" d="M196.39,231.94a14.49,14.49,0,0,0-13.08,0c-3.61,2.09-3.61,5.47,0,7.56a14.49,14.49,0,0,0,13.08,0C200,237.41,200,234,196.39,231.94Zm-1.15,6.89a11.84,11.84,0,0,1-10.69,0c-3-1.7-3-4.46,0-6.17a11.78,11.78,0,0,1,10.69,0C198.19,234.37,198.19,237.13,195.24,238.83Z" fill="#f4a42e"/>
              <path id="Trazado_227880" data-name="Trazado 227880" d="M196.39,231.52a14.49,14.49,0,0,0-13.08,0c-3.61,2.09-3.61,5.47,0,7.55a14.43,14.43,0,0,0,13.08,0C200,237,200,233.61,196.39,231.52Zm-1.15,6.89a11.84,11.84,0,0,1-10.69,0c-3-1.7-3-4.47,0-6.17a11.84,11.84,0,0,1,10.69,0C198.19,233.94,198.19,236.71,195.24,238.41Z" fill="#ffc554"/>
            </g>
            <g id="Grupo_62623" data-name="Grupo 62623">
              <path id="Trazado_227881" data-name="Trazado 227881" d="M193.84,237.38a1.77,1.77,0,0,0,.73-1.15h0v-.8l-.27.06a1.73,1.73,0,0,0-.54-.44c-1-.59-2.15-.63-3.94-.13-1.31.34-1.94.43-2.3.21s-.39-.49.34-.91a6.84,6.84,0,0,1,2-.71v-.74l-.94-.17a7.111,7.111,0,0,0-2,.72l-1-.57-1.09-.11v.75l1.05.6a2.671,2.671,0,0,0-.46.53l-.21-.15v.77h0a1.3,1.3,0,0,0,.77,1.08c1.09.62,2.46.48,4.05,0,1.1-.32,1.73-.37,2.15-.13s.26.66-.38,1-1.69-.09-2.34,0v.75l1,.94a8.18,8.18,0,0,0,2.38-.81l1.06.61L195,238v-.75Z" fill="#f4a42e"/>
              <path id="Trazado_227882" data-name="Trazado 227882" d="M193.89,237.92l-1.06-.61a8.23,8.23,0,0,1-2.38.82l-1-.95a7.1,7.1,0,0,0,2.34-.78c.64-.37.82-.76.38-1s-1-.2-2.15.13c-1.59.45-3,.6-4.05,0s-1.05-1.41-.1-2.23l-1.05-.61,1.09-.63,1,.57a6.871,6.871,0,0,1,2-.73l.94.92a6.279,6.279,0,0,0-2,.71c-.73.41-.65.74-.34.91s1,.12,2.3-.22c1.79-.49,2.94-.45,3.94.13s1.14,1.47.08,2.34l1.14.65Z" fill="#ffc554"/>
            </g>
          </g>
          <g id="Grupo_62627" data-name="Grupo 62627">
            <path id="Trazado_227883" data-name="Trazado 227883" d="M199.77,233.06a7.63,7.63,0,0,0-2.63-2.34c-4.52-2.61-11.83-2.61-16.35,0a7.27,7.27,0,0,0-2.83,2.67l-.56-.34v2.38c0,1.71,1.13,3.42,3.39,4.72,4.52,2.62,11.83,2.62,16.35,0,2.2-1.27,3.33-2.92,3.38-4.59h0V233Z" fill="#f4a42e"/>
            <path id="Trazado_227884" data-name="Trazado 227884" d="M197.14,228.33c4.52,2.61,4.52,6.83,0,9.44s-11.83,2.6-16.35,0-4.52-6.83,0-9.44S192.62,225.72,197.14,228.33Z" fill="#ffeb7a"/>
            <g id="Grupo_62625" data-name="Grupo 62625">
              <path id="Trazado_227885" data-name="Trazado 227885" d="M195.58,229.32a14.41,14.41,0,0,0-13.07,0c-3.62,2.09-3.62,5.46,0,7.55a14.41,14.41,0,0,0,13.07,0C199.19,234.78,199.19,231.41,195.58,229.32Zm-1.14,6.89a11.86,11.86,0,0,1-10.7,0c-2.94-1.71-2.94-4.47,0-6.17a11.8,11.8,0,0,1,10.7,0C197.39,231.74,197.39,234.5,194.44,236.21Z" fill="#f4a42e"/>
              <path id="Trazado_227886" data-name="Trazado 227886" d="M195.58,228.9a14.47,14.47,0,0,0-13.07,0c-3.62,2.09-3.62,5.47,0,7.56a14.47,14.47,0,0,0,13.07,0C199.19,234.37,199.19,231,195.58,228.9Zm-1.14,6.88a11.74,11.74,0,0,1-10.7,0c-2.94-1.69-2.94-4.46,0-6.16a11.8,11.8,0,0,1,10.7,0C197.39,231.32,197.39,234.09,194.44,235.78Z" fill="#ffc554"/>
            </g>
            <g id="Grupo_62626" data-name="Grupo 62626">
              <path id="Trazado_227887" data-name="Trazado 227887" d="M193,234.76a1.73,1.73,0,0,0,.73-1.16h0v-.79l-.27.05a2,2,0,0,0-.54-.44c-1-.58-2.15-.62-4-.13-1.3.35-1.92.43-2.3.22s-.39-.49.34-.91a6.64,6.64,0,0,1,2-.71v-.75l-.93-.16a6.76,6.76,0,0,0-2,.72l-1-.57L184,230v.74l1.06.61a2.49,2.49,0,0,0-.47.53l-.21-.15v.77h0a1.31,1.31,0,0,0,.78,1.09c1.08.62,2.45.48,4,0,1.11-.32,1.73-.37,2.15-.13s.26.65-.37,1-1.7-.1-2.34,0v.74l1,.95a7.85,7.85,0,0,0,2.38-.82l1.06.61,1.09-.63v-.74Z" fill="#f4a42e"/>
              <path id="Trazado_227888" data-name="Trazado 227888" d="M193.08,235.3l-1.06-.61a8.43,8.43,0,0,1-2.38.82l-1-.95a7.5,7.5,0,0,0,2.34-.78c.63-.37.82-.76.37-1s-1-.19-2.15.12c-1.59.46-3,.61-4,0s-1.06-1.41-.1-2.23L184,230l1.09-.63,1,.56a7.39,7.39,0,0,1,2-.72l.93.91a6.94,6.94,0,0,0-2,.71c-.73.42-.65.74-.34.92s1,.12,2.3-.22a5.009,5.009,0,0,1,4,.13c1.06.57,1.13,1.47.07,2.34l1.14.65Z" fill="#ffc554"/>
            </g>
          </g>
        </g>
      </g>
    </g>
  </g>
</svg>
