<svg xmlns="http://www.w3.org/2000/svg" width="439.12" height="486.17" viewBox="0 0 439.12 486.17">
  <g id="Grupo_124800" data-name="Grupo 124800" transform="translate(-245.88 -8031.615)">
    <g id="CF8_1.3_Mercado_de_divisas_1_copia" data-name="CF8_1.3 Mercado de divisas 1 copia" transform="translate(215.44 8024.915)">
      <g id="Layer_1" data-name="Layer 1">
        <g id="Grupo_62409" data-name="Grupo 62409">
          <path id="Trazado_131947" data-name="Trazado 131947" d="M299.84,397.3l17.13,23.13,88.14-21.76-17.15-23.42Z" fill="#556bf7" opacity="0.2"/>
          <path id="Trazado_131948" data-name="Trazado 131948" d="M389.51,330.6c20,3.9,61.06,11.77,61.06,11.77L441,358.15,250.26,321.54,259.11,307c.13-.18.26-.4.4-.62A1.76,1.76,0,0,1,260,306a.55.55,0,0,1,.44-.09c17.52,3.36,40.35,7.63,57.87,11l4.7.9q30.93,5.91,61.79,11.87Z" fill="#556bf7" opacity="0.2"/>
          <ellipse id="Elipse_4347" data-name="Elipse 4347" cx="72.48" cy="41.84" rx="72.48" ry="41.84" transform="translate(140.95 409.19)" fill="#556bf7" opacity="0.2"/>
          <path id="Trazado_131949" data-name="Trazado 131949" d="M204.64,252.77,46.76,343.93V97.86L204.64,6.7Z" fill="#dde6f5"/>
          <rect id="Rectángulo_7195" data-name="Rectángulo 7195" width="2.24" height="186.67" transform="translate(150.04 81.98)" fill="#abb8de"/>
          <g id="Grupo_62374" data-name="Grupo 62374">
            <rect id="Rectángulo_7196" data-name="Rectángulo 7196" width="2.24" height="175.46" transform="translate(126.45 107.47)" fill="#abb8de"/>
            <rect id="Rectángulo_7197" data-name="Rectángulo 7197" width="2.24" height="196.51" transform="translate(108.76 97.21)" fill="#abb8de"/>
            <rect id="Rectángulo_7198" data-name="Rectángulo 7198" width="2.24" height="186.33" transform="translate(91.07 118.19)" fill="#abb8de"/>
            <rect id="Rectángulo_7199" data-name="Rectángulo 7199" width="2.24" height="170.84" transform="translate(71.34 144.229) rotate(-1.146)" fill="#abb8de"/>
          </g>
          <rect id="Rectángulo_7200" data-name="Rectángulo 7200" width="2.24" height="201.13" transform="translate(168.18 57.6)" fill="#abb8de"/>
          <path id="Trazado_131950" data-name="Trazado 131950" d="M166.09,95.7l6.43-3.71v64.79l-6.43,3.71Z" fill="#41436e"/>
          <path id="Trazado_131951" data-name="Trazado 131951" d="M148,144.78l6.43-3.72v64.79L148,209.56Z" fill="#41436e"/>
          <path id="Trazado_131952" data-name="Trazado 131952" d="M124.36,126.9l6.43-3.71v64.79l-6.43,3.71Z" fill="#41436e"/>
          <path id="Trazado_131953" data-name="Trazado 131953" d="M106.66,121.53l6.44-3.71V182.6l-6.44,3.71Z" fill="#41436e"/>
          <path id="Trazado_131954" data-name="Trazado 131954" d="M88.97,142.54l6.44-3.71v64.79l-6.44,3.71Z" fill="#41436e"/>
          <path id="Trazado_131955" data-name="Trazado 131955" d="M69.41,170.24l6.43-3.71v64.79l-6.43,3.71Z" fill="#41436e"/>
          <g id="Grupo_62378" data-name="Grupo 62378">
            <path id="Trazado_131956" data-name="Trazado 131956" d="M132.51,334.84,30.44,397.78V234.1l102.07-62.94Z" fill="#f3f7ff"/>
            <g id="Grupo_62376" data-name="Grupo 62376">
              <g id="Grupo_62375" data-name="Grupo 62375">
                <path id="Trazado_131957" data-name="Trazado 131957" d="M116.64,247,78.69,289.77V246.45C95,237,109.25,237.85,116.64,247Z" fill="#9182ca"/>
                <path id="Trazado_131958" data-name="Trazado 131958" d="M78.69,289.76s-10.18,24.41-20.83,50c-13.4.37-22.47-8.64-22.47-25a59.09,59.09,0,0,1,3.51-19.13Z" fill="#5580ff"/>
                <path id="Trazado_131959" data-name="Trazado 131959" d="M122,264.76c0,16.11-8.79,35.23-21.83,50.22-10.78-12.59-21.49-25.21-21.49-25.21l38-42.82C120.06,251.18,122,257.17,122,264.76Z" fill="#ff526e"/>
                <path id="Trazado_131960" data-name="Trazado 131960" d="M78.69,246.45v43.32L65,256.6a80,80,0,0,1,13.69-10.15Z" fill="#5580ff"/>
                <path id="Trazado_131961" data-name="Trazado 131961" d="M100.18,315a86.21,86.21,0,0,1-21.49,18.1c-7.55,4.37-14.65,6.53-20.84,6.69,10.66-25.6,20.84-50,20.84-50S89.4,302.39,100.18,315Z" fill="#9182ca"/>
              </g>
              <path id="Trazado_131962" data-name="Trazado 131962" d="M78.69,289.76,38.9,295.64c4.84-14.06,14.34-28.35,26.06-39Z" fill="#ffc15c"/>
            </g>
            <path id="Trazado_131963" data-name="Trazado 131963" d="M112.33,215.69,45.06,254.53V243.29l67.27-38.84Z" fill="#58598c"/>
            <g id="Grupo_62377" data-name="Grupo 62377">
              <path id="Trazado_131964" data-name="Trazado 131964" d="M67.45,363.22l-15.23,9.46V357.31l15.23-9.46Z" fill="#5580ff"/>
              <path id="Trazado_131965" data-name="Trazado 131965" d="M86.46,351.7l-15.52,9.34V345.67l15.52-9.34Z" fill="#9182ca"/>
              <path id="Trazado_131966" data-name="Trazado 131966" d="M105.17,340.79,89.8,349.66V334.29l15.37-8.87Z" fill="#ff526e"/>
            </g>
          </g>
          <g id="Grupo_62379" data-name="Grupo 62379">
            <path id="Trazado_131967" data-name="Trazado 131967" d="M276.72,417.54,251.29,447v36a114.349,114.349,0,0,1-37.86,6.18c-18.57,0-37.12-4.1-51.29-12.27S140.91,458,140.91,447.23V422.66l21.23-.79Z" fill="#87d683"/>
            <path id="Trazado_131968" data-name="Trazado 131968" d="M285.94,417.2v30a27.16,27.16,0,0,1-5.32,15.8V443.65l-22-5.17,18.11-20.94,3.9-.14Z" fill="#87d683"/>
            <path id="Trazado_131969" data-name="Trazado 131969" d="M280.62,443.65a42.3,42.3,0,0,1-8.36,8.71,59.437,59.437,0,0,1-7.54,5.12,80.148,80.148,0,0,1-13.43,6.11V447l7.32-8.48Z" fill="#759a65"/>
            <path id="Trazado_131970" data-name="Trazado 131970" d="M263.63,380.29l-50.2,30.21-24.61-39.38a120.79,120.79,0,0,1,24.61-2.49C231.53,368.63,249.59,372.5,263.63,380.29Z" fill="#5580ff"/>
            <path id="Trazado_131971" data-name="Trazado 131971" d="M280.62,438.44c-3.53,5-8.84,9.75-15.9,13.83-14.18,8.17-32.73,12.27-51.29,12.27s-37.12-4.1-51.29-12.27l51.29-29.61Z" fill="#ff9a65"/>
            <path id="Trazado_131972" data-name="Trazado 131972" d="M188.82,383.28l24.61,39.38-51.29,29.61c-14.16-8.18-21.23-18.9-21.23-29.61s7.07-21.44,21.23-29.6A89.511,89.511,0,0,1,188.82,383.28Z" fill="#ff8e65"/>
            <path id="Trazado_131973" data-name="Trazado 131973" d="M280.62,433v10.67c-3.44,2.12-4.93,4-8.36,6.7l-58.83-13.83V417.2Z" fill="#5bb85c"/>
            <path id="Trazado_131974" data-name="Trazado 131974" d="M188.82,371.12v12.16l24.61,39.38V410.5Z" fill="#2f3cc2"/>
            <path id="Trazado_131975" data-name="Trazado 131975" d="M263.63,380.29v6.69l-50.2,30.21V410.5Z" fill="#7ba4ff"/>
            <path id="Trazado_131976" data-name="Trazado 131976" d="M162.14,421.63v30.64c-14.16-8.18-21.23-18.9-21.23-29.61v-.52l16.43-.56Z" fill="#759a65"/>
            <path id="Trazado_131977" data-name="Trazado 131977" d="M213.43,422.66V442S167,469.85,162.14,467.07V421.63Z" fill="#ffdb76"/>
            <path id="Trazado_131978" data-name="Trazado 131978" d="M251.29,473.18a114.86,114.86,0,0,1-37.86,6.16A116.249,116.249,0,0,1,178.06,474h0a83.7,83.7,0,0,1-15.9-6.94l51.29-29.61Z" fill="#61c262"/>
            <path id="Trazado_131979" data-name="Trazado 131979" d="M213.43,427.87v9.59l37.86,35.72v-9.59Z" fill="#f74563"/>
            <path id="Trazado_131980" data-name="Trazado 131980" d="M286,417.19A27.3,27.3,0,0,1,280.62,433l-67.19-15.78L263.63,387l1.09.6C278.87,395.75,286,406.46,286,417.19Z" fill="#6ac967"/>
            <path id="Trazado_131981" data-name="Trazado 131981" d="M162.14,421.87v55C148,468.66,140.91,458,140.91,447.23V422.66Z" fill="#ffab57"/>
            <path id="Trazado_131982" data-name="Trazado 131982" d="M213.43,422.66l-51.29,29.61c-14.16-8.18-21.23-18.9-21.23-29.61s7.07-21.44,21.23-29.6a89.51,89.51,0,0,1,26.68-9.78Z" fill="#ffc15c"/>
            <path id="Trazado_131983" data-name="Trazado 131983" d="M280.62,443.65V463c-3.53,5.05-8.82,9.74-15.9,13.85a79.273,79.273,0,0,1-13.43,6.08V463.59a80.149,80.149,0,0,0,13.43-6.11,59.435,59.435,0,0,0,7.54-5.12A42.3,42.3,0,0,0,280.62,443.65Z" fill="#fd7d86"/>
            <path id="Trazado_131984" data-name="Trazado 131984" d="M280.62,443.65a42.3,42.3,0,0,1-8.36,8.71,59.437,59.437,0,0,1-7.54,5.12,80.148,80.148,0,0,1-13.43,6.11l-37.86-35.72,45.18,10.61Z" fill="#ff526e"/>
          </g>
          <g id="Grupo_62384" data-name="Grupo 62384">
            <rect id="Rectángulo_7201" data-name="Rectángulo 7201" width="150.93" height="100.62" transform="translate(419.26 81.98) rotate(90)" fill="#80acff"/>
            <g id="Grupo_62382" data-name="Grupo 62382">
              <g id="Grupo_62380" data-name="Grupo 62380">
                <path id="Trazado_131985" data-name="Trazado 131985" d="M335.69,108c-6.22,0-11.27-3.49-11.27-7.78s5.05-7.78,11.27-7.78S347,96,347,100.25,341.9,108,335.69,108Zm0-14.44c-5.6,0-10.15,3-10.15,6.66s4.55,6.66,10.15,6.66,10.14-3,10.14-6.66-4.55-6.63-10.14-6.63Z" fill="#fff"/>
                <path id="Trazado_131986" data-name="Trazado 131986" d="M402.2,108c-6.21,0-11.26-3.49-11.26-7.78s5.05-7.78,11.26-7.78,11.27,3.49,11.27,7.78S408.42,108,402.2,108Zm0-14.44c-5.59,0-10.14,3-10.14,6.66s4.55,6.66,10.14,6.66,10.15-3,10.15-6.66-4.55-6.63-10.15-6.63Z" fill="#fff"/>
              </g>
              <g id="Grupo_62381" data-name="Grupo 62381">
                <path id="Trazado_131987" data-name="Trazado 131987" d="M335.69,222.41c-6.22,0-11.27-3.49-11.27-7.78s5.05-7.78,11.27-7.78S347,210.34,347,214.63,341.9,222.41,335.69,222.41Zm0-14.44c-5.6,0-10.15,3-10.15,6.66s4.55,6.66,10.15,6.66,10.14-3,10.14-6.66S341.28,208,335.69,208Z" fill="#fff"/>
                <path id="Trazado_131988" data-name="Trazado 131988" d="M402.2,222.41c-6.21,0-11.26-3.49-11.26-7.78s5.05-7.78,11.26-7.78,11.27,3.49,11.27,7.78S408.42,222.41,402.2,222.41Zm0-14.44c-5.59,0-10.14,3-10.14,6.66s4.55,6.66,10.14,6.66,10.15-3,10.15-6.66S407.8,208,402.2,208Z" fill="#fff"/>
              </g>
            </g>
            <g id="Grupo_62383" data-name="Grupo 62383">
              <path id="Trazado_131989" data-name="Trazado 131989" d="M338.26,195h-5.15V120.11h5.15Zm-4-1.12h2.91V121.23h-2.91Z" fill="#fff"/>
              <path id="Trazado_131990" data-name="Trazado 131990" d="M404.78,194.77h-5.15V119.85h5.15Zm-4-1.12h2.91V121h-2.91Z" fill="#fff"/>
              <path id="Trazado_131991" data-name="Trazado 131991" d="M367.81,189.08c-9.71,0-17.61-14.13-17.61-31.51s7.9-31.51,17.61-31.51,17.61,14.13,17.61,31.51S377.52,189.08,367.81,189.08Zm0-61.9c-9.09,0-16.49,13.63-16.49,30.39S358.72,188,367.81,188s16.49-13.63,16.49-30.39S376.9,127.18,367.81,127.18Z" fill="#fff"/>
            </g>
          </g>
          <g id="Grupo_62389" data-name="Grupo 62389">
            <rect id="Rectángulo_7202" data-name="Rectángulo 7202" width="150.93" height="100.62" transform="translate(469.56 101.96) rotate(90)" fill="#ffc15c"/>
            <g id="Grupo_62387" data-name="Grupo 62387">
              <g id="Grupo_62385" data-name="Grupo 62385">
                <path id="Trazado_131992" data-name="Trazado 131992" d="M386,128c-6.21,0-11.26-3.49-11.26-7.78s5-7.78,11.26-7.78,11.27,3.49,11.27,7.78S392.2,128,386,128Zm0-14.44c-5.59,0-10.14,3-10.14,6.66s4.55,6.66,10.14,6.66,10.15-3,10.15-6.66-4.56-6.64-10.15-6.64Z" fill="#fff"/>
                <path id="Trazado_131993" data-name="Trazado 131993" d="M452.51,128c-6.21,0-11.26-3.49-11.26-7.78s5.05-7.78,11.26-7.78,11.27,3.49,11.27,7.78S458.72,128,452.51,128Zm0-14.44c-5.59,0-10.14,3-10.14,6.66s4.55,6.66,10.14,6.66,10.15-3,10.15-6.66-4.55-6.64-10.15-6.64Z" fill="#fff"/>
              </g>
              <g id="Grupo_62386" data-name="Grupo 62386">
                <path id="Trazado_131994" data-name="Trazado 131994" d="M386,242.4c-6.21,0-11.26-3.49-11.26-7.78s5-7.78,11.26-7.78,11.27,3.49,11.27,7.78S392.2,242.4,386,242.4Zm0-14.4c-5.59,0-10.14,3-10.14,6.66s4.55,6.66,10.14,6.66,10.15-3,10.15-6.66S391.59,228,386,228Z" fill="#fff"/>
                <path id="Trazado_131995" data-name="Trazado 131995" d="M452.51,242.4c-6.21,0-11.26-3.49-11.26-7.78s5.05-7.78,11.26-7.78,11.27,3.49,11.27,7.78S458.72,242.4,452.51,242.4Zm0-14.44c-5.59,0-10.14,3-10.14,6.66s4.55,6.66,10.14,6.66,10.15-3,10.15-6.66S458.11,228,452.51,228Z" fill="#fff"/>
              </g>
            </g>
            <g id="Grupo_62388" data-name="Grupo 62388">
              <path id="Trazado_131996" data-name="Trazado 131996" d="M388.57,215h-5.15V140.1h5.15Zm-4-1.12h2.91V141.22h-2.91Z" fill="#fff"/>
              <path id="Trazado_131997" data-name="Trazado 131997" d="M455.09,214.76h-5.15V139.84h5.15Zm-4-1.12H454V141h-2.91Z" fill="#fff"/>
              <path id="Trazado_131998" data-name="Trazado 131998" d="M418.12,209.07c-9.71,0-17.61-14.14-17.61-31.51S408.41,146,418.12,146s17.61,14.14,17.61,31.52S427.83,209.07,418.12,209.07Zm0-61.91c-9.1,0-16.49,13.64-16.49,30.4S409,208,418.12,208s16.49-13.64,16.49-30.39S427.21,147.16,418.12,147.16Z" fill="#fff"/>
            </g>
          </g>
          <g id="Grupo_62390" data-name="Grupo 62390">
            <path id="Trazado_131999" data-name="Trazado 131999" d="M266.97,306.79,237.6,323.74l-29.36-16.95,29.36-16.96Z" fill="#556bf7" opacity="0.2"/>
            <path id="Trazado_132000" data-name="Trazado 132000" d="M266.65,118.19l-28.04,16.19-28.04-16.19L238.61,102Z" fill="#a7e5a4"/>
            <path id="Trazado_132001" data-name="Trazado 132001" d="M238.61,134.38V321.33l28.04-16.19V118.19Z" fill="#87d683"/>
            <path id="Trazado_132002" data-name="Trazado 132002" d="M238.61,134.38V321.33l-28.04-16.19V118.19Z" fill="#61c262"/>
          </g>
          <g id="Grupo_62391" data-name="Grupo 62391">
            <path id="Trazado_132003" data-name="Trazado 132003" d="M229.16,327.38l-29.37,16.95-29.37-16.95,29.37-16.96Z" fill="#556bf7" opacity="0.2"/>
            <path id="Trazado_132004" data-name="Trazado 132004" d="M230.08,161.37l-28.04,16.19L174,161.37l28.04-16.19Z" fill="#ffc15c"/>
            <path id="Trazado_132005" data-name="Trazado 132005" d="M202.04,177.56V342.48l28.04-16.19V161.37Z" fill="#ffdb76"/>
            <path id="Trazado_132006" data-name="Trazado 132006" d="M202.04,177.56V342.48L174,326.29V161.37Z" fill="#ffab57"/>
          </g>
          <g id="Grupo_62392" data-name="Grupo 62392">
            <path id="Trazado_132007" data-name="Trazado 132007" d="M386.26,219.32c20,3.9,40.33,7.8,61.56,11.87a.435.435,0,0,1-.13.05,1.22,1.22,0,0,0-.54.36,8.9,8.9,0,0,0-.54.76l-6.18,10.71a13.458,13.458,0,0,0-1,2.24,29.813,29.813,0,0,0-1.08,4.84,22.531,22.531,0,0,0-.13,2.46V321a4.7,4.7,0,0,1-.59,2.2,4.41,4.41,0,0,1-2.28,1.93,6.84,6.84,0,0,1-3.77.31L259.32,292.31a9.828,9.828,0,0,1-2.42-.85,7.71,7.71,0,0,1-2.42-1.93,7.069,7.069,0,0,1-1.17-1.74,5.51,5.51,0,0,1-.62-2.47V216.9a23.37,23.37,0,0,1,.18-2.46,29.431,29.431,0,0,1,1.07-4.8,9.661,9.661,0,0,1,1-2.28l6.18-10.71c.13-.18.27-.41.4-.63a1.9,1.9,0,0,1,.45-.4.54.54,0,0,1,.45-.09q26.28,5,52.6,10.12l4.71.9q30.91,5.91,61.79,11.87Z" fill="#494a7d"/>
            <path id="Trazado_132008" data-name="Trazado 132008" d="M447.91,231.19v.05s0-.05-.09-.05Z" fill="#494a7d"/>
            <path id="Trazado_132009" data-name="Trazado 132009" d="M440.28,354.5a1.07,1.07,0,0,0,.42.65.52.52,0,0,0,.13.06h0l-185.47-35.7c-.27,0-.44-.33-.55-.59a3.15,3.15,0,0,1-.25-1.06,10.534,10.534,0,0,1-.09-1.38v-27a8.07,8.07,0,0,0,2.43,1.93,8.731,8.731,0,0,0,2.42.85l172.27,33.16a6.87,6.87,0,0,0,3.78-.29,4.59,4.59,0,0,0,2.28-1.95c.57-1,1.15-2,1.72-3v-.07a4.163,4.163,0,0,0,.25-.52,4.3,4.3,0,0,0,.29-1.12,5.471,5.471,0,0,0,0-.58v34.22a11,11,0,0,0,.06,1.29A5,5,0,0,0,440.28,354.5Z" fill="#41436e"/>
            <path id="Trazado_132010" data-name="Trazado 132010" d="M439.37,320.26c-.57,1-1.15,2-1.72,3a4.45,4.45,0,0,0,.57-2.19V252.61a18.482,18.482,0,0,1,.16-2.46,28.618,28.618,0,0,1,1.06-4.82,11.311,11.311,0,0,1,1-2.25l6.18-10.71a4.58,4.58,0,0,1,.56-.77,1.16,1.16,0,0,1,.53-.38.45.45,0,0,1,.23,0,.419.419,0,0,1,.19.06,1.18,1.18,0,0,1,.41.65,5.207,5.207,0,0,1,.22,1,11.2,11.2,0,0,1,.07,1.3V336.89a18.226,18.226,0,0,1-.16,2.45,27.808,27.808,0,0,1-1.07,4.83,11,11,0,0,1-1,2.25l-4.42,7.65a3.679,3.679,0,0,1-.56.77,1,1,0,0,1-.53.37.61.61,0,0,1-.27,0,.521.521,0,0,1-.13-.06,1.07,1.07,0,0,1-.42-.65,5,5,0,0,1-.23-1,11,11,0,0,1-.06-1.29V318a5.471,5.471,0,0,1,0,.58,4.3,4.3,0,0,1-.29,1.12,4.159,4.159,0,0,1-.25.52Z" fill="#58598c"/>
            <path id="Trazado_132011" data-name="Trazado 132011" d="M392.06,222.57v2.28l-3.09,5.35v-2.28Z" fill="#ffde95"/>
            <path id="Trazado_132012" data-name="Trazado 132012" d="M392.06,222.57l-3.09,5.35-13.25-2.55,3.09-5.36Z" fill="#ffc15c"/>
            <path id="Trazado_132013" data-name="Trazado 132013" d="M388.97,227.92v2.28l-13.25-2.55v-2.28Z" fill="#ffab57"/>
            <path id="Trazado_132014" data-name="Trazado 132014" d="M386.26,221.44v1L384.18,226V214.63a6.52,6.52,0,0,0-.74-3,9.85,9.85,0,0,0-4.3-4.38,10.541,10.541,0,0,0-2.91-1L323,196a8.05,8.05,0,0,0-4.53.34,5.48,5.48,0,0,0-2.72,2.3c.69-1.2,1.37-2.4,2.07-3.59a4.88,4.88,0,0,1,1.37-1.5,6.48,6.48,0,0,1,3.83-1.32,10.808,10.808,0,0,1,2.06.17l53.26,10.25a10.82,10.82,0,0,1,2.92,1,9.75,9.75,0,0,1,4.29,4.39,6.34,6.34,0,0,1,.75,2.95V221.4Z" fill="#58598c"/>
            <path id="Trazado_132015" data-name="Trazado 132015" d="M357.98,311.29v2.3l-2.66,4.6v-11.4l.89-1.54v5.7Z" fill="#ffdb76"/>
            <path id="Trazado_132016" data-name="Trazado 132016" d="M356.21,305.25l-.89,1.54-21.49-4.14.88-1.53Z" fill="#ffc15c"/>
            <path id="Trazado_132017" data-name="Trazado 132017" d="M355.32,306.79v11.4l-21.49-4.14v-11.4Z" fill="#ffab57"/>
            <path id="Trazado_132018" data-name="Trazado 132018" d="M325.81,209.81v2.28l-3.1,5.36v-2.28Z" fill="#ffde95"/>
            <path id="Trazado_132019" data-name="Trazado 132019" d="M325.81,209.81l-3.1,5.36-13.25-2.55,3.09-5.36Z" fill="#ffc15c"/>
            <path id="Trazado_132020" data-name="Trazado 132020" d="M322.71,215.17v2.28l-13.25-2.55v-2.28Z" fill="#ffab57"/>
            <path id="Trazado_132021" data-name="Trazado 132021" d="M319.73,208.65v1l-2.07,3.6V201.83a3.53,3.53,0,0,1,.46-1.76h0a3.59,3.59,0,0,1,1.61-1.45v10Z" fill="#58598c"/>
            <path id="Trazado_132022" data-name="Trazado 132022" d="M319.73,198.61a3.59,3.59,0,0,0-1.61,1.45h0a3.53,3.53,0,0,0-.46,1.76v11.39l-2.65-.51V201.32a5.33,5.33,0,0,1,.68-2.64h0a5.48,5.48,0,0,1,2.72-2.3A8.05,8.05,0,0,1,323,196l53.27,10.25a10.539,10.539,0,0,1,2.91,1,9.85,9.85,0,0,1,4.3,4.38,6.52,6.52,0,0,1,.74,3V226l-2.66-.51V214.12a4.37,4.37,0,0,0-.48-2,6.54,6.54,0,0,0-2.87-2.92,6.83,6.83,0,0,0-1.94-.69L323,198.29a5.37,5.37,0,0,0-3,.23Z" fill="#41436e"/>
          </g>
          <g id="Grupo_62395" data-name="Grupo 62395">
            <g id="Grupo_62393" data-name="Grupo 62393">
              <path id="Trazado_132023" data-name="Trazado 132023" d="M301.45,390.35v6.05l17.13,23.13v-6.05Z" fill="#61c262"/>
              <path id="Trazado_132024" data-name="Trazado 132024" d="M301.45,390.35l17.13,23.13,88.14-21.76L389.57,368.3Z" fill="#9182ca"/>
              <path id="Trazado_132025" data-name="Trazado 132025" d="M318.58,413.48v6.05l88.14-21.75v-6.06Z" fill="#87d683"/>
            </g>
            <path id="Trazado_132026" data-name="Trazado 132026" d="M304.37,378.25l14.22,23.78,90.61-18.07-14.22-23.77Z" fill="#87d683"/>
            <g id="Grupo_62394" data-name="Grupo 62394">
              <path id="Trazado_132027" data-name="Trazado 132027" d="M374.05,354.42,406,371.55l-65.29,40.53L308.77,395Z" fill="#61c262"/>
              <path id="Trazado_132028" data-name="Trazado 132028" d="M361.11,393.46a33.841,33.841,0,0,1-9.38-1.31c-4.83-.92-10.93-5.36-11.79-9.91-.34-1.83,0-4.48,3.64-6.74h0c5.78-3,13.85-3.33,20.55-.94,5.09,1.82,8.73,5,10.54,9.1l.05.19a7.73,7.73,0,0,1-3,6.86C369.17,392.72,365.13,393.46,361.11,393.46Zm-17-17c-2.46,1.55-3.51,3.42-3.1,5.57.76,4.06,6.51,8.19,10.95,9,5.24,1.6,14.58,2.25,19.09-1.25a6.64,6.64,0,0,0,2.55-5.82c-2.14-4.79-6.53-7.21-9.85-8.39-6.28-2.22-14.17-1.87-19.6.89Z" fill="#87d683"/>
            </g>
          </g>
          <g id="Grupo_62396" data-name="Grupo 62396">
            <path id="Trazado_132029" data-name="Trazado 132029" d="M193.93,349.5l-29.37,16.96L135.19,349.5l29.37-16.95Z" fill="#556bf7" opacity="0.2"/>
            <path id="Trazado_132030" data-name="Trazado 132030" d="M193.27,226.75l-28.03,16.19L137.2,226.75l28.04-16.19Z" fill="#ff526e"/>
            <path id="Trazado_132031" data-name="Trazado 132031" d="M165.24,242.94V363.8l28.03-16.18V226.75Z" fill="#fd7d86"/>
            <path id="Trazado_132032" data-name="Trazado 132032" d="M165.24,242.94V363.8L137.2,347.62V226.75Z" fill="#f74563"/>
          </g>
          <path id="Trazado_132033" data-name="Trazado 132033" d="M193.07,69.34l-8.42,1.3,1.67,1.92-41.96,36.36-6.13,30.18H107.81L60.82,193.02l3.32,2.9,45.68-52.41h32.01l6.55-32.25L189.2,75.89l1.81,2.09Z" fill="#ff526e"/>
          <path id="Trazado_132034" data-name="Trazado 132034" d="M156.73,369.62l-29.37,16.96L98,369.62l29.36-16.95Z" fill="#556bf7" opacity="0.2"/>
          <g id="Grupo_62397" data-name="Grupo 62397">
            <path id="Trazado_132035" data-name="Trazado 132035" d="M156.59,306.68l-28.03,16.19-28.04-16.19,28.04-16.18Z" fill="#5580ff"/>
            <path id="Trazado_132036" data-name="Trazado 132036" d="M128.56,322.87V385l28.03-16.19V306.68Z" fill="#80acff"/>
            <path id="Trazado_132037" data-name="Trazado 132037" d="M128.56,322.87V385l-28.04-16.19V306.68Z" fill="#2f3cc2"/>
          </g>
          <ellipse id="Elipse_4348" data-name="Elipse 4348" cx="19.84" cy="11.45" rx="19.84" ry="11.45" transform="translate(160.41 404.97)" fill="#556bf7" opacity="0.2"/>
          <g id="Grupo_62400" data-name="Grupo 62400">
            <g id="Grupo_62398" data-name="Grupo 62398">
              <path id="Trazado_132038" data-name="Trazado 132038" d="M159,342s-.87,5.53-.52,6.4,2.13,5.27,3.44,6.05a7.19,7.19,0,0,0,3.36.69l1.89-1.64V342.88l-3.69-3.34-3.53,1.09Z" fill="#f3c1be"/>
              <path id="Trazado_132039" data-name="Trazado 132039" d="M172.26,284.2a7.26,7.26,0,0,1-.42,2.9l11.29,6.66s.31-5,.48-6.65c.06-.6.88-1.07.88-1.07a13.474,13.474,0,0,0,2,0A24.19,24.19,0,0,0,190,274.6v-1.23c-.2-6-4-9.94-10.81-9.94-6.15,0-8.74,6-9.54,10s1.21,6,2.16,8.65a7,7,0,0,1,.45,2.12Z" fill="#f3c1be"/>
              <path id="Trazado_132040" data-name="Trazado 132040" d="M164.66,404.19a44.341,44.341,0,0,0,.07,6.88s1,2.84,4.49,1.8c0,0,3-2.11,3.15-2.35a12.527,12.527,0,0,0,.3-1.58s1.26-.24,4-1,7.21-3.85,7-4.44a5.2,5.2,0,0,0-3.36-2H171Z" fill="#393b5c"/>
              <path id="Trazado_132041" data-name="Trazado 132041" d="M201.13,417.55c.1.28-1,2.63-4,4.3a11.07,11.07,0,0,1-6.72,1.24,16.53,16.53,0,0,0-4.17,0,4.29,4.29,0,0,1-.14,1.12c-.11.18-5.84,1.31-7.66-.13s-.47-8.19.15-8.51c1.51-.79,7-1.73,8.32-.75,1.52,1.09,8.68,1.91,11.87,1.43S201.13,417.55,201.13,417.55Z" fill="#393b5c"/>
              <path id="Trazado_132042" data-name="Trazado 132042" d="M177.83,343.9l-10.7,3.22S166,349.9,166,358.66a94.37,94.37,0,0,1-2,18.51,25.8,25.8,0,0,0-.6,5.51c.12,5.78,0,20.8,0,20.8a2.87,2.87,0,0,0,1.69,2.36,9.07,9.07,0,0,0,8.18,0,2.87,2.87,0,0,0,1.69-2.36s-2.62-17.26,2.83-33.43S177.83,343.9,177.83,343.9Z" fill="#393b5c"/>
              <path id="Trazado_132043" data-name="Trazado 132043" d="M190.23,377.84c3.19-11.56,4.82-19.5,2.06-31.29l-15.86,8.58c-.12.17,1.26,18.11,1.4,22.95s-2.25,7.91-1.41,17.23,1.4,20.61,1.41,20.34h0a2.88,2.88,0,0,0,1.68,2.3,9.07,9.07,0,0,0,8.18,0,2.87,2.87,0,0,0,1.69-2.36S187.05,389.4,190.23,377.84Z" fill="#41436e"/>
              <path id="Trazado_132044" data-name="Trazado 132044" d="M167.13,301.37a52,52,0,0,0-1.88-13.23s-5.4.6-5.71,6.85c-.33,6.56-1.47,46.56-1.47,46.56a1.88,1.88,0,0,0,1.12,1.55,6,6,0,0,0,5.39,0,1.89,1.89,0,0,0,1.11-1.55S167.13,308.31,167.13,301.37Z" fill="#393b5c"/>
              <path id="Trazado_132045" data-name="Trazado 132045" d="M162.19,303.75c1,6.74,3.42,26.21,3.07,30.4-.33,4,.08,13.66.13,14.21,0,0,.05,1,.06,1,.06,2,1.43,4,4.11,5.59,4.85,2.8,12.37,3.12,17.84,1a15.22,15.22,0,0,0,2-1,9.881,9.881,0,0,0,2.87-2.4h0a6.51,6.51,0,0,0,.76-1.2,2,2,0,0,0,.08-.22,3.451,3.451,0,0,0,.22-.64,1.289,1.289,0,0,0,.08-.28,4.591,4.591,0,0,0,.1-.83h0s.51-14.41.87-26.91c.22-7.33.4-14,.4-16.74,0-4.88-8.32-10.7-8.32-10.7L182,293l-12.27-5.37s-4.8.07-6.66,1.22S161.51,299.29,162.19,303.75Z" fill="#41436e"/>
              <path id="Trazado_132046" data-name="Trazado 132046" d="M168.55,271.27a32.27,32.27,0,0,0,3.68,12.43,14.73,14.73,0,0,0,6.11,1.17,4.925,4.925,0,0,0,.54-.05,6.38,6.38,0,0,0,2-.59,10,10,0,0,0,1.1-.66c.39-1.1,1.63-5.49,1.46-6.14-.49-1.93-.17-3.62,2.18-3.85s1.38,4,1.38,4l1.92-.19.16-2.51a7.15,7.15,0,0,1,1.76-4,1.68,1.68,0,0,0,.29-.81c-.1-.94-.38-4-1.13-5.26a.37.37,0,0,0-.06-.1c-1.36-2.25-4.23-4.43-10.18-4.52a15,15,0,0,0-6.45,1.1C167.8,263.76,168.55,269.73,168.55,271.27Z" fill="#393b5c"/>
            </g>
            <path id="Trazado_132047" data-name="Trazado 132047" d="M200.79,357.19a9.75,9.75,0,0,1,1.32,5.74,12.86,12.86,0,0,1-1.32,5.07s-3.09,1.9-3.56,1.59a12.79,12.79,0,0,0-2.4-.78v-1.16a2.94,2.94,0,0,0,2-1.71c.38-1.31-1.71-4.72-.78-7.93S200.79,357.19,200.79,357.19Z" fill="#f3c1be"/>
            <g id="Grupo_62399" data-name="Grupo 62399">
              <path id="Trazado_132048" data-name="Trazado 132048" d="M183.61,313a4,4,0,0,0,.36,1.76C183.74,313.68,183.61,313,183.61,313Z" fill="#3e4055"/>
              <path id="Trazado_132049" data-name="Trazado 132049" d="M183.61,313s.13.65.36,1.76c.87,4.26,2.83,15.54,4.93,22.36,1.51,4.91,3.25,9.92,4.46,13.3a48.057,48.057,0,0,1,1.5,6.7h0a2.16,2.16,0,0,0,1.07,1.23,6,6,0,0,0,5.4,0,1.92,1.92,0,0,0,1.11-1.56,1.491,1.491,0,0,0,0-.36c-.46-2.72-4.18-20.38-5.38-27.35-1.28-7.45-2.12-22.63-2.12-22.63a5.221,5.221,0,0,0-.07-.82,2.69,2.69,0,0,0-1.81-2.3,4.83,4.83,0,0,0-3.77.73C186.14,305.93,183.61,309.91,183.61,313Z" fill="#494a7d"/>
            </g>
            <path id="Trazado_132050" data-name="Trazado 132050" d="M169.75,287.66s1.23-2.45,1.49-2.45a24.58,24.58,0,0,1,8,3.35c5.61,4,7.25,6.43,7.25,6.43s-8.56-1.56-13.1-3.49S169.75,287.66,169.75,287.66Z" fill="#494a7d"/>
          </g>
          <ellipse id="Elipse_4349" data-name="Elipse 4349" cx="19.84" cy="11.45" rx="19.84" ry="11.45" transform="translate(270.49 349.59)" fill="#556bf7" opacity="0.2"/>
          <g id="Grupo_62404" data-name="Grupo 62404">
            <g id="Grupo_62403" data-name="Grupo 62403">
              <g id="Grupo_62401" data-name="Grupo 62401">
                <path id="Trazado_132051" data-name="Trazado 132051" d="M292.18,372c.08.15,0-2.16,2.88-7.38s2.73-6.88,3.11-7,9,0,9,0a41.435,41.435,0,0,1,0,4.32v1l-1.57,2.37h-.55a10.189,10.189,0,0,0-.53,2.73c-.23,3.12-6.53,6.07-9.49,5.24S292.1,371.87,292.18,372Z" fill="#393b5c"/>
                <path id="Trazado_132052" data-name="Trazado 132052" d="M292.08,352.07a29.24,29.24,0,0,1-5.23,1.44l-.38-.72a5.49,5.49,0,0,0-4.48,1.55c-2,2-4.86,5-11.83,3,0,0-3.11-.61-.76-2.27s12.44-8.65,12.51-8.42,9,0,9,0S292.53,347.82,292.08,352.07Z" fill="#393b5c"/>
                <path id="Trazado_132053" data-name="Trazado 132053" d="M277.49,296.13c.11,10.62,1.92,13.3,3.26,21.91.93,5.92,0,28.11,0,28.11a2.37,2.37,0,0,0,.76,2.11,4.39,4.39,0,0,0,1,.77,9.74,9.74,0,0,0,6.76.76,7.129,7.129,0,0,0,1.92-.76,3.05,3.05,0,0,0,1.79-2.42s1.42-16.09,1.57-22.37a44.69,44.69,0,0,0-2.5-14.9c-1-2.84-.34-25.59-.34-25.59.82-7.56-.39-11.43-.39-11.43S278.5,276,278.27,275.8C277.23,279.69,277.24,289.32,277.49,296.13Z" fill="#393b5c"/>
                <path id="Trazado_132054" data-name="Trazado 132054" d="M283.59,279.83s1.77,11.29,2,13.64a3.14,3.14,0,0,0,1.76,2.39c.15.82.29,1.57.45,2.2,4.23,17.37,8.13,25.5,9.07,31.44s0,28.1,0,28.1c-.19,1,.4,2.11,1.76,2.89a9.74,9.74,0,0,0,6.76.75,8.067,8.067,0,0,0,1-.31h0a7.64,7.64,0,0,0,.91-.43,3,3,0,0,0,1.78-2.42s1.43-16.1,1.57-22.37a44.181,44.181,0,0,0-2.5-14.9c-1-2.85-.33-25.59-.33-25.59,1.54-15.72-2.83-19.77-2.83-19.77l-4.75.93-8.94,1.76s-3.12-2.19-4.95.63a4.741,4.741,0,0,0-.3,1.84Z" fill="#494a7d"/>
                <path id="Trazado_132055" data-name="Trazado 132055" d="M301.3,223.1s-.63-1.21-4.41-1.85,2,5.33,2,5.33l1.27,2.1,1.44-4.42Z" fill="#d7d7d7"/>
                <path id="Trazado_132056" data-name="Trazado 132056" d="M314.23,236.77l-.64,2.23-.61,2.12-3.73,13.06-.17,1-1.14,6.33c-.18.65-1.36,9.71-2.33,14.35-.38,1.79-2.31,4.9-3.83,5.51a6,6,0,0,1-1.58.38,14.921,14.921,0,0,0-3.44.58c-1.63.62-9.09,1.44-11.42.3s-6.54-4.25-7-7.19.44-4.63.44-6.87c0-1.79.5-6.76.82-11.57.3-4.46.45-8.77-.09-10.3-1.21-3.45-1.36-14.56-.53-16.17h0c.86-1.47,10.14-4,10.14-4l12.42-1.06h.42Z" fill="#dde6f5"/>
                <path id="Trazado_132057" data-name="Trazado 132057" d="M297.33,231.89c2.31-3.5,4-5.67,4-5.67a47.726,47.726,0,0,0-1-6.46c-5-1-8.24,3.63-10.54,5.69a16.348,16.348,0,0,0-2.3,2.53v.22a5.42,5.42,0,0,0,9.84,3.69Z" fill="#f3c1be"/>
                <path id="Trazado_132058" data-name="Trazado 132058" d="M301.83,219.9a5.31,5.31,0,0,0-.92,2.87,17.861,17.861,0,0,1-1.05-2.66c.08,0,.46-1.14.87-1.19S301.83,219.9,301.83,219.9Z" fill="#3f292a"/>
                <path id="Trazado_132059" data-name="Trazado 132059" d="M298.29,298.18h0Z" fill="#24222d"/>
                <path id="Trazado_132060" data-name="Trazado 132060" d="M302.14,225.19l-.84-2.09s-.32,5.27-10,9.89l.26.2a6.4,6.4,0,0,1,2.51,4.74h0S301.93,232,302.14,225.19Z" fill="#fff"/>
                <path id="Trazado_132061" data-name="Trazado 132061" d="M286.79,235.73a6.88,6.88,0,0,1,2.35-3.17,5.48,5.48,0,0,1-1-2.94v-.82a19.379,19.379,0,0,1,.49-3.14l-.32-.48-1.1.8C285.52,230.17,286.79,235.73,286.79,235.73Z" fill="#fff"/>
                <path id="Trazado_132062" data-name="Trazado 132062" d="M283.87,214a6.77,6.77,0,0,0,.2,2.24,9.55,9.55,0,0,1,.36,2.61,27.461,27.461,0,0,0,1.11,6.15,12.46,12.46,0,0,0,1.27,2.78h0c.22.33.39.57.49.74.49.78,4.76,0,7.28-1.06a10,10,0,0,0,4.12-3.77c.3-.43.56-.83.78-1.21,1.46-2.5,1.37-4.09,3.26-7.1a7.22,7.22,0,0,0,1-5.68c-2.26-8.54-9.52-7.72-9.52-7.72C285.6,202,284.12,210.51,283.87,214Z" fill="#f3c1be"/>
                <path id="Trazado_132063" data-name="Trazado 132063" d="M305.51,277.18v-.49a3.121,3.121,0,0,1,0,.52Z" fill="#3e4052"/>
                <path id="Trazado_132064" data-name="Trazado 132064" d="M291.33,237.58l-1.21,9.24-1.21,14.59q-.62,7.54-.62,15.12v.75l-3.46,2.39-2.91-3.74s4.68-37.19,6.68-38.82l1.52-2Z" fill="#393b5c"/>
                <path id="Trazado_132065" data-name="Trazado 132065" d="M278.18,276.62c0,2,1.35,4.06,4,5.62,5.38,3.11,14.11,3.11,19.5,0,2.45-1.42,3.79-3.24,4-5.1a3,3,0,0,0,0-.52,4.508,4.508,0,0,0-.11-1,.418.418,0,0,0-.05-.24,7.68,7.68,0,0,1-3.87,4.41c-.29.17-.6.33-.9.47-5.43,2.63-13.5,2.47-18.6-.47a7.57,7.57,0,0,1-3.87-4.41A4.53,4.53,0,0,0,278.18,276.62Z" fill="#393b5c"/>
                <path id="Trazado_132066" data-name="Trazado 132066" d="M306,282a2.87,2.87,0,0,1,1.25.4,5.77,5.77,0,0,1,1.85,1.83,5.241,5.241,0,0,1,.65,1.49c2.71-3.44,15.27-19.56,15.5-22.66.26-3.46-11.05-26.31-11.05-26.31-9.5,1.8-6.92,10.69-6.92,10.69L316.13,262s.65,1.43-1.28,7.31C313.36,273.88,308.26,279.61,306,282Z" fill="#ffd5ca"/>
                <path id="Trazado_132067" data-name="Trazado 132067" d="M309.24,286.39s-.14.68-.4,1.63l.26-.08a.811.811,0,0,0,.29-.19l.15-.13a1.76,1.76,0,0,0,.32-1.08,2.851,2.851,0,0,0-.11-.8C309.43,286.16,309.24,286.39,309.24,286.39Z" fill="#d7d7d7"/>
                <path id="Trazado_132068" data-name="Trazado 132068" d="M304.67,283.2h.2s.43-.43,1.13-1.16a1.29,1.29,0,0,0-.6.1.85.85,0,0,0-.22.13A1.35,1.35,0,0,0,304.67,283.2Z" fill="#d7d7d7"/>
                <path id="Trazado_132069" data-name="Trazado 132069" d="M314.55,237a2,2,0,0,0-.32-.27h-.05a3.33,3.33,0,0,0-2.89-.2,7.074,7.074,0,0,0-.68.25c-.24.11-.48.24-.73.38-3.08,1.77-5.57,5.71-5.57,8.78a1.82,1.82,0,0,0,0,.41,4.919,4.919,0,0,0,.29,1,53.34,53.34,0,0,0,4.46,7.78,62.233,62.233,0,0,1,4.48,7.67c-1.58,3.28-5.26,11.18-6.41,15.66a21.334,21.334,0,0,0-.26,2.23l3.38,4.54.77,1a3.4,3.4,0,0,0,2.26-1.5c3.82-5.37,12.44-19.44,12.1-21.77h0C325.09,259.11,315.44,237.91,314.55,237Z" fill="#f3f7ff"/>
                <path id="Trazado_132070" data-name="Trazado 132070" d="M300.72,284.92v.19c.48,2,3.66,6.77,4.5,7.72a2.94,2.94,0,0,0,.71.59,2.368,2.368,0,0,0,.49-.47,15.86,15.86,0,0,0,2.38-4.93c.26-.95.4-1.63.4-1.63s.19-.23.51-.65a5.24,5.24,0,0,0-.65-1.49,5.77,5.77,0,0,0-1.85-1.83A2.869,2.869,0,0,0,306,282c-.7.73-1.13,1.16-1.13,1.16h-.2l-1.14.13a3,3,0,0,0-1.68.76l-.43.32Z" fill="#f3c1be"/>
                <path id="Trazado_132071" data-name="Trazado 132071" d="M305.16,282.24h0a.85.85,0,0,1,.22-.13,1.55,1.55,0,0,1,1,0,3,3,0,0,1,.83.34,5.67,5.67,0,0,1,1.85,1.83,4.62,4.62,0,0,1,.76,2.16.528.528,0,0,1,0,.13,1.7,1.7,0,0,1-.33,1.08l1.51-1.34a1.46,1.46,0,0,0,.58-1.3,3.233,3.233,0,0,0-.06-.61,5.22,5.22,0,0,0-.71-1.69,5.71,5.71,0,0,0-1.84-1.82,2.14,2.14,0,0,0-1.84-.31,1.884,1.884,0,0,0-.28.17C306.8,280.77,305.16,282.24,305.16,282.24Z" fill="#fff"/>
                <path id="Trazado_132072" data-name="Trazado 132072" d="M291.33,233s-1.15-.25-2.19-.44l-1.8.44a37.393,37.393,0,0,0,1.26,4.12,14.53,14.53,0,0,0,2.73.47c.5-.09,2.09-3,2.09-3S292.32,233.12,291.33,233Z" fill="#393b5c"/>
              </g>
              <g id="Grupo_62402" data-name="Grupo 62402">
                <path id="Trazado_132073" data-name="Trazado 132073" d="M279.48,259l-7.33,3.81-5.62,3.15a6.55,6.55,0,0,1-3.13.79l-4.18-6.28a10.649,10.649,0,0,1,2.4-2l12.45-7.74c.45-2.84.81-5.46,1-7.61.75-9.84,4.08-12.8,4.08-12.8h0c-.9,1.76-.75,12.74.57,16.5C280.29,248.44,279.81,254.11,279.48,259Z" fill="#f3f7ff"/>
                <path id="Trazado_132074" data-name="Trazado 132074" d="M264.21,265.2a1.51,1.51,0,0,1-.81,1.51h0c-.27.16-1.87,1.07-2,1.14s-4-5.22-4-5.22l-.3-1,2.2-1.26h0a2.17,2.17,0,0,1,2.12.26A5.91,5.91,0,0,1,264.21,265.2Z" fill="#fff"/>
                <path id="Trazado_132075" data-name="Trazado 132075" d="M262.08,266.4a1.44,1.44,0,0,1-1.85,1.59,1.79,1.79,0,0,1-.42-.12,2.52,2.52,0,0,1-.58-.27,5.92,5.92,0,0,1-2.85-4.49,2.56,2.56,0,0,1,.07-.58,1.41,1.41,0,0,1,1.87-1,2.88,2.88,0,0,1,.83.32l.08.05a6.21,6.21,0,0,1,2.7,3.49,3.95,3.95,0,0,1,.1.47A3.273,3.273,0,0,1,262.08,266.4Z" fill="#ccdbdb"/>
                <path id="Trazado_132076" data-name="Trazado 132076" d="M262,265.87a.439.439,0,0,1-.09.11c-.68.8-1.23,1.46-1.71,2l-.58.66c-2,2.16-2.59,2.29-6.88,4.8-2,1.09-7.61.5-6.13-1.54.62-.87,1.52-2,2.34-3l2.14-2.53a10.779,10.779,0,0,1-1.51-.11c-1.15-.12-2.45-.39-2-.95.6-.72,3.84-1.82,5.22-2.26h0l.54-.17h.07a20.786,20.786,0,0,0,2.17-.59l1.11-.33c.54-.16,1.08-.3,1.57-.4a2.88,2.88,0,0,1,.83.32l.08.05a6.21,6.21,0,0,1,2.7,3.49A3.946,3.946,0,0,1,262,265.87Z" fill="#f3c1be"/>
              </g>
            </g>
            <path id="Trazado_132077" data-name="Trazado 132077" d="M299.42,201.5c-5.63-1.74-11.67-.17-14.15,3.07a1.06,1.06,0,0,0-.19.24,21.893,21.893,0,0,0-1.18,2.66,12.5,12.5,0,0,0-.87,5.73,3.849,3.849,0,0,0,.09.67l1.21-2.46c2.08,1.37,7.26.68,8.38.13a5.381,5.381,0,0,1,1.14-.4,4.34,4.34,0,0,1,3.12.4c.4.07.61.57.65,1s.09,1,.13,1.56a21.191,21.191,0,0,1-1.17,8.25,8.291,8.291,0,0,1-1,1.94,5.51,5.51,0,0,1-3.14,1.66,5.239,5.239,0,0,0-.17-1.44c0-.7-3.12-2.22-4.41-2.32a4.58,4.58,0,0,0-3.59,1.19c-.34.49,1.05,4.34,2,5.28a.07.07,0,0,0,0,.06c.83,1.1,5.62-.17,8.14-1.25a9.83,9.83,0,0,0,4.11-3.77h0a3.93,3.93,0,0,0,.7-2.46l-.22-3.51s-.65-4.39,1.21-4.49,1.63,1.82,1.63,1.82l-1.42,3.87a12.864,12.864,0,0,0-.42,2,5.591,5.591,0,0,0,.83,1.91c-.21-.46,3.75-8.22,4-11.4C305.1,208,304.57,203.11,299.42,201.5Z" fill="#393b5c"/>
            <path id="Trazado_132078" data-name="Trazado 132078" d="M290,226.76a3.61,3.61,0,0,1-2.17.32c-.62-.12-2-2.41-1.53-2.77a1.75,1.75,0,0,1,1.26-.22,4.78,4.78,0,0,1,2.78.86C291.16,225.46,290.91,226.44,290,226.76Z" fill="#f3c1be"/>
          </g>
          <path id="Trazado_132079" data-name="Trazado 132079" d="M447.91,231.19v.05s0-.05-.09-.05Z" fill="#494a7d"/>
          <path id="Trazado_132080" data-name="Trazado 132080" d="M119.4,405.73a12.89,12.89,0,0,0-2.06-2.87,16.56,16.56,0,0,0-3.5-2.69,17.94,17.94,0,0,0-4-1.7,22.112,22.112,0,0,0-5.11-1H103.5a12.243,12.243,0,0,0-1-.75,24.21,24.21,0,0,0-21.87,0c-3,1.75-4.53,4-4.53,6.31s1.51,4.57,4.53,6.32A22.16,22.16,0,0,0,91,412a11.942,11.942,0,0,0,.76,1.3q.252.373.54.72c.18.23.41.45.58.67a16,16,0,0,0,3.5,2.65,18.151,18.151,0,0,0,4,1.74,19.711,19.711,0,0,0,5.11,1,19.141,19.141,0,0,0,5.24-.36,16.358,16.358,0,0,0,4.26-1.44,11.39,11.39,0,0,0,3.45-2.68,8.47,8.47,0,0,0,.94-1.39,10.9,10.9,0,0,0,.67-1.57,12.261,12.261,0,0,0,.4-1.75,7.661,7.661,0,0,0,0-1.79,8,8,0,0,0-1.05-3.37Z" fill="#556bf7" opacity="0.2"/>
          <path id="Trazado_132081" data-name="Trazado 132081" d="M78.4,425.51c3,1.74,4.53,4,4.53,6.31s-1.51,4.57-4.53,6.31a22.4,22.4,0,0,1-10.94,2.61,22.39,22.39,0,0,1-10.93-2.61c-3-1.74-4.53-4-4.53-6.31s1.51-4.57,4.53-6.31a22.28,22.28,0,0,1,10.93-2.62A22.3,22.3,0,0,1,78.4,425.51Z" fill="#556bf7" opacity="0.3"/>
          <g id="Grupo_62408" data-name="Grupo 62408">
            <g id="Grupo_62405" data-name="Grupo 62405">
              <path id="Trazado_132082" data-name="Trazado 132082" d="M84.11,428.68v3.14c0,2.28-1.52,4.57-4.52,6.32a22.49,22.49,0,0,1-10.93,2.59,22.26,22.26,0,0,1-10.94-2.59c-3-1.75-4.52-4-4.52-6.32h-.05v-3.14h1a7.509,7.509,0,0,1,.67-.9,11.291,11.291,0,0,1,2.91-2.28,22.15,22.15,0,0,1,10.94-2.6,22.38,22.38,0,0,1,10.93,2.6,10.39,10.39,0,0,1,3.54,3.18Z" fill="#ffdb76"/>
              <path id="Trazado_132083" data-name="Trazado 132083" d="M57.72,431.06v7.08c-3-1.75-4.52-4-4.52-6.32h-.05v-3.14h1a7.511,7.511,0,0,1,.67-.9Z" fill="#ffab57"/>
              <path id="Trazado_132084" data-name="Trazado 132084" d="M79.57,422.39c3,1.74,4.53,4,4.53,6.31s-1.51,4.57-4.53,6.31a22.41,22.41,0,0,1-10.94,2.62A22.391,22.391,0,0,1,57.7,435c-3-1.74-4.53-4-4.53-6.31s1.51-4.57,4.53-6.31a22.281,22.281,0,0,1,10.93-2.62,22.3,22.3,0,0,1,10.94,2.63Z" fill="#ffc15c"/>
            </g>
            <g id="Grupo_62407" data-name="Grupo 62407">
              <g id="Grupo_62406" data-name="Grupo 62406">
                <path id="Trazado_132085" data-name="Trazado 132085" d="M108.88,399.78v3.14c0,2.28-1.52,4.57-4.52,6.31a22.4,22.4,0,0,1-10.94,2.6,22.14,22.14,0,0,1-10.93-2.6c-3-1.74-4.52-4-4.52-6.31h0v-3.14h1a6.572,6.572,0,0,1,.67-.9,11.29,11.29,0,0,1,2.91-2.28A22.139,22.139,0,0,1,93.42,394a22.4,22.4,0,0,1,10.94,2.6,10.29,10.29,0,0,1,3.54,3.18Z" fill="#ffdb76"/>
                <path id="Trazado_132086" data-name="Trazado 132086" d="M82.49,402.15v7.08c-3-1.74-4.52-4-4.52-6.31h0v-3.14h1a6.572,6.572,0,0,1,.67-.9Z" fill="#ffab57"/>
                <path id="Trazado_132087" data-name="Trazado 132087" d="M104.34,393.49c3,1.74,4.53,4,4.53,6.31s-1.51,4.57-4.53,6.31a24.21,24.21,0,0,1-21.87,0c-3-1.74-4.53-4-4.53-6.31s1.51-4.57,4.53-6.31a24.13,24.13,0,0,1,21.87,0Z" fill="#ffc15c"/>
              </g>
              <path id="Trazado_132088" data-name="Trazado 132088" d="M122.26,407.85l-.4,2.51h0v.14a10.51,10.51,0,0,1-4.26,6.31,15.22,15.22,0,0,1-8.42,2.56,21.84,21.84,0,0,1-8.78-1.48,17.85,17.85,0,0,1-5.56-3.45,7.242,7.242,0,0,1-.72-.76c-.35-.41-.76-.85-.89-1a18.365,18.365,0,0,1-1-1.57,9.47,9.47,0,0,1-1-3.59,9,9,0,0,1,.09-1.88l.36-1.93v-.08l.13-.68v-.09Z" fill="#ffc15c"/>
              <path id="Trazado_132089" data-name="Trazado 132089" d="M122.3,405.74a7.66,7.66,0,0,1,0,1.79,12,12,0,0,1-.4,1.75,9.5,9.5,0,0,1-.67,1.57,7.532,7.532,0,0,1-.94,1.39,11.33,11.33,0,0,1-3.45,2.69,16.71,16.71,0,0,1-4.26,1.43,19.139,19.139,0,0,1-5.24.36,19.7,19.7,0,0,1-5.11-.94,18.889,18.889,0,0,1-4-1.75,15.64,15.64,0,0,1-3.49-2.64c-.18-.23-.41-.45-.59-.68s-.35-.44-.53-.71a11.771,11.771,0,0,1-1.35-2.29,10,10,0,0,1-.67-2.51v-.4a1.87,1.87,0,0,1,0-.45,9.73,9.73,0,0,1,.58-3l.13-.31a9.219,9.219,0,0,1,1.39-2.29A10.85,10.85,0,0,1,97.12,396a18.771,18.771,0,0,1,4.26-1.44,21.181,21.181,0,0,1,5.24-.35,21.583,21.583,0,0,1,5.11,1,18.72,18.72,0,0,1,4,1.7,17.469,17.469,0,0,1,3.49,2.69,12.58,12.58,0,0,1,2.06,2.87A7.87,7.87,0,0,1,122.3,405.74Z" fill="#ffdb76"/>
              <path id="Trazado_132090" data-name="Trazado 132090" d="M94.57,411.16l-.5,2.56c-.35-.41-.76-.85-.89-1a18.365,18.365,0,0,1-1-1.57,9.47,9.47,0,0,1-1-3.59,9,9,0,0,1,.09-1.88l.36-1.93a3.611,3.611,0,0,0,0,.63,1.87,1.87,0,0,0,0,.45v.4a10,10,0,0,0,.67,2.51A11.769,11.769,0,0,0,93.63,410c.18.27.36.49.53.71S94.43,411,94.57,411.16Z" fill="#ffab57"/>
            </g>
          </g>
        </g>
      </g>
    </g>
  </g>
</svg>
