<svg xmlns="http://www.w3.org/2000/svg" width="396" height="572.77" viewBox="0 0 396 572.77">
  <g id="Grupo_124821" data-name="Grupo 124821" transform="translate(-1020 -517)">
    <rect id="Rectángulo_4912" data-name="Rectángulo 4912" width="396" height="572.367" rx="21" transform="translate(1020 517)" fill="#fee7ee"/>
    <g id="CF8_1.8_tarjeta_3" data-name="CF8_1.8 tarjeta 3" transform="translate(1020 542.848)">
      <g id="Layer_1" data-name="Layer 1" transform="translate(0 341.23)">
        <g id="Grupo_63329" data-name="Grupo 63329">
          <g id="Grupo_63328" data-name="Grupo 63328" transform="translate(83.724)">
            <g id="Grupo_63257" data-name="Grupo 63257" transform="translate(13.731 4.702)">
              <path id="Trazado_229606" data-name="Trazado 229606" d="M182.8,393.42v26.275H111.1L98.44,393.42Z" transform="translate(-98.44 -346.454)" fill="#bbabf5"/>
              <rect id="Rectángulo_7329" data-name="Rectángulo 7329" width="68.35" height="22.621" transform="translate(16.107 25.898)" fill="#bbabf5"/>
              <rect id="Rectángulo_7330" data-name="Rectángulo 7330" width="41.857" height="22.621" transform="translate(29.353 3.445)" fill="#bbabf5"/>
              <g id="Grupo_63249" data-name="Grupo 63249" transform="translate(21.73 28.829)">
                <g id="Grupo_63242" data-name="Grupo 63242" transform="translate(47.946 0)">
                  <path id="Trazado_229607" data-name="Trazado 229607" d="M168.82,379.684a4.574,4.574,0,1,0,1.336-3.241A4.584,4.584,0,0,0,168.82,379.684Z" transform="translate(-168.82 -375.1)" fill="#6e6d72"/>
                  <path id="Trazado_229608" data-name="Trazado 229608" d="M170.24,379.7a3.178,3.178,0,1,0,3.168-3.178,3.178,3.178,0,0,0-3.168,3.178Z" transform="translate(-168.834 -375.114)" fill="#8acef0"/>
                  <g id="Grupo_63241" data-name="Grupo 63241" transform="translate(3.317 2.722)">
                    <line id="Línea_165" data-name="Línea 165" x1="2.831" y1="2.336" fill="none" stroke="#fff" stroke-linecap="round" stroke-linejoin="round" stroke-width="0.67"/>
                    <line id="Línea_166" data-name="Línea 166" x1="1.98" y1="1.663" transform="translate(0.545 1.95)" fill="none" stroke="#fff" stroke-linecap="round" stroke-linejoin="round" stroke-width="0.67"/>
                  </g>
                </g>
                <g id="Grupo_63244" data-name="Grupo 63244" transform="translate(31.967)">
                  <path id="Trazado_229609" data-name="Trazado 229609" d="M152.68,379.684a4.574,4.574,0,1,0,1.336-3.241,4.574,4.574,0,0,0-1.336,3.241Z" transform="translate(-152.68 -375.1)" fill="#6e6d72"/>
                  <path id="Trazado_229610" data-name="Trazado 229610" d="M154.1,379.7a3.168,3.168,0,1,0,3.168-3.178A3.168,3.168,0,0,0,154.1,379.7Z" transform="translate(-152.694 -375.114)" fill="#8acef0"/>
                  <g id="Grupo_63243" data-name="Grupo 63243" transform="translate(3.317 2.722)">
                    <line id="Línea_167" data-name="Línea 167" x1="2.821" y1="2.336" fill="none" stroke="#fff" stroke-linecap="round" stroke-linejoin="round" stroke-width="0.67"/>
                    <line id="Línea_168" data-name="Línea 168" x1="1.97" y1="1.663" transform="translate(0.545 1.95)" fill="none" stroke="#fff" stroke-linecap="round" stroke-linejoin="round" stroke-width="0.67"/>
                  </g>
                </g>
                <g id="Grupo_63246" data-name="Grupo 63246" transform="translate(15.979)">
                  <path id="Trazado_229611" data-name="Trazado 229611" d="M136.53,379.684a4.584,4.584,0,1,0,4.584-4.584A4.584,4.584,0,0,0,136.53,379.684Z" transform="translate(-136.53 -375.1)" fill="#6e6d72"/>
                  <path id="Trazado_229612" data-name="Trazado 229612" d="M138,379.7a3.178,3.178,0,1,0,3.178-3.178A3.178,3.178,0,0,0,138,379.7Z" transform="translate(-136.545 -375.114)" fill="#8acef0"/>
                  <g id="Grupo_63245" data-name="Grupo 63245" transform="translate(3.317 2.722)">
                    <line id="Línea_169" data-name="Línea 169" x1="2.831" y1="2.336" fill="none" stroke="#fff" stroke-linecap="round" stroke-linejoin="round" stroke-width="0.67"/>
                    <line id="Línea_170" data-name="Línea 170" x1="1.98" y1="1.663" transform="translate(0.544 1.95)" fill="none" stroke="#fff" stroke-linecap="round" stroke-linejoin="round" stroke-width="0.67"/>
                  </g>
                </g>
                <g id="Grupo_63248" data-name="Grupo 63248">
                  <path id="Trazado_229613" data-name="Trazado 229613" d="M120.39,379.684a4.574,4.574,0,1,0,4.564-4.584A4.574,4.574,0,0,0,120.39,379.684Z" transform="translate(-120.39 -375.1)" fill="#6e6d72"/>
                  <path id="Trazado_229614" data-name="Trazado 229614" d="M121.81,379.7a3.168,3.168,0,1,0,3.168-3.178,3.168,3.168,0,0,0-3.168,3.178Z" transform="translate(-120.404 -375.114)" fill="#8acef0"/>
                  <g id="Grupo_63247" data-name="Grupo 63247" transform="translate(3.317 2.722)">
                    <line id="Línea_171" data-name="Línea 171" x1="2.831" y1="2.336" fill="none" stroke="#fff" stroke-linecap="round" stroke-linejoin="round" stroke-width="0.67"/>
                    <line id="Línea_172" data-name="Línea 172" x1="1.98" y1="1.663" transform="translate(0.545 1.95)" fill="none" stroke="#fff" stroke-linecap="round" stroke-linejoin="round" stroke-width="0.67"/>
                  </g>
                </g>
              </g>
              <g id="Grupo_63254" data-name="Grupo 63254" transform="translate(37.719 6.207)">
                <g id="Grupo_63251" data-name="Grupo 63251" transform="translate(15.979)">
                  <path id="Trazado_229615" data-name="Trazado 229615" d="M152.68,356.834a4.574,4.574,0,1,0,4.574-4.584A4.574,4.574,0,0,0,152.68,356.834Z" transform="translate(-152.68 -352.25)" fill="#6e6d72"/>
                  <path id="Trazado_229616" data-name="Trazado 229616" d="M154.09,356.848a3.178,3.178,0,1,0,3.178-3.178,3.178,3.178,0,0,0-3.178,3.178Z" transform="translate(-152.694 -352.264)" fill="#8acef0"/>
                  <g id="Grupo_63250" data-name="Grupo 63250" transform="translate(3.317 2.723)">
                    <line id="Línea_173" data-name="Línea 173" x1="2.821" y1="2.346" fill="none" stroke="#fff" stroke-linecap="round" stroke-linejoin="round" stroke-width="0.67"/>
                    <line id="Línea_174" data-name="Línea 174" x1="1.97" y1="1.663" transform="translate(0.545 1.96)" fill="none" stroke="#fff" stroke-linecap="round" stroke-linejoin="round" stroke-width="0.67"/>
                  </g>
                </g>
                <g id="Grupo_63253" data-name="Grupo 63253">
                  <path id="Trazado_229617" data-name="Trazado 229617" d="M136.54,356.834a4.574,4.574,0,1,0,4.574-4.584A4.574,4.574,0,0,0,136.54,356.834Z" transform="translate(-136.54 -352.25)" fill="#6e6d72"/>
                  <path id="Trazado_229618" data-name="Trazado 229618" d="M138,356.848a3.178,3.178,0,1,0,3.178-3.178A3.178,3.178,0,0,0,138,356.848Z" transform="translate(-136.555 -352.264)" fill="#8acef0"/>
                  <g id="Grupo_63252" data-name="Grupo 63252" transform="translate(3.307 2.723)">
                    <line id="Línea_175" data-name="Línea 175" x1="2.831" y1="2.346" fill="none" stroke="#fff" stroke-linecap="round" stroke-linejoin="round" stroke-width="0.67"/>
                    <line id="Línea_176" data-name="Línea 176" x1="1.98" y1="1.663" transform="translate(0.544 1.96)" fill="none" stroke="#fff" stroke-linecap="round" stroke-linejoin="round" stroke-width="0.67"/>
                  </g>
                </g>
              </g>
              <g id="Grupo_63256" data-name="Grupo 63256" transform="translate(16.84 18.968)">
                <rect id="Rectángulo_7331" data-name="Rectángulo 7331" width="66.874" height="7.009" fill="none" stroke="#2f2a1f" stroke-miterlimit="10" stroke-width="1.04"/>
                <g id="Grupo_63255" data-name="Grupo 63255" transform="translate(3.871)">
                  <line id="Línea_177" data-name="Línea 177" y2="7.009" transform="translate(59.182)" fill="none" stroke="#2f2a1f" stroke-miterlimit="10" stroke-width="1.05"/>
                  <line id="Línea_178" data-name="Línea 178" y2="7.009" transform="translate(55.242)" fill="none" stroke="#2f2a1f" stroke-miterlimit="10" stroke-width="1.05"/>
                  <line id="Línea_179" data-name="Línea 179" y2="7.009" transform="translate(51.292)" fill="none" stroke="#2f2a1f" stroke-miterlimit="10" stroke-width="1.05"/>
                  <line id="Línea_180" data-name="Línea 180" y2="7.009" transform="translate(47.352)" fill="none" stroke="#2f2a1f" stroke-miterlimit="10" stroke-width="1.05"/>
                  <line id="Línea_181" data-name="Línea 181" y2="7.009" transform="translate(43.402)" fill="none" stroke="#2f2a1f" stroke-miterlimit="10" stroke-width="1.05"/>
                  <line id="Línea_182" data-name="Línea 182" y2="7.009" transform="translate(39.461)" fill="none" stroke="#2f2a1f" stroke-miterlimit="10" stroke-width="1.05"/>
                  <line id="Línea_183" data-name="Línea 183" y2="7.009" transform="translate(35.511)" fill="none" stroke="#2f2a1f" stroke-miterlimit="10" stroke-width="1.05"/>
                  <line id="Línea_184" data-name="Línea 184" y2="7.009" transform="translate(31.561)" fill="none" stroke="#2f2a1f" stroke-miterlimit="10" stroke-width="1.05"/>
                  <line id="Línea_185" data-name="Línea 185" y2="7.009" transform="translate(27.621)" fill="none" stroke="#2f2a1f" stroke-miterlimit="10" stroke-width="1.05"/>
                  <line id="Línea_186" data-name="Línea 186" y2="7.009" transform="translate(23.671)" fill="none" stroke="#2f2a1f" stroke-miterlimit="10" stroke-width="1.05"/>
                  <line id="Línea_187" data-name="Línea 187" y2="7.009" transform="translate(19.731)" fill="none" stroke="#2f2a1f" stroke-miterlimit="10" stroke-width="1.05"/>
                  <line id="Línea_188" data-name="Línea 188" y2="7.009" transform="translate(15.781)" fill="none" stroke="#2f2a1f" stroke-miterlimit="10" stroke-width="1.05"/>
                  <line id="Línea_189" data-name="Línea 189" y2="7.009" transform="translate(11.84)" fill="none" stroke="#2f2a1f" stroke-miterlimit="10" stroke-width="1.05"/>
                  <line id="Línea_190" data-name="Línea 190" y2="7.009" transform="translate(7.89)" fill="none" stroke="#2f2a1f" stroke-miterlimit="10" stroke-width="1.05"/>
                  <line id="Línea_191" data-name="Línea 191" y2="7.009" transform="translate(3.94)" fill="none" stroke="#2f2a1f" stroke-miterlimit="10" stroke-width="1.05"/>
                  <line id="Línea_192" data-name="Línea 192" y2="7.009" fill="none" stroke="#2f2a1f" stroke-miterlimit="10" stroke-width="1.05"/>
                </g>
                <rect id="Rectángulo_7332" data-name="Rectángulo 7332" width="67.241" height="7.009" fill="none" stroke="#2f2a1f" stroke-miterlimit="10" stroke-width="1.05"/>
              </g>
              <path id="Trazado_229619" data-name="Trazado 229619" d="M128.09,351.227h52.48l4.128-5.247H128.09Z" transform="translate(-98.737 -345.98)" fill="#babbc0"/>
            </g>
            <g id="Grupo_63280" data-name="Grupo 63280" transform="translate(127.799 40.125)">
              <rect id="Rectángulo_7333" data-name="Rectángulo 7333" width="88.14" height="39.679" fill="#f3a800"/>
              <g id="Grupo_63279" data-name="Grupo 63279" transform="translate(3.099 2.366)">
                <g id="Grupo_63258" data-name="Grupo 63258">
                  <rect id="Rectángulo_7334" data-name="Rectángulo 7334" width="2.326" height="34.937" fill="#e86900"/>
                  <rect id="Rectángulo_7335" data-name="Rectángulo 7335" width="0.693" height="34.937" fill="#afaeb4"/>
                </g>
                <g id="Grupo_63259" data-name="Grupo 63259" transform="translate(3.98)">
                  <rect id="Rectángulo_7336" data-name="Rectángulo 7336" width="2.326" height="34.937" fill="#e86900"/>
                  <rect id="Rectángulo_7337" data-name="Rectángulo 7337" width="0.693" height="34.937" fill="#afaeb4"/>
                </g>
                <g id="Grupo_63260" data-name="Grupo 63260" transform="translate(7.96)">
                  <rect id="Rectángulo_7338" data-name="Rectángulo 7338" width="2.326" height="34.937" fill="#e86900"/>
                  <rect id="Rectángulo_7339" data-name="Rectángulo 7339" width="0.693" height="34.937" fill="#afaeb4"/>
                </g>
                <g id="Grupo_63261" data-name="Grupo 63261" transform="translate(11.949)">
                  <rect id="Rectángulo_7340" data-name="Rectángulo 7340" width="2.317" height="34.937" fill="#e86900"/>
                  <rect id="Rectángulo_7341" data-name="Rectángulo 7341" width="0.693" height="34.937" fill="#afaeb4"/>
                </g>
                <g id="Grupo_63262" data-name="Grupo 63262" transform="translate(15.929)">
                  <rect id="Rectángulo_7342" data-name="Rectángulo 7342" width="2.326" height="34.937" fill="#e86900"/>
                  <rect id="Rectángulo_7343" data-name="Rectángulo 7343" width="0.693" height="34.937" fill="#afaeb4"/>
                </g>
                <g id="Grupo_63263" data-name="Grupo 63263" transform="translate(19.909)">
                  <rect id="Rectángulo_7344" data-name="Rectángulo 7344" width="2.326" height="34.937" fill="#e86900"/>
                  <rect id="Rectángulo_7345" data-name="Rectángulo 7345" width="0.693" height="34.937" fill="#afaeb4"/>
                </g>
                <g id="Grupo_63264" data-name="Grupo 63264" transform="translate(23.889)">
                  <rect id="Rectángulo_7346" data-name="Rectángulo 7346" width="2.326" height="34.937" fill="#e86900"/>
                  <rect id="Rectángulo_7347" data-name="Rectángulo 7347" width="0.693" height="34.937" fill="#afaeb4"/>
                </g>
                <g id="Grupo_63265" data-name="Grupo 63265" transform="translate(27.869)">
                  <rect id="Rectángulo_7348" data-name="Rectángulo 7348" width="2.326" height="34.937" fill="#e86900"/>
                  <rect id="Rectángulo_7349" data-name="Rectángulo 7349" width="0.693" height="34.937" fill="#afaeb4"/>
                </g>
                <g id="Grupo_63266" data-name="Grupo 63266" transform="translate(31.848)">
                  <rect id="Rectángulo_7350" data-name="Rectángulo 7350" width="2.326" height="34.937" fill="#e86900"/>
                  <rect id="Rectángulo_7351" data-name="Rectángulo 7351" width="0.693" height="34.937" fill="#afaeb4"/>
                </g>
                <g id="Grupo_63267" data-name="Grupo 63267" transform="translate(35.828)">
                  <rect id="Rectángulo_7352" data-name="Rectángulo 7352" width="2.326" height="34.937" fill="#e86900"/>
                  <rect id="Rectángulo_7353" data-name="Rectángulo 7353" width="0.693" height="34.937" fill="#afaeb4"/>
                </g>
                <g id="Grupo_63268" data-name="Grupo 63268" transform="translate(39.818)">
                  <rect id="Rectángulo_7354" data-name="Rectángulo 7354" width="2.326" height="34.937" fill="#e86900"/>
                  <rect id="Rectángulo_7355" data-name="Rectángulo 7355" width="0.693" height="34.937" fill="#afaeb4"/>
                </g>
                <g id="Grupo_63269" data-name="Grupo 63269" transform="translate(43.798)">
                  <rect id="Rectángulo_7356" data-name="Rectángulo 7356" width="2.326" height="34.937" fill="#e86900"/>
                  <rect id="Rectángulo_7357" data-name="Rectángulo 7357" width="0.703" height="34.937" fill="#afaeb4"/>
                </g>
                <g id="Grupo_63270" data-name="Grupo 63270" transform="translate(47.777)">
                  <rect id="Rectángulo_7358" data-name="Rectángulo 7358" width="2.326" height="34.937" fill="#e86900"/>
                  <rect id="Rectángulo_7359" data-name="Rectángulo 7359" width="0.693" height="34.937" fill="#afaeb4"/>
                </g>
                <g id="Grupo_63271" data-name="Grupo 63271" transform="translate(51.757)">
                  <rect id="Rectángulo_7360" data-name="Rectángulo 7360" width="2.326" height="34.937" fill="#e86900"/>
                  <rect id="Rectángulo_7361" data-name="Rectángulo 7361" width="0.693" height="34.937" fill="#afaeb4"/>
                </g>
                <g id="Grupo_63272" data-name="Grupo 63272" transform="translate(55.737)">
                  <rect id="Rectángulo_7362" data-name="Rectángulo 7362" width="2.326" height="34.937" fill="#e86900"/>
                  <rect id="Rectángulo_7363" data-name="Rectángulo 7363" width="0.693" height="34.937" fill="#afaeb4"/>
                </g>
                <g id="Grupo_63273" data-name="Grupo 63273" transform="translate(59.717)">
                  <rect id="Rectángulo_7364" data-name="Rectángulo 7364" width="2.326" height="34.937" fill="#e86900"/>
                  <rect id="Rectángulo_7365" data-name="Rectángulo 7365" width="0.693" height="34.937" fill="#afaeb4"/>
                </g>
                <g id="Grupo_63274" data-name="Grupo 63274" transform="translate(63.697)">
                  <rect id="Rectángulo_7366" data-name="Rectángulo 7366" width="2.326" height="34.937" fill="#e86900"/>
                  <rect id="Rectángulo_7367" data-name="Rectángulo 7367" width="0.703" height="34.937" fill="#afaeb4"/>
                </g>
                <g id="Grupo_63275" data-name="Grupo 63275" transform="translate(67.686)">
                  <rect id="Rectángulo_7368" data-name="Rectángulo 7368" width="2.326" height="34.937" fill="#e86900"/>
                  <rect id="Rectángulo_7369" data-name="Rectángulo 7369" width="0.693" height="34.937" fill="#afaeb4"/>
                </g>
                <g id="Grupo_63276" data-name="Grupo 63276" transform="translate(71.666)">
                  <rect id="Rectángulo_7370" data-name="Rectángulo 7370" width="2.326" height="34.937" fill="#e86900"/>
                  <rect id="Rectángulo_7371" data-name="Rectángulo 7371" width="0.693" height="34.937" fill="#afaeb4"/>
                </g>
                <g id="Grupo_63277" data-name="Grupo 63277" transform="translate(75.646)">
                  <rect id="Rectángulo_7372" data-name="Rectángulo 7372" width="2.326" height="34.937" fill="#e86900"/>
                  <rect id="Rectángulo_7373" data-name="Rectángulo 7373" width="0.693" height="34.937" fill="#afaeb4"/>
                </g>
                <g id="Grupo_63278" data-name="Grupo 63278" transform="translate(79.626)">
                  <rect id="Rectángulo_7374" data-name="Rectángulo 7374" width="2.326" height="34.937" fill="#e86900"/>
                  <rect id="Rectángulo_7375" data-name="Rectángulo 7375" width="0.693" height="34.937" fill="#afaeb4"/>
                </g>
              </g>
              <path id="Trazado_229620" data-name="Trazado 229620" d="M213.66,416.163v5.287h88.11V381.77h-1.881C294.83,426.944,230.51,419.034,213.66,416.163Z" transform="translate(-213.66 -381.76)" fill="#d7d9dd"/>
            </g>
            <g id="Grupo_63297" data-name="Grupo 63297" transform="translate(144.698)">
              <rect id="Rectángulo_7376" data-name="Rectángulo 7376" width="64.756" height="40.135" fill="#d1080f"/>
              <g id="Grupo_63296" data-name="Grupo 63296" transform="translate(2.901 2.396)">
                <g id="Grupo_63281" data-name="Grupo 63281">
                  <rect id="Rectángulo_7377" data-name="Rectángulo 7377" width="2.346" height="35.343" fill="#e34d23"/>
                  <rect id="Rectángulo_7378" data-name="Rectángulo 7378" width="0.703" height="35.343" fill="#afaeb4"/>
                </g>
                <g id="Grupo_63282" data-name="Grupo 63282" transform="translate(4.019)">
                  <rect id="Rectángulo_7379" data-name="Rectángulo 7379" width="2.346" height="35.343" fill="#e34d23"/>
                  <rect id="Rectángulo_7380" data-name="Rectángulo 7380" width="0.703" height="35.343" fill="#afaeb4"/>
                </g>
                <g id="Grupo_63283" data-name="Grupo 63283" transform="translate(8.049)">
                  <rect id="Rectángulo_7381" data-name="Rectángulo 7381" width="2.346" height="35.343" fill="#e34d23"/>
                  <rect id="Rectángulo_7382" data-name="Rectángulo 7382" width="0.703" height="35.343" fill="#afaeb4"/>
                </g>
                <g id="Grupo_63284" data-name="Grupo 63284" transform="translate(12.078)">
                  <rect id="Rectángulo_7383" data-name="Rectángulo 7383" width="2.346" height="35.343" fill="#e34d23"/>
                  <rect id="Rectángulo_7384" data-name="Rectángulo 7384" width="0.703" height="35.343" fill="#afaeb4"/>
                </g>
                <g id="Grupo_63285" data-name="Grupo 63285" transform="translate(16.107)">
                  <rect id="Rectángulo_7385" data-name="Rectángulo 7385" width="2.346" height="35.343" fill="#e34d23"/>
                  <rect id="Rectángulo_7386" data-name="Rectángulo 7386" width="0.703" height="35.343" fill="#afaeb4"/>
                </g>
                <g id="Grupo_63286" data-name="Grupo 63286" transform="translate(20.127)">
                  <rect id="Rectángulo_7387" data-name="Rectángulo 7387" width="2.346" height="35.343" fill="#e34d23"/>
                  <rect id="Rectángulo_7388" data-name="Rectángulo 7388" width="0.703" height="35.343" fill="#afaeb4"/>
                </g>
                <g id="Grupo_63287" data-name="Grupo 63287" transform="translate(24.156)">
                  <rect id="Rectángulo_7389" data-name="Rectángulo 7389" width="2.346" height="35.343" fill="#e34d23"/>
                  <rect id="Rectángulo_7390" data-name="Rectángulo 7390" width="0.703" height="35.343" fill="#afaeb4"/>
                </g>
                <g id="Grupo_63288" data-name="Grupo 63288" transform="translate(28.185)">
                  <rect id="Rectángulo_7391" data-name="Rectángulo 7391" width="2.346" height="35.343" fill="#e34d23"/>
                  <rect id="Rectángulo_7392" data-name="Rectángulo 7392" width="0.703" height="35.343" fill="#afaeb4"/>
                </g>
                <g id="Grupo_63289" data-name="Grupo 63289" transform="translate(32.215)">
                  <rect id="Rectángulo_7393" data-name="Rectángulo 7393" width="2.346" height="35.343" fill="#e34d23"/>
                  <rect id="Rectángulo_7394" data-name="Rectángulo 7394" width="0.703" height="35.343" fill="#afaeb4"/>
                </g>
                <g id="Grupo_63290" data-name="Grupo 63290" transform="translate(36.234)">
                  <rect id="Rectángulo_7395" data-name="Rectángulo 7395" width="2.346" height="35.343" fill="#e34d23"/>
                  <rect id="Rectángulo_7396" data-name="Rectángulo 7396" width="0.703" height="35.343" fill="#afaeb4"/>
                </g>
                <g id="Grupo_63291" data-name="Grupo 63291" transform="translate(40.263)">
                  <rect id="Rectángulo_7397" data-name="Rectángulo 7397" width="2.346" height="35.343" fill="#e34d23"/>
                  <rect id="Rectángulo_7398" data-name="Rectángulo 7398" width="0.703" height="35.343" fill="#afaeb4"/>
                </g>
                <g id="Grupo_63292" data-name="Grupo 63292" transform="translate(44.293)">
                  <rect id="Rectángulo_7399" data-name="Rectángulo 7399" width="2.346" height="35.343" fill="#e34d23"/>
                  <rect id="Rectángulo_7400" data-name="Rectángulo 7400" width="0.703" height="35.343" fill="#afaeb4"/>
                </g>
                <g id="Grupo_63293" data-name="Grupo 63293" transform="translate(48.322)">
                  <rect id="Rectángulo_7401" data-name="Rectángulo 7401" width="2.346" height="35.343" fill="#e34d23"/>
                  <rect id="Rectángulo_7402" data-name="Rectángulo 7402" width="0.703" height="35.343" fill="#afaeb4"/>
                </g>
                <g id="Grupo_63294" data-name="Grupo 63294" transform="translate(52.341)">
                  <rect id="Rectángulo_7403" data-name="Rectángulo 7403" width="2.346" height="35.343" fill="#e34d23"/>
                  <rect id="Rectángulo_7404" data-name="Rectángulo 7404" width="0.703" height="35.343" fill="#afaeb4"/>
                </g>
                <g id="Grupo_63295" data-name="Grupo 63295" transform="translate(56.371)">
                  <rect id="Rectángulo_7405" data-name="Rectángulo 7405" width="2.346" height="35.343" fill="#e34d23"/>
                  <rect id="Rectángulo_7406" data-name="Rectángulo 7406" width="0.703" height="35.343" fill="#afaeb4"/>
                </g>
              </g>
              <path id="Trazado_229621" data-name="Trazado 229621" d="M230.73,376.029v5.346h64.756V341.24h-1.9C288.417,386.928,247.827,378.929,230.73,376.029Z" transform="translate(-230.73 -341.23)" fill="#d7d9dd"/>
            </g>
            <g id="Grupo_63308" data-name="Grupo 63308" transform="translate(92.862 44.797)">
              <rect id="Rectángulo_7407" data-name="Rectángulo 7407" width="34.937" height="35.016" fill="#54bdea"/>
              <g id="Grupo_63307" data-name="Grupo 63307" transform="translate(1.871 1.554)">
                <g id="Grupo_63298" data-name="Grupo 63298">
                  <rect id="Rectángulo_7408" data-name="Rectángulo 7408" width="2.119" height="31.908" fill="#00a5d7"/>
                  <rect id="Rectángulo_7409" data-name="Rectángulo 7409" width="0.634" height="31.908" fill="#afaeb4"/>
                </g>
                <g id="Grupo_63299" data-name="Grupo 63299" transform="translate(3.633)">
                  <rect id="Rectángulo_7410" data-name="Rectángulo 7410" width="2.119" height="31.908" fill="#00a5d7"/>
                  <rect id="Rectángulo_7411" data-name="Rectángulo 7411" width="0.634" height="31.908" fill="#afaeb4"/>
                </g>
                <g id="Grupo_63300" data-name="Grupo 63300" transform="translate(7.267)">
                  <rect id="Rectángulo_7412" data-name="Rectángulo 7412" width="2.119" height="31.908" fill="#00a5d7"/>
                  <rect id="Rectángulo_7413" data-name="Rectángulo 7413" width="0.634" height="31.908" fill="#afaeb4"/>
                </g>
                <g id="Grupo_63301" data-name="Grupo 63301" transform="translate(10.91)">
                  <rect id="Rectángulo_7414" data-name="Rectángulo 7414" width="2.119" height="31.908" fill="#00a5d7"/>
                  <rect id="Rectángulo_7415" data-name="Rectángulo 7415" width="0.634" height="31.908" fill="#afaeb4"/>
                </g>
                <g id="Grupo_63302" data-name="Grupo 63302" transform="translate(14.543)">
                  <rect id="Rectángulo_7416" data-name="Rectángulo 7416" width="2.119" height="31.908" fill="#00a5d7"/>
                  <rect id="Rectángulo_7417" data-name="Rectángulo 7417" width="0.634" height="31.908" fill="#afaeb4"/>
                </g>
                <g id="Grupo_63303" data-name="Grupo 63303" transform="translate(18.176)">
                  <rect id="Rectángulo_7418" data-name="Rectángulo 7418" width="2.119" height="31.908" fill="#00a5d7"/>
                  <rect id="Rectángulo_7419" data-name="Rectángulo 7419" width="0.634" height="31.908" fill="#afaeb4"/>
                </g>
                <g id="Grupo_63304" data-name="Grupo 63304" transform="translate(21.81)">
                  <rect id="Rectángulo_7420" data-name="Rectángulo 7420" width="2.119" height="31.908" fill="#00a5d7"/>
                  <rect id="Rectángulo_7421" data-name="Rectángulo 7421" width="0.634" height="31.908" fill="#afaeb4"/>
                </g>
                <g id="Grupo_63305" data-name="Grupo 63305" transform="translate(25.443)">
                  <rect id="Rectángulo_7422" data-name="Rectángulo 7422" width="2.119" height="31.908" fill="#00a5d7"/>
                  <rect id="Rectángulo_7423" data-name="Rectángulo 7423" width="0.643" height="31.908" fill="#afaeb4"/>
                </g>
                <g id="Grupo_63306" data-name="Grupo 63306" transform="translate(29.086)">
                  <rect id="Rectángulo_7424" data-name="Rectángulo 7424" width="2.119" height="31.908" fill="#00a5d7"/>
                  <rect id="Rectángulo_7425" data-name="Rectángulo 7425" width="0.634" height="31.908" fill="#afaeb4"/>
                </g>
              </g>
              <path id="Trazado_229622" data-name="Trazado 229622" d="M208.407,386.48a23,23,0,0,1,1.554,8.3,23.76,23.76,0,0,1-23.483,23.542,22.879,22.879,0,0,1-8.108-1.495V421.5h34.947V386.48Z" transform="translate(-178.37 -386.48)" fill="#d7d9dd"/>
            </g>
            <path id="Trazado_229623" data-name="Trazado 229623" d="M277.343,407.25c0,.089-12.632,10.583-12.7,10.623H152s-10.435-10.534-10.375-10.623H84.57s26.562,53.094,26.512,53.282H280.026c.158-.069,33.1-53.282,33.1-53.282Z" transform="translate(-84.57 -341.89)" fill="#fd8f25"/>
            <g id="Grupo_63327" data-name="Grupo 63327" transform="translate(27.215 84.239)">
              <g id="Grupo_63310" data-name="Grupo 63310" transform="translate(0 0)">
                <path id="Trazado_229624" data-name="Trazado 229624" d="M112.06,432.042A5.7,5.7,0,1,0,113.723,428a5.7,5.7,0,0,0-1.663,4.045Z" transform="translate(-112.06 -426.32)" fill="#6e6d72"/>
                <path id="Trazado_229625" data-name="Trazado 229625" d="M113.83,432.06a3.96,3.96,0,1,0,3.96-3.96A3.96,3.96,0,0,0,113.83,432.06Z" transform="translate(-112.078 -426.338)" fill="#8acef0"/>
                <g id="Grupo_63309" data-name="Grupo 63309" transform="translate(4.128 3.396)">
                  <line id="Línea_193" data-name="Línea 193" x1="3.534" y1="2.92" fill="none" stroke="#fff" stroke-linecap="round" stroke-linejoin="round" stroke-width="0.84"/>
                  <line id="Línea_194" data-name="Línea 194" x1="2.465" y1="2.079" transform="translate(0.683 2.435)" fill="none" stroke="#fff" stroke-linecap="round" stroke-linejoin="round" stroke-width="0.84"/>
                </g>
              </g>
              <g id="Grupo_63312" data-name="Grupo 63312" transform="translate(20.344 0)">
                <path id="Trazado_229626" data-name="Trazado 229626" d="M132.61,432.042A5.7,5.7,0,1,0,134.273,428,5.7,5.7,0,0,0,132.61,432.042Z" transform="translate(-132.61 -426.32)" fill="#6e6d72"/>
                <path id="Trazado_229627" data-name="Trazado 229627" d="M134.37,432.06a3.96,3.96,0,1,0,3.96-3.96A3.96,3.96,0,0,0,134.37,432.06Z" transform="translate(-132.628 -426.338)" fill="#8acef0"/>
                <g id="Grupo_63311" data-name="Grupo 63311" transform="translate(4.128 3.396)">
                  <line id="Línea_195" data-name="Línea 195" x1="3.524" y1="2.92" fill="none" stroke="#fff" stroke-linecap="round" stroke-linejoin="round" stroke-width="0.84"/>
                  <line id="Línea_196" data-name="Línea 196" x1="2.455" y1="2.079" transform="translate(0.683 2.435)" fill="none" stroke="#fff" stroke-linecap="round" stroke-linejoin="round" stroke-width="0.84"/>
                </g>
              </g>
              <g id="Grupo_63314" data-name="Grupo 63314" transform="translate(40.679 0)">
                <path id="Trazado_229628" data-name="Trazado 229628" d="M153.15,432.042A5.7,5.7,0,1,0,154.813,428,5.7,5.7,0,0,0,153.15,432.042Z" transform="translate(-153.15 -426.32)" fill="#6e6d72"/>
                <path id="Trazado_229629" data-name="Trazado 229629" d="M154.92,432.06a3.96,3.96,0,1,0,3.96-3.96A3.96,3.96,0,0,0,154.92,432.06Z" transform="translate(-153.168 -426.338)" fill="#8acef0"/>
                <g id="Grupo_63313" data-name="Grupo 63313" transform="translate(4.128 3.396)">
                  <line id="Línea_197" data-name="Línea 197" x1="3.524" y1="2.92" fill="none" stroke="#fff" stroke-linecap="round" stroke-linejoin="round" stroke-width="0.84"/>
                  <line id="Línea_198" data-name="Línea 198" x1="2.465" y1="2.079" transform="translate(0.683 2.435)" fill="none" stroke="#fff" stroke-linecap="round" stroke-linejoin="round" stroke-width="0.84"/>
                </g>
              </g>
              <g id="Grupo_63316" data-name="Grupo 63316" transform="translate(61.014 0)">
                <path id="Trazado_229630" data-name="Trazado 229630" d="M173.69,432.042A5.712,5.712,0,1,0,175.36,428a5.712,5.712,0,0,0-1.67,4.046Z" transform="translate(-173.69 -426.32)" fill="#6e6d72"/>
                <path id="Trazado_229631" data-name="Trazado 229631" d="M175.46,432.06a3.96,3.96,0,1,0,3.96-3.96A3.96,3.96,0,0,0,175.46,432.06Z" transform="translate(-173.708 -426.338)" fill="#8acef0"/>
                <g id="Grupo_63315" data-name="Grupo 63315" transform="translate(4.138 3.396)">
                  <line id="Línea_199" data-name="Línea 199" x1="3.524" y1="2.92" fill="none" stroke="#fff" stroke-linecap="round" stroke-linejoin="round" stroke-width="0.84"/>
                  <line id="Línea_200" data-name="Línea 200" x1="2.465" y1="2.079" transform="translate(0.673 2.435)" fill="none" stroke="#fff" stroke-linecap="round" stroke-linejoin="round" stroke-width="0.84"/>
                </g>
              </g>
              <g id="Grupo_63318" data-name="Grupo 63318" transform="translate(81.358 0)">
                <path id="Trazado_229632" data-name="Trazado 229632" d="M194.24,432.042A5.7,5.7,0,1,0,195.9,428a5.7,5.7,0,0,0-1.663,4.045Z" transform="translate(-194.24 -426.32)" fill="#6e6d72"/>
                <path id="Trazado_229633" data-name="Trazado 229633" d="M196,432.06a3.96,3.96,0,1,0,3.96-3.96A3.96,3.96,0,0,0,196,432.06Z" transform="translate(-194.258 -426.338)" fill="#8acef0"/>
                <g id="Grupo_63317" data-name="Grupo 63317" transform="translate(4.128 3.396)">
                  <line id="Línea_201" data-name="Línea 201" x1="3.524" y1="2.92" fill="none" stroke="#fff" stroke-linecap="round" stroke-linejoin="round" stroke-width="0.84"/>
                  <line id="Línea_202" data-name="Línea 202" x1="2.465" y1="2.079" transform="translate(0.683 2.435)" fill="none" stroke="#fff" stroke-linecap="round" stroke-linejoin="round" stroke-width="0.84"/>
                </g>
              </g>
              <g id="Grupo_63320" data-name="Grupo 63320" transform="translate(101.693)">
                <path id="Trazado_229634" data-name="Trazado 229634" d="M214.78,432.042A5.7,5.7,0,1,0,216.443,428a5.712,5.712,0,0,0-1.663,4.045Z" transform="translate(-214.78 -426.32)" fill="#6e6d72"/>
                <path id="Trazado_229635" data-name="Trazado 229635" d="M216.55,432.06a3.96,3.96,0,1,0,3.96-3.96A3.96,3.96,0,0,0,216.55,432.06Z" transform="translate(-214.798 -426.338)" fill="#8acef0"/>
                <g id="Grupo_63319" data-name="Grupo 63319" transform="translate(4.138 3.396)">
                  <line id="Línea_203" data-name="Línea 203" x1="3.524" y1="2.92" fill="none" stroke="#fff" stroke-linecap="round" stroke-linejoin="round" stroke-width="0.84"/>
                  <line id="Línea_204" data-name="Línea 204" x1="2.465" y1="2.079" transform="translate(0.673 2.435)" fill="none" stroke="#fff" stroke-linecap="round" stroke-linejoin="round" stroke-width="0.84"/>
                </g>
              </g>
              <g id="Grupo_63322" data-name="Grupo 63322" transform="translate(122.037 0)">
                <path id="Trazado_229636" data-name="Trazado 229636" d="M235.33,432.042A5.7,5.7,0,1,0,236.993,428a5.7,5.7,0,0,0-1.663,4.045Z" transform="translate(-235.33 -426.32)" fill="#6e6d72"/>
                <path id="Trazado_229637" data-name="Trazado 229637" d="M237.09,432.06a3.96,3.96,0,1,0,3.96-3.96A3.96,3.96,0,0,0,237.09,432.06Z" transform="translate(-235.348 -426.338)" fill="#8acef0"/>
                <g id="Grupo_63321" data-name="Grupo 63321" transform="translate(4.128 3.396)">
                  <line id="Línea_205" data-name="Línea 205" x1="3.524" y1="2.92" fill="none" stroke="#fff" stroke-linecap="round" stroke-linejoin="round" stroke-width="0.84"/>
                  <line id="Línea_206" data-name="Línea 206" x1="2.465" y1="2.079" transform="translate(0.683 2.435)" fill="none" stroke="#fff" stroke-linecap="round" stroke-linejoin="round" stroke-width="0.84"/>
                </g>
              </g>
              <g id="Grupo_63324" data-name="Grupo 63324" transform="translate(142.372)">
                <path id="Trazado_229638" data-name="Trazado 229638" d="M255.87,432.042A5.7,5.7,0,1,0,257.533,428a5.712,5.712,0,0,0-1.663,4.045Z" transform="translate(-255.87 -426.32)" fill="#6e6d72"/>
                <path id="Trazado_229639" data-name="Trazado 229639" d="M257.64,432.06a3.96,3.96,0,1,0,3.96-3.96A3.96,3.96,0,0,0,257.64,432.06Z" transform="translate(-255.888 -426.338)" fill="#8acef0"/>
                <g id="Grupo_63323" data-name="Grupo 63323" transform="translate(4.128 3.396)">
                  <line id="Línea_207" data-name="Línea 207" x1="3.534" y1="2.92" fill="none" stroke="#fff" stroke-linecap="round" stroke-linejoin="round" stroke-width="0.84"/>
                  <line id="Línea_208" data-name="Línea 208" x1="2.465" y1="2.079" transform="translate(0.683 2.435)" fill="none" stroke="#fff" stroke-linecap="round" stroke-linejoin="round" stroke-width="0.84"/>
                </g>
              </g>
              <g id="Grupo_63326" data-name="Grupo 63326" transform="translate(162.716 0)">
                <path id="Trazado_229640" data-name="Trazado 229640" d="M276.42,432.042A5.7,5.7,0,1,0,278.083,428,5.7,5.7,0,0,0,276.42,432.042Z" transform="translate(-276.42 -426.32)" fill="#6e6d72"/>
                <path id="Trazado_229641" data-name="Trazado 229641" d="M278.18,432.06a3.96,3.96,0,1,0,3.96-3.96A3.96,3.96,0,0,0,278.18,432.06Z" transform="translate(-276.438 -426.338)" fill="#8acef0"/>
                <g id="Grupo_63325" data-name="Grupo 63325" transform="translate(4.128 3.396)">
                  <line id="Línea_209" data-name="Línea 209" x1="3.524" y1="2.92" fill="none" stroke="#fff" stroke-linecap="round" stroke-linejoin="round" stroke-width="0.84"/>
                  <line id="Línea_210" data-name="Línea 210" x1="2.465" y1="2.079" transform="translate(0.683 2.435)" fill="none" stroke="#fff" stroke-linecap="round" stroke-linejoin="round" stroke-width="0.84"/>
                </g>
              </g>
            </g>
          </g>
          <path id="Trazado_229642" data-name="Trazado 229642" d="M381.516,459.853A14.484,14.484,0,0,1,367.428,448.7a14.464,14.464,0,0,1-28.165,0,14.474,14.474,0,0,1-28.175,0,14.474,14.474,0,0,1-28.175,0,14.474,14.474,0,0,1-28.175,0,14.464,14.464,0,0,1-28.165,0A14.484,14.484,0,0,1,198,445.31a14.484,14.484,0,0,1-28.571,3.356,14.464,14.464,0,0,1-28.165,0,14.474,14.474,0,0,1-28.175,0,14.474,14.474,0,0,1-28.175,0,14.474,14.474,0,0,1-28.175,0,14.464,14.464,0,0,1-28.165,0A14.484,14.484,0,0,1,0,445.31V547.963H396V445.31a14.494,14.494,0,0,1-14.484,14.543Z" transform="translate(0 -342.271)" fill="#472ea6"/>
        </g>
      </g>
    </g>
  </g>
</svg>
